<svg width="871" height="181" viewBox="0 0 871 181" fill="none" xmlns="http://www.w3.org/2000/svg">
<g opacity="0.7">
<path fill-rule="evenodd" clip-rule="evenodd" d="M884.149 58.2229C884.673 58.935 885.173 59.6708 885.673 60.4066C890.652 67.7408 894.368 75.5497 896.869 83.596C903.919 106.311 901.323 130.901 890.032 151.527C883.934 162.706 875.264 172.722 864.212 180.674C852.492 189.1 839.391 194.227 826.005 196.244C805.4 199.377 784.129 195.105 766.288 184.092C764.764 183.166 763.263 182.169 761.81 181.125C754.093 175.689 747.137 168.901 741.301 160.831C714.575 123.875 720.888 73.1762 754.569 43.6969C756.236 42.2253 757.951 40.8249 759.785 39.472C759.785 39.472 759.785 39.472 759.809 39.472C760.286 39.0922 760.786 38.7362 761.262 38.3802C766.622 34.535 772.243 31.3782 778.079 28.886C781.724 27.3195 785.439 26.014 789.203 24.9934C807.925 19.8191 827.767 21.0296 845.561 28.1265C860.543 34.1078 874.049 44.2428 884.173 58.2467L884.149 58.2229Z" fill="url(#paint0_radial_1665_13649)"/>
<path style="mix-blend-mode:multiply" opacity="0.3" fill-rule="evenodd" clip-rule="evenodd" d="M845.537 28.1262C845.299 28.1262 845.084 28.1025 844.846 28.0787C843.655 28.0787 842.226 28.1499 841.059 28.3873C840.011 28.6009 839.129 29.1468 838.2 29.4316C836.604 29.8826 834.842 30.0725 833.127 30.1437C831.054 30.2386 829.173 30.832 827.124 30.9982C821.765 31.3779 816.572 28.7433 811.617 27.0344C810.426 26.6071 809.64 26.3935 808.521 25.8476C807.759 25.4916 807.02 25.3966 806.186 25.3017C804.4 25.0643 802.375 24.9219 800.708 25.8239C799.708 26.3698 799.303 27.4379 798.707 28.411C797.897 29.7402 797.588 30.2149 799.041 30.7845C801.542 31.7814 804.71 32.4223 804.471 35.8402C804.329 38.0238 804.352 40.1363 803.924 42.2725C803.423 44.646 803.566 47.5892 801.875 49.5592C800.613 51.0071 798.326 50.9359 796.539 51.4106C794.967 51.8378 793.229 52.0514 791.799 52.9059C790.68 53.5705 790.06 54.5674 789.155 55.4456C787.75 56.7985 785.797 57.7717 783.963 56.7985C783.272 56.4425 783.319 56.1339 782.438 56.1339C781.628 56.1339 780.58 56.6324 779.866 56.9409C777.674 57.8666 775.792 59.4806 773.625 60.3825C772.172 60.9759 770.481 61.2845 768.98 61.688C767.979 61.9491 766.979 62.6374 766.026 62.7086C765.478 62.7561 764.764 62.6137 764.168 62.6374C762.406 62.6374 761.334 62.946 759.905 64.0141C757.07 66.1265 753.878 69.758 752.235 72.986C751.163 75.0747 751.853 76.0242 753.568 77.2347C755.021 78.2553 757.475 79.1335 758.213 80.8424C758.833 82.2666 758.571 83.9755 758.976 85.4471C759.381 86.895 759.762 88.2716 761.119 89.0786C763.43 90.4315 766.36 90.6451 768.766 91.7132C771.505 92.9237 774.697 95.9856 773.577 99.1424C773.005 100.685 773.172 102.228 773.22 103.866C773.244 104.981 773.577 106.5 772.291 107.023C771.433 107.379 770.147 106.856 769.266 107.141C768.265 107.474 767.765 108.281 767.408 109.206C766.836 110.63 765.86 112.292 765.693 113.811C765.383 116.612 768.051 120.077 770.385 121.335C773.196 122.854 775.911 124.539 779.222 123.97C781.319 123.614 783.248 122.237 785.416 123.281C786.726 123.946 787.321 125.085 788.345 126.011C789.37 126.937 790.513 127.53 791.466 128.598C792.347 129.619 793.252 130.497 794.3 131.328C795.753 132.467 797.23 133.796 798.826 134.745C800.708 135.885 802.852 136.122 804.876 136.81C806.687 137.404 808.259 137.214 810.117 137.594C812.141 137.997 814.309 137.95 816.143 138.923C817.525 139.659 818.835 140.561 820.288 141.225C824.313 143.053 826.005 138.709 827.172 135.647C827.982 133.511 828.744 131.589 828.982 129.334C829.173 127.577 829.316 125.75 829.84 124.041C830.364 122.379 830.888 120.575 831.65 119.033C831.96 118.416 832.412 117.846 832.484 117.11C832.627 115.971 832.174 114.855 831.483 113.858C830.03 111.746 828.458 108.755 826.505 107.07C824.385 105.219 822.051 107.212 820.264 108.447C819.24 109.135 817.858 109.871 816.691 109.301C815.595 108.755 815.071 107.663 813.809 107.165C812.475 106.643 811.26 106.951 810.284 108.067C809.879 108.542 809.688 109.04 809.212 109.491C808.759 109.918 808.14 109.966 808.021 110.678C807.782 112.173 810.069 112.316 811.117 112.624C812.975 113.17 813.261 113.384 813.594 115.282C813.761 116.374 813.952 118.154 812.594 118.487C811.617 118.7 809.879 117.466 808.973 117.229C805.115 116.184 801.208 115.14 801.184 110.322C801.184 108.826 801.899 108.423 802.352 107.141C802.828 105.836 802.304 104.246 802.852 102.893C803.59 101.112 805.948 100.044 807.473 98.9525C809.259 97.6471 811.474 96.3891 813.499 95.4634C814.952 94.7988 816.024 94.7988 817.525 94.6564C819.025 94.514 819.859 93.2323 821.169 92.6627C823.599 91.642 825.6 92.5202 828.005 93.0187C830.364 93.4934 831.555 94.6327 833.413 96.1755C837.128 99.3086 840.844 102.845 843.703 106.785C846.156 110.227 848.467 113.977 851.611 116.778C853.135 118.131 854.708 119.223 856.399 120.291C856.947 120.623 857.018 120.338 857.375 121.074C857.59 121.501 857.804 123.068 857.828 123.59C857.828 124.919 857.018 126.628 856.78 127.981C856.542 129.31 855.898 130.426 855.446 131.684C854.803 133.487 854.041 135.149 853.35 136.929C852.206 139.777 854.279 142.554 853.683 145.593C852.826 149.912 850.134 152.547 847.728 156.084C845.799 158.932 843.703 161.543 842.154 164.557C841.178 166.456 840.725 168.331 839.558 170.159C838.081 172.461 836.104 174.336 834.365 176.401C832.984 178.039 831.412 179.534 829.53 180.578C828.291 181.267 827.196 181.528 826.005 182.406C823.885 183.949 821.741 185.515 819.573 187.034C818.406 187.841 817.025 187.984 815.667 188.364C814.285 188.743 812.856 189.005 811.475 189.384C807.83 190.357 803.4 192.755 799.612 191.544C798.493 191.188 797.445 190.571 796.325 190.31C795.372 190.096 794.467 190.286 793.514 190.215C792.704 190.168 792.038 190.073 791.251 190.144C789.989 190.239 789.131 189.978 787.869 189.717C786.845 189.527 785.797 189.527 784.749 189.645C784.225 189.693 783.343 190.049 782.843 189.93C782.176 189.788 782.224 189.408 781.771 188.957C781.271 188.435 780.675 188.174 780.128 187.699C778.698 186.417 776.531 185.231 774.363 185.42C773.196 185.539 772.553 185.848 771.362 185.705C769.147 185.515 768.099 185.207 766.241 183.83C766.241 183.901 766.241 183.973 766.264 183.996C784.082 195.01 805.353 199.282 825.981 196.149C826.338 195.579 826.672 195.01 826.981 194.44C827.934 192.683 829.268 191.758 830.864 190.618C832.96 189.123 834.818 187.485 836.604 185.61C838.2 183.973 839.915 182.691 841.797 181.362C844.131 179.724 845.989 177.588 848.348 175.95C850.587 174.384 853.088 173.577 855.565 172.532C859.138 171.013 861.782 167.809 864.355 164.984C865.522 163.726 866.26 162.041 867.499 160.854C868.261 160.119 869.118 159.596 869.833 158.789C871.548 156.938 874.144 154.849 876.431 153.663C877.979 152.856 879.337 153.544 880.885 153.473C882.529 153.401 883.577 151.764 884.911 151.028C886.459 150.173 888.436 150.553 889.985 151.431C901.275 130.782 903.848 106.216 896.821 83.5008C894.844 84.9487 893.034 88.6751 891.819 89.4109C891.08 89.8619 890.199 89.8856 889.437 90.4315C888.722 90.9537 888.341 91.5708 887.746 92.2117C886.864 93.1611 885.745 94.3004 884.482 93.7307C883.244 93.1374 882.886 90.5977 881.195 91.4521C880.361 91.8794 880.076 92.9712 879.099 93.4222C878.265 93.8019 877.622 94.0868 876.884 94.6327C875.621 95.5584 874.859 96.5552 873.763 97.5996C873.216 98.1455 872.644 98.2405 871.953 98.5253C871.429 98.7389 870.524 99.4747 870.024 99.5459C868.142 99.807 868.332 97.5521 868.285 96.3416C868.285 95.7245 868.332 94.9175 868.237 94.3004C868.118 93.5646 867.785 93.3747 867.499 92.7576C866.737 91.1673 866.975 89.3872 867.38 87.702C867.975 85.2335 868.547 82.5989 868.428 80.0592C868.38 78.9199 868.523 78.1603 868.023 77.1397C867.665 76.3802 867.308 75.6207 866.975 74.8611C866.546 73.9354 866.308 73.1047 866.046 72.1316C865.665 70.8261 864.902 69.7343 864.474 68.4526C864.116 67.3607 863.807 64.8448 864.259 63.7292C864.497 63.2071 865.021 62.9222 865.212 62.3288C865.403 61.7592 865.164 61.2845 865.498 60.7623C866.284 59.5281 868.999 59.0059 870.262 58.6499C872.167 58.104 874.573 58.009 876.526 58.2938C878.67 58.6024 880.338 59.3382 882.339 60.0028C883.053 60.2401 884.554 60.5724 885.626 60.3588C885.149 59.623 884.625 58.911 884.101 58.1752C873.978 44.1713 860.448 34.0363 845.489 28.055L845.537 28.1262ZM832.579 87.5833C832.769 88.1767 831.983 89.1498 831.483 89.3872C830.483 89.9093 829.006 89.3872 827.91 89.2922C826.743 89.1973 825.671 88.8175 824.861 87.9393H825.862C824.528 87.4646 822.813 87.3459 822.741 85.542C822.694 84.5214 823.384 84.023 824.29 83.8331C825.766 83.5245 827.434 83.1448 828.934 83.572C829.959 83.8568 830.507 84.7113 831.102 85.542C831.483 86.088 832.388 86.9187 832.603 87.5833H832.579ZM818.478 36.4573C818.62 37.5254 818.192 38.7122 817.644 39.5666C817.239 40.2312 816.31 41.2281 815.643 41.7028C814.119 42.8184 811.808 42.6285 810.069 42.5336C809.045 42.4861 806.568 42.0114 809.069 41.2044C808.426 40.8009 807.806 40.516 807.425 39.8989C807.163 39.4954 806.973 38.902 806.782 38.4511C806.329 37.383 806.329 36.2199 805.972 35.1281C805.686 34.2974 805.329 33.2768 804.876 32.541C804.448 31.8526 803.852 31.4254 804.114 30.5472C804.281 30.0013 804.591 29.7877 805.115 29.7639C805.662 29.7165 806.449 30.12 807.02 30.2386C807.663 30.381 808.283 30.5472 808.902 30.7133C810.736 31.2118 812.308 32.3986 814.095 33.0157C815.095 33.348 815.905 33.5379 816.834 34.155C817.62 34.6771 818.335 35.4367 818.501 36.4336L818.478 36.4573ZM871.262 52.1226C871.429 53.9028 869.809 55.6592 868.594 56.7985C866.808 58.4837 864.021 59.5993 861.734 60.4775C860.758 60.8573 859.996 61.0234 858.995 60.9759C857.923 60.9522 856.804 61.3082 858.09 60.5962C856.899 59.718 855.946 58.8872 854.874 57.9141C853.588 56.7273 852.016 55.8016 850.61 54.7335C848.3 52.9534 845.489 50.8409 844.394 47.9927C843.679 46.1413 843.679 43.6016 844.918 42.0114C845.799 40.9196 847.157 39.8515 848.514 39.4242C850.206 38.8783 852.04 38.997 853.755 39.1157C855.446 39.2343 857.256 39.7803 858.638 40.8246C859.614 41.5841 860.448 42.5336 861.472 43.2219C861.996 43.5779 862.497 43.8627 862.997 44.2662C863.616 44.7647 864.378 44.9071 865.093 45.1682C866.189 45.5717 867.094 45.7853 867.832 46.7347C868.523 47.6129 869.119 48.5386 869.785 49.4405C870.405 50.295 871.143 51.0308 871.262 52.1226Z" fill="url(#paint1_linear_1665_13649)"/>
<path style="mix-blend-mode:multiply" opacity="0.3" fill-rule="evenodd" clip-rule="evenodd" d="M762.93 114.095C763.097 114.949 763.621 116.825 763.121 117.703C762.573 118.7 760.906 118.51 760 118.628C759.238 118.747 758.452 118.676 757.737 118.913C757.142 119.103 756.618 119.483 755.975 119.578C755.522 119.649 754.665 119.791 754.212 119.697C753.688 119.578 753.331 119.198 752.878 118.913C751.783 118.177 750.901 117.038 749.901 116.136C749.281 115.567 749.043 114.973 748.757 114.19C748.376 113.169 747.924 112.172 747.59 111.128C747.114 109.633 746.518 108.066 746.399 106.5C746.28 105.052 746.685 103.984 747.424 102.75C747.733 102.227 748.186 101.848 748.472 101.325C748.829 100.708 749.162 100.02 749.663 99.4978C749.948 99.2129 750.282 98.8806 750.639 98.6908C751.139 98.4297 751.449 98.5483 751.949 98.4771C752.688 98.3822 752.974 98.2635 753.688 98.4771C754.236 98.6433 754.76 98.8806 755.189 99.2367C756.094 99.9487 757.19 100.495 758.023 101.254C759.167 102.275 759.881 103.248 760.286 104.767C760.644 106.096 761.168 107.33 761.739 108.565C762.216 109.585 762.883 111.057 762.93 112.244C762.954 113.098 762.74 113.858 762.859 114.095H762.93Z" fill="url(#paint2_linear_1665_13649)"/>
<path style="mix-blend-mode:multiply" opacity="0.3" fill-rule="evenodd" clip-rule="evenodd" d="M760.548 123.756C760.429 124.326 760.476 124.872 760.667 125.37C761.477 125.275 762.215 126.367 763.12 125.987C763.192 125.252 763.835 123.994 762.811 123.59C762.668 123.519 762.358 123.661 762.191 123.638C761.953 123.59 761.739 123.4 761.524 123.424C761.024 123.495 760.214 124.35 759.809 124.634L760.548 123.756Z" fill="url(#paint3_linear_1665_13649)"/>
<path style="mix-blend-mode:multiply" opacity="0.3" fill-rule="evenodd" clip-rule="evenodd" d="M779.508 118.772C780.294 119.176 780.652 119.366 781.462 119.461C782.105 119.532 782.819 119.532 783.462 119.579C784.606 119.65 786.059 119.532 787.178 119.84C788.274 120.149 788.536 120.908 789.227 121.644C789.632 122.095 790.156 122.499 790.585 122.926C790.847 123.163 791.109 123.306 791.347 123.591C791.609 123.923 791.776 124.279 792.109 124.54C792.752 125.086 793.61 125.252 794.277 125.822C794.777 126.249 795.206 126.795 795.873 127.008C796.397 127.175 796.873 127.008 797.373 127.008C798.04 127.008 798.636 127.222 799.255 127.412C801.351 128.1 802.78 129.809 804.757 130.64C806.568 131.399 808.545 129.406 810.045 128.717C810.284 128.599 810.617 128.646 810.831 128.456C811.07 128.266 811.165 127.863 811.332 127.626C811.641 127.127 811.999 126.842 812.523 126.605C812.832 126.462 812.808 126.771 813.142 126.391C813.332 126.178 813.332 125.561 813.309 125.276C813.261 124.398 812.761 123.899 812.094 123.377C811.403 122.831 810.736 122.285 810.069 121.739C809.426 121.241 808.711 120.908 808.14 120.339C807.568 119.769 807.258 119.057 806.687 118.487C805.305 117.134 803.9 117.016 802.018 116.755C800.303 116.517 798.135 116.826 797.064 115.164C796.635 114.5 796.897 114.263 796.897 113.598C796.897 112.862 796.563 112.031 796.778 111.296C796.849 111.011 797.349 110.346 797.54 110.061C797.897 109.515 798.397 108.993 798.683 108.4C799.017 107.712 798.731 107.308 798.779 106.643C798.826 106.216 798.921 106.382 799.112 106.026C799.326 105.575 799.35 105.457 799.398 104.911C799.493 104.08 799.541 103.368 799.374 102.537C799.231 101.825 799.112 101.279 799.231 100.543C799.35 99.7127 799.565 98.7871 799.803 97.9801C800.065 97.1493 800.541 96.2711 801.161 95.6777C801.47 95.3692 801.875 95.1793 802.232 94.9182C803.257 94.1587 803.828 92.9007 804.448 91.8326C805.4 90.2423 806.306 87.1093 808.711 87.6552C809.426 87.8213 809.902 88.4622 810.665 88.4859C812.308 88.5571 813.142 86.9668 813.904 85.7563C815.167 83.7151 815.714 81.4128 816.215 79.1104C816.524 77.6389 816.763 76.3571 815.905 75.028C814.214 72.4408 810.95 72.2272 808.878 70.0673C806.877 68.0023 806.139 64.798 804.853 62.2821C804.209 61.0241 802.995 59.5525 801.613 59.0778C801.161 58.9116 800.422 58.793 799.922 58.793C798.707 58.793 798.374 59.4813 797.421 59.9797C796.778 60.312 796.373 60.1934 795.706 60.1459C793.967 60.0035 792.3 61.9498 790.989 62.8517C789.084 64.1809 786.845 65.4389 784.51 65.7C781.771 66.0085 779.032 66.2221 776.269 66.1984C774.268 66.1984 772.1 66.1509 770.123 66.4358C768.718 66.6494 767.384 67.3852 766.193 68.1447C764.526 69.2365 763.382 70.6844 763.239 72.7256C763.096 74.6482 764.121 74.933 765.526 75.9536C765.979 76.2859 766.979 76.903 767.051 77.5439C767.146 78.5171 765.717 79.2529 765.05 79.7276C764.454 80.1311 763.049 80.7957 763.216 81.7213C763.358 82.4097 764.407 83.4065 764.811 83.9762C765.216 84.5221 765.502 85.2579 766.193 85.4003C766.717 85.519 767.17 85.2342 767.694 85.163C768.575 85.0443 769.171 85.519 769.957 85.8038C770.552 86.0174 771.171 85.9462 771.791 86.0174C772.553 86.1124 773.387 86.4684 774.149 86.3497C775.459 86.1598 776.197 85.2342 777.65 85.4478C778.127 85.519 778.651 85.7326 779.151 85.6851C779.556 85.6614 779.937 85.4478 780.318 85.3291C781.247 85.068 782.676 84.7357 783.439 85.5902C784.201 86.4447 783.415 87.94 782.819 88.6521C782.295 89.2929 781.319 90.0524 781.652 90.9544C781.938 91.7139 782.748 92.0225 782.772 92.9244C782.843 95.7727 779.151 96.105 777.388 97.4341C774.744 99.4516 774.935 102.751 774.983 105.694C774.983 105.979 774.863 106.264 774.863 106.525C774.863 107.023 775.125 107.142 775.221 107.569C775.364 108.163 775.054 108.756 774.768 109.254C774.387 109.943 774.173 110.417 773.553 110.916C772.863 111.438 772.029 111.842 771.41 112.435C770.171 113.598 770.814 115.497 772.053 116.47C772.863 117.087 774.244 117.016 775.149 117.467C775.888 117.823 776.555 118.274 777.341 118.487C777.769 118.606 778.317 118.582 778.77 118.654C779.437 118.772 779.985 119.199 779.508 118.725V118.772Z" fill="url(#paint4_linear_1665_13649)"/>
<path style="mix-blend-mode:multiply" opacity="0.3" fill-rule="evenodd" clip-rule="evenodd" d="M835.937 90.3368C836.366 91.1675 836.581 91.7609 837.152 92.4017C837.629 92.9477 838.153 93.3986 838.605 93.9683C839.772 95.4873 840.63 97.2912 841.773 98.8815C842.44 99.8072 843.25 100.377 844.06 101.16C845.108 102.181 845.489 103.557 846.347 104.72C847.514 106.311 848.753 107.925 850.73 108.518C851.492 108.755 852.135 108.755 852.85 108.304C853.493 107.901 853.779 107.189 854.445 106.785C854.993 106.429 855.589 106.548 856.232 106.429C857.042 106.263 857.852 106.073 858.662 105.86C859.424 105.67 859.9 105.717 860.662 105.812C861.329 105.907 862.02 105.694 862.592 106.145C863.187 106.643 862.782 107.474 862.735 108.162C862.663 109.562 862.544 110.797 861.853 112.055C861.425 112.838 861.115 113.052 860.281 113.313C859.519 113.55 858.781 113.764 858.447 114.618C858.018 115.71 857.804 117.039 857.923 118.202C857.923 118.368 858.09 118.914 858.161 119.009C858.447 119.508 858.257 119.175 858.685 119.365C859.186 119.579 859.591 119.626 859.948 120.101C860.448 120.789 860.805 122.047 860.901 122.878C860.972 123.471 860.972 124.112 860.805 124.682C860.615 125.37 860.639 126.011 860.377 126.676C859.876 127.981 859.853 129.286 859.186 130.568C858.423 132.064 857.899 133.678 857.399 135.292C856.351 138.686 854.779 141.7 855.208 145.355C855.303 146.257 855.97 147.824 856.851 148.227C857.209 148.393 857.804 148.299 858.209 148.393C858.971 148.583 859.424 149.011 860.067 149.414C860.758 149.865 861.782 150.577 862.663 150.625C863.521 150.672 864.688 150.15 865.403 149.675C865.831 149.39 866.165 149.106 866.617 148.868C866.951 148.678 867.261 148.678 867.618 148.441C868.856 147.658 869.833 146.898 871.405 146.779C871.953 146.756 872.429 146.851 872.954 146.993C873.549 147.159 874.192 147.634 874.811 147.705C876.05 147.871 877.122 146.091 877.67 145.26C878.456 144.074 879.17 142.483 880.552 141.843C881.386 141.463 882.315 141.629 883.196 141.368C884.411 140.988 885.364 140.774 886.626 140.703C887.15 140.679 887.436 140.703 887.912 140.395C889.342 139.469 890.128 137.713 890.818 136.217C891.652 134.437 892.2 132.562 893.034 130.806C893.963 128.859 894.391 127.269 894.749 125.157C895.082 123.258 895.844 121.549 896.416 119.721C896.845 118.344 897.202 116.92 897.607 115.544C898.012 114.12 898.06 112.624 898.25 111.153C898.393 109.99 898.679 108.922 898.607 107.735C898.536 106.429 898.369 105.076 898.441 103.795C898.536 102.394 898.512 101.184 898.322 99.7834C898.155 98.5017 897.655 96.1282 895.821 96.3655C894.51 96.5317 893.272 97.8609 892.248 98.5729C890.58 99.736 888.555 99.5698 886.674 99.1188C885.149 98.7628 883.72 98.1457 882.148 97.9083C881.386 97.7897 880.338 97.4099 879.575 97.671C879.004 97.8609 878.337 98.4305 877.956 98.8578C876.979 99.9021 875.883 100.78 874.549 101.374C873.382 101.896 871.739 102.608 870.429 102.418C869.595 102.299 868.761 101.896 867.951 101.659C866.76 101.326 865.927 99.7122 865.617 98.5492C864.974 96.1282 863.664 93.9445 863.116 91.4998C862.782 89.957 864.593 89.1737 865.188 87.8683C865.665 86.8477 865.522 85.8745 865.665 84.8302C865.784 83.9045 866.26 82.9551 866.522 82.0769C867.451 79.1337 866.093 76.4753 862.902 75.7158C861.067 75.2885 859.281 75.8819 858.161 77.3298C857.661 77.9706 857.113 78.6115 856.708 79.2998C856.161 80.2255 855.827 81.1986 855.041 81.9819C852.016 84.9726 847.8 85.1624 843.846 85.566C842.012 85.7558 840.058 86.2068 838.415 87.0375C837.51 87.5122 837.224 87.5835 836.795 88.5566C836.485 89.2449 836.104 89.6247 835.699 90.2656C835.294 90.9301 835.271 91.7371 835.914 90.1943L835.937 90.3368Z" fill="url(#paint5_linear_1665_13649)"/>
<path fill-rule="evenodd" clip-rule="evenodd" d="M778.079 28.8857C778.079 28.8857 777.913 29.0756 777.793 29.1706C776.579 30.6184 775.078 31.734 773.53 32.8495C773.172 33.1106 772.767 33.5379 772.386 33.704C772.077 33.8227 771.862 33.7752 771.553 33.9414C770.862 34.2974 770.171 34.6534 769.48 34.9145C768.266 35.3655 767.075 36.4573 765.979 37.2643C764.645 38.2375 762.787 38.5935 761.572 39.7091C760.238 40.8958 759.285 42.4624 757.785 43.483L756.761 44.2188C755.879 44.8596 755.879 45.6429 755.212 46.7347C755.45 47.4943 756.046 48.7048 755.832 49.488C755.76 49.7729 755.593 50.0814 755.45 50.3188C755.022 50.9834 754.688 51.7192 754.164 52.3363C753.188 53.4993 752.211 54.7336 750.996 55.6592C749.996 56.4425 748.9 56.9409 747.804 57.5818C745.661 58.8398 743.541 59.9316 742.254 62.1865C741.564 63.4207 740.897 64.7024 740.158 65.9366C739.729 66.6487 739.205 67.4082 738.92 68.1678C738.705 68.7612 738.634 69.402 738.467 69.9954C738.253 70.7075 737.633 71.2059 737.204 71.823C736.728 72.5825 736.633 73.3421 736.609 74.2203C736.585 75.4308 737.347 76.2853 737.466 77.4008C737.514 78.0654 737.204 78.6113 736.942 79.181C735.751 81.8393 736.657 84.4977 736.299 87.2985C736.061 89.3397 734.656 91.0249 734.251 93.0662C733.822 95.1074 733.751 97.1961 733.584 99.2848C733.489 100.685 733.084 101.374 732.393 102.489C731.75 103.605 731.107 105.076 730.987 106.358C730.868 107.758 730.773 109.088 730.511 110.464C730.297 111.532 729.725 112.505 729.558 113.597C729.415 114.594 729.677 115.591 729.749 116.588C729.868 118.795 730.559 120.837 730.773 123.02C730.94 124.824 730.416 126.937 731.44 128.527C731.797 129.096 732.107 129.334 732.607 129.761C733.298 130.354 733.703 131.256 734.275 131.968C734.608 132.372 735.013 132.609 735.418 132.918C735.942 133.321 736.347 133.891 736.919 134.223C737.871 134.745 739.039 134.745 740.039 135.101C741.206 135.552 741.849 136.502 742.207 137.617C742.588 138.78 742.921 140.015 743.207 141.225C743.683 143.053 743.302 145.236 744.065 146.993C744.35 147.658 744.946 148.037 745.446 148.512C746.042 149.058 746.685 149.746 747.209 150.363C747.804 151.028 748.162 151.764 748.471 152.571C748.662 153.14 748.662 153.663 748.686 154.303C748.686 154.588 748.567 154.873 748.567 155.134C748.567 155.633 748.829 156.06 748.924 156.558C749.019 157.057 749.305 158.172 749.043 158.647C748.519 159.644 747.018 158.22 746.852 159.098C746.709 159.715 747.638 160.403 747.9 160.902C748.257 161.543 748.543 162.445 748.686 163.18C748.971 164.676 748.733 165.269 749.924 166.266C750.901 167.073 751.877 167.643 753.045 168.141C754.45 168.734 754.974 169.945 756.07 170.871C756.641 171.369 756.975 172.081 757.451 172.675C757.904 173.268 758.523 173.529 759.047 174.027C759.428 174.384 760 175.001 760.119 175.523C760.214 175.903 759.952 176.33 759.905 176.686C759.833 177.422 760.167 177.896 760.429 178.561C760.786 179.558 761.239 180.294 761.858 181.172C754.14 175.736 747.185 168.948 741.349 160.878C714.576 123.875 720.888 73.1759 754.569 43.6966C756.237 42.225 757.952 40.8246 759.786 39.4717C759.786 39.4717 759.786 39.4717 759.81 39.4717C760.286 39.0919 760.786 38.7359 761.263 38.3799C766.622 34.5348 772.243 31.378 778.079 28.8857Z" fill="url(#paint6_radial_1665_13649)"/>
</g>
<path fill-rule="evenodd" clip-rule="evenodd" d="M890.986 129.524L752.077 191.847H747.013L630.927 166.716H626.878L578.008 141.975L519.656 169.182L517.119 169.422L486.705 186.755L484.646 186.126L419.37 123.753L417.37 123.963L368.629 74H363.685L323.182 124.901L319.003 128.086L288.768 166.756L222.139 157.98L220.318 156.083L88.6122 121.496L85.0604 122.685L49.1939 168.264L16.2326 180.046L-10.998 148.415V247.88L991.203 264.085V195.562L905.074 146.997L901.015 144.74L890.986 129.524Z" fill="url(#paint7_linear_1665_13649)" fill-opacity="0.5"/>
<path opacity="0.53" fill-rule="evenodd" clip-rule="evenodd" d="M419.37 123.752L424.205 129.623L444.71 170.839L420.404 151.719L413.728 148.993L412.684 151.599L415.848 160.565L410.783 151.599L417.37 123.962L419.37 123.752Z" fill="white" fill-opacity="0.5"/>
<g style="mix-blend-mode:soft-light">
<path fill-rule="evenodd" clip-rule="evenodd" d="M388.575 196.95L363.304 161.595L370.328 112.162L377.929 122.426L368.717 96.6756L372.636 110.574L363.304 83.7456L368.627 76.2273L370.517 76.6766L381.949 85.3731L368.617 74.0107H363.672L323.16 124.922L325.816 130.234L318.981 128.117L288.756 166.787L293.989 166.138L314.683 144.372L312.584 150.382L281.453 193.126L388.555 196.98L388.575 196.95ZM364.249 176.033L366.08 176.741L370.637 180.046H367.443L364.249 176.033ZM336.72 190.55H330.263L327.975 174.265L330.263 175.214L336.72 190.56V190.55ZM361.533 107.908L359.126 81.7188L361.275 82.9669L368.219 109.965L361.533 107.908ZM372.796 179.208L368.11 176.851L355.713 161.865L362.041 163.632L372.806 179.208H372.796Z" fill="white" fill-opacity="0.5"/>
</g>
<g style="mix-blend-mode:soft-light">
<path fill-rule="evenodd" clip-rule="evenodd" d="M380.21 126.319L384.2 129.155L401.482 165.049L381.922 131.102L380.21 126.319Z" fill="white" fill-opacity="0.5"/>
</g>
<g style="mix-blend-mode:soft-light">
<path fill-rule="evenodd" clip-rule="evenodd" d="M477.63 200.145L444.708 170.841L466.606 193.556L461.164 191.788L465.651 199.716L477.63 200.145Z" fill="white" fill-opacity="0.5"/>
</g>
<g style="mix-blend-mode:soft-light">
<path fill-rule="evenodd" clip-rule="evenodd" d="M519.645 169.182L535.912 202.231L583.498 203.929L565.232 182.632L589.03 170.83L593.965 177.08L585.359 167.825L591.06 167.944L609.794 179.207L574.663 149.952L578.006 141.975L519.645 169.182ZM578.922 157.501L583.379 158.918L589.517 165.698H586.234L578.922 157.491V157.501ZM564.714 187.764L565.61 186.176L568.266 189.361L566.495 190.06L564.724 187.764H564.714ZM553.86 168.334L557.82 170.44L567.152 180.265H564.714L553.86 168.334Z" fill="white" fill-opacity="0.5"/>
</g>
<g style="mix-blend-mode:soft-light">
<path fill-rule="evenodd" clip-rule="evenodd" d="M517.117 169.423L532.807 202.122L495.349 200.145L486.703 186.756L499.925 179.218L509.755 196.95L503.487 177.191L517.117 169.423Z" fill="white" fill-opacity="0.5"/>
</g>
<g style="mix-blend-mode:soft-light">
<path fill-rule="evenodd" clip-rule="evenodd" d="M626.877 166.718L695.207 207.954L704.818 208.293L630.926 166.718H626.877Z" fill="white" fill-opacity="0.5"/>
</g>
<g style="mix-blend-mode:soft-light">
<path fill-rule="evenodd" clip-rule="evenodd" d="M752.077 191.848L771.239 210.678L802.32 211.797L780.313 186.186L785.526 185.497L816.318 212.296L883.614 214.712L846.773 151.969L860.075 147.357L908.606 206.715L916.645 207.254L875.645 151.979L878.689 150.372L897.284 163.122L890.996 129.534L752.087 191.858L752.077 191.848ZM792.232 178.199L794.52 176.801L804.608 186.186L812.01 202.192L792.222 178.199H792.232Z" fill="white" fill-opacity="0.5"/>
</g>
<g style="mix-blend-mode:soft-light">
<path fill-rule="evenodd" clip-rule="evenodd" d="M222.139 157.98L245.012 179.218L230.009 162.044L233.571 162.573L263.05 185.488L288.768 166.757L222.139 157.98Z" fill="white" fill-opacity="0.5"/>
</g>
<g style="mix-blend-mode:soft-light">
<path fill-rule="evenodd" clip-rule="evenodd" d="M139.332 134.814L173.796 169.421L139.332 144.35L108.47 136.372L159.111 189.01L125.672 187.513L101.894 150.36L121.125 187.343L111.783 187.014L76.1952 139.357L73.0214 141.324L97.8245 186.175L49.1934 168.263L85.0598 122.683L88.6116 121.495L139.332 134.814Z" fill="white" fill-opacity="0.5"/>
</g>
<g style="mix-blend-mode:soft-light">
<path fill-rule="evenodd" clip-rule="evenodd" d="M200.945 190.211L173.794 169.423L194.876 189.991L200.945 190.211Z" fill="white" fill-opacity="0.5"/>
</g>
<g style="mix-blend-mode:soft-light">
<path fill-rule="evenodd" clip-rule="evenodd" d="M168.861 150.362L173.796 151.97L190.889 171.739L168.861 150.362Z" fill="white" fill-opacity="0.5"/>
</g>
<g style="mix-blend-mode:soft-light">
<path fill-rule="evenodd" clip-rule="evenodd" d="M359.136 81.7178L329.696 118.531L351.913 90.6439L352.39 92.5011L337.675 116.224L355.713 161.874L362.041 163.641L363.304 161.594L366.687 142.284L359.136 117.642L367.055 130.852L370.09 113.518L360.747 107.288L359.136 81.7178Z" fill="white" fill-opacity="0.5"/>
</g>
<g style="mix-blend-mode:soft-light">
<path fill-rule="evenodd" clip-rule="evenodd" d="M318.993 128.097L325.828 130.213L340.573 173.436L324.823 142.984L323.052 143.223L346.99 192.637H337.608L318.993 128.097Z" fill="white" fill-opacity="0.5"/>
</g>
<g style="mix-blend-mode:soft-light">
<path fill-rule="evenodd" clip-rule="evenodd" d="M420.404 151.719L443.844 170.15L430.253 148.374L419.011 128.095L424.204 129.623L419.369 123.752L417.369 123.962L412.116 147.885L413.728 148.993L420.404 151.719Z" fill="white" fill-opacity="0.5"/>
</g>
<g style="mix-blend-mode:soft-light">
<path fill-rule="evenodd" clip-rule="evenodd" d="M312.607 150.362L331.152 192.267L316.855 191.928L305.583 165.05L303.553 164.58L315.194 191.888L298.37 191.499L297.345 171.31L312.607 150.362Z" fill="white" fill-opacity="0.5"/>
</g>
<g style="mix-blend-mode:soft-light">
<path fill-rule="evenodd" clip-rule="evenodd" d="M589.03 170.84L578.932 157.511L583.389 158.928L591.06 167.954L596.94 168.284L599.367 168.873L574.664 149.962L578.007 141.975L550.02 154.974L557.82 170.45L547.732 156.093L540.509 159.457L568.266 197.818L578.932 198.068L565.232 182.642L582.295 174.185L567.152 157.511L583.419 173.626L589.03 170.84Z" fill="white" fill-opacity="0.5"/>
</g>
<g style="mix-blend-mode:soft-light">
<path fill-rule="evenodd" clip-rule="evenodd" d="M542.07 167.775L519.645 169.183L532.808 196.95L551.422 197.419L539.145 168.594L539.523 171.889L555.094 197.419H561.68L542.07 167.775Z" fill="white" fill-opacity="0.5"/>
</g>
<g style="mix-blend-mode:soft-light">
<path fill-rule="evenodd" clip-rule="evenodd" d="M794.699 172.726L794.53 176.8L804.619 186.185L812.657 203.349L821.532 203.748L808.031 170.719L824.268 203.748H831.581L812.021 168.473L857.04 204.577H868.87L812.021 164.948L794.699 172.726Z" fill="white" fill-opacity="0.5"/>
</g>
<g style="mix-blend-mode:soft-light">
<path fill-rule="evenodd" clip-rule="evenodd" d="M777.935 180.275L780.313 186.186L794.838 203.03L771.866 202.591L765.877 187.344L770.861 202.561L762.792 202.371L752.077 191.847L777.935 180.275Z" fill="white" fill-opacity="0.5"/>
</g>
<g style="mix-blend-mode:soft-light">
<path fill-rule="evenodd" clip-rule="evenodd" d="M159.112 189.011L95.8155 123.383L88.6124 121.496L85.0606 122.684L74.2559 136.403L111.784 187.015L115.316 187.344L88.3438 139.918L100.123 152.308L117.594 187.224L121.126 187.344L103.417 150.361L125.673 187.514L150.754 189.011L105.566 135.794L155.57 188.153L159.112 189.011Z" fill="white" fill-opacity="0.5"/>
</g>
<path opacity="0.2" fill-rule="evenodd" clip-rule="evenodd" d="M423.19 194.424L401.481 165.05L427.179 194.514L423.19 194.424Z" fill="#223995" fill-opacity="0.5"/>
<path opacity="0.2" fill-rule="evenodd" clip-rule="evenodd" d="M609.784 179.218L629.99 199.267L626.876 199.187L609.784 179.218Z" fill="#223995" fill-opacity="0.5"/>
<g style="mix-blend-mode:soft-light">
<path fill-rule="evenodd" clip-rule="evenodd" d="M626.878 172.118L622.132 182.053L630.26 195.861L625.167 183.99L630.867 191.967L628.49 173.905L626.878 172.118Z" fill="white" fill-opacity="0.5"/>
</g>
<g style="mix-blend-mode:soft-light">
<path fill-rule="evenodd" clip-rule="evenodd" d="M396.855 168.175L389.513 182.403L396.855 179.218V168.175Z" fill="white" fill-opacity="0.5"/>
</g>
<g style="mix-blend-mode:soft-light">
<path fill-rule="evenodd" clip-rule="evenodd" d="M184.59 159.757L202.917 182.302L243.141 188.762L205.324 181.613L243.141 186.396L239.947 180.125L184.59 159.757Z" fill="white" fill-opacity="0.5"/>
</g>
<g style="mix-blend-mode:soft-light">
<path fill-rule="evenodd" clip-rule="evenodd" d="M890.986 129.523L897.274 163.101L890.986 158.798L876.42 136.063L873.495 137.371L878.679 150.361L875.634 151.969L916.634 207.243L865.188 141.325L890.986 129.523Z" fill="white" fill-opacity="0.5"/>
</g>
<g style="mix-blend-mode:soft-light">
<path fill-rule="evenodd" clip-rule="evenodd" d="M71.9164 139.379L97.3562 185.338L95.4062 185.288L70.9712 146.907L70.2151 147.876L89.2178 183.011L76.8611 178.458L61.5693 152.529L71.9164 139.379Z" fill="white" fill-opacity="0.5"/>
</g>
<g style="mix-blend-mode:soft-light">
<path fill-rule="evenodd" clip-rule="evenodd" d="M59.4226 155.254L71.3714 176.431L70.0582 175.952L56.8159 158.569L59.4226 155.254Z" fill="white" fill-opacity="0.5"/>
</g>
<g style="mix-blend-mode:soft-light">
<path fill-rule="evenodd" clip-rule="evenodd" d="M44.9244 169.782L64.4545 185.488L46.8545 184.679L34.448 174.265L31.0057 174.765L40.1091 184.06L31.0057 184.11L23.2852 177.64L44.9244 169.782Z" fill="white" fill-opacity="0.5"/>
</g>
<defs>
<radialGradient id="paint0_radial_1665_13649" cx="0" cy="0" r="1" gradientUnits="userSpaceOnUse" gradientTransform="translate(882.664 109.623) rotate(-180) scale(142.922 142.48)">
<stop stop-color="#4FB1FF"/>
<stop offset="0.21" stop-color="#4DAEFC"/>
<stop offset="0.37" stop-color="#49A5F2"/>
<stop offset="0.5" stop-color="#4297E2"/>
<stop offset="0.63" stop-color="#3783CC"/>
<stop offset="0.75" stop-color="#2A69AF"/>
<stop offset="0.86" stop-color="#1A498B"/>
<stop offset="0.96" stop-color="#072461"/>
<stop offset="1" stop-color="#001652"/>
</radialGradient>
<linearGradient id="paint1_linear_1665_13649" x1="846.347" y1="191.081" x2="803.989" y2="24.7944" gradientUnits="userSpaceOnUse">
<stop stop-color="#E8DDFF"/>
<stop offset="1" stop-color="#AA8AD8"/>
</linearGradient>
<linearGradient id="paint2_linear_1665_13649" x1="761.5" y1="118.973" x2="748.162" y2="100.407" gradientUnits="userSpaceOnUse">
<stop stop-color="#E8DDFF"/>
<stop offset="1" stop-color="#AA8AD8"/>
</linearGradient>
<linearGradient id="paint3_linear_1665_13649" x1="762.855" y1="126.164" x2="760.914" y2="123.462" gradientUnits="userSpaceOnUse">
<stop stop-color="#E8DDFF"/>
<stop offset="1" stop-color="#AA8AD8"/>
</linearGradient>
<linearGradient id="paint4_linear_1665_13649" x1="815.194" y1="125.287" x2="771.422" y2="64.3565" gradientUnits="userSpaceOnUse">
<stop stop-color="#E8DDFF"/>
<stop offset="1" stop-color="#AA8AD8"/>
</linearGradient>
<linearGradient id="paint5_linear_1665_13649" x1="889.146" y1="139.547" x2="846.968" y2="80.8361" gradientUnits="userSpaceOnUse">
<stop stop-color="#E8DDFF"/>
<stop offset="1" stop-color="#AA8AD8"/>
</linearGradient>
<radialGradient id="paint6_radial_1665_13649" cx="0" cy="0" r="1" gradientUnits="userSpaceOnUse" gradientTransform="translate(734.321 101.865) rotate(-35.6935) scale(56.3608 56.2973)">
<stop stop-color="#A9FAFF"/>
<stop offset="1" stop-color="#70B7F8"/>
</radialGradient>
<linearGradient id="paint7_linear_1665_13649" x1="490.108" y1="264.075" x2="490.108" y2="74" gradientUnits="userSpaceOnUse">
<stop stop-color="#86C4FF"/>
<stop offset="1" stop-color="#4063DD"/>
</linearGradient>
</defs>
</svg>
