<svg width="175" height="41" viewBox="0 0 175 41" fill="none" xmlns="http://www.w3.org/2000/svg">
<path d="M118.945 33.3399C118.559 33.3399 118.254 33.2606 118.027 33.102C117.823 32.966 117.676 32.7621 117.585 32.4902C117.517 32.1956 117.483 31.8783 117.483 31.5384V11.3484C117.483 11.0085 117.528 10.714 117.619 10.4647C117.71 10.1928 117.857 9.98885 118.061 9.85289C118.288 9.69427 118.593 9.61496 118.979 9.61496H138.149C139.463 9.61496 140.642 9.88688 141.684 10.4307C142.726 10.9746 143.553 11.711 144.165 12.6401C144.777 13.5691 145.072 14.6115 145.049 15.7671C145.072 16.4922 144.958 17.1607 144.709 17.7725C144.482 18.3844 144.165 18.9282 143.757 19.404C143.372 19.8572 142.919 20.2198 142.398 20.4917C143.191 20.7863 143.837 21.2508 144.335 21.8853C144.856 22.5198 145.253 23.2449 145.525 24.0607C145.819 24.8538 145.955 25.6695 145.933 26.5079C145.91 27.4823 145.706 28.3887 145.321 29.2271C144.936 30.0655 144.392 30.7907 143.689 31.4025C142.987 32.0143 142.194 32.4902 141.31 32.8301C140.426 33.1699 139.486 33.3399 138.489 33.3399H118.945ZM120.542 30.4168H138.285C139.169 30.4168 139.962 30.2468 140.664 29.9069C141.367 29.567 141.911 29.0685 142.296 28.4114C142.704 27.7542 142.908 26.9498 142.908 25.9981C142.908 25.1823 142.783 24.5252 142.534 24.0267C142.284 23.5282 141.956 23.1543 141.548 22.905C141.14 22.6331 140.71 22.4405 140.256 22.3272C139.826 22.2139 139.429 22.1572 139.067 22.1572C138.704 22.1346 138.421 22.1232 138.217 22.1232H128.496C128.02 22.1232 127.669 22.0099 127.442 21.7833C127.238 21.5567 127.136 21.1942 127.136 20.6957C127.136 20.2198 127.25 19.8799 127.476 19.676C127.703 19.472 128.054 19.3701 128.53 19.3701H138.183C138.387 19.3701 138.693 19.3587 139.101 19.3361C139.531 19.3134 139.973 19.2228 140.426 19.0641C140.902 18.9055 141.299 18.611 141.616 18.1804C141.956 17.7272 142.126 17.0927 142.126 16.277C142.126 15.008 141.718 14.079 140.902 13.4898C140.086 12.878 138.897 12.5721 137.333 12.5721H120.542V30.4168ZM151.001 33.3399C150.57 33.3399 150.241 33.2719 150.015 33.136C149.811 33.0227 149.675 32.8527 149.607 32.6261C149.539 32.3995 149.505 32.1276 149.505 31.8104V18.3844C149.505 18.0671 149.539 17.7952 149.607 17.5686C149.675 17.342 149.811 17.172 150.015 17.0587C150.241 16.9454 150.581 16.8888 151.035 16.8888C151.465 16.8888 151.782 16.9568 151.986 17.0927C152.213 17.206 152.349 17.376 152.394 17.6026C152.462 17.8292 152.496 18.1124 152.496 18.4523V31.8443C152.496 32.1616 152.462 32.4335 152.394 32.6601C152.349 32.8867 152.213 33.0566 151.986 33.1699C151.782 33.2832 151.454 33.3399 151.001 33.3399ZM151.001 12.81C150.502 12.81 150.128 12.742 149.879 12.6061C149.652 12.4475 149.494 12.2322 149.403 11.9603C149.335 11.6883 149.301 11.3711 149.301 11.0085C149.301 10.646 149.335 10.3401 149.403 10.0908C149.494 9.8189 149.664 9.62629 149.913 9.51299C150.162 9.37703 150.536 9.30905 151.035 9.30905C151.533 9.30905 151.896 9.37703 152.122 9.51299C152.372 9.64895 152.53 9.85289 152.598 10.1248C152.689 10.3967 152.734 10.714 152.734 11.0765C152.734 11.4391 152.689 11.7563 152.598 12.0282C152.53 12.2775 152.372 12.4701 152.122 12.6061C151.896 12.742 151.522 12.81 151.001 12.81ZM170.459 33.3399C169.19 33.3399 167.932 33.2266 166.686 33C165.44 32.7507 164.318 32.3882 163.321 31.9123C162.324 31.4138 161.52 30.8246 160.908 30.1448C160.319 29.4651 160.024 28.6946 160.024 27.8335V12.81C160.024 12.4928 160.058 12.2209 160.126 11.9943C160.194 11.7677 160.33 11.5977 160.534 11.4844C160.761 11.3484 161.078 11.2805 161.486 11.2805C161.939 11.2805 162.267 11.3484 162.471 11.4844C162.698 11.5977 162.845 11.7677 162.913 11.9943C162.981 12.1982 163.015 12.4588 163.015 12.776V27.8335C163.015 28.2414 163.23 28.6153 163.661 28.9552C164.114 29.2724 164.692 29.5444 165.394 29.771C166.12 29.9976 166.924 30.1675 167.808 30.2808C168.692 30.3941 169.575 30.4508 170.459 30.4508C170.799 30.4508 171.082 30.4847 171.309 30.5527C171.535 30.6207 171.705 30.7567 171.819 30.9606C171.932 31.1645 171.989 31.4705 171.989 31.8783C171.989 32.3089 171.921 32.6374 171.785 32.864C171.671 33.068 171.501 33.1926 171.275 33.2379C171.048 33.3059 170.776 33.3399 170.459 33.3399ZM156.251 17.2627L162.029 17.2967L171.003 17.2287C171.32 17.206 171.592 17.2287 171.819 17.2967C172.045 17.3647 172.215 17.5119 172.328 17.7385C172.464 17.9425 172.532 18.2597 172.532 18.6903C172.532 19.1208 172.476 19.4494 172.362 19.676C172.249 19.8799 172.079 20.0159 171.853 20.0838C171.649 20.1518 171.388 20.1858 171.071 20.1858L162.097 20.1178L156.149 20.1518C155.696 20.1518 155.379 20.0385 155.198 19.8119C155.016 19.5853 154.926 19.2114 154.926 18.6903C154.926 18.1917 155.028 17.8292 155.232 17.6026C155.458 17.376 155.798 17.2627 156.251 17.2627Z" fill="#FBF4FF"/>
<path d="M16.2812 33.3399C15.8733 33.3399 15.556 33.2719 15.3294 33.136C15.1028 33.0227 14.8876 32.8187 14.6836 32.5241L1.3596 11.5524C1.06502 11.0992 0.997037 10.7366 1.15566 10.4647C1.33694 10.1928 1.6655 9.92087 2.14136 9.64895C2.48126 9.46767 2.75318 9.37703 2.95712 9.37703C3.18372 9.35437 3.38766 9.42235 3.56894 9.58097C3.75022 9.73959 3.94283 9.97752 4.14677 10.2948L16.2812 29.567L28.4155 10.2948C28.6195 9.97752 28.8121 9.73959 28.9934 9.58097C29.1973 9.42235 29.4012 9.35437 29.6052 9.37703C29.8318 9.37703 30.1037 9.46767 30.4209 9.64895C30.9195 9.94353 31.248 10.2268 31.4066 10.4987C31.5653 10.748 31.4973 11.0992 31.2027 11.5524L17.8787 32.5241C17.6974 32.7961 17.4821 33 17.2329 33.136C17.0063 33.2719 16.689 33.3399 16.2812 33.3399ZM35.2005 33.3399C34.77 33.3399 34.4414 33.2719 34.2148 33.136C34.0109 33.0227 33.8749 32.8527 33.8069 32.6261C33.7389 32.3995 33.7049 32.1276 33.7049 31.8104V18.3844C33.7049 18.0671 33.7389 17.7952 33.8069 17.5686C33.8749 17.342 34.0109 17.172 34.2148 17.0587C34.4414 16.9454 34.7813 16.8888 35.2345 16.8888C35.665 16.8888 35.9823 16.9568 36.1862 17.0927C36.4128 17.206 36.5488 17.376 36.5941 17.6026C36.6621 17.8292 36.6961 18.1124 36.6961 18.4523V31.8443C36.6961 32.1616 36.6621 32.4335 36.5941 32.6601C36.5488 32.8867 36.4128 33.0566 36.1862 33.1699C35.9823 33.2832 35.6537 33.3399 35.2005 33.3399ZM35.2005 12.81C34.702 12.81 34.3281 12.742 34.0788 12.6061C33.8522 12.4475 33.6936 12.2322 33.603 11.9603C33.535 11.6883 33.501 11.3711 33.501 11.0085C33.501 10.646 33.535 10.3401 33.603 10.0908C33.6936 9.8189 33.8636 9.62629 34.1128 9.51299C34.3621 9.37703 34.736 9.30905 35.2345 9.30905C35.733 9.30905 36.0956 9.37703 36.3222 9.51299C36.5714 9.64895 36.73 9.85289 36.798 10.1248C36.8887 10.3967 36.934 10.714 36.934 11.0765C36.934 11.4391 36.8887 11.7563 36.798 12.0282C36.73 12.2775 36.5714 12.4701 36.3222 12.6061C36.0956 12.742 35.7217 12.81 35.2005 12.81ZM42.0335 33.3399C41.603 33.3399 41.2744 33.2719 41.0478 33.136C40.8439 33.0227 40.7079 32.8527 40.6399 32.6261C40.5946 32.3769 40.572 32.0936 40.572 31.7764V18.3844C40.572 18.0445 40.606 17.7612 40.6739 17.5346C40.7419 17.308 40.8779 17.1494 41.0818 17.0587C41.2858 16.9454 41.6143 16.8888 42.0675 16.8888C42.4754 16.8888 42.7813 16.9454 42.9852 17.0587C43.2118 17.1494 43.3591 17.2967 43.4271 17.5006C43.5178 17.6819 43.5631 17.8972 43.5631 18.1464L43.4271 19.574C43.6084 19.1888 43.903 18.8262 44.3109 18.4863C44.7414 18.1464 45.2739 17.8405 45.9084 17.5686C46.5429 17.2967 47.2793 17.0814 48.1177 16.9228C48.9561 16.7415 49.8739 16.6509 50.8709 16.6509C51.5507 16.6509 52.1965 16.6962 52.8083 16.7868C53.4428 16.8775 54.032 17.0021 54.5758 17.1607C55.1196 17.3193 55.5842 17.5006 55.9694 17.7046C56.3773 17.9085 56.6945 18.1124 56.9211 18.3164C57.1477 18.5203 57.261 18.7356 57.261 18.9622C57.261 19.4607 57.1137 19.8912 56.8191 20.2538C56.5472 20.5937 56.23 20.7636 55.8674 20.7636C55.5728 20.7636 55.2783 20.6957 54.9837 20.5597C54.6891 20.4237 54.3379 20.2765 53.93 20.1178C53.5448 19.9366 53.0349 19.7779 52.4004 19.642C51.7886 19.506 50.9842 19.438 49.9872 19.438C49.262 19.438 48.5143 19.5173 47.7438 19.676C46.9961 19.8119 46.3049 20.0159 45.6705 20.2878C45.0586 20.537 44.5488 20.8769 44.1409 21.3075C43.7557 21.7154 43.5631 22.1912 43.5631 22.7351V31.8443C43.5631 32.1616 43.5291 32.4335 43.4611 32.6601C43.3931 32.8867 43.2458 33.0566 43.0192 33.1699C42.8153 33.2832 42.4867 33.3399 42.0335 33.3399ZM67.4917 40.0019C66.0188 40.0019 64.7158 39.8886 63.5829 39.662C62.4725 39.4581 61.5321 39.1975 60.7617 38.8802C60.0139 38.563 59.4474 38.2344 59.0622 37.8945C58.677 37.5773 58.4844 37.3167 58.4844 37.1128C58.4844 36.9088 58.507 36.7276 58.5523 36.5689C58.5977 36.433 58.6996 36.2744 58.8583 36.0931C59.1302 35.8212 59.3228 35.6399 59.4361 35.5492C59.572 35.4813 59.742 35.4473 59.9459 35.4473C60.1725 35.4473 60.4445 35.5492 60.7617 35.7532C61.0789 35.9571 61.5095 36.1837 62.0533 36.433C62.5971 36.7049 63.3109 36.9428 64.1947 37.1468C65.1011 37.3507 66.2341 37.4527 67.5937 37.4527C68.84 37.4527 69.9729 37.3734 70.9926 37.2147C72.035 37.0561 72.9301 36.7842 73.6778 36.399C74.4256 36.0138 74.9921 35.4813 75.3773 34.8015C75.7852 34.1217 75.9892 33.2719 75.9892 32.2522L75.9552 18.1464C75.9778 17.6252 76.1025 17.274 76.3291 17.0927C76.5783 16.9115 76.9635 16.8208 77.4847 16.8208C77.8926 16.8208 78.1872 16.8888 78.3684 17.0248C78.5724 17.1381 78.7083 17.308 78.7763 17.5346C78.8443 17.7385 78.8783 17.9991 78.8783 18.3164V32.3882C78.8783 33.7931 78.595 34.9827 78.0286 35.9571C77.4621 36.9315 76.669 37.7133 75.6493 38.3024C74.6296 38.8916 73.4286 39.3221 72.0463 39.594C70.6641 39.866 69.1459 40.0019 67.4917 40.0019ZM67.6276 32.966C65.8149 32.966 64.2287 32.7734 62.8691 32.3882C61.5095 31.9803 60.3765 31.4138 59.4701 30.6887C58.5637 29.9636 57.8839 29.1138 57.4307 28.1394C56.9775 27.1651 56.7509 26.1001 56.7509 24.9444C56.7509 23.7887 56.9662 22.7237 57.3967 21.7493C57.8499 20.775 58.5297 19.9252 59.4361 19.2001C60.3425 18.475 61.4755 17.9198 62.8351 17.5346C64.1947 17.1267 65.7809 16.9228 67.5937 16.9228C69.3385 16.9228 70.834 17.1154 72.0803 17.5006C73.3266 17.8632 74.3463 18.3957 75.1394 19.0981C75.9325 19.8006 76.5103 20.6503 76.8729 21.6474C77.2581 22.6218 77.4507 23.7208 77.4507 24.9444C77.4507 26.5986 77.0995 28.0261 76.397 29.2271C75.7172 30.4281 74.6522 31.3572 73.202 32.0143C71.7518 32.6488 69.8936 32.966 67.6276 32.966ZM67.7976 30.3488C69.6784 30.3488 71.2079 30.1109 72.3862 29.635C73.5645 29.1591 74.437 28.5133 75.0035 27.6976C75.5699 26.8592 75.8532 25.9188 75.8532 24.8764C75.8532 23.8567 75.5699 22.9503 75.0035 22.1572C74.437 21.3415 73.5645 20.707 72.3862 20.2538C71.2079 19.7779 69.6557 19.54 67.7296 19.54C65.8715 19.54 64.3533 19.7779 63.175 20.2538C61.9967 20.7297 61.1242 21.3641 60.5578 22.1572C60.0139 22.9503 59.742 23.8681 59.742 24.9104C59.742 25.9528 60.0139 26.8818 60.5578 27.6976C61.1242 28.5133 61.9967 29.1591 63.175 29.635C64.3759 30.1109 65.9168 30.3488 67.7976 30.3488Z" fill="#FBF4FF"/>
<ellipse cx="8.68843" cy="11.4625" rx="8.68843" ry="11.4625" transform="matrix(0 -1 -0.999983 0.00584235 103.478 33.792)" fill="#B471CC"/>
<path d="M88.8583 23.7438C90.373 25.3887 92.1043 26.9353 93.9536 28.2954C95.8029 29.6554 97.7338 30.8022 99.6361 31.6702C101.538 32.5383 103.375 33.1106 105.041 33.3545C106.706 33.5985 108.169 33.5092 109.345 33.0919C110.52 32.6745 111.386 31.9373 111.892 30.9222C112.399 29.9072 112.536 28.6342 112.297 27.1759C112.057 25.7177 111.445 24.1027 110.495 22.4233C109.546 20.7438 108.278 19.0328 106.763 17.3878" stroke="#AAC4E5" stroke-width="0.82231"/>
<path d="M88.0384 24.5948C89.5448 26.2492 91.2732 27.7987 93.125 29.1547C94.9768 30.5108 96.9157 31.6468 98.8311 32.4979C100.746 33.3491 102.601 33.8986 104.288 34.1153C105.975 34.332 107.463 34.2115 108.665 33.7607C109.868 33.3099 110.762 32.5377 111.296 31.4881C111.831 30.4385 111.995 29.1321 111.78 27.6435C111.565 26.1548 110.975 24.5131 110.044 22.8121C109.112 21.1111 107.857 19.384 106.351 17.7295" stroke="#799DCB" stroke-width="1.97354"/>
<path d="M89.1386 24.0408C87.61 22.4268 86.3261 20.7424 85.3603 19.0837C84.3945 17.425 83.7657 15.8245 83.5097 14.3736C83.2537 12.9228 83.3756 11.65 83.8685 10.6278C84.3613 9.60573 85.2155 8.85432 86.3821 8.41654C87.5487 7.97875 89.005 7.86316 90.6678 8.07636C92.3307 8.28956 94.1674 8.82738 96.0733 9.65911C97.9791 10.4908 99.9167 11.6002 101.775 12.9238" stroke="#AAC4E5" stroke-width="0.82231"/>
<path d="M88.3431 24.9293C86.8316 23.2796 85.5714 21.5566 84.6346 19.8585C83.6977 18.1605 83.1025 16.5207 82.8829 15.0327C82.6633 13.5448 82.8237 12.2379 83.3549 11.1866C83.886 10.1353 84.7775 9.36018 85.9785 8.90556C87.1795 8.45095 88.6665 8.32571 90.3545 8.53699C92.0425 8.74828 93.8985 9.29195 95.8166 10.137C97.7346 10.982 99.6771 12.1118 101.533 13.4619" stroke="#799DCB" stroke-width="1.97354"/>
<path d="M105.753 13.6845C105.807 13.5415 105.655 13.4075 105.521 13.4804L104.23 14.1851C104.188 14.2081 104.138 14.2114 104.093 14.1942L102.721 13.666C102.579 13.6113 102.446 13.764 102.518 13.8986L103.218 15.1988C103.241 15.2411 103.245 15.2914 103.227 15.3363L102.703 16.7173C102.648 16.8604 102.8 16.9944 102.934 16.9214L104.226 16.2167C104.268 16.1938 104.318 16.1905 104.362 16.2077L105.735 16.7359C105.877 16.7906 106.01 16.6379 105.937 16.5032L105.237 15.2031C105.214 15.1607 105.211 15.1105 105.228 15.0655L105.753 13.6845Z" fill="#B471CC"/>
</svg>
