<svg width="346" height="346" viewBox="0 0 346 346" fill="none" xmlns="http://www.w3.org/2000/svg">
<path d="M172.673 331.675C261.014 331.675 332.628 290.327 332.628 239.321C332.628 188.315 261.014 146.967 172.673 146.967C84.3314 146.967 12.7168 188.315 12.7168 239.321C12.7168 290.327 84.3314 331.675 172.673 331.675Z" fill="white"/>
<path d="M296.586 255.943L254.602 231.723C254.422 231.662 254.265 231.545 254.153 231.39C254.042 231.235 253.982 231.049 253.982 230.858C253.982 230.667 254.042 230.481 254.153 230.326C254.265 230.171 254.422 230.054 254.602 229.993L281.59 214.437C282.055 214.202 282.568 214.079 283.089 214.079C283.609 214.079 284.122 214.202 284.587 214.437L326.563 238.657C326.744 238.718 326.901 238.835 327.012 238.99C327.124 239.145 327.183 239.331 327.183 239.522C327.183 239.713 327.124 239.899 327.012 240.054C326.901 240.209 326.744 240.326 326.563 240.387L299.575 255.95C299.111 256.183 298.599 256.304 298.08 256.303C297.561 256.302 297.049 256.178 296.586 255.943Z" fill="#E0E0E0"/>
<path d="M114.778 302.024C153.733 302.024 185.313 283.791 185.313 261.299C185.313 238.808 153.733 220.575 114.778 220.575C75.822 220.575 44.2422 238.808 44.2422 261.299C44.2422 283.791 75.822 302.024 114.778 302.024Z" fill="#E0E0E0"/>
<path d="M181.36 279.583C206.733 279.583 227.302 267.708 227.302 253.059C227.302 238.41 206.733 226.534 181.36 226.534C155.987 226.534 135.418 238.41 135.418 253.059C135.418 267.708 155.987 279.583 181.36 279.583Z" fill="#E0E0E0"/>
<path d="M44.6388 226.783L45.2063 217.787C45.2063 217.787 44.6734 206.293 33.2831 195.691C26.3631 189.249 20.6403 192.716 19.2078 196.224C17.7754 199.732 18.9656 205.054 25.6919 210.029C36.2241 217.814 45.0679 230.139 46.2166 238.879L44.6388 226.783Z" fill="#37474F"/>
<path d="M44.2864 224.243C44.1932 224.252 44.0997 224.229 44.0216 224.177C43.9435 224.125 43.8855 224.048 43.8574 223.959C38.6743 206.797 23.7894 196.5 23.6025 196.397C23.5593 196.366 23.5228 196.327 23.4954 196.281C23.468 196.236 23.4501 196.185 23.443 196.133C23.4358 196.08 23.4396 196.027 23.4539 195.976C23.4683 195.925 23.4929 195.877 23.5264 195.836C23.5855 195.748 23.6768 195.688 23.7805 195.667C23.8841 195.646 23.9917 195.667 24.08 195.725C24.2323 195.829 39.3801 206.278 44.6463 223.717C44.6748 223.818 44.6634 223.926 44.6145 224.019C44.5655 224.111 44.4827 224.182 44.3833 224.215L44.2864 224.243Z" fill="white"/>
<path d="M45.0963 227.08C45.0298 226.097 44.6653 225.158 44.0514 224.388C42.9442 223.108 41.0066 222.693 40.0724 221.274C39.7022 220.568 39.4054 219.826 39.1867 219.06C38.4933 217.408 37.2002 216.08 35.5675 215.343C33.9338 214.632 32.1335 214.392 30.3706 214.651C29.035 214.818 27.741 215.226 26.4054 215.413C22.0251 216.042 17.9699 212.022 13.6103 214.721C10.9946 216.354 11.1745 219.205 12.6277 221.592C13.3879 222.807 14.3416 223.889 15.4511 224.796C16.6275 225.793 17.8661 226.395 17.9907 228.125C18.0737 229.384 17.6793 230.637 17.6931 231.903C17.7429 232.942 18.0159 233.958 18.4936 234.883C18.9712 235.807 19.6423 236.617 20.4611 237.259C22.1149 238.53 24.0613 239.365 26.1217 239.688C27.6372 239.979 29.381 240.207 30.2183 241.501C30.5681 242.209 30.8017 242.968 30.9103 243.75C31.2736 245.002 31.899 246.162 32.7448 247.153C33.5907 248.145 34.6378 248.945 35.8166 249.501C38.1952 250.593 40.8325 250.996 43.4286 250.663C45.665 250.51 47.8092 249.712 49.6013 248.366C52.563 245.944 50.8607 241.37 48.9093 238.823C48.0581 237.702 47.0063 236.747 46.2243 235.578C44.6604 233.259 44.9164 231.253 45.0617 228.602C45.1151 228.097 45.1267 227.587 45.0963 227.08Z" fill="#455A64"/>
<path d="M47.4096 244.131C47.3425 244.144 47.273 244.136 47.2108 244.107C47.1487 244.079 47.0972 244.031 47.0636 243.972C36.4691 224.9 19.4735 219.572 19.3005 219.517C19.2176 219.491 19.148 219.434 19.1066 219.358C19.0652 219.281 19.0553 219.192 19.0791 219.108C19.1062 219.025 19.1646 218.955 19.242 218.914C19.3195 218.873 19.4099 218.863 19.4943 218.887C19.6673 218.942 36.9119 224.354 47.6379 243.654C47.6588 243.691 47.6722 243.732 47.6773 243.774C47.6823 243.817 47.679 243.86 47.6674 243.901C47.6558 243.942 47.6363 243.98 47.6099 244.014C47.5834 244.048 47.5506 244.076 47.5134 244.096C47.4825 244.117 47.4466 244.129 47.4096 244.131Z" fill="white"/>
<path d="M37.3062 231.017H37.2301C32.5729 230.824 25.5283 232.692 25.4661 232.713C25.4242 232.725 25.3803 232.729 25.337 232.724C25.2937 232.718 25.2519 232.704 25.2143 232.682C25.1766 232.66 25.1439 232.631 25.1182 232.595C25.0925 232.56 25.0743 232.52 25.0647 232.478C25.0532 232.436 25.0499 232.393 25.0552 232.35C25.0604 232.308 25.0741 232.267 25.0953 232.229C25.1165 232.192 25.1449 232.159 25.1789 232.133C25.2128 232.107 25.2516 232.087 25.2931 232.076C25.5837 232 32.5106 230.159 37.2647 230.36C37.3509 230.354 37.4362 230.382 37.5017 230.438C37.5673 230.495 37.6077 230.575 37.6141 230.661C37.6205 230.747 37.5924 230.833 37.536 230.898C37.4795 230.964 37.3994 231.004 37.3131 231.01L37.3062 231.017Z" fill="white"/>
<path d="M33.9065 227.855C33.8207 227.863 33.7351 227.839 33.667 227.786C33.5989 227.733 33.5534 227.656 33.5397 227.571C33.2692 225.217 33.3321 222.836 33.7265 220.499C33.7433 220.415 33.7927 220.341 33.864 220.293C33.9353 220.245 34.0227 220.227 34.1071 220.243C34.1495 220.251 34.19 220.267 34.2262 220.29C34.2624 220.313 34.2936 220.343 34.3181 220.379C34.3425 220.414 34.3597 220.454 34.3687 220.496C34.3776 220.538 34.3781 220.582 34.3701 220.624C33.9953 222.893 33.9371 225.203 34.1971 227.488C34.2068 227.576 34.1818 227.663 34.1273 227.732C34.0729 227.8 33.9935 227.845 33.9065 227.855Z" fill="white"/>
<path opacity="0.3" d="M318.488 93.7997L190.53 19.9287C188.607 18.8215 187.07 19.7211 187.07 21.9425V123.279C187.133 124.487 187.479 125.663 188.08 126.712C188.681 127.761 189.521 128.655 190.53 129.32L318.488 203.191C320.412 204.298 321.948 203.399 321.948 201.177V99.8409C321.885 98.6332 321.539 97.4573 320.938 96.4079C320.337 95.3585 319.498 94.4651 318.488 93.7997Z" fill="#BA68C8"/>
<path opacity="0.5" d="M318.488 93.7997L190.53 19.9287C188.607 18.8215 187.07 19.7211 187.07 21.9425V123.279C187.133 124.487 187.479 125.663 188.08 126.712C188.681 127.761 189.521 128.655 190.53 129.32L318.488 203.191C320.412 204.298 321.948 203.399 321.948 201.177V99.8409C321.885 98.6332 321.539 97.4573 320.938 96.4079C320.337 95.3585 319.498 94.4651 318.488 93.7997Z" fill="white"/>
<path opacity="0.3" d="M319.167 184.114V171.132L310.731 166.288V176.031L307.942 174.384V158.15L302.316 154.905V161.396L299.507 159.769V172.751L293.867 169.54V159.769L291.057 158.15V154.905L288.241 153.278V150.033L285.432 148.414V151.659L282.622 150.033V153.278L279.812 151.659V154.905L274.187 151.659V141.923L265.758 137.079V153.278L262.962 151.659V141.923L257.336 138.67V148.414L254.527 146.787V143.542L248.908 140.296V133.805L243.282 130.56V133.805L240.458 132.172V141.93L237.649 140.303V127.328L234.839 125.702V122.457L232.023 120.837V117.592L229.213 115.966V119.211L226.404 117.592V120.837L223.594 119.211V135.425L220.785 133.805V127.328L212.446 122.484V125.785L206.723 122.484V115.993L203.907 114.374V111.129L201.097 109.502V106.257L198.288 104.638V107.876L195.478 106.257V109.502L192.669 107.876V114.374L187.043 111.122V123.322C187.106 124.529 187.452 125.705 188.053 126.755C188.654 127.804 189.493 128.697 190.503 129.363L318.488 203.192C320.412 204.3 321.948 203.4 321.948 201.179V185.74L319.167 184.114Z" fill="#BA68C8"/>
<g opacity="0.3">
<path d="M188.974 20.149C189.403 20.1704 189.82 20.3015 190.185 20.5296L318.142 94.3937C319.05 94.9985 319.805 95.8046 320.35 96.7492C320.895 97.6938 321.215 98.7514 321.284 99.8397V201.176C321.284 201.716 321.159 202.968 320.045 202.968C319.616 202.947 319.199 202.816 318.834 202.588L190.877 128.71C189.968 128.107 189.211 127.301 188.666 126.356C188.121 125.411 187.802 124.353 187.735 123.264V21.9413C187.735 21.4015 187.86 20.149 188.974 20.149ZM188.974 19.457C187.832 19.457 187.043 20.3635 187.043 21.9413V123.278C187.106 124.485 187.452 125.661 188.053 126.711C188.654 127.76 189.493 128.654 190.503 129.319L318.488 203.19C318.958 203.478 319.494 203.64 320.045 203.66C321.187 203.66 321.976 202.754 321.976 201.176V99.8397C321.913 98.6321 321.567 97.4561 320.966 96.4067C320.365 95.3574 319.526 94.464 318.516 93.7986L190.531 19.9276C190.061 19.6391 189.525 19.477 188.974 19.457Z" fill="#BA68C8"/>
</g>
<path opacity="0.5" d="M223.96 72.3478L279.437 104.38C282.752 106.29 285.43 110.934 285.43 114.76V130.13C285.43 133.95 282.752 135.5 279.437 133.59L223.96 101.557C220.652 99.6472 217.967 95.0039 217.967 91.1771V75.8078C217.981 71.9672 220.652 70.4379 223.96 72.3478Z" fill="white"/>
<g opacity="0.5">
<path d="M282.117 134.759C281.107 134.724 280.124 134.423 279.266 133.887L223.789 101.862C220.391 99.8965 217.623 95.1078 217.623 91.1773V75.8079C217.623 73.8288 218.315 72.3479 219.554 71.6559C220.792 70.9639 222.426 71.0885 224.135 72.0781L279.612 104.104C283.017 106.069 285.778 110.858 285.778 114.788V130.158C285.778 132.137 285.086 133.618 283.854 134.31C283.325 134.61 282.726 134.765 282.117 134.759ZM221.291 71.8705C220.805 71.8634 220.327 71.9878 219.907 72.2303C218.889 72.8185 218.322 74.0849 218.322 75.8079V91.1773C218.322 94.8864 220.931 99.4051 224.142 101.26L279.619 133.292C281.107 134.15 282.491 134.296 283.515 133.708C284.539 133.119 285.093 131.846 285.093 130.13V114.761C285.093 111.051 282.484 106.533 279.273 104.678L223.789 72.6593C223.039 72.1833 222.178 71.9114 221.291 71.8705Z" fill="#BA68C8"/>
</g>
<g opacity="0.5">
<path d="M232.8 84.9353C233.371 85.2724 233.887 85.6948 234.33 86.1879C234.782 86.6931 235.184 87.2426 235.527 87.8279C235.851 88.3771 236.115 88.9594 236.316 89.5648C236.49 90.0527 236.592 90.5631 236.62 91.0803C236.625 91.127 236.619 91.1741 236.604 91.2184C236.588 91.2627 236.563 91.3029 236.53 91.3363C236.505 91.3597 236.471 91.3726 236.437 91.3726C236.402 91.3726 236.369 91.3597 236.343 91.3363L234.641 90.3606C234.532 90.2923 234.434 90.2083 234.35 90.1115C234.267 89.9915 234.191 89.8668 234.122 89.7378C234.122 89.6825 234.06 89.5925 234.004 89.4679C233.935 89.3189 233.854 89.1755 233.762 89.0389C233.646 88.8672 233.517 88.7052 233.375 88.5545C233.205 88.38 233.012 88.2308 232.8 88.1116C232.649 88.0264 232.492 87.9524 232.33 87.8902C232.202 87.8399 232.065 87.8164 231.928 87.821C231.872 87.8232 231.817 87.8373 231.767 87.8623C231.717 87.8874 231.673 87.9228 231.638 87.9663C231.553 88.0952 231.514 88.2487 231.527 88.4023C231.528 88.5981 231.57 88.7915 231.652 88.9697C231.761 89.1911 231.901 89.3961 232.067 89.5787C232.309 89.8525 232.568 90.1114 232.842 90.3537L234.032 91.4263C234.484 91.8258 234.902 92.2608 235.285 92.7273C235.633 93.1536 235.933 93.6179 236.177 94.1113C236.414 94.5912 236.593 95.0976 236.71 95.6198C236.831 96.1884 236.889 96.7685 236.883 97.3498C236.906 97.914 236.804 98.4762 236.585 98.9968C236.417 99.3801 236.121 99.6932 235.748 99.8825C235.348 100.059 234.903 100.105 234.475 100.014C233.91 99.9015 233.369 99.6907 232.876 99.3912C232.278 99.0452 231.734 98.6113 231.264 98.1041C230.789 97.5914 230.369 97.0301 230.011 96.4295C229.672 95.8592 229.396 95.2535 229.188 94.6233C229 94.0841 228.895 93.5194 228.877 92.9487C228.872 92.9015 228.877 92.854 228.891 92.8088C228.906 92.7636 228.929 92.7218 228.96 92.6857C228.985 92.6624 229.018 92.6495 229.053 92.6495C229.088 92.6495 229.121 92.6624 229.146 92.6857L230.849 93.6684C230.959 93.726 231.056 93.8062 231.133 93.9037C231.213 94.0047 231.282 94.1137 231.34 94.2289L231.499 94.5818C231.58 94.7632 231.672 94.9389 231.776 95.1077C231.902 95.3195 232.05 95.5167 232.219 95.6959C232.411 95.9013 232.632 96.0763 232.876 96.2149C233.223 96.4402 233.615 96.5866 234.025 96.644C234.33 96.6717 234.482 96.4848 234.482 96.0835C234.48 95.8739 234.423 95.6686 234.316 95.4883C234.175 95.2387 234.005 95.0065 233.811 94.7963C233.582 94.5541 233.298 94.2773 232.946 93.9659C232.593 93.6545 232.184 93.2739 231.707 92.8518C230.874 92.1304 230.206 91.2383 229.749 90.2361C229.325 89.2584 229.115 88.2014 229.133 87.1359C229.122 86.6265 229.206 86.1195 229.382 85.6412C229.522 85.2551 229.778 84.9216 230.115 84.6862C230.461 84.4662 230.87 84.3687 231.278 84.4094C231.818 84.4688 232.338 84.6485 232.8 84.9353Z" fill="#BA68C8"/>
<path d="M245.727 92.6021C245.839 92.6733 245.926 92.7772 245.977 92.8997C246.043 93.038 246.078 93.1891 246.08 93.3426V95.4947C246.086 95.552 246.079 95.6098 246.061 95.6646C246.044 95.7193 246.015 95.7698 245.977 95.813C245.942 95.8436 245.898 95.8606 245.852 95.8606C245.806 95.8606 245.762 95.8436 245.727 95.813L243.444 94.4913V104.74C243.449 104.798 243.443 104.857 243.425 104.913C243.407 104.969 243.378 105.021 243.34 105.065C243.305 105.094 243.261 105.11 243.215 105.11C243.17 105.11 243.126 105.094 243.091 105.065L241.396 104.082C241.284 104.011 241.197 103.907 241.146 103.785C241.08 103.646 241.045 103.495 241.043 103.342V93.0934L238.759 91.7717C238.647 91.7005 238.56 91.5966 238.51 91.4742C238.444 91.3358 238.408 91.1847 238.406 91.0313V88.9138C238.401 88.8564 238.407 88.7986 238.425 88.7439C238.443 88.6891 238.472 88.6386 238.51 88.5954C238.544 88.5648 238.588 88.5479 238.634 88.5479C238.68 88.5479 238.725 88.5648 238.759 88.5954L245.727 92.6021Z" fill="#BA68C8"/>
<path d="M252.116 96.2837C252.29 96.39 252.427 96.5469 252.51 96.7335C252.592 96.9085 252.654 97.0918 252.697 97.2802L255.527 111.508C255.554 111.614 255.57 111.723 255.576 111.833C255.58 111.88 255.574 111.928 255.56 111.973C255.546 112.018 255.523 112.06 255.492 112.096C255.465 112.12 255.429 112.134 255.392 112.134C255.355 112.134 255.32 112.12 255.292 112.096L253.659 111.148C253.497 111.066 253.368 110.932 253.292 110.767C253.223 110.64 253.177 110.502 253.154 110.359L252.787 108.491L249.327 106.498L248.967 107.944C248.948 108.041 248.899 108.131 248.829 108.2C248.759 108.269 248.635 108.255 248.462 108.151L246.836 107.259C246.743 107.199 246.67 107.112 246.628 107.01C246.574 106.9 246.546 106.779 246.545 106.657C246.551 106.565 246.569 106.474 246.6 106.387L249.431 95.4325C249.461 95.3065 249.525 95.1914 249.617 95.1004C249.707 95.0035 249.839 95.0104 250.012 95.1004L252.116 96.2837ZM250.04 103.806L252.116 105.017L251.064 99.6468L250.04 103.806Z" fill="#BA68C8"/>
<path d="M261.469 101.724C262.025 102.046 262.539 102.437 262.999 102.886C263.449 103.332 263.835 103.837 264.147 104.388C264.473 104.967 264.718 105.589 264.874 106.235C265.05 106.948 265.136 107.681 265.13 108.415C265.171 109.188 265.034 109.96 264.729 110.671C264.624 110.896 264.465 111.091 264.266 111.239C264.066 111.387 263.833 111.482 263.587 111.515L265.192 117.204C265.218 117.282 265.232 117.363 265.234 117.446C265.239 117.492 265.234 117.538 265.22 117.583C265.205 117.627 265.182 117.667 265.151 117.702C265.122 117.727 265.085 117.74 265.047 117.74C265.009 117.74 264.972 117.727 264.943 117.702L263.179 116.685C263.017 116.597 262.888 116.458 262.812 116.29C262.742 116.143 262.684 115.99 262.639 115.833L261.2 110.72L260.002 110.028V114.304C260.008 114.361 260.001 114.419 259.983 114.474C259.966 114.529 259.937 114.579 259.899 114.622C259.864 114.653 259.82 114.67 259.774 114.67C259.728 114.67 259.684 114.653 259.649 114.622L257.954 113.64C257.843 113.565 257.757 113.459 257.705 113.335C257.638 113.2 257.602 113.051 257.601 112.899V99.9935C257.596 99.9362 257.603 99.8785 257.621 99.8238C257.639 99.7692 257.667 99.7186 257.705 99.6752C257.74 99.6459 257.784 99.6299 257.83 99.6299C257.875 99.6299 257.919 99.6459 257.954 99.6752L261.469 101.724ZM260.002 106.934L261.469 107.779C261.598 107.872 261.744 107.938 261.898 107.972C262.053 108.007 262.213 108.009 262.369 107.979C262.611 107.903 262.729 107.585 262.729 107.024C262.755 106.537 262.629 106.053 262.369 105.64C262.138 105.295 261.83 105.008 261.469 104.803L260.002 103.952V106.934Z" fill="#BA68C8"/>
<path d="M274.187 109.03C274.295 109.106 274.379 109.211 274.429 109.334C274.498 109.469 274.536 109.618 274.54 109.77V111.894C274.544 111.952 274.536 112.01 274.517 112.065C274.498 112.12 274.468 112.17 274.429 112.213C274.396 112.242 274.353 112.257 274.308 112.257C274.264 112.257 274.221 112.242 274.187 112.213L271.904 110.898V121.146C271.908 121.204 271.902 121.261 271.884 121.316C271.866 121.371 271.837 121.421 271.8 121.465C271.765 121.495 271.721 121.512 271.675 121.512C271.629 121.512 271.585 121.495 271.551 121.465L269.883 120.517C269.775 120.441 269.691 120.335 269.641 120.212C269.574 120.077 269.538 119.928 269.537 119.776V109.521L267.253 108.206C267.143 108.131 267.056 108.025 267.004 107.902C266.937 107.766 266.902 107.617 266.9 107.466V105.348C266.895 105.29 266.901 105.231 266.919 105.175C266.937 105.119 266.966 105.067 267.004 105.023C267.039 104.994 267.083 104.978 267.129 104.978C267.174 104.978 267.218 104.994 267.253 105.023L274.187 109.03Z" fill="#BA68C8"/>
</g>
<path opacity="0.3" d="M199.699 31.3672C200.925 32.1689 201.946 33.2482 202.678 34.5177C203.41 35.7873 203.833 37.2113 203.913 38.6747C203.913 41.3596 202.024 42.453 199.699 41.1036C198.471 40.305 197.449 39.2273 196.716 37.9586C195.984 36.6898 195.562 35.2659 195.484 33.803C195.484 31.1388 197.367 30.0247 199.699 31.3672Z" fill="#BA68C8"/>
<path d="M202.137 36.8549C202.136 36.3785 202.037 35.9073 201.846 35.4709C201.674 35.0112 201.365 34.6152 200.961 34.336C200.352 33.9762 199.846 34.7028 199.763 35.5609C199.694 34.6128 199.196 33.298 198.587 32.9382C198.452 32.8447 198.288 32.8024 198.124 32.8189C197.961 32.8354 197.808 32.9096 197.694 33.0282C197.474 33.3277 197.366 33.6952 197.39 34.0662C197.39 35.5194 198.255 36.8342 198.981 38.2182L199.757 39.6714L200.532 39.1247C201.258 38.5918 202.137 38.3081 202.137 36.8549Z" fill="#FAFAFA"/>
<path opacity="0.3" d="M212.348 38.6761C213.582 39.4721 214.609 40.5483 215.348 41.8171C216.086 43.0858 216.514 44.5111 216.597 45.9767C216.597 48.6686 214.708 49.755 212.383 48.4125C211.155 47.6116 210.134 46.5325 209.402 45.2628C208.669 43.9931 208.247 42.5686 208.168 41.105C208.134 38.4201 210.016 37.3267 212.348 38.6761Z" fill="#BA68C8"/>
<path d="M214.729 44.1762C214.722 43.6998 214.621 43.2294 214.432 42.7922C214.257 42.3296 213.946 41.9313 213.539 41.6504C212.937 41.2975 212.425 42.0241 212.349 42.8821C212.273 41.9341 211.774 40.6124 211.172 40.2595C211.037 40.1641 210.871 40.1207 210.706 40.1372C210.541 40.1537 210.387 40.229 210.273 40.3494C210.052 40.6485 209.944 41.0163 209.968 41.3874C209.968 42.8406 210.833 44.1554 211.56 45.5394L212.328 46.9926L213.138 46.4321C213.83 45.9131 214.722 45.6225 214.729 44.1762Z" fill="#FAFAFA"/>
<path opacity="0.3" d="M224.999 45.9749C226.226 46.7763 227.247 47.8555 227.979 49.1251C228.711 50.3947 229.134 51.819 229.213 53.2825C229.213 55.9743 227.324 57.0608 224.999 55.7183C223.768 54.9244 222.742 53.8514 222.004 52.5865C221.266 51.3216 220.836 49.9005 220.75 48.4385C220.75 45.7189 222.667 44.6325 224.999 45.9749Z" fill="#BA68C8"/>
<path d="M227.378 51.476C227.372 50.9994 227.271 50.5288 227.08 50.092C226.903 49.6328 226.592 49.2375 226.188 48.9571C225.579 48.5973 225.074 49.3239 224.997 50.182C224.921 49.2339 224.423 47.9191 223.814 47.5593C223.679 47.4658 223.515 47.4235 223.351 47.44C223.188 47.4565 223.035 47.5307 222.921 47.6493C222.699 47.9479 222.589 48.3154 222.61 48.6873C222.61 50.1405 223.475 51.4553 224.209 52.8393L224.977 54.2925L225.752 53.7458C226.492 53.2129 227.371 52.9292 227.378 51.476Z" fill="#FAFAFA"/>
<path d="M237.358 54.0783L296.33 88.1247C297.185 88.6607 297.901 89.3904 298.422 90.2548C298.943 91.1191 299.252 92.0939 299.326 93.1002C299.326 94.8924 297.984 95.5706 296.33 94.6156L237.358 60.5692C236.503 60.0332 235.786 59.3035 235.266 58.4392C234.745 57.5748 234.435 56.6001 234.361 55.5938C234.382 53.8015 235.725 53.1233 237.358 54.0783Z" fill="#FAFAFA"/>
<path opacity="0.5" d="M236.041 56.5421C236.077 57.0454 236.232 57.5332 236.491 57.9659C236.751 58.3987 237.109 58.7643 237.536 59.0333L296.778 93.2803C297.601 93.7578 298.273 93.4187 298.273 92.5191C298.235 92.017 298.08 91.5306 297.821 91.0991C297.561 90.6676 297.204 90.3031 296.778 90.0349L237.536 55.7878C236.712 55.3103 236.041 55.6494 236.041 56.5421Z" fill="#BA68C8"/>
<g opacity="0.3">
<path d="M302.406 93.6202C302.391 93.5519 302.391 93.4809 302.406 93.4126C302.405 93.3865 302.411 93.3605 302.423 93.3374C302.435 93.3142 302.453 93.2948 302.476 93.2811L303.811 92.4715L303.936 92.4023C303.962 92.3895 303.99 92.3828 304.019 92.3828C304.048 92.3828 304.076 92.3895 304.102 92.4023L304.856 92.8382C304.911 92.872 304.952 92.9232 304.974 92.9836C305.007 93.0502 305.026 93.1234 305.029 93.1981V99.3915C305.031 99.4194 305.028 99.4474 305.018 99.4737C305.009 99.4999 304.993 99.5238 304.974 99.5437C304.974 99.5783 304.905 99.5783 304.856 99.5437L304.04 99.0732C303.987 99.0373 303.946 98.9868 303.922 98.9278C303.893 98.8623 303.876 98.7919 303.874 98.7202V94.5267L303.133 94.9627C303.101 94.9904 303.059 94.9904 303.009 94.9627C302.957 94.9213 302.919 94.866 302.898 94.8035L302.406 93.6202Z" fill="#BA68C8"/>
<path d="M308.039 94.6096C308.346 94.7891 308.619 95.0236 308.841 95.3016C309.068 95.5697 309.257 95.8677 309.402 96.1873C309.549 96.5159 309.66 96.8593 309.734 97.2115C309.802 97.563 309.844 97.9193 309.859 98.2772C309.859 98.554 309.859 98.8446 309.859 99.1491C309.859 99.4536 309.859 99.7234 309.859 99.9864C309.849 100.294 309.807 100.6 309.734 100.9C309.678 101.138 309.564 101.36 309.402 101.543C309.254 101.694 309.053 101.781 308.841 101.786C308.556 101.775 308.278 101.686 308.039 101.53C307.732 101.348 307.461 101.114 307.236 100.838C307.014 100.567 306.828 100.27 306.682 99.9518C306.529 99.6256 306.418 99.2815 306.35 98.9276C306.276 98.5768 306.232 98.2203 306.219 97.862C306.219 97.599 306.219 97.3153 306.219 97.0108C306.219 96.7063 306.219 96.4226 306.219 96.1527C306.227 95.8442 306.272 95.5377 306.35 95.2393C306.402 94.9991 306.516 94.7769 306.682 94.5957C306.828 94.446 307.027 94.3591 307.236 94.3535C307.523 94.3601 307.801 94.449 308.039 94.6096ZM308.731 99.2529C308.731 98.7131 308.731 98.1803 308.731 97.6405C308.731 97.4744 308.731 97.3153 308.689 97.17C308.664 97.0287 308.627 96.8899 308.578 96.7548C308.529 96.63 308.462 96.5133 308.378 96.4088C308.291 96.3013 308.185 96.2099 308.066 96.1389C307.975 96.0764 307.866 96.0449 307.755 96.0489C307.715 96.0528 307.676 96.0653 307.642 96.0856C307.607 96.1059 307.577 96.1336 307.554 96.1666C307.5 96.2536 307.463 96.3497 307.444 96.4503C307.422 96.5877 307.408 96.7264 307.402 96.8655C307.402 97.3845 307.402 97.9242 307.402 98.4778C307.405 98.6332 307.419 98.7881 307.444 98.9415C307.461 99.0844 307.498 99.2242 307.554 99.3567C307.602 99.4843 307.67 99.6035 307.755 99.7096C307.842 99.8171 307.948 99.9084 308.066 99.9795C308.158 100.042 308.267 100.073 308.378 100.069C308.418 100.066 308.457 100.054 308.491 100.033C308.526 100.013 308.556 99.9851 308.578 99.9518C308.638 99.8672 308.679 99.7703 308.696 99.6681C308.71 99.5301 308.712 99.3912 308.703 99.2529H308.731Z" fill="#BA68C8"/>
<path d="M314.426 100.546C314.427 100.718 314.413 100.889 314.384 101.058C314.363 101.206 314.322 101.351 314.26 101.487C314.2 101.616 314.12 101.735 314.024 101.84C313.919 101.948 313.798 102.039 313.664 102.11L312.793 102.622L314.356 103.529C314.409 103.564 314.45 103.615 314.474 103.674C314.506 103.738 314.523 103.809 314.523 103.881V104.899C314.526 104.926 314.523 104.954 314.515 104.98C314.506 105.006 314.493 105.03 314.474 105.051C314.466 105.059 314.457 105.065 314.447 105.069C314.437 105.073 314.426 105.075 314.415 105.075C314.404 105.075 314.394 105.073 314.383 105.069C314.373 105.065 314.364 105.059 314.356 105.051L311.069 103.155C311.015 103.121 310.974 103.07 310.952 103.01C310.917 102.946 310.898 102.875 310.896 102.802V101.972C310.896 101.875 310.91 101.78 310.938 101.688C310.948 101.651 310.965 101.617 310.989 101.587C311.013 101.557 311.043 101.533 311.076 101.515L312.938 100.539C313.065 100.48 313.165 100.373 313.215 100.242C313.25 100.123 313.269 99.999 313.27 99.8748C313.27 99.8263 313.27 99.7641 313.27 99.6741C313.255 99.58 313.232 99.4874 313.201 99.3973C313.157 99.2933 313.104 99.1936 313.042 99.0998C312.966 98.9977 312.869 98.9128 312.758 98.8506C312.719 98.8208 312.674 98.7993 312.627 98.7874C312.579 98.7755 312.53 98.7735 312.481 98.7814C312.413 98.7948 312.352 98.8315 312.308 98.8852C312.27 98.942 312.241 99.0053 312.225 99.0721C312.225 99.1413 312.191 99.1897 312.184 99.2243C312.177 99.2589 312.128 99.342 312.087 99.3489C312.033 99.3469 311.98 99.3301 311.934 99.3004L311.166 98.8645C311.124 98.8319 311.091 98.7891 311.069 98.7399C311.043 98.6886 311.029 98.6317 311.028 98.5738C311.031 98.3231 311.068 98.074 311.139 97.8334C311.202 97.6298 311.313 97.4445 311.464 97.2936C311.609 97.1588 311.799 97.0824 311.997 97.0791C312.268 97.0836 312.532 97.1652 312.758 97.3144C313.032 97.4759 313.278 97.6817 313.485 97.9233C313.69 98.1671 313.867 98.4342 314.01 98.7191C314.147 99.0097 314.254 99.3134 314.329 99.6257C314.394 99.928 314.427 100.237 314.426 100.546Z" fill="#BA68C8"/>
<path d="M316.635 104.38L316.732 104.623C316.768 104.71 316.812 104.793 316.863 104.872C316.913 104.96 316.973 105.041 317.043 105.114C317.113 105.195 317.198 105.263 317.292 105.315C317.366 105.366 317.452 105.397 317.542 105.405C317.609 105.429 317.682 105.429 317.749 105.405C317.816 105.366 317.868 105.304 317.894 105.232C317.938 105.126 317.957 105.013 317.95 104.899C317.95 104.679 317.892 104.462 317.784 104.27C317.681 104.076 317.525 103.915 317.334 103.806C317.284 103.773 317.227 103.752 317.168 103.744H317.023H316.905C316.874 103.755 316.839 103.755 316.808 103.744L315.839 103.183C315.786 103.144 315.743 103.091 315.715 103.031C315.681 102.967 315.667 102.895 315.673 102.823L315.86 99.5087C315.858 99.4539 315.875 99.4 315.908 99.3565C315.916 99.3487 315.925 99.3426 315.935 99.3384C315.945 99.3342 315.956 99.332 315.967 99.332C315.978 99.332 315.989 99.3342 315.999 99.3384C316.009 99.3426 316.018 99.3487 316.026 99.3565L318.69 100.893C318.743 100.928 318.784 100.979 318.808 101.038C318.84 101.102 318.857 101.174 318.856 101.246V102.263C318.86 102.29 318.857 102.318 318.849 102.344C318.84 102.37 318.826 102.395 318.808 102.415C318.8 102.423 318.791 102.429 318.781 102.433C318.771 102.437 318.76 102.44 318.749 102.44C318.738 102.44 318.727 102.437 318.717 102.433C318.707 102.429 318.698 102.423 318.69 102.415L316.877 101.363L316.836 102.194C316.92 102.176 317.007 102.176 317.092 102.194C317.207 102.214 317.318 102.256 317.417 102.318C317.674 102.461 317.908 102.643 318.109 102.858C318.319 103.083 318.501 103.335 318.649 103.605C318.804 103.894 318.923 104.201 319.002 104.519C319.088 104.86 319.133 105.211 319.133 105.564C319.143 105.881 319.094 106.198 318.988 106.498C318.92 106.709 318.784 106.892 318.6 107.017C318.431 107.13 318.226 107.174 318.026 107.141C317.781 107.103 317.545 107.016 317.334 106.885C317.053 106.722 316.796 106.519 316.573 106.283C316.354 106.047 316.166 105.784 316.012 105.501C315.863 105.232 315.745 104.946 315.659 104.65C315.578 104.378 315.534 104.097 315.528 103.813C315.525 103.767 315.537 103.72 315.562 103.681C315.578 103.671 315.596 103.665 315.614 103.665C315.633 103.665 315.651 103.671 315.666 103.681L316.455 104.138C316.517 104.176 316.569 104.228 316.607 104.29C316.618 104.32 316.627 104.35 316.635 104.38Z" fill="#BA68C8"/>
</g>
<path d="M168.675 245.39C168.619 245.272 164.82 238.677 164.82 238.677C164.82 238.677 165.637 239.162 169.457 237.01C170.884 236.139 172.215 235.121 173.429 233.972L175.962 238.85C177.574 240.566 180.958 238.698 184.812 237.21C185.456 236.961 186.113 236.67 186.771 236.373H186.812C188.923 235.681 191.414 236.414 189.663 238.83C187.912 241.245 184.418 242.892 181.186 244.366C177.297 246.179 170.46 249.244 168.675 245.39Z" fill="#B16668"/>
<path d="M197.02 237.314C197.488 237.917 197.787 238.634 197.885 239.39C198.01 240.2 196.757 243.397 193.733 245.937C190.709 248.476 186.46 249.708 184.613 250.781C182.765 251.853 181.229 253.507 179.021 254.697C176.814 255.888 174.565 256.773 171.797 255.86C171.188 255.3 170.295 253.881 170.413 253.694C170.669 253.272 197.02 237.314 197.02 237.314Z" fill="#263238"/>
<path d="M176.767 239.383C178.559 240.034 181.514 238.484 184.815 237.21C187.922 236.006 191.236 233.937 193.617 234.124C195.997 234.311 198.461 236.401 196.385 240.456C195.776 241.632 194.413 243.778 193.105 244.67C189.79 246.933 186.531 247.895 184.33 249.092C181.465 250.649 180.144 252.441 177.41 253.514C173.853 254.898 171.286 254.559 170.4 253.749C169.515 252.94 166.857 245.189 168.47 244.947C168.47 244.947 169.798 247.328 175.141 243.279C177.473 241.508 177.016 239.93 176.767 239.383Z" fill="#BA68C8"/>
<path opacity="0.4" d="M176.767 239.383C178.559 240.034 181.514 238.484 184.815 237.21C187.922 236.006 191.236 233.937 193.617 234.124C195.997 234.311 198.461 236.401 196.385 240.456C195.776 241.632 194.413 243.778 193.105 244.67C189.79 246.933 186.531 247.895 184.33 249.092C181.465 250.649 180.144 252.441 177.41 253.514C173.853 254.898 171.286 254.559 170.4 253.749C169.515 252.94 166.857 245.189 168.47 244.947C168.47 244.947 169.798 247.328 175.141 243.279C177.473 241.508 177.016 239.93 176.767 239.383Z" fill="black"/>
<path d="M188.039 240.962C188.039 240.962 186.821 237.723 184.129 237.502C183.882 237.458 183.628 237.485 183.395 237.579C183.163 237.673 182.961 237.831 182.814 238.035C182.814 238.035 185.188 237.772 186.966 241.495C186.966 241.495 187.153 241.716 187.624 241.495C187.783 241.398 188.129 241.232 188.039 240.962Z" fill="#FAFAFA"/>
<path d="M180.788 238.823C180.788 238.823 180.753 238.712 181.307 238.449C181.519 238.338 181.764 238.304 181.999 238.353C181.999 238.353 184.075 238.664 185.299 242.062C185.319 242.208 185.288 242.357 185.211 242.483C185.134 242.609 185.016 242.704 184.877 242.754C184.818 242.794 184.75 242.821 184.679 242.834C184.609 242.847 184.536 242.845 184.466 242.829C184.396 242.813 184.33 242.782 184.272 242.74C184.214 242.697 184.166 242.643 184.13 242.581C184.13 242.581 182.794 239.01 180.788 238.823Z" fill="#FAFAFA"/>
<path d="M178.826 239.431C178.826 239.431 178.875 239.189 179.311 239.085C179.857 238.94 180.037 239.085 180.037 239.085C180.037 239.085 181.698 240.082 182.473 242.995C182.473 242.995 182.653 243.472 181.982 243.687C181.31 243.901 181.29 243.334 181.29 243.334C181.29 243.334 180.051 239.715 178.826 239.431Z" fill="#FAFAFA"/>
<path d="M153.527 197.772C158.89 206.014 174.979 234.995 174.979 234.995C174.979 234.995 171.014 241.002 164.835 240.351L141.307 205.17L153.527 197.772Z" fill="#37474F"/>
<path d="M191.195 257.479C190.393 256.683 186.773 250.753 186.773 250.753C186.773 250.753 189.486 251.653 193.472 249.819C195.5 248.885 197.022 246.172 197.022 246.172L200.046 251.964C201.52 253.805 204.8 252.434 208.758 251.272C209.45 251.078 210.101 250.843 210.779 250.58H210.82C212.986 250.075 215.401 251.002 213.464 253.258C211.526 255.514 207.928 256.884 204.558 258.102C200.544 259.59 194.219 260.469 191.195 257.479Z" fill="#B16668"/>
<path d="M222.446 250.995C222.899 251.691 223.154 252.497 223.186 253.327C223.255 254.206 221.636 257.514 218.169 259.97C214.702 262.427 210.059 263.368 207.983 264.385C205.907 265.403 204.128 267.008 201.658 268.088C199.187 269.167 196.703 269.949 193.817 268.696C193.215 268.046 192.392 266.447 192.517 266.254C192.849 265.728 222.446 250.995 222.446 250.995Z" fill="#263238"/>
<path d="M200.612 251.376C200.892 251.499 201.178 251.605 201.47 251.695C201.761 251.746 202.058 251.746 202.349 251.695C203.05 251.635 203.744 251.514 204.425 251.335C206.106 250.906 207.746 250.311 209.414 249.819C212.874 248.802 216.576 246.878 219.102 247.286C221.628 247.695 224.347 250.054 221.759 254.248C220.767 255.864 219.503 257.297 218.023 258.483C214.445 260.898 210.334 261.41 207.871 262.497C204.674 263.915 203.103 265.714 200.065 266.649C196.141 267.818 193.422 267.23 192.543 266.282C192.052 265.756 191.851 262.538 190.841 260.199C189.983 258.192 189.81 256.739 190.585 256.684C190.801 256.922 191.048 257.132 191.318 257.307C191.623 257.549 191.974 257.728 192.349 257.833C192.873 257.958 193.409 258.026 193.948 258.033C194.906 258.13 195.874 258.069 196.813 257.853C197.077 257.797 197.318 257.662 197.505 257.466C197.705 257.159 197.793 256.792 197.754 256.428C197.754 256.109 197.754 255.784 197.754 255.466C197.745 255.29 197.768 255.114 197.823 254.947C197.918 254.76 198.055 254.599 198.224 254.476C198.766 254.096 199.208 253.59 199.512 253.002C199.675 252.513 199.73 251.993 199.671 251.48C199.66 251.391 199.679 251.301 199.726 251.224C199.823 251.113 200.003 251.155 200.141 251.224C200.28 251.293 200.453 251.307 200.612 251.376Z" fill="#BA68C8"/>
<path opacity="0.4" d="M200.612 251.376C200.892 251.499 201.178 251.605 201.47 251.695C201.761 251.746 202.058 251.746 202.349 251.695C203.05 251.635 203.744 251.514 204.425 251.335C206.106 250.906 207.746 250.311 209.414 249.819C212.874 248.802 216.576 246.878 219.102 247.286C221.628 247.695 224.347 250.054 221.759 254.248C220.767 255.864 219.503 257.297 218.023 258.483C214.445 260.898 210.334 261.41 207.871 262.497C204.674 263.915 203.103 265.714 200.065 266.649C196.141 267.818 193.422 267.23 192.543 266.282C192.052 265.756 191.851 262.538 190.841 260.199C189.983 258.192 189.81 256.739 190.585 256.684C190.801 256.922 191.048 257.132 191.318 257.307C191.623 257.549 191.974 257.728 192.349 257.833C192.873 257.958 193.409 258.026 193.948 258.033C194.906 258.13 195.874 258.069 196.813 257.853C197.077 257.797 197.318 257.662 197.505 257.466C197.705 257.159 197.793 256.792 197.754 256.428C197.754 256.109 197.754 255.784 197.754 255.466C197.745 255.29 197.768 255.114 197.823 254.947C197.918 254.76 198.055 254.599 198.224 254.476C198.766 254.096 199.208 253.59 199.512 253.002C199.675 252.513 199.73 251.993 199.671 251.48C199.66 251.391 199.679 251.301 199.726 251.224C199.823 251.113 200.003 251.155 200.141 251.224C200.28 251.293 200.453 251.307 200.612 251.376Z" fill="black"/>
<path d="M212.506 254.116C212.506 254.116 211.496 250.538 208.631 250.047C208.37 249.98 208.096 249.988 207.839 250.068C207.583 250.149 207.353 250.3 207.178 250.504C207.178 250.504 209.745 250.428 211.33 254.559C211.33 254.559 211.503 254.815 212.022 254.621C212.195 254.559 212.589 254.413 212.506 254.116Z" fill="#FAFAFA"/>
<path d="M204.939 251.196C204.939 251.196 204.939 251.078 205.528 250.85C205.766 250.748 206.032 250.731 206.282 250.801C206.282 250.801 208.441 251.313 209.486 255.057C209.491 255.213 209.444 255.367 209.351 255.492C209.258 255.618 209.125 255.708 208.974 255.749C208.906 255.786 208.831 255.809 208.755 255.816C208.678 255.824 208.6 255.815 208.526 255.792C208.453 255.769 208.385 255.731 208.326 255.681C208.267 255.631 208.219 255.569 208.185 255.5C208.185 255.5 207.071 251.562 204.939 251.196Z" fill="#FAFAFA"/>
<path d="M202.789 251.646C202.789 251.646 202.865 251.397 203.336 251.321C203.931 251.217 204.111 251.425 204.111 251.425C204.111 251.425 205.799 252.636 206.374 255.819C206.374 255.819 206.526 256.345 205.785 256.511C205.045 256.677 205.045 256.075 205.045 256.075C205.045 256.075 204.076 252.082 202.789 251.646Z" fill="#FAFAFA"/>
<path d="M179.442 209.612C183.317 216.491 192.936 237.085 197.898 247.306C195.404 250.348 191.856 252.339 187.961 252.883L161.928 217.086L169.678 210.56L179.442 209.612Z" fill="#455A64"/>
<path d="M90.7363 202.534C90.7363 202.534 122.167 193.047 127.634 191.552C133.101 190.057 143.121 188.05 146.186 189.428C149.252 190.805 150.982 193.22 152.85 196.168C154.788 199.226 156.213 202.015 156.213 202.015C156.213 202.015 135.633 207.641 123.177 207.641C110.721 207.641 90.7363 202.534 90.7363 202.534Z" fill="#37474F"/>
<path d="M92.9386 190.175C90.9664 196.908 88.399 208.907 97.4712 217.668C101.007 221.086 121.29 231.958 133.746 228.138C147.662 223.868 164.277 215.64 164.277 215.64C164.277 215.64 172.678 216.132 175.411 214.554C178.145 212.976 179.805 210.367 179.445 209.613C175.107 200.617 171.494 195.939 162.104 196.88C150.617 198.029 131.476 201.517 131.476 201.517L92.9386 190.175Z" fill="#455A64"/>
<path d="M139.697 141.418C133.746 136.207 125.393 138.58 120.75 143.099C113.636 150.019 109.415 158.808 110.979 163.167C112.799 168.156 139.697 141.418 139.697 141.418Z" fill="#455A64"/>
<path d="M210.004 171.899C210.129 171.034 209.43 170.051 208.018 169.332L191.549 160.91C189.027 159.793 186.193 159.597 183.542 160.356L168.484 165.546C167.169 166.003 166.45 166.64 166.408 167.263C166.374 167.719 166.131 169.491 166.118 169.996C166.104 170.501 166.429 170.875 167.128 171.228C168.816 172.093 172.602 172.377 175.577 171.864L179.397 171.214C182.373 170.702 186.151 170.986 187.833 171.837C188.853 172.332 189.67 173.166 190.144 174.196L189.258 177.262C189.047 177.819 189.047 178.435 189.258 178.992L188.981 179.961C188.642 181.116 188.531 182.327 191.41 183.601C192.315 184.054 193.321 184.271 194.332 184.232C195.344 184.192 196.329 183.896 197.195 183.372L208.869 175.76C209.093 175.636 209.286 175.463 209.434 175.255C209.583 175.047 209.683 174.808 209.727 174.556C209.783 174.107 209.942 172.342 210.004 171.899Z" fill="#455A64"/>
<path d="M190.902 176.259L190.957 168.274L185.989 166.973L185.539 171.18C186.33 171.289 187.101 171.51 187.83 171.837C188.85 172.333 189.667 173.167 190.141 174.197L189.781 175.436L190.902 176.259Z" fill="#263238"/>
<path d="M209.088 170.045C210.59 171.429 210.701 171.837 210.286 177.29C209.87 182.743 208.632 182.888 207.234 181.954C205.836 181.02 204.888 178.425 203.172 179.484L209.088 170.045Z" fill="#455A64"/>
<path d="M167.417 168.529C169.106 169.394 172.891 169.678 175.867 169.166L179.687 168.515C182.662 168.003 186.44 168.287 188.122 169.138C189.804 169.989 190.89 171.629 190.551 172.785L189.257 177.262C188.918 178.418 188.807 179.629 191.686 180.902C192.591 181.355 193.596 181.572 194.608 181.532C195.619 181.492 196.604 181.197 197.471 180.674L209.145 173.096C210.66 172.114 210.155 170.425 208.017 169.332L191.547 160.91C189.026 159.793 186.192 159.597 183.541 160.356L168.483 165.546C166.199 166.335 165.722 167.671 167.417 168.529Z" fill="#BA68C8"/>
<path opacity="0.2" d="M167.417 168.529C169.106 169.394 172.891 169.678 175.867 169.166L179.687 168.515C182.662 168.003 186.44 168.287 188.122 169.138C189.804 169.989 190.89 171.629 190.551 172.785L189.257 177.262C188.918 178.418 188.807 179.629 191.686 180.902C192.591 181.355 193.596 181.572 194.608 181.532C195.619 181.492 196.604 181.197 197.471 180.674L209.145 173.096C210.66 172.114 210.155 170.425 208.017 169.332L191.547 160.91C189.026 159.793 186.192 159.597 183.541 160.356L168.483 165.546C166.199 166.335 165.722 167.671 167.417 168.529Z" fill="black"/>
<path d="M204.012 169.291C203.998 169.201 203.96 169.115 203.903 169.044C203.846 168.972 203.772 168.917 203.687 168.883C203.396 168.747 203.081 168.67 202.76 168.657C202.439 168.644 202.119 168.695 201.818 168.807C201.527 168.924 201.382 169.084 201.368 169.257C201.354 169.43 201.306 169.789 201.299 169.907C201.292 170.025 201.403 170.218 201.624 170.343C202.212 170.616 202.883 170.646 203.493 170.426C203.77 170.315 203.922 170.156 203.943 169.99C203.963 169.824 204.019 169.423 204.012 169.291Z" fill="#263238"/>
<path d="M200.029 170.922C200.019 170.828 199.983 170.739 199.925 170.663C199.868 170.588 199.792 170.529 199.704 170.493C199.413 170.357 199.098 170.281 198.777 170.268C198.456 170.255 198.136 170.305 197.835 170.417C197.559 170.528 197.406 170.687 197.393 170.846C197.379 171.005 197.323 171.407 197.316 171.538C197.327 171.632 197.363 171.722 197.42 171.797C197.477 171.873 197.554 171.932 197.642 171.967C198.229 172.24 198.901 172.27 199.51 172.05C199.787 171.94 199.939 171.78 199.96 171.621C199.981 171.462 200.029 171.054 200.029 170.922Z" fill="#37474F"/>
<path d="M200.272 169.158C200.272 169.006 200.169 168.846 199.947 168.722C199.36 168.449 198.688 168.419 198.079 168.639C197.802 168.75 197.65 168.909 197.629 169.075C197.608 169.241 197.574 169.621 197.56 169.732C197.546 169.843 197.657 170.051 197.885 170.182C198.176 170.318 198.491 170.395 198.812 170.408C199.132 170.421 199.452 170.37 199.753 170.258C200.037 170.147 200.189 169.981 200.203 169.815C200.217 169.649 200.265 169.275 200.272 169.158Z" fill="#263238"/>
<path d="M203.762 171.109C203.762 170.957 203.665 170.798 203.436 170.673C203.147 170.536 202.834 170.458 202.514 170.444C202.194 170.43 201.875 170.479 201.575 170.59C201.298 170.701 201.146 170.86 201.125 171.019C201.104 171.178 201.07 171.566 201.056 171.711C201.042 171.857 201.146 172.03 201.381 172.168C201.969 172.439 202.641 172.467 203.25 172.244C203.526 172.133 203.672 171.974 203.692 171.815C203.713 171.656 203.762 171.227 203.762 171.109Z" fill="#37474F"/>
<path d="M201.819 168.807C201.265 169.028 201.217 169.43 201.694 169.699C202.282 169.972 202.953 170.002 203.563 169.783C204.116 169.554 204.165 169.153 203.687 168.883C203.396 168.747 203.081 168.67 202.761 168.657C202.44 168.644 202.12 168.695 201.819 168.807Z" fill="#455A64"/>
<path d="M197.838 170.434C197.291 170.655 197.236 171.057 197.713 171.326C198.301 171.599 198.972 171.629 199.582 171.409C200.135 171.181 200.191 170.78 199.706 170.51C199.416 170.374 199.101 170.297 198.78 170.284C198.459 170.271 198.139 170.322 197.838 170.434Z" fill="#455A64"/>
<path d="M198.081 168.639C197.528 168.867 197.472 169.262 197.957 169.532C198.247 169.669 198.562 169.746 198.883 169.761C199.203 169.775 199.524 169.725 199.825 169.615C200.372 169.393 200.427 168.992 199.95 168.722C199.362 168.449 198.691 168.419 198.081 168.639Z" fill="#455A64"/>
<path d="M201.574 170.59C201.02 170.812 200.965 171.213 201.449 171.483C202.037 171.756 202.708 171.786 203.317 171.566C203.864 171.338 203.919 170.943 203.435 170.673C203.146 170.536 202.832 170.458 202.513 170.444C202.193 170.43 201.874 170.479 201.574 170.59Z" fill="#455A64"/>
<path d="M189.021 162.01L187.271 161.034L185.285 161.844L183.534 160.868L181.541 161.685L181.465 162.425L182.482 162.993L181.306 163.47L181.223 164.211L182.973 165.186L184.959 164.37L186.71 165.345L188.696 164.536L188.779 163.795L187.762 163.228L188.938 162.743L189.021 162.01Z" fill="#37474F"/>
<path d="M187.27 161.034L185.284 161.844L183.533 160.868L181.54 161.685L183.291 162.66L181.305 163.47L183.049 164.446L185.041 163.636L186.785 164.612L188.778 163.795L187.028 162.82L189.02 162.01L187.27 161.034Z" fill="#455A64"/>
<path d="M185.04 163.637L184.957 164.37L182.971 165.187L183.047 164.446L185.04 163.637Z" fill="#263238"/>
<path d="M187.025 162.82L187.759 163.229L188.935 162.744L189.018 162.011L187.025 162.82Z" fill="#263238"/>
<path d="M188.78 163.797L188.697 164.537L186.711 165.347L186.787 164.613L188.78 163.797Z" fill="#263238"/>
<path d="M183.291 162.661L181.54 161.686L181.457 162.461L182.481 162.993L183.291 162.661Z" fill="#263238"/>
<path d="M168.33 160.426C172.482 159.485 174.952 160.212 178.488 160.066C179.63 160.025 180.599 159.409 181.159 159.513C182.232 159.72 182.149 160.834 181.457 161.589C180.765 162.343 179.969 163.056 176.904 163.533C174.288 163.948 174.184 163.651 171.119 164.599L167.762 166.177L166.586 163.291L168.33 160.426Z" fill="#B16668"/>
<path d="M175.769 160.066C173.564 159.118 171.129 158.839 168.766 159.263C165.383 160.066 166.594 163.532 166.594 163.532L175.769 160.066Z" fill="#B16668"/>
<path d="M159.083 142.489L149.049 151.464L135.797 146.814L145.263 133.659L159.083 142.489Z" fill="#B16668"/>
<path d="M169.055 125.252C169.055 125.252 172.418 130.359 172.037 130.864C171.657 131.369 169.172 131.819 169.172 131.819L169.055 125.252Z" fill="#9A4A4D"/>
<path d="M159.706 111.148C166.515 112.58 168.48 115.577 169.124 126.372C169.816 137.679 168.639 141.236 167.159 142.758C166.155 143.783 160.585 143.969 157.775 143.194C154.253 142.226 146.302 139.409 142.551 133.721C138.178 127.029 137.015 117.964 141.714 114.241C148.336 109.03 156.938 110.56 159.706 111.148Z" fill="#B16668"/>
<path d="M158.086 143.293C161.014 144.027 165.498 143.729 166.847 142.996C165.199 143.309 163.498 143.206 161.899 142.698C160.305 142.24 158.79 141.54 157.408 140.622L158.086 143.293Z" fill="#9A4A4D"/>
<path d="M170.633 115.82C168.689 117.093 166.35 117.584 164.052 117.896C164.191 119.729 163.568 121.529 162.959 123.266C162.537 124.47 161.028 128.241 159.499 126.117C158.412 124.58 157.423 123.183 155.278 123.508C151.735 124.034 151.257 128.552 153.485 131.3C155.714 134.047 157.803 132.995 157.803 132.995C157.803 132.995 158.018 137.839 155.375 141.251C153.944 141.94 152.387 142.329 150.8 142.392C149.214 142.455 147.631 142.191 146.15 141.617C142.787 140.427 137.985 136.033 136.255 132.656C131.501 123.349 131.674 114.546 137.763 111.972C138.455 107.578 141.915 105.613 145.818 104.706C151.285 103.447 156.855 106.99 162.156 104.858C163.277 104.409 164.308 103.758 165.45 103.378C165.758 103.237 166.093 103.169 166.431 103.177C166.769 103.186 167.101 103.271 167.401 103.426C167.85 103.812 168.137 104.353 168.204 104.941C168.519 105.983 168.42 107.106 167.927 108.076C168.713 107.673 169.551 107.384 170.419 107.218C170.853 107.14 171.299 107.155 171.728 107.262C172.156 107.37 172.557 107.567 172.903 107.841C173.492 108.424 173.832 109.213 173.851 110.041C174.031 112.353 172.564 114.546 170.633 115.82Z" fill="#263238"/>
<path d="M137.711 113.447L133.635 111.046C133.964 110.528 134.482 110.158 135.079 110.014C135.675 109.87 136.305 109.964 136.834 110.276C137.363 110.587 137.75 111.092 137.913 111.684C138.077 112.276 138.004 112.908 137.711 113.447Z" fill="#263238"/>
<path d="M139.695 141.416C132.193 139.174 126.014 140.309 116.215 149.644C105.475 159.851 97.5727 177.192 94.8047 195.897C94.8047 195.897 95.1714 204.54 105.185 210.291C115.807 216.387 132.221 214.899 138.816 203.924C138.816 203.924 140.2 194.146 144.58 188.915C147.417 185.524 153.978 178.037 158.822 172.687C163.036 168.03 167.437 156.675 160.815 151.325C158.87 149.761 156.96 148.557 154.268 146.786C147.397 148.004 138.463 143.935 139.695 141.416Z" fill="#BA68C8"/>
<path opacity="0.75" d="M139.695 141.416C132.193 139.174 126.014 140.309 116.215 149.644C105.475 159.851 97.5727 177.192 94.8047 195.897C94.8047 195.897 95.1714 204.54 105.185 210.291C115.807 216.387 132.221 214.899 138.816 203.924C138.816 203.924 140.2 194.146 144.58 188.915C147.417 185.524 153.978 178.037 158.822 172.687C163.036 168.03 167.437 156.675 160.815 151.325C158.87 149.761 156.96 148.557 154.268 146.786C147.397 148.004 138.463 143.935 139.695 141.416Z" fill="white"/>
<path opacity="0.1" d="M159.431 171.982L159.763 171.553L159.908 171.359L160.268 170.847C160.268 170.806 160.33 170.764 160.358 170.716C160.51 170.489 160.662 170.259 160.815 170.024C160.83 170.003 160.842 169.979 160.849 169.954C160.988 169.74 161.119 169.511 161.251 169.262L161.34 169.096C161.458 168.882 161.583 168.66 161.693 168.404C161.719 168.364 161.742 168.323 161.763 168.28C162.196 167.425 162.582 166.547 162.918 165.65V165.602C163.754 163.445 164.188 161.154 164.198 158.841C161.928 162.576 159.011 165.878 155.583 168.591C151.203 172.051 146.054 174.48 141.909 178.21C137.522 182.168 134.048 187.206 130.207 191.683C128.664 193.469 126.401 197.025 124.049 196.839C121.177 196.61 118.962 192.749 117.758 190.133C115.835 185.981 114.402 180.895 111.814 177.103C109.551 173.788 105.939 169.435 102.029 170.605C98.4925 178.672 96.0623 187.18 94.8047 195.897C94.8047 195.897 95.1714 204.541 105.185 210.291C106.077 210.81 107.002 211.272 107.953 211.675C108.243 211.723 108.534 211.786 108.818 211.855C110.25 212.229 111.586 212.928 113.06 213.239L113.586 213.343L114.181 213.447L114.817 213.543L115.357 213.62L116.049 213.703L116.527 213.744L117.274 213.799H117.724H118.485H119.717H120.201L120.893 213.765L121.44 213.723L122.069 213.668L122.672 213.599L123.246 213.523L123.938 213.412L124.388 213.329C124.685 213.274 124.976 213.218 125.267 213.149L125.453 213.107C130.899 211.827 135.923 208.782 138.857 203.897C138.857 203.897 138.927 203.426 139.072 202.644C139.12 202.416 139.169 202.167 139.224 201.89C139.335 201.35 139.48 200.714 139.653 200.015C140.248 197.541 141.087 195.133 142.158 192.825C142.546 192.013 142.983 191.224 143.466 190.465C143.708 190.092 143.957 189.732 144.22 189.386L144.629 188.915L145.203 188.223C147.867 185.075 152.767 179.476 156.967 174.778L158.856 172.702L159.313 172.162L159.431 171.982Z" fill="#BA68C8"/>
<path d="M203.56 182.985C201.242 186.68 200.792 188.998 190.765 189.78C190.765 189.78 171.95 201.586 165.909 203.752C159.867 205.918 157.688 202.52 156.428 197.046C155.169 191.573 151.868 170.923 151.868 170.923C151.868 170.923 149.245 158.184 159.943 150.945C164.476 154.405 166.863 157.941 167.625 164.031C168.517 171.318 169.818 188.431 169.818 188.431C169.818 188.431 185.686 181.511 188.08 179.13C188.784 178.383 189.421 177.575 189.983 176.715C190.994 175.331 192.419 173.823 192.82 172.003C193.45 169.117 194.779 169.519 195.256 171.103C195.814 173.144 195.797 175.299 195.208 177.331C195.208 177.331 200.114 181.186 202.522 179.892L203.173 179.476C203.441 179.287 203.768 179.199 204.095 179.228C204.422 179.257 204.728 179.402 204.958 179.636C205.09 180.3 204.979 180.729 203.56 182.985Z" fill="#B16668"/>
<path d="M158.741 149.776C164.775 152.62 167.737 157.167 168.359 164.045C168.982 170.924 169.82 182.875 169.82 182.875C169.82 182.875 169.446 187.234 163.675 189.262C162.044 189.864 160.295 190.073 158.569 189.874C156.843 189.674 155.187 189.071 153.737 188.113L151.343 172.543C151.343 172.543 147.959 155.7 158.741 149.776Z" fill="#455A64"/>
<path d="M114.914 200.133C105.039 188.051 95.8562 173.553 88.258 169.173C74.5841 161.298 46.8072 178.605 43.7694 218.097C40.7315 257.59 69.8924 279.72 98.0775 285.796C112.506 288.896 131.467 285.754 138.906 283.18C161.582 275.326 174.281 264.337 179.734 249.148C185.685 232.498 181.18 222.485 173.429 218.222C169.938 216.35 165.926 215.689 162.018 216.34C134.449 220.658 122.56 209.489 114.914 200.133Z" fill="#BA68C8"/>
<path opacity="0.2" d="M149.367 278.978L150.613 278.397C152.592 268.709 151.478 259.63 147.256 251.229C143.104 243.029 136.053 235.348 125.611 227.701C110.214 216.47 104.159 205.813 98.3321 195.509C96.1938 191.731 94.18 188.16 91.7304 184.638C86.2843 176.777 80.8521 172.645 74.6449 171.649C72.1131 171.266 69.5323 171.356 67.0329 171.912C66.1794 172.466 65.3306 173.072 64.4863 173.732C67.6761 172.62 71.0847 172.283 74.4304 172.749C80.3193 173.697 85.5024 177.676 90.7823 185.274C93.1905 188.734 95.2042 192.305 97.3286 196.056C103.224 206.47 109.328 217.231 124.919 228.58C138.399 238.448 154.945 254.073 149.367 278.978Z" fill="black"/>
<path opacity="0.1" d="M98.0793 285.795C112.507 288.895 131.468 285.754 138.907 283.179C161.584 275.325 174.282 264.336 179.735 249.147C179.881 248.739 180.005 248.344 180.137 247.943L179.804 247.811C173.999 245.922 167.757 248.185 162.006 250.226C147.543 255.361 131.198 259.16 117.199 252.884C107.982 248.732 98.4806 242.275 93.5813 233.439C88.6819 224.602 86.4191 214.505 82.8622 205.067C81.2567 200.811 79.762 195.309 76.1498 191.164C72.7659 187.289 68.3025 184.473 63.1609 184.48C58.9397 184.48 55.0369 185.753 51.3969 190.057C47.4664 197.607 44.6361 206.99 43.7849 218.138C40.7332 257.596 69.8941 279.719 98.0793 285.795Z" fill="black"/>
<path d="M299.949 252.953L319.601 241.604C320.115 241.268 320.542 240.817 320.849 240.285C321.155 239.754 321.333 239.158 321.366 238.545V238.774C321.333 238.161 321.156 237.565 320.849 237.033C320.543 236.502 320.115 236.05 319.601 235.715L280.081 212.879C279.534 212.603 278.93 212.459 278.317 212.459C277.704 212.459 277.099 212.603 276.552 212.879L256.899 224.228C256.386 224.562 255.958 225.012 255.651 225.542C255.345 226.073 255.168 226.668 255.135 227.28V227.058C255.168 227.67 255.345 228.265 255.651 228.795C255.958 229.326 256.386 229.776 256.899 230.11L296.419 252.946C296.966 253.223 297.57 253.368 298.183 253.369C298.796 253.37 299.401 253.228 299.949 252.953Z" fill="#37474F"/>
<path d="M298.191 223.356L319.609 235.716C320.123 236.051 320.55 236.502 320.857 237.034C321.163 237.565 321.34 238.162 321.373 238.774V238.546C321.34 239.158 321.163 239.754 320.856 240.286C320.55 240.817 320.122 241.269 319.609 241.605L299.956 252.953C299.412 253.239 298.806 253.384 298.191 253.375V223.356Z" fill="#263238"/>
<path d="M319.61 237.758L299.957 249.121C299.411 249.401 298.806 249.547 298.192 249.547C297.579 249.547 296.974 249.401 296.428 249.121L256.908 226.285C255.932 225.724 255.932 224.811 256.908 224.25L276.56 212.901C277.108 212.625 277.712 212.481 278.325 212.481C278.938 212.481 279.542 212.625 280.09 212.901L319.61 235.737C320.585 236.284 320.585 237.198 319.61 237.758Z" fill="#455A64"/>
<path d="M319.608 234.028V235.903L299.208 247.667C298.984 247.802 298.734 247.89 298.475 247.923C298.025 247.988 297.566 247.898 297.174 247.667L256.906 224.423V222.479L296.426 245.356C296.973 245.634 297.578 245.779 298.191 245.779C298.804 245.779 299.409 245.634 299.956 245.356L319.608 234.028Z" fill="#BA68C8"/>
<path opacity="0.2" d="M319.606 234.027V235.903L299.206 247.667C298.982 247.802 298.732 247.889 298.472 247.923H298.182V245.764C298.799 245.777 299.409 245.632 299.953 245.342L319.606 234.027Z" fill="black"/>
<path d="M299.958 245.369L319.611 234.027C320.125 233.692 320.553 233.24 320.86 232.709C321.167 232.177 321.343 231.581 321.376 230.968V227.335C321.343 226.722 321.167 226.126 320.86 225.594C320.553 225.063 320.125 224.611 319.611 224.277L280.091 201.441C279.544 201.164 278.939 201.021 278.327 201.021C277.714 201.021 277.109 201.164 276.562 201.441L256.909 212.782C256.396 213.118 255.969 213.57 255.663 214.102C255.356 214.633 255.179 215.229 255.145 215.841V219.474C255.178 220.078 255.355 220.666 255.662 221.187C255.969 221.708 256.397 222.148 256.909 222.47L296.429 245.348C296.974 245.631 297.578 245.781 298.191 245.784C298.805 245.788 299.411 245.645 299.958 245.369Z" fill="#37474F"/>
<path d="M298.191 211.911L319.609 224.277C320.123 224.612 320.551 225.064 320.858 225.595C321.164 226.127 321.341 226.723 321.373 227.336V230.969C321.341 231.582 321.164 232.178 320.858 232.71C320.551 233.241 320.123 233.693 319.609 234.027L299.956 245.369C299.414 245.659 298.806 245.805 298.191 245.791V211.911Z" fill="#263238"/>
<path d="M319.61 226.318L299.957 237.66C299.41 237.936 298.805 238.08 298.192 238.08C297.579 238.08 296.975 237.936 296.428 237.66L256.908 214.824C255.932 214.264 255.932 213.35 256.908 212.748L276.56 201.406C277.108 201.13 277.712 200.986 278.325 200.986C278.938 200.986 279.542 201.13 280.09 201.406L319.61 224.242C320.585 224.837 320.585 225.751 319.61 226.318Z" fill="#455A64"/>
<path d="M292.201 217.288C294.381 218.54 294.381 220.568 292.201 221.82C290.978 222.434 289.629 222.754 288.26 222.754C286.892 222.754 285.542 222.434 284.319 221.82C282.146 220.568 282.146 218.54 284.319 217.288C285.54 216.667 286.89 216.343 288.26 216.343C289.63 216.343 290.98 216.667 292.201 217.288Z" fill="#BA68C8"/>
<path d="M260.112 218.623C260.314 218.754 260.483 218.932 260.603 219.142C260.724 219.351 260.792 219.586 260.804 219.827C260.804 220.27 260.493 220.457 260.112 220.242C259.91 220.112 259.742 219.935 259.622 219.727C259.502 219.519 259.433 219.285 259.42 219.045C259.42 218.595 259.731 218.408 260.112 218.623Z" fill="#BA68C8"/>
<path d="M260.112 221.288C260.314 221.42 260.482 221.598 260.602 221.807C260.723 222.016 260.792 222.251 260.804 222.492C260.804 222.935 260.493 223.122 260.112 222.907C259.91 222.777 259.742 222.6 259.622 222.392C259.502 222.184 259.433 221.95 259.42 221.71C259.42 221.26 259.731 221.074 260.112 221.288Z" fill="#BA68C8"/>
<path d="M81.6973 104.174V93.794L90.4649 93.0259C90.5898 93.0149 90.715 93.0414 90.8247 93.102C91.1638 93.2888 98.2291 97.3509 98.3399 97.4132C98.4228 97.4617 98.4937 97.5285 98.5472 97.6083C98.6007 97.6882 98.6354 97.7792 98.6488 97.8744C98.6621 97.9696 98.6537 98.0666 98.6241 98.1581C98.5946 98.2496 98.5447 98.3332 98.4783 98.4027L89.1847 108.478L81.6973 104.174Z" fill="#BA68C8"/>
<path d="M89.1855 108.471L98.4791 98.3953C98.5689 98.3011 98.6277 98.1816 98.6475 98.0529C98.6674 97.9242 98.6473 97.7926 98.5899 97.6757C98.5326 97.5588 98.4409 97.4623 98.327 97.3992C98.2132 97.3361 98.0827 97.3094 97.9532 97.3227L89.1855 98.0839V108.471Z" fill="#BA68C8"/>
<path d="M81.6973 93.7803L89.1847 98.0914L97.9524 97.3233C98.0557 97.3142 98.1597 97.3283 98.2568 97.3648C97.5648 96.9496 91.15 93.2682 90.8317 93.0952C90.7186 93.03 90.5875 93.0033 90.458 93.0191L81.6973 93.7803Z" fill="#BA68C8"/>
<path opacity="0.5" d="M81.6973 93.7803L89.1847 98.0914L97.9524 97.3233C98.0557 97.3142 98.1597 97.3283 98.2568 97.3648C97.5648 96.9496 91.15 93.2682 90.8317 93.0952C90.7186 93.03 90.5875 93.0033 90.458 93.0191L81.6973 93.7803Z" fill="white"/>
<path d="M89.1936 85.5099C89.15 84.7547 88.9301 84.0202 88.5516 83.3653C88.1731 82.7104 87.6464 82.1533 87.0138 81.7385L85.2423 80.7212C84.5685 80.3768 83.8227 80.1973 83.066 80.1973C82.3093 80.1973 81.5634 80.3768 80.8896 80.7212L53.7217 96.4366C53.0887 96.8486 52.5619 97.4043 52.1843 98.0585C51.8067 98.7127 51.589 99.4468 51.5488 100.201V130.095C51.5879 130.851 51.8051 131.586 52.1828 132.242C52.5604 132.897 53.0877 133.454 53.7217 133.867L55.4932 134.891C56.1685 135.231 56.9138 135.407 57.6696 135.407C58.4254 135.407 59.1707 135.231 59.8459 134.891L87.0138 119.176C87.6487 118.763 88.1771 118.207 88.5559 117.551C88.9347 116.896 89.1533 116.16 89.1936 115.404V85.5099Z" fill="#BA68C8"/>
<path opacity="0.2" d="M51.5488 130.095C51.5879 130.851 51.8051 131.586 52.1828 132.242C52.5604 132.897 53.0877 133.454 53.7217 133.867L55.4932 134.891C56.1071 135.197 56.7787 135.371 57.4643 135.401C58.1499 135.431 58.834 135.316 59.4722 135.064C58.4481 135.451 57.673 134.87 57.673 133.631V103.737C57.6993 102.979 57.9185 102.241 58.3097 101.592L52.1855 98.0557C51.7943 98.7049 51.5751 99.4433 51.5488 100.201V130.095Z" fill="black"/>
<path opacity="0.5" d="M89.1185 84.8933C88.8694 83.966 88.0251 83.6754 87.0425 84.2497L59.8469 99.972C59.2024 100.369 58.6727 100.927 58.3106 101.591L52.1934 98.0621C52.5549 97.3976 53.0816 96.8375 53.7227 96.4359L80.8906 80.7205C81.5658 80.381 82.3111 80.2041 83.0669 80.2041C83.8227 80.2041 84.5681 80.381 85.2433 80.7205L87.0217 81.7447C87.567 82.0993 88.0342 82.5614 88.3947 83.1028C88.7552 83.6442 89.0015 84.2535 89.1185 84.8933Z" fill="white"/>
<path d="M67.5813 102.221L70.0379 100.802V102.616L72.5015 101.197V105.065L74.9581 103.64V99.7714L77.4216 98.3528V96.5398L79.8851 95.1143V96.9342L82.3417 95.5087V99.377L84.8052 97.9584V103.64L82.3417 105.065V107.902L79.8851 109.328V112.165L77.4216 113.591V116.428L74.9581 117.853L74.965 120.691L72.5015 122.109V119.272L70.0379 120.691V117.853L67.5813 119.272V116.428L65.1178 117.853V115.009L62.6543 116.428V110.747L65.1178 109.328V105.46L67.5813 104.034V102.221Z" fill="white"/>
</svg>
