<svg width="346" height="346" viewBox="0 0 346 346" fill="none" xmlns="http://www.w3.org/2000/svg">
<path d="M170.096 330.18C257.344 330.18 328.073 291.019 328.073 242.711C328.073 194.403 257.344 155.242 170.096 155.242C82.8477 155.242 12.1191 194.403 12.1191 242.711C12.1191 291.019 82.8477 330.18 170.096 330.18Z" fill="white"/>
<path d="M184.125 294.888C213.313 294.888 236.973 281.788 236.973 265.63C236.973 249.471 213.313 236.372 184.125 236.372C154.938 236.372 131.277 249.471 131.277 265.63C131.277 281.788 154.938 294.888 184.125 294.888Z" fill="#E0E0E0"/>
<path d="M279.167 262.724C293.85 262.724 305.753 256.134 305.753 248.005C305.753 239.876 293.85 233.286 279.167 233.286C264.483 233.286 252.58 239.876 252.58 248.005C252.58 256.134 264.483 262.724 279.167 262.724Z" fill="#E0E0E0"/>
<path d="M72.2022 281.048C99.9982 281.048 122.531 268.572 122.531 253.181C122.531 237.791 99.9982 225.314 72.2022 225.314C44.4062 225.314 21.873 237.791 21.873 253.181C21.873 268.572 44.4062 281.048 72.2022 281.048Z" fill="#E0E0E0"/>
<path d="M265.775 251.328C258.654 244.069 254.475 214.5 261.415 208.735H296.749C303.669 214.5 299.517 244.027 292.403 251.321L292.209 251.522L291.96 251.764C291.76 251.958 291.545 252.151 291.317 252.338L291.151 252.47L290.611 252.878C290.315 253.09 290.007 253.287 289.69 253.466C283.836 256.843 274.335 256.843 268.481 253.466C268.169 253.286 267.858 253.086 267.553 252.871C267.38 252.747 267.214 252.622 267.055 252.491L266.841 252.324C266.626 252.145 266.419 251.965 266.225 251.778L265.941 251.501L265.775 251.328Z" fill="#37474F"/>
<path d="M293.681 206.417C301.743 211.074 301.743 218.617 293.681 223.274C285.619 227.931 272.548 227.931 264.486 223.274C256.424 218.617 256.424 211.074 264.486 206.417C272.548 201.76 285.619 201.76 293.681 206.417Z" fill="#455A64"/>
<path d="M289.807 208.66C295.723 212.078 295.723 217.614 289.807 221.033C283.89 224.451 274.285 224.451 268.355 221.033C262.424 217.614 262.438 212.078 268.355 208.66C274.271 205.241 283.883 205.241 289.807 208.66Z" fill="#263238"/>
<path d="M268.361 214.521C274.285 211.102 283.883 211.102 289.813 214.521C291.245 215.293 292.462 216.408 293.356 217.766C292.465 219.129 291.247 220.247 289.813 221.019C283.89 224.437 274.292 224.437 268.361 221.019C266.929 220.245 265.712 219.127 264.818 217.766C265.714 216.41 266.931 215.295 268.361 214.521Z" fill="#F5F5F5"/>
<path d="M282.528 205.192L277.49 201.587C277.49 201.587 273.338 179.809 276.93 170.447C280.521 161.084 287.116 161.118 290.264 163.63C293.413 166.142 291.69 174.01 290.403 178.55C288.846 184.024 283.898 208.548 287.386 217.247L282.528 205.192Z" fill="#BA68C8"/>
<g opacity="0.2">
<path d="M282.528 205.192L277.49 201.587C277.49 201.587 273.338 179.809 276.93 170.447C280.521 161.084 287.116 161.118 290.264 163.63C293.413 166.142 291.69 174.01 290.403 178.55C288.846 184.024 283.898 208.548 287.386 217.247L282.528 205.192Z" fill="black"/>
</g>
<path d="M281.515 202.66C281.608 202.621 281.684 202.552 281.731 202.464C281.778 202.375 281.792 202.273 281.771 202.175C277.661 183.554 286.145 166.247 286.228 166.074C286.278 165.974 286.287 165.858 286.252 165.751C286.217 165.645 286.141 165.557 286.041 165.506C285.941 165.456 285.825 165.447 285.719 165.482C285.612 165.517 285.524 165.593 285.474 165.693C285.384 165.866 276.768 183.436 280.941 202.369C280.966 202.479 281.033 202.574 281.127 202.635C281.222 202.696 281.336 202.717 281.446 202.694L281.515 202.66Z" fill="white"/>
<path d="M280.352 199.525C280.352 199.525 279.784 197.816 282.303 197.38C284.822 196.944 285.763 194.847 286.026 191.332C286.289 187.816 287.327 185.297 290.482 184.778C293.638 184.259 296.185 185.851 298.24 184.266C300.295 182.682 305.603 178.862 310.004 180.606C314.405 182.349 312.972 186.142 310.696 188.564C308.419 190.986 307.734 191.837 309.492 195.816C311.249 199.795 309.969 203.511 305.907 204.445C301.845 205.379 299.568 204.895 299.506 209.358C299.444 213.344 298.634 217.074 294.475 218.583C291.184 219.774 287.646 220.124 284.185 219.6C283.021 219.498 281.916 219.038 281.023 218.285C280.179 217.434 280.331 216.486 280.331 215.379V199.525H280.352Z" fill="#BA68C8"/>
<g opacity="0.1">
<path d="M280.352 199.525C280.352 199.525 279.784 197.816 282.303 197.38C284.822 196.944 285.763 194.847 286.026 191.332C286.289 187.816 287.327 185.297 290.482 184.778C293.638 184.259 296.185 185.851 298.24 184.266C300.295 182.682 305.603 178.862 310.004 180.606C314.405 182.349 312.972 186.142 310.696 188.564C308.419 190.986 307.734 191.837 309.492 195.816C311.249 199.795 309.969 203.511 305.907 204.445C301.845 205.379 299.568 204.895 299.506 209.358C299.444 213.344 298.634 217.074 294.475 218.583C291.184 219.774 287.646 220.124 284.185 219.6C283.021 219.498 281.916 219.038 281.023 218.285C280.179 217.434 280.331 216.486 280.331 215.379V199.525H280.352Z" fill="black"/>
</g>
<path d="M280.355 217.904C280.429 217.905 280.501 217.882 280.561 217.838C280.621 217.794 280.665 217.733 280.687 217.662C288.085 195.691 304.838 186.813 305.004 186.73C305.086 186.687 305.148 186.614 305.177 186.526C305.205 186.438 305.198 186.342 305.156 186.259C305.136 186.218 305.107 186.181 305.072 186.151C305.038 186.121 304.997 186.098 304.953 186.084C304.909 186.07 304.863 186.065 304.817 186.069C304.771 186.073 304.727 186.086 304.686 186.107C304.513 186.197 287.517 195.186 280.023 217.441C280.008 217.484 280.002 217.531 280.005 217.577C280.008 217.623 280.02 217.668 280.04 217.709C280.061 217.75 280.09 217.787 280.125 217.817C280.16 217.847 280.201 217.87 280.244 217.884C280.28 217.898 280.317 217.905 280.355 217.904Z" fill="white"/>
<path d="M290.97 198.748H291.046C295.89 197.648 303.613 198.243 303.689 198.25C303.781 198.257 303.873 198.228 303.944 198.169C304.016 198.109 304.061 198.024 304.069 197.931C304.073 197.885 304.068 197.838 304.053 197.794C304.039 197.75 304.016 197.709 303.986 197.673C303.956 197.638 303.919 197.609 303.877 197.588C303.836 197.567 303.791 197.554 303.744 197.551C303.426 197.551 295.828 196.942 290.894 198.07C290.813 198.093 290.744 198.143 290.697 198.212C290.65 198.282 290.63 198.365 290.639 198.448C290.648 198.531 290.686 198.608 290.747 198.666C290.807 198.723 290.886 198.757 290.97 198.762V198.748Z" fill="white"/>
<path d="M287.033 209.308C289.24 209.308 291.579 209.163 291.731 209.156C291.777 209.154 291.822 209.142 291.864 209.121C291.905 209.101 291.942 209.073 291.973 209.038C292.003 209.003 292.026 208.963 292.04 208.919C292.055 208.875 292.06 208.829 292.056 208.783C292.055 208.736 292.044 208.691 292.024 208.649C292.004 208.607 291.975 208.569 291.94 208.539C291.905 208.508 291.864 208.485 291.82 208.471C291.776 208.457 291.729 208.452 291.683 208.457C291.634 208.457 286.237 208.789 284.126 208.457C284.035 208.445 283.942 208.468 283.867 208.523C283.793 208.577 283.742 208.657 283.725 208.748C283.711 208.84 283.733 208.933 283.788 209.008C283.842 209.083 283.924 209.134 284.015 209.149C285.016 209.272 286.024 209.326 287.033 209.308Z" fill="white"/>
<path d="M293.239 196.169C293.285 196.167 293.33 196.155 293.372 196.134C293.413 196.114 293.45 196.086 293.481 196.051C293.511 196.016 293.534 195.976 293.548 195.932C293.563 195.888 293.568 195.842 293.564 195.795C293.396 193.283 292.877 190.807 292.021 188.44C291.986 188.354 291.919 188.285 291.833 188.247C291.748 188.21 291.652 188.207 291.565 188.239C291.521 188.256 291.482 188.281 291.449 188.313C291.416 188.345 291.389 188.384 291.371 188.426C291.353 188.469 291.344 188.515 291.344 188.561C291.344 188.607 291.353 188.653 291.371 188.696C292.201 190.996 292.714 193.398 292.893 195.837C292.897 195.926 292.935 196.011 292.999 196.073C293.064 196.135 293.15 196.169 293.239 196.169Z" fill="white"/>
<path d="M280.257 220.284C276.773 221.351 273.07 221.487 269.517 220.679C263.358 219.357 261.871 215.593 261.871 215.593C261.871 215.593 266.258 211.032 270.14 210.749C266.265 210.171 262.32 210.256 258.473 210.998C258.473 210.998 254.909 209.683 255.58 203.725C255.58 203.725 258.936 201.282 266.652 202.237C266.652 202.237 262.784 199.51 255.995 198.701C255.463 198.701 256.189 190.95 256.833 187.49C257.476 184.03 258.763 184.57 261.538 184.868C264.313 185.165 273.046 188.051 274.084 190.037C275.122 192.023 274.084 197.068 274.084 197.068C274.084 197.068 276.624 194.992 277.185 192.445C279.133 192.622 280.982 193.387 282.485 194.639C284.928 196.715 284.222 198.023 283.426 200.078C282.641 202.154 281.562 204.107 280.222 205.877C280.222 205.877 282.824 204.936 285.295 198.735C285.295 198.735 287.848 203.483 288.298 206.88C288.748 210.278 285.523 217.509 280.257 220.284Z" fill="#BA68C8"/>
<path d="M280.096 220.609C280.034 220.586 279.98 220.546 279.939 220.493C279.899 220.44 279.874 220.377 279.868 220.311C278.941 208.776 265.882 190.749 260.111 187.13C260.033 187.08 259.977 187.001 259.956 186.91C259.935 186.82 259.951 186.724 260 186.645C260.053 186.57 260.131 186.516 260.221 186.496C260.311 186.475 260.405 186.489 260.485 186.535C266.353 190.216 279.619 208.533 280.553 220.256C280.557 220.301 280.551 220.347 280.537 220.391C280.523 220.434 280.501 220.474 280.471 220.509C280.442 220.544 280.406 220.572 280.365 220.593C280.324 220.614 280.28 220.626 280.235 220.63C280.187 220.635 280.14 220.627 280.096 220.609Z" fill="white"/>
<path d="M72.6603 277.845C72.3795 277.845 72.1102 277.734 71.9117 277.535C71.7131 277.337 71.6016 277.067 71.6016 276.787V208.756C71.6016 208.475 71.7131 208.206 71.9117 208.007C72.1102 207.809 72.3795 207.697 72.6603 207.697C72.9411 207.697 73.2104 207.809 73.409 208.007C73.6075 208.206 73.7191 208.475 73.7191 208.756V276.8C73.7154 277.079 73.6023 277.345 73.4041 277.54C73.206 277.736 72.9387 277.845 72.6603 277.845Z" fill="#455A64"/>
<path d="M114.733 253.087C114.518 253.084 114.309 253.017 114.134 252.893C113.958 252.77 113.825 252.596 113.75 252.395L92.8934 199.595C92.8122 199.339 92.8311 199.062 92.9464 198.82C93.0616 198.578 93.2645 198.388 93.5141 198.29C93.7637 198.191 94.0413 198.191 94.2909 198.29C94.5405 198.388 94.7434 198.578 94.8586 198.82L115.716 251.619C115.769 251.749 115.796 251.888 115.795 252.029C115.794 252.169 115.765 252.308 115.71 252.437C115.654 252.566 115.574 252.683 115.472 252.78C115.371 252.877 115.251 252.953 115.12 253.003C114.998 253.055 114.866 253.083 114.733 253.087Z" fill="#455A64"/>
<path d="M112.226 246.741C112.082 246.741 111.94 246.712 111.807 246.655C111.675 246.598 111.556 246.514 111.458 246.408L72.6576 205.338L33.9056 246.235C33.8125 246.345 33.698 246.434 33.5692 246.498C33.4405 246.561 33.3001 246.598 33.1566 246.606C33.0132 246.614 32.8696 246.592 32.7348 246.543C32.5999 246.493 32.4766 246.417 32.3722 246.318C32.2678 246.219 32.1846 246.1 32.1277 245.968C32.0708 245.836 32.0413 245.694 32.041 245.551C32.0408 245.407 32.0697 245.265 32.1262 245.133C32.1826 245.001 32.2654 244.881 32.3694 244.782L71.8826 203.068C71.9844 202.967 72.1054 202.888 72.2386 202.834C72.3717 202.781 72.5142 202.754 72.6576 202.757C72.8014 202.758 72.9435 202.788 73.0754 202.845C73.2074 202.902 73.3265 202.985 73.4258 203.089L112.994 244.969C113.136 245.119 113.231 245.308 113.267 245.511C113.303 245.715 113.278 245.924 113.197 246.114C113.115 246.304 112.98 246.466 112.807 246.579C112.635 246.693 112.433 246.754 112.226 246.754V246.741Z" fill="#455A64"/>
<path d="M30.5586 253.087C30.4258 253.086 30.2944 253.06 30.1711 253.011C30.04 252.961 29.9203 252.885 29.8191 252.787C29.7178 252.69 29.6371 252.573 29.5816 252.444C29.5262 252.315 29.4971 252.177 29.4961 252.036C29.4951 251.896 29.5223 251.757 29.5759 251.627L50.4328 198.827C50.5356 198.566 50.7381 198.356 50.9957 198.243C51.2533 198.131 51.5449 198.126 51.8064 198.229C52.068 198.331 52.278 198.534 52.3902 198.792C52.5025 199.049 52.5078 199.341 52.405 199.602L31.5412 252.402C31.4658 252.602 31.3315 252.775 31.1561 252.897C30.9807 253.019 30.7724 253.085 30.5586 253.087Z" fill="#455A64"/>
<path d="M113.29 245.115L116.058 252.388C116.065 252.45 116.065 252.513 116.058 252.575C116.065 252.619 116.065 252.663 116.058 252.706C115.985 252.909 115.836 253.075 115.643 253.17C115.383 253.3 115.097 253.367 114.806 253.367C114.515 253.367 114.229 253.3 113.969 253.17C113.824 253.094 113.71 252.973 113.643 252.824V252.727L111.09 245.904L113.29 245.115Z" fill="#BA68C8"/>
<path d="M31.9939 245.115L29.2259 252.388C29.2191 252.45 29.2191 252.513 29.2259 252.575C29.219 252.619 29.219 252.663 29.2259 252.706C29.2995 252.909 29.4482 253.075 29.6411 253.17C29.9011 253.3 30.1877 253.367 30.4784 253.367C30.769 253.367 31.0556 253.3 31.3157 253.17C31.4598 253.094 31.5743 252.973 31.6409 252.824V252.727L34.2013 245.904L31.9939 245.115Z" fill="#BA68C8"/>
<path d="M73.8616 271.52V277.541C73.8519 277.647 73.8141 277.75 73.7521 277.837C73.6901 277.925 73.6062 277.994 73.5087 278.039C73.2397 278.172 72.9437 278.241 72.6437 278.241C72.3437 278.241 72.0477 278.172 71.7787 278.039C71.6812 277.994 71.5973 277.925 71.5353 277.837C71.4733 277.75 71.4355 277.647 71.4258 277.541V271.52C71.8002 271.319 72.2187 271.214 72.6437 271.214C73.0687 271.214 73.4872 271.319 73.8616 271.52Z" fill="#BA68C8"/>
<path d="M116.019 198.84C116.019 197.103 114.496 195.248 111.279 193.165C105.334 189.304 92.048 181.561 83.7301 176.952C83.7258 176.935 83.7171 176.92 83.7049 176.908C83.6927 176.896 83.6776 176.887 83.6609 176.883C77.253 173.001 71.2741 154.496 66.8522 140.428C65.3437 135.639 63.4891 132.927 61.3162 131.654C60.7972 131.349 58.8804 130.27 58.4514 130.034C54.1056 127.432 48.3966 130.56 41.2898 134.449C34.7365 138.034 29.6226 142.622 28.5916 154.794C27.9688 162.212 28.5916 176.377 30.0724 187.11C32.2522 205.04 34.9164 205.102 38.8124 208.071C45.4971 213.24 60.555 220.527 66.9007 222.998C78.4086 227.523 87.8129 220.541 94.8229 217.081C101.252 213.827 107.459 210.151 113.403 206.078C115.154 204.798 116.067 203.511 116.047 202.154C116.012 201.608 116.026 199.4 116.019 198.84Z" fill="#263238"/>
<path d="M94.8021 213.74C101.228 210.491 107.432 206.823 113.375 202.758C117.361 199.865 116.995 196.903 111.299 193.194C107.037 190.426 107.258 190.184 75.1563 172.538C75.1563 172.538 34.2245 196.689 35.9891 201.152C37.7537 205.616 58.915 216.542 66.8938 219.684C78.381 224.21 87.7853 217.2 94.8021 213.74Z" fill="#37474F"/>
<path d="M61.0474 131.481C56.7362 129.218 51.1379 132.29 44.211 136.083C39.7753 138.518 35.997 141.397 33.6995 146.788L30.7793 145.099C33.0698 139.729 36.8481 136.851 41.27 134.422C48.3769 130.533 54.0859 127.405 58.4316 130.007C58.8191 130.256 60.3277 131.1 61.0474 131.481Z" fill="#455A64"/>
<path d="M44.2079 136.117C54.8439 130.291 62.3521 126.153 66.8501 140.429C71.2789 154.497 77.2301 173.001 83.6588 176.883C83.6588 176.883 81.5828 175.125 65.6668 187.159C60.6014 190.986 54.4495 194.128 50.4428 196.536C42.5333 201.248 37.7308 203.138 36.9765 202.508C32.7899 199.048 30.5271 168.634 31.5581 156.462C32.5892 144.29 37.6616 139.702 44.2079 136.117Z" fill="#37474F"/>
<g opacity="0.5">
<path d="M44.2084 136.117C54.8444 130.291 62.3526 126.153 66.8506 140.429C71.2794 154.497 77.2306 173.001 83.6593 176.883C83.6593 176.883 72.6773 176.883 56.7613 185.471C40.2225 194.405 37.6898 203.138 36.9355 202.508C32.7489 199.048 30.486 168.634 31.5171 156.462C32.5482 144.29 37.6621 139.702 44.2084 136.117Z" fill="#455A64"/>
</g>
<path d="M247.917 102.001C250.733 101.371 253.217 100.783 255.127 100.292C265.286 97.6969 268.345 94.3338 268.656 89.8427C269.161 82.6736 266.476 82.6182 261.847 85.8222C259.922 87.1885 257.813 88.2764 255.584 89.0538C256.359 88.1689 257.004 87.1787 257.501 86.1128C258.193 84.3274 257.252 83.1856 256.636 82.8812C256.152 82.6459 255.66 83.8846 253.986 85.2547C251.827 87.0055 250.083 87.3307 248.297 89.7735C247.614 90.6726 246.633 91.2983 245.529 91.5381C244.519 91.7664 227.932 96.306 220.161 97.6415C215.6 91.8357 211.365 85.6422 206.542 79.4765C199.117 69.9684 195.588 68.6398 191.422 69.3941L187.803 81.3242C187.803 81.3242 212.258 110.125 212.549 110.485C213.379 111.607 214.542 112.439 215.873 112.863C217.203 113.287 218.633 113.28 219.96 112.845C230.492 109.752 241.64 104.901 247.917 102.001Z" fill="#FFA8A7"/>
<path d="M190.453 66.9922C199.131 67.3728 201.705 72.2376 206.162 77.6352C210.618 83.0328 220.32 96.8797 220.32 96.8797L244.007 91.9249C244.007 91.9249 243.031 98.7273 246.083 102.824C246.083 102.824 233.516 109.163 225.904 112.076C216.285 115.771 215.656 114.927 213.919 113.335C212.182 111.744 191.083 87.8629 191.083 87.8629L190.453 66.9922Z" fill="#37474F"/>
<path d="M92.534 83.0404C94.783 76.2172 97.2672 75.9335 100.333 80.653C101.598 82.6469 103.135 84.4544 104.9 86.0229C104.509 84.9075 104.276 83.7428 104.208 82.5629C104.208 80.646 105.55 79.9402 106.236 79.8987C106.775 79.8987 106.755 81.1927 107.793 83.0957C109.121 85.5385 110.609 86.5073 111.343 89.4344C111.619 90.5347 112.339 92.7214 113.259 93.3719C117.965 96.6797 126.518 100.756 135.023 104.043C138.04 97.6692 142.019 89.7182 145.05 84.1476C150.821 73.56 154.641 72.3836 158.841 72.8818L163.118 84.5835C163.118 84.5835 140.282 114.706 140.047 115.08C138.296 117.543 134.711 119.232 131.923 118.09C123.958 114.824 118.041 109.094 111.28 104.485C107.267 101.759 103.474 99.6414 101.052 97.8284C92.6724 91.5866 91.1223 87.3169 92.534 83.0404Z" fill="#FFA8A7"/>
<path d="M153.355 214.722C153.542 205.726 156.247 199.048 156.462 196.55C156.462 196.55 155.77 143.037 155.77 134.353L201.4 132.491C201.4 132.491 200.764 186.142 200.764 193.581C200.764 201.02 199.65 232.637 198.473 247.19L198.342 251.979L188.155 255.148C188.155 255.148 188.349 253.764 188.155 246.955C187.962 240.146 183.388 216.631 182.958 210.66C182.412 202.93 183.65 199.809 183.491 194.647C183.332 189.484 180.322 155.701 180.322 155.701C180.322 155.701 174.606 188.917 173.181 200.162C171.554 213.075 166.323 246.92 166.309 254.788C166.309 256.172 166.309 257.833 166.309 259.598C166.309 263.861 166.191 264.982 166.876 266.628C168.067 269.507 157.88 271.32 157.396 269.272L156.296 260.816V260.573V255.21C156.31 247.19 153.078 227.773 153.355 214.722Z" fill="#FFA8A7"/>
<path d="M218.29 265.333C218.568 266.16 218.518 267.061 218.152 267.852C217.799 268.592 213.951 270.765 208.755 270.412C204.904 270.141 201.197 268.846 198.015 266.662C196.036 265.347 193.973 265.105 191.399 264.953C188.825 264.8 185.448 263.527 184.887 262.323C184.327 261.119 184.971 259.05 184.971 259.05L218.29 265.333Z" fill="#37474F"/>
<path d="M197.33 249.121L197.745 249.031C197.971 248.97 198.207 248.958 198.437 248.996C198.688 249.076 198.909 249.228 199.074 249.432C199.585 250.078 200.03 250.773 200.402 251.508C201.489 253.28 203.779 254.754 206.271 256.096C207.973 257.01 209.634 257.716 211.384 258.504C213.135 259.293 215.536 259.798 216.92 260.74C218.962 262.124 219.225 265.584 216.92 266.926C214.921 268.102 209.647 269.376 204.118 267.812C201.108 266.961 197.766 263.743 193.815 263.431C191.296 263.238 186.542 262.532 184.922 260.622C184.327 259.771 185.123 257.086 185.78 254.775C186.472 252.242 187.351 248.284 188.189 248.505C188.223 249.003 188.126 249.128 188.452 249.467C188.777 249.806 189.178 249.986 189.517 250.277C190.098 250.852 190.567 251.53 190.901 252.276C191.032 252.609 191.278 252.884 191.593 253.051C192.022 253.211 192.334 252.941 192.707 252.775C193.178 252.559 193.711 252.519 194.209 252.664C194.16 252.164 194.072 251.669 193.946 251.183C193.888 251.031 193.874 250.866 193.904 250.706C193.972 250.552 194.085 250.424 194.23 250.339C195.166 249.72 196.223 249.305 197.33 249.121Z" fill="#455A64"/>
<path d="M176.783 280.053C177.087 280.343 176.997 282.322 176.658 282.821C176.319 283.319 174.202 285.173 170.43 285.45C166.825 285.706 163.6 285.222 161.483 283.872C159.365 282.523 158.334 281.042 158.14 278.987C157.947 276.932 158.14 274.946 157.186 273.368C156.279 271.908 154.84 270.261 154.528 269.465C153.836 267.742 154.528 265.278 154.528 265.278L176.783 280.053Z" fill="#37474F"/>
<path d="M166.902 262.101C166.929 262.88 167.069 263.652 167.317 264.391C167.874 265.982 168.617 267.501 169.532 268.917C169.981 269.658 170.483 270.366 171.033 271.034C172.127 272.335 173.483 273.401 174.639 274.647C175.871 275.824 176.658 277.391 176.867 279.082C177.019 281.913 173.947 282.875 171.58 283.29C169.021 283.739 166.394 283.609 163.892 282.909C162.579 282.565 161.393 281.85 160.475 280.85C159.557 279.85 158.946 278.607 158.716 277.269C158.584 276.48 158.633 275.678 158.543 274.889C158.227 273.082 157.471 271.38 156.342 269.934C155.683 269.098 155.117 268.194 154.654 267.235C153.913 265.485 154.502 263.512 154.979 261.769C155.387 260.26 155.844 258.558 156.363 258.696C156.363 259.478 156.363 259.561 156.924 260.08C157.616 260.772 157.657 261.762 158.411 262.35C158.167 261.698 157.991 261.024 157.885 260.336C157.835 260.06 157.892 259.776 158.045 259.54C158.291 259.317 158.588 259.158 158.91 259.077C160.032 258.694 161.192 258.432 162.37 258.295C163.481 258.111 164.615 258.111 165.726 258.295C166.055 258.357 166.353 258.53 166.57 258.786C166.766 259.069 166.869 259.404 166.868 259.748C166.916 260.191 166.881 261.353 166.902 262.101Z" fill="#455A64"/>
<path d="M169.912 269.507C168.853 268.718 166.494 268.711 165.2 268.85C163.888 268.964 162.627 269.407 161.532 270.137C161.371 270.253 161.175 270.309 160.977 270.293C160.779 270.278 160.593 270.193 160.452 270.054C160.369 269.974 160.305 269.878 160.263 269.771C160.221 269.664 160.203 269.549 160.211 269.434C160.218 269.319 160.25 269.208 160.305 269.107C160.36 269.006 160.436 268.918 160.529 268.85C161.739 267.956 163.179 267.426 164.681 267.32C167.864 267.092 168.791 267.639 168.791 267.639C168.791 267.639 170.23 268.573 169.912 269.507Z" fill="#F5F5F5"/>
<path d="M172.309 272.406C170.981 271.624 168.386 271.714 167.092 271.88C165.801 272.02 164.569 272.498 163.521 273.264C163.36 273.381 163.163 273.436 162.964 273.419C162.766 273.403 162.581 273.316 162.441 273.174C162.359 273.095 162.295 272.998 162.254 272.892C162.212 272.785 162.195 272.67 162.203 272.556C162.211 272.442 162.244 272.331 162.299 272.231C162.355 272.131 162.432 272.044 162.524 271.977C163.749 271.041 165.212 270.468 166.746 270.323C169.922 270.095 170.752 270.745 170.752 270.745C171.119 270.888 171.45 271.111 171.719 271.399C171.989 271.686 172.19 272.03 172.309 272.406Z" fill="#F5F5F5"/>
<path d="M163.397 264.274C164.737 264.041 166.114 264.155 167.397 264.606C167.958 264.924 168.324 265.81 167.965 266.032C166.842 265.58 165.624 265.413 164.422 265.547C163.223 265.66 162.052 265.978 160.962 266.488C160.692 266.613 160.373 266.779 160.09 266.938C160 266.987 159.902 267.018 159.8 267.028C159.698 267.038 159.596 267.027 159.498 266.997C159.401 266.967 159.31 266.917 159.232 266.851C159.155 266.785 159.091 266.704 159.045 266.613C158.965 266.454 158.949 266.271 159 266.101C159.052 265.931 159.167 265.787 159.322 265.699C160.562 264.937 161.952 264.451 163.397 264.274Z" fill="#F5F5F5"/>
<path d="M203.918 254.74C203.737 254.395 203.473 254.1 203.149 253.884C202.825 253.667 202.452 253.536 202.063 253.501C200.922 253.287 198.901 254.131 197.642 255.162C197.523 255.259 197.43 255.384 197.37 255.526C197.311 255.667 197.287 255.821 197.301 255.974C197.314 256.127 197.365 256.274 197.449 256.403C197.532 256.531 197.646 256.638 197.78 256.712C197.949 256.805 198.143 256.843 198.335 256.822C198.527 256.801 198.707 256.722 198.853 256.595C200.234 255.338 202.052 254.672 203.918 254.74Z" fill="#F5F5F5"/>
<path d="M207.463 256.731C207.216 256.379 206.887 256.092 206.505 255.894C206.123 255.697 205.699 255.594 205.269 255.596C205.269 255.596 202.28 255.686 200.425 257.409C200.312 257.503 200.222 257.623 200.165 257.758C200.108 257.894 200.085 258.042 200.097 258.189C200.109 258.336 200.157 258.477 200.236 258.602C200.314 258.726 200.422 258.83 200.55 258.903C200.712 258.995 200.899 259.033 201.084 259.011C201.269 258.99 201.443 258.911 201.581 258.786C202.344 258.024 203.269 257.443 204.287 257.087C205.306 256.731 206.391 256.61 207.463 256.731Z" fill="#F5F5F5"/>
<path d="M211.379 258.518C211.096 258.192 210.744 257.931 210.35 257.754C209.956 257.577 209.528 257.488 209.096 257.493C207.398 257.597 205.777 258.237 204.466 259.32C204.353 259.414 204.263 259.534 204.206 259.67C204.149 259.806 204.126 259.953 204.138 260.1C204.15 260.247 204.198 260.389 204.277 260.513C204.355 260.638 204.463 260.741 204.591 260.815C204.753 260.905 204.94 260.942 205.125 260.921C205.31 260.9 205.484 260.822 205.622 260.697C206.344 259.909 207.241 259.301 208.241 258.923C209.241 258.544 210.316 258.405 211.379 258.518Z" fill="#F5F5F5"/>
<path d="M201.428 132.491C201.428 132.491 202.037 170.295 202.12 176.938C202.203 183.582 202.12 196.314 202.12 202.805C202.12 202.805 200.439 205.643 190.848 205.636C181.257 205.629 179.873 202.978 179.873 202.978L178.454 172.42L175.769 204.141C173.828 205.461 171.638 206.37 169.333 206.812C167.027 207.253 164.656 207.218 162.365 206.708C154.469 205.006 153.307 202.653 153.307 202.653L154.864 132.616L201.428 132.491Z" fill="#37474F"/>
<path d="M178.438 172.418L179.821 159.588C179.821 159.588 186.402 157.983 190.804 154.668C189.386 156.389 187.699 157.868 185.807 159.048C183.136 160.55 181.849 161.166 181.849 161.166L179.925 173.58L179.586 197.8L178.438 172.418Z" fill="#263238"/>
<path d="M154.316 139.043C160.579 143.604 188.972 148.662 202.147 139.043C202.147 139.043 201.843 102.243 200.805 82.7629C200.757 81.8772 200.701 81.0191 200.611 80.1887C200.611 79.9119 200.542 79.6351 200.514 79.3583C200.362 78.1907 200.131 77.0347 199.822 75.8983C199.774 75.7115 199.712 75.5246 199.656 75.3378C199.525 74.9157 199.393 74.5074 199.22 74.0991C199.137 73.8846 199.047 73.6701 198.95 73.4625C198.854 73.2549 198.77 73.068 198.66 72.8812C198.651 72.8437 198.634 72.8083 198.611 72.7774C198.514 72.5905 198.404 72.4037 198.3 72.2238C198.196 72.0439 198.065 71.8293 197.926 71.6356C197.788 71.4418 197.67 71.2688 197.539 71.1027C197.407 70.9367 197.234 70.7291 197.068 70.5491C196.918 70.3747 196.759 70.2084 196.591 70.0509L196.245 69.7257L195.899 69.4419C195.753 69.3105 195.587 69.1928 195.428 69.0752C194.901 68.7054 194.345 68.3768 193.767 68.0926C193.608 68.0164 193.442 67.9334 193.276 67.8711C193.236 67.8554 193.196 67.8369 193.158 67.8157L192.563 67.5943C192.23 67.4637 191.891 67.3505 191.546 67.2552C191.195 67.1584 190.829 67.0684 190.446 66.9854C190.017 66.9854 189.546 66.9854 189.062 66.9854H188.024L186.903 67.0269C181.976 67.2414 174.903 68.0372 169.229 68.7638L168.122 68.916L167.146 69.0337C163.25 69.5458 160.364 69.9679 159.922 70.0371H159.852C158.579 70.3623 157.396 70.6668 156.441 70.9505C153.839 71.7186 155.749 71.0612 155.202 73.5801C153.521 80.9707 155.479 107.855 155.479 107.855L154.316 139.043Z" fill="#455A64"/>
<path d="M165.643 46.7734C165.643 46.7734 167.67 56.2884 168.48 57.8454C169.023 58.8082 169.915 59.5263 170.971 59.8522L170.826 53.1606L165.643 46.7734Z" fill="#263238"/>
<path d="M168.154 33.1477C167.445 33.0677 166.727 33.1508 166.056 33.3907C165.384 33.6306 164.776 34.0208 164.278 34.5317C162.618 36.2202 163.566 41.5209 165.642 46.7731L169.455 47.216L168.154 33.1477Z" fill="#263238"/>
<path d="M170.598 47.2157C169.837 47.6725 168.744 46.2054 167.83 45.2159C166.917 44.2263 163.81 42.8838 162.294 46.1155C160.779 49.3471 163.678 53.769 166.073 54.5302C170.225 55.845 170.875 53.1462 170.875 53.1462L171.111 68.5086C175.484 76.432 190.286 72.3769 184.736 67.1246V63.2286C186.835 63.3777 188.941 63.3777 191.04 63.2286C194.113 62.7511 195.372 60.6267 196.306 57.2982C197.801 51.9559 198.382 47.6448 197.102 37.1402C195.718 25.6323 182.321 25.5146 175.09 30.0611C167.858 34.6075 170.598 47.2157 170.598 47.2157Z" fill="#FFA8A7"/>
<path d="M168.849 26.8565C171.385 25.7735 174.033 24.9752 176.745 24.4761C182.585 23.2097 188.509 22.0402 193.865 19.3483C194.482 18.9479 195.204 18.7385 195.941 18.7463C197.325 18.9331 197.961 20.6355 198.017 22.0471C198.065 23.363 197.892 24.6776 197.505 25.9362C197.929 25.5293 198.497 25.3062 199.085 25.3152C199.673 25.3243 200.234 25.5648 200.646 25.9846C201.038 26.426 201.323 26.9508 201.482 27.5192C201.64 28.0875 201.667 28.6845 201.56 29.2647C201.214 31.8805 199.214 34.0603 196.84 35.2228C194.467 36.3854 191.782 36.6691 189.145 36.7452C185.461 36.8557 181.776 36.5797 178.149 35.9217C177.279 35.703 176.378 35.6375 175.485 35.728C175.039 35.7778 174.617 35.9522 174.265 36.2313C173.914 36.5103 173.648 36.8827 173.499 37.3057C173.112 38.7589 172.703 48.6476 170.676 48.6891C170.295 48.6891 168.856 46.2049 167.908 45.3191C166.731 44.1981 165.541 35.728 165.333 34.1641C165.308 34.0423 165.253 33.9284 165.174 33.8319C163.846 31.9704 165.403 28.8357 167.043 27.8115C167.626 27.4584 168.229 27.1396 168.849 26.8565Z" fill="#263238"/>
<path d="M165.899 33.9638C165.662 34.2423 165.372 34.4714 165.046 34.638C164.721 34.8045 164.365 34.9053 164.001 34.9346C163.636 34.9638 163.269 34.9209 162.921 34.8084C162.573 34.6958 162.25 34.5158 161.972 34.2787C161.693 34.0415 161.464 33.7518 161.298 33.426C161.131 33.1003 161.03 32.745 161.001 32.3803C160.972 32.0157 161.015 31.6488 161.127 31.3007C161.24 30.9526 161.42 30.6301 161.657 30.3516L165.899 33.9638Z" fill="#263238"/>
<path d="M184.723 63.2421C184.723 63.2421 177.872 62.5501 175.471 61.3045C174.06 60.5705 172.905 59.4271 172.156 58.0244C172.519 59.4267 173.159 60.7421 174.038 61.8927C175.796 64.1348 184.723 65.7887 184.723 65.7887V63.2421Z" fill="#F28F8F"/>
<path d="M183.074 45.4998C183.064 45.7713 182.975 46.034 182.817 46.2551C182.66 46.4762 182.44 46.6461 182.187 46.7434C181.933 46.8408 181.657 46.8614 181.391 46.8026C181.126 46.7439 180.884 46.6084 180.695 46.413C180.507 46.2177 180.379 45.9711 180.33 45.7041C180.28 45.437 180.31 45.1612 180.416 44.9112C180.522 44.6611 180.7 44.4477 180.926 44.2977C181.153 44.1476 181.418 44.0675 181.69 44.0674C181.876 44.0673 182.06 44.1046 182.231 44.1772C182.402 44.2497 182.557 44.356 182.686 44.4897C182.815 44.6234 182.916 44.7818 182.983 44.9553C183.049 45.1288 183.08 45.314 183.074 45.4998Z" fill="#263238"/>
<path d="M181.621 40.3168L178.68 41.936C178.471 41.5324 178.426 41.0632 178.555 40.627C178.684 40.1908 178.977 39.8216 179.372 39.5971C179.566 39.4916 179.779 39.4265 179.999 39.4057C180.219 39.3849 180.441 39.4089 180.651 39.4761C180.861 39.5434 181.055 39.6526 181.222 39.797C181.389 39.9415 181.525 40.1183 181.621 40.3168Z" fill="#263238"/>
<path d="M184.107 54.9932L187.242 56.1696C187.174 56.38 187.064 56.5745 186.918 56.7415C186.773 56.9084 186.596 57.0444 186.397 57.1413C186.198 57.2381 185.981 57.2939 185.76 57.3053C185.54 57.3167 185.318 57.2835 185.111 57.2076C184.689 57.0403 184.349 56.7159 184.162 56.3029C183.975 55.8899 183.955 55.4204 184.107 54.9932Z" fill="#F28F8F"/>
<path d="M195.328 41.4572L192.65 39.3812C192.775 39.2 192.936 39.0461 193.123 38.9291C193.309 38.8121 193.518 38.7344 193.735 38.7007C193.953 38.667 194.175 38.6781 194.389 38.7332C194.602 38.7884 194.801 38.8864 194.976 39.0214C195.337 39.3035 195.576 39.7145 195.641 40.1684C195.707 40.6223 195.595 41.084 195.328 41.4572Z" fill="#263238"/>
<path d="M194.507 45.1121C194.498 45.3836 194.409 45.6463 194.251 45.8674C194.093 46.0885 193.874 46.2584 193.62 46.3557C193.367 46.4531 193.09 46.4737 192.825 46.4149C192.56 46.3562 192.318 46.2207 192.129 46.0253C191.94 45.83 191.813 45.5834 191.763 45.3164C191.714 45.0493 191.744 44.7736 191.85 44.5235C191.956 44.2734 192.133 44.06 192.36 43.91C192.586 43.7599 192.852 43.6799 193.123 43.6797C193.309 43.6796 193.493 43.7169 193.664 43.7895C193.836 43.862 193.99 43.9683 194.12 44.102C194.249 44.2357 194.35 44.3941 194.416 44.5676C194.483 44.7412 194.514 44.9263 194.507 45.1121Z" fill="#263238"/>
<path d="M188.637 44.1289L189.093 52.3914L193.405 50.9174L188.637 44.1289Z" fill="#F28F8F"/>
<path d="M160.37 70.0312C150.232 70.1904 147.602 76.1624 144.613 82.4872C141.624 88.8121 134.039 103.109 134.039 103.109L114.954 94.4796C113.859 97.8854 111.584 100.788 108.539 102.666C108.539 102.666 117.535 110.23 125.299 115.772C131.866 120.464 135.679 122.9 138.205 121.218C140.073 119.973 158.702 95.6145 158.702 95.6145C163.449 88.2101 164.46 75.6365 160.37 70.0312Z" fill="#37474F"/>
<path d="M192.654 48.8485L191.568 48.2949L190.502 46.7725C190.674 46.6996 190.861 46.6684 191.047 46.6817C191.234 46.6949 191.414 46.7521 191.575 46.8486C192.059 47.1946 192.654 48.8485 192.654 48.8485Z" fill="#BA68C8"/>
<path opacity="0.65" d="M192.654 48.8485L191.568 48.2949L190.502 46.7725C190.674 46.6996 190.861 46.6684 191.047 46.6817C191.234 46.6949 191.414 46.7521 191.575 46.8486C192.059 47.1946 192.654 48.8485 192.654 48.8485Z" fill="black"/>
<path d="M202.757 44.0946C202.689 45.224 202.254 46.3003 201.519 47.1598C200.783 48.0192 199.786 48.6147 198.681 48.8556L196.972 49.1462C196.223 49.284 195.463 49.3443 194.702 49.3261H194.473C194.349 49.3261 194.224 49.3261 194.107 49.3261C193.895 49.3056 193.684 49.2709 193.477 49.2223C193.368 49.2015 193.262 49.1714 193.159 49.1324C193.063 49.1051 192.97 49.068 192.882 49.0216C192.841 49.0078 192.804 48.9867 192.771 48.9594C192.724 48.9367 192.68 48.9089 192.64 48.8763C192.57 48.8179 192.512 48.7476 192.467 48.6687L191.878 47.4646C191.743 47.2246 191.539 47.0305 191.292 46.9072C191.046 46.7839 190.768 46.737 190.494 46.7726L189.277 46.9872C188.975 47.0661 188.695 47.2106 188.455 47.4103C188.216 47.6101 188.024 47.8602 187.893 48.1428C187.893 48.1428 187.636 48.7794 187.311 49.5268C186.986 50.2742 184.965 51.2499 182.806 51.6028L181.097 51.9073C180.751 51.9585 180.399 51.9585 180.052 51.9073C179.857 51.8941 179.665 51.8593 179.478 51.8035L179.215 51.7274L179.049 51.6582C178.899 51.6007 178.755 51.5288 178.62 51.4436C178.156 51.2568 170.703 48.2258 169.679 45.7831C168.046 41.8525 174.751 37.8043 177.167 37.0362C177.443 36.9238 177.731 36.8403 178.025 36.7871L195.629 33.77C196.506 33.5952 197.416 33.7663 198.169 34.2474C198.619 34.5312 200.279 35.5138 200.971 35.929C201.033 35.9569 201.091 35.9917 201.144 36.0328C201.241 36.0882 201.338 36.1574 201.435 36.2196C201.468 36.2415 201.498 36.2671 201.525 36.2958C201.622 36.3719 201.712 36.4549 201.802 36.538C201.91 36.6474 202.01 36.7655 202.099 36.8909C202.168 36.9772 202.228 37.0699 202.279 37.1677C202.365 37.3041 202.439 37.4476 202.501 37.5967C202.556 37.7282 202.598 37.8597 202.639 37.9912C202.676 38.1155 202.701 38.2429 202.715 38.3718C202.722 38.4014 202.722 38.4321 202.715 38.4617C202.726 38.6069 202.726 38.7526 202.715 38.8977C202.794 40.6461 202.807 42.3784 202.757 44.0946Z" fill="#BA68C8"/>
<g opacity="0.2">
<path d="M202.757 44.0956C202.689 45.225 202.254 46.3013 201.519 47.1608C200.783 48.0202 199.786 48.6157 198.681 48.8565L196.972 49.1472C196.223 49.285 195.463 49.3453 194.702 49.3271H194.473C194.349 49.3271 194.224 49.3271 194.107 49.3271C193.895 49.3066 193.684 49.2719 193.477 49.2233C193.368 49.2025 193.262 49.1724 193.159 49.1333C193.063 49.1061 192.97 49.069 192.882 49.0226C192.841 49.0087 192.804 48.9876 192.771 48.9603C192.724 48.9377 192.68 48.9098 192.64 48.8773C192.57 48.8189 192.512 48.7486 192.467 48.6697L191.878 47.4656C191.743 47.2255 191.539 47.0314 191.292 46.9081C191.046 46.7848 190.768 46.738 190.494 46.7736L189.277 46.9881C188.975 47.067 188.695 47.2115 188.455 47.4113C188.216 47.6111 188.024 47.8612 187.893 48.1438C187.893 48.1438 187.636 48.7804 187.311 49.5278C186.986 50.2751 184.965 51.2509 182.806 51.6038L181.097 51.9083C180.751 51.9595 180.399 51.9595 180.052 51.9083C179.857 51.8951 179.665 51.8603 179.478 51.8045L179.215 51.7283L179.049 51.6591C178.899 51.6016 178.755 51.5298 178.62 51.4446C178.156 51.2578 170.703 48.2268 169.679 45.7841C168.046 41.8535 174.751 37.8053 177.167 37.0372C177.443 36.9247 177.731 36.8413 178.025 36.7881L195.629 33.7709C196.506 33.5961 197.416 33.7672 198.169 34.2484C198.619 34.5321 200.279 35.5148 200.971 35.93C201.033 35.9579 201.091 35.9927 201.144 36.0338C201.241 36.0891 201.338 36.1583 201.435 36.2206C201.468 36.2425 201.498 36.268 201.525 36.2967C201.622 36.3729 201.712 36.4559 201.802 36.5389C201.91 36.6484 202.01 36.7664 202.099 36.8919C202.168 36.9781 202.228 37.0708 202.279 37.1687C202.365 37.305 202.439 37.4486 202.501 37.5977C202.556 37.7292 202.598 37.8607 202.639 37.9921C202.676 38.1165 202.701 38.2439 202.715 38.3727C202.722 38.4024 202.722 38.4331 202.715 38.4627C202.726 38.6078 202.726 38.7535 202.715 38.8987C202.794 40.6471 202.807 42.3794 202.757 44.0956Z" fill="black"/>
</g>
<path d="M200.971 35.929C200.271 35.5681 199.469 35.4512 198.695 35.5968L181.09 38.7039C180.034 38.9331 179.076 39.4853 178.348 40.2839C177.62 41.0824 177.159 42.0878 177.028 43.1604L171.977 40.2471C173.501 38.9038 175.254 37.8444 177.153 37.1192C177.429 37.0068 177.717 36.9233 178.011 36.8701L195.629 33.77C196.506 33.5952 197.416 33.7663 198.169 34.2474C198.605 34.5312 200.279 35.5138 200.971 35.929Z" fill="#BA68C8"/>
<path opacity="0.35" d="M200.971 35.929C200.271 35.5681 199.469 35.4512 198.695 35.5968L181.09 38.7039C180.034 38.9331 179.076 39.4853 178.348 40.2839C177.62 41.0824 177.159 42.0878 177.028 43.1604L171.977 40.2471C173.501 38.9038 175.254 37.8444 177.153 37.1192C177.429 37.0068 177.717 36.9233 178.011 36.8701L195.629 33.77C196.506 33.5952 197.416 33.7663 198.169 34.2474C198.605 34.5312 200.279 35.5138 200.971 35.929Z" fill="white"/>
<path d="M202.757 38.9119C202.799 40.6372 202.799 42.3672 202.757 44.1019C202.69 45.2299 202.255 46.3048 201.519 47.1621C200.783 48.0195 199.786 48.612 198.681 48.849L196.972 49.1535C194.806 49.5341 192.82 49.2988 192.467 48.6414L191.879 47.4373C191.743 47.1972 191.539 47.0031 191.293 46.8798C191.046 46.7565 190.768 46.7097 190.495 46.7453L189.27 46.9667C188.967 47.0429 188.686 47.1864 188.446 47.3865C188.206 47.5865 188.015 47.8381 187.886 48.1224L187.298 49.5064C186.973 50.2814 184.959 51.2225 182.8 51.5824L181.091 51.8869C180.597 51.9923 180.087 51.9859 179.596 51.8681C179.106 51.7503 178.648 51.5241 178.256 51.2062C177.865 50.8883 177.549 50.4867 177.333 50.0308C177.117 49.575 177.006 49.0766 177.008 48.5722C176.966 46.8491 176.966 45.1122 177.008 43.3891C177.076 42.2596 177.512 41.1836 178.249 40.3252C178.986 39.4668 179.984 38.8732 181.091 38.6351L198.695 35.5349C199.192 35.4304 199.707 35.4397 200.2 35.5621C200.693 35.6844 201.152 35.9167 201.542 36.2415C201.933 36.5662 202.245 36.9751 202.456 37.4375C202.666 37.9 202.769 38.404 202.757 38.9119Z" fill="#BA68C8"/>
<path opacity="0.5" d="M202.756 44.093C202.688 45.2223 202.254 46.2987 201.518 47.1581C200.782 48.0176 199.786 48.6131 198.68 48.8539L196.971 49.1446C196.222 49.2824 195.462 49.3427 194.701 49.3245H194.473C194.348 49.3245 194.224 49.3245 194.106 49.3245C193.894 49.3039 193.684 49.2693 193.476 49.2207C193.368 49.1999 193.261 49.1698 193.158 49.1307C193.062 49.1034 192.969 49.0663 192.881 49.02C192.841 49.0061 192.803 48.985 192.77 48.9577C192.724 48.9351 192.679 48.9072 192.639 48.8747C192.569 48.8162 192.511 48.746 192.466 48.6671L191.878 47.463C191.742 47.2229 191.538 47.0288 191.291 46.9055C191.045 46.7822 190.767 46.7354 190.494 46.771L189.276 46.9855C188.974 47.0644 188.694 47.2089 188.455 47.4087C188.215 47.6084 188.023 47.8586 187.892 48.1412C187.892 48.1412 187.636 48.7778 187.311 49.5252C186.985 50.2725 184.965 51.2482 182.806 51.6012L181.096 51.9056C180.75 51.9569 180.398 51.9569 180.051 51.9056C179.857 51.8925 179.664 51.8576 179.477 51.8018L179.214 51.7257L179.048 51.6565C178.898 51.599 178.755 51.5272 178.619 51.442C178.128 51.1393 177.722 50.7158 177.441 50.2118C177.16 49.7079 177.013 49.1403 177.014 48.5633C176.972 46.8333 176.972 45.1033 177.014 43.3733C177.082 42.2438 177.518 41.1678 178.255 40.3094C178.992 39.451 179.99 38.8574 181.096 38.6192L198.701 35.5122C199.476 35.3665 200.277 35.4834 200.978 35.8443C201.039 35.8722 201.097 35.907 201.151 35.9481C201.247 36.0035 201.344 36.0727 201.441 36.135C201.474 36.1568 201.504 36.1824 201.531 36.2111C201.628 36.2872 201.718 36.3702 201.808 36.4533C201.916 36.5627 202.016 36.6808 202.105 36.8062C202.174 36.8925 202.234 36.9852 202.285 37.083C202.371 37.2194 202.446 37.3629 202.507 37.512C202.562 37.6435 202.604 37.775 202.645 37.9065C202.682 38.0308 202.707 38.1582 202.721 38.2871C202.728 38.3167 202.728 38.3474 202.721 38.377C202.732 38.5222 202.732 38.6679 202.721 38.813C202.795 40.6168 202.807 42.3768 202.756 44.093Z" fill="white"/>
<g opacity="0.7">
<path d="M202.752 38.9114C202.763 38.7662 202.763 38.6205 202.752 38.4754C202.759 38.4457 202.759 38.4151 202.752 38.3854C202.738 38.2566 202.713 38.1292 202.676 38.0048C202.635 37.8734 202.593 37.7419 202.538 37.6104C202.477 37.4613 202.402 37.3177 202.316 37.1814C202.265 37.0835 202.205 36.9908 202.137 36.9046C202.047 36.7791 201.947 36.6611 201.839 36.5516C201.749 36.4686 201.659 36.3856 201.562 36.3094C201.538 36.2827 201.51 36.2595 201.479 36.2402L190.898 46.7656C191.106 46.794 191.305 46.8716 191.477 46.9919C191.649 47.1123 191.79 47.2719 191.888 47.4576L192.476 48.6616C192.521 48.7405 192.58 48.8108 192.649 48.8692C192.69 48.9018 192.734 48.9296 192.781 48.9523C192.814 48.9796 192.851 49.0007 192.891 49.0146C192.98 49.0609 193.072 49.098 193.168 49.1253C193.272 49.1643 193.378 49.1944 193.487 49.2152C193.694 49.2638 193.904 49.2985 194.116 49.319C194.234 49.319 194.358 49.319 194.483 49.319H194.711C195.174 49.3291 195.636 49.3083 196.095 49.2568L202.808 42.5513C202.801 41.3403 202.794 40.1362 202.752 38.9114Z" fill="#BA68C8"/>
<path d="M194.411 36.3566L179.027 51.7329L179.193 51.8021L179.456 51.8782C179.643 51.934 179.836 51.9688 180.031 51.982C180.377 52.0332 180.729 52.0332 181.076 51.982L182.19 51.7813L198.279 35.6992L194.411 36.3566Z" fill="#BA68C8"/>
<path d="M183.46 38.2794L176.99 44.7565C176.99 46.0506 176.99 47.3446 176.99 48.6456C176.998 49.24 177.155 49.823 177.447 50.341L190.803 36.9854L183.46 38.2794Z" fill="#BA68C8"/>
</g>
<path d="M172.931 45.0778C172.942 45.1713 172.932 45.2662 172.901 45.3552C172.871 45.4442 172.82 45.5251 172.753 45.5917C172.687 45.6584 172.606 45.709 172.517 45.7398C172.428 45.7707 172.333 45.7809 172.239 45.7698C172.039 45.721 171.861 45.6053 171.735 45.4417C171.609 45.2781 171.543 45.0765 171.547 44.8702C171.536 44.7766 171.546 44.6818 171.577 44.5928C171.608 44.5037 171.659 44.4229 171.725 44.3562C171.792 44.2896 171.873 44.239 171.962 44.2081C172.051 44.1773 172.146 44.1671 172.239 44.1782C172.439 44.2281 172.616 44.3442 172.742 44.5075C172.868 44.6708 172.934 44.8718 172.931 45.0778Z" fill="#263238"/>
<g opacity="0.5">
<path d="M199.366 35.9086C199.866 35.9082 200.359 36.0268 200.805 36.2546C200.856 36.2801 200.905 36.3102 200.95 36.3446C201.041 36.3974 201.129 36.4552 201.213 36.5176H201.248H201.282L201.525 36.7321C201.624 36.8327 201.714 36.9415 201.794 37.0573C201.851 37.1257 201.899 37.1999 201.94 37.2788C202.01 37.3967 202.073 37.5192 202.127 37.6455C202.167 37.7448 202.202 37.8465 202.23 37.95V38.0054C202.263 38.1064 202.284 38.2109 202.293 38.3168V38.4206C202.302 38.5496 202.302 38.6791 202.293 38.8081C202.341 40.5243 202.341 42.2681 202.293 43.9773C202.251 45.0278 201.868 46.036 201.203 46.8499C200.537 47.6638 199.625 48.2392 198.604 48.4892L196.895 48.7867C196.26 48.8968 195.616 48.9546 194.971 48.9597H194.674H194.459H194.127C193.927 48.9374 193.728 48.9028 193.532 48.8559C193.434 48.8362 193.337 48.8108 193.241 48.7798C193.174 48.7576 193.11 48.7298 193.048 48.6968H192.999L192.93 48.6553C192.898 48.6268 192.87 48.5942 192.847 48.5584L192.259 47.3543C192.12 47.0598 191.901 46.8106 191.627 46.6354C191.352 46.4603 191.034 46.3664 190.709 46.3647C190.619 46.3579 190.529 46.3579 190.439 46.3647L189.214 46.5793C188.849 46.669 188.51 46.8401 188.221 47.0798C187.932 47.3195 187.701 47.6216 187.546 47.9633L186.958 49.3473C186.716 49.9216 184.923 50.835 182.73 51.2226L181.028 51.5201C180.826 51.5545 180.623 51.573 180.419 51.5755C180.303 51.5824 180.188 51.5824 180.073 51.5755C179.9 51.56 179.728 51.5299 179.56 51.4855L179.353 51.4163L179.263 51.3817H179.18C179.049 51.3335 178.923 51.2708 178.806 51.1949C178.367 50.9245 178.004 50.5458 177.754 50.095C177.503 49.6442 177.372 49.1365 177.374 48.6207C177.339 46.9114 177.339 45.1607 177.374 43.4514C177.446 42.4096 177.852 41.4188 178.533 40.627C179.214 39.8351 180.133 39.2845 181.152 39.0572L198.763 35.9847C198.962 35.9492 199.164 35.9306 199.366 35.9294M199.366 35.5626C199.134 35.5631 198.902 35.5816 198.674 35.618L181.069 38.7251C179.963 38.9632 178.965 39.5568 178.228 40.4152C177.491 41.2736 177.055 42.3496 176.986 43.4791C176.945 45.216 176.945 46.9391 176.986 48.6691C176.986 49.2461 177.133 49.8137 177.414 50.3176C177.695 50.8216 178.1 51.2451 178.592 51.5478C178.727 51.633 178.871 51.7048 179.021 51.7623L179.187 51.8315L179.45 51.9077C179.637 51.9635 179.829 51.9983 180.024 52.0115C180.149 52.0187 180.273 52.0187 180.398 52.0115C180.63 52.0141 180.861 51.9956 181.09 51.9561L182.799 51.6516C184.958 51.2779 186.951 50.3368 187.304 49.5756C187.657 48.8144 187.885 48.1916 187.885 48.1916C188.017 47.909 188.209 47.6589 188.448 47.4591C188.687 47.2594 188.968 47.1149 189.269 47.036L190.487 46.8215C190.556 46.8147 190.626 46.8147 190.695 46.8215C190.935 46.8241 191.171 46.8893 191.378 47.0107C191.586 47.132 191.758 47.3053 191.878 47.5135L192.466 48.7175C192.511 48.7964 192.57 48.8667 192.639 48.9251C192.68 48.9577 192.724 48.9855 192.771 49.0082C192.804 49.0355 192.841 49.0566 192.881 49.0705C192.97 49.1168 193.062 49.1539 193.158 49.1812C193.262 49.2202 193.368 49.2503 193.477 49.2711C193.684 49.3197 193.894 49.3544 194.106 49.3749C194.224 49.3749 194.349 49.3749 194.473 49.3749H194.985C195.651 49.371 196.316 49.3085 196.971 49.1881L198.68 48.8975C199.792 48.6546 200.794 48.053 201.53 47.1852C202.267 46.3175 202.698 45.2316 202.756 44.095C202.798 42.365 202.798 40.6373 202.756 38.9119C202.767 38.7668 202.767 38.6211 202.756 38.4759C202.763 38.4463 202.763 38.4156 202.756 38.386C202.742 38.2571 202.717 38.1297 202.68 38.0054C202.639 37.8739 202.597 37.7424 202.542 37.6109C202.48 37.4618 202.406 37.3183 202.32 37.1819C202.269 37.0841 202.209 36.9914 202.14 36.9051C202.051 36.7797 201.951 36.6616 201.843 36.5522C201.753 36.4691 201.663 36.3861 201.566 36.31C201.539 36.2813 201.509 36.2557 201.476 36.2339C201.379 36.1716 201.282 36.1024 201.185 36.047C201.132 36.0059 201.074 35.9711 201.012 35.9432C200.516 35.6863 199.966 35.5534 199.407 35.5557L199.366 35.5626Z" fill="black"/>
</g>
<path d="M177.008 48.6467L176.918 44.9169C176.918 44.2941 176.87 43.6851 176.918 43.0415C176.992 42.4052 177.19 41.7894 177.499 41.2285C178.108 40.0923 179.105 39.2129 180.309 38.7511C180.913 38.5665 181.531 38.43 182.156 38.3429L183.99 38.0107L191.332 36.7582C193.782 36.3522 196.236 35.967 198.695 35.6025C196.259 36.1008 193.821 36.5806 191.381 37.0419L184.073 38.3705L182.239 38.6819C181.633 38.7603 181.034 38.8852 180.447 39.0556C179.312 39.4918 178.363 40.3088 177.762 41.3669C177.458 41.8912 177.259 42.4692 177.174 43.0692C177.105 43.6643 177.139 44.301 177.119 44.9169L177.008 48.6467Z" fill="white"/>
<g opacity="0.3">
<path d="M301.786 18.7395V108.326C300.25 117.702 295.426 126.913 287.254 135.369C284.306 138.402 281.127 141.201 277.746 143.742C274.443 146.183 271.005 148.435 267.449 150.489C253.899 158.337 237.852 163.859 220.801 167.097C218.088 167.619 215.348 168.08 212.58 168.481V78.5214C231.748 75.4212 249.81 69.7122 264.937 61.3875C283.711 51.0075 295.163 38.1986 299.315 24.8014C300.103 22.8215 300.744 20.7861 301.232 18.7118C301.254 18.6539 301.293 18.6044 301.345 18.5704C301.396 18.5364 301.457 18.5197 301.519 18.5228C301.581 18.5259 301.64 18.5486 301.688 18.5875C301.736 18.6265 301.77 18.6797 301.786 18.7395Z" fill="#BA68C8"/>
</g>
<path d="M212.184 168.91V78.1958L212.495 78.1474C232.106 74.978 250.167 69.0683 264.727 61.055C282.795 51.104 294.622 38.5442 298.912 24.7388V24.4274H299.037C299.774 22.5339 300.38 20.5917 300.85 18.6146C300.912 18.4843 301.013 18.3767 301.14 18.3069C301.266 18.2371 301.411 18.2086 301.554 18.2254C301.698 18.2422 301.833 18.3034 301.939 18.4005C302.046 18.4976 302.12 18.6257 302.151 18.7669V108.325C300.566 118.062 295.632 127.231 287.494 135.625C284.533 138.672 281.337 141.484 277.937 144.033C274.623 146.486 271.172 148.748 267.599 150.807C254.354 158.468 238.618 164.087 220.841 167.464C218.135 167.983 215.36 168.446 212.606 168.848L212.184 168.91ZM212.924 78.8048V168.073C215.526 167.692 218.142 167.249 220.702 166.765C238.397 163.395 254.057 157.817 267.232 150.157C270.775 148.111 274.201 145.87 277.495 143.444C280.859 140.924 284.024 138.148 286.961 135.14C294.995 126.836 299.86 117.84 301.417 108.291V19.4104C300.941 21.2801 300.347 23.1176 299.639 24.9118C295.286 38.911 283.342 51.623 265.087 61.6709C250.507 69.6911 232.515 75.6146 212.924 78.8048Z" fill="#BA68C8"/>
<path d="M233.35 146.142C233.153 146.142 232.965 146.064 232.826 145.925C232.687 145.786 232.609 145.598 232.609 145.402V92.4914C232.615 92.333 232.671 92.1805 232.77 92.0561C232.868 91.9317 233.003 91.8418 233.156 91.7994C237.536 90.623 241.578 89.3705 245.508 87.9588C245.622 87.9145 245.745 87.8995 245.866 87.9152C245.987 87.931 246.102 87.9769 246.2 88.0487C246.299 88.117 246.379 88.208 246.434 88.314C246.49 88.4201 246.519 88.538 246.519 88.6577V141.568C246.516 141.72 246.468 141.867 246.381 141.991C246.293 142.114 246.17 142.208 246.027 142.26C242.048 143.686 237.972 144.952 233.571 146.135C233.498 146.146 233.424 146.149 233.35 146.142ZM234.09 93.0588V144.433C237.924 143.388 241.515 142.267 245.017 141.021V89.6819C241.508 90.9067 237.938 92.0346 234.09 93.0588Z" fill="white"/>
<path d="M257.156 137.639C257.014 137.643 256.874 137.601 256.755 137.522C256.651 137.455 256.565 137.363 256.505 137.254C256.446 137.145 256.415 137.023 256.416 136.899V83.9887C256.414 83.8436 256.455 83.7012 256.532 83.5784C256.609 83.4557 256.721 83.3579 256.852 83.2967C260.339 81.734 263.741 79.9901 267.045 78.0721C267.799 77.6707 268.498 77.2417 269.17 76.8195C269.281 76.748 269.411 76.71 269.543 76.71C269.676 76.71 269.805 76.748 269.917 76.8195C270.034 76.8819 270.131 76.9747 270.199 77.0879C270.268 77.2012 270.304 77.3309 270.304 77.4631V130.373C270.305 130.5 270.273 130.624 270.211 130.735C270.149 130.845 270.06 130.938 269.952 131.003C269.26 131.439 268.533 131.896 267.758 132.304C264.409 134.242 260.96 136.002 257.426 137.577C257.341 137.615 257.25 137.636 257.156 137.639ZM257.897 84.4731V135.757C260.789 134.422 263.793 132.865 267.045 130.996C267.668 130.671 268.249 130.304 268.824 129.958V78.7502C268.478 78.9578 268.132 79.1585 267.758 79.3522C264.263 81.3937 261.025 83.0406 257.897 84.4731Z" fill="white"/>
<path d="M280.913 123.085C280.805 123.087 280.698 123.063 280.601 123.016C280.47 122.955 280.359 122.858 280.283 122.735C280.207 122.612 280.168 122.469 280.172 122.324V69.4347C280.173 69.3262 280.197 69.219 280.244 69.121C280.291 69.0229 280.358 68.9363 280.442 68.8673C282.619 67.0679 284.698 65.153 286.67 63.1306C288.882 60.8932 290.905 58.4768 292.718 55.9061C292.808 55.7763 292.937 55.6785 293.086 55.6272C293.236 55.5758 293.397 55.5735 293.548 55.6207C293.699 55.6678 293.831 55.7619 293.924 55.8892C294.017 56.0165 294.068 56.1704 294.068 56.3283V109.239C294.067 109.391 294.021 109.541 293.936 109.668C292.082 112.301 290.018 114.779 287.763 117.079C285.746 119.137 283.621 121.086 281.397 122.919C281.26 123.03 281.088 123.088 280.913 123.085ZM281.653 69.8015V120.753C283.452 119.21 285.148 117.633 286.698 116.041C288.842 113.855 290.809 111.501 292.58 109.003V58.598C291.081 60.5414 289.463 62.3902 287.736 64.134C285.806 66.1219 283.774 68.0067 281.646 69.7807L281.653 69.8015Z" fill="white"/>
<g opacity="0.3">
<path d="M221.518 155.319L251.613 99.7236L275.68 130.995C275.68 130.995 265.536 145.513 221.518 155.319Z" fill="#BA68C8"/>
</g>
<g opacity="0.3">
<path d="M165.619 158.662C138.14 157.195 111.415 150.669 90.3431 139.092C66.6629 126.048 54.6152 109.025 54.2138 91.9391V90.2368L53.9785 32.6486C53.9785 28.5381 61.2168 40.1914 76.3786 52.1422C76.7384 52.4329 77.0706 52.7027 77.465 52.9865C78.3092 53.6369 79.1742 54.2736 80.0738 54.9102C83.3879 57.2577 86.8352 59.4111 90.3985 61.3597C111.415 72.9091 138.015 79.4278 165.391 80.9156L165.619 158.662Z" fill="#BA68C8"/>
</g>
<path d="M54.7681 32.7307C56.2996 34.0428 57.74 35.4578 59.0793 36.9657C64.31 42.6263 69.9538 47.8908 75.9641 52.7156C76.227 52.9301 76.4969 53.1377 76.7737 53.3453L77.0574 53.5737C77.8671 54.1965 78.7252 54.8331 79.694 55.5182C83.0282 57.8746 86.4938 60.0395 90.074 62.0023C110.142 73.0743 136.576 79.9943 164.665 81.6135L164.886 157.879C136.929 156.28 110.619 149.388 90.7175 138.434C68.0614 125.943 55.3632 109.439 54.955 91.9243V90.222L54.7404 32.7307M54.4221 31.8311C54.1384 31.8311 54 32.1009 54 32.6753L54.2145 90.2497V91.952C54.6159 109.037 66.6705 126.061 90.3438 139.105C111.388 150.696 138.14 157.221 165.62 158.688L165.391 80.9146C138.023 79.4268 111.415 72.9082 90.4269 61.3587C86.8636 59.4101 83.4163 57.2567 80.1022 54.9093C79.2026 54.2726 78.3376 53.636 77.4934 52.9855C77.1266 52.7018 76.8014 52.4319 76.407 52.1413C63.3628 41.8651 56.1729 31.8311 54.4221 31.8311Z" fill="#BA68C8"/>
<path d="M139.046 147.617H138.95C138.721 147.617 116.46 144.392 94.7999 133.396C69.9848 120.802 60.2414 101.28 60.1445 101.08C60.093 100.979 60.0669 100.867 60.0684 100.754V85.8071C60.0669 85.655 60.1156 85.5067 60.2068 85.385L76.4757 62.3829C76.5546 62.2763 76.6599 62.1921 76.7813 62.1387C76.9026 62.0853 77.0359 62.0645 77.1677 62.0784C77.2986 62.0915 77.4235 62.1395 77.5294 62.2174C77.6353 62.2954 77.7183 62.4003 77.7698 62.5213L97.9554 109.577L96.1908 100.9C96.1633 100.758 96.1774 100.611 96.2315 100.477C96.2855 100.344 96.3771 100.228 96.4953 100.145L112.799 88.6927C112.881 88.6313 112.976 88.5888 113.076 88.5685C113.177 88.5481 113.281 88.5504 113.38 88.5751C113.48 88.5965 113.575 88.6383 113.658 88.6978C113.742 88.7573 113.812 88.8333 113.865 88.9211L139.718 132.351C139.786 132.466 139.822 132.598 139.821 132.732V146.876C139.823 146.974 139.805 147.071 139.769 147.162C139.732 147.252 139.678 147.335 139.609 147.404C139.54 147.473 139.457 147.527 139.367 147.564C139.276 147.601 139.179 147.618 139.081 147.617H139.046ZM61.5424 100.561C62.4835 102.367 72.2476 120.276 95.4504 132.06C114.515 141.748 134.043 145.305 138.285 145.997V132.932L112.944 90.3605L97.7201 101.08L100.786 116.304C100.803 116.473 100.762 116.644 100.668 116.787C100.575 116.929 100.435 117.035 100.272 117.087C100.109 117.138 99.9334 117.131 99.7748 117.068C99.6163 117.005 99.4845 116.889 99.4017 116.74L76.9255 64.3551L61.5493 86.0562L61.5424 100.561Z" fill="white"/>
<path d="M138.762 103.8C138.298 103.798 137.834 103.751 137.378 103.662C132.915 102.79 129.289 97.9044 129.289 92.7767C129.243 91.5378 129.472 90.3041 129.959 89.164C130.446 88.0239 131.179 87.0055 132.105 86.1819C132.865 85.5497 133.757 85.0968 134.715 84.8572C135.674 84.6176 136.674 84.5973 137.641 84.7979C142.098 85.6699 145.724 90.5554 145.724 95.6831C145.771 96.9221 145.542 98.1561 145.055 99.2964C144.568 100.437 143.835 101.455 142.907 102.278C141.747 103.256 140.28 103.795 138.762 103.8ZM136.264 86.1819C135.089 86.1718 133.947 86.5761 133.04 87.3237C132.283 88.01 131.687 88.8543 131.294 89.7967C130.9 90.739 130.719 91.7564 130.763 92.7767C130.763 97.2332 133.856 101.461 137.683 102.209C138.435 102.371 139.215 102.363 139.964 102.183C140.713 102.003 141.411 101.657 142.008 101.171C142.764 100.484 143.36 99.6401 143.754 98.6977C144.147 97.7554 144.328 96.738 144.285 95.7177C144.285 91.2612 141.198 87.0331 137.365 86.2857C137.002 86.2156 136.634 86.1786 136.264 86.175V86.1819Z" fill="white"/>
<g opacity="0.3">
<path d="M59.3906 50.2458C59.3906 50.2458 66.1376 62.0998 80.0883 67.2552V60.5566C66.712 54.2317 59.3906 42.3916 59.3906 42.3916V50.2458Z" fill="#BA68C8"/>
</g>
<g opacity="0.3">
<path d="M59.3906 62.3845C59.3906 62.3845 66.1376 74.2384 80.0883 79.3938V72.6953C66.712 66.3704 59.3906 54.5303 59.3906 54.5303V62.3845Z" fill="#BA68C8"/>
</g>
<g opacity="0.3">
<path d="M59.3906 74.5222C59.3906 74.5222 66.1376 86.3761 80.0883 91.5315V84.833C66.712 78.5081 59.3906 66.668 59.3906 66.668V74.5222Z" fill="#BA68C8"/>
</g>
</svg>
