<svg width="631" height="631" viewBox="0 0 631 631" fill="none" xmlns="http://www.w3.org/2000/svg">
<path d="M507.313 427.633C507.578 429.488 502.542 430.699 498.479 431.419C498.807 434.788 501.003 438.183 504.145 441.363C508.045 439.167 513.597 436.315 514.62 436.984C515.642 437.653 510.051 441.439 506.492 443.597C509.036 445.816 511.731 447.857 514.556 449.705C516.298 448.077 518.342 446.651 519.604 447.421C520.866 448.19 520.526 450.74 519.895 452.999C524.135 455.523 527.303 456.974 527.303 456.974C528.535 453.039 529.48 449.019 530.129 444.947C529.915 444.518 529.713 444.089 529.511 443.685C528.83 442.108 529.511 441.426 530.622 441.161C530.943 438.281 530.968 435.376 530.697 432.491C525.902 431.494 520.071 429.626 522.255 426.749C523.517 425.02 525.977 424.818 528.489 425.26C528.144 424.686 527.747 424.145 527.303 423.645C518.582 414.028 512.487 423.645 512.487 423.645C507.439 419.417 500.296 420.565 498.756 427.166C501.533 426.421 506.984 425.336 507.313 427.633Z" fill="#407BFF"/>
<path d="M518.19 498.279L516.928 498.178C516.928 497.535 522.09 433.16 507.64 427.09C506.952 426.766 506.198 426.606 505.438 426.623C504.678 426.641 503.933 426.835 503.261 427.191C498.049 429.917 495.537 441.186 495.512 441.3L494.25 441.022C494.351 440.543 496.9 429.071 502.642 426.08C503.479 425.639 504.405 425.396 505.351 425.37C506.296 425.343 507.235 425.535 508.094 425.929C523.427 432.34 518.417 495.591 518.19 498.279Z" fill="#407BFF"/>
<path d="M520.021 496.891C519.756 493.989 513.863 425.879 524.893 418.647C527.53 416.918 529.941 416.54 531.897 417.562C537.109 420.187 537.79 431.33 537.815 431.797L536.553 431.873C536.553 431.759 535.885 420.982 531.329 418.685C529.751 417.89 527.82 418.231 525.587 419.707C515.175 426.522 521.208 496.071 521.271 496.778L520.021 496.891Z" fill="#407BFF"/>
<path d="M521.673 502.393C521.584 500.172 519.767 448.039 529.813 443.471C530.747 443.034 531.766 442.808 532.797 442.808C533.829 442.808 534.847 443.034 535.782 443.471C542.672 446.499 546.938 459.334 547.14 459.877L545.941 460.268C545.941 460.142 541.675 447.421 535.302 444.619C534.532 444.251 533.689 444.061 532.835 444.061C531.981 444.061 531.138 444.251 530.368 444.619C522.657 448.127 522.405 487.527 522.96 502.343L521.673 502.393Z" fill="#407BFF"/>
<path d="M519.111 500.008L517.849 499.869C519.616 484.347 522.998 443.004 517.47 438.031C517.204 437.706 516.848 437.466 516.446 437.341C516.045 437.215 515.616 437.21 515.211 437.325C511.514 438.751 509.255 452.204 508.699 457.264L507.438 457.125C507.652 455.182 509.659 438.107 514.744 436.151C515.364 435.945 516.031 435.924 516.663 436.089C517.294 436.255 517.865 436.601 518.303 437.085C525.471 443.496 519.376 497.762 519.111 500.008Z" fill="#407BFF"/>
<path d="M498.062 470.591H543.394L539.608 521.374H501.849L498.062 470.591Z" fill="#263238"/>
<path d="M504.233 451.951C503.766 453.213 500.245 452.216 497.481 451.232C496.522 453.428 496.737 456.28 497.557 459.321C500.712 459.321 505.129 459.41 505.52 460.205C505.912 461 501.179 461.378 498.239 461.467C499.048 463.709 500.009 465.893 501.116 468.004C502.757 467.6 504.511 467.411 504.99 468.307C505.47 469.203 504.422 470.679 503.261 471.853C505.028 474.819 506.467 476.838 506.467 476.838C508.579 474.835 510.54 472.68 512.335 470.389C512.335 470.061 512.335 469.72 512.398 469.379C512.524 468.117 513.155 467.979 513.938 468.231C515.119 466.568 516.125 464.787 516.941 462.918C514.329 460.646 511.376 457.504 513.711 456.482C515.112 455.863 516.664 456.57 518.065 457.744C518.057 457.272 517.998 456.802 517.888 456.343C515.806 447.421 508.751 451.295 508.751 451.295C507.073 446.941 502.29 445.212 499.084 448.771C501.091 449.225 504.814 450.424 504.233 451.951Z" fill="#407BFF"/>
<path opacity="0.3" d="M504.233 451.951C503.766 453.213 500.245 452.216 497.481 451.232C496.522 453.428 496.737 456.28 497.557 459.321C500.712 459.321 505.129 459.41 505.52 460.205C505.912 461 501.179 461.378 498.239 461.467C499.048 463.709 500.009 465.893 501.116 468.004C502.757 467.6 504.511 467.411 504.99 468.307C505.47 469.203 504.422 470.679 503.261 471.853C505.028 474.819 506.467 476.838 506.467 476.838C508.579 474.835 510.54 472.68 512.335 470.389C512.335 470.061 512.335 469.72 512.398 469.379C512.524 468.117 513.155 467.979 513.938 468.231C515.119 466.568 516.125 464.787 516.941 462.918C514.329 460.646 511.376 457.504 513.711 456.482C515.112 455.863 516.664 456.57 518.065 457.744C518.057 457.272 517.998 456.802 517.888 456.343C515.806 447.421 508.751 451.295 508.751 451.295C507.073 446.941 502.29 445.212 499.084 448.771C501.091 449.225 504.814 450.424 504.233 451.951Z" fill="white"/>
<path d="M537.904 457.984C536.49 458.107 535.096 458.399 533.752 458.855C533.398 457.895 533.194 456.886 533.146 455.864C532.856 446.714 539.456 450.563 542.863 447.888C543.646 447.194 544.567 446.673 545.565 446.36C546.564 446.047 547.617 445.948 548.656 446.071C548.354 446.572 548.088 447.095 547.861 447.636C547.783 447.836 547.751 448.052 547.766 448.267C547.782 448.481 547.845 448.69 547.952 448.877C548.058 449.064 548.205 449.226 548.381 449.349C548.558 449.473 548.759 449.556 548.971 449.592C549.824 449.754 550.706 449.648 551.495 449.289C551.727 449.152 551.947 448.996 552.152 448.822C552.701 449.786 553.125 450.817 553.414 451.888C553.753 453.167 553.948 454.479 553.994 455.801C553.477 455.914 552.968 456.058 552.467 456.23C552.269 456.316 552.093 456.446 551.952 456.61C551.812 456.774 551.71 456.968 551.655 457.177C551.601 457.386 551.594 457.605 551.636 457.817C551.679 458.029 551.769 458.228 551.899 458.4C552.442 458.951 553.079 459.4 553.78 459.725C553.545 461.191 553.16 462.629 552.631 464.016L552.164 464.079C551.832 464.146 551.503 464.23 551.18 464.332C550.995 464.382 550.813 464.445 550.637 464.521C550.414 464.621 550.219 464.775 550.069 464.969C549.92 465.163 549.82 465.39 549.779 465.632C549.755 465.871 549.792 466.112 549.887 466.333C549.982 466.554 550.132 466.747 550.322 466.894C550.535 467.054 550.763 467.194 551.003 467.31C550.126 468.822 548.874 470.082 547.369 470.97C546.048 470.363 544.762 469.68 543.52 468.925C543.797 468.559 544.075 468.193 544.327 467.815C544.619 467.4 544.753 466.894 544.706 466.389C544.631 465.89 544.37 465.439 543.974 465.127C543.56 464.823 543.045 464.688 542.535 464.748C542.035 464.816 541.581 465.08 541.273 465.48C540.97 465.935 540.63 466.364 540.302 466.742C538.558 465.456 536.996 463.94 535.657 462.237H535.796C536.622 462.015 537.467 461.872 538.32 461.808C538.832 461.743 539.298 461.476 539.613 461.068C539.929 460.66 540.07 460.143 540.005 459.631C539.94 459.119 539.674 458.654 539.265 458.338C538.857 458.022 538.34 457.881 537.828 457.946L537.904 457.984Z" fill="#407BFF"/>
<path opacity="0.5" d="M537.904 457.984C536.49 458.107 535.096 458.399 533.752 458.855C533.398 457.895 533.194 456.886 533.146 455.864C532.856 446.714 539.456 450.563 542.863 447.888C543.646 447.194 544.567 446.673 545.565 446.36C546.564 446.047 547.617 445.948 548.656 446.071C548.354 446.572 548.088 447.095 547.861 447.636C547.783 447.836 547.751 448.052 547.766 448.267C547.782 448.481 547.845 448.69 547.952 448.877C548.058 449.064 548.205 449.226 548.381 449.349C548.558 449.473 548.759 449.556 548.971 449.592C549.824 449.754 550.706 449.648 551.495 449.289C551.727 449.152 551.947 448.996 552.152 448.822C552.701 449.786 553.125 450.817 553.414 451.888C553.753 453.167 553.948 454.479 553.994 455.801C553.477 455.914 552.968 456.058 552.467 456.23C552.269 456.316 552.093 456.446 551.952 456.61C551.812 456.774 551.71 456.968 551.655 457.177C551.601 457.386 551.594 457.605 551.636 457.817C551.679 458.029 551.769 458.228 551.899 458.4C552.442 458.951 553.079 459.4 553.78 459.725C553.545 461.191 553.16 462.629 552.631 464.016L552.164 464.079C551.832 464.146 551.503 464.23 551.18 464.332C550.995 464.382 550.813 464.445 550.637 464.521C550.414 464.621 550.219 464.775 550.069 464.969C549.92 465.163 549.82 465.39 549.779 465.632C549.755 465.871 549.792 466.112 549.887 466.333C549.982 466.554 550.132 466.747 550.322 466.894C550.535 467.054 550.763 467.194 551.003 467.31C550.126 468.822 548.874 470.082 547.369 470.97C546.048 470.363 544.762 469.68 543.52 468.925C543.797 468.559 544.075 468.193 544.327 467.815C544.619 467.4 544.753 466.894 544.706 466.389C544.631 465.89 544.37 465.439 543.974 465.127C543.56 464.823 543.045 464.688 542.535 464.748C542.035 464.816 541.581 465.08 541.273 465.48C540.97 465.935 540.63 466.364 540.302 466.742C538.558 465.456 536.996 463.94 535.657 462.237H535.796C536.622 462.015 537.467 461.872 538.32 461.808C538.832 461.743 539.298 461.476 539.613 461.068C539.929 460.66 540.07 460.143 540.005 459.631C539.94 459.119 539.674 458.654 539.265 458.338C538.857 458.022 538.34 457.881 537.828 457.946L537.904 457.984Z" fill="white"/>
<path d="M540.516 426.459C541.302 425.909 542.149 425.452 543.04 425.096C542.807 424.434 542.47 423.812 542.043 423.254C538.181 418.319 536.44 423.254 533.436 423.329C532.729 423.314 532.027 423.448 531.374 423.722C530.722 423.996 530.135 424.404 529.65 424.92C530.027 425.053 530.394 425.214 530.748 425.399C530.881 425.467 530.995 425.565 531.084 425.684C531.173 425.804 531.233 425.942 531.26 426.088C531.286 426.234 531.279 426.385 531.239 426.528C531.198 426.671 531.125 426.803 531.026 426.914C530.642 427.375 530.127 427.71 529.549 427.873C529.365 427.891 529.179 427.891 528.994 427.873C529.123 428.62 529.352 429.345 529.676 430.031C530.058 430.851 530.533 431.626 531.089 432.34C531.408 432.173 531.736 432.025 532.073 431.898C532.216 431.856 532.367 431.847 532.514 431.872C532.661 431.896 532.801 431.954 532.922 432.04C533.044 432.126 533.144 432.239 533.216 432.37C533.287 432.5 533.328 432.646 533.335 432.794C533.286 433.324 533.145 433.841 532.919 434.322C533.701 434.984 534.546 435.567 535.443 436.063L535.721 435.899C535.925 435.785 536.135 435.684 536.352 435.596C536.466 435.531 536.589 435.484 536.718 435.457C536.88 435.41 537.051 435.404 537.216 435.439C537.381 435.474 537.535 435.55 537.664 435.659C537.789 435.777 537.881 435.925 537.932 436.088C537.982 436.252 537.99 436.426 537.954 436.593C537.914 436.771 537.855 436.945 537.778 437.111C538.899 437.52 540.108 437.633 541.286 437.439C541.717 436.54 542.096 435.617 542.422 434.675C542.119 434.612 541.803 434.536 541.513 434.448C541.173 434.364 540.876 434.157 540.68 433.867C540.491 433.567 540.427 433.204 540.504 432.858C540.537 432.686 540.606 432.524 540.706 432.38C540.806 432.237 540.935 432.116 541.084 432.025C541.382 431.841 541.738 431.778 542.081 431.848C542.447 431.949 542.8 432.037 543.166 432.113C543.519 430.673 543.676 429.191 543.633 427.709H543.545C543 427.962 542.481 428.266 541.993 428.617C541.695 428.806 541.334 428.869 540.99 428.792C540.645 428.716 540.346 428.505 540.157 428.207C539.967 427.909 539.904 427.548 539.981 427.204C540.058 426.86 540.269 426.56 540.567 426.371L540.516 426.459Z" fill="#407BFF"/>
<path opacity="0.3" d="M540.516 426.459C541.302 425.909 542.149 425.452 543.04 425.096C542.807 424.434 542.47 423.812 542.043 423.254C538.181 418.319 536.44 423.254 533.436 423.329C532.729 423.314 532.027 423.448 531.374 423.722C530.722 423.996 530.135 424.404 529.65 424.92C530.027 425.053 530.394 425.214 530.748 425.399C530.881 425.467 530.995 425.565 531.084 425.684C531.173 425.804 531.233 425.942 531.26 426.088C531.286 426.234 531.279 426.385 531.239 426.528C531.198 426.671 531.125 426.803 531.026 426.914C530.642 427.375 530.127 427.71 529.549 427.873C529.365 427.891 529.179 427.891 528.994 427.873C529.123 428.62 529.352 429.345 529.676 430.031C530.058 430.851 530.533 431.626 531.089 432.34C531.408 432.173 531.736 432.025 532.073 431.898C532.216 431.856 532.367 431.847 532.514 431.872C532.661 431.896 532.801 431.954 532.922 432.04C533.044 432.126 533.144 432.239 533.216 432.37C533.287 432.5 533.328 432.646 533.335 432.794C533.286 433.324 533.145 433.841 532.919 434.322C533.701 434.984 534.546 435.567 535.443 436.063L535.721 435.899C535.925 435.785 536.135 435.684 536.352 435.596C536.466 435.531 536.589 435.484 536.718 435.457C536.88 435.41 537.051 435.404 537.216 435.439C537.381 435.474 537.535 435.55 537.664 435.659C537.789 435.777 537.881 435.925 537.932 436.088C537.982 436.252 537.99 436.426 537.954 436.593C537.914 436.771 537.855 436.945 537.778 437.111C538.899 437.52 540.108 437.633 541.286 437.439C541.717 436.54 542.096 435.617 542.422 434.675C542.119 434.612 541.803 434.536 541.513 434.448C541.173 434.364 540.876 434.157 540.68 433.867C540.491 433.567 540.427 433.204 540.504 432.858C540.537 432.686 540.606 432.524 540.706 432.38C540.806 432.237 540.935 432.116 541.084 432.025C541.382 431.841 541.738 431.778 542.081 431.848C542.447 431.949 542.8 432.037 543.166 432.113C543.519 430.673 543.676 429.191 543.633 427.709H543.545C543 427.962 542.481 428.266 541.993 428.617C541.695 428.806 541.334 428.869 540.99 428.792C540.645 428.716 540.346 428.505 540.157 428.207C539.967 427.909 539.904 427.548 539.981 427.204C540.058 426.86 540.269 426.56 540.567 426.371L540.516 426.459Z" fill="white"/>
<path d="M503.576 435.608C503.311 437.463 508.334 438.688 512.41 439.394C512.07 442.764 509.886 446.171 506.731 449.352C502.845 447.156 497.279 444.304 496.257 444.96C495.235 445.616 500.825 449.415 504.384 451.585C501.845 453.805 499.154 455.846 496.333 457.693C494.578 456.053 492.547 454.627 491.285 455.396C490.023 456.166 490.363 458.728 490.982 460.975C486.754 463.499 483.574 464.95 483.574 464.95C482.342 461.015 481.397 456.995 480.747 452.923C480.961 452.507 481.176 452.077 481.365 451.661C482.047 450.083 481.365 449.415 480.255 449.137C479.938 446.261 479.917 443.36 480.192 440.48C484.987 439.47 490.818 437.615 488.634 434.738C487.372 432.996 484.848 432.807 482.387 433.236C482.732 432.662 483.129 432.121 483.574 431.62C492.307 422.017 498.39 431.62 498.39 431.62C503.438 427.405 510.581 428.541 512.12 435.141C509.356 434.409 503.905 433.324 503.576 435.608Z" fill="#407BFF"/>
<path opacity="0.5" d="M503.576 435.608C503.311 437.463 508.334 438.688 512.41 439.394C512.07 442.764 509.886 446.171 506.731 449.352C502.845 447.156 497.279 444.304 496.257 444.96C495.235 445.616 500.825 449.415 504.384 451.585C501.845 453.805 499.154 455.846 496.333 457.693C494.578 456.053 492.547 454.627 491.285 455.396C490.023 456.166 490.363 458.728 490.982 460.975C486.754 463.499 483.574 464.95 483.574 464.95C482.342 461.015 481.397 456.995 480.747 452.923C480.961 452.507 481.176 452.077 481.365 451.661C482.047 450.083 481.365 449.415 480.255 449.137C479.938 446.261 479.917 443.36 480.192 440.48C484.987 439.47 490.818 437.615 488.634 434.738C487.372 432.996 484.848 432.807 482.387 433.236C482.732 432.662 483.129 432.121 483.574 431.62C492.307 422.017 498.39 431.62 498.39 431.62C503.438 427.405 510.581 428.541 512.12 435.141C509.356 434.409 503.905 433.324 503.576 435.608Z" fill="white"/>
<path d="M239.88 521.282L208.065 509.57L175.909 521.294C175.652 521.388 175.376 521.418 175.104 521.382C174.833 521.345 174.574 521.245 174.35 521.087C174.126 520.93 173.943 520.721 173.817 520.478C173.691 520.235 173.625 519.965 173.625 519.692C173.627 519.368 173.721 519.052 173.895 518.78C174.069 518.508 174.317 518.29 174.609 518.152L208.065 502.629L241.18 518.152C241.475 518.286 241.725 518.503 241.9 518.776C242.075 519.049 242.166 519.367 242.164 519.692C242.165 519.965 242.1 520.235 241.974 520.478C241.847 520.721 241.664 520.93 241.439 521.086C241.215 521.242 240.955 521.342 240.684 521.376C240.412 521.41 240.136 521.378 239.88 521.282Z" fill="#263238"/>
<path opacity="0.3" d="M239.88 521.282L208.065 509.57L175.909 521.294C175.652 521.388 175.376 521.418 175.104 521.382C174.833 521.345 174.574 521.245 174.35 521.087C174.126 520.93 173.943 520.721 173.817 520.478C173.691 520.235 173.625 519.965 173.625 519.692C173.627 519.368 173.721 519.052 173.895 518.78C174.069 518.508 174.317 518.29 174.609 518.152L208.065 502.629L241.18 518.152C241.475 518.286 241.725 518.503 241.9 518.776C242.075 519.049 242.166 519.367 242.164 519.692C242.165 519.965 242.1 520.235 241.974 520.478C241.847 520.721 241.664 520.93 241.439 521.086C241.215 521.242 240.955 521.342 240.684 521.376C240.412 521.41 240.136 521.378 239.88 521.282Z" fill="white"/>
<path opacity="0.2" d="M200.57 512.296L208.067 509.57L215.222 512.208V505.974L208.067 502.629L200.57 506.1V512.296Z" fill="black"/>
<path d="M207.902 521.559C207.204 521.56 206.53 521.303 206.011 520.837C205.491 520.371 205.162 519.729 205.087 519.035L204.191 509.608V431.364H211.599V509.608L210.703 519.035C210.629 519.727 210.302 520.367 209.785 520.833C209.268 521.299 208.597 521.557 207.902 521.559Z" fill="#263238"/>
<path opacity="0.3" d="M207.902 521.559C207.204 521.56 206.53 521.303 206.011 520.837C205.491 520.371 205.162 519.729 205.087 519.035L204.191 509.608V431.364H211.599V509.608L210.703 519.035C210.629 519.727 210.302 520.367 209.785 520.833C209.268 521.299 208.597 521.557 207.902 521.559Z" fill="white"/>
<path opacity="0.2" d="M211.612 431.301H204.191V440.413H211.612V431.301Z" fill="black"/>
<path d="M191.255 350.672C191.832 350.658 192.402 350.802 192.902 351.089C193.403 351.376 193.815 351.795 194.095 352.3C207.667 375.053 212.545 401.95 207.825 428.02C207.75 428.679 207.442 429.29 206.956 429.741C206.47 430.192 205.838 430.455 205.175 430.481C203.118 430.632 166.507 430.481 165.182 430.481C164.64 430.494 164.101 430.387 163.604 430.167C163.108 429.948 162.666 429.622 162.311 429.212C161.955 428.802 161.694 428.318 161.547 427.796C161.4 427.274 161.37 426.725 161.459 426.19C165.731 401.917 161.102 376.918 148.423 355.783C148.13 355.259 147.982 354.666 147.993 354.066C148.004 353.465 148.174 352.879 148.486 352.366C148.797 351.852 149.24 351.431 149.767 351.145C150.295 350.858 150.889 350.717 151.489 350.735C152.55 350.647 188.92 350.71 191.255 350.672Z" fill="#407BFF"/>
<path opacity="0.2" d="M191.255 350.672C191.832 350.658 192.402 350.802 192.902 351.089C193.403 351.376 193.815 351.795 194.095 352.3C207.667 375.053 212.545 401.95 207.825 428.02C207.75 428.679 207.442 429.29 206.956 429.741C206.47 430.192 205.838 430.455 205.175 430.481C203.118 430.632 166.507 430.481 165.182 430.481C164.64 430.494 164.101 430.387 163.604 430.167C163.108 429.948 162.666 429.622 162.311 429.212C161.955 428.802 161.694 428.318 161.547 427.796C161.4 427.274 161.37 426.725 161.459 426.19C165.731 401.917 161.102 376.918 148.423 355.783C148.13 355.259 147.982 354.666 147.993 354.066C148.004 353.465 148.174 352.879 148.486 352.366C148.797 351.852 149.24 351.431 149.767 351.145C150.295 350.858 150.889 350.717 151.489 350.735C152.55 350.647 188.92 350.71 191.255 350.672Z" fill="black"/>
<path d="M161.46 426.165C165.731 401.892 161.102 376.892 148.423 355.758C146.139 351.972 152.058 348.526 154.33 352.3C167.902 375.053 172.78 401.95 168.06 428.02C167.278 432.348 160.677 430.544 161.46 426.202V426.165Z" fill="#407BFF"/>
<g opacity="0.1">
<path d="M161.46 426.165C165.731 401.892 161.102 376.892 148.423 355.758C146.139 351.972 152.058 348.526 154.33 352.3C167.902 375.053 172.78 401.95 168.06 428.02C167.278 432.348 160.677 430.544 161.46 426.202V426.165Z" fill="white"/>
</g>
<path d="M275.647 424.183C267.25 422.045 258.64 420.859 249.978 420.65C241.068 420.423 207.701 420.65 199.775 420.65C190.114 420.638 180.49 421.838 171.128 424.221C165.247 425.723 167.064 434.204 172.39 434.317C172.857 434.317 273.716 434.317 274.082 434.317C279.635 434.519 281.654 425.71 275.647 424.183Z" fill="#407BFF"/>
<path opacity="0.3" d="M275.647 424.183C267.25 422.045 258.64 420.859 249.978 420.65C241.068 420.423 207.701 420.65 199.775 420.65C190.114 420.638 180.49 421.838 171.128 424.221C165.247 425.723 167.064 434.204 172.39 434.317C172.857 434.317 273.716 434.317 274.082 434.317C279.635 434.519 281.654 425.71 275.647 424.183Z" fill="black"/>
<path d="M173.865 434.128C190.871 429.799 208.69 429.799 225.696 434.128C232.094 435.756 234.833 425.849 228.422 424.221C209.621 419.451 189.927 419.451 171.127 424.221C164.728 425.849 167.442 435.756 173.865 434.128Z" fill="#407BFF"/>
<g opacity="0.3">
<path d="M173.865 434.128C190.871 429.799 208.69 429.799 225.696 434.128C232.094 435.756 234.833 425.849 228.422 424.221C209.621 419.451 189.927 419.451 171.127 424.221C164.728 425.849 167.442 435.756 173.865 434.128Z" fill="white"/>
</g>
<path d="M236.322 384.33H191.143V402.439H236.322V384.33Z" fill="#263238"/>
<path opacity="0.2" d="M236.322 384.33H191.143V402.439H236.322V384.33Z" fill="white"/>
<path d="M260.641 480.494L254.697 506.377L262.08 509.229L272.706 483.207L260.641 480.494Z" fill="url(#paint0_linear_1022_13069)"/>
<path d="M261.651 507.538L254.925 503.954C254.783 503.878 254.619 503.853 254.46 503.883C254.302 503.913 254.159 503.996 254.054 504.118L249.258 509.658C249.055 509.893 248.952 510.199 248.973 510.509C248.995 510.818 249.138 511.107 249.372 511.312C249.434 511.369 249.502 511.42 249.574 511.463C252.388 512.914 254.95 514.088 258.408 515.968C262.497 518.177 261.197 518.101 265.98 520.764C268.857 522.367 271.167 519.351 270.018 518.53C264.768 514.744 264.074 512.22 262.989 509.015C262.735 508.378 262.26 507.854 261.651 507.538Z" fill="#0B045F"/>
<path d="M200.821 400.205L237.066 398.211C237.066 398.211 297.276 407.626 296.38 424.461C295.484 441.296 270.976 494.376 270.976 494.376L256.601 490.388C256.601 490.388 267.556 437.018 274.686 428.171C274.686 428.171 229.721 422.896 218.464 419.893C212.33 418.252 197.401 421.041 200.821 400.205Z" fill="url(#paint1_linear_1022_13069)"/>
<path d="M236.019 487.624L235.072 514.164L243.061 514.542L248.374 488.003L236.019 487.624Z" fill="url(#paint2_linear_1022_13069)"/>
<path d="M242.493 512.132L234.744 512.296C234.581 512.298 234.424 512.356 234.298 512.459C234.172 512.562 234.084 512.705 234.05 512.864L232.574 520.171C232.522 520.481 232.588 520.799 232.759 521.062C232.929 521.326 233.191 521.517 233.495 521.597H233.747C236.978 521.484 239.83 521.244 243.843 521.181C248.588 521.092 247.39 521.685 252.968 521.66C256.324 521.66 256.867 517.874 255.492 517.66C248.967 516.953 247.049 515.01 244.5 512.725C243.928 512.285 243.212 512.074 242.493 512.132Z" fill="#0B045F"/>
<path d="M210.527 400.206C210.527 400.206 259.039 401.922 261.891 416.763C264.743 431.604 248.488 498.086 248.488 498.086H233.925C233.925 498.086 235.641 438.444 240.5 425.887C240.5 425.887 200.545 432.197 190.02 423.098C182.448 416.624 191.446 400.206 191.446 400.206H210.527Z" fill="url(#paint3_linear_1022_13069)"/>
<path d="M272.989 346.091L280.762 343.188L274.137 336.79C274.137 336.79 267.36 339.806 269.089 343.239L272.989 346.091Z" fill="url(#paint4_linear_1022_13069)"/>
<path d="M285.847 336.727L278.288 333.168L274.136 336.803L280.761 343.188L285.847 336.727Z" fill="url(#paint5_linear_1022_13069)"/>
<path d="M234.063 313.582C234.063 313.582 238.846 319.008 245.749 336.79C252.653 354.571 260.3 349.41 268.693 339.793L275.596 346.103C275.596 346.103 262.698 362.194 254.571 362.194C245.535 362.194 236.764 348.173 234.997 338.392C233.23 328.612 234.063 313.582 234.063 313.582Z" fill="url(#paint6_linear_1022_13069)"/>
<path d="M186.674 366.498L187.394 403.525L214.653 404.446C218.212 404.446 219.045 402.073 219.789 399.398L221.127 394.564L222.313 398.931C223.033 401.606 226.768 402.048 229.469 401.455L241.344 398.514L238.618 362.055C238.618 362.055 240.448 334.594 236.094 317.015C235.592 315.38 234.655 313.914 233.384 312.771C232.112 311.628 230.554 310.853 228.876 310.528C214.67 307.269 199.81 308.396 186.258 313.759C185.424 314.096 184.724 314.7 184.268 315.476C183.811 316.251 183.624 317.156 183.734 318.049L186.674 366.498Z" fill="url(#paint7_linear_1022_13069)"/>
<path opacity="0.5" d="M222.111 381.995C222.111 382.22 222.044 382.44 221.919 382.627C221.794 382.814 221.616 382.96 221.407 383.045C221.199 383.131 220.97 383.153 220.749 383.108C220.529 383.063 220.326 382.953 220.168 382.793C220.01 382.633 219.903 382.43 219.86 382.208C219.818 381.987 219.842 381.759 219.93 381.551C220.018 381.344 220.165 381.167 220.354 381.044C220.542 380.921 220.763 380.856 220.988 380.859C221.287 380.862 221.573 380.983 221.783 381.196C221.994 381.409 222.111 381.696 222.111 381.995Z" fill="black"/>
<path d="M202.248 308.256C206.586 306.643 211.296 306.315 215.815 307.309L218.604 308.9L219.576 311.991L216.055 314.755L207.726 315.613L200.848 312.761L201.226 309.707L202.248 308.256Z" fill="#263238"/>
<path d="M217.493 309.859C214.729 309.114 212.773 304.306 215.044 301.214L202.98 291.875C204.746 308.723 203.876 305.657 201.377 310.503C201.377 310.503 203.106 316.119 212.836 314.377C219.146 313.241 217.493 309.859 217.493 309.859Z" fill="url(#paint8_linear_1022_13069)"/>
<path d="M201.542 318.756L204.861 329.546L212.559 340.664L218.882 347.239L221.242 337.61L220.484 317.507L220.358 313.165L218.591 310.679L215.79 313.14L213.392 314.061L209.884 314.099L200.684 311.298L201.542 318.756Z" fill="url(#paint9_linear_1022_13069)"/>
<path d="M202.249 308.256C202.249 308.256 198.084 321.091 218.655 345.573C218.655 345.573 222.34 315.576 215.878 307.31L220.371 309.089L225.04 316.144L221.62 318.339L225.848 320.22C225.848 320.22 225.242 329.95 219.286 348.653C219.286 348.653 205.807 338.229 196.999 324.157L201.1 320.889L195.623 320.018L198.059 310.275L202.249 308.256Z" fill="url(#paint10_linear_1022_13069)"/>
<path opacity="0.4" d="M184.314 321.646L189.653 351.391L190.271 350.621C191.939 340.694 191.544 330.53 189.11 320.762L187.495 321.633L184.314 321.646Z" fill="black"/>
<path d="M218.326 269.033C218.326 269.033 224.131 279.773 219.663 286.31C215.196 292.847 207.611 271.683 207.611 271.683L218.326 269.033Z" fill="#363280"/>
<path d="M223.375 292.393C223.349 292.816 223.298 293.237 223.223 293.655C222.71 296.718 221.049 299.47 218.579 301.353C216.372 303.068 213.604 303.896 210.818 303.675C208.825 303.5 206.918 302.784 205.303 301.605C200.255 298.008 199.422 292.948 197.403 284.505C196.898 282.54 196.905 280.478 197.424 278.517C197.942 276.555 198.955 274.759 200.364 273.3C201.774 271.841 203.534 270.767 205.477 270.181C207.42 269.596 209.48 269.517 211.461 269.954C220.485 271.898 223.905 284.379 223.375 292.393Z" fill="url(#paint11_linear_1022_13069)"/>
<path d="M201.831 272.756L203.093 276.378C202.54 276.821 202.171 277.454 202.059 278.154C201.947 278.854 202.1 279.57 202.487 280.164C204.406 283.029 203.749 288.304 201.755 290.79C201.755 290.79 201.377 289.439 200.304 290.02C199.232 290.601 201.15 297.592 204.153 300.482C204.153 300.482 200.077 298.198 196.48 291.194C193.149 284.732 191.634 279.053 192.442 276.05L201.831 272.756Z" fill="#1F1C5B"/>
<path d="M194.967 292.191C195.604 293.067 196.408 293.809 197.333 294.375C198.258 294.94 199.285 295.317 200.355 295.485C203.22 295.914 204.293 293.264 203.207 290.74C202.21 288.506 199.535 285.515 196.796 286.272C196.201 286.435 195.656 286.746 195.212 287.175C194.768 287.605 194.44 288.139 194.258 288.73C194.075 289.32 194.045 289.946 194.168 290.551C194.292 291.156 194.567 291.72 194.967 292.191Z" fill="url(#paint12_linear_1022_13069)"/>
<path d="M192.278 277.943C192.278 277.943 190.296 273.248 197.187 267.733C204.078 262.218 213.492 264.78 217.934 260.363C222.377 255.946 225.506 269.475 214.805 273.387C207.523 275.869 199.952 277.401 192.278 277.943Z" fill="url(#paint13_linear_1022_13069)"/>
<path opacity="0.2" d="M174.016 356.54C176.12 355.36 177.911 353.694 179.241 351.681C180.301 350.154 181.765 347.895 183.191 345.435C182.07 343.399 180.831 341.431 179.481 339.541L176.313 348.476C176.313 348.476 170.735 349.738 169.851 352.653C169.523 353.751 171.416 355.316 174.016 356.54Z" fill="black"/>
<path d="M168.098 354.622C169.36 357.449 171.682 357.727 174.017 356.566C176.121 355.385 177.912 353.719 179.242 351.707C180.302 350.18 181.766 347.921 183.192 345.46C186.309 340.223 189.565 334.405 189.565 334.405C190.712 332.943 191.503 331.235 191.876 329.415C192.248 327.594 192.191 325.712 191.71 323.918C189.83 318.302 187.508 315.084 185.198 314.781C178.913 317.772 165.738 349.574 168.098 354.622Z" fill="url(#paint14_linear_1022_13069)"/>
<path d="M171.935 364.049C173.828 365.046 178.068 363.532 179.355 363.027L179.759 362.876C179.759 362.876 182.068 355.304 176.036 351.227C175.994 351.195 175.947 351.169 175.897 351.152C173.979 350.117 168.022 351.442 167.846 353.461C167.126 361.525 169.701 362.876 171.935 364.049Z" fill="url(#paint15_linear_1022_13069)"/>
<path opacity="0.2" d="M175.619 357.588C176.195 359.793 177.537 361.721 179.405 363.027L179.809 362.875C179.809 362.875 182.119 355.303 176.086 351.227C176.045 351.195 175.998 351.169 175.948 351.151C175.418 351.833 174.547 353.625 175.619 357.588Z" fill="black"/>
<path d="M174.156 331.022L184.681 371.129C184.815 371.594 185.108 371.997 185.51 372.267C185.912 372.537 186.396 372.657 186.877 372.605L214.805 368.882C215.022 368.855 215.232 368.78 215.418 368.664C215.603 368.548 215.762 368.392 215.882 368.209C216.002 368.025 216.081 367.817 216.113 367.6C216.145 367.383 216.129 367.162 216.067 366.952L205.63 326.858C205.494 326.395 205.199 325.995 204.798 325.727C204.396 325.46 203.914 325.342 203.434 325.394L175.506 329.104C175.283 329.122 175.067 329.189 174.872 329.301C174.678 329.412 174.511 329.564 174.382 329.747C174.253 329.93 174.166 330.139 174.127 330.36C174.088 330.58 174.098 330.806 174.156 331.022Z" fill="#263238"/>
<path d="M184.314 348.009C184.314 348.009 180.44 347.845 178.661 348.009C176.881 348.173 177.399 353.902 177.399 353.902L175.872 354.735C175.872 354.735 174.61 358.105 177.285 359.783L178.661 359.316C178.91 360.137 179.43 360.849 180.137 361.336C181.235 362.017 186.636 360.49 186.636 360.49L184.314 348.009Z" fill="url(#paint16_linear_1022_13069)"/>
<ellipse cx="3.33885" cy="4.40265" rx="3.33885" ry="4.40265" transform="matrix(0 -1 -0.999983 0.00584534 196.992 353.361)" fill="#B471CC"/>
<path d="M191.377 349.5C191.959 350.132 192.624 350.726 193.334 351.249C194.045 351.772 194.786 352.212 195.517 352.546C196.248 352.879 196.953 353.099 197.593 353.193C198.233 353.287 198.794 353.253 199.246 353.092C199.697 352.932 200.03 352.648 200.224 352.258C200.419 351.868 200.472 351.379 200.38 350.819C200.288 350.258 200.052 349.638 199.688 348.992C199.323 348.347 198.836 347.689 198.254 347.057" stroke="#AAC4E5" stroke-width="0.315816"/>
<path d="M191.063 349.827C191.642 350.463 192.306 351.058 193.017 351.579C193.728 352.101 194.473 352.537 195.208 352.864C195.944 353.191 196.656 353.402 197.304 353.486C197.953 353.569 198.524 353.523 198.986 353.349C199.448 353.176 199.791 352.879 199.996 352.476C200.201 352.073 200.265 351.571 200.182 350.999C200.1 350.427 199.873 349.796 199.515 349.142C199.157 348.488 198.675 347.825 198.097 347.189" stroke="#799DCB" stroke-width="0.757957"/>
<path d="M191.486 349.613C190.899 348.993 190.406 348.346 190.035 347.708C189.664 347.071 189.422 346.456 189.324 345.898C189.226 345.341 189.273 344.852 189.462 344.459C189.651 344.066 189.979 343.777 190.427 343.609C190.876 343.441 191.435 343.397 192.074 343.478C192.712 343.56 193.418 343.767 194.15 344.087C194.882 344.406 195.626 344.833 196.34 345.341" stroke="#AAC4E5" stroke-width="0.315816"/>
<path d="M191.18 349.955C190.599 349.321 190.115 348.659 189.755 348.006C189.396 347.354 189.167 346.724 189.083 346.152C188.998 345.58 189.06 345.078 189.264 344.674C189.468 344.27 189.81 343.972 190.272 343.797C190.733 343.623 191.304 343.575 191.952 343.656C192.601 343.737 193.314 343.946 194.05 344.271C194.787 344.595 195.533 345.03 196.246 345.548" stroke="#799DCB" stroke-width="0.757957"/>
<path d="M197.868 345.634C197.888 345.579 197.83 345.528 197.779 345.556L197.283 345.826C197.266 345.835 197.247 345.837 197.23 345.83L196.703 345.627C196.648 345.606 196.597 345.665 196.625 345.716L196.894 346.216C196.903 346.232 196.904 346.252 196.898 346.269L196.696 346.8C196.675 346.855 196.734 346.906 196.785 346.878L197.281 346.607C197.297 346.598 197.316 346.597 197.334 346.604L197.861 346.807C197.915 346.828 197.966 346.769 197.939 346.717L197.669 346.218C197.661 346.201 197.659 346.182 197.666 346.165L197.868 345.634Z" fill="#B471CC"/>
<path d="M284.883 372.606C285.218 372.606 285.539 372.473 285.775 372.236C286.012 371.999 286.145 371.678 286.145 371.344C286.145 371.009 286.012 370.688 285.775 370.451C285.539 370.215 285.218 370.082 284.883 370.082H249.686C249.351 370.082 249.03 370.215 248.793 370.451C248.557 370.688 248.424 371.009 248.424 371.344C248.424 371.678 248.557 371.999 248.793 372.236C249.03 372.473 249.351 372.606 249.686 372.606H284.883Z" fill="#407BFF"/>
<path opacity="0.5" d="M284.883 372.606C285.218 372.606 285.539 372.473 285.775 372.236C286.012 371.999 286.145 371.678 286.145 371.344C286.145 371.009 286.012 370.688 285.775 370.451C285.539 370.215 285.218 370.082 284.883 370.082H249.686C249.351 370.082 249.03 370.215 248.793 370.451C248.557 370.688 248.424 371.009 248.424 371.344C248.424 371.678 248.557 371.999 248.793 372.236C249.03 372.473 249.351 372.606 249.686 372.606H284.883Z" fill="white"/>
<path d="M281.893 370.372L286.575 337.042C286.673 336.437 286.979 335.885 287.439 335.48C287.899 335.075 288.486 334.842 289.099 334.821H293.591V372.593H283.786C283.506 372.599 283.229 372.544 282.974 372.429C282.718 372.315 282.492 372.146 282.311 371.933C282.129 371.72 281.998 371.47 281.925 371.199C281.853 370.929 281.842 370.647 281.893 370.372Z" fill="#407BFF"/>
<path opacity="0.6" d="M281.893 370.372L286.575 337.042C286.673 336.437 286.979 335.885 287.439 335.48C287.899 335.075 288.486 334.842 289.099 334.821H293.591V372.593H283.786C283.506 372.599 283.229 372.544 282.974 372.429C282.718 372.315 282.492 372.146 282.311 371.933C282.129 371.72 281.998 371.47 281.925 371.199C281.853 370.929 281.842 370.647 281.893 370.372Z" fill="white"/>
<path d="M285.742 372.593H325.596C326.209 372.572 326.795 372.339 327.255 371.934C327.715 371.529 328.021 370.977 328.12 370.372L332.802 337.042C332.851 336.767 332.837 336.484 332.763 336.214C332.69 335.944 332.557 335.694 332.374 335.481C332.192 335.269 331.965 335.099 331.709 334.985C331.454 334.871 331.176 334.815 330.896 334.821H291.042C290.428 334.838 289.839 335.069 289.378 335.475C288.917 335.881 288.613 336.435 288.518 337.042L283.824 370.372C283.775 370.649 283.788 370.933 283.863 371.204C283.938 371.474 284.072 371.725 284.255 371.938C284.439 372.151 284.668 372.32 284.925 372.433C285.182 372.546 285.461 372.601 285.742 372.593Z" fill="#407BFF"/>
<path opacity="0.5" d="M285.742 372.593H325.596C326.209 372.572 326.795 372.339 327.255 371.934C327.715 371.529 328.021 370.977 328.12 370.372L332.802 337.042C332.851 336.767 332.837 336.484 332.763 336.214C332.69 335.944 332.557 335.694 332.374 335.481C332.192 335.269 331.965 335.099 331.709 334.985C331.454 334.871 331.176 334.815 330.896 334.821H291.042C290.428 334.838 289.839 335.069 289.378 335.475C288.917 335.881 288.613 336.435 288.518 337.042L283.824 370.372C283.775 370.649 283.788 370.933 283.863 371.204C283.938 371.474 284.072 371.725 284.255 371.938C284.439 372.151 284.668 372.32 284.925 372.433C285.182 372.546 285.461 372.601 285.742 372.593Z" fill="white"/>
<ellipse cx="4.60377" cy="6.06962" rx="4.60377" ry="6.06962" transform="matrix(0 -1 -0.999983 0.00584628 311.857 357.197)" fill="#B471CC"/>
<path d="M304.114 351.874C304.916 352.745 305.832 353.565 306.812 354.285C307.791 355.006 308.813 355.614 309.821 356.074C310.828 356.534 311.8 356.837 312.683 356.966C313.565 357.095 314.339 357.048 314.961 356.827C315.584 356.606 316.042 356.215 316.311 355.677C316.579 355.139 316.652 354.465 316.525 353.692C316.398 352.919 316.074 352.064 315.571 351.174C315.068 350.284 314.397 349.377 313.594 348.506" stroke="#AAC4E5" stroke-width="0.435428"/>
<path d="M303.68 352.325C304.478 353.201 305.393 354.022 306.373 354.741C307.354 355.459 308.381 356.061 309.395 356.512C310.409 356.963 311.391 357.254 312.285 357.369C313.178 357.484 313.966 357.42 314.602 357.181C315.239 356.943 315.712 356.533 315.995 355.977C316.278 355.421 316.365 354.729 316.252 353.94C316.138 353.151 315.825 352.281 315.332 351.38C314.839 350.479 314.175 349.564 313.377 348.687" stroke="#799DCB" stroke-width="1.04503"/>
<path d="M304.264 352.031C303.454 351.176 302.774 350.283 302.263 349.404C301.752 348.525 301.419 347.677 301.283 346.908C301.148 346.14 301.212 345.465 301.473 344.924C301.734 344.382 302.186 343.984 302.804 343.752C303.422 343.52 304.193 343.459 305.073 343.572C305.954 343.685 306.927 343.97 307.936 344.41C308.945 344.851 309.971 345.439 310.955 346.14" stroke="#AAC4E5" stroke-width="0.435428"/>
<path d="M303.842 352.501C303.041 351.627 302.374 350.714 301.878 349.814C301.382 348.914 301.067 348.046 300.951 347.257C300.834 346.469 300.919 345.776 301.2 345.219C301.482 344.662 301.954 344.251 302.59 344.011C303.226 343.77 304.013 343.703 304.907 343.815C305.801 343.927 306.783 344.215 307.799 344.663C308.815 345.111 309.843 345.709 310.826 346.425" stroke="#799DCB" stroke-width="1.04503"/>
<path d="M313.061 346.543C313.09 346.467 313.01 346.396 312.939 346.435L312.255 346.808C312.233 346.82 312.206 346.822 312.183 346.813L311.456 346.533C311.38 346.504 311.31 346.585 311.349 346.656L311.719 347.345C311.731 347.368 311.733 347.394 311.724 347.418L311.446 348.15C311.418 348.226 311.498 348.297 311.569 348.258L312.253 347.885C312.275 347.872 312.301 347.871 312.325 347.88L313.052 348.16C313.127 348.189 313.198 348.108 313.159 348.037L312.788 347.348C312.776 347.325 312.774 347.298 312.783 347.275L313.061 346.543Z" fill="#B471CC"/>
<path d="M163.314 522.405H166.621L170.861 380.846H166.507L163.314 522.405Z" fill="#263238"/>
<path opacity="0.6" d="M163.314 522.405H166.621L170.861 380.846H166.507L163.314 522.405Z" fill="white"/>
<path d="M216.521 380.846V522.405H213.025L208.911 387.308H166.785L163.706 522.405H160.248V380.846H216.521Z" fill="#263238"/>
<path opacity="0.4" d="M216.521 380.846V522.405H213.025L208.911 387.308H166.785L163.706 522.405H160.248V380.846H216.521Z" fill="white"/>
<path d="M216.521 522.405H219.815L220.875 380.846H216.521V522.405Z" fill="#263238"/>
<path opacity="0.6" d="M216.521 522.405H219.815L220.875 380.846H216.521V522.405Z" fill="white"/>
<path d="M342.393 522.405H345.686L349.939 380.846H345.573L342.393 522.405Z" fill="#263238"/>
<path opacity="0.6" d="M342.393 522.405H345.686L349.939 380.846H345.573L342.393 522.405Z" fill="white"/>
<path d="M395.586 380.846V522.405H392.103L387.989 387.308H345.863L342.784 522.405H339.326V380.846H395.586Z" fill="#263238"/>
<path opacity="0.4" d="M395.586 380.846V522.405H392.103L387.989 387.308H345.863L342.784 522.405H339.326V380.846H395.586Z" fill="white"/>
<path d="M395.586 522.405H398.892L399.952 380.846H395.586V522.405Z" fill="#263238"/>
<path opacity="0.6" d="M395.586 522.405H398.892L399.952 380.846H395.586V522.405Z" fill="white"/>
<path d="M219.247 380.834H405.732V372.694H219.247V380.834Z" fill="#263238"/>
<path opacity="0.5" d="M219.247 380.834H405.732V372.694H219.247V380.834Z" fill="white"/>
<path d="M154.47 380.834H224.309V372.694H154.47V380.834Z" fill="#263238"/>
<path opacity="0.3" d="M154.47 380.834H224.309V372.694H154.47V380.834Z" fill="white"/>
<path d="M369.766 325.924L372.984 320.081L377.338 326.101C377.338 326.101 374.157 331.149 371.633 329.395L369.766 325.924Z" fill="url(#paint17_linear_1022_13069)"/>
<path d="M378.726 316.8L380.682 323.223L377.312 326.101L372.996 320.081L378.726 316.8Z" fill="url(#paint18_linear_1022_13069)"/>
<path d="M368.984 337.27L369.792 325.924L374.058 326.745V338.153L368.984 337.27Z" fill="#EBA69C"/>
<path d="M314.113 474.55L320.638 477.099L325.32 468.265L329.585 460.239L322.354 455.897L317.988 465.766L314.113 474.55Z" fill="url(#paint19_linear_1022_13069)"/>
<path d="M319.35 460.945L328.184 465.703C328.184 465.703 361.69 406.806 366.839 407.298C371.988 407.79 420.852 438.936 435.757 427.427C450.661 415.917 436.16 381.301 436.16 381.301C436.16 381.301 405.33 372.467 401.985 379.269C401.119 381.281 400.381 383.347 399.777 385.453C399.121 387.573 398.628 389.365 398.628 389.365C397.695 388.986 367.243 376.505 353.651 383.194C339.845 389.958 319.35 460.945 319.35 460.945Z" fill="url(#paint20_linear_1022_13069)"/>
<path d="M367.507 508.977L374.461 508.182L374.486 498.377L374.499 489.378L366.094 488.975L366.838 499.575L367.507 508.977Z" fill="url(#paint21_linear_1022_13069)"/>
<path d="M412.763 427.528C412.763 427.528 410.631 427.276 377.856 421.218C377.856 421.218 377.112 463.142 375.56 494.414L365.464 494.742C365.464 494.742 350.988 425.294 352.692 414.883C354.396 404.471 366.852 402.995 366.852 402.995C366.852 402.995 388.482 419.804 412.763 427.528Z" fill="url(#paint22_linear_1022_13069)"/>
<path d="M301.164 486.11C302.248 485.769 303.388 485.64 304.521 485.731C304.521 485.731 308.736 483.964 313.809 475.635L318.151 476.216C320.284 476.493 323.199 478.942 322.669 480.936C321.684 485.138 318.302 488.71 316.498 492.609L315.791 492.319L318.012 486.009C318.757 483.863 316.157 485.668 314.781 487.75C313.406 489.833 311.45 491.814 306.818 490.072C301.417 487.978 299.271 486.867 301.164 486.11Z" fill="#A60D53"/>
<path d="M314.92 473.376C314.92 473.376 307.942 483.964 304.521 485.731C304.521 485.731 308.307 488.798 313.482 483.838C320.095 477.44 321.218 477.742 321.218 477.742C321.247 477.118 321.183 476.493 321.028 475.887C320.549 473.452 314.92 473.376 314.92 473.376Z" fill="url(#paint23_linear_1022_13069)"/>
<path d="M357.146 521.307C358.125 520.726 359.203 520.333 360.326 520.146C360.326 520.146 363.986 517.433 366.939 508.107L371.293 507.627C374.877 507.236 376.997 509.369 376.82 511.956C376.82 515.25 373.577 523.945 373.577 523.945L372.82 523.844L373.489 517.206C373.703 514.947 371.608 517.319 370.763 519.654C369.917 521.989 368.491 524.412 363.569 523.806C357.789 523.074 355.455 522.468 357.146 521.307Z" fill="#A60D53"/>
<path d="M367.457 505.684C367.457 505.684 363.192 517.622 360.289 520.146C360.289 520.146 364.744 522.216 368.53 516.183C373.439 508.397 375.408 508.611 375.408 508.611C374.829 508.028 374.347 507.354 373.982 506.617C372.884 504.434 367.457 505.684 367.457 505.684Z" fill="url(#paint24_linear_1022_13069)"/>
<path d="M393.188 326.126C393.104 326.2 393.011 326.264 392.911 326.315C391.545 327.261 390.005 327.926 388.38 328.271C383.635 329.117 380.467 328.271 378.486 326.101C375.722 322.782 375.268 317.115 375.962 310.338C376.161 307.639 376.792 304.989 377.83 302.489C377.83 302.489 377.83 302.388 377.83 302.362C377.83 302.337 377.918 302.161 377.956 302.085C378.598 300.674 379.583 299.447 380.822 298.517C382.062 297.586 383.515 296.982 385.048 296.759C386.381 296.522 387.735 296.433 389.087 296.494C402.401 297.012 403.713 319.059 393.188 326.126Z" fill="url(#paint25_linear_1022_13069)"/>
<path d="M377.868 302.4C377.868 302.4 376.682 311.651 385.288 316.068C385.288 316.068 388.595 325.899 394.122 326.303C401.694 326.858 408.913 316.396 406.831 305.278C404.143 290.853 382.6 288.644 377.868 302.4Z" fill="url(#paint26_linear_1022_13069)"/>
<path d="M380.961 313.178C381.036 311.727 382.324 309.392 384.557 309.796C386.791 310.2 387.876 316.106 382.033 317.065C381.264 317.204 380.809 316.207 380.961 313.178Z" fill="#E4897B"/>
<path d="M394.528 293.314C394.528 293.314 385.77 290.639 380.646 293.958C374.727 297.845 372.342 302.047 378.791 309.102C378.791 309.102 393.935 305.013 398.806 306.275C401.666 307 404.46 307.963 407.16 309.152C408.738 299.321 399.563 291.522 394.528 293.314Z" fill="url(#paint27_linear_1022_13069)"/>
<path d="M386.172 327.363C386.172 327.363 392.684 330.543 390.778 337.522L407.373 330.644C407.373 330.644 398.325 330.076 398.779 323.716C398.792 323.69 389.314 320.056 386.172 327.363Z" fill="url(#paint28_linear_1022_13069)"/>
<path d="M404.03 305.404C404.03 305.404 407.311 295.977 414.732 297.605C422.153 299.233 421.597 307.209 416.284 309.67C410.971 312.131 403.525 311.184 404.03 305.404Z" fill="#1C1955"/>
<path d="M412.8 309.96C412.8 309.96 419.388 309.96 418.58 315.563C418.224 314.484 417.495 313.566 416.523 312.976C416.523 312.976 418.517 314.503 416.523 317.153C416.523 317.153 417.318 315.424 414.605 314.225C411.892 313.026 404.421 313.14 405.771 309.455C407.121 305.77 412.8 309.96 412.8 309.96Z" fill="#1C1955"/>
<path d="M406.239 330.152L402.188 327.25C402.188 327.25 388.899 329.042 388.76 337.522C388.622 346.003 406.239 330.152 406.239 330.152Z" fill="url(#paint29_linear_1022_13069)"/>
<path d="M408.662 330.152C408.662 330.152 398.692 328.234 384.823 337.522C384.823 337.522 380.179 357.84 399.803 385.478L437.032 383.143C437.032 383.143 426.949 342.431 408.662 330.152Z" fill="url(#paint30_linear_1022_13069)"/>
<path d="M395.334 344.753C388.747 356.628 381.78 368.289 374.663 379.862C373.989 380.936 372.977 381.755 371.787 382.191C370.597 382.627 369.295 382.655 368.087 382.271C366.879 381.886 365.833 381.111 365.114 380.068C364.394 379.024 364.042 377.771 364.112 376.505C364.592 368.933 365.185 361.285 365.841 353.663C366.498 346.04 367.28 338.443 368.264 330.846C368.372 330.076 368.76 329.374 369.355 328.874C369.95 328.375 370.708 328.113 371.484 328.14C372.261 328.166 373 328.479 373.559 329.019C374.118 329.558 374.457 330.285 374.511 331.06C375.433 346.318 375.634 361.613 375.609 376.896L364.87 373.855C369.552 364.907 374.398 356.048 379.332 347.252C381.011 344.336 382.639 341.396 384.38 338.506C388.772 331.603 399.032 337.459 395.347 344.753H395.334Z" fill="url(#paint31_linear_1022_13069)"/>
<path d="M463.419 522.973L431.604 511.261L399.448 522.985C399.192 523.078 398.917 523.108 398.647 523.073C398.376 523.037 398.118 522.938 397.894 522.782C397.671 522.626 397.487 522.419 397.36 522.177C397.233 521.936 397.166 521.668 397.164 521.395C397.164 521.07 397.257 520.751 397.431 520.476C397.605 520.201 397.854 519.982 398.148 519.843L431.604 504.32L464.732 519.843C465.023 519.981 465.268 520.2 465.44 520.472C465.612 520.745 465.703 521.06 465.703 521.383C465.704 521.656 465.639 521.926 465.513 522.169C465.386 522.412 465.203 522.621 464.978 522.777C464.754 522.933 464.494 523.033 464.223 523.067C463.951 523.101 463.675 523.069 463.419 522.973Z" fill="#263238"/>
<path opacity="0.3" d="M463.419 522.973L431.604 511.261L399.448 522.985C399.192 523.078 398.917 523.108 398.647 523.073C398.376 523.037 398.118 522.938 397.894 522.782C397.671 522.626 397.487 522.419 397.36 522.177C397.233 521.936 397.166 521.668 397.164 521.395C397.164 521.07 397.257 520.751 397.431 520.476C397.605 520.201 397.854 519.982 398.148 519.843L431.604 504.32L464.732 519.843C465.023 519.981 465.268 520.2 465.44 520.472C465.612 520.745 465.703 521.06 465.703 521.383C465.704 521.656 465.639 521.926 465.513 522.169C465.386 522.412 465.203 522.621 464.978 522.777C464.754 522.933 464.494 523.033 464.223 523.067C463.951 523.101 463.675 523.069 463.419 522.973Z" fill="white"/>
<path opacity="0.2" d="M424.107 514L431.604 511.261L438.759 513.899V507.677L431.604 504.32L424.107 507.803V514Z" fill="black"/>
<path d="M431.441 523.25C430.743 523.251 430.069 522.994 429.55 522.528C429.03 522.062 428.701 521.42 428.627 520.726L427.73 511.299V433.055H435.151V511.299L434.255 520.726C434.178 521.419 433.848 522.059 433.329 522.525C432.81 522.99 432.138 523.248 431.441 523.25Z" fill="#263238"/>
<path opacity="0.3" d="M431.441 523.25C430.743 523.251 430.069 522.994 429.55 522.528C429.03 522.062 428.701 521.42 428.627 520.726L427.73 511.299V433.055H435.151V511.299L434.255 520.726C434.178 521.419 433.848 522.059 433.329 522.525C432.81 522.99 432.138 523.248 431.441 523.25Z" fill="white"/>
<path opacity="0.2" d="M435.151 433.005H427.73V442.117H435.151V433.005Z" fill="black"/>
<path d="M483.043 425.874C474.647 423.736 466.036 422.55 457.374 422.341C448.465 422.114 415.097 422.341 407.172 422.341C397.511 422.335 387.888 423.534 378.524 425.912C372.644 427.414 374.461 435.907 379.786 436.008H481.478C487.031 436.21 489.05 427.414 483.043 425.874Z" fill="#407BFF"/>
<path opacity="0.3" d="M483.043 425.874C474.647 423.736 466.036 422.55 457.374 422.341C448.465 422.114 415.097 422.341 407.172 422.341C397.511 422.335 387.888 423.534 378.524 425.912C372.644 427.414 374.461 435.907 379.786 436.008H481.478C487.031 436.21 489.05 427.414 483.043 425.874Z" fill="black"/>
<path d="M381.25 435.781C398.261 431.465 416.081 431.465 433.093 435.781C439.491 437.422 442.23 427.515 435.819 425.875C417.018 421.104 397.324 421.104 378.524 425.875C372.126 427.503 374.839 437.422 381.25 435.781Z" fill="#407BFF"/>
<g opacity="0.3">
<path d="M381.25 435.781C398.261 431.465 416.081 431.465 433.093 435.781C439.491 437.422 442.23 427.515 435.819 425.875C417.018 421.104 397.324 421.104 378.524 425.875C372.126 427.503 374.839 437.422 381.25 435.781Z" fill="white"/>
</g>
<path d="M456.063 352.363C455.487 352.351 454.918 352.498 454.42 352.787C453.921 353.076 453.512 353.497 453.236 354.004C439.655 376.753 434.777 403.654 439.506 429.724C439.569 430.391 439.87 431.014 440.354 431.477C440.838 431.941 441.474 432.214 442.143 432.248C444.2 432.386 480.824 432.248 482.149 432.248C482.705 432.265 483.259 432.156 483.767 431.928C484.275 431.701 484.726 431.362 485.084 430.935C485.442 430.509 485.699 430.007 485.836 429.467C485.972 428.927 485.984 428.363 485.872 427.818C481.602 403.549 486.231 378.554 498.908 357.424C499.197 356.898 499.342 356.305 499.329 355.705C499.315 355.105 499.144 354.52 498.831 354.007C498.519 353.495 498.076 353.074 497.549 352.788C497.022 352.501 496.429 352.359 495.829 352.376C494.769 352.35 458.398 352.413 456.063 352.363Z" fill="#407BFF"/>
<path opacity="0.2" d="M456.063 352.363C455.487 352.351 454.918 352.498 454.42 352.787C453.921 353.076 453.512 353.497 453.236 354.004C439.655 376.753 434.777 403.654 439.506 429.724C439.569 430.391 439.87 431.014 440.354 431.477C440.838 431.941 441.474 432.214 442.143 432.248C444.2 432.386 480.824 432.248 482.149 432.248C482.705 432.265 483.259 432.156 483.767 431.928C484.275 431.701 484.726 431.362 485.084 430.935C485.442 430.509 485.699 430.007 485.836 429.467C485.972 428.927 485.984 428.363 485.872 427.818C481.602 403.549 486.231 378.554 498.908 357.424C499.197 356.898 499.342 356.305 499.329 355.705C499.315 355.105 499.144 354.52 498.831 354.007C498.519 353.495 498.076 353.074 497.549 352.788C497.022 352.501 496.429 352.359 495.829 352.376C494.769 352.35 458.398 352.413 456.063 352.363Z" fill="black"/>
<path d="M446.106 427.818C441.837 403.549 446.465 378.554 459.142 357.423C461.427 353.637 455.508 350.18 453.236 353.966C439.655 376.715 434.777 403.616 439.506 429.686C440.288 434.027 446.888 432.209 446.106 427.868V427.818Z" fill="#407BFF"/>
<g opacity="0.2">
<path d="M446.106 427.818C441.837 403.549 446.465 378.554 459.142 357.423C461.427 353.637 455.508 350.18 453.236 353.966C439.655 376.715 434.777 403.616 439.506 429.686C440.288 434.027 446.888 432.209 446.106 427.868V427.818Z" fill="white"/>
</g>
<path d="M497.491 228.687H467.203C467.089 228.687 466.98 228.642 466.899 228.561C466.819 228.481 466.773 228.371 466.773 228.258C466.773 228.144 466.819 228.035 466.899 227.954C466.98 227.874 467.089 227.829 467.203 227.829H497.491C497.604 227.829 497.713 227.874 497.794 227.954C497.874 228.035 497.92 228.144 497.92 228.258C497.92 228.371 497.874 228.481 497.794 228.561C497.713 228.642 497.604 228.687 497.491 228.687Z" fill="#263238"/>
<path d="M492.316 238.707H467.076C466.962 238.707 466.853 238.662 466.772 238.582C466.692 238.501 466.646 238.392 466.646 238.278C466.646 238.164 466.692 238.055 466.772 237.975C466.853 237.894 466.962 237.849 467.076 237.849H492.316C492.429 237.849 492.538 237.894 492.619 237.975C492.699 238.055 492.745 238.164 492.745 238.278C492.745 238.392 492.699 238.501 492.619 238.582C492.538 238.662 492.429 238.707 492.316 238.707Z" fill="#263238"/>
<path d="M502.614 248.727H467.126C467.013 248.727 466.903 248.682 466.823 248.602C466.742 248.521 466.697 248.412 466.697 248.298C466.697 248.184 466.742 248.075 466.823 247.995C466.903 247.914 467.013 247.869 467.126 247.869H502.614C502.728 247.869 502.837 247.914 502.917 247.995C502.998 248.075 503.043 248.184 503.043 248.298C503.043 248.412 502.998 248.521 502.917 248.602C502.837 248.682 502.728 248.727 502.614 248.727Z" fill="#263238"/>
<path d="M497.491 258.71H467.203C467.089 258.71 466.98 258.665 466.899 258.584C466.819 258.504 466.773 258.394 466.773 258.281C466.773 258.167 466.819 258.058 466.899 257.977C466.98 257.897 467.089 257.852 467.203 257.852H497.491C497.604 257.852 497.713 257.897 497.794 257.977C497.874 258.058 497.92 258.167 497.92 258.281C497.92 258.394 497.874 258.504 497.794 258.584C497.713 258.665 497.604 258.71 497.491 258.71Z" fill="#263238"/>
<path d="M499.181 268.806H467.126C467.013 268.806 466.903 268.761 466.823 268.68C466.742 268.6 466.697 268.491 466.697 268.377C466.697 268.263 466.742 268.154 466.823 268.073C466.903 267.993 467.013 267.948 467.126 267.948H499.181C499.295 267.948 499.404 267.993 499.485 268.073C499.565 268.154 499.61 268.263 499.61 268.377C499.61 268.491 499.565 268.6 499.485 268.68C499.404 268.761 499.295 268.806 499.181 268.806Z" fill="#263238"/>
<path d="M459.884 225.292H453.775V231.236H459.884V225.292Z" fill="#263238"/>
<path d="M459.884 235.312H453.775V241.257H459.884V235.312Z" fill="#263238"/>
<path d="M459.884 245.333H453.775V251.277H459.884V245.333Z" fill="#407BFF"/>
<path d="M459.884 255.353H453.775V261.297H459.884V255.353Z" fill="#407BFF"/>
<path d="M459.884 265.374H453.775V271.318H459.884V265.374Z" fill="#407BFF"/>
<path opacity="0.4" d="M459.884 235.312H453.775V241.257H459.884V235.312Z" fill="white"/>
<path opacity="0.4" d="M459.884 255.353H453.775V261.297H459.884V255.353Z" fill="white"/>
<path opacity="0.6" d="M459.884 265.374H453.775V271.318H459.884V265.374Z" fill="white"/>
<path d="M505.277 281.577H396.353C393.533 281.574 390.829 280.452 388.835 278.458C386.84 276.463 385.718 273.759 385.715 270.939V222.465C385.718 219.645 386.84 216.941 388.835 214.946C390.829 212.952 393.533 211.83 396.353 211.827H505.277C508.097 211.83 510.801 212.952 512.796 214.946C514.79 216.941 515.912 219.645 515.915 222.465V270.939C515.912 273.759 514.79 276.463 512.796 278.458C510.801 280.452 508.097 281.574 505.277 281.577ZM396.353 213.089C393.869 213.095 391.488 214.085 389.731 215.842C387.974 217.599 386.984 219.981 386.977 222.465V270.939C386.98 273.425 387.969 275.808 389.727 277.565C391.485 279.323 393.868 280.312 396.353 280.315H505.277C506.508 280.315 507.727 280.073 508.865 279.602C510.003 279.13 511.036 278.44 511.907 277.569C512.778 276.698 513.468 275.665 513.94 274.527C514.411 273.389 514.653 272.17 514.653 270.939V222.465C514.65 219.979 513.661 217.596 511.903 215.839C510.146 214.081 507.763 213.092 505.277 213.089H396.353Z" fill="#407BFF"/>
<path d="M285.69 240.373H282.258V303.195H285.69V240.373Z" fill="#407BFF"/>
<path opacity="0.2" d="M285.69 240.373H282.258V303.195H285.69V240.373Z" fill="black"/>
<path d="M291.396 254.318H287.963V303.196H291.396V254.318Z" fill="#263238"/>
<path opacity="0.4" d="M291.396 254.318H287.963V303.196H291.396V254.318Z" fill="white"/>
<path d="M274.282 277.577H270.85V303.195H274.282V277.577Z" fill="#407BFF"/>
<path d="M279.987 268.276H276.555V303.195H279.987V268.276Z" fill="#407BFF"/>
<path d="M297.099 249.674H293.666V303.195H297.099V249.674Z" fill="#263238"/>
<path opacity="0.4" d="M291.396 260.616H287.963V303.196H291.396V260.616Z" fill="white"/>
<path opacity="0.4" d="M297.099 258.003H293.666V303.196H297.099V258.003Z" fill="white"/>
<path d="M285.69 245.913H282.258V303.195H285.69V245.913Z" fill="#407BFF"/>
<path opacity="0.4" d="M279.987 280.669H276.555V303.196H279.987V280.669Z" fill="white"/>
<path opacity="0.2" d="M274.282 277.577H270.85V303.195H274.282V277.577Z" fill="white"/>
<path opacity="0.4" d="M274.282 283.407H270.85V303.195H274.282V283.407Z" fill="white"/>
<path d="M298.917 303.41H269.033C268.976 303.41 268.921 303.387 268.881 303.347C268.841 303.307 268.818 303.252 268.818 303.195C268.818 303.139 268.841 303.084 268.881 303.044C268.921 303.004 268.976 302.981 269.033 302.981H298.917C298.974 302.981 299.029 303.004 299.069 303.044C299.109 303.084 299.132 303.139 299.132 303.195C299.132 303.252 299.109 303.307 299.069 303.347C299.029 303.387 298.974 303.41 298.917 303.41Z" fill="#263238"/>
<path d="M333.47 254.318H330.037V303.196H333.47V254.318Z" fill="#407BFF"/>
<path opacity="0.2" d="M333.47 254.318H330.037V303.196H333.47V254.318Z" fill="black"/>
<path d="M339.175 255.668H335.742V303.195H339.175V255.668Z" fill="#263238"/>
<path opacity="0.4" d="M339.175 255.668H335.742V303.195H339.175V255.668Z" fill="white"/>
<path d="M322.062 263.771H318.629V303.195H322.062V263.771Z" fill="#407BFF"/>
<path d="M327.767 262.635H324.334V303.195H327.767V262.635Z" fill="#407BFF"/>
<path d="M344.878 267.683H341.445V303.195H344.878V267.683Z" fill="#263238"/>
<path opacity="0.4" d="M339.175 261.789H335.742V303.195H339.175V261.789Z" fill="white"/>
<path opacity="0.4" d="M344.878 273.21H341.445V303.196H344.878V273.21Z" fill="white"/>
<path d="M333.47 258.634H330.037V303.195H333.47V258.634Z" fill="#407BFF"/>
<path opacity="0.4" d="M327.767 269.689H324.334V303.196H327.767V269.689Z" fill="white"/>
<path opacity="0.2" d="M322.062 263.771H318.629V303.195H322.062V263.771Z" fill="white"/>
<path opacity="0.4" d="M322.062 272.743H318.629V303.195H322.062V272.743Z" fill="white"/>
<path d="M346.696 303.41H316.761C316.705 303.41 316.65 303.387 316.61 303.347C316.569 303.307 316.547 303.252 316.547 303.195C316.547 303.139 316.569 303.084 316.61 303.044C316.65 303.004 316.705 302.981 316.761 302.981H346.646C346.702 302.981 346.757 303.004 346.797 303.044C346.837 303.084 346.86 303.139 346.86 303.195C346.86 303.252 346.837 303.307 346.797 303.347C346.757 303.387 346.702 303.41 346.646 303.41H346.696Z" fill="#263238"/>
<path d="M351.227 316.926H265.348C262.527 316.923 259.823 315.801 257.829 313.806C255.834 311.812 254.712 309.108 254.709 306.287V240.133C254.712 237.313 255.834 234.609 257.829 232.614C259.823 230.62 262.527 229.498 265.348 229.495H351.227C354.047 229.498 356.751 230.62 358.746 232.614C360.74 234.609 361.862 237.313 361.865 240.133V306.287C361.862 309.108 360.74 311.812 358.746 313.806C356.751 315.801 354.047 316.923 351.227 316.926ZM265.348 230.757C262.863 230.763 260.482 231.753 258.725 233.51C256.968 235.267 255.978 237.648 255.971 240.133V306.287C255.974 308.773 256.963 311.156 258.721 312.914C260.479 314.672 262.862 315.661 265.348 315.664H351.227C353.713 315.661 356.096 314.672 357.853 312.914C359.611 311.156 360.6 308.773 360.603 306.287V240.133C360.597 237.648 359.607 235.267 357.85 233.51C356.093 231.753 353.712 230.763 351.227 230.757H265.348Z" fill="#407BFF"/>
<g opacity="0.2">
<path d="M439.504 186.826H352.312V137.937H353.019V186.12H439.504V186.826Z" fill="black"/>
</g>
<path opacity="0.2" d="M360.654 178.712H356.881V185.779H360.654V178.712Z" fill="black"/>
<path d="M360.654 178.712H356.881V180.769H360.654V178.712Z" fill="#407BFF"/>
<path opacity="0.2" d="M368.34 167.417H364.566V185.779H368.34V167.417Z" fill="black"/>
<path d="M368.34 167.417H364.566V172.768H368.34V167.417Z" fill="#407BFF"/>
<path opacity="0.2" d="M376.039 171.645H372.266V185.766H376.039V171.645Z" fill="black"/>
<path d="M376.039 171.645H372.266V175.759H376.039V171.645Z" fill="#407BFF"/>
<path opacity="0.2" d="M383.736 165.158H379.963V185.779H383.736V165.158Z" fill="black"/>
<path d="M383.736 165.158H379.963V171.165H383.736V165.158Z" fill="#407BFF"/>
<path opacity="0.2" d="M391.422 159.164H387.648V185.767H391.422V159.164Z" fill="black"/>
<path d="M391.422 159.164H387.648V166.912H391.422V159.164Z" fill="#407BFF"/>
<path opacity="0.2" d="M399.121 154.633H395.348V185.779H399.121V154.633Z" fill="black"/>
<path d="M399.121 154.633H395.348V163.694H399.121V154.633Z" fill="#407BFF"/>
<path opacity="0.2" d="M406.818 159.87H403.045V185.766H406.818V159.87Z" fill="black"/>
<path d="M406.818 159.87H403.045V167.417H406.818V159.87Z" fill="#407BFF"/>
<path opacity="0.2" d="M414.504 158.747H410.73V185.779H414.504V158.747Z" fill="black"/>
<path d="M414.504 158.747H410.73V166.622H414.504V158.747Z" fill="#407BFF"/>
<path opacity="0.2" d="M422.203 151.844H418.43V185.766H422.203V151.844Z" fill="black"/>
<path d="M422.203 151.844H418.43V161.725H422.203V151.844Z" fill="#407BFF"/>
<path opacity="0.2" d="M429.9 144.89H426.127V185.766H429.9V144.89Z" fill="black"/>
<path d="M429.9 144.89H426.127V156.791H429.9V144.89Z" fill="#407BFF"/>
<path opacity="0.2" d="M437.6 138.82H433.826V185.779H437.6V138.82Z" fill="black"/>
<path d="M437.6 138.82H433.826V152.488H437.6V138.82Z" fill="#407BFF"/>
<path opacity="0.2" d="M418.922 130.554H372.266V132.498H418.922V130.554Z" fill="black"/>
<path d="M442.066 199.308H349.12C346.298 199.304 343.593 198.183 341.597 196.189C339.6 194.195 338.475 191.491 338.469 188.669V123.739C338.475 120.918 339.6 118.214 341.597 116.219C343.593 114.225 346.298 113.104 349.12 113.101H442.066C444.887 113.104 447.591 114.226 449.585 116.22C451.58 118.215 452.702 120.919 452.705 123.739V188.669C452.702 191.49 451.58 194.194 449.585 196.188C447.591 198.183 444.887 199.304 442.066 199.308ZM349.12 114.363C346.632 114.363 344.246 115.35 342.485 117.108C340.725 118.866 339.734 121.251 339.731 123.739V188.669C339.734 191.157 340.725 193.542 342.485 195.3C344.246 197.058 346.632 198.046 349.12 198.046H442.066C444.553 198.046 446.938 197.058 448.697 195.299C450.455 193.541 451.443 191.156 451.443 188.669V123.739C451.443 121.252 450.455 118.867 448.697 117.109C446.938 115.35 444.553 114.363 442.066 114.363H349.12Z" fill="#407BFF"/>
<path d="M277.712 213.278H189.229C187.24 213.275 185.334 212.157 183.928 210.169C182.522 208.182 181.731 205.487 181.729 202.676V139.326C181.731 136.516 182.522 133.821 183.928 131.833C185.334 129.846 187.24 128.727 189.229 128.724H277.712C279.701 128.727 281.607 129.846 283.013 131.833C284.419 133.821 285.21 136.516 285.213 139.326V202.676C285.21 205.487 284.419 208.182 283.013 210.169C281.607 212.157 279.701 213.275 277.712 213.278ZM189.238 129.982C187.485 129.982 185.803 130.966 184.563 132.719C183.324 134.471 182.627 136.848 182.627 139.326V202.676C182.627 205.154 183.324 207.531 184.563 209.283C185.803 211.036 187.485 212.02 189.238 212.02H277.712C279.465 212.02 281.147 211.036 282.387 209.283C283.626 207.531 284.323 205.154 284.323 202.676V139.326C284.323 136.848 283.626 134.471 282.387 132.719C281.147 130.966 279.465 129.982 277.712 129.982H189.238Z" fill="#407BFF"/>
<defs>
<linearGradient id="paint0_linear_1022_13069" x1="255.5" y1="497" x2="268" y2="503" gradientUnits="userSpaceOnUse">
<stop offset="0.111999" stop-color="#BD635A"/>
<stop offset="0.651591" stop-color="#D77D74"/>
</linearGradient>
<linearGradient id="paint1_linear_1022_13069" x1="257.5" y1="434" x2="298" y2="456" gradientUnits="userSpaceOnUse">
<stop stop-color="#0F0963"/>
<stop offset="1" stop-color="#353F92"/>
</linearGradient>
<linearGradient id="paint2_linear_1022_13069" x1="233" y1="503.5" x2="246" y2="504" gradientUnits="userSpaceOnUse">
<stop stop-color="#B55B52"/>
<stop offset="1" stop-color="#DF847B"/>
</linearGradient>
<linearGradient id="paint3_linear_1022_13069" x1="228.002" y1="454" x2="271.502" y2="470.5" gradientUnits="userSpaceOnUse">
<stop stop-color="#0B045F"/>
<stop offset="0.706578" stop-color="#353F93"/>
</linearGradient>
<linearGradient id="paint4_linear_1022_13069" x1="277.327" y1="333.168" x2="277.327" y2="346.091" gradientUnits="userSpaceOnUse">
<stop stop-color="#B55B52"/>
<stop offset="1" stop-color="#D5837B"/>
</linearGradient>
<linearGradient id="paint5_linear_1022_13069" x1="277.327" y1="333.168" x2="277.327" y2="346.091" gradientUnits="userSpaceOnUse">
<stop stop-color="#B55B52"/>
<stop offset="1" stop-color="#D5837B"/>
</linearGradient>
<linearGradient id="paint6_linear_1022_13069" x1="236" y1="319.5" x2="260.5" y2="362" gradientUnits="userSpaceOnUse">
<stop stop-color="#262F7E"/>
<stop offset="1" stop-color="#0B0660"/>
</linearGradient>
<linearGradient id="paint7_linear_1022_13069" x1="212.524" y1="308.704" x2="240" y2="398.5" gradientUnits="userSpaceOnUse">
<stop stop-color="#2A3483"/>
<stop offset="1" stop-color="#0C0761"/>
</linearGradient>
<linearGradient id="paint8_linear_1022_13069" x1="210" y1="301.5" x2="209.533" y2="314.712" gradientUnits="userSpaceOnUse">
<stop stop-color="#BE5B51"/>
<stop offset="1" stop-color="#D27E76"/>
</linearGradient>
<linearGradient id="paint9_linear_1022_13069" x1="210.963" y1="310.679" x2="210.963" y2="347.239" gradientUnits="userSpaceOnUse">
<stop stop-color="#EF3187"/>
<stop offset="1" stop-color="#7C043A"/>
</linearGradient>
<linearGradient id="paint10_linear_1022_13069" x1="210.736" y1="307.31" x2="219.5" y2="349.5" gradientUnits="userSpaceOnUse">
<stop offset="0.282162" stop-color="#273180"/>
<stop offset="0.941649" stop-color="#1B2073"/>
</linearGradient>
<linearGradient id="paint11_linear_1022_13069" x1="210.228" y1="269.676" x2="210.228" y2="303.71" gradientUnits="userSpaceOnUse">
<stop stop-color="#DA8C85"/>
<stop offset="1" stop-color="#B95248"/>
</linearGradient>
<linearGradient id="paint12_linear_1022_13069" x1="195.5" y1="286" x2="202" y2="296" gradientUnits="userSpaceOnUse">
<stop stop-color="#BD5A50"/>
<stop offset="1" stop-color="#C5685F"/>
</linearGradient>
<linearGradient id="paint13_linear_1022_13069" x1="220" y1="260.5" x2="193" y2="275" gradientUnits="userSpaceOnUse">
<stop stop-color="#383483"/>
<stop offset="1" stop-color="#1C1955"/>
</linearGradient>
<linearGradient id="paint14_linear_1022_13069" x1="179.921" y1="314.781" x2="179.921" y2="364.382" gradientUnits="userSpaceOnUse">
<stop stop-color="#293482"/>
<stop offset="1" stop-color="#0D0862"/>
</linearGradient>
<linearGradient id="paint15_linear_1022_13069" x1="179.921" y1="314.781" x2="179.921" y2="364.382" gradientUnits="userSpaceOnUse">
<stop stop-color="#293482"/>
<stop offset="1" stop-color="#0D0862"/>
</linearGradient>
<linearGradient id="paint16_linear_1022_13069" x1="181.105" y1="347.936" x2="181.105" y2="361.511" gradientUnits="userSpaceOnUse">
<stop stop-color="#C96055"/>
<stop offset="1" stop-color="#D17E76"/>
</linearGradient>
<linearGradient id="paint17_linear_1022_13069" x1="375.224" y1="316.8" x2="375.224" y2="329.765" gradientUnits="userSpaceOnUse">
<stop stop-color="#E48C7E"/>
<stop offset="1" stop-color="#EDACA2"/>
</linearGradient>
<linearGradient id="paint18_linear_1022_13069" x1="375.224" y1="316.8" x2="375.224" y2="329.765" gradientUnits="userSpaceOnUse">
<stop stop-color="#E48C7E"/>
<stop offset="1" stop-color="#EDACA2"/>
</linearGradient>
<linearGradient id="paint19_linear_1022_13069" x1="319" y1="463.5" x2="325" y2="468.5" gradientUnits="userSpaceOnUse">
<stop stop-color="#EB8676"/>
<stop offset="1" stop-color="#EDA297"/>
</linearGradient>
<linearGradient id="paint20_linear_1022_13069" x1="413.5" y1="397.5" x2="325.5" y2="433" gradientUnits="userSpaceOnUse">
<stop offset="0.037534" stop-color="#0B035F"/>
<stop offset="0.455204" stop-color="#271E86"/>
<stop offset="1" stop-color="#2E358A"/>
</linearGradient>
<linearGradient id="paint21_linear_1022_13069" x1="365" y1="499" x2="376" y2="502" gradientUnits="userSpaceOnUse">
<stop stop-color="#E4897B"/>
<stop offset="1" stop-color="#F2ADA3"/>
</linearGradient>
<linearGradient id="paint22_linear_1022_13069" x1="415" y1="405" x2="360" y2="479.5" gradientUnits="userSpaceOnUse">
<stop offset="1.74517e-05" stop-color="#0A035F"/>
<stop offset="0.793481" stop-color="#2E358A"/>
</linearGradient>
<linearGradient id="paint23_linear_1022_13069" x1="320.5" y1="473.5" x2="305.5" y2="485" gradientUnits="userSpaceOnUse">
<stop stop-color="#EDA297"/>
<stop offset="1" stop-color="#EA8576"/>
</linearGradient>
<linearGradient id="paint24_linear_1022_13069" x1="374" y1="505" x2="363.5" y2="518" gradientUnits="userSpaceOnUse">
<stop stop-color="#EFA79C"/>
<stop offset="1" stop-color="#E68E80"/>
</linearGradient>
<linearGradient id="paint25_linear_1022_13069" x1="376" y1="306.5" x2="387.933" y2="328.594" gradientUnits="userSpaceOnUse">
<stop stop-color="#EFB2A8"/>
<stop offset="1" stop-color="#E4897B"/>
</linearGradient>
<linearGradient id="paint26_linear_1022_13069" x1="380" y1="306.5" x2="392.503" y2="326.324" gradientUnits="userSpaceOnUse">
<stop stop-color="#272367"/>
<stop offset="1" stop-color="#1C1955"/>
</linearGradient>
<linearGradient id="paint27_linear_1022_13069" x1="380" y1="296.5" x2="391.144" y2="309.152" gradientUnits="userSpaceOnUse">
<stop stop-color="#373381"/>
<stop offset="1" stop-color="#1C1955"/>
</linearGradient>
<linearGradient id="paint28_linear_1022_13069" x1="386" y1="324" x2="393" y2="330" gradientUnits="userSpaceOnUse">
<stop offset="0.238161" stop-color="#E48C7F"/>
<stop offset="1" stop-color="#EDACA2"/>
</linearGradient>
<linearGradient id="paint29_linear_1022_13069" x1="403" y1="331" x2="410.688" y2="385.478" gradientUnits="userSpaceOnUse">
<stop stop-color="#F03288"/>
<stop offset="1" stop-color="#AE1058"/>
</linearGradient>
<linearGradient id="paint30_linear_1022_13069" x1="403" y1="331" x2="410.688" y2="385.478" gradientUnits="userSpaceOnUse">
<stop stop-color="#F03288"/>
<stop offset="1" stop-color="#AE1058"/>
</linearGradient>
<linearGradient id="paint31_linear_1022_13069" x1="397.5" y1="334.5" x2="364" y2="378.5" gradientUnits="userSpaceOnUse">
<stop stop-color="#EF3187"/>
<stop offset="1" stop-color="#AF1058"/>
</linearGradient>
</defs>
</svg>
