<svg width="686" height="444" viewBox="0 0 686 444" fill="none" xmlns="http://www.w3.org/2000/svg">
<g clip-path="url(#clip0_395_6543)">
<ellipse cx="324.551" cy="426.975" rx="272.824" ry="1.018" fill="url(#paint0_linear_395_6543)"/>
<path fill-rule="evenodd" clip-rule="evenodd" d="M574.901 77H620.382C624.181 77 627.283 80.108 627.283 83.9132V161.442C627.283 165.247 624.195 168.355 620.382 168.355H574.901C571.102 168.355 568 165.262 568 161.442V83.9132C568 80.1078 571.088 77 574.901 77ZM624.818 90.7975H570.45V149.242H624.818V90.7975ZM620.382 79.4685H574.902C572.452 79.4685 570.451 81.4584 570.451 83.9131V88.3282H624.819V83.9131C624.819 81.4584 622.833 79.4685 620.382 79.4685ZM574.901 165.886H620.381C622.832 165.886 624.818 163.896 624.833 161.442V151.711H570.464V161.442C570.464 163.896 572.451 165.886 574.901 165.886ZM601.926 85.0448H591.719C591.038 85.0448 590.487 84.4932 590.487 83.8105C590.487 83.1278 591.038 82.5762 591.719 82.5762H601.926C602.608 82.5762 603.158 83.1278 603.158 83.8105C603.158 84.4932 602.608 85.0448 601.926 85.0448ZM649.291 93.1212C649.291 90.7247 647.348 88.7783 644.956 88.7783H635.967C633.575 88.7783 631.632 90.7247 631.632 93.1212V101.574C631.632 101.578 631.633 101.583 631.635 101.587L631.637 101.593C631.641 101.603 631.647 101.615 631.647 101.632V153.658C631.647 153.672 631.661 153.686 631.661 153.701C631.661 153.831 631.69 153.963 631.734 154.079C631.741 154.094 631.745 154.108 631.749 154.123C631.752 154.138 631.756 154.152 631.763 154.166C631.765 154.171 631.767 154.176 631.769 154.18C631.773 154.189 631.775 154.196 631.778 154.203C631.781 154.214 631.785 154.225 631.791 154.239L637.953 165.771C638.447 166.686 639.403 167.267 640.432 167.267C641.476 167.267 642.419 166.7 642.911 165.785L649.117 154.253C649.132 154.238 649.132 154.224 649.132 154.195C649.154 154.16 649.168 154.116 649.181 154.077L649.186 154.061L649.19 154.049C649.218 153.963 649.233 153.861 649.248 153.759L649.248 153.759C649.248 153.745 649.251 153.727 649.255 153.708C649.259 153.69 649.262 153.672 649.262 153.658V101.619C649.262 101.613 649.265 101.607 649.268 101.6C649.272 101.59 649.277 101.578 649.277 101.561V93.1222L649.291 93.1212ZM634.097 152.408V102.808H639.229V152.408H634.097ZM646.812 152.408H641.68V102.808H646.812V152.408ZM634.083 93.1212C634.083 92.0901 634.924 91.2477 635.953 91.2477H644.942C645.971 91.2477 646.812 92.0902 646.812 93.1212V100.339H634.068V93.1212H634.083ZM640.751 164.594C640.665 164.753 640.534 164.782 640.432 164.782C640.331 164.782 640.2 164.753 640.113 164.594L634.923 154.877H645.971L640.751 164.594ZM619.005 94.6318H576.264C575.583 94.6318 575.032 95.1835 575.032 95.8662V111.973C575.032 112.656 575.583 113.208 576.264 113.208H619.005C619.686 113.208 620.237 112.656 620.237 111.973V95.8668C620.237 95.1841 619.686 94.6318 619.005 94.6318ZM594.139 103.927L577.495 110.187V97.6534L594.139 103.927ZM583.033 97.1012H612.218L597.619 102.605L583.033 97.1012ZM597.634 105.249L612.233 110.754H583.033L597.634 105.249ZM601.142 103.928L617.786 97.653V110.187L601.142 103.928ZM593.357 117.811H576.262C575.581 117.811 575.03 118.362 575.03 119.045V131.928C575.03 132.611 575.581 133.162 576.262 133.162H593.357C594.038 133.162 594.589 132.611 594.589 131.928V119.046C594.589 118.363 594.038 117.811 593.357 117.811ZM592.124 130.694H577.495V120.28H592.124V130.694ZM601.911 117.811H619.005L619.006 117.811C619.687 117.811 620.238 118.363 620.238 119.046L620.237 131.928C620.237 132.611 619.686 133.162 619.005 133.162H601.911C601.229 133.162 600.679 132.611 600.679 131.928V119.045C600.679 118.362 601.229 117.811 601.911 117.811ZM603.144 130.694H617.772V120.28H603.144V130.694ZM593.357 137.769H576.262C575.581 137.769 575.03 138.32 575.03 139.003C575.03 139.686 575.581 140.237 576.262 140.237H593.357C594.038 140.237 594.589 139.686 594.589 139.003C594.589 138.321 594.038 137.769 593.357 137.769ZM576.262 142.764H586.687C587.368 142.764 587.919 143.316 587.919 143.998C587.919 144.681 587.368 145.232 586.687 145.232H576.262C575.581 145.232 575.03 144.681 575.03 143.998C575.03 143.315 575.581 142.764 576.262 142.764ZM619.005 137.769H601.911C601.229 137.769 600.679 138.32 600.679 139.003C600.679 139.686 601.229 140.237 601.911 140.237H619.005C619.686 140.237 620.237 139.686 620.237 139.003C620.238 138.321 619.687 137.769 619.006 137.769H619.005ZM601.925 142.764H612.349C613.031 142.764 613.581 143.316 613.581 143.998C613.581 144.681 613.031 145.232 612.349 145.232H601.925C601.243 145.232 600.692 144.681 600.692 143.998C600.692 143.315 601.243 142.764 601.925 142.764ZM597.634 154.746C595.401 154.746 593.589 156.561 593.589 158.798C593.589 161.035 595.401 162.85 597.634 162.85C599.866 162.85 601.679 161.035 601.679 158.798C601.693 156.562 599.867 154.746 597.634 154.746ZM597.634 160.382C596.764 160.382 596.053 159.67 596.053 158.798C596.053 157.927 596.763 157.215 597.634 157.215C598.503 157.215 599.214 157.926 599.214 158.798C599.228 159.67 598.503 160.382 597.634 160.382Z" fill="url(#paint1_linear_395_6543)"/>
<path d="M570.45 90.7975V90.604H570.256V90.7975H570.45ZM624.818 90.7975H625.012V90.604H624.818V90.7975ZM570.45 149.242H570.256V149.435H570.45V149.242ZM624.818 149.242V149.435H625.012V149.242H624.818ZM570.451 88.3282H570.257V88.5217H570.451V88.3282ZM624.819 88.3282V88.5217H625.013V88.3282H624.819ZM624.833 161.442L625.026 161.443V161.442H624.833ZM624.833 151.711H625.026V151.517H624.833V151.711ZM570.464 151.711V151.517H570.271V151.711H570.464ZM649.291 93.1212L649.305 93.3142L649.485 93.301V93.1212H649.291ZM631.635 101.587L631.454 101.656L631.455 101.66L631.635 101.587ZM631.637 101.593L631.458 101.667L631.459 101.669L631.637 101.593ZM631.734 154.079L631.553 154.147L631.557 154.157L631.562 154.167L631.734 154.079ZM631.749 154.123L631.561 154.17L631.561 154.17L631.749 154.123ZM631.763 154.166L631.589 154.251L631.59 154.254L631.763 154.166ZM631.769 154.18L631.591 154.255L631.591 154.255L631.769 154.18ZM631.778 154.203L631.594 154.264L631.594 154.264L631.778 154.203ZM631.791 154.239L631.616 154.322L631.621 154.33L631.791 154.239ZM637.953 165.771L637.783 165.862L637.783 165.863L637.953 165.771ZM642.911 165.785L643.082 165.877L643.082 165.877L642.911 165.785ZM649.117 154.253L648.98 154.116L648.96 154.136L648.946 154.161L649.117 154.253ZM649.132 154.195L648.97 154.088L648.938 154.136V154.195H649.132ZM649.181 154.077L648.996 154.018L648.996 154.019L649.181 154.077ZM649.186 154.061L649.002 154.001L649.001 154.002L649.186 154.061ZM649.19 154.049L649.006 153.989L649.006 153.989L649.19 154.049ZM649.248 153.759L649.439 153.787L649.44 153.781L649.248 153.759ZM649.248 153.759L649.44 153.781L649.441 153.77V153.759H649.248ZM649.255 153.708L649.065 153.67L649.065 153.67L649.255 153.708ZM649.268 101.6L649.446 101.675L649.446 101.675L649.268 101.6ZM649.277 93.1222L649.263 92.9292L649.083 92.9425V93.1222H649.277ZM634.097 102.808V102.614H633.903V102.808H634.097ZM634.097 152.408H633.903V152.601H634.097V152.408ZM639.229 102.808H639.422V102.614H639.229V102.808ZM639.229 152.408V152.601H639.422V152.408H639.229ZM641.68 152.408H641.486V152.601H641.68V152.408ZM646.812 152.408V152.601H647.006V152.408H646.812ZM641.68 102.808V102.614H641.486V102.808H641.68ZM646.812 102.808H647.006V102.614H646.812V102.808ZM634.083 93.1212V93.3147H634.276V93.1212H634.083ZM646.812 100.339V100.533H647.005V100.339H646.812ZM634.068 100.339H633.874V100.533H634.068V100.339ZM634.068 93.1212V92.9276H633.874V93.1212H634.068ZM640.751 164.594L640.921 164.686L640.922 164.685L640.751 164.594ZM640.113 164.594L639.942 164.685L639.943 164.686L640.113 164.594ZM634.923 154.877V154.684H634.6L634.752 154.968L634.923 154.877ZM645.971 154.877L646.141 154.969L646.295 154.684H645.971V154.877ZM577.495 110.187H577.302V110.467L577.563 110.369L577.495 110.187ZM594.139 103.927L594.207 104.109L594.689 103.928L594.208 103.746L594.139 103.927ZM577.495 97.6534L577.564 97.4723L577.302 97.3736V97.6534H577.495ZM612.218 97.1012L612.287 97.2823L612.218 96.9077V97.1012ZM583.033 97.1012V96.9077L582.965 97.2823L583.033 97.1012ZM597.619 102.605L597.55 102.787L597.619 102.812L597.687 102.787L597.619 102.605ZM612.233 110.754V110.947L612.301 110.573L612.233 110.754ZM597.634 105.249L597.702 105.068L597.634 105.043L597.565 105.068L597.634 105.249ZM583.033 110.754L582.964 110.573L583.033 110.947V110.754ZM617.786 97.653H617.979V97.3731L617.717 97.4718L617.786 97.653ZM601.142 103.928L601.073 103.746L600.592 103.928L601.074 104.109L601.142 103.928ZM617.786 110.187L617.718 110.368L617.979 110.466V110.187H617.786ZM577.495 130.694H577.302V130.887H577.495V130.694ZM592.124 130.694V130.887H592.318V130.694H592.124ZM577.495 120.28V120.086H577.302V120.28H577.495ZM592.124 120.28H592.318V120.086H592.124V120.28ZM619.005 117.811L619.009 117.617H619.005V117.811ZM619.006 117.811L619.001 118.004H619.006V117.811ZM620.238 119.046L620.431 119.046V119.046H620.238ZM620.237 131.928L620.044 131.928V131.928H620.237ZM617.772 130.694V130.887H617.966V130.694H617.772ZM603.144 130.694H602.95V130.887H603.144V130.694ZM617.772 120.28H617.966V120.086H617.772V120.28ZM603.144 120.28V120.086H602.95V120.28H603.144ZM620.237 139.003L620.044 139.003V139.003H620.237ZM601.679 158.798L601.485 158.797V158.798H601.679ZM599.214 158.798H599.021L599.021 158.801L599.214 158.798ZM620.382 76.8065H574.901V77.1935H620.382V76.8065ZM627.477 83.9132C627.477 80.0015 624.288 76.8065 620.382 76.8065V77.1935C624.074 77.1935 627.09 80.2146 627.09 83.9132H627.477ZM627.477 161.442V83.9132H627.09V161.442H627.477ZM620.382 168.549C624.303 168.549 627.477 165.353 627.477 161.442H627.09C627.09 165.141 624.088 168.161 620.382 168.161V168.549ZM574.901 168.549H620.382V168.161H574.901V168.549ZM567.806 161.442C567.806 165.368 570.995 168.549 574.901 168.549V168.161C571.209 168.161 568.194 165.155 568.194 161.442H567.806ZM567.806 83.9132V161.442H568.194V83.9132H567.806ZM574.901 76.8065C570.98 76.8065 567.806 80.0015 567.806 83.9132H568.194C568.194 80.2142 571.195 77.1935 574.901 77.1935V76.8065ZM570.45 90.9911H624.818V90.604H570.45V90.9911ZM570.643 149.242V90.7975H570.256V149.242H570.643ZM624.818 149.048H570.45V149.435H624.818V149.048ZM624.624 90.7975V149.242H625.012V90.7975H624.624ZM574.902 79.6621H620.382V79.275H574.902V79.6621ZM570.644 83.9131C570.644 81.5658 572.558 79.6621 574.902 79.6621V79.275C572.346 79.275 570.257 81.351 570.257 83.9131H570.644ZM570.644 88.3282V83.9131H570.257V88.3282H570.644ZM624.819 88.1346H570.451V88.5217H624.819V88.1346ZM624.625 83.9131V88.3282H625.013V83.9131H624.625ZM620.382 79.6621C622.725 79.6621 624.625 81.565 624.625 83.9131H625.013C625.013 81.3518 622.94 79.275 620.382 79.275V79.6621ZM620.381 165.693H574.901V166.08H620.381V165.693ZM624.639 161.44C624.625 163.79 622.724 165.693 620.381 165.693V166.08C622.939 166.08 625.011 164.003 625.026 161.443L624.639 161.44ZM624.639 151.711V161.442H625.026V151.711H624.639ZM570.464 151.904H624.833V151.517H570.464V151.904ZM570.658 161.442V151.711H570.271V161.442H570.658ZM574.901 165.693C572.558 165.693 570.658 163.79 570.658 161.442H570.271C570.271 164.003 572.344 166.08 574.901 166.08V165.693ZM591.719 85.2384H601.926V84.8513H591.719V85.2384ZM590.294 83.8105C590.294 84.5998 590.931 85.2384 591.719 85.2384V84.8513C591.145 84.8513 590.681 84.3866 590.681 83.8105H590.294ZM591.719 82.3826C590.931 82.3826 590.294 83.0212 590.294 83.8105H590.681C590.681 83.2344 591.145 82.7697 591.719 82.7697V82.3826ZM601.926 82.3826H591.719V82.7697H601.926V82.3826ZM603.352 83.8105C603.352 83.0212 602.715 82.3826 601.926 82.3826V82.7697C602.501 82.7697 602.965 83.2344 602.965 83.8105H603.352ZM601.926 85.2384C602.715 85.2384 603.352 84.5997 603.352 83.8105H602.965C602.965 84.3866 602.501 84.8513 601.926 84.8513V85.2384ZM644.956 88.9719C647.241 88.9719 649.097 90.8313 649.097 93.1212H649.485C649.485 90.6182 647.455 88.5848 644.956 88.5848V88.9719ZM635.967 88.9719H644.956V88.5848H635.967V88.9719ZM631.825 93.1212C631.825 90.8313 633.682 88.9719 635.967 88.9719V88.5848C633.468 88.5848 631.438 90.6182 631.438 93.1212H631.825ZM631.825 101.574V93.1212H631.438V101.574H631.825ZM631.816 101.518C631.817 101.521 631.825 101.543 631.825 101.574H631.438C631.438 101.614 631.449 101.644 631.454 101.656L631.816 101.518ZM631.816 101.52L631.814 101.514L631.455 101.66L631.458 101.667L631.816 101.52ZM631.84 101.632C631.84 101.574 631.821 101.531 631.816 101.518L631.459 101.669C631.461 101.674 631.459 101.669 631.457 101.662C631.455 101.654 631.453 101.644 631.453 101.632H631.84ZM631.84 153.658V101.632H631.453V153.658H631.84ZM631.855 153.701C631.855 153.666 631.846 153.637 631.84 153.621C631.837 153.613 631.833 153.606 631.831 153.601C631.829 153.597 631.827 153.593 631.826 153.591C631.825 153.589 631.825 153.59 631.826 153.59C631.826 153.592 631.828 153.595 631.83 153.6C631.833 153.609 631.84 153.629 631.84 153.658H631.453C631.453 153.693 631.462 153.721 631.468 153.737C631.471 153.746 631.474 153.753 631.477 153.757C631.479 153.762 631.481 153.766 631.481 153.767C631.483 153.77 631.482 153.769 631.482 153.768C631.481 153.767 631.48 153.764 631.478 153.759C631.475 153.75 631.468 153.729 631.468 153.701H631.855ZM631.915 154.01C631.878 153.912 631.855 153.804 631.855 153.701H631.468C631.468 153.859 631.502 154.013 631.553 154.147L631.915 154.01ZM631.937 154.077C631.934 154.065 631.926 154.028 631.906 153.991L631.562 154.167C631.559 154.162 631.558 154.159 631.558 154.159C631.558 154.159 631.558 154.16 631.559 154.161C631.559 154.163 631.56 154.166 631.561 154.17L631.937 154.077ZM631.937 154.081C631.939 154.085 631.94 154.088 631.94 154.088C631.939 154.088 631.939 154.087 631.939 154.085C631.938 154.083 631.938 154.081 631.937 154.077L631.561 154.17C631.564 154.181 631.571 154.215 631.589 154.251L631.937 154.081ZM631.948 154.105C631.944 154.096 631.94 154.087 631.935 154.078L631.59 154.254C631.59 154.254 631.591 154.254 631.591 154.255C631.591 154.255 631.591 154.255 631.591 154.255L631.948 154.105ZM631.962 154.143C631.959 154.136 631.955 154.122 631.948 154.105L631.591 154.255C631.591 154.255 631.591 154.256 631.594 154.264L631.962 154.143ZM631.966 154.155C631.965 154.154 631.965 154.153 631.965 154.152C631.964 154.151 631.964 154.149 631.962 154.143L631.594 154.264C631.598 154.275 631.604 154.296 631.617 154.322L631.966 154.155ZM638.124 165.68L631.962 154.147L631.621 154.33L637.783 165.862L638.124 165.68ZM640.432 167.073C639.476 167.073 638.584 166.533 638.124 165.679L637.783 165.863C638.309 166.839 639.33 167.46 640.432 167.46V167.073ZM642.741 165.693C642.282 166.546 641.405 167.073 640.432 167.073V167.46C641.548 167.46 642.556 166.855 643.082 165.877L642.741 165.693ZM648.946 154.161L642.741 165.693L643.082 165.877L649.287 154.344L648.946 154.161ZM648.938 154.195C648.938 154.198 648.938 154.201 648.938 154.203C648.938 154.204 648.938 154.205 648.938 154.205C648.938 154.206 648.938 154.206 648.938 154.206C648.938 154.206 648.938 154.206 648.938 154.205C648.938 154.205 648.938 154.204 648.938 154.202C648.938 154.2 648.939 154.196 648.94 154.191C648.942 154.18 648.947 154.165 648.955 154.15C648.963 154.135 648.972 154.124 648.98 154.116L649.254 154.389C649.288 154.355 649.31 154.314 649.319 154.268C649.326 154.235 649.325 154.202 649.325 154.195H648.938ZM648.996 154.019C648.99 154.039 648.985 154.054 648.98 154.067C648.975 154.08 648.971 154.086 648.97 154.088L649.293 154.301C649.334 154.24 649.355 154.168 649.365 154.135L648.996 154.019ZM649.001 154.002L648.996 154.018L649.365 154.136L649.37 154.12L649.001 154.002ZM649.006 153.989L649.002 154.001L649.37 154.122L649.373 154.11L649.006 153.989ZM649.056 153.732C649.041 153.838 649.028 153.921 649.006 153.989L649.373 154.11C649.408 154.004 649.425 153.884 649.439 153.787L649.056 153.732ZM649.055 153.738L649.055 153.738L649.44 153.781L649.44 153.781L649.055 153.738ZM649.065 153.67C649.063 153.682 649.054 153.721 649.054 153.759H649.441C649.441 153.764 649.441 153.766 649.441 153.767C649.441 153.768 649.441 153.767 649.441 153.766C649.441 153.764 649.442 153.762 649.442 153.758C649.443 153.755 649.444 153.751 649.445 153.747L649.065 153.67ZM649.069 153.658C649.069 153.653 649.069 153.65 649.069 153.65C649.069 153.649 649.069 153.649 649.069 153.651C649.069 153.653 649.068 153.655 649.068 153.658C649.067 153.662 649.066 153.665 649.065 153.67L649.445 153.747C649.447 153.735 649.456 153.696 649.456 153.658H649.069ZM649.069 101.619V153.658H649.456V101.619H649.069ZM649.089 101.525C649.089 101.526 649.084 101.538 649.08 101.551C649.075 101.565 649.069 101.589 649.069 101.619H649.456C649.456 101.642 649.451 101.66 649.448 101.668C649.446 101.675 649.444 101.68 649.446 101.675L649.089 101.525ZM649.083 101.561C649.083 101.55 649.085 101.539 649.088 101.531C649.089 101.524 649.092 101.519 649.089 101.525L649.446 101.675C649.452 101.662 649.471 101.619 649.471 101.561H649.083ZM649.083 93.1222V101.561H649.471V93.1222H649.083ZM649.277 92.9282L649.263 92.9292L649.291 93.3153L649.305 93.3142L649.277 92.9282ZM633.903 102.808V152.408H634.29V102.808H633.903ZM639.229 102.614H634.097V103.002H639.229V102.614ZM639.422 152.408V102.808H639.035V152.408H639.422ZM634.097 152.601H639.229V152.214H634.097V152.601ZM641.68 152.601H646.812V152.214H641.68V152.601ZM641.486 102.808V152.408H641.873V102.808H641.486ZM646.812 102.614H641.68V103.002H646.812V102.614ZM647.006 152.408V102.808H646.618V152.408H647.006ZM635.953 91.0541C634.816 91.0541 633.889 91.9836 633.889 93.1212H634.276C634.276 92.1967 635.031 91.4412 635.953 91.4412V91.0541ZM644.942 91.0541H635.953V91.4412H644.942V91.0541ZM647.005 93.1212C647.005 91.9836 646.078 91.0541 644.942 91.0541V91.4412C645.864 91.4412 646.618 92.1968 646.618 93.1212H647.005ZM647.005 100.339V93.1212H646.618V100.339H647.005ZM634.068 100.533H646.812V100.146H634.068V100.533ZM633.874 93.1212V100.339H634.261V93.1212H633.874ZM634.083 92.9276H634.068V93.3147H634.083V92.9276ZM640.432 164.976C640.5 164.976 640.59 164.966 640.681 164.922C640.776 164.876 640.86 164.8 640.921 164.686L640.581 164.501C640.556 164.547 640.531 164.565 640.513 164.573C640.492 164.584 640.466 164.589 640.432 164.589V164.976ZM639.943 164.686C640.005 164.8 640.089 164.876 640.183 164.922C640.274 164.966 640.364 164.976 640.432 164.976V164.589C640.399 164.589 640.373 164.584 640.351 164.573C640.333 164.565 640.308 164.547 640.283 164.501L639.943 164.686ZM634.752 154.968L639.942 164.685L640.284 164.502L635.094 154.786L634.752 154.968ZM645.971 154.684H634.923V155.071H645.971V154.684ZM640.922 164.685L646.141 154.969L645.8 154.786L640.581 164.502L640.922 164.685ZM576.264 94.8254H619.005V94.4383H576.264V94.8254ZM575.226 95.8662C575.226 95.2901 575.69 94.8254 576.264 94.8254V94.4383C575.476 94.4383 574.839 95.0769 574.839 95.8662H575.226ZM575.226 111.973V95.8662H574.839V111.973H575.226ZM576.264 113.014C575.69 113.014 575.226 112.549 575.226 111.973H574.839C574.839 112.763 575.476 113.401 576.264 113.401V113.014ZM619.005 113.014H576.264V113.401H619.005V113.014ZM620.043 111.973C620.043 112.549 619.579 113.014 619.005 113.014V113.401C619.793 113.401 620.43 112.763 620.43 111.973H620.043ZM620.043 95.8668V111.973H620.43V95.8668H620.043ZM619.005 94.8254C619.579 94.8254 620.043 95.2906 620.043 95.8668H620.43C620.43 95.0777 619.794 94.4383 619.005 94.4383V94.8254ZM577.563 110.369L594.207 104.109L594.071 103.746L577.427 110.006L577.563 110.369ZM577.302 97.6534V110.187H577.689V97.6534H577.302ZM594.208 103.746L577.564 97.4723L577.427 97.8345L594.071 104.109L594.208 103.746ZM612.218 96.9077H583.033V97.2948H612.218V96.9077ZM597.687 102.787L612.287 97.2823L612.15 96.9201L597.551 102.424L597.687 102.787ZM582.965 97.2823L597.55 102.787L597.687 102.424L583.102 96.9201L582.965 97.2823ZM612.301 110.573L597.702 105.068L597.565 105.431L612.165 110.935L612.301 110.573ZM583.033 110.947H612.233V110.56H583.033V110.947ZM597.565 105.068L582.964 110.573L583.101 110.935L597.702 105.431L597.565 105.068ZM617.717 97.4718L601.073 103.746L601.21 104.109L617.854 97.8341L617.717 97.4718ZM617.979 110.187V97.653H617.592V110.187H617.979ZM601.074 104.109L617.718 110.368L617.854 110.006L601.21 103.746L601.074 104.109ZM576.262 118.004H593.357V117.617H576.262V118.004ZM575.224 119.045C575.224 118.469 575.688 118.004 576.262 118.004V117.617C575.474 117.617 574.837 118.256 574.837 119.045H575.224ZM575.224 131.928V119.045H574.837V131.928H575.224ZM576.262 132.969C575.688 132.969 575.224 132.504 575.224 131.928H574.837C574.837 132.717 575.474 133.356 576.262 133.356V132.969ZM593.357 132.969H576.262V133.356H593.357V132.969ZM594.395 131.928C594.395 132.504 593.931 132.969 593.357 132.969V133.356C594.145 133.356 594.782 132.717 594.782 131.928H594.395ZM594.395 119.046V131.928H594.782V119.046H594.395ZM593.357 118.004C593.931 118.004 594.395 118.469 594.395 119.046H594.782C594.782 118.256 594.145 117.617 593.357 117.617V118.004ZM577.495 130.887H592.124V130.5H577.495V130.887ZM577.302 120.28V130.694H577.689V120.28H577.302ZM592.124 120.086H577.495V120.473H592.124V120.086ZM592.318 130.694V120.28H591.931V130.694H592.318ZM619.005 117.617H601.911V118.004H619.005V117.617ZM619.01 117.617L619.009 117.617L619.001 118.004L619.001 118.004L619.01 117.617ZM620.431 119.046C620.431 118.256 619.794 117.617 619.006 117.617V118.004C619.58 118.004 620.044 118.469 620.044 119.046H620.431ZM620.431 131.928L620.431 119.046L620.044 119.046L620.044 131.928L620.431 131.928ZM619.005 133.356C619.794 133.356 620.431 132.717 620.431 131.928H620.044C620.044 132.504 619.579 132.969 619.005 132.969V133.356ZM601.911 133.356H619.005V132.969H601.911V133.356ZM600.485 131.928C600.485 132.717 601.122 133.356 601.911 133.356V132.969C601.337 132.969 600.872 132.504 600.872 131.928H600.485ZM600.485 119.045V131.928H600.872V119.045H600.485ZM601.911 117.617C601.122 117.617 600.485 118.256 600.485 119.045H600.872C600.872 118.469 601.337 118.004 601.911 118.004V117.617ZM617.772 130.5H603.144V130.887H617.772V130.5ZM617.579 120.28V130.694H617.966V120.28H617.579ZM603.144 120.473H617.772V120.086H603.144V120.473ZM603.337 130.694V120.28H602.95V130.694H603.337ZM576.262 137.962H593.357V137.575H576.262V137.962ZM575.224 139.003C575.224 138.427 575.688 137.962 576.262 137.962V137.575C575.474 137.575 574.837 138.214 574.837 139.003H575.224ZM576.262 140.044C575.688 140.044 575.224 139.579 575.224 139.003H574.837C574.837 139.792 575.474 140.431 576.262 140.431V140.044ZM593.357 140.044H576.262V140.431H593.357V140.044ZM594.395 139.003C594.395 139.579 593.931 140.044 593.357 140.044V140.431C594.145 140.431 594.782 139.792 594.782 139.003H594.395ZM593.357 137.962C593.931 137.962 594.395 138.427 594.395 139.003H594.782C594.782 138.214 594.145 137.575 593.357 137.575V137.962ZM586.687 142.57H576.262V142.957H586.687V142.57ZM588.113 143.998C588.113 143.209 587.476 142.57 586.687 142.57V142.957C587.261 142.957 587.726 143.422 587.726 143.998H588.113ZM586.687 145.426C587.476 145.426 588.113 144.787 588.113 143.998H587.726C587.726 144.574 587.261 145.039 586.687 145.039V145.426ZM576.262 145.426H586.687V145.039H576.262V145.426ZM574.837 143.998C574.837 144.787 575.474 145.426 576.262 145.426V145.039C575.688 145.039 575.224 144.574 575.224 143.998H574.837ZM576.262 142.57C575.474 142.57 574.837 143.209 574.837 143.998H575.224C575.224 143.422 575.688 142.957 576.262 142.957V142.57ZM601.911 137.962H619.005V137.575H601.911V137.962ZM600.872 139.003C600.872 138.427 601.337 137.962 601.911 137.962V137.575C601.122 137.575 600.485 138.214 600.485 139.003H600.872ZM601.911 140.044C601.337 140.044 600.872 139.579 600.872 139.003H600.485C600.485 139.792 601.122 140.431 601.911 140.431V140.044ZM619.005 140.044H601.911V140.431H619.005V140.044ZM620.044 139.003C620.044 139.579 619.579 140.044 619.005 140.044V140.431C619.794 140.431 620.431 139.792 620.431 139.003H620.044ZM619.006 137.962C619.58 137.962 620.044 138.427 620.044 139.003L620.431 139.003C620.431 138.214 619.794 137.575 619.006 137.575V137.962ZM619.005 137.962H619.006V137.575H619.005V137.962ZM612.349 142.57H601.925V142.957H612.349V142.57ZM613.775 143.998C613.775 143.209 613.138 142.57 612.349 142.57V142.957C612.923 142.957 613.388 143.422 613.388 143.998H613.775ZM612.349 145.426C613.138 145.426 613.775 144.787 613.775 143.998H613.388C613.388 144.574 612.923 145.039 612.349 145.039V145.426ZM601.925 145.426H612.349V145.039H601.925V145.426ZM600.499 143.998C600.499 144.787 601.136 145.426 601.925 145.426V145.039C601.35 145.039 600.886 144.574 600.886 143.998H600.499ZM601.925 142.57C601.136 142.57 600.499 143.209 600.499 143.998H600.886C600.886 143.422 601.35 142.957 601.925 142.957V142.57ZM593.782 158.798C593.782 156.668 595.508 154.94 597.634 154.94V154.553C595.294 154.553 593.395 156.455 593.395 158.798H593.782ZM597.634 162.657C595.508 162.657 593.782 160.928 593.782 158.798H593.395C593.395 161.141 595.294 163.044 597.634 163.044V162.657ZM601.485 158.798C601.485 160.928 599.759 162.657 597.634 162.657V163.044C599.974 163.044 601.872 161.141 601.872 158.798H601.485ZM597.634 154.94C599.76 154.94 601.499 156.67 601.485 158.797L601.872 158.799C601.888 156.455 599.973 154.553 597.634 154.553V154.94ZM595.86 158.798C595.86 159.777 596.657 160.575 597.634 160.575V160.188C596.871 160.188 596.247 159.563 596.247 158.798H595.86ZM597.634 157.021C596.656 157.021 595.86 157.82 595.86 158.798H596.247C596.247 158.033 596.871 157.408 597.634 157.408V157.021ZM599.408 158.798C599.408 157.82 598.611 157.021 597.634 157.021V157.408C598.396 157.408 599.021 158.033 599.021 158.798H599.408ZM597.634 160.575C598.608 160.575 599.424 159.779 599.408 158.795L599.021 158.801C599.033 159.561 598.399 160.188 597.634 160.188V160.575Z" fill="url(#paint2_linear_395_6543)"/>
<path fill-rule="evenodd" clip-rule="evenodd" d="M301.2 13H385.574C389.052 13 391.774 15.7271 391.774 19.2117V81.3272C391.774 84.8118 389.052 87.5389 385.574 87.5389H357.752V92.8411H358.206C361.381 92.8411 363.952 95.4169 363.952 98.598C363.952 101.779 361.381 104.355 358.206 104.355H328.569C325.394 104.355 322.823 101.779 322.823 98.598C322.823 95.4169 325.394 92.8411 328.569 92.8411H329.023V87.5389H301.2C297.722 87.5389 295 84.8118 295 81.3272V19.2117C295 15.7271 297.722 13 301.2 13ZM358.206 101.324C359.718 101.324 360.928 100.112 360.928 98.5971C360.928 97.0823 359.718 95.87 358.206 95.87H328.569C327.057 95.87 325.848 97.0823 325.848 98.5971C325.848 100.112 327.057 101.324 328.569 101.324H358.206ZM332.047 92.8402H354.579V87.538H332.047V92.8402ZM385.576 84.5074C387.39 84.5074 388.751 83.1447 388.751 81.3263L388.75 19.2108C388.75 17.3926 387.389 16.029 385.574 16.0297H301.198C299.384 16.0297 298.023 17.3924 298.023 19.2108V81.3263C298.023 82.9925 299.384 84.5074 301.199 84.5074H385.576ZM302.408 18.9089H384.364L384.364 18.9082C385.272 18.9082 385.877 19.5143 386.028 20.4238V75.115C386.028 76.0238 385.423 76.6299 384.516 76.6299H302.408C301.5 76.6299 300.896 76.0238 300.896 75.115V20.4238C300.896 19.515 301.5 18.9089 302.408 18.9089ZM303.92 73.6001H382.852H383.004V21.939H303.92V73.6001ZM346.108 78.751H340.664C339.757 78.751 339.152 79.3571 339.152 80.2659C339.152 81.1747 339.757 81.7808 340.664 81.7808H346.108C347.015 81.7808 347.62 81.1747 347.62 80.2659C347.62 79.3571 346.864 78.751 346.108 78.751ZM322.186 64.1192C321.961 64.1604 321.712 64.2063 321.462 64.2063L321.462 64.206C319.043 64.206 317.228 62.2364 317.229 59.8127C317.229 57.389 319.194 55.4194 321.613 55.4194C324.033 55.4194 325.998 57.389 325.998 59.8127C325.998 60.7216 325.847 61.4791 325.393 62.0852L333.256 66.6299L341.875 61.6304V51.6314L333.256 46.6318L323.881 52.0861C323.125 52.3888 322.218 52.2375 321.764 51.48C321.462 50.7226 321.613 49.8137 322.369 49.359L332.349 43.602C332.803 43.148 333.408 43.148 334.012 43.4507L343.387 48.9043L352.006 43.7533V33.7543L345.655 30.1184C344.899 30.8759 343.69 31.482 342.48 31.482C340.061 31.482 338.095 29.5123 338.095 27.0886C338.095 24.6649 340.061 22.6953 342.48 22.6953C344.899 22.6953 346.865 24.6649 346.865 27.0886V27.3913L354.274 31.6334C354.728 31.9368 355.03 32.3909 355.03 32.997V43.9049L364.405 49.3592C364.859 49.6626 365.161 50.1166 365.161 50.7227V61.328C366.824 62.0854 368.034 63.6004 368.034 65.5701C368.034 67.9938 366.068 69.9634 363.649 69.9634C361.23 69.9634 359.264 67.9938 359.264 65.5701C359.264 63.6004 360.474 61.9341 362.137 61.328V51.6316L353.518 46.6321L344.899 51.6316V61.6306L354.123 66.9335C354.879 67.3883 355.182 68.2971 354.728 69.0546C354.274 69.812 353.367 70.1154 352.611 69.6606L343.236 64.2064L333.862 69.6606C333.408 69.9633 332.803 69.9633 332.349 69.6606L322.672 64.0549C322.535 64.0549 322.369 64.0855 322.186 64.1192ZM362.289 65.5698C362.289 66.3272 362.894 66.9333 363.65 66.9333C364.406 66.9333 365.011 66.3272 365.011 65.5698C365.011 64.8123 364.406 64.2062 363.65 64.2062C362.894 64.2062 362.289 64.8123 362.289 65.5698ZM341.119 27.2395C341.119 27.997 341.724 28.6031 342.48 28.6031C343.236 28.6031 343.841 27.997 343.841 27.2395C343.841 26.4821 343.236 25.876 342.48 25.876C341.724 25.876 341.119 26.4821 341.119 27.2395ZM322.823 59.6602C322.823 58.9028 322.218 58.2967 321.462 58.2967C320.706 58.2967 320.101 58.9021 320.101 59.6602C320.101 60.4177 320.706 61.0238 321.462 61.0238C322.218 61.0238 322.823 60.4177 322.823 59.6602Z" fill="url(#paint3_linear_395_6543)"/>
<path fill-rule="evenodd" clip-rule="evenodd" d="M30.0989 136.921H104.605V83.2199C104.605 82.4682 104.306 81.7482 103.774 81.2165C103.243 80.6856 102.523 80.3869 101.771 80.3861H32.9271C32.1766 80.3876 31.4572 80.6871 30.9269 81.218C30.3958 81.7497 30.0977 82.4689 30.097 83.2199L30.0989 136.921ZM107.998 83.2219V138.324L116.416 161.862V161.863C116.921 163.082 116.768 164.476 116.009 165.555C114.929 167.203 112.728 168.353 110.657 168.353L110.656 168.354H83.2581C83.2335 168.355 83.2088 168.355 83.184 168.355L83.1888 168.354H24.0532C21.982 168.354 19.7805 167.205 18.7 165.557H18.7008C17.942 164.477 17.7884 163.083 18.2938 161.864L26.7078 138.334V83.2219C26.7101 81.5725 27.366 79.9904 28.5325 78.8241C29.6998 77.658 31.2817 77.0015 32.9317 77H101.775C103.425 77.0015 105.007 77.6579 106.174 78.8241C107.341 79.9903 107.997 81.5724 107.998 83.2219ZM84.1866 164.97L79.8758 157.403C79.5724 156.877 79.0103 156.554 78.4036 156.556H56.3156C55.7051 156.55 55.1385 156.874 54.8329 157.403L50.5215 164.97L24.0536 164.97C23.1389 164.97 21.9845 164.386 21.5351 163.7C21.3288 163.386 21.3918 163.238 21.4261 163.157L21.4269 163.155C21.4421 163.121 21.4564 163.086 21.4693 163.049L29.6011 140.31H105.111L113.241 163.049C113.249 163.07 113.257 163.092 113.266 163.113C113.271 163.127 113.277 163.141 113.283 163.154L113.285 163.159C113.32 163.241 113.383 163.39 113.175 163.699C112.724 164.389 111.572 164.969 110.657 164.969L84.1866 164.97ZM34.7932 133.923H99.9125C100.362 133.923 100.793 133.744 101.111 133.426C101.429 133.109 101.607 132.678 101.607 132.229V85.0778C101.607 84.6286 101.429 84.1975 101.111 83.8799C100.793 83.5623 100.362 83.3838 99.9125 83.3838H34.7932C33.8574 83.3838 33.0986 84.1423 33.0986 85.0778V132.229C33.0986 133.164 33.8574 133.923 34.7932 133.923ZM98.2179 130.535H36.4878V86.7719H98.2179V130.535ZM80.2759 164.965H54.4327L57.292 159.944H77.4162L80.2759 164.965ZM50.3156 148.723H35.4749C34.5391 148.723 33.7803 147.964 33.7803 147.029C33.7803 146.093 34.5391 145.335 35.4749 145.335H50.3156C51.2514 145.335 52.0102 146.093 52.0102 147.029C52.0102 147.964 51.2514 148.723 50.3156 148.723ZM31.1477 159.945H45.9907C46.9265 159.945 47.6853 159.187 47.6853 158.251C47.6853 157.316 46.9265 156.558 45.9907 156.558H31.1477C30.2119 156.558 29.4531 157.316 29.4531 158.251C29.4531 159.187 30.2119 159.945 31.1477 159.945ZM99.2358 148.723H84.3928C83.457 148.723 82.6982 147.964 82.6982 147.029C82.6982 146.093 83.457 145.335 84.3928 145.335H99.2358C100.172 145.335 100.93 146.093 100.93 147.029C100.93 147.964 100.172 148.723 99.2358 148.723ZM88.72 159.945H103.563C104.499 159.945 105.258 159.187 105.258 158.251C105.258 157.316 104.499 156.558 103.563 156.558H88.72C87.7842 156.558 87.0254 157.316 87.0254 158.251C87.0254 159.187 87.7842 159.945 88.72 159.945ZM74.7657 148.723H59.938C59.0022 148.723 58.2434 147.964 58.2434 147.029C58.2434 146.094 59.0022 145.335 59.938 145.335H74.7657C75.7015 145.335 76.4603 146.094 76.4603 147.029C76.4603 147.964 75.7015 148.723 74.7657 148.723ZM47.899 101.242C48.1479 101.38 48.4278 101.453 48.7123 101.453L48.7123 101.452C49.4847 101.45 50.158 100.927 50.3509 100.18C50.5431 99.4318 50.2057 98.6491 49.5301 98.2755L45.4357 96.0287L49.5301 93.784C49.9484 93.5814 50.2654 93.2161 50.4069 92.7736C50.5484 92.3305 50.5015 91.8495 50.2775 91.4419C50.0536 91.035 49.6716 90.7378 49.2222 90.6198C48.7721 90.5018 48.294 90.5744 47.899 90.8194L41.0972 94.5487C40.5578 94.8466 40.2227 95.4146 40.2227 96.0309C40.2227 96.6465 40.5578 97.2145 41.0972 97.5132V97.5125L47.899 101.242ZM62.541 101.455C61.7686 101.453 61.0961 100.93 60.9039 100.182C60.7125 99.4352 61.05 98.6525 61.7255 98.2789L65.8183 96.0321L61.7255 93.7874V93.7882C61.3041 93.5878 60.9841 93.2225 60.8404 92.7786C60.6974 92.3346 60.7436 91.8514 60.9683 91.443C61.1929 91.0338 61.5757 90.7359 62.0274 90.6187C62.479 90.5014 62.9587 90.5755 63.3543 90.8236L70.1562 94.5528V94.5521C70.6956 94.8508 71.03 95.4188 71.03 96.0344C71.03 96.6507 70.6956 97.2187 70.1562 97.5166L63.3543 101.246C63.1047 101.383 62.8255 101.455 62.541 101.455ZM53.8708 103.716C53.9948 103.745 54.1219 103.758 54.2498 103.758L54.2498 103.759C55.0412 103.759 55.7281 103.213 55.9044 102.441L58.6581 90.371C58.8662 89.4588 58.295 88.5506 57.3827 88.3426C56.4702 88.1346 55.5616 88.7048 55.3536 89.6169L52.5998 101.687C52.391 102.598 52.9599 103.506 53.8708 103.716ZM90.6792 94.7091H75.1675C74.2309 94.7091 73.4729 93.9507 73.4729 93.0153C73.4729 92.0792 74.2309 91.3215 75.1675 91.3215H90.6792C91.615 91.3215 92.3738 92.0792 92.3738 93.0153C92.3738 93.9507 91.615 94.7091 90.6792 94.7091ZM76.2366 100.742H90.6785C91.6143 100.742 92.3731 99.9837 92.3731 99.0483C92.3731 98.1129 91.6143 97.3545 90.6785 97.3545H76.2366C75.3 97.3545 74.542 98.1129 74.542 99.0483C74.542 99.9837 75.3 100.742 76.2366 100.742ZM85.9929 126.701C85.2205 126.699 84.5472 126.176 84.3543 125.429C84.1621 124.681 84.4995 123.898 85.1751 123.524L89.2695 121.28L85.1751 119.033C84.4095 118.558 84.15 117.566 84.5843 116.778C85.0185 115.988 85.9952 115.677 86.8062 116.068L93.6187 119.793C94.1581 120.092 94.4933 120.66 94.4933 121.275C94.4933 121.892 94.1581 122.459 93.6187 122.757L86.8062 126.489C86.5573 126.626 86.2773 126.699 85.9929 126.701ZM71.3573 126.489C71.6062 126.627 71.8861 126.699 72.1705 126.701C72.9429 126.699 73.6155 126.175 73.8077 125.428C73.9991 124.681 73.6617 123.898 72.9861 123.525L68.894 121.28L72.9861 119.031C73.4075 118.83 73.7275 118.466 73.8712 118.022C74.0142 117.578 73.968 117.095 73.7434 116.686C73.5187 116.277 73.1359 115.979 72.6842 115.862C72.2326 115.745 71.7529 115.819 71.3573 116.066L64.5554 119.795C64.016 120.094 63.6816 120.661 63.6816 121.278C63.6816 121.894 64.016 122.462 64.5554 122.76L71.3573 126.489ZM80.4553 129.006C79.6655 129.006 78.9809 128.46 78.8054 127.69L76.0516 115.62C75.8436 114.707 76.414 113.798 77.3263 113.591C78.2394 113.383 79.148 113.954 79.356 114.866L82.1098 126.936C82.317 127.846 81.7481 128.752 80.8388 128.962C80.7132 128.992 80.5847 129.006 80.4553 129.006ZM43.8743 120.364H59.386C60.3226 120.364 61.0806 119.607 61.0806 118.67C61.0806 117.735 60.3226 116.977 59.386 116.977H43.8743C42.9385 116.977 42.1797 117.735 42.1797 118.67C42.1797 119.607 42.9385 120.364 43.8743 120.364ZM58.3162 126.399H43.8743C42.9385 126.399 42.1797 125.642 42.1797 124.706C42.1797 123.77 42.9385 123.012 43.8743 123.012H58.3162C59.2528 123.012 60.0108 123.77 60.0108 124.706C60.0108 125.642 59.2528 126.399 58.3162 126.399ZM53.5833 110.35H81.1308H81.1424C82.0782 110.35 82.837 109.592 82.837 108.656C82.837 107.72 82.0782 106.962 81.1424 106.962H53.5833C52.6475 106.962 51.8887 107.72 51.8887 108.656C51.8887 109.592 52.6475 110.35 53.5833 110.35Z" fill="url(#paint4_linear_395_6543)"/>
<path d="M389.012 422.19H298.369L311.959 372.155H375.411L389.012 422.19Z" fill="#263238" stroke="#263238" stroke-width="1.018" stroke-linecap="round" stroke-linejoin="round"/>
<path d="M412.578 422.19H274.802V427.27H412.578V422.19Z" fill="#263238" stroke="#263238" stroke-width="1.018" stroke-linecap="round" stroke-linejoin="round"/>
<path fill-rule="evenodd" clip-rule="evenodd" d="M147.746 128.64H539.625V377.408H147.746V128.64ZM160.308 138.127H527.073V367.93H160.308V138.127Z" fill="#263238"/>
<path d="M539.625 128.64H540.134C540.134 128.359 539.906 128.131 539.625 128.131V128.64ZM147.746 128.64V128.131C147.465 128.131 147.237 128.359 147.237 128.64H147.746ZM539.625 377.408V377.917C539.906 377.917 540.134 377.689 540.134 377.408H539.625ZM147.746 377.408H147.237C147.237 377.689 147.465 377.917 147.746 377.917V377.408ZM527.073 138.127H527.582C527.582 137.846 527.354 137.618 527.073 137.618V138.127ZM160.308 138.127V137.618C160.027 137.618 159.799 137.846 159.799 138.127H160.308ZM527.073 367.93V368.439C527.354 368.439 527.582 368.211 527.582 367.93H527.073ZM160.308 367.93H159.799C159.799 368.211 160.027 368.439 160.308 368.439V367.93ZM539.625 128.131H147.746V129.149H539.625V128.131ZM540.134 377.408V128.64H539.116V377.408H540.134ZM147.746 377.917H539.625V376.899H147.746V377.917ZM147.237 128.64V377.408H148.255V128.64H147.237ZM527.073 137.618H160.308V138.636H527.073V137.618ZM527.582 367.93V138.127H526.564V367.93H527.582ZM160.308 368.439H527.073V367.421H160.308V368.439ZM159.799 138.127V367.93H160.817V138.127H159.799Z" fill="#263238"/>
<path d="M378 290.5L372.685 299.195L364.653 295.843C361.851 295.748 359.058 295.466 356.293 295C352.571 294.283 350.263 293.351 349.289 292.642C348.315 291.934 345.791 287.852 345.791 287.852C345.791 287.852 357.844 276.429 361.692 276.984C365.539 277.538 373.337 283.866 378 290.5Z" fill="#FEA4A1"/>
<path d="M367.5 306.5L369.38 304C370.998 302.126 370.319 300.915 369.88 298.5L361.401 278.185C361.401 278.185 363.641 276.365 367.994 279.549C372.338 282.738 375.5 281 375.5 281C375.5 281 370.144 274.604 360.519 268.822C355.012 265.52 352.508 267.397 348.379 268L265.685 256.953L265.414 264.13C265.054 273.572 273.027 281.155 282.482 280.362L340.379 278.695C344.239 292.462 357.104 297.611 366 308.5L367.5 306.5Z" fill="url(#paint5_linear_395_6543)"/>
<path d="M350.94 289.155C350.94 289.155 346.718 292.491 346.675 293.55C346.635 293.977 346.737 294.405 346.965 294.768C347.194 295.131 347.536 295.409 347.938 295.558C348.459 295.685 349 295.708 349.53 295.627C349.53 295.627 352.298 292.192 352.416 290.911C352.534 289.631 352.521 288.67 350.94 289.155Z" fill="#FEA5A2"/>
<path d="M348.533 287.261C348.533 287.261 344.324 290.608 344.252 291.646C344.213 292.074 344.316 292.503 344.545 292.867C344.775 293.231 345.117 293.509 345.52 293.658C346.041 293.779 346.579 293.801 347.108 293.723C347.108 293.723 349.88 290.283 349.994 289.008C350.108 287.732 350.113 286.776 348.533 287.261Z" fill="#FEA5A2"/>
<path d="M345.791 286.886C345.791 286.886 342.563 289.456 342.507 290.251C342.477 290.576 342.555 290.901 342.728 291.178C342.9 291.455 343.159 291.667 343.464 291.783C343.863 291.878 344.277 291.896 344.683 291.834C344.683 291.834 346.812 289.198 346.901 288.217C346.991 287.235 346.999 286.515 345.791 286.886Z" fill="#FEA5A2"/>
<path d="M343.588 286.631C343.588 286.631 341.341 288.251 341.349 288.809C341.36 289.058 341.442 289.298 341.586 289.501C341.73 289.703 341.929 289.86 342.16 289.952C342.454 290.042 342.762 290.079 343.069 290.061C343.069 290.061 344.495 288.33 344.501 287.644C344.506 286.957 344.45 286.466 343.588 286.631Z" fill="#FEA5A2"/>
<path d="M373.972 286.137C373.972 286.137 366.868 276.688 363.642 277.319C360.417 277.95 352.786 280.215 353.193 281.444C353.6 282.674 358.336 282.577 359.399 282.607C360.218 282.609 361.035 282.517 361.833 282.333C362.072 283.788 362.691 285.153 363.627 286.291C364.563 287.429 365.783 288.3 367.163 288.815" fill="#FE9D9A"/>
<g clip-path="url(#clip1_395_6543)">
<path d="M222.507 228.907C222.507 228.907 195.834 232.244 191.032 273.407C191.032 273.407 184.374 319.296 186.74 372.329C186.822 374.059 188.316 375.375 190.027 375.239L260.877 369.584C262.831 369.427 264.335 367.792 264.334 365.812L264.374 298.482L263.5 266.5C263.5 266.5 266.53 271.913 269 275C271 277.5 272.761 279.392 274.5 280C276.352 280.648 289 281 289 281L299 281L308.5 260.5L285.5 259C285.5 259 280.5 253 277.5 248.5C264.855 229.533 252.35 221.851 222.51 228.917L222.507 228.907Z" fill="url(#paint6_linear_395_6543)"/>
</g>
<path d="M263.471 282.782C263.471 282.782 263.403 282.8 263.361 282.8C263.075 282.811 262.83 282.582 262.818 282.293L261.768 254.659C261.756 254.37 261.982 254.124 262.269 254.113C262.555 254.103 262.8 254.332 262.812 254.62L263.863 282.255C263.874 282.502 263.703 282.723 263.471 282.782Z" fill="url(#paint7_linear_395_6543)"/>
<path d="M299.483 281.118C299.483 281.118 299.418 281.108 299.382 281.094C299.13 281.005 298.999 280.757 299.089 280.544L307.854 260.184C307.945 259.971 308.227 259.87 308.479 259.958C308.73 260.047 308.862 260.295 308.771 260.508L300.007 280.868C299.93 281.051 299.705 281.153 299.483 281.118Z" fill="url(#paint8_linear_395_6543)"/>
<g clip-path="url(#clip2_395_6543)">
<path d="M232.04 384.231C229.937 382.845 227.388 382.306 224.896 382.733L219.942 383.579C218.884 383.762 217.921 382.969 217.883 381.893L216 336C209.482 338.529 200.739 337.852 197.771 337.403L205.283 391.489L245.785 394.584L232.04 384.231Z" fill="url(#paint9_linear_395_6543)"/>
</g>
<path d="M228.323 195.906L217.721 233.16C217.721 233.16 229.72 241.453 237.869 237.872L243.051 216.578C243.051 216.578 236.47 191.365 228.323 195.906Z" fill="url(#paint10_linear_395_6543)"/>
<path d="M247.192 169.144C247.573 169.615 260.526 207.411 260.526 207.411L238.972 214.389L221.415 180.403C221.415 180.403 240.895 161.249 247.192 169.144Z" fill="url(#paint11_linear_395_6543)"/>
<path d="M229.991 185.19L237.849 203.808C237.955 204.044 238.079 204.269 238.242 204.471C239.224 205.714 242.928 209.727 246.763 205.662C250.241 201.972 253.481 198.662 256.603 197.898C258.005 197.557 259.439 198.346 259.907 199.722C261.088 203.157 263.597 210.948 264.748 218.046C264.98 219.488 264.074 220.86 262.672 221.222C258.448 222.308 249.47 224.353 241.863 224.278C240.83 224.273 239.891 223.705 239.401 222.785C237.032 218.313 229.766 204.765 227.16 201.309C224.718 198.065 219.249 198.502 216.974 198.848C216.23 198.966 215.474 198.761 214.873 198.294C212.753 196.648 208.65 192.356 213.681 186.596C214.738 185.386 214.593 183.565 213.365 182.54C210.919 180.5 208.205 176.768 211.757 171.719C215.364 166.585 220.568 167.034 223.799 168.003C225.107 168.396 226.461 167.764 227.086 166.541C227.443 165.841 228.1 165.294 229.296 165.319C230.913 165.358 232.185 163.912 232.053 162.292C231.805 159.163 232.663 155.133 237.95 153.1C247.331 149.502 253.875 158.444 254.905 165.367C255.934 172.281 245.543 175.609 239.31 175.528C234.571 175.463 231.363 180.4 230.089 182.776C229.686 183.53 229.652 184.422 229.982 185.201L229.991 185.19Z" fill="url(#paint12_linear_395_6543)"/>
<path d="M230.094 208.062C230.094 208.062 227.791 196.08 222.778 195.801C217.756 195.522 213.171 199.949 218.545 206.416C225.233 214.458 230.093 208.052 230.093 208.052L230.094 208.062Z" fill="url(#paint13_linear_395_6543)"/>
<path d="M201.331 338.003C198.942 337.645 197.277 337.17 197.089 337.121L196.787 337.035L194.769 263.634C194.761 263.346 194.953 263.088 195.195 263.063C195.437 263.038 195.643 263.253 195.651 263.541L197.647 336.18C199.515 336.665 209.514 338.994 215.533 335.234L213.815 271.47L216.903 266.594C217.049 266.359 217.33 266.299 217.519 266.46C217.706 266.632 217.742 266.955 217.597 267.189L214.708 271.757L216.432 335.819L216.178 335.986C211.793 338.895 205.476 338.625 201.323 338.002L201.331 338.003Z" fill="url(#paint14_linear_395_6543)"/>
<g clip-path="url(#clip3_395_6543)">
<path d="M415.145 183.198C402.605 191.566 391.11 210.393 414.1 240.727C434.721 267.935 455.901 285.704 452.766 302.44C449.631 319.176 474.08 361.368 523.828 333.819C572.945 306.624 563.539 254.325 503.973 234.451C469.104 222.817 461.054 152.56 415.145 183.198Z" fill="url(#paint15_linear_395_6543)"/>
<path d="M370.501 281.999C370.501 281.999 387.847 306.842 409.146 289.839L415.019 308.051C415.019 308.051 384.437 327.422 366.129 290.629L370.5 282L370.501 281.999Z" fill="url(#paint16_linear_395_6543)"/>
<path d="M431.673 216.255C431.673 216.255 442.573 237.618 444.48 247.428C444.48 247.428 438.549 257.502 429.405 251.877C429.405 251.877 423.27 224.677 421.49 220.834L431.667 216.255H431.673Z" fill="url(#paint17_linear_395_6543)"/>
<path d="M407.235 204.215C407.235 204.215 405.206 240.131 420.298 240.63C435.396 241.135 436.86 215.599 436.86 215.599C436.86 215.599 432.407 199.466 425.219 197.586C418.032 195.707 407.235 204.215 407.235 204.215Z" fill="url(#paint18_linear_395_6543)"/>
<path d="M411.677 193.127C411.677 193.127 404.781 200.188 405.966 204.578C407.15 208.969 421.945 204.378 425.59 202.304L437.809 215.324C437.809 215.324 437.432 196.034 429.005 190.099C420.572 184.157 411.677 193.127 411.677 193.127Z" fill="url(#paint19_linear_395_6543)"/>
<path d="M432.292 215.944C432.292 215.944 434.133 203.623 440.148 207.089C446.163 210.556 439.704 220.097 435.008 219.501L432.292 215.944Z" fill="url(#paint20_linear_395_6543)"/>
<path d="M427.37 252.386C432.771 250.762 444.436 239.869 459.394 253.691C461.934 256.033 462.967 259.596 462.061 262.929C458.045 277.737 461.714 331.698 471.01 350.623C471.01 350.623 440.359 358.478 422.49 343.914C422.49 343.914 422.09 313.042 411.591 297.687C404.343 287.087 414.978 266.057 419.735 259.003C420.458 257.933 422.065 255.811 423.304 255.44L427.37 252.386Z" fill="url(#paint21_linear_395_6543)"/>
<path d="M422.001 335.381C422.001 335.381 417.751 352.003 414.136 364.366L396.318 433.649C395.966 434.884 396.628 436.173 397.837 436.605C404.545 439.013 426.6 445.824 456.711 443.75C458.224 443.647 459.5 442.57 459.828 441.087C461.815 432.147 468.583 401.655 469.974 395.392C475.284 371.516 480.425 348.815 454.341 333.247C442.317 338.398 433.885 338.398 422.001 335.381Z" fill="url(#paint22_linear_395_6543)"/>
<path d="M444.766 264.585C444.766 264.585 489.397 311.483 436.601 313.045C436.601 313.045 428.149 312.482 424.268 314.767C422.179 315.997 419.932 317.523 418.309 318.668C417.565 319.189 417.985 320.364 418.894 320.291C420.642 320.155 422.779 319.793 424.138 318.891C426.773 317.139 425.657 321.052 432.133 323.517C438.614 325.978 440.934 321.109 440.934 321.109C440.934 321.109 508.946 328.406 461.885 256.523C452.021 244.068 440.792 254.448 444.765 264.594L444.766 264.585Z" fill="url(#paint23_linear_395_6543)"/>
<path d="M517.433 322.995C517.227 322.995 517.026 322.874 516.947 322.667C516.838 322.399 516.971 322.095 517.239 321.986C526.389 318.343 533.813 310.62 537.106 301.328C540.393 292.036 539.482 281.357 534.664 272.758C527.883 260.656 514.881 253.894 502.311 247.356L500.798 246.566C487.206 239.481 473.955 231.04 469.095 217.381C468.997 217.108 469.137 216.81 469.411 216.713C469.684 216.615 469.982 216.755 470.079 217.029C474.818 230.347 487.875 238.648 501.278 245.635L502.791 246.426C515.501 253.036 528.637 259.872 535.575 272.247C540.539 281.101 541.481 292.102 538.091 301.674C534.7 311.246 527.051 319.201 517.628 322.953C517.567 322.977 517.5 322.989 517.433 322.989V322.995Z" fill="#91B3FA"/>
<path d="M503.396 318.179C503.165 318.179 502.952 318.021 502.892 317.783C502.819 317.504 502.989 317.218 503.268 317.151C513.84 314.475 522.674 307.853 526.891 299.448C531.642 289.967 530.135 278.158 523.306 271.365C523.099 271.164 523.099 270.83 523.306 270.623C523.513 270.416 523.841 270.416 524.047 270.623C531.192 277.726 532.778 290.047 527.832 299.916C523.482 308.594 514.399 315.418 503.536 318.166C503.493 318.179 503.451 318.185 503.408 318.185L503.396 318.179Z" fill="#91B3FA"/>
</g>
</g>
<defs>
<linearGradient id="paint0_linear_395_6543" x1="53.8664" y1="427.024" x2="598.444" y2="427.022" gradientUnits="userSpaceOnUse">
<stop stop-color="#001950"/>
<stop offset="0.0729167" stop-color="#00238B"/>
<stop offset="0.502003" stop-color="#002C94" stop-opacity="0.53"/>
<stop offset="0.901042" stop-color="#00238B"/>
<stop offset="1" stop-color="#001950"/>
</linearGradient>
<linearGradient id="paint1_linear_395_6543" x1="597.642" y1="77" x2="597.642" y2="168.355" gradientUnits="userSpaceOnUse">
<stop stop-color="#7C38BD"/>
<stop offset="0.510417" stop-color="#BD6DF2"/>
<stop offset="1" stop-color="#2C6BBB"/>
</linearGradient>
<linearGradient id="paint2_linear_395_6543" x1="608.646" y1="77" x2="608.646" y2="168.355" gradientUnits="userSpaceOnUse">
<stop stop-color="#7D39BE"/>
<stop offset="0.475795" stop-color="#BC6DF1"/>
<stop offset="1" stop-color="#7A9BCB"/>
</linearGradient>
<linearGradient id="paint3_linear_395_6543" x1="343.387" y1="13" x2="343.387" y2="104.355" gradientUnits="userSpaceOnUse">
<stop stop-color="#7C38BD"/>
<stop offset="0.515625" stop-color="#BD6DF2"/>
<stop offset="0.930606" stop-color="#2C6BBB"/>
</linearGradient>
<linearGradient id="paint4_linear_395_6543" x1="67.3549" y1="77" x2="67.3549" y2="168.355" gradientUnits="userSpaceOnUse">
<stop stop-color="#7C38BD"/>
<stop offset="0.5" stop-color="#BD6DF2"/>
<stop offset="0.919976" stop-color="#2C6BBB"/>
</linearGradient>
<linearGradient id="paint5_linear_395_6543" x1="365" y1="287" x2="296.5" y2="273" gradientUnits="userSpaceOnUse">
<stop stop-color="#F47E62"/>
<stop offset="1" stop-color="#F8AB71"/>
</linearGradient>
<linearGradient id="paint6_linear_395_6543" x1="247.645" y1="246.779" x2="230.332" y2="472.267" gradientUnits="userSpaceOnUse">
<stop stop-color="#CB236D"/>
<stop offset="1" stop-color="#4C246D"/>
</linearGradient>
<linearGradient id="paint7_linear_395_6543" x1="274.61" y1="276.044" x2="306.14" y2="295.978" gradientUnits="userSpaceOnUse">
<stop stop-color="#CB236D"/>
<stop offset="1" stop-color="#4C246D"/>
</linearGradient>
<linearGradient id="paint8_linear_395_6543" x1="311.484" y1="279.992" x2="327.231" y2="307.644" gradientUnits="userSpaceOnUse">
<stop stop-color="#CB236D"/>
<stop offset="1" stop-color="#4C246D"/>
</linearGradient>
<linearGradient id="paint9_linear_395_6543" x1="195.84" y1="362.796" x2="247.91" y2="366.776" gradientUnits="userSpaceOnUse">
<stop stop-color="#F9B776"/>
<stop offset="1" stop-color="#F47960"/>
</linearGradient>
<linearGradient id="paint10_linear_395_6543" x1="212.244" y1="241.385" x2="244.201" y2="204.473" gradientUnits="userSpaceOnUse">
<stop stop-color="#F9B776"/>
<stop offset="1" stop-color="#F47960"/>
</linearGradient>
<linearGradient id="paint11_linear_395_6543" x1="239.921" y1="175.042" x2="242.161" y2="251.069" gradientUnits="userSpaceOnUse">
<stop stop-color="#F9B776"/>
<stop offset="1" stop-color="#F47960"/>
</linearGradient>
<linearGradient id="paint12_linear_395_6543" x1="221.956" y1="208.382" x2="264.549" y2="174.422" gradientUnits="userSpaceOnUse">
<stop stop-color="#2B3582"/>
<stop offset="1" stop-color="#150E42"/>
</linearGradient>
<linearGradient id="paint13_linear_395_6543" x1="217.887" y1="254.561" x2="222.98" y2="202.118" gradientUnits="userSpaceOnUse">
<stop stop-color="#F9B776"/>
<stop offset="1" stop-color="#F47960"/>
</linearGradient>
<linearGradient id="paint14_linear_395_6543" x1="197.831" y1="316.901" x2="167.042" y2="368.654" gradientUnits="userSpaceOnUse">
<stop stop-color="#CB236D"/>
<stop offset="1" stop-color="#4C246D"/>
</linearGradient>
<linearGradient id="paint15_linear_395_6543" x1="539.656" y1="177.974" x2="473.894" y2="256.047" gradientUnits="userSpaceOnUse">
<stop stop-color="#09005D"/>
<stop offset="1" stop-color="#1A0F91"/>
</linearGradient>
<linearGradient id="paint16_linear_395_6543" x1="383.603" y1="258.473" x2="394.8" y2="323.952" gradientUnits="userSpaceOnUse">
<stop stop-color="#FF928E"/>
<stop offset="1" stop-color="#FEB3B1"/>
</linearGradient>
<linearGradient id="paint17_linear_395_6543" x1="424.613" y1="214.412" x2="444.696" y2="272.173" gradientUnits="userSpaceOnUse">
<stop stop-color="#FF928E"/>
<stop offset="1" stop-color="#FEB3B1"/>
</linearGradient>
<linearGradient id="paint18_linear_395_6543" x1="347.976" y1="59.6132" x2="377.894" y2="123.754" gradientUnits="userSpaceOnUse">
<stop stop-color="#FF928E"/>
<stop offset="1" stop-color="#FEB3B1"/>
</linearGradient>
<linearGradient id="paint19_linear_395_6543" x1="458.849" y1="126.635" x2="425.292" y2="201.971" gradientUnits="userSpaceOnUse">
<stop stop-color="#09005D"/>
<stop offset="1" stop-color="#1A0F91"/>
</linearGradient>
<linearGradient id="paint20_linear_395_6543" x1="363.067" y1="52.5772" x2="392.985" y2="116.718" gradientUnits="userSpaceOnUse">
<stop stop-color="#FF928E"/>
<stop offset="1" stop-color="#FEB3B1"/>
</linearGradient>
<linearGradient id="paint21_linear_395_6543" x1="429.406" y1="242.715" x2="485.054" y2="509.84" gradientUnits="userSpaceOnUse">
<stop stop-color="#09005D"/>
<stop offset="0.38254" stop-color="#2F23AC"/>
</linearGradient>
<linearGradient id="paint22_linear_395_6543" x1="429.406" y1="242.715" x2="485.054" y2="509.84" gradientUnits="userSpaceOnUse">
<stop stop-color="#09005D"/>
<stop offset="0.38254" stop-color="#2F23AC"/>
</linearGradient>
<linearGradient id="paint23_linear_395_6543" x1="403.56" y1="248.776" x2="425.892" y2="272.922" gradientUnits="userSpaceOnUse">
<stop stop-color="#FF928E"/>
<stop offset="1" stop-color="#FEB3B1"/>
</linearGradient>
<clipPath id="clip0_395_6543">
<rect width="686" height="444" fill="white"/>
</clipPath>
<clipPath id="clip1_395_6543">
<rect width="178" height="158" fill="white" transform="matrix(-1 0 0 1 332 210)"/>
</clipPath>
<clipPath id="clip2_395_6543">
<rect width="56" height="33" fill="white" transform="matrix(-1 0 0 1 249.999 335)"/>
</clipPath>
<clipPath id="clip3_395_6543">
<rect width="223" height="192" fill="white" transform="translate(347 176)"/>
</clipPath>
</defs>
</svg>
