<svg width="686" height="444" viewBox="0 0 686 444" fill="none" xmlns="http://www.w3.org/2000/svg">
<g clip-path="url(#clip0_1826_14702)">
<ellipse cx="324.551" cy="426.975" rx="272.824" ry="1.018" fill="url(#paint0_linear_1826_14702)"/>
<path fill-rule="evenodd" clip-rule="evenodd" d="M574.901 77H620.382C624.181 77 627.283 80.108 627.283 83.9132V161.442C627.283 165.247 624.195 168.355 620.382 168.355H574.901C571.102 168.355 568 165.262 568 161.442V83.9132C568 80.1078 571.088 77 574.901 77ZM624.818 90.7975H570.45V149.242H624.818V90.7975ZM620.382 79.4685H574.902C572.452 79.4685 570.451 81.4584 570.451 83.9131V88.3282H624.819V83.9131C624.819 81.4584 622.833 79.4685 620.382 79.4685ZM574.901 165.886H620.381C622.832 165.886 624.818 163.896 624.833 161.442V151.711H570.464V161.442C570.464 163.896 572.451 165.886 574.901 165.886ZM601.927 85.0448H591.72C591.039 85.0448 590.488 84.4932 590.488 83.8105C590.488 83.1278 591.039 82.5762 591.72 82.5762H601.927C602.609 82.5762 603.159 83.1278 603.159 83.8105C603.159 84.4932 602.609 85.0448 601.927 85.0448ZM649.292 93.1212C649.292 90.7247 647.349 88.7783 644.957 88.7783H635.968C633.576 88.7783 631.633 90.7247 631.633 93.1212V101.574L631.633 101.577C631.633 101.58 631.634 101.582 631.635 101.585L631.636 101.587L631.638 101.593C631.642 101.603 631.647 101.615 631.647 101.632V153.658C631.647 153.665 631.651 153.672 631.655 153.679C631.658 153.685 631.66 153.69 631.662 153.696C631.662 153.697 631.662 153.698 631.662 153.698C631.662 153.699 631.662 153.7 631.662 153.701C631.662 153.831 631.691 153.963 631.735 154.079C631.742 154.094 631.746 154.108 631.75 154.123C631.753 154.138 631.757 154.152 631.764 154.166C631.771 154.181 631.775 154.192 631.779 154.203L631.782 154.214C631.785 154.221 631.788 154.229 631.792 154.239L637.954 165.771C638.448 166.686 639.404 167.267 640.433 167.267C641.477 167.267 642.42 166.7 642.912 165.785L649.118 154.253C649.132 154.238 649.132 154.224 649.132 154.195C649.155 154.16 649.169 154.116 649.182 154.077L649.186 154.065C649.187 154.06 649.189 154.054 649.191 154.049C649.219 153.963 649.234 153.861 649.249 153.759L649.249 153.759C649.249 153.745 649.252 153.727 649.256 153.708C649.26 153.69 649.263 153.672 649.263 153.658V101.619C649.263 101.613 649.266 101.607 649.269 101.6C649.273 101.59 649.278 101.578 649.278 101.561V93.1222L649.292 93.1212ZM634.098 152.408V102.808H639.23V152.408H634.098ZM646.813 152.408H641.681V102.808H646.813V152.408ZM634.084 93.1212C634.084 92.0901 634.925 91.2477 635.954 91.2477H644.943C645.972 91.2477 646.813 92.0902 646.813 93.1212V100.339H634.069V93.1212H634.084ZM640.752 164.594C640.666 164.753 640.535 164.782 640.433 164.782C640.332 164.782 640.201 164.753 640.114 164.594L634.924 154.877H645.972L640.752 164.594ZM619.004 94.6318H576.263C575.582 94.6318 575.031 95.1835 575.031 95.8662V111.973C575.031 112.656 575.582 113.208 576.263 113.208H619.004C619.685 113.208 620.236 112.656 620.236 111.973V95.8668C620.236 95.1841 619.685 94.6318 619.004 94.6318ZM594.138 103.927L577.494 110.187V97.6534L594.138 103.927ZM583.032 97.1012H612.217L597.618 102.605L583.032 97.1012ZM597.633 105.249L612.232 110.754H583.032L597.633 105.249ZM601.141 103.928L617.785 97.653V110.187L601.141 103.928ZM593.357 117.811H576.263C575.582 117.811 575.031 118.362 575.031 119.045V131.928C575.031 132.611 575.582 133.162 576.263 133.162H593.357C594.039 133.162 594.59 132.611 594.59 131.928V119.046C594.59 118.363 594.039 117.811 593.357 117.811ZM592.125 130.694H577.496V120.28H592.125V130.694ZM601.912 117.811H619.006L619.007 117.811C619.688 117.811 620.239 118.363 620.239 119.046L620.238 131.928C620.238 132.611 619.687 133.162 619.006 133.162H601.912C601.23 133.162 600.68 132.611 600.68 131.928V119.045C600.68 118.362 601.23 117.811 601.912 117.811ZM603.145 130.694H617.773V120.28H603.145V130.694ZM593.357 137.769H576.263C575.582 137.769 575.031 138.32 575.031 139.003C575.031 139.686 575.582 140.237 576.263 140.237H593.357C594.039 140.237 594.59 139.686 594.59 139.003C594.59 138.321 594.039 137.769 593.357 137.769ZM576.263 142.764H586.688C587.369 142.764 587.92 143.316 587.92 143.998C587.92 144.681 587.369 145.232 586.688 145.232H576.263C575.582 145.232 575.031 144.681 575.031 143.998C575.031 143.315 575.582 142.764 576.263 142.764ZM619.006 137.769H601.912C601.23 137.769 600.68 138.32 600.68 139.003C600.68 139.686 601.23 140.237 601.912 140.237H619.006C619.687 140.237 620.238 139.686 620.238 139.003C620.239 138.321 619.688 137.769 619.007 137.769H619.006ZM601.924 142.764H612.348C613.03 142.764 613.58 143.316 613.58 143.998C613.58 144.681 613.03 145.232 612.348 145.232H601.924C601.242 145.232 600.691 144.681 600.691 143.998C600.691 143.315 601.242 142.764 601.924 142.764ZM597.635 154.746C595.402 154.746 593.59 156.561 593.59 158.798C593.59 161.035 595.402 162.85 597.635 162.85C599.867 162.85 601.68 161.035 601.68 158.798C601.694 156.562 599.868 154.746 597.635 154.746ZM597.635 160.382C596.765 160.382 596.054 159.67 596.054 158.798C596.054 157.927 596.764 157.215 597.635 157.215C598.504 157.215 599.215 157.926 599.215 158.798C599.229 159.67 598.504 160.382 597.635 160.382Z" fill="url(#paint1_linear_1826_14702)"/>
<path d="M570.45 90.7975V90.604H570.256V90.7975H570.45ZM624.818 90.7975H625.012V90.604H624.818V90.7975ZM570.45 149.242H570.256V149.435H570.45V149.242ZM624.818 149.242V149.435H625.012V149.242H624.818ZM570.451 88.3282H570.257V88.5217H570.451V88.3282ZM624.819 88.3282V88.5217H625.013V88.3282H624.819ZM624.833 161.442L625.026 161.443V161.442H624.833ZM624.833 151.711H625.026V151.517H624.833V151.711ZM570.464 151.711V151.517H570.271V151.711H570.464ZM649.292 93.1212L649.306 93.3142L649.486 93.301V93.1212H649.292ZM631.633 101.574H631.439L631.44 101.588L631.633 101.574ZM631.633 101.577L631.44 101.591L631.441 101.603L631.633 101.577ZM631.635 101.585L631.451 101.647L631.453 101.65L631.635 101.585ZM631.636 101.587L631.454 101.653L631.457 101.66L631.636 101.587ZM631.638 101.593L631.459 101.667L631.46 101.669L631.638 101.593ZM631.655 153.679L631.482 153.767H631.482L631.655 153.679ZM631.662 153.696L631.851 153.654L631.851 153.654L631.662 153.696ZM631.662 153.698L631.47 153.72L631.47 153.72L631.662 153.698ZM631.735 154.079L631.554 154.147L631.558 154.157L631.563 154.167L631.735 154.079ZM631.75 154.123L631.562 154.17L631.562 154.17L631.75 154.123ZM631.764 154.166L631.59 154.251L631.591 154.254L631.764 154.166ZM631.779 154.203L631.595 154.264L631.595 154.265L631.779 154.203ZM631.782 154.214L631.599 154.275L631.599 154.278L631.782 154.214ZM631.792 154.239L631.617 154.322L631.622 154.33L631.792 154.239ZM637.954 165.771L637.784 165.862L637.784 165.863L637.954 165.771ZM642.912 165.785L643.083 165.877L643.083 165.877L642.912 165.785ZM649.118 154.253L648.981 154.116L648.961 154.136L648.947 154.161L649.118 154.253ZM649.132 154.195L648.971 154.088L648.939 154.136V154.195H649.132ZM649.182 154.077L648.997 154.018L648.997 154.019L649.182 154.077ZM649.186 154.065L649.001 154.006L649.001 154.006L649.186 154.065ZM649.191 154.049L649.374 154.112L649.374 154.11L649.191 154.049ZM649.249 153.759L649.44 153.787L649.441 153.781L649.249 153.759ZM649.249 153.759L649.441 153.781L649.442 153.77V153.759H649.249ZM649.256 153.708L649.066 153.67L649.066 153.67L649.256 153.708ZM649.269 101.6L649.447 101.675L649.447 101.675L649.269 101.6ZM649.278 93.1222L649.264 92.9292L649.084 92.9425V93.1222H649.278ZM634.098 102.808V102.614H633.904V102.808H634.098ZM634.098 152.408H633.904V152.601H634.098V152.408ZM639.23 102.808H639.423V102.614H639.23V102.808ZM639.23 152.408V152.601H639.423V152.408H639.23ZM641.681 152.408H641.487V152.601H641.681V152.408ZM646.813 152.408V152.601H647.007V152.408H646.813ZM641.681 102.808V102.614H641.487V102.808H641.681ZM646.813 102.808H647.007V102.614H646.813V102.808ZM634.084 93.1212V93.3147H634.277V93.1212H634.084ZM646.813 100.339V100.533H647.006V100.339H646.813ZM634.069 100.339H633.875V100.533H634.069V100.339ZM634.069 93.1212V92.9276H633.875V93.1212H634.069ZM640.752 164.594L640.922 164.686L640.923 164.685L640.752 164.594ZM640.114 164.594L639.943 164.685L639.944 164.686L640.114 164.594ZM634.924 154.877V154.684H634.601L634.753 154.968L634.924 154.877ZM645.972 154.877L646.142 154.969L646.296 154.684H645.972V154.877ZM577.494 110.187H577.301V110.467L577.562 110.369L577.494 110.187ZM594.138 103.927L594.207 104.109L594.688 103.928L594.207 103.746L594.138 103.927ZM577.494 97.6534L577.563 97.4723L577.301 97.3736V97.6534H577.494ZM612.217 97.1012L612.286 97.2823L612.217 96.9077V97.1012ZM583.032 97.1012V96.9077L582.964 97.2823L583.032 97.1012ZM597.618 102.605L597.55 102.787L597.618 102.812L597.686 102.787L597.618 102.605ZM612.232 110.754V110.947L612.3 110.573L612.232 110.754ZM597.633 105.249L597.701 105.068L597.633 105.043L597.564 105.068L597.633 105.249ZM583.032 110.754L582.963 110.573L583.032 110.947V110.754ZM617.785 97.653H617.978V97.3731L617.716 97.4718L617.785 97.653ZM601.141 103.928L601.072 103.746L600.591 103.928L601.073 104.109L601.141 103.928ZM617.785 110.187L617.717 110.368L617.978 110.466V110.187H617.785ZM577.496 130.694H577.303V130.887H577.496V130.694ZM592.125 130.694V130.887H592.319V130.694H592.125ZM577.496 120.28V120.086H577.303V120.28H577.496ZM592.125 120.28H592.319V120.086H592.125V120.28ZM619.006 117.811L619.01 117.617H619.006V117.811ZM619.007 117.811L619.002 118.004H619.007V117.811ZM620.239 119.046L620.432 119.046V119.046H620.239ZM620.238 131.928L620.045 131.928V131.928H620.238ZM617.773 130.694V130.887H617.967V130.694H617.773ZM603.145 130.694H602.951V130.887H603.145V130.694ZM617.773 120.28H617.967V120.086H617.773V120.28ZM603.145 120.28V120.086H602.951V120.28H603.145ZM620.238 139.003L620.045 139.003V139.003H620.238ZM601.68 158.798L601.486 158.797V158.798H601.68ZM599.215 158.798H599.022L599.022 158.801L599.215 158.798ZM620.382 76.8065H574.901V77.1935H620.382V76.8065ZM627.477 83.9132C627.477 80.0015 624.288 76.8065 620.382 76.8065V77.1935C624.074 77.1935 627.09 80.2146 627.09 83.9132H627.477ZM627.477 161.442V83.9132H627.09V161.442H627.477ZM620.382 168.549C624.303 168.549 627.477 165.353 627.477 161.442H627.09C627.09 165.141 624.088 168.161 620.382 168.161V168.549ZM574.901 168.549H620.382V168.161H574.901V168.549ZM567.806 161.442C567.806 165.368 570.995 168.549 574.901 168.549V168.161C571.209 168.161 568.194 165.155 568.194 161.442H567.806ZM567.806 83.9132V161.442H568.194V83.9132H567.806ZM574.901 76.8065C570.98 76.8065 567.806 80.0015 567.806 83.9132H568.194C568.194 80.2142 571.195 77.1935 574.901 77.1935V76.8065ZM570.45 90.9911H624.818V90.604H570.45V90.9911ZM570.643 149.242V90.7975H570.256V149.242H570.643ZM624.818 149.048H570.45V149.435H624.818V149.048ZM624.624 90.7975V149.242H625.012V90.7975H624.624ZM574.902 79.6621H620.382V79.275H574.902V79.6621ZM570.644 83.9131C570.644 81.5658 572.558 79.6621 574.902 79.6621V79.275C572.346 79.275 570.257 81.351 570.257 83.9131H570.644ZM570.644 88.3282V83.9131H570.257V88.3282H570.644ZM624.819 88.1346H570.451V88.5217H624.819V88.1346ZM624.625 83.9131V88.3282H625.013V83.9131H624.625ZM620.382 79.6621C622.725 79.6621 624.625 81.565 624.625 83.9131H625.013C625.013 81.3518 622.94 79.275 620.382 79.275V79.6621ZM620.381 165.693H574.901V166.08H620.381V165.693ZM624.639 161.44C624.625 163.79 622.724 165.693 620.381 165.693V166.08C622.939 166.08 625.011 164.003 625.026 161.443L624.639 161.44ZM624.639 151.711V161.442H625.026V151.711H624.639ZM570.464 151.904H624.833V151.517H570.464V151.904ZM570.658 161.442V151.711H570.271V161.442H570.658ZM574.901 165.693C572.558 165.693 570.658 163.79 570.658 161.442H570.271C570.271 164.003 572.344 166.08 574.901 166.08V165.693ZM591.72 85.2384H601.927V84.8513H591.72V85.2384ZM590.295 83.8105C590.295 84.5998 590.932 85.2384 591.72 85.2384V84.8513C591.146 84.8513 590.682 84.3866 590.682 83.8105H590.295ZM591.72 82.3826C590.932 82.3826 590.295 83.0212 590.295 83.8105H590.682C590.682 83.2344 591.146 82.7697 591.72 82.7697V82.3826ZM601.927 82.3826H591.72V82.7697H601.927V82.3826ZM603.353 83.8105C603.353 83.0212 602.716 82.3826 601.927 82.3826V82.7697C602.502 82.7697 602.966 83.2344 602.966 83.8105H603.353ZM601.927 85.2384C602.716 85.2384 603.353 84.5997 603.353 83.8105H602.966C602.966 84.3866 602.502 84.8513 601.927 84.8513V85.2384ZM644.957 88.9719C647.242 88.9719 649.098 90.8313 649.098 93.1212H649.486C649.486 90.6182 647.456 88.5848 644.957 88.5848V88.9719ZM635.968 88.9719H644.957V88.5848H635.968V88.9719ZM631.826 93.1212C631.826 90.8313 633.683 88.9719 635.968 88.9719V88.5848C633.469 88.5848 631.439 90.6182 631.439 93.1212H631.826ZM631.826 101.574V93.1212H631.439V101.574H631.826ZM631.826 101.564L631.826 101.561L631.44 101.588L631.44 101.591L631.826 101.564ZM631.818 101.522C631.82 101.527 631.823 101.538 631.825 101.552L631.441 101.603C631.444 101.622 631.448 101.637 631.452 101.647L631.818 101.522ZM631.818 101.521L631.817 101.519L631.453 101.65L631.454 101.653L631.818 101.521ZM631.817 101.52L631.815 101.514L631.457 101.66L631.459 101.667L631.817 101.52ZM631.841 101.632C631.841 101.574 631.822 101.531 631.817 101.518L631.46 101.669C631.462 101.674 631.46 101.669 631.458 101.662C631.456 101.654 631.454 101.644 631.454 101.632H631.841ZM631.841 153.658V101.632H631.454V153.658H631.841ZM631.827 153.591C631.824 153.586 631.828 153.592 631.831 153.6C631.834 153.609 631.841 153.629 631.841 153.658H631.454C631.454 153.693 631.463 153.721 631.469 153.737C631.475 153.753 631.482 153.766 631.482 153.767L631.827 153.591ZM631.851 153.654C631.843 153.62 631.827 153.592 631.827 153.591L631.482 153.767C631.484 153.771 631.483 153.769 631.481 153.765C631.48 153.761 631.476 153.751 631.473 153.737L631.851 153.654ZM631.854 153.677C631.853 153.668 631.852 153.661 631.851 153.654L631.473 153.737C631.471 153.732 631.47 153.727 631.47 153.72L631.854 153.677ZM631.856 153.701C631.856 153.692 631.855 153.684 631.854 153.677L631.47 153.72C631.469 153.714 631.469 153.708 631.469 153.701H631.856ZM631.916 154.01C631.879 153.912 631.856 153.804 631.856 153.701H631.469C631.469 153.859 631.503 154.013 631.554 154.147L631.916 154.01ZM631.938 154.077C631.935 154.065 631.927 154.028 631.907 153.991L631.563 154.167C631.56 154.162 631.559 154.159 631.559 154.159C631.559 154.159 631.559 154.16 631.56 154.161C631.56 154.163 631.561 154.166 631.562 154.17L631.938 154.077ZM631.938 154.081C631.94 154.085 631.941 154.088 631.941 154.088C631.94 154.088 631.94 154.087 631.94 154.085C631.939 154.083 631.939 154.081 631.938 154.077L631.562 154.17C631.565 154.181 631.572 154.215 631.59 154.251L631.938 154.081ZM631.963 154.143C631.958 154.13 631.951 154.107 631.936 154.078L631.591 154.254C631.592 154.255 631.592 154.255 631.592 154.255C631.592 154.256 631.593 154.257 631.595 154.264L631.963 154.143ZM631.966 154.153L631.962 154.142L631.595 154.265L631.599 154.275L631.966 154.153ZM631.967 154.155C631.966 154.154 631.966 154.153 631.965 154.15L631.599 154.278C631.604 154.29 631.609 154.305 631.618 154.322L631.967 154.155ZM638.125 165.68L631.963 154.147L631.622 154.33L637.784 165.862L638.125 165.68ZM640.433 167.073C639.477 167.073 638.585 166.533 638.125 165.679L637.784 165.863C638.31 166.839 639.331 167.46 640.433 167.46V167.073ZM642.742 165.693C642.283 166.546 641.406 167.073 640.433 167.073V167.46C641.549 167.46 642.557 166.855 643.083 165.877L642.742 165.693ZM648.947 154.161L642.742 165.693L643.083 165.877L649.288 154.344L648.947 154.161ZM648.939 154.195C648.939 154.198 648.939 154.201 648.939 154.203C648.939 154.204 648.939 154.205 648.939 154.205C648.939 154.206 648.939 154.206 648.939 154.206C648.939 154.206 648.939 154.206 648.939 154.205C648.939 154.205 648.939 154.204 648.939 154.202C648.939 154.2 648.94 154.196 648.941 154.191C648.943 154.18 648.948 154.165 648.956 154.15C648.964 154.135 648.973 154.124 648.981 154.116L649.255 154.389C649.289 154.355 649.311 154.314 649.32 154.268C649.327 154.235 649.326 154.202 649.326 154.195H648.939ZM648.997 154.019C648.991 154.039 648.986 154.054 648.981 154.067C648.976 154.08 648.972 154.086 648.971 154.088L649.294 154.301C649.335 154.24 649.356 154.168 649.366 154.135L648.997 154.019ZM649.001 154.006L648.997 154.018L649.366 154.136L649.37 154.123L649.001 154.006ZM649.007 153.987C649.005 153.994 649.003 154 649.001 154.006L649.37 154.124C649.371 154.119 649.373 154.115 649.374 154.112L649.007 153.987ZM649.057 153.732C649.042 153.838 649.029 153.921 649.007 153.989L649.374 154.11C649.409 154.004 649.426 153.884 649.44 153.787L649.057 153.732ZM649.056 153.738L649.056 153.738L649.441 153.781L649.441 153.781L649.056 153.738ZM649.066 153.67C649.064 153.682 649.055 153.721 649.055 153.759H649.442C649.442 153.764 649.442 153.766 649.442 153.767C649.442 153.768 649.442 153.767 649.442 153.766C649.442 153.764 649.443 153.762 649.443 153.758C649.444 153.755 649.445 153.751 649.446 153.747L649.066 153.67ZM649.07 153.658C649.07 153.653 649.07 153.65 649.07 153.65C649.07 153.649 649.07 153.649 649.07 153.651C649.07 153.653 649.069 153.655 649.069 153.658C649.068 153.662 649.067 153.665 649.066 153.67L649.446 153.747C649.448 153.735 649.457 153.696 649.457 153.658H649.07ZM649.07 101.619V153.658H649.457V101.619H649.07ZM649.09 101.525C649.09 101.526 649.085 101.538 649.081 101.551C649.076 101.565 649.07 101.589 649.07 101.619H649.457C649.457 101.642 649.452 101.66 649.449 101.668C649.447 101.675 649.445 101.68 649.447 101.675L649.09 101.525ZM649.084 101.561C649.084 101.55 649.086 101.539 649.089 101.531C649.09 101.524 649.093 101.519 649.09 101.525L649.447 101.675C649.453 101.662 649.472 101.619 649.472 101.561H649.084ZM649.084 93.1222V101.561H649.472V93.1222H649.084ZM649.278 92.9282L649.264 92.9292L649.292 93.3153L649.306 93.3142L649.278 92.9282ZM633.904 102.808V152.408H634.291V102.808H633.904ZM639.23 102.614H634.098V103.002H639.23V102.614ZM639.423 152.408V102.808H639.036V152.408H639.423ZM634.098 152.601H639.23V152.214H634.098V152.601ZM641.681 152.601H646.813V152.214H641.681V152.601ZM641.487 102.808V152.408H641.874V102.808H641.487ZM646.813 102.614H641.681V103.002H646.813V102.614ZM647.007 152.408V102.808H646.619V152.408H647.007ZM635.954 91.0541C634.817 91.0541 633.89 91.9836 633.89 93.1212H634.277C634.277 92.1967 635.032 91.4412 635.954 91.4412V91.0541ZM644.943 91.0541H635.954V91.4412H644.943V91.0541ZM647.006 93.1212C647.006 91.9836 646.079 91.0541 644.943 91.0541V91.4412C645.865 91.4412 646.619 92.1968 646.619 93.1212H647.006ZM647.006 100.339V93.1212H646.619V100.339H647.006ZM634.069 100.533H646.813V100.146H634.069V100.533ZM633.875 93.1212V100.339H634.262V93.1212H633.875ZM634.084 92.9276H634.069V93.3147H634.084V92.9276ZM640.433 164.976C640.501 164.976 640.591 164.966 640.682 164.922C640.777 164.876 640.86 164.8 640.922 164.686L640.582 164.501C640.557 164.547 640.532 164.565 640.514 164.573C640.493 164.584 640.467 164.589 640.433 164.589V164.976ZM639.944 164.686C640.006 164.8 640.09 164.876 640.184 164.922C640.275 164.966 640.365 164.976 640.433 164.976V164.589C640.4 164.589 640.373 164.584 640.352 164.573C640.334 164.565 640.309 164.547 640.284 164.501L639.944 164.686ZM634.753 154.968L639.943 164.685L640.285 164.502L635.095 154.786L634.753 154.968ZM645.972 154.684H634.924V155.071H645.972V154.684ZM640.923 164.685L646.142 154.969L645.801 154.786L640.582 164.502L640.923 164.685ZM576.263 94.8254H619.004V94.4383H576.263V94.8254ZM575.225 95.8662C575.225 95.2901 575.689 94.8254 576.263 94.8254V94.4383C575.475 94.4383 574.838 95.0769 574.838 95.8662H575.225ZM575.225 111.973V95.8662H574.838V111.973H575.225ZM576.263 113.014C575.689 113.014 575.225 112.549 575.225 111.973H574.838C574.838 112.763 575.475 113.401 576.263 113.401V113.014ZM619.004 113.014H576.263V113.401H619.004V113.014ZM620.042 111.973C620.042 112.549 619.578 113.014 619.004 113.014V113.401C619.792 113.401 620.429 112.763 620.429 111.973H620.042ZM620.042 95.8668V111.973H620.429V95.8668H620.042ZM619.004 94.8254C619.578 94.8254 620.042 95.2906 620.042 95.8668H620.429C620.429 95.0777 619.793 94.4383 619.004 94.4383V94.8254ZM577.562 110.369L594.207 104.109L594.07 103.746L577.426 110.006L577.562 110.369ZM577.301 97.6534V110.187H577.688V97.6534H577.301ZM594.207 103.746L577.563 97.4723L577.426 97.8345L594.07 104.109L594.207 103.746ZM612.217 96.9077H583.032V97.2948H612.217V96.9077ZM597.686 102.787L612.286 97.2823L612.149 96.9201L597.55 102.424L597.686 102.787ZM582.964 97.2823L597.55 102.787L597.686 102.424L583.101 96.9201L582.964 97.2823ZM612.3 110.573L597.701 105.068L597.564 105.431L612.164 110.935L612.3 110.573ZM583.032 110.947H612.232V110.56H583.032V110.947ZM597.564 105.068L582.963 110.573L583.1 110.935L597.701 105.431L597.564 105.068ZM617.716 97.4718L601.072 103.746L601.209 104.109L617.853 97.8341L617.716 97.4718ZM617.978 110.187V97.653H617.591V110.187H617.978ZM601.073 104.109L617.717 110.368L617.853 110.006L601.209 103.746L601.073 104.109ZM576.263 118.004H593.357V117.617H576.263V118.004ZM575.225 119.045C575.225 118.469 575.689 118.004 576.263 118.004V117.617C575.475 117.617 574.838 118.256 574.838 119.045H575.225ZM575.225 131.928V119.045H574.838V131.928H575.225ZM576.263 132.969C575.689 132.969 575.225 132.504 575.225 131.928H574.838C574.838 132.717 575.475 133.356 576.263 133.356V132.969ZM593.357 132.969H576.263V133.356H593.357V132.969ZM594.396 131.928C594.396 132.504 593.932 132.969 593.357 132.969V133.356C594.146 133.356 594.783 132.717 594.783 131.928H594.396ZM594.396 119.046V131.928H594.783V119.046H594.396ZM593.357 118.004C593.932 118.004 594.396 118.469 594.396 119.046H594.783C594.783 118.256 594.146 117.617 593.357 117.617V118.004ZM577.496 130.887H592.125V130.5H577.496V130.887ZM577.303 120.28V130.694H577.69V120.28H577.303ZM592.125 120.086H577.496V120.473H592.125V120.086ZM592.319 130.694V120.28H591.932V130.694H592.319ZM619.006 117.617H601.912V118.004H619.006V117.617ZM619.011 117.617L619.01 117.617L619.002 118.004L619.002 118.004L619.011 117.617ZM620.432 119.046C620.432 118.256 619.795 117.617 619.007 117.617V118.004C619.581 118.004 620.045 118.469 620.045 119.046H620.432ZM620.432 131.928L620.432 119.046L620.045 119.046L620.045 131.928L620.432 131.928ZM619.006 133.356C619.795 133.356 620.432 132.717 620.432 131.928H620.045C620.045 132.504 619.58 132.969 619.006 132.969V133.356ZM601.912 133.356H619.006V132.969H601.912V133.356ZM600.486 131.928C600.486 132.717 601.123 133.356 601.912 133.356V132.969C601.338 132.969 600.873 132.504 600.873 131.928H600.486ZM600.486 119.045V131.928H600.873V119.045H600.486ZM601.912 117.617C601.123 117.617 600.486 118.256 600.486 119.045H600.873C600.873 118.469 601.338 118.004 601.912 118.004V117.617ZM617.773 130.5H603.145V130.887H617.773V130.5ZM617.58 120.28V130.694H617.967V120.28H617.58ZM603.145 120.473H617.773V120.086H603.145V120.473ZM603.338 130.694V120.28H602.951V130.694H603.338ZM576.263 137.962H593.357V137.575H576.263V137.962ZM575.225 139.003C575.225 138.427 575.689 137.962 576.263 137.962V137.575C575.475 137.575 574.838 138.214 574.838 139.003H575.225ZM576.263 140.044C575.689 140.044 575.225 139.579 575.225 139.003H574.838C574.838 139.792 575.475 140.431 576.263 140.431V140.044ZM593.357 140.044H576.263V140.431H593.357V140.044ZM594.396 139.003C594.396 139.579 593.932 140.044 593.357 140.044V140.431C594.146 140.431 594.783 139.792 594.783 139.003H594.396ZM593.357 137.962C593.932 137.962 594.396 138.427 594.396 139.003H594.783C594.783 138.214 594.146 137.575 593.357 137.575V137.962ZM586.688 142.57H576.263V142.957H586.688V142.57ZM588.114 143.998C588.114 143.209 587.477 142.57 586.688 142.57V142.957C587.262 142.957 587.727 143.422 587.727 143.998H588.114ZM586.688 145.426C587.477 145.426 588.114 144.787 588.114 143.998H587.727C587.727 144.574 587.262 145.039 586.688 145.039V145.426ZM576.263 145.426H586.688V145.039H576.263V145.426ZM574.838 143.998C574.838 144.787 575.475 145.426 576.263 145.426V145.039C575.689 145.039 575.225 144.574 575.225 143.998H574.838ZM576.263 142.57C575.475 142.57 574.838 143.209 574.838 143.998H575.225C575.225 143.422 575.689 142.957 576.263 142.957V142.57ZM601.912 137.962H619.006V137.575H601.912V137.962ZM600.873 139.003C600.873 138.427 601.338 137.962 601.912 137.962V137.575C601.123 137.575 600.486 138.214 600.486 139.003H600.873ZM601.912 140.044C601.338 140.044 600.873 139.579 600.873 139.003H600.486C600.486 139.792 601.123 140.431 601.912 140.431V140.044ZM619.006 140.044H601.912V140.431H619.006V140.044ZM620.045 139.003C620.045 139.579 619.58 140.044 619.006 140.044V140.431C619.795 140.431 620.432 139.792 620.432 139.003H620.045ZM619.007 137.962C619.581 137.962 620.045 138.427 620.045 139.003L620.432 139.003C620.432 138.214 619.795 137.575 619.007 137.575V137.962ZM619.006 137.962H619.007V137.575H619.006V137.962ZM612.348 142.57H601.924V142.957H612.348V142.57ZM613.774 143.998C613.774 143.209 613.137 142.57 612.348 142.57V142.957C612.922 142.957 613.387 143.422 613.387 143.998H613.774ZM612.348 145.426C613.137 145.426 613.774 144.787 613.774 143.998H613.387C613.387 144.574 612.922 145.039 612.348 145.039V145.426ZM601.924 145.426H612.348V145.039H601.924V145.426ZM600.498 143.998C600.498 144.787 601.135 145.426 601.924 145.426V145.039C601.349 145.039 600.885 144.574 600.885 143.998H600.498ZM601.924 142.57C601.135 142.57 600.498 143.209 600.498 143.998H600.885C600.885 143.422 601.349 142.957 601.924 142.957V142.57ZM593.783 158.798C593.783 156.668 595.509 154.94 597.635 154.94V154.553C595.295 154.553 593.396 156.455 593.396 158.798H593.783ZM597.635 162.657C595.509 162.657 593.783 160.928 593.783 158.798H593.396C593.396 161.141 595.295 163.044 597.635 163.044V162.657ZM601.486 158.798C601.486 160.928 599.76 162.657 597.635 162.657V163.044C599.975 163.044 601.873 161.141 601.873 158.798H601.486ZM597.635 154.94C599.761 154.94 601.5 156.67 601.486 158.797L601.873 158.799C601.889 156.455 599.974 154.553 597.635 154.553V154.94ZM595.861 158.798C595.861 159.777 596.658 160.575 597.635 160.575V160.188C596.872 160.188 596.248 159.563 596.248 158.798H595.861ZM597.635 157.021C596.657 157.021 595.861 157.82 595.861 158.798H596.248C596.248 158.033 596.872 157.408 597.635 157.408V157.021ZM599.409 158.798C599.409 157.82 598.612 157.021 597.635 157.021V157.408C598.397 157.408 599.022 158.033 599.022 158.798H599.409ZM597.635 160.575C598.609 160.575 599.425 159.779 599.409 158.795L599.022 158.801C599.034 159.561 598.4 160.188 597.635 160.188V160.575Z" fill="url(#paint2_linear_1826_14702)"/>
<path fill-rule="evenodd" clip-rule="evenodd" d="M301.2 13H385.574C389.052 13 391.774 15.7271 391.774 19.2117V81.3272C391.774 84.8118 389.052 87.5389 385.574 87.5389H357.752V92.8411H358.206C361.381 92.8411 363.952 95.4169 363.952 98.598C363.952 101.779 361.381 104.355 358.206 104.355H328.569C325.394 104.355 322.823 101.779 322.823 98.598C322.823 95.4169 325.394 92.8411 328.569 92.8411H329.023V87.5389H301.2C297.722 87.5389 295 84.8118 295 81.3272V19.2117C295 15.7271 297.722 13 301.2 13ZM358.206 101.324C359.718 101.324 360.928 100.112 360.928 98.5971C360.928 97.0823 359.718 95.87 358.206 95.87H328.569C327.057 95.87 325.848 97.0823 325.848 98.5971C325.848 100.112 327.057 101.324 328.569 101.324H358.206ZM332.047 92.8402H354.579V87.538H332.047V92.8402ZM385.576 84.5074C387.39 84.5074 388.751 83.1447 388.751 81.3263L388.75 19.2108C388.75 17.3926 387.389 16.029 385.574 16.0297H301.198C299.384 16.0297 298.023 17.3924 298.023 19.2108V81.3263C298.023 82.9925 299.384 84.5074 301.199 84.5074H385.576ZM302.407 18.9089H384.363L384.363 18.9082C385.271 18.9082 385.876 19.5143 386.027 20.4238V75.115C386.027 76.0238 385.422 76.6299 384.515 76.6299H302.407C301.499 76.6299 300.895 76.0238 300.895 75.115V20.4238C300.895 19.515 301.499 18.9089 302.407 18.9089ZM303.919 73.6001H382.851H383.003V21.939H303.919V73.6001ZM346.108 78.751H340.664C339.757 78.751 339.152 79.3571 339.152 80.2659C339.152 81.1747 339.757 81.7808 340.664 81.7808H346.108C347.015 81.7808 347.62 81.1747 347.62 80.2659C347.62 79.3571 346.864 78.751 346.108 78.751ZM322.186 64.1192C321.961 64.1604 321.712 64.2063 321.462 64.2063L321.462 64.206C319.043 64.206 317.228 62.2364 317.229 59.8127C317.229 57.389 319.194 55.4194 321.613 55.4194C324.033 55.4194 325.998 57.389 325.998 59.8127C325.998 60.7216 325.847 61.4791 325.393 62.0852L333.256 66.6299L341.875 61.6304V51.6314L333.256 46.6318L323.881 52.0861C323.125 52.3888 322.218 52.2375 321.764 51.48C321.462 50.7226 321.613 49.8137 322.369 49.359L332.349 43.602C332.803 43.148 333.408 43.148 334.012 43.4507L343.387 48.9043L352.006 43.7533V33.7543L345.655 30.1184C344.899 30.8759 343.69 31.482 342.48 31.482C340.061 31.482 338.095 29.5123 338.095 27.0886C338.095 24.6649 340.061 22.6953 342.48 22.6953C344.899 22.6953 346.865 24.6649 346.865 27.0886V27.3913L354.274 31.6334C354.728 31.9368 355.03 32.3909 355.03 32.997V43.9049L364.405 49.3592C364.859 49.6626 365.161 50.1166 365.161 50.7227V61.328C366.824 62.0854 368.034 63.6004 368.034 65.5701C368.034 67.9938 366.068 69.9634 363.649 69.9634C361.23 69.9634 359.264 67.9938 359.264 65.5701C359.264 63.6004 360.474 61.9341 362.137 61.328V51.6316L353.518 46.6321L344.899 51.6316V61.6306L354.123 66.9335C354.879 67.3883 355.182 68.2971 354.728 69.0546C354.274 69.812 353.367 70.1154 352.611 69.6606L343.236 64.2064L333.862 69.6606C333.408 69.9633 332.803 69.9633 332.349 69.6606L322.672 64.0549C322.535 64.0549 322.369 64.0855 322.186 64.1192ZM362.289 65.5698C362.289 66.3272 362.894 66.9333 363.65 66.9333C364.406 66.9333 365.011 66.3272 365.011 65.5698C365.011 64.8123 364.406 64.2062 363.65 64.2062C362.894 64.2062 362.289 64.8123 362.289 65.5698ZM341.119 27.2395C341.119 27.997 341.724 28.6031 342.48 28.6031C343.236 28.6031 343.841 27.997 343.841 27.2395C343.841 26.4821 343.236 25.876 342.48 25.876C341.724 25.876 341.119 26.4821 341.119 27.2395ZM322.823 59.6602C322.823 58.9028 322.218 58.2967 321.462 58.2967C320.706 58.2967 320.101 58.9021 320.101 59.6602C320.101 60.4177 320.706 61.0238 321.462 61.0238C322.218 61.0238 322.823 60.4177 322.823 59.6602Z" fill="url(#paint3_linear_1826_14702)"/>
<path fill-rule="evenodd" clip-rule="evenodd" d="M30.0982 136.921H104.605V83.2199C104.604 82.4682 104.305 81.7482 103.773 81.2165C103.242 80.6856 102.522 80.3869 101.77 80.3861H32.9263C32.1759 80.3876 31.4564 80.6871 30.9261 81.218C30.395 81.7497 30.097 82.4689 30.0962 83.2199L30.0982 136.921ZM107.998 83.2219V138.322L116.416 161.862V161.863C116.921 163.082 116.768 164.476 116.009 165.555C114.929 167.203 112.728 168.353 110.657 168.353L110.656 168.354H83.2581C83.2335 168.355 83.2088 168.355 83.184 168.355L83.1888 168.354H24.0532C21.982 168.354 19.7805 167.205 18.7 165.557H18.7008C17.942 164.477 17.7884 163.083 18.2938 161.864L26.707 138.336V83.2219C26.7093 81.5725 27.3652 79.9904 28.5318 78.8241C29.6991 77.658 31.2809 77.0015 32.931 77H101.775C103.424 77.0015 105.006 77.6579 106.173 78.8241C107.34 79.9903 107.996 81.5724 107.998 83.2219ZM84.1866 164.97L79.8758 157.403C79.5724 156.877 79.0103 156.554 78.4036 156.556H56.3156C55.7051 156.55 55.1385 156.874 54.8329 157.403L50.5215 164.97L24.0536 164.97C23.1389 164.97 21.9845 164.386 21.5351 163.7C21.3288 163.386 21.3918 163.238 21.4261 163.157L21.4269 163.155C21.4421 163.121 21.4564 163.086 21.4693 163.049L29.6011 140.31H105.111L113.241 163.049C113.249 163.07 113.257 163.092 113.266 163.113C113.271 163.127 113.277 163.141 113.283 163.154L113.285 163.159C113.32 163.241 113.383 163.39 113.175 163.699C112.724 164.389 111.572 164.969 110.657 164.969L84.1866 164.97ZM34.7923 133.923H99.9116C100.361 133.923 100.792 133.744 101.11 133.426C101.428 133.109 101.606 132.678 101.606 132.229V85.0778C101.606 84.6286 101.428 84.1975 101.11 83.8799C100.792 83.5623 100.361 83.3838 99.9116 83.3838H34.7923C33.8565 83.3838 33.0977 84.1423 33.0977 85.0778V132.229C33.0977 133.164 33.8565 133.923 34.7923 133.923ZM98.217 130.535H36.4869V86.7719H98.217V130.535ZM80.2759 164.965H54.4327L57.292 159.944H77.4162L80.2759 164.965ZM50.3165 148.723H35.4759C34.54 148.723 33.7812 147.964 33.7812 147.029C33.7812 146.093 34.54 145.335 35.4759 145.335H50.3165C51.2523 145.335 52.0111 146.093 52.0111 147.029C52.0111 147.964 51.2523 148.723 50.3165 148.723ZM31.1477 159.945H45.9907C46.9265 159.945 47.6853 159.187 47.6853 158.251C47.6853 157.316 46.9265 156.558 45.9907 156.558H31.1477C30.2119 156.558 29.4531 157.316 29.4531 158.251C29.4531 159.187 30.2119 159.945 31.1477 159.945ZM99.2368 148.723H84.3938C83.458 148.723 82.6992 147.964 82.6992 147.029C82.6992 146.093 83.458 145.335 84.3938 145.335H99.2368C100.173 145.335 100.931 146.093 100.931 147.029C100.931 147.964 100.173 148.723 99.2368 148.723ZM88.72 159.945H103.563C104.499 159.945 105.258 159.187 105.258 158.251C105.258 157.316 104.499 156.558 103.563 156.558H88.72C87.7842 156.558 87.0254 157.316 87.0254 158.251C87.0254 159.187 87.7842 159.945 88.72 159.945ZM74.7664 148.723H59.9387C59.0029 148.723 58.2441 147.964 58.2441 147.029C58.2441 146.093 59.0029 145.335 59.9387 145.335H74.7664C75.7023 145.335 76.461 146.093 76.461 147.029C76.461 147.964 75.7023 148.723 74.7664 148.723ZM47.899 101.242C48.1479 101.38 48.4278 101.453 48.7123 101.453L48.7123 101.452C49.4847 101.45 50.158 100.927 50.3509 100.18C50.5431 99.4318 50.2057 98.6491 49.5301 98.2755L45.4357 96.0287L49.5301 93.784C49.9484 93.5814 50.2654 93.2161 50.4069 92.7736C50.5484 92.3305 50.5015 91.8495 50.2775 91.4419C50.0536 91.035 49.6716 90.7378 49.2222 90.6198C48.7721 90.5018 48.294 90.5744 47.899 90.8194L41.0972 94.5487C40.5578 94.8466 40.2227 95.4146 40.2227 96.0309C40.2227 96.6465 40.5578 97.2145 41.0972 97.5132V97.5125L47.899 101.242ZM62.5401 101.455C61.7677 101.453 61.0952 100.931 60.903 100.183C60.7116 99.4354 61.049 98.6526 61.7246 98.279L65.8174 96.0323L61.7246 93.7876V93.7883C61.3032 93.5879 60.9832 93.2226 60.8395 92.7787C60.6965 92.3348 60.7426 91.8515 60.9673 91.4432C61.192 91.034 61.5748 90.7361 62.0265 90.6188C62.4781 90.5016 62.9577 90.5757 63.3534 90.8238L70.1553 94.553V94.5523C70.6947 94.851 71.029 95.4189 71.029 96.0345C71.029 96.6509 70.6946 97.2189 70.1553 97.5168L63.3534 101.246C63.1037 101.383 62.8246 101.455 62.5401 101.455ZM53.8708 103.716C53.9948 103.745 54.1219 103.758 54.2498 103.758L54.2498 103.759C55.0412 103.759 55.7281 103.213 55.9044 102.441L58.6581 90.371C58.8662 89.4588 58.295 88.5506 57.3827 88.3426C56.4702 88.1346 55.5616 88.7048 55.3536 89.6169L52.5998 101.687C52.391 102.598 52.9599 103.506 53.8708 103.716ZM90.6792 94.7091H75.1675C74.2309 94.7091 73.4729 93.9507 73.4729 93.0153C73.4729 92.0792 74.2309 91.3215 75.1675 91.3215H90.6792C91.615 91.3215 92.3738 92.0792 92.3738 93.0153C92.3738 93.9507 91.615 94.7091 90.6792 94.7091ZM76.2376 100.742H90.6795C91.6153 100.742 92.3741 99.9837 92.3741 99.0483C92.3741 98.1129 91.6153 97.3545 90.6795 97.3545H76.2376C75.301 97.3545 74.543 98.1129 74.543 99.0483C74.543 99.9837 75.301 100.742 76.2376 100.742ZM85.9929 126.701C85.2205 126.699 84.5472 126.176 84.3543 125.429C84.1621 124.681 84.4995 123.898 85.1751 123.524L89.2695 121.28L85.1751 119.033C84.4095 118.558 84.15 117.566 84.5843 116.778C85.0185 115.988 85.9952 115.677 86.8062 116.068L93.6187 119.793C94.1581 120.092 94.4933 120.66 94.4933 121.275C94.4933 121.892 94.1581 122.459 93.6187 122.757L86.8062 126.489C86.5573 126.626 86.2773 126.699 85.9929 126.701ZM71.3573 126.489C71.6062 126.627 71.8861 126.699 72.1705 126.701C72.9429 126.699 73.6155 126.175 73.8077 125.428C73.9991 124.681 73.6617 123.898 72.9861 123.525L68.894 121.28L72.9861 119.031C73.4075 118.83 73.7275 118.466 73.8712 118.022C74.0142 117.578 73.968 117.095 73.7434 116.686C73.5187 116.277 73.1359 115.979 72.6842 115.862C72.2326 115.745 71.7529 115.819 71.3573 116.066L64.5554 119.795C64.016 120.094 63.6816 120.661 63.6816 121.278C63.6816 121.894 64.016 122.462 64.5554 122.76L71.3573 126.489ZM80.4544 129.006C79.6646 129.006 78.9799 128.46 78.8044 127.69L76.0506 115.62C75.8426 114.707 76.413 113.798 77.3253 113.591C78.2385 113.383 79.147 113.954 79.355 114.866L82.1088 126.936C82.3161 127.846 81.7472 128.752 80.8378 128.962C80.7122 128.992 80.5837 129.006 80.4544 129.006ZM43.8743 120.364H59.386C60.3226 120.364 61.0806 119.607 61.0806 118.67C61.0806 117.735 60.3226 116.977 59.386 116.977H43.8743C42.9385 116.977 42.1797 117.735 42.1797 118.67C42.1797 119.607 42.9385 120.364 43.8743 120.364ZM58.3162 126.399H43.8743C42.9385 126.399 42.1797 125.642 42.1797 124.706C42.1797 123.77 42.9385 123.012 43.8743 123.012H58.3162C59.2528 123.012 60.0108 123.77 60.0108 124.706C60.0108 125.642 59.2528 126.399 58.3162 126.399ZM53.5833 110.35H81.1308H81.1424C82.0782 110.35 82.837 109.592 82.837 108.656C82.837 107.72 82.0782 106.962 81.1424 106.962H53.5833C52.6475 106.962 51.8887 107.72 51.8887 108.656C51.8887 109.592 52.6475 110.35 53.5833 110.35Z" fill="url(#paint4_linear_1826_14702)"/>
<path d="M389.012 422.19H298.369L311.959 372.155H375.411L389.012 422.19Z" fill="#263238" stroke="#263238" stroke-width="1.018" stroke-linecap="round" stroke-linejoin="round"/>
<path d="M412.577 422.19H274.801V427.27H412.577V422.19Z" fill="#263238" stroke="#263238" stroke-width="1.018" stroke-linecap="round" stroke-linejoin="round"/>
<path fill-rule="evenodd" clip-rule="evenodd" d="M147.746 128.64H539.625V377.408H147.746V128.64ZM160.309 138.127H527.074V367.93H160.309V138.127Z" fill="#263238"/>
<path d="M539.625 128.64H540.134C540.134 128.359 539.906 128.131 539.625 128.131V128.64ZM147.746 128.64V128.131C147.465 128.131 147.237 128.359 147.237 128.64H147.746ZM539.625 377.408V377.917C539.906 377.917 540.134 377.689 540.134 377.408H539.625ZM147.746 377.408H147.237C147.237 377.689 147.465 377.917 147.746 377.917V377.408ZM527.074 138.127H527.583C527.583 137.846 527.355 137.618 527.074 137.618V138.127ZM160.309 138.127V137.618C160.027 137.618 159.8 137.846 159.8 138.127H160.309ZM527.074 367.93V368.439C527.355 368.439 527.583 368.211 527.583 367.93H527.074ZM160.309 367.93H159.8C159.8 368.211 160.027 368.439 160.309 368.439V367.93ZM539.625 128.131H147.746V129.149H539.625V128.131ZM540.134 377.408V128.64H539.116V377.408H540.134ZM147.746 377.917H539.625V376.899H147.746V377.917ZM147.237 128.64V377.408H148.255V128.64H147.237ZM527.074 137.618H160.309V138.636H527.074V137.618ZM527.583 367.93V138.127H526.565V367.93H527.583ZM160.309 368.439H527.074V367.421H160.309V368.439ZM159.8 138.127V367.93H160.818V138.127H159.8Z" fill="#263238"/>
<path d="M378.001 290.5L372.686 299.195L364.654 295.843C361.852 295.748 359.059 295.466 356.294 295C352.572 294.283 350.264 293.351 349.29 292.642C348.316 291.934 345.792 287.852 345.792 287.852C345.792 287.852 357.845 276.429 361.693 276.984C365.54 277.538 373.338 283.866 378.001 290.5Z" fill="#FEA4A1"/>
<path d="M367.502 306.5L369.382 304C371 302.126 370.321 300.915 369.882 298.5L361.403 278.185C361.403 278.185 363.643 276.365 367.996 279.549C372.34 282.738 375.502 281 375.502 281C375.502 281 370.146 274.604 360.521 268.822C355.014 265.52 352.51 267.397 348.381 268L265.687 256.953L265.416 264.13C265.056 273.572 273.029 281.155 282.484 280.362L340.381 278.695C344.241 292.462 357.106 297.611 366.002 308.5L367.502 306.5Z" fill="url(#paint5_linear_1826_14702)"/>
<path d="M350.942 289.155C350.942 289.155 346.72 292.491 346.676 293.55C346.637 293.977 346.739 294.405 346.967 294.768C347.196 295.131 347.537 295.409 347.94 295.558C348.461 295.685 349.002 295.708 349.532 295.627C349.532 295.627 352.3 292.192 352.418 290.911C352.536 289.631 352.523 288.67 350.942 289.155Z" fill="#FEA5A2"/>
<path d="M348.535 287.261C348.535 287.261 344.326 290.608 344.254 291.646C344.215 292.074 344.318 292.503 344.547 292.867C344.777 293.231 345.119 293.509 345.522 293.658C346.043 293.779 346.581 293.801 347.11 293.723C347.11 293.723 349.882 290.283 349.996 289.008C350.11 287.732 350.115 286.776 348.535 287.261Z" fill="#FEA5A2"/>
<path d="M345.793 286.886C345.793 286.886 342.565 289.456 342.509 290.251C342.479 290.576 342.557 290.901 342.73 291.178C342.902 291.455 343.161 291.667 343.466 291.783C343.865 291.878 344.279 291.896 344.685 291.834C344.685 291.834 346.814 289.198 346.903 288.217C346.993 287.235 347.001 286.515 345.793 286.886Z" fill="#FEA5A2"/>
<path d="M343.589 286.631C343.589 286.631 341.342 288.251 341.35 288.809C341.361 289.058 341.443 289.298 341.587 289.501C341.731 289.703 341.93 289.86 342.161 289.952C342.455 290.042 342.763 290.079 343.07 290.061C343.07 290.061 344.496 288.33 344.502 287.644C344.507 286.957 344.451 286.466 343.589 286.631Z" fill="#FEA5A2"/>
<path d="M373.974 286.137C373.974 286.137 366.87 276.688 363.644 277.319C360.419 277.95 352.788 280.215 353.195 281.444C353.602 282.674 358.338 282.577 359.401 282.607C360.22 282.609 361.037 282.517 361.835 282.333C362.074 283.788 362.693 285.153 363.629 286.291C364.565 287.429 365.785 288.3 367.165 288.815" fill="#FE9D9A"/>
<g clip-path="url(#clip1_1826_14702)">
<path d="M222.507 228.907C222.507 228.907 195.834 232.244 191.032 273.407C191.032 273.407 184.374 319.296 186.74 372.329C186.822 374.059 188.316 375.375 190.027 375.239L260.877 369.584C262.831 369.427 264.335 367.792 264.334 365.812L264.374 298.482L263.5 266.5C263.5 266.5 266.53 271.913 269 275C271 277.5 272.761 279.392 274.5 280C276.352 280.648 289 281 289 281L299 281L308.5 260.5L285.5 259C285.5 259 280.5 253 277.5 248.5C264.855 229.533 252.35 221.851 222.51 228.917L222.507 228.907Z" fill="url(#paint6_linear_1826_14702)"/>
</g>
<path d="M263.472 282.782C263.472 282.782 263.404 282.8 263.362 282.8C263.076 282.811 262.831 282.582 262.819 282.293L261.769 254.659C261.757 254.37 261.983 254.124 262.27 254.113C262.556 254.103 262.801 254.332 262.813 254.62L263.864 282.255C263.875 282.502 263.704 282.723 263.472 282.782Z" fill="url(#paint7_linear_1826_14702)"/>
<path d="M299.485 281.118C299.485 281.118 299.42 281.108 299.384 281.094C299.132 281.005 299.001 280.757 299.091 280.544L307.856 260.184C307.947 259.971 308.229 259.87 308.481 259.958C308.732 260.047 308.864 260.295 308.773 260.508L300.009 280.868C299.932 281.051 299.707 281.153 299.485 281.118Z" fill="url(#paint8_linear_1826_14702)"/>
<g clip-path="url(#clip2_1826_14702)">
<path d="M232.041 384.231C229.938 382.845 227.389 382.306 224.897 382.733L219.943 383.579C218.885 383.762 217.922 382.969 217.884 381.893L216.001 336C209.483 338.529 200.74 337.852 197.772 337.403L205.284 391.489L245.786 394.584L232.041 384.231Z" fill="url(#paint9_linear_1826_14702)"/>
</g>
<path d="M228.325 195.906L217.723 233.16C217.723 233.16 229.722 241.453 237.871 237.872L243.053 216.578C243.053 216.578 236.472 191.365 228.325 195.906Z" fill="url(#paint10_linear_1826_14702)"/>
<path d="M247.193 169.144C247.574 169.615 260.527 207.411 260.527 207.411L238.973 214.389L221.416 180.403C221.416 180.403 240.896 161.249 247.193 169.144Z" fill="url(#paint11_linear_1826_14702)"/>
<path d="M229.992 185.19L237.85 203.808C237.956 204.044 238.08 204.269 238.243 204.471C239.225 205.714 242.929 209.727 246.764 205.662C250.242 201.972 253.482 198.662 256.604 197.898C258.006 197.557 259.44 198.346 259.908 199.722C261.089 203.157 263.598 210.948 264.749 218.046C264.981 219.488 264.074 220.86 262.673 221.222C258.449 222.308 249.471 224.353 241.864 224.278C240.83 224.273 239.892 223.705 239.402 222.785C237.033 218.313 229.767 204.765 227.161 201.309C224.719 198.065 219.25 198.502 216.975 198.848C216.231 198.966 215.475 198.761 214.874 198.294C212.754 196.648 208.651 192.356 213.682 186.596C214.739 185.386 214.594 183.565 213.366 182.54C210.92 180.5 208.206 176.768 211.758 171.719C215.365 166.585 220.569 167.034 223.8 168.003C225.108 168.396 226.462 167.764 227.087 166.541C227.444 165.841 228.101 165.294 229.297 165.319C230.914 165.358 232.186 163.912 232.054 162.292C231.806 159.163 232.664 155.133 237.951 153.1C247.332 149.502 253.876 158.444 254.906 165.367C255.935 172.281 245.544 175.609 239.311 175.528C234.572 175.463 231.364 180.4 230.09 182.776C229.687 183.53 229.653 184.422 229.983 185.201L229.992 185.19Z" fill="url(#paint12_linear_1826_14702)"/>
<path d="M230.095 208.062C230.095 208.062 227.792 196.08 222.779 195.801C217.757 195.522 213.172 199.949 218.546 206.416C225.234 214.458 230.094 208.052 230.094 208.052L230.095 208.062Z" fill="url(#paint13_linear_1826_14702)"/>
<path d="M201.332 338.003C198.943 337.645 197.278 337.17 197.09 337.121L196.788 337.035L194.77 263.634C194.762 263.346 194.954 263.088 195.196 263.063C195.438 263.038 195.644 263.253 195.652 263.541L197.648 336.18C199.516 336.665 209.515 338.994 215.534 335.234L213.816 271.47L216.904 266.594C217.05 266.359 217.331 266.299 217.52 266.46C217.707 266.632 217.743 266.955 217.598 267.189L214.709 271.757L216.433 335.819L216.179 335.986C211.794 338.895 205.477 338.625 201.324 338.002L201.332 338.003Z" fill="url(#paint14_linear_1826_14702)"/>
<g clip-path="url(#clip3_1826_14702)">
<path d="M415.145 183.198C402.605 191.566 391.11 210.393 414.1 240.727C434.721 267.935 455.901 285.704 452.766 302.44C449.631 319.176 474.08 361.368 523.828 333.819C572.945 306.624 563.539 254.325 503.973 234.451C469.104 222.817 461.054 152.56 415.145 183.198Z" fill="url(#paint15_linear_1826_14702)"/>
<path d="M370.5 281.999C370.5 281.999 387.846 306.842 409.145 289.839L415.018 308.051C415.018 308.051 384.436 327.422 366.128 290.629L370.499 282L370.5 281.999Z" fill="url(#paint16_linear_1826_14702)"/>
<path d="M431.673 216.255C431.673 216.255 442.573 237.618 444.48 247.428C444.48 247.428 438.549 257.502 429.405 251.877C429.405 251.877 423.27 224.677 421.49 220.834L431.667 216.255H431.673Z" fill="url(#paint17_linear_1826_14702)"/>
<path d="M407.236 204.215C407.236 204.215 405.207 240.131 420.299 240.63C435.397 241.135 436.861 215.599 436.861 215.599C436.861 215.599 432.408 199.466 425.22 197.586C418.033 195.707 407.236 204.215 407.236 204.215Z" fill="url(#paint18_linear_1826_14702)"/>
<path d="M411.677 193.127C411.677 193.127 404.781 200.188 405.966 204.578C407.15 208.969 421.945 204.378 425.59 202.304L437.809 215.324C437.809 215.324 437.432 196.034 429.005 190.099C420.572 184.157 411.677 193.127 411.677 193.127Z" fill="url(#paint19_linear_1826_14702)"/>
<path d="M432.293 215.944C432.293 215.944 434.134 203.623 440.149 207.089C446.164 210.556 439.705 220.097 435.009 219.501L432.293 215.944Z" fill="url(#paint20_linear_1826_14702)"/>
<path d="M427.369 252.386C432.77 250.762 444.435 239.869 459.393 253.691C461.933 256.033 462.966 259.596 462.06 262.929C458.044 277.737 461.713 331.698 471.009 350.623C471.009 350.623 440.358 358.478 422.489 343.914C422.489 343.914 422.089 313.042 411.59 297.687C404.342 287.087 414.977 266.057 419.734 259.003C420.457 257.933 422.064 255.811 423.303 255.44L427.369 252.386Z" fill="url(#paint21_linear_1826_14702)"/>
<path d="M422 335.381C422 335.381 417.75 352.003 414.135 364.366L396.317 433.649C395.965 434.884 396.627 436.173 397.836 436.605C404.544 439.013 426.599 445.824 456.71 443.75C458.223 443.647 459.499 442.57 459.827 441.087C461.814 432.147 468.582 401.655 469.973 395.392C475.283 371.516 480.424 348.815 454.34 333.247C442.316 338.398 433.884 338.398 422 335.381Z" fill="url(#paint22_linear_1826_14702)"/>
<path d="M444.767 264.585C444.767 264.585 489.398 311.483 436.602 313.045C436.602 313.045 428.15 312.482 424.269 314.767C422.18 315.997 419.933 317.523 418.31 318.668C417.566 319.189 417.986 320.364 418.895 320.291C420.643 320.155 422.78 319.793 424.139 318.891C426.774 317.139 425.657 321.052 432.134 323.517C438.615 325.978 440.935 321.109 440.935 321.109C440.935 321.109 508.947 328.406 461.886 256.523C452.022 244.068 440.793 254.448 444.766 264.594L444.767 264.585Z" fill="url(#paint23_linear_1826_14702)"/>
<path d="M517.433 322.995C517.227 322.995 517.026 322.874 516.947 322.667C516.838 322.399 516.971 322.095 517.239 321.986C526.389 318.343 533.813 310.62 537.106 301.328C540.393 292.036 539.482 281.357 534.664 272.758C527.883 260.656 514.881 253.894 502.311 247.356L500.798 246.566C487.206 239.481 473.955 231.04 469.095 217.381C468.997 217.108 469.137 216.81 469.411 216.713C469.684 216.615 469.982 216.755 470.079 217.029C474.818 230.347 487.875 238.648 501.278 245.635L502.791 246.426C515.501 253.036 528.637 259.872 535.575 272.247C540.539 281.101 541.481 292.102 538.091 301.674C534.7 311.246 527.051 319.201 517.628 322.953C517.567 322.977 517.5 322.989 517.433 322.989V322.995Z" fill="#91B3FA"/>
<path d="M503.395 318.179C503.164 318.179 502.951 318.021 502.891 317.783C502.818 317.504 502.988 317.218 503.267 317.151C513.839 314.475 522.673 307.853 526.89 299.448C531.641 289.967 530.134 278.158 523.305 271.365C523.099 271.164 523.099 270.83 523.305 270.623C523.512 270.416 523.84 270.416 524.046 270.623C531.191 277.726 532.777 290.047 527.832 299.916C523.481 308.594 514.398 315.418 503.535 318.166C503.492 318.179 503.45 318.185 503.407 318.185L503.395 318.179Z" fill="#91B3FA"/>
</g>
</g>
<defs>
<linearGradient id="paint0_linear_1826_14702" x1="53.8664" y1="427.024" x2="598.444" y2="427.022" gradientUnits="userSpaceOnUse">
<stop stop-color="#001950"/>
<stop offset="0.0729167" stop-color="#00238B"/>
<stop offset="0.502003" stop-color="#002C94" stop-opacity="0.53"/>
<stop offset="0.901042" stop-color="#00238B"/>
<stop offset="1" stop-color="#001950"/>
</linearGradient>
<linearGradient id="paint1_linear_1826_14702" x1="597.642" y1="77" x2="597.642" y2="168.355" gradientUnits="userSpaceOnUse">
<stop stop-color="#7C38BD"/>
<stop offset="0.510417" stop-color="#BD6DF2"/>
<stop offset="1" stop-color="#2C6BBB"/>
</linearGradient>
<linearGradient id="paint2_linear_1826_14702" x1="608.646" y1="77" x2="608.646" y2="168.355" gradientUnits="userSpaceOnUse">
<stop stop-color="#7D39BE"/>
<stop offset="0.475795" stop-color="#BC6DF1"/>
<stop offset="1" stop-color="#7A9BCB"/>
</linearGradient>
<linearGradient id="paint3_linear_1826_14702" x1="343.387" y1="13" x2="343.387" y2="104.355" gradientUnits="userSpaceOnUse">
<stop stop-color="#7C38BD"/>
<stop offset="0.515625" stop-color="#BD6DF2"/>
<stop offset="0.930606" stop-color="#2C6BBB"/>
</linearGradient>
<linearGradient id="paint4_linear_1826_14702" x1="67.3549" y1="77" x2="67.3549" y2="168.355" gradientUnits="userSpaceOnUse">
<stop stop-color="#7C38BD"/>
<stop offset="0.5" stop-color="#BD6DF2"/>
<stop offset="0.919976" stop-color="#2C6BBB"/>
</linearGradient>
<linearGradient id="paint5_linear_1826_14702" x1="365.002" y1="287" x2="296.502" y2="273" gradientUnits="userSpaceOnUse">
<stop stop-color="#F47E62"/>
<stop offset="1" stop-color="#F8AB71"/>
</linearGradient>
<linearGradient id="paint6_linear_1826_14702" x1="247.645" y1="246.779" x2="230.332" y2="472.267" gradientUnits="userSpaceOnUse">
<stop stop-color="#CB236D"/>
<stop offset="1" stop-color="#4C246D"/>
</linearGradient>
<linearGradient id="paint7_linear_1826_14702" x1="274.611" y1="276.044" x2="306.141" y2="295.978" gradientUnits="userSpaceOnUse">
<stop stop-color="#CB236D"/>
<stop offset="1" stop-color="#4C246D"/>
</linearGradient>
<linearGradient id="paint8_linear_1826_14702" x1="311.486" y1="279.992" x2="327.233" y2="307.644" gradientUnits="userSpaceOnUse">
<stop stop-color="#CB236D"/>
<stop offset="1" stop-color="#4C246D"/>
</linearGradient>
<linearGradient id="paint9_linear_1826_14702" x1="195.841" y1="362.796" x2="247.911" y2="366.776" gradientUnits="userSpaceOnUse">
<stop stop-color="#F9B776"/>
<stop offset="1" stop-color="#F47960"/>
</linearGradient>
<linearGradient id="paint10_linear_1826_14702" x1="212.246" y1="241.385" x2="244.203" y2="204.473" gradientUnits="userSpaceOnUse">
<stop stop-color="#F9B776"/>
<stop offset="1" stop-color="#F47960"/>
</linearGradient>
<linearGradient id="paint11_linear_1826_14702" x1="239.922" y1="175.042" x2="242.162" y2="251.069" gradientUnits="userSpaceOnUse">
<stop stop-color="#F9B776"/>
<stop offset="1" stop-color="#F47960"/>
</linearGradient>
<linearGradient id="paint12_linear_1826_14702" x1="221.957" y1="208.382" x2="264.55" y2="174.422" gradientUnits="userSpaceOnUse">
<stop stop-color="#2B3582"/>
<stop offset="1" stop-color="#150E42"/>
</linearGradient>
<linearGradient id="paint13_linear_1826_14702" x1="217.888" y1="254.561" x2="222.981" y2="202.118" gradientUnits="userSpaceOnUse">
<stop stop-color="#F9B776"/>
<stop offset="1" stop-color="#F47960"/>
</linearGradient>
<linearGradient id="paint14_linear_1826_14702" x1="197.831" y1="316.901" x2="167.043" y2="368.654" gradientUnits="userSpaceOnUse">
<stop stop-color="#CB236D"/>
<stop offset="1" stop-color="#4C246D"/>
</linearGradient>
<linearGradient id="paint15_linear_1826_14702" x1="539.656" y1="177.974" x2="473.894" y2="256.047" gradientUnits="userSpaceOnUse">
<stop stop-color="#09005D"/>
<stop offset="1" stop-color="#1A0F91"/>
</linearGradient>
<linearGradient id="paint16_linear_1826_14702" x1="383.602" y1="258.473" x2="394.799" y2="323.952" gradientUnits="userSpaceOnUse">
<stop stop-color="#FF928E"/>
<stop offset="1" stop-color="#FEB3B1"/>
</linearGradient>
<linearGradient id="paint17_linear_1826_14702" x1="424.613" y1="214.412" x2="444.696" y2="272.173" gradientUnits="userSpaceOnUse">
<stop stop-color="#FF928E"/>
<stop offset="1" stop-color="#FEB3B1"/>
</linearGradient>
<linearGradient id="paint18_linear_1826_14702" x1="347.977" y1="59.6132" x2="377.895" y2="123.754" gradientUnits="userSpaceOnUse">
<stop stop-color="#FF928E"/>
<stop offset="1" stop-color="#FEB3B1"/>
</linearGradient>
<linearGradient id="paint19_linear_1826_14702" x1="458.849" y1="126.635" x2="425.292" y2="201.971" gradientUnits="userSpaceOnUse">
<stop stop-color="#09005D"/>
<stop offset="1" stop-color="#1A0F91"/>
</linearGradient>
<linearGradient id="paint20_linear_1826_14702" x1="363.068" y1="52.5772" x2="392.986" y2="116.718" gradientUnits="userSpaceOnUse">
<stop stop-color="#FF928E"/>
<stop offset="1" stop-color="#FEB3B1"/>
</linearGradient>
<linearGradient id="paint21_linear_1826_14702" x1="429.405" y1="242.715" x2="485.053" y2="509.84" gradientUnits="userSpaceOnUse">
<stop stop-color="#09005D"/>
<stop offset="0.38254" stop-color="#2F23AC"/>
</linearGradient>
<linearGradient id="paint22_linear_1826_14702" x1="429.405" y1="242.715" x2="485.053" y2="509.84" gradientUnits="userSpaceOnUse">
<stop stop-color="#09005D"/>
<stop offset="0.38254" stop-color="#2F23AC"/>
</linearGradient>
<linearGradient id="paint23_linear_1826_14702" x1="403.561" y1="248.776" x2="425.893" y2="272.922" gradientUnits="userSpaceOnUse">
<stop stop-color="#FF928E"/>
<stop offset="1" stop-color="#FEB3B1"/>
</linearGradient>
<clipPath id="clip0_1826_14702">
<rect width="686" height="444" fill="white"/>
</clipPath>
<clipPath id="clip1_1826_14702">
<rect width="178" height="158" fill="white" transform="matrix(-1 0 0 1 332 210)"/>
</clipPath>
<clipPath id="clip2_1826_14702">
<rect width="56" height="33" fill="white" transform="matrix(-1 0 0 1 250 335)"/>
</clipPath>
<clipPath id="clip3_1826_14702">
<rect width="223" height="192" fill="white" transform="translate(347 176)"/>
</clipPath>
</defs>
</svg>
