<svg width="207" height="72" viewBox="0 0 207 72" fill="none" xmlns="http://www.w3.org/2000/svg">
<g clip-path="url(#clip0_1832_16671)">
<path d="M44.2285 5.42534C39.8192 0.99891 32.7355 0.853768 28.1094 4.84481L51.9628 28.8636C54.2036 31.1131 57.6731 31.1131 59.9862 29.0813C59.9862 29.0087 63.8172 25.2354 63.8172 25.2354L44.2285 5.42534Z" fill="#140096"/>
<path d="M8.52246 45.8436L27.5329 64.928C31.9422 69.2819 39.0259 69.4996 43.652 65.5085L20.3769 42.2154C18.2084 39.9659 14.6665 39.9659 12.3535 41.9977L8.52246 45.8436Z" fill="#140096"/>
<path d="M25.7968 7.0957L17.9902 14.9326L41.6991 38.7338C44.0121 41.0558 47.8431 41.201 50.1562 38.9515L53.8426 35.2507L25.7968 7.0957Z" fill="#140096"/>
<path d="M15.6796 17.2539L7.80078 25.1634L31.5096 48.9646C33.8227 51.2866 37.6537 51.4317 39.9667 49.1822L43.7977 45.4089L15.6796 17.2539Z" fill="#140096"/>
<path d="M65.9159 43.0863C69.8915 38.6599 69.9638 31.8388 66.0605 27.3398L37.9424 55.5674L45.6767 63.3318C64.7594 44.2473 65.9159 43.0863 65.9159 43.0863Z" fill="#140096"/>
<path d="M14.2326 35.977L5.6309 27.3418C1.65533 31.9859 1.72761 38.807 6.42601 43.7414L14.2326 35.977Z" fill="#140096"/>
</g>
<g clip-path="url(#clip1_1832_16671)">
<path d="M89.3648 24.9599H83.8871V28.0539H88.0095V29.9103H83.8871V35.7608H81.7412V23.1035H89.3648V24.9599Z" fill="#1D1D1B"/>
<path d="M102.354 35.7046H100.377V29.8541H93.8267V35.7046H91.7373V23.1035H93.7138V27.9977H100.264V23.1035H102.241V35.7046H102.354Z" fill="#1D1D1B"/>
<path d="M123.136 35.7046H120.99V27.9977L117.545 33.5669H116.02L112.576 27.9977V35.7046H110.43V23.1035H111.898L116.754 31.0354L121.667 23.1035H123.136V35.7046Z" fill="#1D1D1B"/>
<path d="M137.139 30.4729C137.139 32.3293 136.631 33.6794 135.502 34.6357C134.598 35.4795 133.187 35.9296 131.718 35.9296C130.25 35.9296 128.838 35.4795 127.935 34.6357C126.862 33.6794 126.354 32.3293 126.354 30.4729V23.1598H128.499V30.6416C128.499 31.823 128.782 32.6106 129.403 33.1731C129.968 33.7356 130.815 34.0732 131.718 34.0732C132.622 34.0732 133.469 33.7356 134.09 33.1731C134.711 32.6106 134.994 31.7667 134.994 30.6416V23.1035H137.139V30.4729Z" fill="#1D1D1B"/>
<path d="M133.694 19.166C133.016 19.166 132.508 19.6723 132.508 20.3474C132.508 20.9662 133.016 21.5287 133.694 21.5287C134.371 21.5287 134.88 21.0224 134.88 20.3474C134.88 19.6723 134.371 19.166 133.694 19.166Z" fill="#1D1D1B"/>
<path d="M129.855 19.166C129.177 19.166 128.669 19.6723 128.669 20.3474C128.669 21.0224 129.177 21.5287 129.855 21.5287C130.532 21.5287 131.041 21.0224 131.041 20.3474C131.041 19.6723 130.532 19.166 129.855 19.166Z" fill="#1D1D1B"/>
<path d="M151.708 35.7046H150.24L142.729 26.9288V35.7046H140.583V23.1035H142.051L149.562 31.8792V23.1035H151.708V35.7046Z" fill="#1D1D1B"/>
<path d="M159.39 28.2782C158.147 27.7719 157.074 27.3781 157.074 26.3655C157.074 25.5779 157.752 24.7904 159.277 24.7904C160.067 24.7904 160.914 25.0717 161.479 25.578L162.552 24.0591C161.479 23.3278 160.406 22.9902 159.051 22.9902C157.074 22.9902 154.928 24.2278 154.928 26.478C154.928 27.6594 155.493 28.5595 156.679 29.2345C157.187 29.5158 157.808 29.7971 158.373 30.0221C159.728 30.5846 160.971 31.0347 160.971 32.3285C160.971 32.8348 160.745 33.2849 160.35 33.6224C159.954 33.9599 159.446 34.1287 158.881 34.1287C157.808 34.1287 156.679 33.6224 155.832 32.7786L154.477 34.1849C155.775 35.3663 157.357 35.9288 158.881 35.9288C160.011 35.9288 161.027 35.535 161.874 34.9162C162.665 34.2412 163.117 33.2848 163.117 32.2723C163.117 29.7408 161.027 28.9532 159.39 28.2782Z" fill="#1D1D1B"/>
<path d="M173.846 24.9599H170.401V35.7046H168.312V24.9599H164.867V23.1035H173.846V24.9599Z" fill="#1D1D1B"/>
<path d="M183.562 24.9599H178.253V28.0539H182.263V29.9103H178.253V33.9044H183.731V35.7608H176.107V23.1035H183.562V24.9599Z" fill="#1D1D1B"/>
<path d="M192.029 29.8556L192.311 29.7431C192.763 29.5744 193.215 29.3494 193.553 29.0118C194.231 28.3368 194.626 27.4367 194.626 26.4804C194.626 25.524 194.231 24.624 193.553 23.9489C192.876 23.3301 192.029 23.0488 190.843 23.0488H186.269V35.6499H188.414V29.9119H189.6L194.231 35.6499H196.829L192.029 29.8556ZM188.414 28.1117V24.9615H190.673C191.52 24.9615 191.859 25.1865 192.085 25.4115C192.367 25.6928 192.537 26.1428 192.537 26.5366C192.537 26.9304 192.367 27.3804 192.085 27.6617C191.803 27.9992 191.407 28.1117 190.673 28.1117H188.414Z" fill="#1D1D1B"/>
</g>
<g clip-path="url(#clip2_1832_16671)">
<path d="M86.2031 49.6146C86.2031 50.2009 86.0694 50.6272 85.7751 50.947C85.4274 51.3467 84.9191 51.5332 84.3574 51.5332C83.7957 51.5332 83.2874 51.32 82.9397 50.947C82.6454 50.6272 82.5117 50.2009 82.5117 49.6146V45.8574H81.7627V49.5613C81.7627 50.3341 81.9767 50.947 82.4314 51.4266C82.9129 51.9596 83.6352 52.2527 84.3841 52.2527C85.1331 52.2527 85.8554 51.9596 86.3369 51.4266C86.7916 50.947 87.0056 50.3341 87.0056 49.5613V45.8574H86.2566L86.2031 49.6146Z" fill="#1D1D1B"/>
<path d="M90.4585 47.8828C89.7898 47.8828 89.3618 48.2292 89.2013 48.3625L89.0676 48.4957V47.9628H88.3721V52.1463H89.0943V49.2152C89.3083 48.9753 89.7363 48.549 90.405 48.549C90.7795 48.549 91.154 48.7089 91.368 49.002C91.5018 49.1885 91.6355 49.4283 91.6355 50.0679V52.1463H92.3577V50.0945C92.3577 49.4017 92.224 48.9753 91.9565 48.6023C91.6088 48.1493 91.0738 47.8828 90.4585 47.8828Z" fill="#1D1D1B"/>
<path d="M94.4683 47.9902H93.7461V52.1738H94.4683V47.9902Z" fill="#1D1D1B"/>
<path d="M94.0948 45.8574C93.8273 45.8574 93.6133 46.0706 93.6133 46.3637C93.6133 46.6302 93.8273 46.8434 94.0948 46.8434C94.389 46.8434 94.603 46.6302 94.603 46.3637C94.603 46.0972 94.389 45.8574 94.0948 45.8574Z" fill="#1D1D1B"/>
<path d="M97.5724 51.0813L96.2349 47.9902H95.5127L97.3317 52.1738H97.8132L99.6589 47.9902H98.9099L97.5724 51.0813Z" fill="#1D1D1B"/>
<path d="M102.226 47.8828C101.049 47.8828 100.193 48.7888 100.193 50.0679C100.193 51.3203 101.13 52.2529 102.36 52.2529C103.35 52.2529 104.072 51.5334 104.072 51.5334L103.617 51.1071C103.377 51.3736 103.002 51.6667 102.36 51.6667C101.986 51.6667 101.611 51.5334 101.317 51.267C101.049 51.0005 100.862 50.6541 100.862 50.281V50.2011H104.233C104.233 50.1745 104.233 50.1212 104.233 50.1212C104.233 49.5083 104.019 48.9487 103.671 48.549C103.296 48.096 102.788 47.8828 102.226 47.8828ZM100.942 49.4816C101.103 48.8954 101.638 48.469 102.253 48.469C102.815 48.469 103.35 48.8954 103.484 49.4816L103.51 49.5882H100.916L100.942 49.4816Z" fill="#1D1D1B"/>
<path d="M107.498 47.8828C106.882 47.8828 106.454 48.1759 106.267 48.4424L106.107 48.6556V47.9628H105.411V52.1463H106.133V49.3217C106.401 48.8687 106.909 48.549 107.391 48.549C107.498 48.549 107.578 48.549 107.658 48.5756L107.738 47.9095C107.765 47.9095 107.551 47.8828 107.498 47.8828Z" fill="#1D1D1B"/>
<path d="M109.984 49.7202C109.503 49.587 109.128 49.4804 109.128 49.134C109.128 48.7609 109.476 48.4944 110.011 48.4944C110.332 48.4944 110.626 48.601 110.92 48.7875L111.268 48.3079C110.894 48.0414 110.466 47.9082 109.931 47.9082C109.182 47.9082 108.406 48.3079 108.406 49.1873C108.406 49.7735 108.914 50.0932 109.342 50.2265C109.503 50.2798 109.663 50.3064 109.797 50.3597C110.305 50.493 110.76 50.5995 110.76 51.0525C110.76 51.4522 110.332 51.6921 109.904 51.6921C109.476 51.6921 109.048 51.5322 108.647 51.2657L108.299 51.772C108.754 52.1184 109.315 52.3049 109.931 52.3049C110.332 52.3049 110.733 52.1717 111.001 51.9585C111.295 51.7187 111.455 51.4256 111.455 51.0525C111.509 50.2265 110.733 49.9067 109.984 49.7202Z" fill="#1D1D1B"/>
<path d="M113.031 45.8574C112.764 45.8574 112.55 46.0706 112.55 46.3637C112.55 46.6302 112.764 46.8434 113.031 46.8434C113.299 46.8434 113.54 46.6302 113.54 46.3637C113.54 46.0706 113.299 45.8574 113.031 45.8574Z" fill="#1D1D1B"/>
<path d="M113.407 47.9902H112.685V52.1738H113.407V47.9902Z" fill="#1D1D1B"/>
<path d="M116.137 46.7891H115.414V47.9882H114.291V48.6011H115.414V50.6795C115.414 51.1858 115.521 51.5322 115.735 51.772C116.03 52.0918 116.404 52.2517 116.912 52.2517C117.126 52.2517 117.501 52.1984 117.501 52.1984L117.367 51.5589C117.367 51.5589 117.046 51.5855 116.939 51.5855C116.672 51.5855 116.404 51.4789 116.27 51.319C116.137 51.1858 116.11 50.9726 116.11 50.7062V48.5744H117.501V47.9615H116.11L116.137 46.7891Z" fill="#1D1D1B"/>
<path d="M120.498 50.9747L119.054 47.9902H118.305L120.124 51.8008L119 54.4122H119.749L122.531 47.9902H121.782L120.498 50.9747Z" fill="#1D1D1B"/>
<path d="M127.103 47.8828C126.515 47.8828 125.953 48.096 125.552 48.4957C125.151 48.8954 124.937 49.455 124.937 50.0412C124.937 50.6541 125.151 51.187 125.552 51.5867C125.953 51.9864 126.488 52.1996 127.103 52.1996C127.692 52.1996 128.253 51.9864 128.655 51.5867C129.056 51.187 129.27 50.6275 129.27 50.0412C129.27 49.4283 129.056 48.8954 128.655 48.4957C128.253 48.1226 127.692 47.8828 127.103 47.8828ZM127.103 51.5867C126.274 51.5867 125.632 50.9206 125.632 50.0679C125.632 49.1885 126.274 48.549 127.103 48.549C127.932 48.549 128.574 49.2152 128.574 50.0679C128.574 50.9472 127.932 51.5867 127.103 51.5867Z" fill="#1D1D1B"/>
<path d="M131.703 47.4812C131.703 47.0549 131.757 46.815 131.89 46.6552C132.051 46.442 132.345 46.3088 132.639 46.3088C132.72 46.3088 132.907 46.3354 132.907 46.3354L133.067 45.6959C133.067 45.6959 132.773 45.6426 132.639 45.6426C132.078 45.6426 131.569 45.8824 131.275 46.3354C131.088 46.6019 131.008 46.9483 131.008 47.5079V47.9609H129.991V48.5737H131.008V52.1444H131.73V48.5737H133.067V47.9609H131.73L131.703 47.4812Z" fill="#1D1D1B"/>
<path d="M138.926 45.8574H138.391L135.77 52.1728H136.545L137.214 50.494H140.076L140.772 52.1728H141.547L138.926 45.8574ZM137.508 49.7745L138.632 47.0565L139.755 49.7745H137.508Z" fill="#1D1D1B"/>
<path d="M145.72 48.1747C145.426 48.0148 145.078 47.9082 144.703 47.9082C144.195 47.9082 143.767 48.0681 143.393 48.3612L143.232 48.4944V47.9881H142.563V54.3834H143.259V51.6654L143.419 51.7987C143.767 52.0918 144.195 52.2517 144.677 52.2517C145.051 52.2517 145.426 52.1451 145.72 51.9852C146.389 51.5855 146.79 50.866 146.79 50.0932C146.79 49.6935 146.683 49.2938 146.496 48.9741C146.308 48.6277 146.041 48.3612 145.72 48.1747ZM146.094 50.0932C146.094 50.946 145.426 51.6121 144.543 51.6121C144.061 51.6121 143.58 51.3723 143.259 50.946V49.2139C143.58 48.7876 144.061 48.5477 144.57 48.5477C145.452 48.5744 146.094 49.2139 146.094 50.0932Z" fill="#1D1D1B"/>
<path d="M150.963 48.1747C150.669 47.9881 150.321 47.9082 149.947 47.9082C149.438 47.9082 149.01 48.0681 148.636 48.3878L148.475 48.5211V48.0148H147.807V54.4101H148.502V51.6921L148.663 51.8253C149.01 52.1184 149.438 52.2783 149.92 52.2783C150.294 52.2783 150.669 52.1717 150.963 52.0118C151.632 51.6121 152.033 50.9193 152.033 50.1199C152.033 49.7202 151.926 49.3205 151.739 49.0007C151.552 48.6277 151.284 48.3612 150.963 48.1747ZM151.338 50.0932C151.338 50.946 150.669 51.6121 149.786 51.6121C149.305 51.6121 148.823 51.3723 148.502 50.946V49.2139C148.823 48.7876 149.305 48.5477 149.813 48.5477C150.696 48.5477 151.338 49.2139 151.338 50.0932Z" fill="#1D1D1B"/>
<path d="M153.828 45.752H153.105V52.1472H153.828V45.752Z" fill="#1D1D1B"/>
<path d="M155.725 45.8574C155.457 45.8574 155.243 46.0706 155.243 46.3637C155.243 46.6302 155.457 46.8434 155.725 46.8434C156.019 46.8434 156.233 46.6302 156.233 46.3637C156.233 46.0706 155.992 45.8574 155.725 45.8574Z" fill="#1D1D1B"/>
<path d="M156.098 47.9902H155.376V52.1738H156.098V47.9902Z" fill="#1D1D1B"/>
<path d="M165.811 48.4687L165.677 48.3621C165.329 48.069 164.875 47.9091 164.393 47.9091C164.019 47.9091 163.671 47.989 163.377 48.1756C163.056 48.3621 162.788 48.6286 162.601 48.9483C162.414 49.2947 162.307 49.6678 162.307 50.0941C162.307 50.8936 162.708 51.613 163.377 52.0127C163.671 52.1726 164.072 52.2792 164.42 52.2792C164.901 52.2792 165.383 52.1193 165.704 51.7996L165.838 51.6663V52.1726H166.533V45.7773H165.811V48.4687ZM164.527 51.613C164.099 51.613 163.698 51.4531 163.43 51.16C163.163 50.8669 163.002 50.4938 163.002 50.0941C163.002 49.6944 163.136 49.3214 163.403 49.0283C163.671 48.7352 164.072 48.5753 164.473 48.5753C164.982 48.5753 165.49 48.8151 165.784 49.2148V50.9469C165.49 51.3466 165.008 51.613 164.527 51.613Z" fill="#1D1D1B"/>
<path d="M180.735 45.8574C180.468 45.8574 180.254 46.0706 180.254 46.3637C180.254 46.6302 180.468 46.8434 180.735 46.8434C181.003 46.8434 181.244 46.6302 181.244 46.3637C181.217 46.0706 181.003 45.8574 180.735 45.8574Z" fill="#1D1D1B"/>
<path d="M181.083 47.9902H180.36V52.1738H181.083V47.9902Z" fill="#1D1D1B"/>
<path d="M189.429 47.8828C188.76 47.8828 188.333 48.2292 188.172 48.3625L188.038 48.4957V47.9628H187.343V52.1463H188.065V49.2152C188.279 48.9753 188.707 48.549 189.402 48.549C189.777 48.549 190.151 48.7089 190.365 49.002C190.499 49.1885 190.633 49.4283 190.633 50.0679V52.173H191.355V50.1212C191.355 49.4283 191.221 49.002 190.954 48.6289C190.606 48.1493 190.044 47.8828 189.429 47.8828Z" fill="#1D1D1B"/>
<path d="M159.282 47.9082C158.105 47.9082 157.249 48.8142 157.249 50.0932C157.249 51.3457 158.185 52.2783 159.416 52.2783C160.405 52.2783 161.128 51.5588 161.128 51.5588L160.673 51.1325C160.432 51.399 160.058 51.6921 159.416 51.6921C159.041 51.6921 158.667 51.5588 158.373 51.2924C158.105 51.0259 157.918 50.6795 157.918 50.3064V50.2265H161.315C161.315 50.1998 161.315 50.1465 161.315 50.1199C161.315 49.507 161.101 48.9741 160.753 48.5477C160.379 48.1214 159.844 47.9082 159.282 47.9082ZM158.025 49.507C158.185 48.9208 158.72 48.4944 159.335 48.4944C159.897 48.4944 160.432 48.9208 160.566 49.507L160.593 49.6136H157.998L158.025 49.507Z" fill="#1D1D1B"/>
<path d="M184.266 47.8828C183.089 47.8828 182.233 48.7888 182.233 50.0679C182.233 51.3203 183.17 52.2529 184.4 52.2529C185.39 52.2529 186.112 51.5334 186.112 51.5334L185.657 51.1071C185.417 51.3736 185.042 51.6667 184.4 51.6667C184.026 51.6667 183.651 51.5334 183.357 51.267C183.089 51.0005 182.929 50.6541 182.902 50.281V50.2011H186.273C186.273 50.1745 186.273 50.1212 186.273 50.0945C186.273 49.4816 186.059 48.9487 185.711 48.5223C185.363 48.1226 184.828 47.8828 184.266 47.8828ZM183.009 49.5083C183.17 48.922 183.705 48.4957 184.32 48.4957C184.882 48.4957 185.417 48.922 185.55 49.5083L185.577 49.6149H182.982L183.009 49.5083Z" fill="#1D1D1B"/>
<path d="M199.274 47.8828C198.097 47.8828 197.241 48.7888 197.241 50.0679C197.241 51.3203 198.177 52.2529 199.408 52.2529C200.398 52.2529 201.12 51.5334 201.12 51.5334L200.665 51.1071C200.424 51.3736 200.05 51.6667 199.408 51.6667C199.033 51.6667 198.659 51.5334 198.365 51.267C198.097 51.0005 197.91 50.6541 197.91 50.281V50.2011H201.28C201.28 50.1745 201.28 50.1212 201.28 50.0945C201.28 49.4816 201.066 48.9487 200.719 48.5223C200.344 48.1226 199.836 47.8828 199.274 47.8828ZM197.99 49.5083C198.151 48.922 198.686 48.4957 199.301 48.4957C199.863 48.4957 200.398 48.922 200.531 49.5083L200.558 49.6149H197.963L197.99 49.5083Z" fill="#1D1D1B"/>
<path d="M173.54 49.0549C173.273 48.8684 172.631 48.6019 172.631 48.6019C171.935 48.3088 171.293 48.0423 171.293 47.4295C171.293 46.7899 171.882 46.4702 172.47 46.4702C172.872 46.4702 173.273 46.6034 173.621 46.8699L174.049 46.3369C173.567 45.9639 173.032 45.7773 172.417 45.7773C171.347 45.7773 170.544 46.4968 170.544 47.4028C170.544 47.9624 170.812 48.4154 171.32 48.7618C171.588 48.9217 171.909 49.0549 172.23 49.1882C172.952 49.4813 173.621 49.7477 173.621 50.4938C173.621 50.787 173.487 51.0801 173.246 51.2666C173.032 51.4531 172.711 51.5597 172.39 51.5597C171.641 51.5597 171.106 51.1334 170.812 50.7603L170.304 51.2666C170.865 51.9061 171.614 52.2526 172.47 52.2526C173.005 52.2526 173.487 52.066 173.835 51.7729C174.209 51.4531 174.396 51.0001 174.396 50.4672C174.343 49.881 174.075 49.4013 173.54 49.0549Z" fill="#1D1D1B"/>
<path d="M178.755 50.9472C178.407 51.3736 177.979 51.5867 177.471 51.5867C177.043 51.5867 176.642 51.4269 176.374 51.1604C176.08 50.8939 175.946 50.4942 175.946 50.0679C175.946 49.2152 176.588 48.549 177.417 48.549C178.033 48.549 178.461 48.922 178.621 49.1619L179.129 48.7355C178.728 48.2026 178.059 47.8828 177.391 47.8828C176.133 47.8828 175.197 48.8155 175.197 50.0679C175.197 50.6807 175.411 51.2137 175.839 51.6134C176.24 52.0131 176.829 52.2529 177.444 52.2529C178.166 52.2529 178.889 51.8799 179.263 51.3469L178.755 50.9472Z" fill="#1D1D1B"/>
<path d="M195.93 50.9726C195.582 51.399 195.154 51.6121 194.646 51.6121C194.218 51.6121 193.817 51.4522 193.549 51.1858C193.255 50.9193 193.121 50.5196 193.121 50.0932C193.121 49.2139 193.763 48.5744 194.592 48.5744C195.208 48.5744 195.609 48.9474 195.796 49.1873L196.304 48.7609C195.903 48.228 195.234 47.9082 194.566 47.9082C193.308 47.9082 192.372 48.8408 192.372 50.0932C192.372 50.7061 192.586 51.2391 193.014 51.6388C193.415 52.0385 194.004 52.2783 194.619 52.2783C195.341 52.2783 196.064 51.9052 196.438 51.3723L195.93 50.9726Z" fill="#1D1D1B"/>
<path d="M203.928 49.7202C203.446 49.587 203.072 49.4804 203.072 49.134C203.072 48.7609 203.42 48.4944 203.955 48.4944C204.276 48.4944 204.57 48.601 204.864 48.7875L205.212 48.3079C204.837 48.0414 204.409 47.9082 203.874 47.9082C203.125 47.9082 202.35 48.3079 202.35 49.1873C202.35 49.7735 202.858 50.0932 203.286 50.2265C203.446 50.2798 203.607 50.3064 203.741 50.3597C204.249 50.493 204.704 50.5995 204.704 51.0525C204.704 51.4522 204.276 51.6921 203.848 51.6921C203.42 51.6921 202.992 51.5322 202.59 51.2391L202.216 51.7454C202.671 52.0918 203.232 52.2783 203.874 52.2783C204.276 52.2783 204.677 52.1451 204.944 51.9319C205.238 51.6921 205.399 51.3723 205.399 51.0259C205.426 50.1998 204.677 49.9067 203.928 49.7202Z" fill="#1D1D1B"/>
</g>
<defs>
<clipPath id="clip0_1832_16671">
<rect width="71.116" height="72" fill="white"/>
</clipPath>
<clipPath id="clip1_1832_16671">
<rect width="123.68" height="26.0426" fill="white" transform="translate(75.752 15.3203)"/>
</clipPath>
<clipPath id="clip2_1832_16671">
<rect width="128.155" height="13.7872" fill="white" transform="translate(78.8438 42.8945)"/>
</clipPath>
</defs>
</svg>
