<svg width="124" height="205" viewBox="0 0 124 205" fill="none" xmlns="http://www.w3.org/2000/svg">
<path d="M0.475133 180.781C1.31023 180.395 2.209 180.165 3.12689 180.104C3.12689 180.104 6.30565 178.23 9.45932 170.969H12.9978C13.5954 170.974 14.1768 171.163 14.6632 171.51C15.1496 171.858 15.5173 172.346 15.7165 172.909C15.7746 173.068 15.8085 173.234 15.8169 173.403C15.7819 174.258 15.6925 175.11 15.5492 175.954C15.03 178.783 14.3371 181.576 13.4746 184.32L12.8723 184.169L13.9681 178.882C14.3278 177.084 12.4457 178.824 11.5673 180.631C10.689 182.437 9.35057 184.261 5.44403 183.366C0.885016 182.253 -0.955311 181.601 0.475133 180.781Z" fill="#121057"/>
<path d="M10.0951 169.061C10.0951 169.061 5.67833 178.313 3.12695 180.103C3.12695 180.103 6.53994 182.136 10.0951 177.594C14.696 171.738 15.8169 173.369 15.8169 173.369C15.7256 172.359 15.5408 171.359 15.2648 170.383C14.5705 168.509 10.0951 169.061 10.0951 169.061Z" fill="url(#paint0_linear_1246_13678)"/>
<path d="M49.1774 202.824C49.8962 202.248 50.7161 201.811 51.595 201.536C51.595 201.536 54.2384 198.968 55.5768 191.163L59.0149 190.326C59.5975 190.192 60.2073 190.24 60.7621 190.463C61.3169 190.686 61.7902 191.073 62.1184 191.573C62.2131 191.714 62.2838 191.869 62.3275 192.033C62.4948 192.861 62.6093 193.7 62.6705 194.542C62.8438 197.401 62.8438 200.267 62.6705 203.125H62.0514L61.859 197.738C61.7838 195.906 60.3617 198.039 59.9434 200.005C59.5252 201.971 58.6468 204.054 54.6399 204.112C49.9219 204.162 47.9896 203.953 49.1774 202.824Z" fill="#121057"/>
<path d="M55.7519 189.162C55.7519 189.162 53.6439 199.201 51.5693 201.534C51.5693 201.534 55.3671 202.706 57.7512 197.461C60.8212 190.676 62.3019 192.007 62.3019 192.007C61.9741 191.044 61.5568 190.114 61.0554 189.229C59.968 187.565 55.7519 189.162 55.7519 189.162Z" fill="url(#paint1_linear_1246_13678)"/>
<path d="M9.58496 170.091L15.0809 171.421L17.8665 163.825L20.3928 156.916L14.1272 154.247L11.7181 162.629L9.58496 170.091Z" fill="url(#paint2_linear_1246_13678)"/>
<path d="M105.8 107.714L108.556 117.079C108.556 117.079 116.123 121.265 115.98 122.335C115.837 123.404 112.202 124.775 111.87 124.73C111.539 124.686 104.505 123.011 103.856 122.249C103.206 121.487 103.816 118.445 103.816 118.445L100.466 108.536L105.8 107.714Z" fill="url(#paint3_linear_1246_13678)"/>
<path d="M12.2783 158.622L19.9074 161.458C19.9074 161.458 40.2598 110.572 44.4424 110.43C48.625 110.288 91.2121 129.829 101.886 118.971C112.56 108.113 97.1263 81.9634 97.1263 81.9634C97.1263 81.9634 71.4536 78.2995 69.5212 84.0965C69.0456 85.8053 68.6823 87.5434 68.4337 89.2997C68.1409 91.0731 67.9402 92.5621 67.9402 92.5621C67.1036 92.3613 41.3724 85.711 31.2171 92.5621C20.8861 99.5052 12.2783 158.622 12.2783 158.622Z" fill="url(#paint4_linear_1246_13678)"/>
<path d="M56.1536 191.797L61.6327 190.391L60.5787 182.528L59.6 175.317L52.8242 175.928L54.5893 184.335L56.1536 191.797Z" fill="url(#paint5_linear_1246_13678)"/>
<path d="M83.4499 121.547C83.4499 121.547 81.7099 121.589 54.7824 120.334C54.7824 120.334 58.8061 153.996 60.9977 179.2L52.9504 180.572C52.9504 180.572 33.7105 126.608 33.9197 118.034C34.1288 109.46 43.9579 106.95 43.9579 106.95C43.9579 106.95 63.1392 118.034 83.4499 121.547Z" fill="url(#paint6_linear_1246_13678)"/>
<path opacity="0.2" d="M83.4499 121.547C83.4499 121.547 81.7099 121.589 54.7824 120.334C54.7824 120.334 58.8061 153.996 60.9977 179.2L52.9504 180.572C52.9504 180.572 33.7105 126.608 33.9197 118.034C34.1288 109.46 43.9579 106.95 43.9579 106.95C43.9579 106.95 63.1392 118.034 83.4499 121.547Z" fill="black"/>
<path opacity="0.2" d="M67.9404 92.529L82.9559 95.6576C82.9559 95.6576 74.6577 91.0735 68.434 89.2666C68.1412 91.0233 67.9404 92.529 67.9404 92.529Z" fill="black"/>
<path d="M96.499 77.9307L97.118 81.9292L69.5129 84.054L68.7852 79.336L96.499 77.9307Z" fill="#CA397B"/>
<path d="M94.9015 17.8611C94.9015 17.8611 96.1312 29.4301 91.8398 32.2743C87.5485 35.1184 66.4766 31.7891 64.0842 27.1297C61.6918 22.4703 70.6927 9.83887 70.6927 9.83887L94.9015 17.8611Z" fill="url(#paint7_linear_1246_13678)"/>
<path d="M69.4043 13.1764C69.4043 13.1764 70.9602 -5.22699 86.3103 1.46514C105.55 9.83031 90.2587 32.1988 80.8478 27.6063C71.437 23.0138 69.4043 13.1764 69.4043 13.1764Z" fill="url(#paint8_linear_1246_13678)"/>
<path d="M64.9545 34.5244C70.1238 35.959 75.4904 36.5522 80.8483 36.2811C89.707 35.8294 100.297 40.1291 100.297 40.1291L96.4912 77.9397L68.7857 79.3115C68.7857 79.3115 59.4753 47.7665 64.9545 34.5244Z" fill="url(#paint9_linear_1246_13678)"/>
<path d="M78.4638 39.2426L86.394 37.0007C81.5087 33.6546 83.9765 26.126 83.9765 26.126L76.1132 28.8865C76.4711 29.9806 76.7506 31.0988 76.9497 32.2326C77.7862 37.1345 75.5527 37.5277 75.5527 37.5277L78.4638 39.2426Z" fill="url(#paint10_linear_1246_13678)"/>
<path opacity="0.2" d="M76.0967 28.869C76.4546 29.9631 76.7341 31.0813 76.9332 32.2151C80.6892 30.701 83.9516 26.0918 83.9516 26.0918L76.0967 28.869Z" fill="black"/>
<path d="M81.0271 6.74582C74.5129 5.25502 71.6316 8.36625 69.6821 15.2207C67.2236 23.7685 67.7638 30.3637 76.3137 30.3799C87.9562 30.388 91.871 9.22509 81.0271 6.74582Z" fill="url(#paint11_linear_1246_13678)"/>
<path d="M86.2518 18.7649C86.2518 18.7649 84.2692 12.3237 85.7331 8.01562C85.7331 8.01562 73.1854 -0.675795 69.4043 13.1769C69.4043 13.1769 70.8096 0.445133 82.8388 2.82084C94.8679 5.19655 90.9446 22.6881 83.6084 26.5361C83.6251 26.5361 87.4731 22.7885 86.2518 18.7649Z" fill="#190E91"/>
<path d="M84.7964 19.9772C85.0412 19.1879 85.5891 18.5279 86.3199 18.1421C87.0508 17.7563 87.9048 17.6762 88.6946 17.9194C90.8026 18.6304 90.8528 23.2898 85.2481 23.1643C84.4618 23.1476 84.1774 22.2943 84.7964 19.9772Z" fill="url(#paint12_linear_1246_13678)"/>
<path d="M81.2656 5.8991C81.2656 5.8991 81.5417 17.9784 88.7943 19.4256C96.0469 20.8728 88.1167 3.90818 88.1167 3.90818C88.1167 3.90818 77.3257 -3.13529 70.14 1.82526C62.9543 6.7858 69.4122 13.1768 69.4122 13.1768C69.4122 13.1768 70.9263 4.20933 81.2656 5.8991Z" fill="url(#paint13_linear_1246_13678)"/>
<path d="M72.2733 35.9716C72.2733 35.9716 70.3242 44.847 77.2339 46.8463C84.1435 48.8456 88.9072 36.8799 88.9072 36.8799C88.9072 36.8799 98.0548 38.4895 101.125 40.4721C101.125 40.4721 99.3765 70.2855 96.4989 77.9396L68.9356 80.2903C68.9356 80.2903 56.0282 48.879 64.9538 34.5244L72.2733 35.9716Z" fill="url(#paint14_linear_1246_13678)"/>
<path opacity="0.1" d="M101.125 40.4721C101.125 40.4721 100.573 49.8578 99.5773 59.4443C99.1113 64.5925 98.3798 69.7132 97.3856 74.786C97.1604 75.8557 96.8642 76.9093 96.4989 77.9396L68.9356 80.2903C68.9356 80.2903 56.0282 48.879 64.9538 34.5244L72.2733 35.9716C72.2733 35.9716 70.3242 44.847 77.2339 46.8463C84.1435 48.8456 88.9072 36.8799 88.9072 36.8799C88.9072 36.8799 98.0381 38.4895 101.125 40.4721Z" fill="white"/>
<path opacity="0.2" d="M99.5776 59.4448C99.1116 64.593 98.3801 69.7137 97.3859 74.7865C94.2406 66.4213 97.3274 56.4668 97.3274 56.4668L99.5776 59.4448Z" fill="black"/>
<path d="M100.319 39.9295C106.658 45.4655 105.631 77.6157 105.953 80.186C106.157 81.7973 109.585 113.095 109.585 113.095L101.521 115.094C101.521 115.094 93.0143 88.5272 92.0842 81.7938C91.5212 77.4721 91.2504 73.1162 91.2736 68.756C91.2736 68.756 91.8788 55.5837 94.0195 50.4054C95.7072 46.6793 97.8213 43.1635 100.319 39.9295Z" fill="url(#paint15_linear_1246_13678)"/>
<defs>
<linearGradient id="paint0_linear_1246_13678" x1="4.33556" y1="178.501" x2="9.0199" y2="167.832" gradientUnits="userSpaceOnUse">
<stop stop-color="#B7875B"/>
<stop offset="1" stop-color="#91502A"/>
</linearGradient>
<linearGradient id="paint1_linear_1246_13678" x1="52.5915" y1="199.305" x2="61.9303" y2="186.254" gradientUnits="userSpaceOnUse">
<stop stop-color="#B87A42"/>
<stop offset="1" stop-color="#8B4722"/>
</linearGradient>
<linearGradient id="paint2_linear_1246_13678" x1="11.4072" y1="171.88" x2="19.9015" y2="162.684" gradientUnits="userSpaceOnUse">
<stop stop-color="#904E28"/>
<stop offset="1" stop-color="#94552E"/>
</linearGradient>
<linearGradient id="paint3_linear_1246_13678" x1="105.407" y1="121.88" x2="110.386" y2="114.371" gradientUnits="userSpaceOnUse">
<stop stop-color="#B87A42"/>
<stop offset="1" stop-color="#8B4722"/>
</linearGradient>
<linearGradient id="paint4_linear_1246_13678" x1="58.963" y1="80.8213" x2="58.963" y2="161.458" gradientUnits="userSpaceOnUse">
<stop stop-color="#0F0A63"/>
<stop offset="1" stop-color="#545FB6"/>
</linearGradient>
<linearGradient id="paint5_linear_1246_13678" x1="57.9072" y1="188.88" x2="67.7489" y2="182.322" gradientUnits="userSpaceOnUse">
<stop stop-color="#955329"/>
<stop offset="0.522579" stop-color="#955229"/>
</linearGradient>
<linearGradient id="paint6_linear_1246_13678" x1="58.6839" y1="106.95" x2="58.6839" y2="180.572" gradientUnits="userSpaceOnUse">
<stop stop-color="#0E0861"/>
<stop offset="1" stop-color="#6B77D7"/>
</linearGradient>
<linearGradient id="paint7_linear_1246_13678" x1="68.9072" y1="10.8799" x2="76.8025" y2="31.3176" gradientUnits="userSpaceOnUse">
<stop offset="0.0572917" stop-color="#1400CF"/>
<stop offset="0.140625" stop-color="#09005D"/>
<stop offset="1" stop-color="#1A0F91"/>
</linearGradient>
<linearGradient id="paint8_linear_1246_13678" x1="72.0681" y1="0.412466" x2="83.1472" y2="13.6188" gradientUnits="userSpaceOnUse">
<stop stop-color="#09005D"/>
<stop offset="1" stop-color="#1A0F91"/>
</linearGradient>
<linearGradient id="paint9_linear_1246_13678" x1="75.7014" y1="34.1646" x2="83.2283" y2="26.5164" gradientUnits="userSpaceOnUse">
<stop stop-color="#C4874B"/>
<stop offset="0.515625" stop-color="#813B1B"/>
<stop offset="1" stop-color="#541306"/>
</linearGradient>
<linearGradient id="paint10_linear_1246_13678" x1="75.7014" y1="34.1646" x2="83.2283" y2="26.5164" gradientUnits="userSpaceOnUse">
<stop stop-color="#C4874B"/>
<stop offset="0.515625" stop-color="#813B1B"/>
<stop offset="1" stop-color="#541306"/>
</linearGradient>
<linearGradient id="paint11_linear_1246_13678" x1="68.6678" y1="21.0884" x2="99.1516" y2="10.7971" gradientUnits="userSpaceOnUse">
<stop stop-color="#C4874B"/>
<stop offset="0.515625" stop-color="#813B1B"/>
<stop offset="1" stop-color="#541306"/>
</linearGradient>
<linearGradient id="paint12_linear_1246_13678" x1="84.5361" y1="21.0818" x2="92.8489" y2="17.4293" gradientUnits="userSpaceOnUse">
<stop stop-color="#C4874B"/>
<stop offset="0.515625" stop-color="#813B1B"/>
<stop offset="1" stop-color="#541306"/>
</linearGradient>
<linearGradient id="paint13_linear_1246_13678" x1="69.3034" y1="0.340045" x2="77.7566" y2="12.7151" gradientUnits="userSpaceOnUse">
<stop stop-color="#03001F"/>
<stop offset="1" stop-color="#1A0F91"/>
</linearGradient>
<linearGradient id="paint14_linear_1246_13678" x1="81.4667" y1="34.5244" x2="81.4667" y2="80.2903" gradientUnits="userSpaceOnUse">
<stop stop-color="#8A236D"/>
<stop offset="1" stop-color="#C7236D"/>
</linearGradient>
<linearGradient id="paint15_linear_1246_13678" x1="97.4072" y1="40.3799" x2="102.907" y2="114.38" gradientUnits="userSpaceOnUse">
<stop offset="0.010667" stop-color="#9A397B"/>
<stop offset="0.9999" stop-color="#C8397B"/>
<stop offset="1" stop-color="#263238" stop-opacity="0"/>
</linearGradient>
</defs>
</svg>
