<svg width="141" height="55" viewBox="0 0 141 55" fill="none" xmlns="http://www.w3.org/2000/svg">
<path d="M11.8248 42L129.175 42C135.706 42 141 40.423 141 38.4777V3.52228C141 1.57698 135.706 0 129.175 0L11.8248 0C5.29413 0 0 1.57698 0 3.52228V38.4777C0 40.423 5.29413 42 11.8248 42Z" fill="#407BFF"/>
<path d="M25.5292 38.04C25.5292 38.04 23.4205 49.7063 8.00684 54.9664C8.00684 54.9664 16.7623 46.4975 16.7623 38.04H25.5292Z" fill="#407BFF"/>
<g clip-path="url(#clip0_347_14483)">
<path d="M90.1152 28.2089C89.8785 28.2089 89.6904 28.1602 89.5511 28.0627C89.4258 27.9791 89.3352 27.8537 89.2795 27.6866C89.2377 27.5055 89.2168 27.3105 89.2168 27.1016V14.6909C89.2168 14.482 89.2447 14.3009 89.3004 14.1477C89.3561 13.9805 89.4467 13.8552 89.572 13.7716C89.7113 13.6741 89.8993 13.6253 90.1361 13.6253H101.92C102.728 13.6253 103.452 13.7925 104.093 14.1268C104.734 14.4611 105.242 14.9138 105.618 15.4848C105.994 16.0559 106.175 16.6967 106.161 17.407C106.175 17.8528 106.106 18.2637 105.952 18.6397C105.813 19.0158 105.618 19.3501 105.367 19.6426C105.131 19.9212 104.852 20.1441 104.532 20.3112C105.019 20.4923 105.416 20.7778 105.723 21.1679C106.043 21.5579 106.287 22.0036 106.454 22.505C106.635 22.9925 106.719 23.494 106.705 24.0094C106.691 24.6083 106.565 25.1655 106.329 25.6808C106.092 26.1962 105.757 26.6419 105.326 27.018C104.894 27.3941 104.406 27.6866 103.863 27.8955C103.32 28.1045 102.742 28.2089 102.129 28.2089H90.1152ZM91.0972 26.4121H102.004C102.547 26.4121 103.034 26.3076 103.466 26.0987C103.898 25.8898 104.232 25.5833 104.469 25.1794C104.72 24.7754 104.845 24.281 104.845 23.696C104.845 23.1945 104.768 22.7906 104.615 22.4841C104.462 22.1777 104.26 21.9479 104.009 21.7947C103.759 21.6275 103.494 21.5091 103.215 21.4395C102.951 21.3698 102.707 21.335 102.484 21.335C102.261 21.3211 102.087 21.3141 101.962 21.3141H95.9863C95.6938 21.3141 95.4779 21.2445 95.3386 21.1052C95.2132 20.9659 95.1506 20.743 95.1506 20.4366C95.1506 20.1441 95.2202 19.9351 95.3595 19.8098C95.4988 19.6844 95.7147 19.6217 96.0072 19.6217H101.941C102.066 19.6217 102.254 19.6148 102.505 19.6008C102.77 19.5869 103.041 19.5312 103.32 19.4337C103.612 19.3362 103.856 19.1551 104.051 18.8905C104.26 18.6119 104.365 18.2219 104.365 17.7204C104.365 16.9404 104.114 16.3693 103.612 16.0072C103.111 15.6311 102.38 15.4431 101.419 15.4431H91.0972V26.4121ZM109.82 28.2089C109.555 28.2089 109.353 28.1671 109.214 28.0836C109.089 28.0139 109.005 27.9095 108.963 27.7702C108.921 27.6309 108.901 27.4637 108.901 27.2687V19.0158C108.901 18.8208 108.921 18.6537 108.963 18.5144C109.005 18.3751 109.089 18.2706 109.214 18.201C109.353 18.1313 109.562 18.0965 109.841 18.0965C110.105 18.0965 110.3 18.1383 110.426 18.2219C110.565 18.2915 110.649 18.396 110.676 18.5353C110.718 18.6746 110.739 18.8487 110.739 19.0576V27.2896C110.739 27.4846 110.718 27.6518 110.676 27.7911C110.649 27.9304 110.565 28.0348 110.426 28.1045C110.3 28.1741 110.098 28.2089 109.82 28.2089ZM109.82 15.5893C109.513 15.5893 109.284 15.5475 109.13 15.464C108.991 15.3664 108.894 15.2341 108.838 15.067C108.796 14.8998 108.775 14.7048 108.775 14.482C108.775 14.2591 108.796 14.0711 108.838 13.9178C108.894 13.7507 108.998 13.6323 109.151 13.5626C109.304 13.4791 109.534 13.4373 109.841 13.4373C110.147 13.4373 110.37 13.4791 110.509 13.5626C110.663 13.6462 110.76 13.7716 110.802 13.9387C110.858 14.1059 110.885 14.3009 110.885 14.5237C110.885 14.7466 110.858 14.9416 110.802 15.1088C110.76 15.262 110.663 15.3804 110.509 15.464C110.37 15.5475 110.14 15.5893 109.82 15.5893ZM121.781 28.2089C121.001 28.2089 120.228 28.1393 119.462 28C118.696 27.8468 118.006 27.6239 117.393 27.3314C116.78 27.025 116.286 26.6628 115.91 26.245C115.548 25.8271 115.367 25.3535 115.367 24.8242V15.5893C115.367 15.3943 115.387 15.2272 115.429 15.0879C115.471 14.9486 115.555 14.8441 115.68 14.7745C115.819 14.6909 116.014 14.6491 116.265 14.6491C116.544 14.6491 116.746 14.6909 116.871 14.7745C117.01 14.8441 117.101 14.9486 117.143 15.0879C117.184 15.2132 117.205 15.3734 117.205 15.5684V24.8242C117.205 25.0749 117.338 25.3047 117.602 25.5137C117.881 25.7087 118.236 25.8758 118.668 26.0151C119.113 26.1544 119.608 26.2589 120.151 26.3285C120.694 26.3982 121.238 26.433 121.781 26.433C121.99 26.433 122.164 26.4539 122.303 26.4957C122.442 26.5375 122.547 26.621 122.617 26.7464C122.686 26.8718 122.721 27.0598 122.721 27.3105C122.721 27.5752 122.679 27.7771 122.596 27.9164C122.526 28.0418 122.422 28.1184 122.282 28.1463C122.143 28.188 121.976 28.2089 121.781 28.2089ZM113.047 18.3263L116.599 18.3472L122.115 18.3055C122.31 18.2915 122.477 18.3055 122.617 18.3472C122.756 18.389 122.86 18.4796 122.93 18.6189C123.014 18.7442 123.055 18.9392 123.055 19.2039C123.055 19.4685 123.021 19.6705 122.951 19.8098C122.881 19.9351 122.777 20.0187 122.637 20.0605C122.512 20.1023 122.352 20.1232 122.157 20.1232L116.641 20.0814L112.985 20.1023C112.706 20.1023 112.511 20.0326 112.4 19.8934C112.288 19.7541 112.233 19.5242 112.233 19.2039C112.233 18.8974 112.295 18.6746 112.421 18.5353C112.56 18.396 112.769 18.3263 113.047 18.3263Z" fill="#FBF4FF"/>
<path d="M27.0079 28.2089C26.7572 28.2089 26.5622 28.1671 26.4229 28.0836C26.2836 28.0139 26.1513 27.8886 26.026 27.7075L17.8357 14.8163C17.6547 14.5377 17.6129 14.3148 17.7104 14.1477C17.8218 13.9805 18.0238 13.8134 18.3163 13.6462C18.5252 13.5348 18.6924 13.4791 18.8177 13.4791C18.957 13.4651 19.0824 13.5069 19.1938 13.6044C19.3052 13.7019 19.4236 13.8482 19.549 14.0432L27.0079 25.8898L34.4669 14.0432C34.5923 13.8482 34.7107 13.7019 34.8221 13.6044C34.9474 13.5069 35.0728 13.4651 35.1982 13.4791C35.3375 13.4791 35.5046 13.5348 35.6996 13.6462C36.006 13.8273 36.208 14.0014 36.3055 14.1686C36.403 14.3218 36.3612 14.5377 36.1802 14.8163L27.9899 27.7075C27.8785 27.8746 27.7462 28 27.593 28.0836C27.4537 28.1671 27.2587 28.2089 27.0079 28.2089ZM38.6376 28.2089C38.3729 28.2089 38.171 28.1671 38.0317 28.0836C37.9063 28.0139 37.8227 27.9095 37.7809 27.7702C37.7392 27.6309 37.7183 27.4637 37.7183 27.2687V19.0158C37.7183 18.8208 37.7392 18.6537 37.7809 18.5144C37.8227 18.3751 37.9063 18.2706 38.0317 18.201C38.171 18.1313 38.3799 18.0965 38.6585 18.0965C38.9231 18.0965 39.1181 18.1383 39.2435 18.2219C39.3828 18.2915 39.4664 18.396 39.4942 18.5353C39.536 18.6746 39.5569 18.8487 39.5569 19.0576V27.2896C39.5569 27.4846 39.536 27.6518 39.4942 27.7911C39.4664 27.9304 39.3828 28.0348 39.2435 28.1045C39.1181 28.1741 38.9162 28.2089 38.6376 28.2089ZM38.6376 15.5893C38.3311 15.5893 38.1013 15.5475 37.9481 15.464C37.8088 15.3664 37.7113 15.2341 37.6556 15.067C37.6138 14.8998 37.5929 14.7048 37.5929 14.482C37.5929 14.2591 37.6138 14.0711 37.6556 13.9178C37.7113 13.7507 37.8158 13.6323 37.969 13.5626C38.1222 13.4791 38.352 13.4373 38.6585 13.4373C38.9649 13.4373 39.1878 13.4791 39.3271 13.5626C39.4803 13.6462 39.5778 13.7716 39.6196 13.9387C39.6753 14.1059 39.7031 14.3009 39.7031 14.5237C39.7031 14.7466 39.6753 14.9416 39.6196 15.1088C39.5778 15.262 39.4803 15.3804 39.3271 15.464C39.1878 15.5475 38.9579 15.5893 38.6376 15.5893ZM42.8378 28.2089C42.5732 28.2089 42.3712 28.1671 42.2319 28.0836C42.1065 28.0139 42.023 27.9095 41.9812 27.7702C41.9533 27.617 41.9394 27.4428 41.9394 27.2478V19.0158C41.9394 18.8069 41.9603 18.6328 42.0021 18.4935C42.0439 18.3542 42.1274 18.2567 42.2528 18.201C42.3782 18.1313 42.5801 18.0965 42.8587 18.0965C43.1094 18.0965 43.2975 18.1313 43.4228 18.201C43.5621 18.2567 43.6527 18.3472 43.6944 18.4726C43.7502 18.584 43.778 18.7164 43.778 18.8696L43.6944 19.7471C43.8059 19.5103 43.9869 19.2874 44.2377 19.0785C44.5023 18.8696 44.8296 18.6815 45.2197 18.5144C45.6097 18.3472 46.0624 18.2149 46.5777 18.1174C47.0931 18.006 47.6572 17.9503 48.2701 17.9503C48.688 17.9503 49.0849 17.9781 49.461 18.0338C49.851 18.0896 50.2132 18.1662 50.5475 18.2637C50.8818 18.3612 51.1673 18.4726 51.4041 18.598C51.6548 18.7233 51.8498 18.8487 51.9891 18.974C52.1284 19.0994 52.1981 19.2317 52.1981 19.371C52.1981 19.6775 52.1075 19.9421 51.9264 20.165C51.7593 20.3739 51.5643 20.4784 51.3414 20.4784C51.1604 20.4784 50.9793 20.4366 50.7982 20.353C50.6171 20.2694 50.4012 20.1789 50.1505 20.0814C49.9137 19.97 49.6003 19.8725 49.2103 19.7889C48.8342 19.7053 48.3397 19.6635 47.7269 19.6635C47.2811 19.6635 46.8215 19.7123 46.3479 19.8098C45.8882 19.8934 45.4634 20.0187 45.0734 20.1859C44.6973 20.3391 44.3839 20.548 44.1332 20.8127C43.8964 21.0634 43.778 21.3559 43.778 21.6902V27.2896C43.778 27.4846 43.7571 27.6518 43.7153 27.7911C43.6735 27.9304 43.583 28.0348 43.4437 28.1045C43.3184 28.1741 43.1164 28.2089 42.8378 28.2089ZM58.4868 32.304C57.5814 32.304 56.7805 32.2344 56.0841 32.0951C55.4016 31.9697 54.8235 31.8096 54.3499 31.6146C53.8903 31.4196 53.542 31.2176 53.3052 31.0087C53.0685 30.8136 52.9501 30.6535 52.9501 30.5281C52.9501 30.4027 52.964 30.2913 52.9918 30.1938C53.0197 30.1102 53.0824 30.0127 53.1799 29.9013C53.347 29.7342 53.4654 29.6227 53.5351 29.567C53.6186 29.5252 53.7231 29.5043 53.8485 29.5043C53.9878 29.5043 54.1549 29.567 54.3499 29.6924C54.5449 29.8177 54.8096 29.957 55.1439 30.1102C55.4782 30.2774 55.9169 30.4236 56.4602 30.549C57.0173 30.6744 57.7138 30.737 58.5495 30.737C59.3156 30.737 60.012 30.6883 60.6388 30.5908C61.2796 30.4933 61.8298 30.3261 62.2894 30.0893C62.7491 29.8525 63.0973 29.5252 63.3341 29.1074C63.5848 28.6895 63.7102 28.1671 63.7102 27.5403L63.6893 18.8696C63.7032 18.5492 63.7798 18.3333 63.9191 18.2219C64.0723 18.1104 64.3091 18.0547 64.6295 18.0547C64.8802 18.0547 65.0613 18.0965 65.1727 18.1801C65.2981 18.2497 65.3816 18.3542 65.4234 18.4935C65.4652 18.6189 65.4861 18.779 65.4861 18.974V27.6239C65.4861 28.4875 65.312 29.2188 64.9638 29.8177C64.6155 30.4167 64.128 30.8972 63.5012 31.2594C62.8744 31.6215 62.1362 31.8862 61.2865 32.0533C60.4369 32.2205 59.5036 32.304 58.4868 32.304ZM58.5704 27.9791C57.4561 27.9791 56.481 27.8607 55.6453 27.6239C54.8096 27.3732 54.1131 27.025 53.556 26.5792C52.9988 26.1335 52.5809 25.6112 52.3024 25.0122C52.0238 24.4133 51.8845 23.7586 51.8845 23.0483C51.8845 22.3379 52.0168 21.6832 52.2815 21.0843C52.56 20.4853 52.9779 19.963 53.5351 19.5173C54.0922 19.0715 54.7887 18.7303 55.6244 18.4935C56.4602 18.2428 57.4352 18.1174 58.5495 18.1174C59.622 18.1174 60.5413 18.2358 61.3074 18.4726C62.0735 18.6955 62.7003 19.0228 63.1878 19.4546C63.6753 19.8864 64.0305 20.4087 64.2534 21.0216C64.4902 21.6205 64.6086 22.2961 64.6086 23.0483C64.6086 24.0651 64.3927 24.9426 63.9609 25.6808C63.543 26.4191 62.8884 26.9902 61.9969 27.3941C61.1055 27.7841 59.9633 27.9791 58.5704 27.9791ZM58.6749 26.3703C59.831 26.3703 60.7712 26.2241 61.4955 25.9316C62.2198 25.639 62.756 25.2421 63.1043 24.7406C63.4525 24.2253 63.6266 23.6472 63.6266 23.0065C63.6266 22.3797 63.4525 21.8225 63.1043 21.335C62.756 20.8336 62.2198 20.4435 61.4955 20.165C60.7712 19.8725 59.817 19.7262 58.6331 19.7262C57.4909 19.7262 56.5577 19.8725 55.8333 20.165C55.109 20.4575 54.5728 20.8475 54.2246 21.335C53.8903 21.8225 53.7231 22.3866 53.7231 23.0274C53.7231 23.6681 53.8903 24.2392 54.2246 24.7406C54.5728 25.2421 55.109 25.639 55.8333 25.9316C56.5716 26.2241 57.5188 26.3703 58.6749 26.3703Z" fill="#FBF4FF"/>
<ellipse cx="5.34433" cy="7.04597" rx="5.34433" ry="7.04597" transform="matrix(0 -1 -0.999983 0.00584628 80.6074 28.7856)" fill="#B471CC"/>
<path d="M71.6216 22.6053C72.5527 23.6171 73.6169 24.5685 74.7537 25.405C75.8904 26.2416 77.0773 26.947 78.2467 27.4809C79.416 28.0149 80.5449 28.3669 81.5688 28.517C82.5928 28.667 83.4918 28.6121 84.2144 28.3554C84.9371 28.0987 85.4693 27.6452 85.7806 27.0208C86.092 26.3965 86.1764 25.6134 86.029 24.7165C85.8817 23.8195 85.5054 22.8261 84.9218 21.7931C84.3382 20.76 83.5586 19.7075 82.6275 18.6957" stroke="#AAC4E5" stroke-width="0.50547"/>
<path d="M71.1173 23.1287C72.0432 24.1464 73.1057 25.0995 74.244 25.9336C75.3823 26.7677 76.5741 27.4665 77.7515 27.99C78.9289 28.5135 80.0687 28.8516 81.1059 28.9849C82.1431 29.1182 83.0573 29.044 83.7965 28.7668C84.5356 28.4895 85.0851 28.0145 85.4136 27.3689C85.7422 26.7232 85.8433 25.9197 85.7112 25.004C85.5791 24.0883 85.2164 23.0785 84.6438 22.0322C84.0712 20.9858 83.2999 19.9235 82.374 18.9058" stroke="#799DCB" stroke-width="1.21313"/>
<path d="M71.7938 22.7879C70.8541 21.7951 70.0649 20.759 69.4713 19.7387C68.8776 18.7184 68.491 17.7339 68.3337 16.8415C68.1763 15.9491 68.2513 15.1661 68.5542 14.5374C68.8572 13.9087 69.3822 13.4465 70.0993 13.1772C70.8165 12.9079 71.7117 12.8368 72.7338 12.968C73.7559 13.0991 74.8849 13.4299 76.0564 13.9416C77.228 14.4532 78.419 15.1355 79.5615 15.9497" stroke="#AAC4E5" stroke-width="0.50547"/>
<path d="M71.3042 23.334C70.3751 22.3192 69.6005 21.2594 69.0246 20.2149C68.4487 19.1704 68.0828 18.1617 67.9479 17.2465C67.8129 16.3313 67.9115 15.5274 68.238 14.8807C68.5645 14.234 69.1125 13.7573 69.8507 13.4776C70.589 13.198 71.503 13.1209 72.5406 13.2509C73.5782 13.3809 74.7191 13.7153 75.8981 14.2351C77.0771 14.7549 78.2712 15.4498 79.4121 16.2803" stroke="#799DCB" stroke-width="1.21313"/>
<path d="M82.0063 16.4173C82.0397 16.3294 81.9463 16.2469 81.8641 16.2918L81.0702 16.7253C81.0444 16.7394 81.0137 16.7415 80.9862 16.7309L80.1424 16.406C80.0551 16.3723 79.9734 16.4662 80.018 16.549L80.4485 17.3488C80.4625 17.3749 80.4646 17.4058 80.4541 17.4334L80.1316 18.283C80.0982 18.3709 80.1915 18.4534 80.2737 18.4085L81.0676 17.975C81.0935 17.9609 81.1242 17.9588 81.1516 17.9694L81.9954 18.2943C82.0828 18.328 82.1644 18.2341 82.1199 18.1513L81.6893 17.3515C81.6753 17.3254 81.6733 17.2945 81.6838 17.2669L82.0063 16.4173Z" fill="#B471CC"/>
</g>
<defs>
<clipPath id="clip0_347_14483">
<rect width="107.733" height="25" fill="white" transform="translate(17 8)"/>
</clipPath>
</defs>
</svg>
