<svg width="346" height="346" viewBox="0 0 346 346" fill="none" xmlns="http://www.w3.org/2000/svg">
<path opacity="0.5" d="M172.673 331.675C261.014 331.675 332.628 290.327 332.628 239.321C332.628 188.315 261.014 146.967 172.673 146.967C84.3314 146.967 12.7168 188.315 12.7168 239.321C12.7168 290.327 84.3314 331.675 172.673 331.675Z" fill="#455A64"/>
<path d="M296.586 255.942L254.602 231.722C254.422 231.661 254.265 231.544 254.153 231.389C254.042 231.234 253.982 231.048 253.982 230.857C253.982 230.666 254.042 230.48 254.153 230.325C254.265 230.17 254.422 230.054 254.602 229.992L281.59 214.436C282.055 214.201 282.568 214.078 283.089 214.078C283.609 214.078 284.122 214.201 284.587 214.436L326.563 238.656C326.744 238.717 326.901 238.834 327.012 238.989C327.124 239.144 327.183 239.33 327.183 239.521C327.183 239.712 327.124 239.898 327.012 240.053C326.901 240.208 326.744 240.325 326.563 240.386L299.575 255.949C299.111 256.182 298.599 256.303 298.08 256.302C297.561 256.301 297.049 256.177 296.586 255.942Z" fill="#E0E0E0"/>
<path d="M114.778 302.023C153.733 302.023 185.313 283.79 185.313 261.298C185.313 238.807 153.733 220.574 114.778 220.574C75.822 220.574 44.2422 238.807 44.2422 261.298C44.2422 283.79 75.822 302.023 114.778 302.023Z" fill="#E0E0E0"/>
<path d="M181.36 279.582C206.733 279.582 227.302 267.707 227.302 253.058C227.302 238.409 206.733 226.533 181.36 226.533C155.987 226.533 135.418 238.409 135.418 253.058C135.418 267.707 155.987 279.582 181.36 279.582Z" fill="#E0E0E0"/>
<path d="M44.6388 226.783L45.2063 217.787C45.2063 217.787 44.6734 206.293 33.2831 195.691C26.3631 189.249 20.6403 192.716 19.2078 196.224C17.7754 199.732 18.9656 205.054 25.6919 210.029C36.2241 217.814 45.0679 230.139 46.2166 238.879L44.6388 226.783Z" fill="#37474F"/>
<path d="M44.2864 224.244C44.1932 224.253 44.0997 224.23 44.0216 224.178C43.9435 224.126 43.8855 224.049 43.8574 223.96C38.6743 206.798 23.7894 196.501 23.6025 196.398C23.5593 196.367 23.5228 196.328 23.4954 196.282C23.468 196.237 23.4501 196.186 23.443 196.134C23.4358 196.081 23.4396 196.028 23.4539 195.977C23.4683 195.926 23.4929 195.878 23.5264 195.837C23.5855 195.749 23.6768 195.689 23.7805 195.668C23.8841 195.647 23.9917 195.668 24.08 195.726C24.2323 195.83 39.3801 206.279 44.6463 223.718C44.6748 223.819 44.6634 223.927 44.6145 224.02C44.5655 224.112 44.4827 224.183 44.3833 224.216L44.2864 224.244Z" fill="white"/>
<path d="M45.0963 227.079C45.0298 226.096 44.6653 225.157 44.0514 224.387C42.9442 223.107 41.0066 222.692 40.0724 221.273C39.7022 220.567 39.4054 219.825 39.1867 219.059C38.4933 217.407 37.2002 216.079 35.5675 215.342C33.9338 214.631 32.1335 214.391 30.3706 214.65C29.035 214.817 27.741 215.225 26.4054 215.412C22.0251 216.041 17.9699 212.021 13.6103 214.72C10.9946 216.353 11.1745 219.204 12.6277 221.591C13.3879 222.806 14.3416 223.888 15.4511 224.795C16.6275 225.792 17.8661 226.394 17.9907 228.124C18.0737 229.383 17.6793 230.636 17.6931 231.902C17.7429 232.941 18.0159 233.957 18.4936 234.882C18.9712 235.806 19.6423 236.616 20.4611 237.258C22.1149 238.529 24.0613 239.364 26.1217 239.687C27.6372 239.978 29.381 240.206 30.2183 241.5C30.5681 242.208 30.8017 242.967 30.9103 243.749C31.2736 245.001 31.899 246.161 32.7448 247.152C33.5907 248.144 34.6378 248.944 35.8166 249.5C38.1952 250.592 40.8325 250.995 43.4286 250.662C45.665 250.509 47.8092 249.711 49.6013 248.365C52.563 245.943 50.8607 241.369 48.9093 238.822C48.0581 237.701 47.0063 236.746 46.2243 235.577C44.6604 233.258 44.9164 231.252 45.0617 228.601C45.1151 228.096 45.1267 227.586 45.0963 227.079Z" fill="#455A64"/>
<path d="M47.4096 244.132C47.3425 244.145 47.273 244.137 47.2108 244.108C47.1487 244.08 47.0972 244.032 47.0636 243.973C36.4691 224.901 19.4735 219.573 19.3005 219.518C19.2176 219.492 19.148 219.435 19.1066 219.359C19.0652 219.282 19.0553 219.193 19.0791 219.109C19.1062 219.026 19.1646 218.956 19.242 218.915C19.3195 218.874 19.4099 218.864 19.4943 218.888C19.6673 218.943 36.9119 224.355 47.6379 243.655C47.6588 243.692 47.6722 243.733 47.6773 243.775C47.6823 243.818 47.679 243.861 47.6674 243.902C47.6558 243.943 47.6363 243.981 47.6099 244.015C47.5834 244.049 47.5506 244.077 47.5134 244.097C47.4825 244.118 47.4466 244.13 47.4096 244.132Z" fill="white"/>
<path d="M37.3062 231.016H37.2301C32.5729 230.823 25.5283 232.691 25.4661 232.712C25.4242 232.724 25.3803 232.728 25.337 232.723C25.2937 232.718 25.2519 232.703 25.2143 232.681C25.1766 232.659 25.1439 232.63 25.1182 232.594C25.0925 232.559 25.0743 232.519 25.0647 232.477C25.0532 232.435 25.0499 232.392 25.0552 232.349C25.0604 232.307 25.0741 232.266 25.0953 232.228C25.1165 232.191 25.1449 232.158 25.1789 232.132C25.2128 232.106 25.2516 232.086 25.2931 232.075C25.5837 231.999 32.5106 230.158 37.2647 230.359C37.3509 230.353 37.4362 230.381 37.5017 230.437C37.5673 230.494 37.6077 230.574 37.6141 230.66C37.6205 230.746 37.5924 230.832 37.536 230.897C37.4795 230.963 37.3994 231.003 37.3131 231.009L37.3062 231.016Z" fill="white"/>
<path d="M33.9065 227.856C33.8207 227.864 33.7351 227.839 33.667 227.787C33.5989 227.734 33.5534 227.657 33.5397 227.572C33.2692 225.218 33.3321 222.837 33.7265 220.5C33.7433 220.416 33.7927 220.342 33.864 220.294C33.9353 220.246 34.0227 220.228 34.1071 220.244C34.1495 220.252 34.19 220.267 34.2262 220.291C34.2624 220.314 34.2936 220.344 34.3181 220.38C34.3425 220.415 34.3597 220.455 34.3687 220.497C34.3776 220.539 34.3781 220.582 34.3701 220.625C33.9953 222.894 33.9371 225.204 34.1971 227.489C34.2068 227.577 34.1818 227.664 34.1273 227.733C34.0729 227.801 33.9935 227.846 33.9065 227.856Z" fill="white"/>
<path opacity="0.3" d="M318.488 93.7997L190.53 19.9287C188.607 18.8215 187.07 19.7211 187.07 21.9425V123.279C187.133 124.487 187.479 125.663 188.08 126.712C188.681 127.761 189.521 128.655 190.53 129.32L318.488 203.191C320.412 204.298 321.948 203.399 321.948 201.177V99.8409C321.885 98.6332 321.539 97.4573 320.938 96.4079C320.337 95.3585 319.498 94.4651 318.488 93.7997Z" fill="#BA68C8"/>
<path opacity="0.5" d="M318.488 93.7997L190.53 19.9287C188.607 18.8215 187.07 19.7211 187.07 21.9425V123.279C187.133 124.487 187.479 125.663 188.08 126.712C188.681 127.761 189.521 128.655 190.53 129.32L318.488 203.191C320.412 204.298 321.948 203.399 321.948 201.177V99.8409C321.885 98.6332 321.539 97.4573 320.938 96.4079C320.337 95.3585 319.498 94.4651 318.488 93.7997Z" fill="white"/>
<path opacity="0.3" d="M319.167 184.113V171.131L310.731 166.287V176.03L307.942 174.383V158.149L302.316 154.904V161.395L299.507 159.768V172.75L293.867 169.539V159.768L291.057 158.149V154.904L288.241 153.277V150.032L285.432 148.413V151.658L282.622 150.032V153.277L279.812 151.658V154.904L274.187 151.658V141.922L265.758 137.078V153.277L262.962 151.658V141.922L257.336 138.669V148.413L254.527 146.786V143.541L248.908 140.295V133.805L243.282 130.559V133.805L240.458 132.171V141.929L237.649 140.302V127.327L234.839 125.701V122.456L232.023 120.836V117.591L229.213 115.965V119.21L226.404 117.591V120.836L223.594 119.21V135.424L220.785 133.805V127.327L212.446 122.483V125.784L206.723 122.483V115.992L203.907 114.373V111.128L201.097 109.501V106.256L198.288 104.637V107.875L195.478 106.256V109.501L192.669 107.875V114.373L187.043 111.121V123.321C187.106 124.528 187.452 125.704 188.053 126.754C188.654 127.803 189.493 128.697 190.503 129.362L318.488 203.191C320.412 204.299 321.948 203.399 321.948 201.178V185.739L319.167 184.113Z" fill="#BA68C8"/>
<g opacity="0.3">
<path d="M188.974 20.149C189.403 20.1704 189.82 20.3015 190.185 20.5296L318.142 94.3937C319.05 94.9985 319.805 95.8046 320.35 96.7492C320.895 97.6938 321.215 98.7514 321.284 99.8397V201.176C321.284 201.716 321.159 202.968 320.045 202.968C319.616 202.947 319.199 202.816 318.834 202.588L190.877 128.71C189.968 128.107 189.211 127.301 188.666 126.356C188.121 125.411 187.802 124.353 187.735 123.264V21.9413C187.735 21.4015 187.86 20.149 188.974 20.149ZM188.974 19.457C187.832 19.457 187.043 20.3635 187.043 21.9413V123.278C187.106 124.485 187.452 125.661 188.053 126.711C188.654 127.76 189.493 128.654 190.503 129.319L318.488 203.19C318.958 203.478 319.494 203.64 320.045 203.66C321.187 203.66 321.976 202.754 321.976 201.176V99.8397C321.913 98.6321 321.567 97.4561 320.966 96.4067C320.365 95.3574 319.526 94.464 318.516 93.7986L190.531 19.9276C190.061 19.6391 189.525 19.477 188.974 19.457Z" fill="#BA68C8"/>
</g>
<path opacity="0.5" d="M223.96 72.3468L279.437 104.38C282.752 106.289 285.43 110.933 285.43 114.76V130.129C285.43 133.949 282.752 135.499 279.437 133.589L223.96 101.556C220.652 99.6462 217.967 95.0029 217.967 91.1761V75.8068C217.981 71.9662 220.652 70.4369 223.96 72.3468Z" fill="white"/>
<g opacity="0.5">
<path d="M282.117 134.758C281.107 134.723 280.124 134.422 279.266 133.887L223.789 101.861C220.391 99.8955 217.623 95.1068 217.623 91.1763V75.807C217.623 73.8278 218.315 72.347 219.554 71.655C220.792 70.963 222.426 71.0875 224.135 72.0771L279.612 104.103C283.017 106.068 285.778 110.857 285.778 114.787V130.157C285.778 132.136 285.086 133.617 283.854 134.309C283.325 134.609 282.726 134.764 282.117 134.758ZM221.291 71.8695C220.805 71.8625 220.327 71.9868 219.907 72.2293C218.889 72.8175 218.322 74.0839 218.322 75.807V91.1763C218.322 94.8854 220.931 99.4042 224.142 101.259L279.619 133.291C281.107 134.149 282.491 134.295 283.515 133.707C284.539 133.118 285.093 131.845 285.093 130.129V114.76C285.093 111.051 282.484 106.532 279.273 104.677L223.789 72.6584C223.039 72.1824 222.178 71.9104 221.291 71.8695Z" fill="#BA68C8"/>
</g>
<g opacity="0.5">
<path d="M232.8 84.9353C233.371 85.2724 233.887 85.6948 234.33 86.1879C234.782 86.6931 235.184 87.2426 235.527 87.8279C235.851 88.3771 236.115 88.9594 236.316 89.5648C236.49 90.0527 236.592 90.5631 236.62 91.0803C236.625 91.127 236.619 91.1741 236.604 91.2184C236.588 91.2627 236.563 91.3029 236.53 91.3363C236.505 91.3597 236.471 91.3726 236.437 91.3726C236.402 91.3726 236.369 91.3597 236.343 91.3363L234.641 90.3606C234.532 90.2923 234.434 90.2083 234.35 90.1115C234.267 89.9915 234.191 89.8668 234.122 89.7378C234.122 89.6825 234.06 89.5925 234.004 89.4679C233.935 89.3189 233.854 89.1755 233.762 89.0389C233.646 88.8672 233.517 88.7052 233.375 88.5545C233.205 88.38 233.012 88.2308 232.8 88.1116C232.649 88.0264 232.492 87.9524 232.33 87.8902C232.202 87.8399 232.065 87.8164 231.928 87.821C231.872 87.8232 231.817 87.8373 231.767 87.8623C231.717 87.8874 231.673 87.9228 231.638 87.9663C231.553 88.0952 231.514 88.2487 231.527 88.4023C231.528 88.5981 231.57 88.7915 231.652 88.9697C231.761 89.1911 231.901 89.3961 232.067 89.5787C232.309 89.8525 232.568 90.1114 232.842 90.3537L234.032 91.4263C234.484 91.8258 234.902 92.2608 235.285 92.7273C235.633 93.1536 235.933 93.6179 236.177 94.1113C236.414 94.5912 236.593 95.0976 236.71 95.6198C236.831 96.1884 236.889 96.7685 236.883 97.3498C236.906 97.914 236.804 98.4762 236.585 98.9968C236.417 99.3801 236.121 99.6932 235.748 99.8825C235.348 100.059 234.903 100.105 234.475 100.014C233.91 99.9015 233.369 99.6907 232.876 99.3912C232.278 99.0452 231.734 98.6113 231.264 98.1041C230.789 97.5914 230.369 97.0301 230.011 96.4295C229.672 95.8592 229.396 95.2535 229.188 94.6233C229 94.0841 228.895 93.5194 228.877 92.9487C228.872 92.9015 228.877 92.854 228.891 92.8088C228.906 92.7636 228.929 92.7218 228.96 92.6857C228.985 92.6624 229.018 92.6495 229.053 92.6495C229.088 92.6495 229.121 92.6624 229.146 92.6857L230.849 93.6684C230.959 93.726 231.056 93.8062 231.133 93.9037C231.213 94.0047 231.282 94.1137 231.34 94.2289L231.499 94.5818C231.58 94.7632 231.672 94.9389 231.776 95.1077C231.902 95.3195 232.05 95.5167 232.219 95.6959C232.411 95.9013 232.632 96.0763 232.876 96.2149C233.223 96.4402 233.615 96.5866 234.025 96.644C234.33 96.6717 234.482 96.4848 234.482 96.0835C234.48 95.8739 234.423 95.6686 234.316 95.4883C234.175 95.2387 234.005 95.0065 233.811 94.7963C233.582 94.5541 233.298 94.2773 232.946 93.9659C232.593 93.6545 232.184 93.2739 231.707 92.8518C230.874 92.1304 230.206 91.2383 229.749 90.2361C229.325 89.2584 229.115 88.2014 229.133 87.1359C229.122 86.6265 229.206 86.1195 229.382 85.6412C229.522 85.2551 229.778 84.9216 230.115 84.6862C230.461 84.4662 230.87 84.3687 231.278 84.4094C231.818 84.4688 232.338 84.6485 232.8 84.9353Z" fill="#BA68C8"/>
<path d="M245.727 92.6011C245.839 92.6723 245.926 92.7762 245.977 92.8987C246.043 93.0371 246.078 93.1882 246.08 93.3416V95.4937C246.086 95.551 246.079 95.6088 246.061 95.6636C246.044 95.7183 246.015 95.7688 245.977 95.812C245.942 95.8427 245.898 95.8596 245.852 95.8596C245.806 95.8596 245.762 95.8427 245.727 95.812L243.444 94.4903V104.739C243.449 104.797 243.443 104.856 243.425 104.912C243.407 104.968 243.378 105.02 243.34 105.064C243.305 105.093 243.261 105.109 243.215 105.109C243.17 105.109 243.126 105.093 243.091 105.064L241.396 104.081C241.284 104.01 241.197 103.906 241.146 103.784C241.08 103.645 241.045 103.494 241.043 103.341V93.0925L238.759 91.7707C238.647 91.6995 238.56 91.5956 238.51 91.4732C238.444 91.3348 238.408 91.1837 238.406 91.0303V88.9128C238.401 88.8554 238.407 88.7976 238.425 88.7429C238.443 88.6881 238.472 88.6376 238.51 88.5945C238.544 88.5638 238.588 88.5469 238.634 88.5469C238.68 88.5469 238.725 88.5638 238.759 88.5945L245.727 92.6011Z" fill="#BA68C8"/>
<path d="M252.116 96.2847C252.29 96.391 252.427 96.5479 252.51 96.7345C252.592 96.9095 252.654 97.0928 252.697 97.2811L255.527 111.509C255.554 111.615 255.57 111.724 255.576 111.834C255.58 111.881 255.574 111.929 255.56 111.974C255.546 112.019 255.523 112.061 255.492 112.097C255.465 112.121 255.429 112.135 255.392 112.135C255.355 112.135 255.32 112.121 255.292 112.097L253.659 111.149C253.497 111.067 253.368 110.933 253.292 110.768C253.223 110.641 253.177 110.503 253.154 110.36L252.787 108.492L249.327 106.499L248.967 107.945C248.948 108.042 248.899 108.131 248.829 108.201C248.759 108.27 248.635 108.256 248.462 108.152L246.836 107.26C246.743 107.2 246.67 107.113 246.628 107.011C246.574 106.901 246.546 106.78 246.545 106.658C246.551 106.566 246.569 106.475 246.6 106.388L249.431 95.4335C249.461 95.3075 249.525 95.1924 249.617 95.1013C249.707 95.0045 249.839 95.0114 250.012 95.1013L252.116 96.2847ZM250.04 103.807L252.116 105.018L251.064 99.6478L250.04 103.807Z" fill="#BA68C8"/>
<path d="M261.469 101.723C262.025 102.045 262.539 102.436 262.999 102.885C263.449 103.331 263.835 103.836 264.147 104.387C264.473 104.966 264.718 105.588 264.874 106.234C265.05 106.947 265.136 107.68 265.13 108.414C265.171 109.187 265.034 109.959 264.729 110.67C264.624 110.895 264.465 111.091 264.266 111.238C264.066 111.386 263.833 111.481 263.587 111.514L265.192 117.203C265.218 117.281 265.232 117.362 265.234 117.445C265.239 117.491 265.234 117.538 265.22 117.582C265.205 117.626 265.182 117.666 265.151 117.701C265.122 117.726 265.085 117.739 265.047 117.739C265.009 117.739 264.972 117.726 264.943 117.701L263.179 116.684C263.017 116.596 262.888 116.457 262.812 116.289C262.742 116.142 262.684 115.989 262.639 115.832L261.2 110.719L260.002 110.027V114.303C260.008 114.36 260.001 114.418 259.983 114.473C259.966 114.528 259.937 114.578 259.899 114.621C259.864 114.652 259.82 114.669 259.774 114.669C259.728 114.669 259.684 114.652 259.649 114.621L257.954 113.639C257.843 113.564 257.757 113.458 257.705 113.334C257.638 113.199 257.602 113.05 257.601 112.898V99.9926C257.596 99.9353 257.603 99.8776 257.621 99.8229C257.639 99.7682 257.667 99.7176 257.705 99.6742C257.74 99.645 257.784 99.6289 257.83 99.6289C257.875 99.6289 257.919 99.645 257.954 99.6742L261.469 101.723ZM260.002 106.933L261.469 107.778C261.598 107.871 261.744 107.937 261.898 107.971C262.053 108.006 262.213 108.008 262.369 107.978C262.611 107.902 262.729 107.584 262.729 107.023C262.755 106.536 262.629 106.052 262.369 105.639C262.138 105.294 261.83 105.007 261.469 104.802L260.002 103.951V106.933Z" fill="#BA68C8"/>
<path d="M274.187 109.029C274.295 109.105 274.379 109.21 274.429 109.333C274.498 109.468 274.536 109.617 274.54 109.769V111.893C274.544 111.951 274.536 112.009 274.517 112.064C274.498 112.119 274.468 112.169 274.429 112.212C274.396 112.241 274.353 112.256 274.308 112.256C274.264 112.256 274.221 112.241 274.187 112.212L271.904 110.897V121.146C271.908 121.203 271.902 121.261 271.884 121.315C271.866 121.37 271.837 121.42 271.8 121.464C271.765 121.494 271.721 121.511 271.675 121.511C271.629 121.511 271.585 121.494 271.551 121.464L269.883 120.516C269.775 120.44 269.691 120.334 269.641 120.211C269.574 120.076 269.538 119.927 269.537 119.775V109.52L267.253 108.205C267.143 108.13 267.056 108.024 267.004 107.901C266.937 107.765 266.902 107.616 266.9 107.465V105.347C266.895 105.289 266.901 105.23 266.919 105.174C266.937 105.118 266.966 105.066 267.004 105.022C267.039 104.993 267.083 104.977 267.129 104.977C267.174 104.977 267.218 104.993 267.253 105.022L274.187 109.029Z" fill="#BA68C8"/>
</g>
<path opacity="0.3" d="M199.699 31.3672C200.925 32.1689 201.946 33.2482 202.678 34.5177C203.41 35.7873 203.833 37.2113 203.913 38.6747C203.913 41.3596 202.024 42.453 199.699 41.1036C198.471 40.305 197.449 39.2273 196.716 37.9586C195.984 36.6898 195.562 35.2659 195.484 33.803C195.484 31.1388 197.367 30.0247 199.699 31.3672Z" fill="#BA68C8"/>
<path d="M202.137 36.854C202.136 36.3775 202.037 35.9064 201.846 35.47C201.674 35.0102 201.365 34.6142 200.961 34.3351C200.352 33.9752 199.846 34.7018 199.763 35.5599C199.694 34.6119 199.196 33.2971 198.587 32.9372C198.452 32.8437 198.288 32.8015 198.124 32.8179C197.961 32.8344 197.808 32.9086 197.694 33.0272C197.474 33.3268 197.366 33.6942 197.39 34.0652C197.39 35.5184 198.255 36.8332 198.981 38.2172L199.757 39.6704L200.532 39.1237C201.258 38.5909 202.137 38.3072 202.137 36.854Z" fill="#FAFAFA"/>
<path opacity="0.3" d="M212.348 38.6761C213.582 39.4721 214.609 40.5483 215.348 41.8171C216.086 43.0858 216.514 44.5111 216.597 45.9767C216.597 48.6686 214.708 49.755 212.383 48.4125C211.155 47.6116 210.134 46.5325 209.402 45.2628C208.669 43.9931 208.247 42.5686 208.168 41.105C208.134 38.4201 210.016 37.3267 212.348 38.6761Z" fill="#BA68C8"/>
<path d="M214.729 44.1752C214.722 43.6988 214.621 43.2285 214.432 42.7912C214.257 42.3286 213.946 41.9303 213.539 41.6494C212.937 41.2965 212.425 42.0231 212.349 42.8812C212.273 41.9331 211.774 40.6114 211.172 40.2585C211.037 40.1631 210.871 40.1197 210.706 40.1362C210.541 40.1528 210.387 40.2281 210.273 40.3484C210.052 40.6475 209.944 41.0153 209.968 41.3864C209.968 42.8396 210.833 44.1544 211.56 45.5384L212.328 46.9917L213.138 46.4311C213.83 45.9121 214.722 45.6215 214.729 44.1752Z" fill="#FAFAFA"/>
<path opacity="0.3" d="M224.999 45.9749C226.226 46.7763 227.247 47.8555 227.979 49.1251C228.711 50.3947 229.134 51.819 229.213 53.2825C229.213 55.9743 227.324 57.0608 224.999 55.7183C223.768 54.9243 222.742 53.8514 222.004 52.5865C221.266 51.3216 220.836 49.9005 220.75 48.4385C220.75 45.7189 222.667 44.6325 224.999 45.9749Z" fill="#BA68C8"/>
<path d="M227.378 51.477C227.372 51.0004 227.271 50.5297 227.08 50.093C226.903 49.6338 226.592 49.2384 226.188 48.9581C225.579 48.5983 225.074 49.3249 224.997 50.183C224.921 49.2349 224.423 47.9201 223.814 47.5603C223.679 47.4668 223.515 47.4245 223.351 47.441C223.188 47.4575 223.035 47.5317 222.921 47.6502C222.699 47.9489 222.589 48.3164 222.61 48.6882C222.61 50.1414 223.475 51.4562 224.209 52.8402L224.977 54.2934L225.752 53.7468C226.492 53.2139 227.371 52.9302 227.378 51.477Z" fill="#FAFAFA"/>
<path d="M237.358 54.0773L296.33 88.1237C297.185 88.6597 297.901 89.3894 298.422 90.2538C298.943 91.1181 299.252 92.0929 299.326 93.0992C299.326 94.8915 297.984 95.5696 296.33 94.6147L237.358 60.5683C236.503 60.0323 235.786 59.3026 235.266 58.4382C234.745 57.5738 234.435 56.5991 234.361 55.5928C234.382 53.8005 235.725 53.1223 237.358 54.0773Z" fill="#FAFAFA"/>
<path opacity="0.5" d="M236.041 56.5411C236.077 57.0444 236.232 57.5322 236.491 57.965C236.751 58.3977 237.109 58.7633 237.536 59.0323L296.778 93.2794C297.601 93.7568 298.273 93.4178 298.273 92.5182C298.235 92.016 298.08 91.5296 297.821 91.0981C297.561 90.6667 297.204 90.3021 296.778 90.0339L237.536 55.7868C236.712 55.3093 236.041 55.6484 236.041 56.5411Z" fill="#BA68C8"/>
<g opacity="0.3">
<path d="M302.406 93.6202C302.391 93.5519 302.391 93.4809 302.406 93.4126C302.405 93.3865 302.411 93.3605 302.423 93.3374C302.435 93.3142 302.453 93.2948 302.476 93.2811L303.811 92.4715L303.936 92.4023C303.962 92.3895 303.99 92.3828 304.019 92.3828C304.048 92.3828 304.076 92.3895 304.102 92.4023L304.856 92.8382C304.911 92.872 304.952 92.9232 304.974 92.9836C305.007 93.0502 305.026 93.1234 305.029 93.1981V99.3915C305.031 99.4194 305.028 99.4474 305.018 99.4737C305.009 99.4999 304.993 99.5238 304.974 99.5437C304.974 99.5783 304.905 99.5783 304.856 99.5437L304.04 99.0732C303.987 99.0373 303.946 98.9868 303.922 98.9278C303.893 98.8623 303.876 98.7919 303.874 98.7202V94.5267L303.133 94.9627C303.101 94.9904 303.059 94.9904 303.009 94.9627C302.957 94.9213 302.919 94.866 302.898 94.8035L302.406 93.6202Z" fill="#BA68C8"/>
<path d="M308.039 94.6096C308.346 94.7891 308.619 95.0236 308.841 95.3016C309.068 95.5697 309.257 95.8677 309.402 96.1873C309.549 96.5159 309.66 96.8593 309.734 97.2115C309.802 97.563 309.844 97.9193 309.859 98.2772C309.859 98.554 309.859 98.8446 309.859 99.1491C309.859 99.4536 309.859 99.7234 309.859 99.9864C309.849 100.294 309.807 100.6 309.734 100.9C309.678 101.138 309.564 101.36 309.402 101.543C309.254 101.694 309.053 101.781 308.841 101.786C308.556 101.775 308.278 101.686 308.039 101.53C307.732 101.348 307.461 101.114 307.236 100.838C307.014 100.567 306.828 100.27 306.682 99.9518C306.529 99.6256 306.418 99.2815 306.35 98.9276C306.276 98.5768 306.232 98.2203 306.219 97.862C306.219 97.599 306.219 97.3153 306.219 97.0108C306.219 96.7063 306.219 96.4226 306.219 96.1527C306.227 95.8442 306.272 95.5377 306.35 95.2393C306.402 94.9991 306.516 94.7769 306.682 94.5957C306.828 94.446 307.027 94.3591 307.236 94.3535C307.523 94.3601 307.801 94.449 308.039 94.6096ZM308.731 99.2529C308.731 98.7131 308.731 98.1803 308.731 97.6405C308.731 97.4744 308.731 97.3153 308.689 97.17C308.664 97.0287 308.627 96.8899 308.578 96.7548C308.529 96.63 308.462 96.5133 308.378 96.4088C308.291 96.3013 308.185 96.2099 308.066 96.1389C307.975 96.0764 307.866 96.0449 307.755 96.0489C307.715 96.0528 307.676 96.0653 307.642 96.0856C307.607 96.1059 307.577 96.1336 307.554 96.1666C307.5 96.2536 307.463 96.3497 307.444 96.4503C307.422 96.5877 307.408 96.7264 307.402 96.8655C307.402 97.3845 307.402 97.9242 307.402 98.4778C307.405 98.6332 307.419 98.7881 307.444 98.9415C307.461 99.0844 307.498 99.2242 307.554 99.3567C307.602 99.4843 307.67 99.6035 307.755 99.7096C307.842 99.8171 307.948 99.9084 308.066 99.9795C308.158 100.042 308.267 100.073 308.378 100.069C308.418 100.066 308.457 100.054 308.491 100.033C308.526 100.013 308.556 99.9851 308.578 99.9518C308.638 99.8672 308.679 99.7703 308.696 99.6681C308.71 99.5301 308.712 99.3912 308.703 99.2529H308.731Z" fill="#BA68C8"/>
<path d="M314.426 100.545C314.427 100.717 314.413 100.888 314.384 101.057C314.363 101.205 314.322 101.35 314.26 101.486C314.2 101.615 314.12 101.734 314.024 101.839C313.919 101.947 313.798 102.038 313.664 102.109L312.793 102.621L314.356 103.528C314.409 103.563 314.45 103.614 314.474 103.673C314.506 103.737 314.523 103.808 314.523 103.88V104.898C314.526 104.925 314.523 104.953 314.515 104.979C314.506 105.005 314.493 105.029 314.474 105.05C314.466 105.058 314.457 105.064 314.447 105.068C314.437 105.072 314.426 105.074 314.415 105.074C314.404 105.074 314.394 105.072 314.383 105.068C314.373 105.064 314.364 105.058 314.356 105.05L311.069 103.154C311.015 103.12 310.974 103.069 310.952 103.009C310.917 102.945 310.898 102.874 310.896 102.801V101.971C310.896 101.874 310.91 101.779 310.938 101.687C310.948 101.65 310.965 101.616 310.989 101.586C311.013 101.556 311.043 101.532 311.076 101.514L312.938 100.538C313.065 100.479 313.165 100.372 313.215 100.241C313.25 100.122 313.269 99.9981 313.27 99.8738C313.27 99.8254 313.27 99.7631 313.27 99.6731C313.255 99.579 313.232 99.4864 313.201 99.3963C313.157 99.2923 313.104 99.1926 313.042 99.0988C312.966 98.9967 312.869 98.9119 312.758 98.8497C312.719 98.8199 312.674 98.7983 312.627 98.7864C312.579 98.7745 312.53 98.7725 312.481 98.7804C312.413 98.7938 312.352 98.8306 312.308 98.8842C312.27 98.9411 312.241 99.0043 312.225 99.0711C312.225 99.1403 312.191 99.1887 312.184 99.2233C312.177 99.2579 312.128 99.341 312.087 99.3479C312.033 99.3459 311.98 99.3292 311.934 99.2994L311.166 98.8635C311.124 98.831 311.091 98.7881 311.069 98.7389C311.043 98.6876 311.029 98.6307 311.028 98.5728C311.031 98.3222 311.068 98.0731 311.139 97.8324C311.202 97.6288 311.313 97.4435 311.464 97.2927C311.609 97.1579 311.799 97.0815 311.997 97.0781C312.268 97.0826 312.532 97.1642 312.758 97.3134C313.032 97.475 313.278 97.6807 313.485 97.9224C313.69 98.1661 313.867 98.4332 314.01 98.7182C314.147 99.0087 314.254 99.3124 314.329 99.6247C314.394 99.9271 314.427 100.236 314.426 100.545Z" fill="#BA68C8"/>
<path d="M316.635 104.38L316.732 104.623C316.768 104.71 316.812 104.793 316.863 104.872C316.913 104.96 316.973 105.041 317.043 105.114C317.113 105.195 317.198 105.263 317.292 105.315C317.366 105.366 317.452 105.397 317.542 105.405C317.609 105.429 317.682 105.429 317.749 105.405C317.816 105.366 317.868 105.304 317.894 105.232C317.938 105.126 317.957 105.013 317.95 104.899C317.95 104.679 317.892 104.462 317.784 104.27C317.681 104.076 317.525 103.915 317.334 103.806C317.284 103.773 317.227 103.752 317.168 103.744H317.023H316.905C316.874 103.755 316.839 103.755 316.808 103.744L315.839 103.183C315.786 103.144 315.743 103.091 315.715 103.031C315.681 102.967 315.667 102.895 315.673 102.823L315.86 99.5087C315.858 99.4539 315.875 99.4 315.908 99.3565C315.916 99.3487 315.925 99.3426 315.935 99.3384C315.945 99.3342 315.956 99.332 315.967 99.332C315.978 99.332 315.989 99.3342 315.999 99.3384C316.009 99.3426 316.018 99.3487 316.026 99.3565L318.69 100.893C318.743 100.928 318.784 100.979 318.808 101.038C318.84 101.102 318.857 101.174 318.856 101.246V102.263C318.86 102.29 318.857 102.318 318.849 102.344C318.84 102.37 318.826 102.395 318.808 102.415C318.8 102.423 318.791 102.429 318.781 102.433C318.771 102.437 318.76 102.44 318.749 102.44C318.738 102.44 318.727 102.437 318.717 102.433C318.707 102.429 318.698 102.423 318.69 102.415L316.877 101.363L316.836 102.194C316.92 102.176 317.007 102.176 317.092 102.194C317.207 102.214 317.318 102.256 317.417 102.318C317.674 102.461 317.908 102.643 318.109 102.858C318.319 103.083 318.501 103.335 318.649 103.605C318.804 103.894 318.923 104.201 319.002 104.519C319.088 104.86 319.133 105.211 319.133 105.564C319.143 105.881 319.094 106.198 318.988 106.498C318.92 106.709 318.784 106.892 318.6 107.017C318.431 107.13 318.226 107.174 318.026 107.141C317.781 107.103 317.545 107.016 317.334 106.885C317.053 106.722 316.796 106.519 316.573 106.283C316.354 106.047 316.166 105.784 316.012 105.501C315.863 105.232 315.745 104.946 315.659 104.65C315.578 104.378 315.534 104.097 315.528 103.813C315.525 103.767 315.537 103.72 315.562 103.681C315.578 103.671 315.596 103.665 315.614 103.665C315.633 103.665 315.651 103.671 315.666 103.681L316.455 104.138C316.517 104.176 316.569 104.228 316.607 104.29C316.618 104.32 316.627 104.35 316.635 104.38Z" fill="#BA68C8"/>
</g>
<path d="M168.675 245.389C168.619 245.271 164.82 238.676 164.82 238.676C164.82 238.676 165.637 239.161 169.457 237.009C170.884 236.138 172.215 235.12 173.429 233.971L175.962 238.849C177.574 240.565 180.958 238.697 184.812 237.209C185.456 236.96 186.113 236.67 186.771 236.372H186.812C188.923 235.68 191.414 236.413 189.663 238.829C187.912 241.244 184.418 242.891 181.186 244.365C177.297 246.178 170.46 249.243 168.675 245.389Z" fill="#B16668"/>
<path d="M197.02 237.312C197.488 237.915 197.787 238.632 197.885 239.388C198.01 240.198 196.757 243.395 193.733 245.935C190.709 248.474 186.46 249.706 184.613 250.779C182.765 251.851 181.229 253.505 179.021 254.696C176.814 255.886 174.565 256.772 171.797 255.858C171.188 255.298 170.295 253.879 170.413 253.692C170.669 253.27 197.02 237.312 197.02 237.312Z" fill="#263238"/>
<path d="M176.767 239.382C178.559 240.033 181.514 238.483 184.815 237.21C187.922 236.005 191.236 233.936 193.617 234.123C195.997 234.31 198.461 236.4 196.385 240.455C195.776 241.631 194.413 243.777 193.105 244.669C189.79 246.932 186.531 247.894 184.33 249.091C181.465 250.648 180.144 252.44 177.41 253.513C173.853 254.897 171.286 254.558 170.4 253.748C169.515 252.939 166.857 245.188 168.47 244.946C168.47 244.946 169.798 247.327 175.141 243.278C177.473 241.507 177.016 239.929 176.767 239.382Z" fill="#BA68C8"/>
<path opacity="0.4" d="M176.767 239.382C178.559 240.033 181.514 238.483 184.815 237.21C187.922 236.005 191.236 233.936 193.617 234.123C195.997 234.31 198.461 236.4 196.385 240.455C195.776 241.631 194.413 243.777 193.105 244.669C189.79 246.932 186.531 247.894 184.33 249.091C181.465 250.648 180.144 252.44 177.41 253.513C173.853 254.897 171.286 254.558 170.4 253.748C169.515 252.939 166.857 245.188 168.47 244.946C168.47 244.946 169.798 247.327 175.141 243.278C177.473 241.507 177.016 239.929 176.767 239.382Z" fill="black"/>
<path d="M188.039 240.961C188.039 240.961 186.821 237.722 184.129 237.501C183.882 237.457 183.628 237.484 183.395 237.578C183.163 237.672 182.961 237.83 182.814 238.034C182.814 238.034 185.188 237.771 186.966 241.494C186.966 241.494 187.153 241.715 187.624 241.494C187.783 241.397 188.129 241.231 188.039 240.961Z" fill="#FAFAFA"/>
<path d="M180.788 238.822C180.788 238.822 180.753 238.711 181.307 238.449C181.519 238.337 181.764 238.303 181.999 238.352C181.999 238.352 184.075 238.663 185.299 242.061C185.319 242.207 185.288 242.356 185.211 242.482C185.134 242.608 185.016 242.703 184.877 242.753C184.818 242.793 184.75 242.82 184.679 242.833C184.609 242.846 184.536 242.844 184.466 242.828C184.396 242.812 184.33 242.781 184.272 242.739C184.214 242.696 184.166 242.642 184.13 242.58C184.13 242.58 182.794 239.009 180.788 238.822Z" fill="#FAFAFA"/>
<path d="M178.826 239.43C178.826 239.43 178.875 239.188 179.311 239.084C179.857 238.939 180.037 239.084 180.037 239.084C180.037 239.084 181.698 240.081 182.473 242.994C182.473 242.994 182.653 243.471 181.982 243.686C181.31 243.9 181.29 243.333 181.29 243.333C181.29 243.333 180.051 239.714 178.826 239.43Z" fill="#FAFAFA"/>
<path d="M153.527 197.771C158.89 206.013 174.979 234.994 174.979 234.994C174.979 234.994 171.014 241.001 164.835 240.35L141.307 205.169L153.527 197.771Z" fill="#37474F"/>
<path d="M191.195 257.479C190.393 256.683 186.773 250.753 186.773 250.753C186.773 250.753 189.486 251.653 193.472 249.819C195.5 248.885 197.022 246.172 197.022 246.172L200.046 251.964C201.52 253.805 204.8 252.434 208.758 251.272C209.45 251.078 210.101 250.843 210.779 250.58H210.82C212.986 250.075 215.401 251.002 213.464 253.258C211.526 255.514 207.928 256.884 204.558 258.102C200.544 259.59 194.219 260.469 191.195 257.479Z" fill="#B16668"/>
<path d="M222.446 250.994C222.899 251.69 223.154 252.496 223.186 253.326C223.255 254.205 221.636 257.513 218.169 259.969C214.702 262.426 210.059 263.367 207.983 264.384C205.907 265.402 204.128 267.007 201.658 268.087C199.187 269.166 196.703 269.948 193.817 268.696C193.215 268.045 192.392 266.447 192.517 266.253C192.849 265.727 222.446 250.994 222.446 250.994Z" fill="#263238"/>
<path d="M200.612 251.376C200.892 251.499 201.178 251.605 201.47 251.695C201.761 251.746 202.058 251.746 202.349 251.695C203.05 251.635 203.744 251.514 204.425 251.335C206.106 250.906 207.746 250.311 209.414 249.819C212.874 248.802 216.576 246.878 219.102 247.286C221.628 247.695 224.347 250.054 221.759 254.248C220.767 255.864 219.503 257.297 218.023 258.483C214.445 260.898 210.334 261.41 207.871 262.497C204.674 263.915 203.103 265.714 200.065 266.649C196.141 267.818 193.422 267.23 192.543 266.282C192.052 265.756 191.851 262.538 190.841 260.199C189.983 258.192 189.81 256.739 190.585 256.684C190.801 256.922 191.048 257.132 191.318 257.307C191.623 257.549 191.974 257.728 192.349 257.833C192.873 257.958 193.409 258.026 193.948 258.033C194.906 258.13 195.874 258.069 196.813 257.853C197.077 257.797 197.318 257.662 197.505 257.466C197.705 257.159 197.793 256.792 197.754 256.428C197.754 256.109 197.754 255.784 197.754 255.466C197.745 255.29 197.768 255.114 197.823 254.947C197.918 254.76 198.055 254.599 198.224 254.476C198.766 254.096 199.208 253.59 199.512 253.002C199.675 252.513 199.73 251.993 199.671 251.48C199.66 251.391 199.679 251.301 199.726 251.224C199.823 251.113 200.003 251.155 200.141 251.224C200.28 251.293 200.453 251.307 200.612 251.376Z" fill="#BA68C8"/>
<path opacity="0.4" d="M200.612 251.376C200.892 251.499 201.178 251.605 201.47 251.695C201.761 251.746 202.058 251.746 202.349 251.695C203.05 251.635 203.744 251.514 204.425 251.335C206.106 250.906 207.746 250.311 209.414 249.819C212.874 248.802 216.576 246.878 219.102 247.286C221.628 247.695 224.347 250.054 221.759 254.248C220.767 255.864 219.503 257.297 218.023 258.483C214.445 260.898 210.334 261.41 207.871 262.497C204.674 263.915 203.103 265.714 200.065 266.649C196.141 267.818 193.422 267.23 192.543 266.282C192.052 265.756 191.851 262.538 190.841 260.199C189.983 258.192 189.81 256.739 190.585 256.684C190.801 256.922 191.048 257.132 191.318 257.307C191.623 257.549 191.974 257.728 192.349 257.833C192.873 257.958 193.409 258.026 193.948 258.033C194.906 258.13 195.874 258.069 196.813 257.853C197.077 257.797 197.318 257.662 197.505 257.466C197.705 257.159 197.793 256.792 197.754 256.428C197.754 256.109 197.754 255.784 197.754 255.466C197.745 255.29 197.768 255.114 197.823 254.947C197.918 254.76 198.055 254.599 198.224 254.476C198.766 254.096 199.208 253.59 199.512 253.002C199.675 252.513 199.73 251.993 199.671 251.48C199.66 251.391 199.679 251.301 199.726 251.224C199.823 251.113 200.003 251.155 200.141 251.224C200.28 251.293 200.453 251.307 200.612 251.376Z" fill="black"/>
<path d="M212.506 254.114C212.506 254.114 211.496 250.536 208.631 250.045C208.37 249.978 208.096 249.986 207.839 250.067C207.583 250.147 207.353 250.298 207.178 250.502C207.178 250.502 209.745 250.426 211.33 254.557C211.33 254.557 211.503 254.813 212.022 254.619C212.195 254.557 212.589 254.412 212.506 254.114Z" fill="#FAFAFA"/>
<path d="M204.939 251.195C204.939 251.195 204.939 251.077 205.528 250.849C205.766 250.747 206.032 250.73 206.282 250.8C206.282 250.8 208.441 251.312 209.486 255.056C209.491 255.212 209.444 255.366 209.351 255.491C209.258 255.617 209.125 255.707 208.974 255.748C208.906 255.785 208.831 255.808 208.755 255.815C208.678 255.823 208.6 255.814 208.526 255.791C208.453 255.768 208.385 255.73 208.326 255.68C208.267 255.63 208.219 255.568 208.185 255.499C208.185 255.499 207.071 251.561 204.939 251.195Z" fill="#FAFAFA"/>
<path d="M202.789 251.645C202.789 251.645 202.865 251.396 203.336 251.32C203.931 251.216 204.111 251.424 204.111 251.424C204.111 251.424 205.799 252.635 206.374 255.818C206.374 255.818 206.526 256.344 205.785 256.51C205.045 256.676 205.045 256.074 205.045 256.074C205.045 256.074 204.076 252.081 202.789 251.645Z" fill="#FAFAFA"/>
<path d="M179.442 209.611C183.317 216.49 192.936 237.084 197.898 247.305C195.404 250.347 191.856 252.338 187.961 252.882L161.928 217.085L169.678 210.559L179.442 209.611Z" fill="#455A64"/>
<path d="M90.7363 202.534C90.7363 202.534 122.167 193.047 127.634 191.552C133.101 190.057 143.121 188.05 146.186 189.428C149.252 190.805 150.982 193.22 152.85 196.168C154.788 199.226 156.213 202.015 156.213 202.015C156.213 202.015 135.633 207.641 123.177 207.641C110.721 207.641 90.7363 202.534 90.7363 202.534Z" fill="#37474F"/>
<path d="M92.9386 190.174C90.9664 196.907 88.399 208.906 97.4712 217.667C101.007 221.085 121.29 231.957 133.746 228.137C147.662 223.867 164.277 215.639 164.277 215.639C164.277 215.639 172.678 216.131 175.411 214.553C178.145 212.975 179.805 210.366 179.445 209.612C175.107 200.616 171.494 195.938 162.104 196.879C150.617 198.028 131.476 201.516 131.476 201.516L92.9386 190.174Z" fill="#455A64"/>
<path d="M139.697 141.418C133.746 136.207 125.393 138.58 120.75 143.099C113.636 150.019 109.415 158.808 110.979 163.167C112.799 168.156 139.697 141.418 139.697 141.418Z" fill="#455A64"/>
<path d="M210.004 171.898C210.129 171.033 209.43 170.05 208.018 169.331L191.549 160.909C189.027 159.792 186.193 159.596 183.542 160.355L168.484 165.545C167.169 166.002 166.45 166.639 166.408 167.262C166.374 167.718 166.131 169.49 166.118 169.995C166.104 170.5 166.429 170.874 167.128 171.227C168.816 172.092 172.602 172.376 175.577 171.863L179.397 171.213C182.373 170.701 186.151 170.985 187.833 171.836C188.853 172.331 189.67 173.165 190.144 174.195L189.258 177.261C189.047 177.818 189.047 178.434 189.258 178.991L188.981 179.96C188.642 181.115 188.531 182.326 191.41 183.6C192.315 184.053 193.321 184.27 194.332 184.231C195.344 184.191 196.329 183.895 197.195 183.371L208.869 175.759C209.093 175.635 209.286 175.462 209.434 175.254C209.583 175.046 209.683 174.807 209.727 174.555C209.783 174.106 209.942 172.341 210.004 171.898Z" fill="#455A64"/>
<path d="M190.902 176.259L190.957 168.274L185.989 166.973L185.539 171.18C186.33 171.289 187.101 171.51 187.83 171.837C188.85 172.333 189.667 173.167 190.141 174.197L189.781 175.436L190.902 176.259Z" fill="#263238"/>
<path d="M209.088 170.043C210.59 171.427 210.701 171.835 210.286 177.288C209.87 182.741 208.632 182.886 207.234 181.952C205.836 181.018 204.888 178.423 203.172 179.482L209.088 170.043Z" fill="#455A64"/>
<path d="M167.417 168.528C169.106 169.393 172.891 169.677 175.867 169.165L179.687 168.514C182.662 168.002 186.44 168.286 188.122 169.137C189.804 169.988 190.89 171.628 190.551 172.784L189.257 177.261C188.918 178.417 188.807 179.628 191.686 180.901C192.591 181.354 193.596 181.571 194.608 181.531C195.619 181.491 196.604 181.196 197.471 180.673L209.145 173.095C210.66 172.113 210.155 170.424 208.017 169.331L191.547 160.909C189.026 159.792 186.192 159.596 183.541 160.355L168.483 165.545C166.199 166.334 165.722 167.67 167.417 168.528Z" fill="#BA68C8"/>
<path opacity="0.2" d="M167.417 168.528C169.106 169.393 172.891 169.677 175.867 169.165L179.687 168.514C182.662 168.002 186.44 168.286 188.122 169.137C189.804 169.988 190.89 171.628 190.551 172.784L189.257 177.261C188.918 178.417 188.807 179.628 191.686 180.901C192.591 181.354 193.596 181.571 194.608 181.531C195.619 181.491 196.604 181.196 197.471 180.673L209.145 173.095C210.66 172.113 210.155 170.424 208.017 169.331L191.547 160.909C189.026 159.792 186.192 159.596 183.541 160.355L168.483 165.545C166.199 166.334 165.722 167.67 167.417 168.528Z" fill="black"/>
<path d="M204.012 169.29C203.998 169.2 203.96 169.115 203.903 169.043C203.846 168.971 203.772 168.916 203.687 168.882C203.396 168.746 203.081 168.669 202.76 168.656C202.439 168.643 202.119 168.694 201.818 168.806C201.527 168.923 201.382 169.083 201.368 169.256C201.354 169.429 201.306 169.788 201.299 169.906C201.292 170.024 201.403 170.218 201.624 170.342C202.212 170.615 202.883 170.645 203.493 170.425C203.77 170.314 203.922 170.155 203.943 169.989C203.963 169.823 204.019 169.422 204.012 169.29Z" fill="#263238"/>
<path d="M200.029 170.922C200.019 170.828 199.983 170.739 199.925 170.663C199.868 170.588 199.792 170.529 199.704 170.493C199.413 170.357 199.098 170.281 198.777 170.268C198.456 170.255 198.136 170.305 197.835 170.417C197.559 170.528 197.406 170.687 197.393 170.846C197.379 171.005 197.323 171.407 197.316 171.538C197.327 171.632 197.363 171.722 197.42 171.797C197.477 171.873 197.554 171.932 197.642 171.967C198.229 172.24 198.901 172.27 199.51 172.05C199.787 171.94 199.939 171.78 199.96 171.621C199.981 171.462 200.029 171.054 200.029 170.922Z" fill="#37474F"/>
<path d="M200.272 169.157C200.272 169.005 200.169 168.845 199.947 168.721C199.36 168.448 198.688 168.418 198.079 168.638C197.802 168.749 197.65 168.908 197.629 169.074C197.608 169.24 197.574 169.62 197.56 169.731C197.546 169.842 197.657 170.05 197.885 170.181C198.176 170.317 198.491 170.394 198.812 170.407C199.132 170.42 199.452 170.369 199.753 170.257C200.037 170.146 200.189 169.98 200.203 169.814C200.217 169.648 200.265 169.274 200.272 169.157Z" fill="#263238"/>
<path d="M203.762 171.109C203.762 170.957 203.665 170.798 203.436 170.673C203.147 170.536 202.834 170.458 202.514 170.444C202.194 170.43 201.875 170.479 201.575 170.59C201.298 170.701 201.146 170.86 201.125 171.019C201.104 171.178 201.07 171.566 201.056 171.711C201.042 171.857 201.146 172.03 201.381 172.168C201.969 172.439 202.641 172.467 203.25 172.244C203.526 172.133 203.672 171.974 203.692 171.815C203.713 171.656 203.762 171.227 203.762 171.109Z" fill="#37474F"/>
<path d="M201.819 168.806C201.265 169.027 201.217 169.429 201.694 169.699C202.282 169.971 202.953 170.001 203.563 169.782C204.116 169.553 204.165 169.152 203.687 168.882C203.396 168.746 203.081 168.669 202.761 168.656C202.44 168.643 202.12 168.694 201.819 168.806Z" fill="#455A64"/>
<path d="M197.838 170.433C197.291 170.654 197.236 171.056 197.713 171.325C198.301 171.598 198.972 171.628 199.582 171.409C200.135 171.18 200.191 170.779 199.706 170.509C199.416 170.373 199.101 170.296 198.78 170.283C198.459 170.27 198.139 170.321 197.838 170.433Z" fill="#455A64"/>
<path d="M198.081 168.638C197.528 168.866 197.472 169.261 197.957 169.531C198.247 169.668 198.562 169.745 198.883 169.76C199.203 169.774 199.524 169.724 199.825 169.614C200.372 169.392 200.427 168.991 199.95 168.721C199.362 168.448 198.691 168.418 198.081 168.638Z" fill="#455A64"/>
<path d="M201.574 170.59C201.02 170.812 200.965 171.213 201.449 171.483C202.037 171.756 202.708 171.786 203.317 171.566C203.864 171.338 203.919 170.943 203.435 170.673C203.146 170.536 202.832 170.458 202.513 170.444C202.193 170.43 201.874 170.479 201.574 170.59Z" fill="#455A64"/>
<path d="M189.021 162.009L187.271 161.033L185.285 161.843L183.534 160.867L181.541 161.684L181.465 162.424L182.482 162.992L181.306 163.469L181.223 164.21L182.973 165.185L184.959 164.369L186.71 165.344L188.696 164.535L188.779 163.794L187.762 163.227L188.938 162.743L189.021 162.009Z" fill="#37474F"/>
<path d="M187.27 161.033L185.284 161.843L183.533 160.867L181.54 161.684L183.291 162.659L181.305 163.469L183.049 164.445L185.041 163.635L186.785 164.611L188.778 163.794L187.028 162.819L189.02 162.009L187.27 161.033Z" fill="#455A64"/>
<path d="M185.04 163.637L184.957 164.37L182.971 165.187L183.047 164.446L185.04 163.637Z" fill="#263238"/>
<path d="M187.025 162.819L187.759 163.228L188.935 162.743L189.018 162.01L187.025 162.819Z" fill="#263238"/>
<path d="M188.78 163.797L188.697 164.537L186.711 165.347L186.787 164.613L188.78 163.797Z" fill="#263238"/>
<path d="M183.291 162.659L181.54 161.684L181.457 162.459L182.481 162.991L183.291 162.659Z" fill="#263238"/>
<path d="M168.33 160.425C172.482 159.484 174.952 160.211 178.488 160.065C179.63 160.024 180.599 159.408 181.159 159.512C182.232 159.719 182.149 160.833 181.457 161.588C180.765 162.342 179.969 163.055 176.904 163.532C174.288 163.947 174.184 163.65 171.119 164.598L167.762 166.176L166.586 163.29L168.33 160.425Z" fill="#B16668"/>
<path d="M175.769 160.066C173.564 159.118 171.129 158.839 168.766 159.263C165.383 160.066 166.594 163.532 166.594 163.532L175.769 160.066Z" fill="#B16668"/>
<path d="M159.083 142.488L149.049 151.463L135.797 146.813L145.263 133.658L159.083 142.488Z" fill="#B16668"/>
<path d="M169.055 125.25C169.055 125.25 172.418 130.357 172.037 130.862C171.657 131.367 169.172 131.817 169.172 131.817L169.055 125.25Z" fill="#9A4A4D"/>
<path d="M159.706 111.147C166.515 112.579 168.48 115.576 169.124 126.371C169.816 137.678 168.639 141.235 167.159 142.757C166.155 143.782 160.585 143.968 157.775 143.193C154.253 142.225 146.302 139.408 142.551 133.72C138.178 127.028 137.015 117.963 141.714 114.24C148.336 109.029 156.938 110.559 159.706 111.147Z" fill="#B16668"/>
<path d="M158.086 143.292C161.014 144.026 165.498 143.728 166.847 142.995C165.199 143.308 163.498 143.205 161.899 142.697C160.305 142.239 158.79 141.539 157.408 140.621L158.086 143.292Z" fill="#9A4A4D"/>
<path d="M170.633 115.819C168.689 117.092 166.35 117.583 164.052 117.895C164.191 119.729 163.568 121.528 162.959 123.265C162.537 124.469 161.028 128.24 159.499 126.116C158.412 124.579 157.423 123.182 155.278 123.507C151.735 124.033 151.257 128.552 153.485 131.299C155.714 134.046 157.803 132.994 157.803 132.994C157.803 132.994 158.018 137.838 155.375 141.25C153.944 141.939 152.387 142.328 150.8 142.391C149.214 142.454 147.631 142.19 146.15 141.616C142.787 140.426 137.985 136.032 136.255 132.655C131.501 123.348 131.674 114.545 137.763 111.971C138.455 107.577 141.915 105.612 145.818 104.705C151.285 103.446 156.855 106.989 162.156 104.857C163.277 104.408 164.308 103.757 165.45 103.377C165.758 103.236 166.093 103.168 166.431 103.176C166.769 103.185 167.101 103.27 167.401 103.425C167.85 103.811 168.137 104.352 168.204 104.94C168.519 105.982 168.42 107.105 167.927 108.075C168.713 107.672 169.551 107.383 170.419 107.217C170.853 107.139 171.299 107.154 171.728 107.261C172.156 107.369 172.557 107.566 172.903 107.84C173.492 108.423 173.832 109.212 173.851 110.041C174.031 112.352 172.564 114.545 170.633 115.819Z" fill="#263238"/>
<path d="M137.711 113.446L133.635 111.045C133.964 110.527 134.482 110.157 135.079 110.013C135.675 109.869 136.305 109.963 136.834 110.275C137.363 110.586 137.75 111.091 137.913 111.683C138.077 112.275 138.004 112.907 137.711 113.446Z" fill="#263238"/>
<path d="M139.695 141.415C132.193 139.173 126.014 140.308 116.215 149.643C105.475 159.85 97.5727 177.191 94.8047 195.896C94.8047 195.896 95.1714 204.539 105.185 210.29C115.807 216.386 132.221 214.898 138.816 203.923C138.816 203.923 140.2 194.145 144.58 188.914C147.417 185.523 153.978 178.036 158.822 172.686C163.036 168.029 167.437 156.674 160.815 151.324C158.87 149.76 156.96 148.556 154.268 146.785C147.397 148.003 138.463 143.934 139.695 141.415Z" fill="#BA68C8"/>
<path opacity="0.75" d="M139.695 141.415C132.193 139.173 126.014 140.308 116.215 149.643C105.475 159.85 97.5727 177.191 94.8047 195.896C94.8047 195.896 95.1714 204.539 105.185 210.29C115.807 216.386 132.221 214.898 138.816 203.923C138.816 203.923 140.2 194.145 144.58 188.914C147.417 185.523 153.978 178.036 158.822 172.686C163.036 168.029 167.437 156.674 160.815 151.324C158.87 149.76 156.96 148.556 154.268 146.785C147.397 148.003 138.463 143.934 139.695 141.415Z" fill="white"/>
<path opacity="0.1" d="M159.431 171.981L159.763 171.552L159.908 171.358L160.268 170.846C160.268 170.805 160.33 170.763 160.358 170.715C160.51 170.489 160.662 170.258 160.815 170.023C160.83 170.002 160.842 169.978 160.849 169.953C160.988 169.739 161.119 169.51 161.251 169.261L161.34 169.095C161.458 168.881 161.583 168.659 161.693 168.403C161.719 168.363 161.742 168.322 161.763 168.279C162.196 167.424 162.582 166.546 162.918 165.649V165.601C163.754 163.444 164.188 161.153 164.198 158.84C161.928 162.575 159.011 165.877 155.583 168.59C151.203 172.05 146.054 174.479 141.909 178.209C137.522 182.167 134.048 187.205 130.207 191.682C128.664 193.468 126.401 197.024 124.049 196.838C121.177 196.609 118.962 192.748 117.758 190.132C115.835 185.98 114.402 180.894 111.814 177.102C109.551 173.787 105.939 169.434 102.029 170.604C98.4925 178.671 96.0623 187.179 94.8047 195.896C94.8047 195.896 95.1714 204.54 105.185 210.29C106.077 210.809 107.002 211.271 107.953 211.674C108.243 211.722 108.534 211.785 108.818 211.854C110.25 212.228 111.586 212.927 113.06 213.238L113.586 213.342L114.181 213.446L114.817 213.542L115.357 213.619L116.049 213.702L116.527 213.743L117.274 213.798H117.724H118.485H119.717H120.201L120.893 213.764L121.44 213.722L122.069 213.667L122.672 213.598L123.246 213.522L123.938 213.411L124.388 213.328C124.685 213.273 124.976 213.217 125.267 213.148L125.453 213.106C130.899 211.826 135.923 208.781 138.857 203.896C138.857 203.896 138.927 203.425 139.072 202.643C139.12 202.415 139.169 202.166 139.224 201.889C139.335 201.349 139.48 200.713 139.653 200.014C140.248 197.54 141.087 195.132 142.158 192.824C142.546 192.012 142.983 191.224 143.466 190.464C143.708 190.091 143.957 189.731 144.22 189.385L144.629 188.914L145.203 188.222C147.867 185.074 152.767 179.475 156.967 174.777L158.856 172.701L159.313 172.161L159.431 171.981Z" fill="#BA68C8"/>
<path d="M203.56 182.985C201.242 186.68 200.792 188.998 190.765 189.78C190.765 189.78 171.95 201.586 165.909 203.752C159.867 205.918 157.688 202.52 156.428 197.046C155.169 191.573 151.868 170.923 151.868 170.923C151.868 170.923 149.245 158.184 159.943 150.945C164.476 154.405 166.863 157.941 167.625 164.031C168.517 171.318 169.818 188.431 169.818 188.431C169.818 188.431 185.686 181.511 188.08 179.13C188.784 178.383 189.421 177.575 189.983 176.715C190.994 175.331 192.419 173.823 192.82 172.003C193.45 169.117 194.779 169.519 195.256 171.103C195.814 173.144 195.797 175.299 195.208 177.331C195.208 177.331 200.114 181.186 202.522 179.892L203.173 179.476C203.441 179.287 203.768 179.199 204.095 179.228C204.422 179.257 204.728 179.402 204.958 179.636C205.09 180.3 204.979 180.729 203.56 182.985Z" fill="#B16668"/>
<path d="M158.741 149.775C164.775 152.62 167.737 157.166 168.359 164.044C168.982 170.923 169.82 182.874 169.82 182.874C169.82 182.874 169.446 187.233 163.675 189.261C162.044 189.863 160.295 190.072 158.569 189.873C156.843 189.673 155.187 189.07 153.737 188.112L151.343 172.542C151.343 172.542 147.959 155.699 158.741 149.775Z" fill="#455A64"/>
<path d="M114.914 200.133C105.039 188.051 95.8562 173.553 88.258 169.173C74.5841 161.298 46.8072 178.605 43.7694 218.097C40.7315 257.59 69.8924 279.72 98.0775 285.796C112.506 288.896 131.467 285.754 138.906 283.18C161.582 275.326 174.281 264.337 179.734 249.148C185.685 232.498 181.18 222.485 173.429 218.222C169.938 216.35 165.926 215.689 162.018 216.34C134.449 220.658 122.56 209.489 114.914 200.133Z" fill="#BA68C8"/>
<path opacity="0.2" d="M149.367 278.978L150.613 278.397C152.592 268.709 151.478 259.63 147.256 251.229C143.104 243.029 136.053 235.348 125.611 227.701C110.214 216.47 104.159 205.813 98.3321 195.509C96.1938 191.731 94.18 188.16 91.7304 184.638C86.2843 176.777 80.8521 172.645 74.6449 171.649C72.1131 171.266 69.5323 171.356 67.0329 171.912C66.1794 172.466 65.3306 173.072 64.4863 173.732C67.6761 172.62 71.0847 172.283 74.4304 172.749C80.3193 173.697 85.5024 177.676 90.7823 185.274C93.1905 188.734 95.2042 192.305 97.3286 196.056C103.224 206.47 109.328 217.231 124.919 228.58C138.399 238.448 154.945 254.073 149.367 278.978Z" fill="black"/>
<path opacity="0.1" d="M98.0793 285.794C112.507 288.894 131.468 285.753 138.907 283.178C161.584 275.324 174.282 264.335 179.735 249.146C179.881 248.738 180.005 248.343 180.137 247.942L179.804 247.81C173.999 245.921 167.757 248.184 162.006 250.225C147.543 255.36 131.198 259.159 117.199 252.883C107.982 248.731 98.4806 242.274 93.5813 233.438C88.6819 224.601 86.4191 214.504 82.8622 205.066C81.2567 200.81 79.762 195.308 76.1498 191.163C72.7659 187.288 68.3025 184.472 63.1609 184.479C58.9397 184.479 55.0369 185.752 51.3969 190.056C47.4664 197.606 44.6361 206.989 43.7849 218.137C40.7332 257.595 69.8941 279.718 98.0793 285.794Z" fill="black"/>
<path d="M299.949 252.953L319.601 241.604C320.115 241.268 320.542 240.817 320.849 240.285C321.155 239.754 321.333 239.158 321.366 238.545V238.774C321.333 238.161 321.156 237.565 320.849 237.033C320.543 236.502 320.115 236.05 319.601 235.715L280.081 212.879C279.534 212.603 278.93 212.459 278.317 212.459C277.704 212.459 277.099 212.603 276.552 212.879L256.899 224.228C256.386 224.562 255.958 225.012 255.651 225.542C255.345 226.073 255.168 226.668 255.135 227.28V227.058C255.168 227.67 255.345 228.265 255.651 228.795C255.958 229.326 256.386 229.776 256.899 230.11L296.419 252.946C296.966 253.223 297.57 253.368 298.183 253.369C298.796 253.37 299.401 253.228 299.949 252.953Z" fill="#37474F"/>
<path d="M298.191 223.355L319.609 235.715C320.123 236.05 320.55 236.502 320.857 237.033C321.163 237.564 321.34 238.161 321.373 238.773V238.545C321.34 239.157 321.163 239.753 320.856 240.285C320.55 240.816 320.122 241.268 319.609 241.604L299.956 252.952C299.412 253.238 298.806 253.383 298.191 253.374V223.355Z" fill="#263238"/>
<path d="M319.61 237.757L299.957 249.12C299.411 249.4 298.806 249.546 298.192 249.546C297.579 249.546 296.974 249.4 296.428 249.12L256.908 226.284C255.932 225.723 255.932 224.81 256.908 224.249L276.56 212.9C277.108 212.624 277.712 212.48 278.325 212.48C278.938 212.48 279.542 212.624 280.09 212.9L319.61 235.736C320.585 236.283 320.585 237.197 319.61 237.757Z" fill="#455A64"/>
<path d="M319.608 234.028V235.903L299.208 247.667C298.984 247.802 298.734 247.89 298.475 247.923C298.025 247.988 297.566 247.898 297.174 247.667L256.906 224.423V222.479L296.426 245.356C296.973 245.634 297.578 245.779 298.191 245.779C298.804 245.779 299.409 245.634 299.956 245.356L319.608 234.028Z" fill="#BA68C8"/>
<path opacity="0.2" d="M319.606 234.027V235.903L299.206 247.667C298.982 247.802 298.732 247.889 298.472 247.923H298.182V245.764C298.799 245.777 299.409 245.632 299.953 245.342L319.606 234.027Z" fill="black"/>
<path d="M299.958 245.368L319.611 234.026C320.125 233.691 320.553 233.239 320.86 232.708C321.167 232.176 321.343 231.58 321.376 230.967V227.334C321.343 226.721 321.167 226.125 320.86 225.593C320.553 225.062 320.125 224.61 319.611 224.276L280.091 201.44C279.544 201.163 278.939 201.02 278.327 201.02C277.714 201.02 277.109 201.163 276.562 201.44L256.909 212.781C256.396 213.117 255.969 213.569 255.663 214.101C255.356 214.632 255.179 215.228 255.145 215.84V219.473C255.178 220.077 255.355 220.665 255.662 221.186C255.969 221.707 256.397 222.147 256.909 222.469L296.429 245.347C296.974 245.63 297.578 245.78 298.191 245.783C298.805 245.787 299.411 245.644 299.958 245.368Z" fill="#37474F"/>
<path d="M298.191 211.91L319.609 224.276C320.123 224.611 320.551 225.063 320.858 225.594C321.164 226.126 321.341 226.722 321.373 227.335V230.968C321.341 231.581 321.164 232.177 320.858 232.709C320.551 233.24 320.123 233.692 319.609 234.026L299.956 245.368C299.414 245.658 298.806 245.804 298.191 245.79V211.91Z" fill="#263238"/>
<path d="M319.61 226.318L299.957 237.66C299.41 237.936 298.805 238.08 298.192 238.08C297.579 238.08 296.975 237.936 296.428 237.66L256.908 214.824C255.932 214.264 255.932 213.35 256.908 212.748L276.56 201.406C277.108 201.13 277.712 200.986 278.325 200.986C278.938 200.986 279.542 201.13 280.09 201.406L319.61 224.242C320.585 224.837 320.585 225.751 319.61 226.318Z" fill="#455A64"/>
<path d="M292.201 217.289C294.381 218.541 294.381 220.569 292.201 221.821C290.978 222.435 289.629 222.755 288.26 222.755C286.892 222.755 285.542 222.435 284.319 221.821C282.146 220.569 282.146 218.541 284.319 217.289C285.54 216.667 286.89 216.344 288.26 216.344C289.63 216.344 290.98 216.667 292.201 217.289Z" fill="#BA68C8"/>
<path d="M260.112 218.624C260.314 218.755 260.483 218.933 260.603 219.143C260.724 219.352 260.792 219.587 260.804 219.828C260.804 220.271 260.493 220.458 260.112 220.243C259.91 220.113 259.742 219.936 259.622 219.728C259.502 219.52 259.433 219.286 259.42 219.046C259.42 218.596 259.731 218.409 260.112 218.624Z" fill="#BA68C8"/>
<path d="M260.112 221.288C260.314 221.42 260.482 221.598 260.602 221.807C260.723 222.016 260.792 222.251 260.804 222.492C260.804 222.935 260.493 223.122 260.112 222.907C259.91 222.777 259.742 222.6 259.622 222.392C259.502 222.184 259.433 221.95 259.42 221.71C259.42 221.26 259.731 221.074 260.112 221.288Z" fill="#BA68C8"/>
<path d="M81.6973 104.174V93.794L90.4649 93.0259C90.5898 93.0149 90.715 93.0414 90.8247 93.102C91.1638 93.2888 98.2291 97.3509 98.3399 97.4132C98.4228 97.4617 98.4937 97.5285 98.5472 97.6083C98.6007 97.6882 98.6354 97.7792 98.6488 97.8744C98.6621 97.9696 98.6537 98.0666 98.6241 98.1581C98.5946 98.2496 98.5447 98.3332 98.4783 98.4027L89.1847 108.478L81.6973 104.174Z" fill="#BA68C8"/>
<path d="M89.1855 108.47L98.4791 98.3943C98.5689 98.3001 98.6277 98.1806 98.6475 98.0519C98.6674 97.9233 98.6473 97.7916 98.5899 97.6747C98.5326 97.5578 98.4409 97.4613 98.327 97.3982C98.2132 97.3351 98.0827 97.3084 97.9532 97.3217L89.1855 98.0829V108.47Z" fill="#BA68C8"/>
<path d="M81.6973 93.7813L89.1847 98.0924L97.9524 97.3243C98.0557 97.3151 98.1597 97.3293 98.2568 97.3658C97.5648 96.9506 91.15 93.2692 90.8317 93.0962C90.7186 93.031 90.5875 93.0043 90.458 93.0201L81.6973 93.7813Z" fill="#BA68C8"/>
<path opacity="0.5" d="M81.6973 93.7813L89.1847 98.0924L97.9524 97.3243C98.0557 97.3151 98.1597 97.3293 98.2568 97.3658C97.5648 96.9506 91.15 93.2692 90.8317 93.0962C90.7186 93.031 90.5875 93.0043 90.458 93.0201L81.6973 93.7813Z" fill="white"/>
<path d="M89.1936 85.5099C89.15 84.7547 88.9301 84.0202 88.5516 83.3653C88.173 82.7104 87.6464 82.1533 87.0138 81.7385L85.2423 80.7212C84.5685 80.3768 83.8227 80.1973 83.066 80.1973C82.3093 80.1973 81.5634 80.3768 80.8896 80.7212L53.7217 96.4366C53.0887 96.8486 52.5619 97.4043 52.1843 98.0585C51.8067 98.7127 51.589 99.4468 51.5488 100.201V130.095C51.5879 130.851 51.8051 131.586 52.1828 132.242C52.5604 132.897 53.0877 133.454 53.7217 133.867L55.4932 134.891C56.1685 135.231 56.9138 135.407 57.6696 135.407C58.4254 135.407 59.1707 135.231 59.8459 134.891L87.0138 119.176C87.6487 118.763 88.1771 118.207 88.5559 117.551C88.9347 116.896 89.1533 116.16 89.1936 115.404V85.5099Z" fill="#BA68C8"/>
<path opacity="0.2" d="M51.5488 130.096C51.5879 130.852 51.8051 131.587 52.1828 132.243C52.5604 132.898 53.0877 133.455 53.7217 133.868L55.4932 134.892C56.1071 135.198 56.7787 135.372 57.4643 135.402C58.1499 135.432 58.834 135.317 59.4722 135.065C58.4481 135.452 57.673 134.871 57.673 133.632V103.738C57.6993 102.98 57.9185 102.242 58.3097 101.593L52.1855 98.0566C51.7943 98.7059 51.5751 99.4443 51.5488 100.202V130.096Z" fill="black"/>
<path opacity="0.5" d="M89.1185 84.8923C88.8694 83.965 88.0251 83.6744 87.0425 84.2488L59.8469 99.971C59.2024 100.368 58.6727 100.926 58.3106 101.59L52.1934 98.0611C52.5549 97.3966 53.0816 96.8365 53.7227 96.4349L80.8906 80.7196C81.5658 80.38 82.3111 80.2031 83.0669 80.2031C83.8227 80.2031 84.5681 80.38 85.2433 80.7196L87.0217 81.7437C87.567 82.0983 88.0342 82.5605 88.3947 83.1019C88.7552 83.6432 89.0015 84.2525 89.1185 84.8923Z" fill="white"/>
<path d="M67.5813 102.22L70.0379 100.802V102.615L72.5015 101.196V105.064L74.9581 103.639V99.7704L77.4216 98.3518V96.5388L79.8851 95.1133V96.9332L82.3417 95.5077V99.376L84.8052 97.9574V103.639L82.3417 105.064V107.901L79.8851 109.327V112.164L77.4216 113.59V116.427L74.9581 117.852L74.965 120.69L72.5015 122.108V119.271L70.0379 120.69V117.852L67.5813 119.271V116.427L65.1178 117.852V115.008L62.6543 116.427V110.746L65.1178 109.327V105.459L67.5813 104.033V102.22Z" fill="white"/>
</svg>
