<svg width="2" height="13" viewBox="0 0 2 13" fill="none" xmlns="http://www.w3.org/2000/svg">
<path d="M0.754483 12.9459C0.635189 12.9459 0.520776 12.8985 0.436423 12.8142C0.352069 12.7298 0.304688 12.6154 0.304688 12.4961V8.75932C0.304688 8.64003 0.352069 8.52562 0.436423 8.44126C0.520776 8.35691 0.635189 8.30953 0.754483 8.30953C0.873778 8.30953 0.98819 8.35691 1.07254 8.44126C1.1569 8.52562 1.20428 8.64003 1.20428 8.75932V12.4961C1.20428 12.6154 1.1569 12.7298 1.07254 12.8142C0.98819 12.8985 0.873778 12.9459 0.754483 12.9459ZM0.754483 5.47232C0.635189 5.47232 0.520776 5.42494 0.436423 5.34059C0.352069 5.25624 0.304688 5.14182 0.304688 5.02253V1.28573C0.304688 1.16644 0.352069 1.05203 0.436423 0.967673C0.520776 0.883319 0.635189 0.835938 0.754483 0.835938C0.873778 0.835938 0.98819 0.883319 1.07254 0.967673C1.1569 1.05203 1.20428 1.16644 1.20428 1.28573V5.02253C1.20428 5.14182 1.1569 5.25624 1.07254 5.34059C0.98819 5.42494 0.873778 5.47232 0.754483 5.47232Z" fill="#BA68C8"/>
</svg>
