<svg width="346" height="346" viewBox="0 0 346 346" fill="none" xmlns="http://www.w3.org/2000/svg">
<g opacity="0.5">
<path d="M170.096 330.18C257.344 330.18 328.073 291.019 328.073 242.711C328.073 194.403 257.344 155.242 170.096 155.242C82.8477 155.242 12.1191 194.403 12.1191 242.711C12.1191 291.019 82.8477 330.18 170.096 330.18Z" fill="#455A64"/>
</g>
<path d="M184.125 294.887C213.313 294.887 236.973 281.787 236.973 265.629C236.973 249.47 213.313 236.371 184.125 236.371C154.938 236.371 131.277 249.47 131.277 265.629C131.277 281.787 154.938 294.887 184.125 294.887Z" fill="#E0E0E0"/>
<path d="M279.167 262.723C293.85 262.723 305.753 256.133 305.753 248.004C305.753 239.875 293.85 233.285 279.167 233.285C264.483 233.285 252.58 239.875 252.58 248.004C252.58 256.133 264.483 262.723 279.167 262.723Z" fill="#E0E0E0"/>
<path d="M72.2022 281.048C99.9982 281.048 122.531 268.572 122.531 253.181C122.531 237.791 99.9982 225.314 72.2022 225.314C44.4062 225.314 21.873 237.791 21.873 253.181C21.873 268.572 44.4062 281.048 72.2022 281.048Z" fill="#E0E0E0"/>
<path d="M265.775 251.327C258.654 244.068 254.475 214.499 261.415 208.734H296.749C303.669 214.499 299.517 244.026 292.403 251.32L292.209 251.521L291.96 251.763C291.76 251.957 291.545 252.15 291.317 252.337L291.151 252.469L290.611 252.877C290.315 253.089 290.007 253.286 289.69 253.465C283.836 256.842 274.335 256.842 268.481 253.465C268.169 253.285 267.858 253.085 267.553 252.87C267.38 252.746 267.214 252.621 267.055 252.49L266.841 252.323C266.626 252.144 266.419 251.964 266.225 251.777L265.941 251.5L265.775 251.327Z" fill="#37474F"/>
<path d="M293.681 206.417C301.743 211.074 301.743 218.617 293.681 223.274C285.619 227.931 272.548 227.931 264.486 223.274C256.424 218.617 256.424 211.074 264.486 206.417C272.548 201.76 285.619 201.76 293.681 206.417Z" fill="#455A64"/>
<path d="M289.807 208.66C295.723 212.078 295.723 217.614 289.807 221.033C283.89 224.451 274.285 224.451 268.355 221.033C262.424 217.614 262.438 212.078 268.355 208.66C274.271 205.241 283.883 205.241 289.807 208.66Z" fill="#263238"/>
<path d="M268.361 214.521C274.285 211.102 283.883 211.102 289.813 214.521C291.245 215.293 292.462 216.408 293.356 217.766C292.465 219.129 291.247 220.247 289.813 221.019C283.89 224.437 274.292 224.437 268.361 221.019C266.929 220.245 265.712 219.127 264.818 217.766C265.714 216.41 266.931 215.295 268.361 214.521Z" fill="#F5F5F5"/>
<path d="M282.528 205.192L277.49 201.587C277.49 201.587 273.338 179.809 276.93 170.447C280.521 161.084 287.116 161.118 290.264 163.63C293.413 166.142 291.69 174.01 290.403 178.55C288.846 184.024 283.898 208.548 287.386 217.247L282.528 205.192Z" fill="#BA68C8"/>
<g opacity="0.2">
<path d="M282.528 205.192L277.49 201.587C277.49 201.587 273.338 179.809 276.93 170.447C280.521 161.084 287.116 161.118 290.264 163.63C293.413 166.142 291.69 174.01 290.403 178.55C288.846 184.024 283.898 208.548 287.386 217.247L282.528 205.192Z" fill="black"/>
</g>
<path d="M281.515 202.66C281.608 202.621 281.684 202.552 281.731 202.464C281.778 202.375 281.792 202.273 281.771 202.175C277.661 183.554 286.145 166.247 286.228 166.074C286.278 165.974 286.287 165.858 286.252 165.751C286.217 165.645 286.141 165.557 286.041 165.506C285.941 165.456 285.825 165.447 285.719 165.482C285.612 165.517 285.524 165.593 285.474 165.693C285.384 165.866 276.768 183.436 280.941 202.369C280.966 202.479 281.033 202.574 281.127 202.635C281.222 202.696 281.336 202.717 281.446 202.694L281.515 202.66Z" fill="white"/>
<path d="M280.352 199.526C280.352 199.526 279.784 197.817 282.303 197.381C284.822 196.945 285.763 194.848 286.026 191.333C286.289 187.817 287.327 185.298 290.482 184.779C293.638 184.26 296.185 185.852 298.24 184.267C300.295 182.683 305.603 178.863 310.004 180.607C314.405 182.35 312.972 186.143 310.696 188.565C308.419 190.987 307.734 191.838 309.492 195.817C311.249 199.796 309.969 203.512 305.907 204.446C301.845 205.38 299.568 204.896 299.506 209.359C299.444 213.345 298.634 217.075 294.475 218.583C291.184 219.775 287.646 220.125 284.185 219.601C283.021 219.499 281.916 219.039 281.023 218.286C280.179 217.435 280.331 216.487 280.331 215.38V199.526H280.352Z" fill="#BA68C8"/>
<g opacity="0.1">
<path d="M280.352 199.526C280.352 199.526 279.784 197.817 282.303 197.381C284.822 196.945 285.763 194.848 286.026 191.333C286.289 187.817 287.327 185.298 290.482 184.779C293.638 184.26 296.185 185.852 298.24 184.267C300.295 182.683 305.603 178.863 310.004 180.607C314.405 182.35 312.972 186.143 310.696 188.565C308.419 190.987 307.734 191.838 309.492 195.817C311.249 199.796 309.969 203.512 305.907 204.446C301.845 205.38 299.568 204.896 299.506 209.359C299.444 213.345 298.634 217.075 294.475 218.583C291.184 219.775 287.646 220.125 284.185 219.601C283.021 219.499 281.916 219.039 281.023 218.286C280.179 217.435 280.331 216.487 280.331 215.38V199.526H280.352Z" fill="black"/>
</g>
<path d="M280.355 217.903C280.429 217.904 280.501 217.881 280.561 217.837C280.621 217.793 280.665 217.732 280.687 217.661C288.085 195.69 304.838 186.812 305.004 186.729C305.086 186.686 305.148 186.613 305.177 186.525C305.205 186.437 305.198 186.341 305.156 186.258C305.136 186.217 305.107 186.18 305.072 186.15C305.038 186.12 304.997 186.097 304.953 186.083C304.909 186.069 304.863 186.064 304.817 186.068C304.771 186.072 304.727 186.085 304.686 186.106C304.513 186.196 287.517 195.185 280.023 217.44C280.008 217.483 280.002 217.53 280.005 217.576C280.008 217.622 280.02 217.667 280.04 217.708C280.061 217.749 280.09 217.786 280.125 217.816C280.16 217.846 280.201 217.869 280.244 217.883C280.28 217.897 280.317 217.904 280.355 217.903Z" fill="white"/>
<path d="M290.97 198.748H291.046C295.89 197.648 303.613 198.243 303.689 198.25C303.781 198.257 303.873 198.228 303.944 198.169C304.016 198.109 304.061 198.024 304.069 197.931C304.073 197.885 304.068 197.838 304.053 197.794C304.039 197.75 304.016 197.709 303.986 197.673C303.956 197.638 303.919 197.609 303.877 197.588C303.836 197.567 303.791 197.554 303.744 197.551C303.426 197.551 295.828 196.942 290.894 198.07C290.813 198.093 290.744 198.143 290.697 198.212C290.65 198.282 290.63 198.365 290.639 198.448C290.648 198.531 290.686 198.608 290.747 198.666C290.807 198.723 290.886 198.757 290.97 198.762V198.748Z" fill="white"/>
<path d="M287.033 209.307C289.24 209.307 291.579 209.162 291.731 209.155C291.777 209.153 291.822 209.141 291.864 209.12C291.905 209.1 291.942 209.072 291.973 209.037C292.003 209.002 292.026 208.962 292.04 208.918C292.055 208.874 292.06 208.828 292.056 208.782C292.055 208.735 292.044 208.69 292.024 208.648C292.004 208.606 291.975 208.568 291.94 208.538C291.905 208.507 291.864 208.484 291.82 208.47C291.776 208.456 291.729 208.452 291.683 208.456C291.634 208.456 286.237 208.788 284.126 208.456C284.035 208.444 283.942 208.467 283.867 208.522C283.793 208.576 283.742 208.656 283.725 208.747C283.711 208.839 283.733 208.932 283.788 209.007C283.842 209.082 283.924 209.133 284.015 209.148C285.016 209.271 286.024 209.325 287.033 209.307Z" fill="white"/>
<path d="M293.239 196.169C293.285 196.167 293.33 196.155 293.372 196.134C293.413 196.114 293.45 196.086 293.481 196.051C293.511 196.016 293.534 195.976 293.548 195.932C293.563 195.888 293.568 195.842 293.564 195.795C293.396 193.283 292.877 190.807 292.021 188.44C291.986 188.354 291.919 188.285 291.833 188.247C291.748 188.21 291.652 188.207 291.565 188.239C291.521 188.256 291.482 188.281 291.449 188.313C291.416 188.345 291.389 188.384 291.371 188.426C291.353 188.469 291.344 188.515 291.344 188.561C291.344 188.607 291.353 188.653 291.371 188.696C292.201 190.996 292.714 193.398 292.893 195.837C292.897 195.926 292.935 196.011 292.999 196.073C293.064 196.135 293.15 196.169 293.239 196.169Z" fill="white"/>
<path d="M280.257 220.284C276.773 221.351 273.07 221.487 269.517 220.679C263.358 219.357 261.871 215.593 261.871 215.593C261.871 215.593 266.258 211.032 270.14 210.749C266.265 210.171 262.32 210.256 258.473 210.998C258.473 210.998 254.909 209.683 255.58 203.725C255.58 203.725 258.936 201.282 266.652 202.237C266.652 202.237 262.784 199.51 255.995 198.701C255.463 198.701 256.189 190.95 256.833 187.49C257.476 184.03 258.763 184.57 261.538 184.868C264.313 185.165 273.046 188.051 274.084 190.037C275.122 192.023 274.084 197.068 274.084 197.068C274.084 197.068 276.624 194.992 277.185 192.445C279.133 192.622 280.982 193.387 282.485 194.639C284.928 196.715 284.222 198.023 283.426 200.078C282.641 202.154 281.562 204.107 280.222 205.877C280.222 205.877 282.824 204.936 285.295 198.735C285.295 198.735 287.848 203.483 288.298 206.88C288.748 210.278 285.523 217.509 280.257 220.284Z" fill="#BA68C8"/>
<path d="M280.096 220.609C280.034 220.586 279.98 220.546 279.939 220.493C279.899 220.44 279.874 220.377 279.868 220.311C278.941 208.776 265.882 190.749 260.111 187.13C260.033 187.08 259.977 187.001 259.956 186.91C259.935 186.82 259.951 186.724 260 186.645C260.053 186.57 260.131 186.516 260.221 186.496C260.311 186.475 260.405 186.489 260.485 186.535C266.353 190.216 279.619 208.533 280.553 220.256C280.557 220.301 280.551 220.347 280.537 220.391C280.523 220.434 280.501 220.474 280.471 220.509C280.442 220.544 280.406 220.572 280.365 220.593C280.324 220.614 280.28 220.626 280.235 220.63C280.187 220.635 280.14 220.627 280.096 220.609Z" fill="white"/>
<path d="M72.6603 277.843C72.3795 277.843 72.1102 277.732 71.9117 277.533C71.7131 277.335 71.6016 277.065 71.6016 276.785V208.754C71.6016 208.473 71.7131 208.204 71.9117 208.005C72.1102 207.807 72.3795 207.695 72.6603 207.695C72.9411 207.695 73.2104 207.807 73.409 208.005C73.6075 208.204 73.7191 208.473 73.7191 208.754V276.798C73.7154 277.077 73.6023 277.343 73.4041 277.538C73.206 277.734 72.9387 277.843 72.6603 277.843Z" fill="#455A64"/>
<path d="M114.733 253.086C114.518 253.083 114.309 253.016 114.134 252.892C113.958 252.769 113.825 252.595 113.75 252.394L92.8934 199.594C92.8122 199.338 92.8311 199.061 92.9464 198.819C93.0616 198.577 93.2645 198.387 93.5141 198.289C93.7637 198.19 94.0413 198.19 94.2909 198.289C94.5405 198.387 94.7434 198.577 94.8586 198.819L115.716 251.618C115.769 251.748 115.796 251.887 115.795 252.028C115.794 252.168 115.765 252.307 115.71 252.436C115.654 252.565 115.574 252.682 115.472 252.779C115.371 252.876 115.251 252.952 115.12 253.002C114.998 253.054 114.866 253.082 114.733 253.086Z" fill="#455A64"/>
<path d="M112.226 246.74C112.082 246.74 111.94 246.711 111.807 246.654C111.675 246.597 111.556 246.513 111.458 246.407L72.6576 205.337L33.9056 246.234C33.8125 246.344 33.698 246.433 33.5692 246.497C33.4405 246.56 33.3001 246.597 33.1566 246.605C33.0132 246.613 32.8696 246.591 32.7348 246.542C32.5999 246.492 32.4766 246.416 32.3722 246.317C32.2678 246.218 32.1846 246.099 32.1277 245.967C32.0708 245.835 32.0413 245.693 32.041 245.55C32.0408 245.406 32.0697 245.264 32.1262 245.132C32.1826 245 32.2654 244.88 32.3694 244.781L71.8826 203.067C71.9844 202.966 72.1054 202.887 72.2386 202.833C72.3717 202.78 72.5142 202.753 72.6576 202.756C72.8014 202.757 72.9435 202.787 73.0754 202.844C73.2074 202.901 73.3265 202.984 73.4258 203.088L112.994 244.968C113.136 245.118 113.231 245.307 113.267 245.51C113.303 245.714 113.278 245.923 113.197 246.113C113.115 246.303 112.98 246.465 112.807 246.578C112.635 246.692 112.433 246.753 112.226 246.753V246.74Z" fill="#455A64"/>
<path d="M30.5586 253.086C30.4258 253.085 30.2944 253.059 30.1711 253.01C30.04 252.96 29.9203 252.884 29.8191 252.786C29.7178 252.689 29.6371 252.572 29.5816 252.443C29.5262 252.314 29.4971 252.176 29.4961 252.035C29.4951 251.895 29.5223 251.756 29.5759 251.626L50.4328 198.826C50.5356 198.565 50.7381 198.355 50.9957 198.243C51.2533 198.13 51.5449 198.125 51.8064 198.228C52.068 198.33 52.278 198.533 52.3902 198.791C52.5025 199.048 52.5078 199.34 52.405 199.601L31.5412 252.401C31.4658 252.601 31.3315 252.774 31.1561 252.896C30.9807 253.018 30.7724 253.084 30.5586 253.086Z" fill="#455A64"/>
<path d="M113.29 245.113L116.058 252.386C116.065 252.448 116.065 252.511 116.058 252.573C116.065 252.617 116.065 252.661 116.058 252.705C115.985 252.907 115.836 253.073 115.643 253.168C115.383 253.298 115.097 253.365 114.806 253.365C114.515 253.365 114.229 253.298 113.969 253.168C113.824 253.093 113.71 252.971 113.643 252.822V252.725L111.09 245.902L113.29 245.113Z" fill="#BA68C8"/>
<path d="M31.9939 245.113L29.2259 252.386C29.2191 252.448 29.2191 252.511 29.2259 252.573C29.219 252.617 29.219 252.661 29.2259 252.705C29.2995 252.907 29.4482 253.073 29.6411 253.168C29.9011 253.298 30.1877 253.365 30.4784 253.365C30.769 253.365 31.0556 253.298 31.3157 253.168C31.4598 253.093 31.5743 252.971 31.6409 252.822V252.725L34.2013 245.902L31.9939 245.113Z" fill="#BA68C8"/>
<path d="M73.8616 271.519V277.54C73.8519 277.646 73.8141 277.749 73.7521 277.836C73.6901 277.924 73.6062 277.993 73.5087 278.038C73.2397 278.171 72.9437 278.24 72.6437 278.24C72.3437 278.24 72.0477 278.171 71.7787 278.038C71.6812 277.993 71.5973 277.924 71.5353 277.836C71.4733 277.749 71.4355 277.646 71.4258 277.54V271.519C71.8002 271.318 72.2187 271.213 72.6437 271.213C73.0687 271.213 73.4872 271.318 73.8616 271.519Z" fill="#BA68C8"/>
<path d="M116.019 198.839C116.019 197.102 114.496 195.247 111.279 193.164C105.334 189.303 92.048 181.56 83.7301 176.951C83.7258 176.934 83.7171 176.919 83.7049 176.907C83.6927 176.895 83.6776 176.886 83.6609 176.882C77.253 173 71.2741 154.495 66.8522 140.427C65.3437 135.638 63.4891 132.926 61.3162 131.653C60.7972 131.348 58.8804 130.269 58.4514 130.033C54.1056 127.431 48.3966 130.559 41.2898 134.448C34.7365 138.033 29.6226 142.621 28.5916 154.793C27.9688 162.211 28.5916 176.376 30.0724 187.109C32.2522 205.039 34.9164 205.101 38.8124 208.07C45.4971 213.239 60.555 220.526 66.9007 222.997C78.4086 227.522 87.8129 220.54 94.8229 217.08C101.252 213.826 107.459 210.15 113.403 206.077C115.154 204.797 116.067 203.51 116.047 202.153C116.012 201.607 116.026 199.399 116.019 198.839Z" fill="#263238"/>
<path d="M94.8021 213.739C101.228 210.49 107.432 206.822 113.375 202.757C117.361 199.864 116.995 196.902 111.299 193.193C107.037 190.425 107.258 190.183 75.1563 172.537C75.1563 172.537 34.2245 196.688 35.9891 201.151C37.7537 205.615 58.915 216.541 66.8938 219.683C78.381 224.209 87.7853 217.199 94.8021 213.739Z" fill="#37474F"/>
<path d="M61.0474 131.48C56.7362 129.217 51.1379 132.29 44.211 136.082C39.7753 138.518 35.997 141.396 33.6995 146.787L30.7793 145.098C33.0698 139.728 36.8481 136.85 41.27 134.421C48.3769 130.532 54.0859 127.404 58.4316 130.006C58.8191 130.255 60.3277 131.099 61.0474 131.48Z" fill="#455A64"/>
<path d="M44.2079 136.117C54.8439 130.291 62.3521 126.153 66.8501 140.429C71.2789 154.497 77.2301 173.001 83.6588 176.883C83.6588 176.883 81.5828 175.125 65.6668 187.159C60.6014 190.986 54.4495 194.128 50.4428 196.536C42.5333 201.248 37.7308 203.138 36.9765 202.508C32.7899 199.048 30.5271 168.634 31.5581 156.462C32.5892 144.29 37.6616 139.702 44.2079 136.117Z" fill="#37474F"/>
<g opacity="0.5">
<path d="M44.2084 136.117C54.8444 130.291 62.3526 126.153 66.8506 140.429C71.2794 154.497 77.2306 173.001 83.6593 176.883C83.6593 176.883 72.6773 176.883 56.7613 185.471C40.2225 194.405 37.6898 203.138 36.9355 202.508C32.7489 199.048 30.486 168.634 31.5171 156.462C32.5482 144.29 37.6621 139.702 44.2084 136.117Z" fill="#455A64"/>
</g>
<path d="M247.917 102C250.733 101.37 253.217 100.782 255.127 100.291C265.286 97.6959 268.345 94.3328 268.656 89.8417C269.161 82.6726 266.476 82.6172 261.847 85.8212C259.922 87.1875 257.813 88.2754 255.584 89.0528C256.359 88.1679 257.004 87.1777 257.501 86.1118C258.193 84.3265 257.252 83.1847 256.636 82.8802C256.152 82.6449 255.66 83.8836 253.986 85.2537C251.827 87.0045 250.083 87.3297 248.297 89.7725C247.614 90.6716 246.633 91.2974 245.529 91.5371C244.519 91.7655 227.932 96.305 220.161 97.6406C215.6 91.8347 211.365 85.6413 206.542 79.4756C199.117 69.9675 195.588 68.6388 191.422 69.3931L187.803 81.3232C187.803 81.3232 212.258 110.124 212.549 110.484C213.379 111.606 214.542 112.438 215.873 112.862C217.203 113.286 218.633 113.279 219.96 112.844C230.492 109.751 241.64 104.9 247.917 102Z" fill="#FFA8A7"/>
<path d="M190.453 66.9922C199.131 67.3728 201.705 72.2376 206.162 77.6352C210.618 83.0328 220.32 96.8797 220.32 96.8797L244.007 91.9249C244.007 91.9249 243.031 98.7273 246.083 102.824C246.083 102.824 233.516 109.163 225.904 112.076C216.285 115.771 215.656 114.927 213.919 113.335C212.182 111.744 191.083 87.8629 191.083 87.8629L190.453 66.9922Z" fill="#37474F"/>
<path d="M92.534 83.0413C94.783 76.2182 97.2672 75.9345 100.333 80.6539C101.598 82.6479 103.135 84.4554 104.9 86.0239C104.509 84.9084 104.276 83.7438 104.208 82.5639C104.208 80.647 105.55 79.9412 106.236 79.8997C106.775 79.8997 106.755 81.1937 107.793 83.0967C109.121 85.5395 110.609 86.5083 111.343 89.4354C111.619 90.5357 112.339 92.7224 113.259 93.3729C117.965 96.6807 126.518 100.757 135.023 104.044C138.04 97.6702 142.019 89.7191 145.05 84.1485C150.821 73.5609 154.641 72.3845 158.841 72.8828L163.118 84.5845C163.118 84.5845 140.282 114.707 140.047 115.081C138.296 117.544 134.711 119.233 131.923 118.091C123.958 114.825 118.041 109.095 111.28 104.486C107.267 101.76 103.474 99.6424 101.052 97.8294C92.6724 91.5875 91.1223 87.3179 92.534 83.0413Z" fill="#FFA8A7"/>
<path d="M153.355 214.723C153.542 205.727 156.247 199.049 156.462 196.551C156.462 196.551 155.77 143.038 155.77 134.354L201.4 132.492C201.4 132.492 200.764 186.143 200.764 193.582C200.764 201.021 199.65 232.638 198.473 247.191L198.342 251.98L188.155 255.149C188.155 255.149 188.349 253.765 188.155 246.956C187.962 240.147 183.388 216.632 182.958 210.661C182.412 202.931 183.65 199.81 183.491 194.648C183.332 189.485 180.322 155.702 180.322 155.702C180.322 155.702 174.606 188.918 173.181 200.163C171.554 213.076 166.323 246.921 166.309 254.789C166.309 256.173 166.309 257.834 166.309 259.599C166.309 263.861 166.191 264.982 166.876 266.629C168.067 269.508 157.88 271.321 157.396 269.273L156.296 260.817V260.574V255.211C156.31 247.191 153.078 227.774 153.355 214.723Z" fill="#FFA8A7"/>
<path d="M218.29 265.334C218.568 266.161 218.518 267.062 218.152 267.853C217.799 268.593 213.951 270.766 208.755 270.413C204.904 270.142 201.197 268.847 198.015 266.663C196.036 265.348 193.973 265.106 191.399 264.954C188.825 264.801 185.448 263.528 184.887 262.324C184.327 261.12 184.971 259.051 184.971 259.051L218.29 265.334Z" fill="#37474F"/>
<path d="M197.33 249.121L197.745 249.031C197.971 248.97 198.207 248.958 198.437 248.996C198.688 249.076 198.909 249.228 199.074 249.432C199.585 250.078 200.03 250.773 200.402 251.508C201.489 253.28 203.779 254.754 206.271 256.096C207.973 257.01 209.634 257.716 211.384 258.504C213.135 259.293 215.536 259.798 216.92 260.74C218.962 262.124 219.225 265.584 216.92 266.926C214.921 268.102 209.647 269.376 204.118 267.812C201.108 266.961 197.766 263.743 193.815 263.431C191.296 263.238 186.542 262.532 184.922 260.622C184.327 259.771 185.123 257.086 185.78 254.775C186.472 252.242 187.351 248.284 188.189 248.505C188.223 249.003 188.126 249.128 188.452 249.467C188.777 249.806 189.178 249.986 189.517 250.277C190.098 250.852 190.567 251.53 190.901 252.276C191.032 252.609 191.278 252.884 191.593 253.051C192.022 253.211 192.334 252.941 192.707 252.775C193.178 252.559 193.711 252.519 194.209 252.664C194.16 252.164 194.072 251.669 193.946 251.183C193.888 251.031 193.874 250.866 193.904 250.706C193.972 250.552 194.085 250.424 194.23 250.339C195.166 249.72 196.223 249.305 197.33 249.121Z" fill="#455A64"/>
<path d="M176.783 280.052C177.087 280.342 176.997 282.321 176.658 282.82C176.319 283.318 174.202 285.172 170.43 285.449C166.825 285.705 163.6 285.221 161.483 283.871C159.365 282.522 158.334 281.041 158.14 278.986C157.947 276.931 158.14 274.945 157.186 273.367C156.279 271.907 154.84 270.26 154.528 269.464C153.836 267.741 154.528 265.277 154.528 265.277L176.783 280.052Z" fill="#37474F"/>
<path d="M166.902 262.102C166.929 262.881 167.069 263.653 167.317 264.392C167.874 265.983 168.617 267.502 169.532 268.918C169.981 269.659 170.483 270.367 171.033 271.035C172.127 272.336 173.483 273.402 174.639 274.648C175.871 275.825 176.658 277.392 176.867 279.083C177.019 281.914 173.947 282.876 171.58 283.291C169.021 283.74 166.394 283.61 163.892 282.91C162.579 282.566 161.393 281.851 160.475 280.851C159.557 279.851 158.946 278.608 158.716 277.27C158.584 276.481 158.633 275.679 158.543 274.89C158.227 273.083 157.471 271.381 156.342 269.935C155.683 269.099 155.117 268.195 154.654 267.236C153.913 265.486 154.502 263.513 154.979 261.77C155.387 260.261 155.844 258.559 156.363 258.697C156.363 259.479 156.363 259.562 156.924 260.081C157.616 260.773 157.657 261.763 158.411 262.351C158.167 261.699 157.991 261.025 157.885 260.337C157.835 260.061 157.892 259.777 158.045 259.541C158.291 259.318 158.588 259.159 158.91 259.078C160.032 258.695 161.192 258.433 162.37 258.296C163.481 258.112 164.615 258.112 165.726 258.296C166.055 258.358 166.353 258.531 166.57 258.787C166.766 259.07 166.869 259.405 166.868 259.749C166.916 260.192 166.881 261.354 166.902 262.102Z" fill="#455A64"/>
<path d="M169.912 269.508C168.853 268.719 166.494 268.712 165.2 268.851C163.888 268.965 162.627 269.407 161.532 270.138C161.371 270.254 161.175 270.309 160.977 270.294C160.779 270.279 160.593 270.194 160.452 270.055C160.369 269.975 160.305 269.879 160.263 269.772C160.221 269.665 160.203 269.55 160.211 269.435C160.218 269.32 160.25 269.209 160.305 269.108C160.36 269.007 160.436 268.919 160.529 268.851C161.739 267.957 163.179 267.427 164.681 267.321C167.864 267.093 168.791 267.64 168.791 267.64C168.791 267.64 170.23 268.574 169.912 269.508Z" fill="#F5F5F5"/>
<path d="M172.309 272.405C170.981 271.623 168.386 271.713 167.092 271.879C165.801 272.019 164.569 272.497 163.521 273.263C163.36 273.38 163.163 273.435 162.964 273.418C162.766 273.402 162.581 273.315 162.441 273.173C162.359 273.094 162.295 272.997 162.254 272.891C162.212 272.784 162.195 272.669 162.203 272.555C162.211 272.441 162.244 272.33 162.299 272.23C162.355 272.13 162.432 272.043 162.524 271.976C163.749 271.041 165.212 270.468 166.746 270.322C169.922 270.094 170.752 270.744 170.752 270.744C171.119 270.887 171.45 271.11 171.719 271.398C171.989 271.685 172.19 272.029 172.309 272.405Z" fill="#F5F5F5"/>
<path d="M163.397 264.274C164.737 264.041 166.114 264.155 167.397 264.606C167.958 264.924 168.324 265.81 167.965 266.032C166.842 265.58 165.624 265.413 164.422 265.547C163.223 265.66 162.052 265.978 160.962 266.488C160.692 266.613 160.373 266.779 160.09 266.938C160 266.987 159.902 267.018 159.8 267.028C159.698 267.038 159.596 267.027 159.498 266.997C159.401 266.967 159.31 266.917 159.232 266.851C159.155 266.785 159.091 266.704 159.045 266.613C158.965 266.454 158.949 266.271 159 266.101C159.052 265.931 159.167 265.787 159.322 265.699C160.562 264.937 161.952 264.451 163.397 264.274Z" fill="#F5F5F5"/>
<path d="M203.918 254.741C203.737 254.396 203.473 254.101 203.149 253.885C202.825 253.668 202.452 253.537 202.063 253.502C200.922 253.288 198.901 254.132 197.642 255.163C197.523 255.26 197.43 255.385 197.37 255.527C197.311 255.668 197.287 255.822 197.301 255.975C197.314 256.128 197.365 256.275 197.449 256.403C197.532 256.532 197.646 256.639 197.78 256.713C197.949 256.806 198.143 256.844 198.335 256.823C198.527 256.802 198.707 256.723 198.853 256.596C200.234 255.339 202.052 254.673 203.918 254.741Z" fill="#F5F5F5"/>
<path d="M207.463 256.731C207.216 256.379 206.887 256.092 206.505 255.894C206.123 255.697 205.699 255.594 205.269 255.596C205.269 255.596 202.28 255.686 200.425 257.409C200.312 257.503 200.222 257.623 200.165 257.758C200.108 257.894 200.085 258.042 200.097 258.189C200.109 258.336 200.157 258.477 200.236 258.602C200.314 258.726 200.422 258.83 200.55 258.903C200.712 258.995 200.899 259.033 201.084 259.011C201.269 258.99 201.443 258.911 201.581 258.786C202.344 258.024 203.269 257.443 204.287 257.087C205.306 256.731 206.391 256.61 207.463 256.731Z" fill="#F5F5F5"/>
<path d="M211.379 258.517C211.096 258.191 210.744 257.93 210.35 257.753C209.956 257.577 209.528 257.487 209.096 257.492C207.398 257.596 205.777 258.236 204.466 259.319C204.353 259.413 204.263 259.533 204.206 259.669C204.149 259.805 204.126 259.952 204.138 260.099C204.15 260.246 204.198 260.388 204.277 260.512C204.355 260.637 204.463 260.74 204.591 260.814C204.753 260.904 204.94 260.941 205.125 260.92C205.31 260.899 205.484 260.821 205.622 260.696C206.344 259.908 207.241 259.3 208.241 258.922C209.241 258.543 210.316 258.404 211.379 258.517Z" fill="#F5F5F5"/>
<path d="M201.428 132.492C201.428 132.492 202.037 170.296 202.12 176.939C202.203 183.583 202.12 196.315 202.12 202.806C202.12 202.806 200.439 205.644 190.848 205.637C181.257 205.63 179.873 202.979 179.873 202.979L178.454 172.421L175.769 204.142C173.828 205.462 171.638 206.371 169.333 206.813C167.027 207.254 164.656 207.219 162.365 206.709C154.469 205.007 153.307 202.654 153.307 202.654L154.864 132.617L201.428 132.492Z" fill="#37474F"/>
<path d="M178.438 172.418L179.821 159.588C179.821 159.588 186.402 157.983 190.804 154.668C189.386 156.389 187.699 157.868 185.807 159.048C183.136 160.55 181.849 161.166 181.849 161.166L179.925 173.58L179.586 197.8L178.438 172.418Z" fill="#263238"/>
<path d="M154.316 139.042C160.579 143.603 188.972 148.661 202.147 139.042C202.147 139.042 201.843 102.242 200.805 82.762C200.757 81.8762 200.701 81.0181 200.611 80.1877C200.611 79.9109 200.542 79.6341 200.514 79.3573C200.362 78.1897 200.131 77.0337 199.822 75.8973C199.774 75.7105 199.712 75.5237 199.656 75.3368C199.525 74.9147 199.393 74.5064 199.22 74.0981C199.137 73.8836 199.047 73.6691 198.95 73.4615C198.854 73.2539 198.77 73.0671 198.66 72.8802C198.651 72.8427 198.634 72.8074 198.611 72.7764C198.514 72.5896 198.404 72.4027 198.3 72.2228C198.196 72.0429 198.065 71.8284 197.926 71.6346C197.788 71.4409 197.67 71.2679 197.539 71.1018C197.407 70.9357 197.234 70.7281 197.068 70.5482C196.918 70.3737 196.759 70.2074 196.591 70.0499L196.245 69.7247L195.899 69.441C195.753 69.3095 195.587 69.1919 195.428 69.0742C194.901 68.7044 194.345 68.3759 193.767 68.0916C193.608 68.0155 193.442 67.9324 193.276 67.8701C193.236 67.8544 193.196 67.8359 193.158 67.8148L192.563 67.5933C192.23 67.4627 191.891 67.3495 191.546 67.2543C191.195 67.1574 190.829 67.0674 190.446 66.9844C190.017 66.9844 189.546 66.9844 189.062 66.9844H188.024L186.903 67.0259C181.976 67.2404 174.903 68.0362 169.229 68.7628L168.122 68.9151L167.146 69.0327C163.25 69.5448 160.364 69.9669 159.922 70.0361H159.852C158.579 70.3613 157.396 70.6658 156.441 70.9495C153.839 71.7177 155.749 71.0603 155.202 73.5791C153.521 80.9697 155.479 107.854 155.479 107.854L154.316 139.042Z" fill="#455A64"/>
<path d="M165.643 46.7734C165.643 46.7734 167.67 56.2884 168.48 57.8454C169.023 58.8082 169.915 59.5263 170.971 59.8522L170.826 53.1606L165.643 46.7734Z" fill="#263238"/>
<path d="M168.154 33.1467C167.445 33.0667 166.727 33.1498 166.056 33.3897C165.384 33.6296 164.776 34.0199 164.278 34.5307C162.618 36.2192 163.566 41.5199 165.642 46.7722L169.455 47.2151L168.154 33.1467Z" fill="#263238"/>
<path d="M170.598 47.2157C169.837 47.6725 168.744 46.2054 167.83 45.2159C166.917 44.2263 163.81 42.8838 162.294 46.1155C160.779 49.3471 163.678 53.769 166.073 54.5302C170.225 55.845 170.875 53.1462 170.875 53.1462L171.111 68.5086C175.484 76.432 190.286 72.3769 184.736 67.1246V63.2286C186.835 63.3777 188.941 63.3777 191.04 63.2286C194.113 62.7511 195.372 60.6267 196.306 57.2982C197.801 51.9559 198.382 47.6448 197.102 37.1402C195.718 25.6323 182.321 25.5146 175.09 30.0611C167.858 34.6075 170.598 47.2157 170.598 47.2157Z" fill="#FFA8A7"/>
<path d="M168.849 26.8565C171.385 25.7735 174.033 24.9752 176.745 24.4761C182.585 23.2097 188.509 22.0402 193.865 19.3483C194.482 18.9479 195.204 18.7385 195.941 18.7463C197.325 18.9331 197.961 20.6355 198.017 22.0471C198.065 23.363 197.892 24.6776 197.505 25.9362C197.929 25.5293 198.497 25.3062 199.085 25.3152C199.673 25.3243 200.234 25.5648 200.646 25.9846C201.038 26.426 201.323 26.9508 201.482 27.5192C201.64 28.0875 201.667 28.6845 201.56 29.2647C201.214 31.8805 199.214 34.0603 196.84 35.2228C194.467 36.3854 191.782 36.6691 189.145 36.7452C185.461 36.8557 181.776 36.5797 178.149 35.9217C177.279 35.703 176.378 35.6375 175.485 35.728C175.039 35.7778 174.617 35.9522 174.265 36.2313C173.914 36.5103 173.648 36.8827 173.499 37.3057C173.112 38.7589 172.703 48.6476 170.676 48.6891C170.295 48.6891 168.856 46.2049 167.908 45.3191C166.731 44.1981 165.541 35.728 165.333 34.1641C165.308 34.0423 165.253 33.9284 165.174 33.8319C163.846 31.9704 165.403 28.8357 167.043 27.8115C167.626 27.4584 168.229 27.1396 168.849 26.8565Z" fill="#263238"/>
<path d="M165.899 33.9638C165.662 34.2423 165.372 34.4714 165.046 34.638C164.721 34.8045 164.365 34.9053 164.001 34.9346C163.636 34.9638 163.269 34.9209 162.921 34.8084C162.573 34.6958 162.25 34.5158 161.972 34.2787C161.693 34.0415 161.464 33.7518 161.298 33.426C161.131 33.1003 161.03 32.745 161.001 32.3803C160.972 32.0157 161.015 31.6488 161.127 31.3007C161.24 30.9526 161.42 30.6301 161.657 30.3516L165.899 33.9638Z" fill="#263238"/>
<path d="M184.723 63.2411C184.723 63.2411 177.872 62.5491 175.471 61.3035C174.06 60.5695 172.905 59.4261 172.156 58.0234C172.519 59.4258 173.159 60.7411 174.038 61.8917C175.796 64.1338 184.723 65.7877 184.723 65.7877V63.2411Z" fill="#F28F8F"/>
<path d="M183.074 45.4988C183.064 45.7703 182.975 46.033 182.817 46.2541C182.66 46.4752 182.44 46.6451 182.187 46.7424C181.933 46.8398 181.657 46.8604 181.391 46.8017C181.126 46.7429 180.884 46.6074 180.695 46.4121C180.507 46.2167 180.379 45.9702 180.33 45.7031C180.28 45.436 180.31 45.1603 180.416 44.9102C180.522 44.6601 180.7 44.4468 180.926 44.2967C181.153 44.1467 181.418 44.0666 181.69 44.0664C181.876 44.0663 182.06 44.1036 182.231 44.1762C182.402 44.2488 182.557 44.3551 182.686 44.4887C182.815 44.6224 182.916 44.7808 182.983 44.9543C183.049 45.1279 183.08 45.3131 183.074 45.4988Z" fill="#263238"/>
<path d="M181.621 40.3168L178.68 41.936C178.471 41.5324 178.426 41.0632 178.555 40.627C178.684 40.1908 178.977 39.8216 179.372 39.5971C179.566 39.4916 179.779 39.4265 179.999 39.4057C180.219 39.3849 180.441 39.4089 180.651 39.4761C180.861 39.5434 181.055 39.6526 181.222 39.797C181.389 39.9415 181.525 40.1183 181.621 40.3168Z" fill="#263238"/>
<path d="M184.107 54.9922L187.242 56.1686C187.174 56.379 187.064 56.5735 186.918 56.7405C186.773 56.9074 186.596 57.0434 186.397 57.1403C186.198 57.2372 185.981 57.293 185.76 57.3044C185.54 57.3157 185.318 57.2825 185.111 57.2066C184.689 57.0393 184.349 56.715 184.162 56.3019C183.975 55.8889 183.955 55.4194 184.107 54.9922Z" fill="#F28F8F"/>
<path d="M195.328 41.4572L192.65 39.3812C192.775 39.2 192.936 39.0461 193.123 38.9291C193.309 38.8121 193.518 38.7344 193.735 38.7007C193.953 38.667 194.175 38.6781 194.389 38.7332C194.602 38.7884 194.801 38.8864 194.976 39.0214C195.337 39.3035 195.576 39.7145 195.641 40.1684C195.707 40.6223 195.595 41.084 195.328 41.4572Z" fill="#263238"/>
<path d="M194.507 45.1121C194.498 45.3836 194.409 45.6463 194.251 45.8674C194.093 46.0885 193.874 46.2584 193.62 46.3557C193.367 46.4531 193.09 46.4737 192.825 46.4149C192.56 46.3562 192.318 46.2207 192.129 46.0253C191.94 45.83 191.813 45.5834 191.763 45.3164C191.714 45.0493 191.744 44.7736 191.85 44.5235C191.956 44.2734 192.133 44.06 192.36 43.91C192.586 43.7599 192.852 43.6799 193.123 43.6797C193.309 43.6796 193.493 43.7169 193.664 43.7895C193.836 43.862 193.99 43.9683 194.12 44.102C194.249 44.2357 194.35 44.3941 194.416 44.5676C194.483 44.7412 194.514 44.9263 194.507 45.1121Z" fill="#263238"/>
<path d="M188.637 44.1289L189.093 52.3914L193.405 50.9174L188.637 44.1289Z" fill="#F28F8F"/>
<path d="M160.37 70.0312C150.232 70.1904 147.602 76.1624 144.613 82.4872C141.624 88.8121 134.039 103.109 134.039 103.109L114.954 94.4796C113.859 97.8854 111.584 100.788 108.539 102.666C108.539 102.666 117.535 110.23 125.299 115.772C131.866 120.464 135.679 122.9 138.205 121.218C140.073 119.973 158.702 95.6145 158.702 95.6145C163.449 88.2101 164.46 75.6364 160.37 70.0312Z" fill="#37474F"/>
<path d="M192.654 48.8495L191.568 48.2959L190.502 46.7735C190.674 46.7005 190.861 46.6694 191.047 46.6827C191.234 46.6959 191.414 46.7531 191.575 46.8496C192.059 47.1956 192.654 48.8495 192.654 48.8495Z" fill="#BA68C8"/>
<path opacity="0.65" d="M192.654 48.8495L191.568 48.2959L190.502 46.7735C190.674 46.7005 190.861 46.6694 191.047 46.6827C191.234 46.6959 191.414 46.7531 191.575 46.8496C192.059 47.1956 192.654 48.8495 192.654 48.8495Z" fill="black"/>
<path d="M202.757 44.0946C202.689 45.224 202.254 46.3003 201.519 47.1598C200.783 48.0192 199.786 48.6147 198.681 48.8556L196.972 49.1462C196.223 49.284 195.463 49.3443 194.702 49.3261H194.473C194.349 49.3261 194.224 49.3261 194.107 49.3261C193.895 49.3056 193.684 49.2709 193.477 49.2223C193.368 49.2015 193.262 49.1714 193.159 49.1324C193.063 49.1051 192.97 49.068 192.882 49.0216C192.841 49.0078 192.804 48.9867 192.771 48.9594C192.724 48.9367 192.68 48.9089 192.64 48.8763C192.57 48.8179 192.512 48.7476 192.467 48.6687L191.878 47.4646C191.743 47.2246 191.539 47.0305 191.292 46.9072C191.046 46.7839 190.768 46.737 190.494 46.7726L189.277 46.9872C188.975 47.0661 188.695 47.2106 188.455 47.4103C188.216 47.6101 188.024 47.8602 187.893 48.1428C187.893 48.1428 187.636 48.7794 187.311 49.5268C186.986 50.2742 184.965 51.2499 182.806 51.6028L181.097 51.9073C180.751 51.9585 180.399 51.9585 180.052 51.9073C179.857 51.8941 179.665 51.8593 179.478 51.8035L179.215 51.7274L179.049 51.6582C178.899 51.6007 178.755 51.5288 178.62 51.4436C178.156 51.2568 170.703 48.2258 169.679 45.7831C168.046 41.8525 174.751 37.8043 177.167 37.0362C177.443 36.9238 177.731 36.8403 178.025 36.7871L195.629 33.77C196.506 33.5952 197.416 33.7663 198.169 34.2474C198.619 34.5312 200.279 35.5138 200.971 35.929C201.033 35.9569 201.091 35.9917 201.144 36.0328C201.241 36.0882 201.338 36.1574 201.435 36.2196C201.468 36.2415 201.498 36.2671 201.525 36.2958C201.622 36.3719 201.712 36.4549 201.802 36.538C201.91 36.6474 202.01 36.7655 202.099 36.8909C202.168 36.9772 202.228 37.0699 202.279 37.1677C202.365 37.3041 202.439 37.4476 202.501 37.5967C202.556 37.7282 202.598 37.8597 202.639 37.9912C202.676 38.1155 202.701 38.2429 202.715 38.3718C202.722 38.4014 202.722 38.4321 202.715 38.4617C202.726 38.6069 202.726 38.7526 202.715 38.8977C202.794 40.6461 202.807 42.3784 202.757 44.0946Z" fill="#BA68C8"/>
<g opacity="0.2">
<path d="M202.757 44.0946C202.689 45.224 202.254 46.3003 201.519 47.1598C200.783 48.0192 199.786 48.6147 198.681 48.8556L196.972 49.1462C196.223 49.284 195.463 49.3443 194.702 49.3261H194.473C194.349 49.3261 194.224 49.3261 194.107 49.3261C193.895 49.3056 193.684 49.2709 193.477 49.2223C193.368 49.2015 193.262 49.1714 193.159 49.1324C193.063 49.1051 192.97 49.068 192.882 49.0216C192.841 49.0078 192.804 48.9867 192.771 48.9594C192.724 48.9367 192.68 48.9089 192.64 48.8763C192.57 48.8179 192.512 48.7476 192.467 48.6687L191.878 47.4646C191.743 47.2246 191.539 47.0305 191.292 46.9072C191.046 46.7839 190.768 46.737 190.494 46.7726L189.277 46.9872C188.975 47.0661 188.695 47.2106 188.455 47.4103C188.216 47.6101 188.024 47.8602 187.893 48.1428C187.893 48.1428 187.636 48.7794 187.311 49.5268C186.986 50.2742 184.965 51.2499 182.806 51.6028L181.097 51.9073C180.751 51.9585 180.399 51.9585 180.052 51.9073C179.857 51.8941 179.665 51.8593 179.478 51.8035L179.215 51.7274L179.049 51.6582C178.899 51.6007 178.755 51.5288 178.62 51.4436C178.156 51.2568 170.703 48.2258 169.679 45.7831C168.046 41.8525 174.751 37.8043 177.167 37.0362C177.443 36.9238 177.731 36.8403 178.025 36.7871L195.629 33.77C196.506 33.5952 197.416 33.7663 198.169 34.2474C198.619 34.5312 200.279 35.5138 200.971 35.929C201.033 35.9569 201.091 35.9917 201.144 36.0328C201.241 36.0882 201.338 36.1574 201.435 36.2196C201.468 36.2415 201.498 36.2671 201.525 36.2958C201.622 36.3719 201.712 36.4549 201.802 36.538C201.91 36.6474 202.01 36.7655 202.099 36.8909C202.168 36.9772 202.228 37.0699 202.279 37.1677C202.365 37.3041 202.439 37.4476 202.501 37.5967C202.556 37.7282 202.598 37.8597 202.639 37.9912C202.676 38.1155 202.701 38.2429 202.715 38.3718C202.722 38.4014 202.722 38.4321 202.715 38.4617C202.726 38.6069 202.726 38.7526 202.715 38.8977C202.794 40.6461 202.807 42.3784 202.757 44.0946Z" fill="black"/>
</g>
<path d="M200.971 35.929C200.271 35.5681 199.469 35.4512 198.695 35.5968L181.09 38.7039C180.034 38.9331 179.076 39.4853 178.348 40.2839C177.62 41.0824 177.159 42.0878 177.028 43.1604L171.977 40.2471C173.501 38.9038 175.254 37.8444 177.153 37.1192C177.429 37.0068 177.717 36.9233 178.011 36.8701L195.629 33.77C196.506 33.5952 197.416 33.7663 198.169 34.2474C198.605 34.5312 200.279 35.5138 200.971 35.929Z" fill="#BA68C8"/>
<path opacity="0.35" d="M200.971 35.929C200.271 35.5681 199.469 35.4512 198.695 35.5968L181.09 38.7039C180.034 38.9331 179.076 39.4853 178.348 40.2839C177.62 41.0824 177.159 42.0878 177.028 43.1604L171.977 40.2471C173.501 38.9038 175.254 37.8444 177.153 37.1192C177.429 37.0068 177.717 36.9233 178.011 36.8701L195.629 33.77C196.506 33.5952 197.416 33.7663 198.169 34.2474C198.605 34.5312 200.279 35.5138 200.971 35.929Z" fill="white"/>
<path d="M202.757 38.9119C202.799 40.6372 202.799 42.3672 202.757 44.1019C202.69 45.2299 202.255 46.3048 201.519 47.1621C200.783 48.0195 199.786 48.612 198.681 48.849L196.972 49.1535C194.806 49.5341 192.82 49.2988 192.467 48.6414L191.879 47.4373C191.743 47.1972 191.539 47.0031 191.293 46.8798C191.046 46.7565 190.768 46.7097 190.495 46.7453L189.27 46.9667C188.967 47.0429 188.686 47.1864 188.446 47.3865C188.206 47.5865 188.015 47.8381 187.886 48.1224L187.298 49.5064C186.973 50.2814 184.959 51.2225 182.8 51.5824L181.091 51.8869C180.597 51.9923 180.087 51.9859 179.596 51.8681C179.106 51.7503 178.648 51.5241 178.256 51.2062C177.865 50.8883 177.549 50.4867 177.333 50.0308C177.117 49.575 177.006 49.0766 177.008 48.5722C176.966 46.8491 176.966 45.1122 177.008 43.3891C177.076 42.2596 177.512 41.1836 178.249 40.3252C178.986 39.4668 179.984 38.8732 181.091 38.6351L198.695 35.5349C199.192 35.4304 199.707 35.4397 200.2 35.5621C200.693 35.6844 201.152 35.9167 201.542 36.2415C201.933 36.5662 202.245 36.9751 202.456 37.4375C202.666 37.9 202.769 38.404 202.757 38.9119Z" fill="#BA68C8"/>
<path opacity="0.5" d="M202.756 44.093C202.688 45.2223 202.254 46.2987 201.518 47.1581C200.782 48.0176 199.786 48.6131 198.68 48.8539L196.971 49.1446C196.222 49.2824 195.462 49.3427 194.701 49.3245H194.473C194.348 49.3245 194.224 49.3245 194.106 49.3245C193.894 49.3039 193.684 49.2693 193.476 49.2207C193.368 49.1999 193.261 49.1698 193.158 49.1307C193.062 49.1034 192.969 49.0663 192.881 49.02C192.841 49.0061 192.803 48.985 192.77 48.9577C192.724 48.9351 192.679 48.9072 192.639 48.8747C192.569 48.8162 192.511 48.746 192.466 48.6671L191.878 47.463C191.742 47.2229 191.538 47.0288 191.291 46.9055C191.045 46.7822 190.767 46.7354 190.494 46.771L189.276 46.9855C188.974 47.0644 188.694 47.2089 188.455 47.4087C188.215 47.6084 188.023 47.8586 187.892 48.1412C187.892 48.1412 187.636 48.7778 187.311 49.5252C186.985 50.2725 184.965 51.2482 182.806 51.6012L181.096 51.9056C180.75 51.9569 180.398 51.9569 180.051 51.9056C179.857 51.8925 179.664 51.8576 179.477 51.8018L179.214 51.7257L179.048 51.6565C178.898 51.599 178.755 51.5272 178.619 51.442C178.128 51.1393 177.722 50.7158 177.441 50.2118C177.16 49.7079 177.013 49.1403 177.014 48.5633C176.972 46.8333 176.972 45.1033 177.014 43.3733C177.082 42.2438 177.518 41.1678 178.255 40.3094C178.992 39.451 179.99 38.8574 181.096 38.6192L198.701 35.5122C199.476 35.3665 200.277 35.4834 200.978 35.8443C201.039 35.8722 201.097 35.907 201.151 35.9481C201.247 36.0035 201.344 36.0727 201.441 36.135C201.474 36.1568 201.504 36.1824 201.531 36.2111C201.628 36.2872 201.718 36.3702 201.808 36.4533C201.916 36.5627 202.016 36.6808 202.105 36.8062C202.174 36.8925 202.234 36.9852 202.285 37.083C202.371 37.2194 202.446 37.3629 202.507 37.512C202.562 37.6435 202.604 37.775 202.645 37.9065C202.682 38.0308 202.707 38.1582 202.721 38.2871C202.728 38.3167 202.728 38.3474 202.721 38.377C202.732 38.5222 202.732 38.6679 202.721 38.813C202.795 40.6168 202.807 42.3768 202.756 44.093Z" fill="white"/>
<g opacity="0.7">
<path d="M202.752 38.9114C202.763 38.7662 202.763 38.6205 202.752 38.4754C202.759 38.4457 202.759 38.4151 202.752 38.3854C202.738 38.2566 202.713 38.1292 202.676 38.0048C202.635 37.8734 202.593 37.7419 202.538 37.6104C202.477 37.4613 202.402 37.3177 202.316 37.1814C202.265 37.0835 202.205 36.9908 202.137 36.9046C202.047 36.7791 201.947 36.6611 201.839 36.5516C201.749 36.4686 201.659 36.3856 201.562 36.3094C201.538 36.2827 201.51 36.2595 201.479 36.2402L190.898 46.7656C191.106 46.794 191.305 46.8716 191.477 46.9919C191.649 47.1123 191.79 47.2719 191.888 47.4576L192.476 48.6616C192.521 48.7405 192.58 48.8108 192.649 48.8692C192.69 48.9018 192.734 48.9296 192.781 48.9523C192.814 48.9796 192.851 49.0007 192.891 49.0146C192.98 49.0609 193.072 49.098 193.168 49.1253C193.272 49.1643 193.378 49.1944 193.487 49.2152C193.694 49.2638 193.904 49.2985 194.116 49.319C194.234 49.319 194.358 49.319 194.483 49.319H194.711C195.174 49.3291 195.636 49.3083 196.095 49.2568L202.808 42.5513C202.801 41.3403 202.794 40.1362 202.752 38.9114Z" fill="#BA68C8"/>
<path d="M194.411 36.3566L179.027 51.7329L179.193 51.8021L179.456 51.8782C179.643 51.934 179.836 51.9688 180.031 51.982C180.377 52.0332 180.729 52.0332 181.076 51.982L182.19 51.7813L198.279 35.6992L194.411 36.3566Z" fill="#BA68C8"/>
<path d="M183.46 38.2804L176.99 44.7575C176.99 46.0515 176.99 47.3456 176.99 48.6465C176.998 49.241 177.155 49.824 177.447 50.3419L190.803 36.9863L183.46 38.2804Z" fill="#BA68C8"/>
</g>
<path d="M172.931 45.0778C172.942 45.1713 172.932 45.2662 172.901 45.3552C172.871 45.4442 172.82 45.5251 172.753 45.5917C172.687 45.6584 172.606 45.709 172.517 45.7398C172.428 45.7707 172.333 45.7809 172.239 45.7698C172.039 45.721 171.861 45.6053 171.735 45.4417C171.609 45.2781 171.543 45.0765 171.547 44.8702C171.536 44.7766 171.546 44.6818 171.577 44.5928C171.608 44.5037 171.659 44.4229 171.725 44.3562C171.792 44.2896 171.873 44.239 171.962 44.2081C172.051 44.1773 172.146 44.1671 172.239 44.1782C172.439 44.2281 172.616 44.3442 172.742 44.5075C172.868 44.6708 172.934 44.8718 172.931 45.0778Z" fill="#263238"/>
<g opacity="0.5">
<path d="M199.366 35.9076C199.866 35.9072 200.359 36.0258 200.805 36.2536C200.856 36.2791 200.905 36.3092 200.95 36.3436C201.041 36.3964 201.129 36.4542 201.213 36.5166H201.248H201.282L201.525 36.7311C201.624 36.8317 201.714 36.9405 201.794 37.0564C201.851 37.1247 201.899 37.1989 201.94 37.2778C202.01 37.3957 202.073 37.5182 202.127 37.6446C202.167 37.7438 202.202 37.8455 202.23 37.949V38.0044C202.263 38.1055 202.284 38.2099 202.293 38.3158V38.4196C202.302 38.5486 202.302 38.6781 202.293 38.8071C202.341 40.5233 202.341 42.2671 202.293 43.9764C202.251 45.0268 201.868 46.035 201.203 46.849C200.537 47.6629 199.625 48.2382 198.604 48.4882L196.895 48.7858C196.26 48.8958 195.616 48.9537 194.971 48.9588H194.674H194.459H194.127C193.927 48.9364 193.728 48.9018 193.532 48.855C193.434 48.8352 193.337 48.8098 193.241 48.7788C193.174 48.7566 193.11 48.7289 193.048 48.6958H192.999L192.93 48.6543C192.898 48.6258 192.87 48.5932 192.847 48.5574L192.259 47.3533C192.12 47.0588 191.901 46.8096 191.627 46.6345C191.352 46.4593 191.034 46.3655 190.709 46.3638C190.619 46.3569 190.529 46.3569 190.439 46.3638L189.214 46.5783C188.849 46.668 188.51 46.8391 188.221 47.0788C187.932 47.3185 187.701 47.6206 187.546 47.9623L186.958 49.3463C186.716 49.9206 184.923 50.8341 182.73 51.2216L181.028 51.5192C180.826 51.5535 180.623 51.572 180.419 51.5745C180.303 51.5814 180.188 51.5814 180.073 51.5745C179.9 51.559 179.728 51.529 179.56 51.4846L179.353 51.4154L179.263 51.3808H179.18C179.049 51.3325 178.923 51.2698 178.806 51.1939C178.367 50.9235 178.004 50.5448 177.754 50.094C177.503 49.6432 177.372 49.1355 177.374 48.6197C177.339 46.9104 177.339 45.1597 177.374 43.4504C177.446 42.4086 177.852 41.4179 178.533 40.626C179.214 39.8341 180.133 39.2835 181.152 39.0562L198.763 35.9838C198.962 35.9482 199.164 35.9297 199.366 35.9284M199.366 35.5616C199.134 35.5621 198.902 35.5806 198.674 35.617L181.069 38.7241C179.963 38.9622 178.965 39.5558 178.228 40.4142C177.491 41.2726 177.055 42.3487 176.986 43.4781C176.945 45.215 176.945 46.9381 176.986 48.6681C176.986 49.2451 177.133 49.8127 177.414 50.3167C177.695 50.8206 178.1 51.2441 178.592 51.5468C178.727 51.632 178.871 51.7039 179.021 51.7614L179.187 51.8306L179.45 51.9067C179.637 51.9625 179.829 51.9973 180.024 52.0105C180.149 52.0177 180.273 52.0177 180.398 52.0105C180.63 52.0131 180.861 51.9946 181.09 51.9551L182.799 51.6506C184.958 51.277 186.951 50.3358 187.304 49.5746C187.657 48.8134 187.885 48.1906 187.885 48.1906C188.017 47.908 188.209 47.6579 188.448 47.4582C188.687 47.2584 188.968 47.1139 189.269 47.035L190.487 46.8205C190.556 46.8137 190.626 46.8137 190.695 46.8205C190.935 46.8231 191.171 46.8883 191.378 47.0097C191.586 47.131 191.758 47.3043 191.878 47.5125L192.466 48.7166C192.511 48.7954 192.57 48.8657 192.639 48.9242C192.68 48.9567 192.724 48.9845 192.771 49.0072C192.804 49.0345 192.841 49.0556 192.881 49.0695C192.97 49.1158 193.062 49.1529 193.158 49.1802C193.262 49.2193 193.368 49.2494 193.477 49.2702C193.684 49.3187 193.894 49.3534 194.106 49.374C194.224 49.374 194.349 49.374 194.473 49.374H194.985C195.651 49.3701 196.316 49.3075 196.971 49.1871L198.68 48.8965C199.792 48.6537 200.794 48.052 201.53 47.1843C202.267 46.3165 202.698 45.2307 202.756 44.094C202.798 42.364 202.798 40.6363 202.756 38.9109C202.767 38.7658 202.767 38.6201 202.756 38.475C202.763 38.4453 202.763 38.4146 202.756 38.385C202.742 38.2561 202.717 38.1287 202.68 38.0044C202.639 37.8729 202.597 37.7414 202.542 37.61C202.48 37.4608 202.406 37.3173 202.32 37.1809C202.269 37.0831 202.209 36.9904 202.14 36.9041C202.051 36.7787 201.951 36.6607 201.843 36.5512C201.753 36.4682 201.663 36.3851 201.566 36.309C201.539 36.2803 201.509 36.2548 201.476 36.2329C201.379 36.1706 201.282 36.1014 201.185 36.046C201.132 36.005 201.074 35.9701 201.012 35.9422C200.516 35.6854 199.966 35.5524 199.407 35.5547L199.366 35.5616Z" fill="black"/>
</g>
<path d="M177.008 48.6458L176.918 44.9159C176.918 44.2931 176.87 43.6841 176.918 43.0406C176.992 42.4042 177.19 41.7884 177.499 41.2275C178.108 40.0913 179.105 39.212 180.309 38.7502C180.913 38.5655 181.531 38.429 182.156 38.3419L183.99 38.0097L191.332 36.7572C193.782 36.3512 196.236 35.966 198.695 35.6016C196.259 36.0998 193.821 36.5796 191.381 37.0409L184.073 38.3696L182.239 38.681C181.633 38.7593 181.034 38.8842 180.447 39.0546C179.312 39.4909 178.363 40.3078 177.762 41.3659C177.458 41.8902 177.259 42.4682 177.174 43.0682C177.105 43.6634 177.139 44.3 177.119 44.9159L177.008 48.6458Z" fill="white"/>
<g opacity="0.3">
<path d="M301.786 18.7405V108.327C300.25 117.703 295.426 126.914 287.254 135.37C284.306 138.403 281.127 141.202 277.746 143.743C274.443 146.184 271.005 148.436 267.449 150.49C253.899 158.338 237.852 163.86 220.801 167.098C218.088 167.62 215.348 168.081 212.58 168.482V78.5224C231.748 75.4222 249.81 69.7132 264.937 61.3885C283.711 51.0085 295.163 38.1995 299.315 24.8024C300.103 22.8225 300.744 20.7871 301.232 18.7128C301.254 18.6549 301.293 18.6054 301.345 18.5714C301.396 18.5374 301.457 18.5207 301.519 18.5238C301.581 18.5269 301.64 18.5496 301.688 18.5885C301.736 18.6275 301.77 18.6807 301.786 18.7405Z" fill="#BA68C8"/>
</g>
<path d="M212.184 168.91V78.1958L212.495 78.1474C232.106 74.978 250.167 69.0683 264.727 61.055C282.795 51.104 294.622 38.5442 298.912 24.7388V24.4274H299.037C299.774 22.5339 300.38 20.5917 300.85 18.6146C300.912 18.4843 301.013 18.3767 301.14 18.3069C301.266 18.2371 301.411 18.2086 301.554 18.2254C301.698 18.2422 301.833 18.3034 301.939 18.4005C302.046 18.4976 302.12 18.6257 302.151 18.7669V108.325C300.566 118.062 295.632 127.231 287.494 135.625C284.533 138.672 281.337 141.484 277.937 144.033C274.623 146.486 271.172 148.748 267.599 150.807C254.354 158.468 238.618 164.087 220.841 167.464C218.135 167.983 215.36 168.446 212.606 168.848L212.184 168.91ZM212.924 78.8048V168.073C215.526 167.692 218.142 167.249 220.702 166.765C238.397 163.395 254.057 157.817 267.232 150.157C270.775 148.111 274.201 145.87 277.495 143.444C280.859 140.924 284.024 138.148 286.961 135.14C294.995 126.836 299.86 117.84 301.417 108.291V19.4104C300.941 21.2801 300.347 23.1176 299.639 24.9118C295.286 38.911 283.342 51.623 265.087 61.6709C250.507 69.6911 232.515 75.6147 212.924 78.8048Z" fill="#BA68C8"/>
<path d="M233.35 146.143C233.153 146.143 232.965 146.065 232.826 145.926C232.687 145.787 232.609 145.599 232.609 145.403V92.4924C232.615 92.3339 232.671 92.1815 232.77 92.0571C232.868 91.9327 233.003 91.8428 233.156 91.8004C237.536 90.624 241.578 89.3714 245.508 87.9597C245.622 87.9155 245.745 87.9005 245.866 87.9162C245.987 87.9319 246.102 87.9778 246.2 88.0497C246.299 88.1179 246.379 88.209 246.434 88.315C246.49 88.4211 246.519 88.539 246.519 88.6587V141.569C246.516 141.721 246.468 141.868 246.381 141.991C246.293 142.115 246.17 142.209 246.027 142.261C242.048 143.687 237.972 144.953 233.571 146.136C233.498 146.147 233.424 146.15 233.35 146.143ZM234.09 93.0598V144.434C237.924 143.389 241.515 142.268 245.017 141.022V89.6828C241.508 90.9077 237.938 92.0356 234.09 93.0598Z" fill="white"/>
<path d="M257.156 137.64C257.014 137.644 256.874 137.602 256.755 137.523C256.651 137.456 256.565 137.364 256.505 137.255C256.446 137.146 256.415 137.024 256.416 136.9V83.9896C256.414 83.8446 256.455 83.7021 256.532 83.5794C256.609 83.4567 256.721 83.3588 256.852 83.2976C260.339 81.735 263.741 79.9911 267.045 78.073C267.799 77.6717 268.498 77.2426 269.17 76.8205C269.281 76.749 269.411 76.7109 269.543 76.7109C269.676 76.7109 269.805 76.749 269.917 76.8205C270.034 76.8829 270.131 76.9756 270.199 77.0889C270.268 77.2022 270.304 77.3318 270.304 77.4641V130.374C270.305 130.501 270.273 130.625 270.211 130.736C270.149 130.846 270.06 130.938 269.952 131.004C269.26 131.44 268.533 131.897 267.758 132.305C264.409 134.243 260.96 136.003 257.426 137.578C257.341 137.616 257.25 137.637 257.156 137.64ZM257.897 84.474V135.758C260.789 134.423 263.793 132.866 267.045 130.997C267.668 130.672 268.249 130.305 268.824 129.959V78.7512C268.478 78.9588 268.132 79.1595 267.758 79.3532C264.263 81.3946 261.025 83.0416 257.897 84.474Z" fill="white"/>
<path d="M280.913 123.085C280.805 123.086 280.698 123.062 280.601 123.015C280.47 122.955 280.359 122.857 280.283 122.734C280.207 122.611 280.168 122.468 280.172 122.323V69.4338C280.173 69.3252 280.197 69.2181 280.244 69.12C280.291 69.0219 280.358 68.9353 280.442 68.8663C282.619 67.067 284.698 65.152 286.67 63.1296C288.882 60.8922 290.905 58.4758 292.718 55.9052C292.808 55.7753 292.937 55.6775 293.086 55.6262C293.236 55.5748 293.397 55.5726 293.548 55.6197C293.699 55.6669 293.831 55.7609 293.924 55.8882C294.017 56.0155 294.068 56.1694 294.068 56.3273V109.238C294.067 109.39 294.021 109.54 293.936 109.667C292.082 112.3 290.018 114.778 287.763 117.078C285.746 119.136 283.621 121.085 281.397 122.918C281.26 123.029 281.088 123.087 280.913 123.085ZM281.653 69.8005V120.752C283.452 119.209 285.148 117.632 286.698 116.04C288.842 113.854 290.809 111.5 292.58 109.002V58.597C291.081 60.5404 289.463 62.3892 287.736 64.133C285.806 66.1209 283.774 68.0057 281.646 69.7798L281.653 69.8005Z" fill="white"/>
<g opacity="0.3">
<path d="M221.518 155.318L251.613 99.7227L275.68 130.994C275.68 130.994 265.536 145.512 221.518 155.318Z" fill="#BA68C8"/>
</g>
<g opacity="0.3">
<path d="M165.619 158.662C138.14 157.195 111.415 150.669 90.3431 139.092C66.6629 126.048 54.6152 109.025 54.2138 91.9391V90.2368L53.9785 32.6486C53.9785 28.5381 61.2168 40.1914 76.3786 52.1422C76.7384 52.4329 77.0706 52.7027 77.465 52.9865C78.3092 53.6369 79.1742 54.2736 80.0738 54.9102C83.3879 57.2577 86.8352 59.4111 90.3985 61.3597C111.415 72.9091 138.015 79.4278 165.391 80.9156L165.619 158.662Z" fill="#BA68C8"/>
</g>
<path d="M54.7681 32.7316C56.2996 34.0438 57.74 35.4588 59.0793 36.9667C64.31 42.6273 69.9537 47.8918 75.9641 52.7166C76.227 52.9311 76.4969 53.1387 76.7737 53.3463L77.0574 53.5747C77.8671 54.1975 78.7252 54.8341 79.694 55.5192C83.0282 57.8756 86.4938 60.0404 90.074 62.0032C110.142 73.0752 136.576 79.9952 164.665 81.6145L164.886 157.88C136.929 156.281 110.619 149.389 90.7175 138.435C68.0614 125.944 55.3632 109.44 54.955 91.9253V90.223L54.7404 32.7316M54.4221 31.832C54.1384 31.832 54 32.1019 54 32.6763L54.2145 90.2507V91.953C54.6159 109.038 66.6705 126.062 90.3438 139.106C111.388 150.697 138.14 157.222 165.62 158.689L165.391 80.9156C138.023 79.4278 111.415 72.9091 90.4269 61.3597C86.8636 59.4111 83.4163 57.2577 80.1022 54.9102C79.2026 54.2736 78.3376 53.6369 77.4934 52.9865C77.1266 52.7027 76.8014 52.4329 76.407 52.1422C63.3628 41.866 56.1729 31.832 54.4221 31.832Z" fill="#BA68C8"/>
<path d="M139.046 147.617H138.95C138.721 147.617 116.46 144.392 94.7999 133.396C69.9848 120.802 60.2414 101.28 60.1445 101.08C60.093 100.979 60.0669 100.867 60.0684 100.754V85.8071C60.0669 85.655 60.1156 85.5067 60.2068 85.385L76.4757 62.3829C76.5546 62.2763 76.6599 62.1921 76.7813 62.1387C76.9026 62.0853 77.0359 62.0645 77.1677 62.0784C77.2986 62.0915 77.4235 62.1395 77.5294 62.2174C77.6353 62.2954 77.7183 62.4003 77.7698 62.5213L97.9554 109.577L96.1908 100.9C96.1633 100.758 96.1774 100.611 96.2315 100.477C96.2855 100.344 96.3771 100.228 96.4953 100.145L112.799 88.6927C112.881 88.6313 112.976 88.5888 113.076 88.5685C113.177 88.5481 113.281 88.5504 113.38 88.5751C113.48 88.5965 113.575 88.6383 113.658 88.6978C113.742 88.7573 113.812 88.8333 113.865 88.9211L139.718 132.351C139.786 132.466 139.822 132.598 139.821 132.732V146.876C139.823 146.974 139.805 147.071 139.769 147.162C139.732 147.252 139.678 147.335 139.609 147.404C139.54 147.473 139.457 147.527 139.367 147.564C139.276 147.601 139.179 147.618 139.081 147.617H139.046ZM61.5424 100.561C62.4835 102.367 72.2476 120.276 95.4504 132.06C114.515 141.748 134.043 145.305 138.285 145.997V132.932L112.944 90.3605L97.7201 101.08L100.786 116.304C100.803 116.473 100.762 116.644 100.668 116.787C100.575 116.929 100.435 117.035 100.272 117.087C100.109 117.138 99.9334 117.131 99.7748 117.068C99.6163 117.005 99.4845 116.889 99.4017 116.74L76.9255 64.3551L61.5493 86.0562L61.5424 100.561Z" fill="white"/>
<path d="M138.762 103.799C138.298 103.797 137.834 103.75 137.378 103.661C132.915 102.789 129.289 97.9034 129.289 92.7757C129.243 91.5368 129.472 90.3031 129.959 89.163C130.446 88.0229 131.179 87.0046 132.105 86.181C132.865 85.5487 133.757 85.0959 134.715 84.8562C135.674 84.6166 136.674 84.5963 137.641 84.797C142.098 85.6689 145.724 90.5544 145.724 95.6821C145.771 96.9211 145.542 98.1551 145.055 99.2954C144.568 100.436 143.835 101.454 142.907 102.277C141.747 103.255 140.28 103.794 138.762 103.799ZM136.264 86.181C135.089 86.1708 133.947 86.5751 133.04 87.3228C132.283 88.0091 131.687 88.8533 131.294 89.7957C130.9 90.7381 130.719 91.7554 130.763 92.7757C130.763 97.2322 133.856 101.46 137.683 102.208C138.435 102.37 139.215 102.362 139.964 102.182C140.713 102.002 141.411 101.656 142.008 101.17C142.764 100.483 143.36 99.6391 143.754 98.6967C144.147 97.7544 144.328 96.737 144.285 95.7167C144.285 91.2602 141.198 87.0321 137.365 86.2848C137.002 86.2147 136.634 86.1776 136.264 86.174V86.181Z" fill="white"/>
<g opacity="0.3">
<path d="M59.3906 50.2448C59.3906 50.2448 66.1376 62.0988 80.0883 67.2542V60.5556C66.712 54.2307 59.3906 42.3906 59.3906 42.3906V50.2448Z" fill="#BA68C8"/>
</g>
<g opacity="0.3">
<path d="M59.3906 62.3854C59.3906 62.3854 66.1376 74.2394 80.0883 79.3948V72.6962C66.712 66.3714 59.3906 54.5312 59.3906 54.5312V62.3854Z" fill="#BA68C8"/>
</g>
<g opacity="0.3">
<path d="M59.3906 74.5222C59.3906 74.5222 66.1376 86.3761 80.0883 91.5315V84.833C66.712 78.5081 59.3906 66.668 59.3906 66.668V74.5222Z" fill="#BA68C8"/>
</g>
</svg>
