<svg width="108" height="102" viewBox="0 0 108 102" fill="none" xmlns="http://www.w3.org/2000/svg">
<ellipse cx="24.5558" cy="24.6566" rx="24.5558" ry="24.6566" transform="matrix(-0.885655 -0.464345 -0.459159 0.888354 71.5676 51.5156)" fill="#C8AAD3"/>
<path d="M29.0486 57.9976C33.3266 62.6467 38.2166 67.0179 43.4396 70.8617C48.6626 74.7055 54.1162 77.9466 59.4891 80.3999C64.8619 82.8533 70.0488 84.4708 74.7536 85.1602C79.4584 85.8496 83.5889 85.5974 86.9093 84.4179C90.2298 83.2384 92.6751 81.1547 94.1056 78.2859C95.5362 75.4171 95.924 71.8192 95.2469 67.6978C94.5699 63.5764 92.8412 59.0121 90.1595 54.2656C87.4779 49.519 83.8958 44.6832 79.6179 40.0341" stroke="#DBBCEE" stroke-width="2.32251"/>
<path d="M26.7338 60.4013C30.9882 65.0773 35.8698 69.4565 41.1 73.289C46.3302 77.1215 51.8065 80.3322 57.2162 82.7377C62.6259 85.1433 67.8632 86.6966 72.6288 87.3089C77.3945 87.9213 81.5953 87.5808 84.9914 86.3067C88.3875 85.0327 90.9124 82.8502 92.4219 79.8837C93.9314 76.9173 94.3959 73.225 93.789 69.0177C93.1821 64.8104 91.5156 60.1705 88.8847 55.3629C86.2538 50.5554 82.7099 45.6742 78.4555 40.9983" stroke="#799DCB" stroke-width="5.57402"/>
<path d="M29.8406 58.8357C25.5232 54.274 21.8971 49.5133 19.1692 44.8254C16.4414 40.1374 14.6654 35.6141 13.9424 31.5136C13.2195 27.4131 13.5638 23.8158 14.9558 20.927C16.3478 18.0382 18.7602 15.9145 22.0552 14.6772C25.3502 13.4399 29.4633 13.1132 34.1597 13.7158C38.8561 14.3183 44.0438 15.8384 49.4265 18.189C54.8093 20.5397 60.2818 23.6751 65.5315 27.416" stroke="#DBBCEE" stroke-width="2.32251"/>
<path d="M27.5945 61.3454C23.3254 56.6831 19.7662 51.8133 17.1202 47.0141C14.4741 42.215 12.793 37.5804 12.1729 33.3751C11.5527 29.1698 12.0056 25.4761 13.5058 22.5048C15.0059 19.5335 17.5239 17.3429 20.916 16.0581C24.3081 14.7732 28.5078 14.4192 33.2753 15.0164C38.0429 15.6135 43.285 17.1501 48.7023 19.5384C54.1195 21.9266 59.6059 25.1198 64.8481 28.9355" stroke="#799DCB" stroke-width="5.57402"/>
<path d="M76.7649 29.5652C76.9183 29.161 76.4893 28.7823 76.1116 28.9886L72.4638 30.9804C72.3451 31.0452 72.2042 31.0545 72.0779 31.0059L68.201 29.513C67.7996 29.3584 67.4243 29.7898 67.6291 30.1702L69.6073 33.8453C69.6718 33.9649 69.6811 34.1069 69.6328 34.2339L68.151 38.1374C67.9976 38.5416 68.4266 38.9203 68.8043 38.714L72.4521 36.7222C72.5708 36.6574 72.7117 36.6481 72.838 36.6967L76.7149 38.1896C77.1163 38.3442 77.4916 37.9129 77.2868 37.5324L75.3085 33.8574C75.2441 33.7377 75.2348 33.5957 75.283 33.4687L76.7649 29.5652Z" fill="#799DCB"/>
</svg>
