<svg width="267" height="267" viewBox="0 0 267 267" fill="none" xmlns="http://www.w3.org/2000/svg">
<path opacity="0.15" d="M200.25 200.25C237.115 163.385 237.115 103.615 200.25 66.75C163.385 29.885 103.615 29.885 66.75 66.75C29.885 103.615 29.885 163.385 66.75 200.25C103.615 237.115 163.385 237.115 200.25 200.25Z" fill="#2781AE"/>
<path opacity="0.3" d="M177.564 91.9203C181.47 93.305 185.038 95.5011 188.033 98.364C191.028 101.227 193.383 104.692 194.943 108.53C196.503 112.369 197.232 116.494 197.083 120.635C196.934 124.776 195.909 128.838 194.076 132.554C191.283 138.224 190.394 144.643 191.543 150.858C192.294 154.935 192.174 159.125 191.189 163.152C190.204 167.179 188.377 170.952 185.829 174.222C183.28 177.492 180.068 180.185 176.404 182.124C172.74 184.063 168.706 185.204 164.569 185.471C158.257 185.882 152.248 188.326 147.441 192.436C144.288 195.126 140.603 197.118 136.625 198.28C132.648 199.443 128.47 199.75 124.365 199.181C120.261 198.612 116.323 197.18 112.812 194.98C109.301 192.78 106.295 189.861 103.993 186.415C100.481 181.154 95.3613 177.17 89.3986 175.058C85.493 173.672 81.9251 171.475 78.9297 168.611C75.9342 165.747 73.5791 162.281 72.0194 158.442C70.4596 154.603 69.7304 150.476 69.8799 146.335C70.0295 142.194 71.0542 138.131 72.8868 134.414C75.6831 128.745 76.5718 122.325 75.4204 116.11C74.6689 112.033 74.7895 107.843 75.7744 103.816C76.7592 99.7889 78.586 96.0161 81.1343 92.746C83.6826 89.476 86.8948 86.7828 90.5592 84.8439C94.2236 82.905 98.2571 81.7643 102.394 81.4969C108.705 81.0811 114.713 78.6381 119.523 74.5319C122.674 71.8407 126.36 69.8477 130.337 68.6844C134.315 67.5211 138.494 67.2137 142.599 67.7826C146.704 68.3514 150.641 69.7836 154.153 71.9847C157.664 74.1859 160.669 77.106 162.97 80.5528C166.486 85.8127 171.604 89.799 177.564 91.9203Z" fill="#BA68C8"/>
<path opacity="0.3" d="M156.978 90.1391L164.376 90.5244C167.081 90.6613 169.726 91.3699 172.137 92.6036C174.548 93.8373 176.67 95.5681 178.363 97.6818C180.056 99.7955 181.282 102.244 181.96 104.866C182.637 107.488 182.752 110.224 182.295 112.893L181.033 120.205C180.312 124.275 180.927 128.469 182.786 132.16L186.148 138.769C187.375 141.179 188.077 143.822 188.209 146.524C188.341 149.225 187.899 151.924 186.912 154.442C185.925 156.96 184.417 159.241 182.485 161.134C180.554 163.027 178.243 164.489 175.705 165.425L168.75 167.987C164.875 169.418 161.564 172.06 159.309 175.521L155.321 181.725C153.846 183.992 151.908 185.922 149.634 187.387C147.36 188.852 144.801 189.818 142.127 190.223C139.452 190.628 136.722 190.462 134.116 189.736C131.511 189.011 129.088 187.741 127.008 186.012L121.257 181.291C118.093 178.646 114.161 177.092 110.043 176.86L102.645 176.465C99.9435 176.322 97.3032 175.608 94.8977 174.371C92.4922 173.134 90.376 171.401 88.6886 169.287C87.0013 167.173 85.7809 164.725 85.1079 162.105C84.4349 159.485 84.3246 156.752 84.7843 154.086L86.0366 146.784C86.7378 142.715 86.1059 138.529 84.2351 134.848L80.8731 128.24C79.6463 125.829 78.9439 123.186 78.8123 120.485C78.6806 117.784 79.1226 115.085 80.1091 112.567C81.0957 110.049 82.6044 107.768 84.536 105.875C86.4675 103.982 88.7782 102.519 91.3158 101.584L98.2712 99.0116C102.147 97.5876 105.459 94.9484 107.712 91.4878L111.748 85.2645C113.223 82.9964 115.161 81.0664 117.436 79.6017C119.71 78.137 122.269 77.1707 124.944 76.7666C127.619 76.3625 130.349 76.5297 132.955 77.2572C135.561 77.9847 137.983 79.2559 140.061 80.9873L145.764 85.727C148.929 88.3671 152.862 89.9146 156.978 90.1391Z" fill="#BA68C8"/>
<path opacity="0.3" d="M177.661 105.437C180.747 107.249 183.414 109.694 185.486 112.611C187.559 115.528 188.99 118.851 189.687 122.361C190.383 125.871 190.328 129.488 189.525 132.975C188.723 136.463 187.191 139.74 185.031 142.593C181.729 146.944 179.924 152.246 179.887 157.708C179.86 161.287 179.076 164.819 177.586 168.072C176.096 171.326 173.934 174.227 171.242 176.585C168.55 178.943 165.389 180.704 161.968 181.753C158.546 182.801 154.941 183.113 151.391 182.668C145.967 181.992 140.471 183.083 135.717 185.78C132.605 187.546 129.155 188.634 125.593 188.97C122.031 189.307 118.438 188.885 115.051 187.733C111.663 186.581 108.558 184.724 105.94 182.286C103.322 179.847 101.25 176.881 99.861 173.584C97.7337 168.552 94.0414 164.34 89.3316 161.571C86.2514 159.759 83.5896 157.315 81.5208 154.401C79.4521 151.487 78.0232 148.168 77.3281 144.663C76.633 141.157 76.6874 137.544 77.4877 134.061C78.288 130.578 79.816 127.304 81.9716 124.453C85.2657 120.095 87.0695 114.792 87.1159 109.329C87.1408 105.75 87.9239 102.217 89.4135 98.9633C90.903 95.7094 93.0653 92.8081 95.7578 90.4506C98.4502 88.0931 101.612 86.333 105.034 85.2862C108.456 84.2395 112.061 83.9299 115.612 84.3778C121.024 85.0298 126.503 83.9219 131.237 81.218C134.35 79.4519 137.802 78.365 141.365 78.029C144.928 77.6929 148.522 78.1153 151.91 79.2684C155.299 80.4215 158.404 82.279 161.023 84.7188C163.641 87.1586 165.714 90.1253 167.103 93.4237C169.234 98.4626 172.938 102.677 177.661 105.437Z" fill="#BA68C8"/>
<path d="M143.242 177.214C167.367 171.826 182.555 147.901 177.167 123.777C171.779 99.6524 147.855 84.4635 123.73 89.8515C99.606 95.2396 84.4172 119.164 89.8052 143.289C95.1932 167.413 119.118 182.602 143.242 177.214Z" fill="#BA68C8"/>
<path opacity="0.9" d="M143.242 177.213C169.127 171.432 185.424 145.762 179.643 119.877C173.862 93.9926 148.192 77.6954 122.307 83.4766C96.4221 89.2578 80.125 114.928 85.9062 140.813C91.6874 166.697 117.358 182.995 143.242 177.213Z" fill="white"/>
<path opacity="0.05" d="M171.948 110.59C178.023 120.787 179.799 132.98 176.885 144.486C173.971 155.992 166.606 165.87 156.409 171.946C155.735 172.351 155.06 172.726 154.386 173.083C160.646 164.995 163.948 155.007 163.743 144.782C163.537 134.557 159.836 124.71 153.257 116.88C146.677 109.051 137.614 103.71 127.577 101.747C117.54 99.7841 107.133 101.317 98.0879 106.091C102.559 100.332 108.367 95.7504 115.01 92.7446C121.652 89.7388 128.928 88.3994 136.206 88.8427C143.483 89.2859 150.542 91.4985 156.771 95.2883C163 99.0781 168.209 104.331 171.948 110.59Z" fill="#BA68C8"/>
<path opacity="0.05" d="M124.811 92.9031C133.457 91.1742 142.429 92.2379 150.43 95.9405C158.432 99.6431 165.05 105.793 169.329 113.502C173.608 121.211 175.325 130.081 174.234 138.83C173.143 147.579 169.3 155.755 163.259 162.178C167.308 154.814 169.169 146.447 168.624 138.061C168.078 129.676 165.148 121.62 160.178 114.844C155.208 108.068 148.406 102.852 140.572 99.8115C132.738 96.7709 124.198 96.0318 115.958 97.6813C113.606 98.1528 111.296 98.8132 109.051 99.6562C113.777 96.3324 119.145 94.0322 124.811 92.9031Z" fill="#BA68C8"/>
<g opacity="0.05">
<path d="M170.416 132.42C169.724 130.329 169.436 128.126 169.568 125.927C169.636 125.487 169.636 125.038 169.568 124.598C169.395 123.99 168.995 123.473 168.451 123.153C168.182 122.96 167.875 122.828 167.551 122.765C167.227 122.702 166.893 122.709 166.572 122.787C165.851 123.131 165.277 123.722 164.954 124.453C164.291 125.487 163.738 126.588 163.306 127.738C162.526 130.06 163.123 133.297 165.426 134.597C167.728 135.898 171.408 135.744 170.416 132.42Z" fill="black"/>
<path d="M159.078 128.22C159.518 127.379 159.638 126.407 159.415 125.484C159.369 125.264 159.276 125.057 159.141 124.877C159.006 124.697 158.833 124.549 158.635 124.444C158.175 124.317 157.684 124.365 157.257 124.579C156.919 124.677 156.595 124.82 156.294 125.002C156.039 125.198 155.812 125.428 155.619 125.686L154.04 127.613C152.999 128.875 153.982 130.831 155.6 131.1C157.093 131.322 158.538 129.328 159.078 128.22Z" fill="black"/>
<path d="M133.876 103.943C134.506 103.004 134.835 101.896 134.82 100.765C134.804 99.6345 134.445 98.5354 133.79 97.614C133.513 97.196 133.126 96.8626 132.672 96.6507C132.281 96.5381 131.871 96.5134 131.469 96.5784C131.068 96.6433 130.686 96.7963 130.35 97.0264C129.683 97.4803 128.991 97.8983 128.279 98.2787C127.263 98.5796 126.221 98.7892 125.168 98.9049C124.639 98.9711 124.138 99.1751 123.713 99.4964C123.289 99.8177 122.957 100.245 122.75 100.735C122.133 102.893 125.64 105.937 127.441 106.515C129.522 107.113 132.72 105.61 133.876 103.943Z" fill="black"/>
<path d="M118.588 111.246C118.606 110.543 118.518 109.842 118.328 109.165C118.166 108.227 118.239 107.264 118.539 106.362C118.703 105.851 118.925 105.244 118.588 104.83C118.456 104.699 118.293 104.602 118.115 104.549C117.937 104.495 117.749 104.486 117.566 104.522C116.649 104.697 115.83 105.204 115.264 105.947C114.425 106.886 113.944 108.09 113.906 109.348C113.906 110.494 114.667 112.392 115.832 112.932C116.124 113.031 116.434 113.065 116.741 113.031C117.047 112.997 117.343 112.896 117.605 112.735C117.868 112.574 118.093 112.357 118.263 112.1C118.432 111.842 118.543 111.551 118.588 111.246Z" fill="black"/>
<path d="M156.795 164.847C156.798 164.818 156.798 164.789 156.795 164.76C156.9 164.58 156.955 164.376 156.954 164.168C156.953 163.96 156.897 163.756 156.791 163.577C156.685 163.398 156.532 163.251 156.35 163.15C156.168 163.05 155.962 163 155.754 163.007C154.791 162.92 154.039 163.874 153.038 163.864C151.487 163.864 150.803 166.166 152.257 166.86C153.712 167.554 156.149 166.137 156.795 164.847Z" fill="black"/>
<path d="M149.405 165.772C150.167 164.712 150.369 163.344 150.918 162.178C151.467 161.013 152.026 158.614 150.167 158.325C148.673 158.113 146.188 159.394 145.148 160.377C143.693 161.735 142.508 164.789 144.097 166.523C145.465 168.036 148.327 167.265 149.405 165.772Z" fill="black"/>
<path d="M139.907 137.506C140.511 137.174 141.006 136.676 141.333 136.071C141.661 135.242 141.781 134.345 141.68 133.46C141.632 131.919 141.497 130.213 140.389 129.144C140.161 128.896 139.872 128.712 139.551 128.611C139.23 128.51 138.888 128.494 138.559 128.566C137.595 128.845 137.21 130.05 136.478 130.791C135.746 131.533 134.214 131.841 133.357 132.718C131.96 134.134 132.557 136.966 134.224 137.949C135.659 138.826 138.52 138.334 139.907 137.506Z" fill="black"/>
<path d="M132.104 138.104C131.921 137.14 130.582 135.387 129.522 135.965C128.106 136.726 129.069 140.3 130.562 140.444C131.603 140.55 132.258 138.903 132.104 138.104Z" fill="black"/>
<path d="M132.306 131.929C133.048 131.582 133.896 131.1 133.963 130.291C133.965 130.031 133.904 129.773 133.787 129.541C133.67 129.308 133.499 129.106 133.289 128.952C132.63 128.481 131.818 128.273 131.013 128.371C130.209 128.47 129.47 128.866 128.944 129.482C128.573 129.877 128.36 130.395 128.347 130.937C128.453 133.836 130.745 132.651 132.306 131.929Z" fill="black"/>
<path d="M101.373 147.034C101.373 145.666 100.814 144.356 100.66 142.997C100.552 142.01 100.643 141.01 100.93 140.059C101.226 139.461 101.291 138.775 101.113 138.132C100.982 137.906 100.799 137.714 100.58 137.571C100.361 137.429 100.111 137.341 99.8509 137.313C99.0722 137.252 98.2912 137.398 97.5873 137.736C96.8833 138.075 96.2816 138.594 95.8433 139.24C94.1478 141.475 93.6276 145.637 95.3135 148.064C97.1053 150.694 101.431 150.935 101.373 147.034Z" fill="black"/>
<path d="M106.344 144.279C106.465 143.987 106.528 143.674 106.528 143.359C106.528 143.043 106.465 142.73 106.344 142.439C106.126 142.024 105.774 141.695 105.345 141.506C104.917 141.317 104.437 141.279 103.983 141.398C99.9567 142.496 104.109 150.02 106.344 144.279Z" fill="black"/>
</g>
<path opacity="0.5" d="M125.093 165.245C131.215 162.251 133.751 154.86 130.757 148.737C127.763 142.615 120.373 140.079 114.25 143.073C108.127 146.067 105.591 153.457 108.585 159.58C111.58 165.703 118.97 168.239 125.093 165.245Z" fill="white"/>
<path opacity="0.5" d="M111.267 131.852C108.828 131.949 106.415 131.321 104.333 130.046C102.251 128.772 100.593 126.908 99.5706 124.692C98.5477 122.475 98.2053 120.005 98.5865 117.594C98.9677 115.183 100.055 112.939 101.712 111.146C103.369 109.353 105.52 108.092 107.894 107.522C110.267 106.952 112.757 107.099 115.047 107.943C117.337 108.788 119.325 110.294 120.76 112.269C122.195 114.244 123.011 116.6 123.107 119.039C123.232 122.307 122.056 125.492 119.836 127.894C117.617 130.296 114.535 131.719 111.267 131.852Z" fill="white"/>
<path opacity="0.5" d="M99.3497 146.475C98.1483 146.522 96.9601 146.211 95.9352 145.583C94.9103 144.954 94.0949 144.036 93.592 142.944C93.0891 141.852 92.9213 140.635 93.1099 139.448C93.2985 138.26 93.8349 137.155 94.6514 136.273C95.4679 135.39 96.5278 134.77 97.697 134.49C98.8662 134.209 100.092 134.282 101.22 134.699C102.348 135.116 103.327 135.857 104.033 136.83C104.739 137.803 105.141 138.964 105.188 140.165C105.25 141.776 104.67 143.346 103.575 144.529C102.481 145.713 100.961 146.412 99.3497 146.475Z" fill="white"/>
<path style="mix-blend-mode:screen" d="M144.953 156.433C196.062 136.267 232.404 107.031 226.126 91.1316C219.847 75.232 173.326 78.6899 122.217 98.855C71.1078 119.02 34.7655 148.256 41.044 164.156C47.3224 180.056 93.8441 176.598 144.953 156.433Z" fill="url(#paint0_radial_844_12537)"/>
<defs>
<radialGradient id="paint0_radial_844_12537" cx="0" cy="0" r="1" gradientUnits="userSpaceOnUse" gradientTransform="translate(132.761 126.901) rotate(68.4518) scale(31.0211 99.3578)">
<stop offset="0.94" stop-opacity="0"/>
<stop offset="0.95" stop-color="#000405" stop-opacity="0"/>
<stop offset="0.96" stop-color="#001216" stop-opacity="0"/>
<stop offset="0.97" stop-color="#002831" stop-opacity="0"/>
<stop offset="0.98" stop-color="#004758"/>
<stop offset="0.99" stop-color="#006F88"/>
<stop offset="1" stop-color="#426A95"/>
</radialGradient>
</defs>
</svg>
