<svg width="2200" height="793" viewBox="0 0 2200 793" fill="none" xmlns="http://www.w3.org/2000/svg">
<g filter="url(#filter0_f_781_12055)">
<path fill-rule="evenodd" clip-rule="evenodd" d="M424 167.824L493.878 150.294L499.623 150.266L697.501 75.0188L754.102 106.075L759.48 107.349L830.161 139.974L835.539 141.262L857.574 148.95L892.506 154.452L797.327 136.586L800.368 136.306L847.31 116.339L857.518 113.216L908.051 138.896L911.345 138.672L920.413 147.045L933.113 152.744L1014.92 81.1517H1018.8L1069.52 29.8623L1074.39 28L1105.72 56.2281L1108.08 56.6481L1226.54 150.308L1230.52 150.784L1323.55 124.586L1330 124.208L1443.94 181.392L1516.5 139.792L1520.8 139.974L1627.22 86.0944L1832 173L1700.48 255.771L424 255.561V167.824Z" fill="url(#paint0_linear_781_12055)"/>
<g style="mix-blend-mode:soft-light">
<path fill-rule="evenodd" clip-rule="evenodd" d="M1074.39 28L1110.18 69.6L1080.08 38.6275L1072.03 40.2798L1107.23 86.0944L1084.66 60.0646L1065.3 78.7574L1069.34 105.515L1065.3 106.621L1056.44 94.5236L1051.75 95.9939L1067.25 133.155L991.32 176.071L937.845 148.894L1014.92 81.1517L1041.66 121.828L1018.8 81.1517L1069.52 29.8623L1074.39 28Z" fill="white"/>
</g>
<g style="mix-blend-mode:soft-light">
<path fill-rule="evenodd" clip-rule="evenodd" d="M1180.06 137.944L1110.18 69.5996L1146.73 106.985L1145.11 108.455L1164.47 131.951L1180.06 137.944Z" fill="white"/>
</g>
<g style="mix-blend-mode:soft-light">
<path fill-rule="evenodd" clip-rule="evenodd" d="M697.501 75.0195L730.195 103.766L697.501 80.2283L693.108 81.1524L713.792 97.8288L697.938 89.3996L675.903 100.027L703.049 133.632L686.66 117.25L683.435 117.432L696.065 129.361L659.246 150.224L616.782 113.217L612.107 115.415L636.521 137.945L558.97 127.695L697.501 75.0195Z" fill="white"/>
</g>
<g style="mix-blend-mode:soft-light">
<path fill-rule="evenodd" clip-rule="evenodd" d="M1329.99 124.21L1346.3 135.216L1333.94 129.713L1329.99 128.985L1352.03 153.544L1329.99 157.563L1298.1 135.818L1295.19 136.07L1300.08 139.794L1291.84 134.599L1286.02 135.146L1305.27 153.292L1273.75 154.272L1259.06 142.539L1323.55 124.588L1329.99 124.21Z" fill="white"/>
</g>
<g style="mix-blend-mode:soft-light" opacity="0.5">
<path fill-rule="evenodd" clip-rule="evenodd" d="M1014.91 81.1514L1053.59 140.884L1014.91 162.741L995.161 106.257L1007.75 166.788L1001.45 170.344L980.912 110.836L1014.91 81.1514Z" fill="white"/>
</g>
<g style="mix-blend-mode:soft-light">
<path fill-rule="evenodd" clip-rule="evenodd" d="M1069.52 29.8633L1072.03 40.2808L1107.22 86.0954L1084.65 60.0657L1065.3 78.7584L1053.59 55.669L1069.34 105.516L1065.3 106.622L1056.44 94.5246L1040.85 58.8475L1069.52 29.8633Z" fill="white"/>
</g>
<g style="mix-blend-mode:soft-light" opacity="0.5">
<path fill-rule="evenodd" clip-rule="evenodd" d="M667.37 86.4727L703.048 133.631L686.659 117.249L667.37 99.3825L683.435 117.431L696.064 129.361L677.972 139.61L646.884 101.301L673.565 142.117L666.455 146.135L634.69 98.9065L667.37 86.4727Z" fill="white"/>
</g>
<g style="mix-blend-mode:soft-light">
<path fill-rule="evenodd" clip-rule="evenodd" d="M1472.36 165.095L1516.5 139.793L1578.58 184.656L1520.81 139.976L1627.22 86.0957L1654.45 98.3195L1647.64 112.98L1621.05 102.814L1618.39 102.772L1662.69 128.62L1612.17 151.093L1572.85 124.209H1568.87L1624.8 171.074L1579.93 137.945L1556.19 133.633L1655.16 208.319L1563.27 219.003L1493.74 173.398L1533.7 204.091L1472.36 165.095Z" fill="white"/>
</g>
<g style="mix-blend-mode:soft-light">
<path fill-rule="evenodd" clip-rule="evenodd" d="M1516.5 139.792L1578.58 184.654L1610.16 211.706L1594.95 212.981L1516.5 150.224L1511.67 152.548L1570.79 198.741L1541.19 204.523L1480.96 160.165L1516.5 139.792Z" fill="white"/>
</g>
<g style="mix-blend-mode:soft-light">
<path fill-rule="evenodd" clip-rule="evenodd" d="M1627.22 86.0957L1654.45 98.3195L1650.82 106.133L1624 90.4923L1622.74 91.7105L1648.41 111.313L1647.64 112.98L1607.04 96.3032L1627.22 86.0957Z" fill="white"/>
</g>
<g style="mix-blend-mode:soft-light">
<path fill-rule="evenodd" clip-rule="evenodd" d="M1603.57 98.1924L1649 134.71L1626.28 144.805L1586.38 112.979H1583.15L1618.54 148.25L1612.17 151.092L1564.79 117.697L1603.57 98.1924Z" fill="white"/>
</g>
</g>
<path fill-rule="evenodd" clip-rule="evenodd" d="M1980.01 103.036L1675.08 217.678H1663.96L1409.13 171.45H1400.24L1292.97 125.939L1164.88 175.987L1159.31 176.427L1092.54 208.311L1088.02 207.154L944.73 92.4206L940.34 92.8062L833.346 0.901855H822.492L733.582 94.5327L724.409 100.391L658.038 171.524L511.776 155.38L507.779 151.89L218.663 88.2698L210.866 90.4554L132.133 174.297L59.7777 195.969L0.00195312 137.785V320.749L2200 350.557V224.51L2010.93 135.177L2002.02 131.026L1980.01 103.036Z" fill="url(#paint1_linear_781_12055)"/>
<path opacity="0.53" fill-rule="evenodd" clip-rule="evenodd" d="M944.731 92.4189L955.345 103.218L1000.36 179.034L947.002 143.863L932.347 138.849L930.054 143.642L936.999 160.135L925.883 143.642L940.341 92.8046L944.731 92.4189Z" fill="white"/>
<g style="mix-blend-mode:soft-light">
<path fill-rule="evenodd" clip-rule="evenodd" d="M877.132 227.064L821.659 162.029L837.078 71.0981L853.764 89.9785L833.54 42.6121L842.145 68.1779L821.659 18.8279L833.343 4.99819L837.493 5.82467L862.587 21.8216L833.322 0.920898H822.467L733.535 94.5701L739.366 104.341L724.362 100.447L658.013 171.579L669.501 170.386L714.928 130.347L710.319 141.404L641.982 220.029L877.089 227.119L877.132 227.064ZM823.734 188.587L827.752 189.891L837.755 195.97H830.745L823.734 188.587ZM763.303 215.291H749.129L744.106 185.336L749.129 187.081L763.303 215.309V215.291ZM817.772 63.2741L812.486 15.0996L817.204 17.3954L832.448 67.0575L817.772 63.2741ZM842.494 194.427L832.208 190.093L804.995 162.525L818.885 165.776L842.516 194.427H842.494Z" fill="white"/>
</g>
<g style="mix-blend-mode:soft-light">
<path fill-rule="evenodd" clip-rule="evenodd" d="M858.771 97.1396L867.529 102.356L905.465 168.382L862.528 105.937L858.771 97.1396Z" fill="white"/>
</g>
<g style="mix-blend-mode:soft-light">
<path fill-rule="evenodd" clip-rule="evenodd" d="M1072.62 232.94L1000.35 179.036L1048.42 220.819L1036.48 217.568L1046.33 232.151L1072.62 232.94Z" fill="white"/>
</g>
<g style="mix-blend-mode:soft-light">
<path fill-rule="evenodd" clip-rule="evenodd" d="M1164.85 175.985L1200.56 236.777L1305.02 239.9L1264.92 200.725L1317.16 179.016L1328 190.513L1309.11 173.488L1321.62 173.708L1362.74 194.425L1285.63 140.612L1292.97 125.938L1164.85 175.985ZM1294.98 154.497L1304.76 157.105L1318.24 169.576H1311.03L1294.98 154.479V154.497ZM1263.79 210.165L1265.75 207.245L1271.59 213.103L1267.7 214.389L1263.81 210.165H1263.79ZM1239.96 174.424L1248.65 178.299L1269.14 196.372H1263.79L1239.96 174.424Z" fill="white"/>
</g>
<g style="mix-blend-mode:soft-light">
<path fill-rule="evenodd" clip-rule="evenodd" d="M1159.31 176.428L1193.75 236.577L1111.52 232.941L1092.54 208.312L1121.57 194.445L1143.14 227.064L1129.39 190.717L1159.31 176.428Z" fill="white"/>
</g>
<g style="mix-blend-mode:soft-light">
<path fill-rule="evenodd" clip-rule="evenodd" d="M1400.25 171.451L1550.24 247.304L1571.34 247.928L1409.13 171.451H1400.25Z" fill="white"/>
</g>
<g style="mix-blend-mode:soft-light">
<path fill-rule="evenodd" clip-rule="evenodd" d="M1675.08 217.678L1717.14 252.317L1785.37 254.374L1737.06 207.264L1748.51 205.997L1816.1 255.292L1963.83 259.737L1882.95 144.323L1912.15 135.838L2018.69 245.025L2036.33 246.017L1946.33 144.342L1953.01 141.385L1993.83 164.839L1980.03 103.055L1675.1 217.696L1675.08 217.678ZM1763.23 192.571L1768.25 190L1790.39 207.264L1806.64 236.705L1763.2 192.571H1763.23Z" fill="white"/>
</g>
<g style="mix-blend-mode:soft-light">
<path fill-rule="evenodd" clip-rule="evenodd" d="M511.777 155.38L561.987 194.445L529.053 162.855L536.871 163.828L601.583 205.979L658.039 171.524L511.777 155.38Z" fill="white"/>
</g>
<g style="mix-blend-mode:soft-light">
<path fill-rule="evenodd" clip-rule="evenodd" d="M330.004 112.769L405.658 176.426L330.004 130.308L262.257 115.634L373.422 212.46L300.018 209.705L247.821 141.365L290.037 209.393L269.529 208.787L191.408 121.125L184.441 124.743L238.888 207.244L132.135 174.295L210.868 90.4536L218.664 88.2681L330.004 112.769Z" fill="white"/>
</g>
<g style="mix-blend-mode:soft-light">
<path fill-rule="evenodd" clip-rule="evenodd" d="M465.256 214.667L405.655 176.428L451.934 214.263L465.256 214.667Z" fill="white"/>
</g>
<g style="mix-blend-mode:soft-light">
<path fill-rule="evenodd" clip-rule="evenodd" d="M394.825 141.367L405.658 144.324L443.179 180.689L394.825 141.367Z" fill="white"/>
</g>
<path fill-rule="evenodd" clip-rule="evenodd" d="M1879.35 257.405L1866.29 247.928L1830.99 251.106L1827.54 254.907L1823.61 254.595L1816.67 251.216L1799.59 253.603L1788.03 254.448L1769.43 252.667L1766.52 250.132L1760.25 248.938L1746.49 252.667L1742.48 251.546L1726.88 252.612L1879.35 257.405Z" fill="#4F8DF4"/>
<path fill-rule="evenodd" clip-rule="evenodd" d="M1481.56 245.228L1468.19 239.92H1446.94L1379.83 242.583L1481.56 245.228Z" fill="#4F8DF4"/>
<g style="mix-blend-mode:soft-light">
<path fill-rule="evenodd" clip-rule="evenodd" d="M812.508 15.0991L747.884 82.8152L796.652 31.5185L797.701 34.9346L765.399 78.5727L804.995 162.543L818.885 165.794L821.659 162.029L829.084 126.508L812.508 81.1806L829.893 105.479L836.554 73.5954L816.046 62.1349L812.508 15.0991Z" fill="white"/>
</g>
<g style="mix-blend-mode:soft-light">
<path fill-rule="evenodd" clip-rule="evenodd" d="M724.392 100.41L739.396 104.304L771.762 183.811L737.19 127.794L733.302 128.235L785.849 219.129H765.254L724.392 100.41Z" fill="white"/>
</g>
<g style="mix-blend-mode:soft-light">
<path fill-rule="evenodd" clip-rule="evenodd" d="M947.003 143.863L998.458 177.767L968.625 137.71L943.946 100.408L955.346 103.218L944.732 92.4189L940.342 92.8046L928.811 136.81L932.349 138.849L947.003 143.863Z" fill="white"/>
</g>
<g style="mix-blend-mode:soft-light">
<path fill-rule="evenodd" clip-rule="evenodd" d="M710.37 141.367L751.079 218.45L719.695 217.826L694.951 168.384L690.495 167.521L716.048 217.752L679.117 217.036L676.867 179.899L710.37 141.367Z" fill="white"/>
</g>
<g style="mix-blend-mode:soft-light">
<path fill-rule="evenodd" clip-rule="evenodd" d="M1317.17 179.034L1295 154.515L1304.78 157.123L1321.62 173.726L1334.53 174.332L1339.86 175.416L1285.63 140.63L1292.97 125.938L1231.53 149.85L1248.66 178.318L1226.51 151.907L1210.65 158.097L1271.59 228.66L1295 229.119L1264.93 200.743L1302.38 185.187L1269.14 154.515L1304.85 184.158L1317.17 179.034Z" fill="white"/>
</g>
<g style="mix-blend-mode:soft-light">
<path fill-rule="evenodd" clip-rule="evenodd" d="M1214.08 173.398L1164.85 175.988L1193.75 227.064L1234.61 227.928L1207.66 174.904L1208.49 180.965L1242.67 227.928H1257.13L1214.08 173.398Z" fill="white"/>
</g>
<g style="mix-blend-mode:soft-light">
<path fill-rule="evenodd" clip-rule="evenodd" d="M1768.64 182.506L1768.27 189.999L1790.42 207.264L1808.06 238.835L1827.54 239.57L1797.91 178.814L1833.55 239.57H1849.6L1806.67 174.682L1905.49 241.094H1931.46L1806.67 168.199L1768.64 182.506Z" fill="white"/>
</g>
<g style="mix-blend-mode:soft-light">
<path fill-rule="evenodd" clip-rule="evenodd" d="M1731.84 196.391L1737.06 207.263L1768.95 238.247L1718.52 237.439L1705.37 209.394L1716.31 237.384L1698.6 237.035L1675.08 217.677L1731.84 196.391Z" fill="white"/>
</g>
<g style="mix-blend-mode:soft-light">
<path fill-rule="evenodd" clip-rule="evenodd" d="M373.421 212.46L234.475 91.7393L218.663 88.2681L210.867 90.4536L187.148 115.689L269.528 208.787L277.282 209.393L218.074 122.154L243.932 144.946L282.283 209.173L290.036 209.393L251.161 141.365L300.017 209.705L355.075 212.46L255.879 114.568L365.646 210.881L373.421 212.46Z" fill="white"/>
</g>
<path fill-rule="evenodd" clip-rule="evenodd" d="M2200 349.045L0.00195312 232.053V793.098H2200V349.045Z" fill="url(#paint2_linear_781_12055)"/>
<path fill-rule="evenodd" clip-rule="evenodd" d="M2143.48 246.525L0 200.791L2143.48 265.785V246.525Z" fill="#7AA9F7"/>
<path opacity="0.2" fill-rule="evenodd" clip-rule="evenodd" d="M953.119 222.418L905.464 168.384L961.876 222.583L953.119 222.418Z" fill="#223995"/>
<path opacity="0.2" fill-rule="evenodd" clip-rule="evenodd" d="M1362.72 194.446L1407.08 231.325L1400.24 231.178L1362.72 194.446Z" fill="#223995"/>
<g style="mix-blend-mode:soft-light">
<path fill-rule="evenodd" clip-rule="evenodd" d="M1400.25 181.386L1389.83 199.661L1407.67 225.061L1396.49 203.224L1409 217.898L1403.78 184.674L1400.25 181.386Z" fill="white"/>
</g>
<g style="mix-blend-mode:soft-light">
<path fill-rule="evenodd" clip-rule="evenodd" d="M895.308 174.131L879.19 200.303L895.308 194.444V174.131Z" fill="white"/>
</g>
<g style="mix-blend-mode:soft-light">
<path fill-rule="evenodd" clip-rule="evenodd" d="M429.354 158.649L469.583 200.12L557.881 212.003L474.868 198.853L557.881 207.65L550.871 196.116L429.354 158.649Z" fill="white"/>
</g>
<g style="mix-blend-mode:soft-light">
<path fill-rule="evenodd" clip-rule="evenodd" d="M2032.86 218.45H2111.2L2193.34 248.993L2147.58 248.35L2076.82 222.564L2069.29 222.123L2105.54 246.642L2056.86 244.475L2032.86 218.45Z" fill="white"/>
</g>
<g style="mix-blend-mode:soft-light">
<path fill-rule="evenodd" clip-rule="evenodd" d="M1980.01 103.038L1993.81 164.803L1980.01 156.887L1948.03 115.067L1941.61 117.473L1952.99 141.368L1946.31 144.325L2036.31 246L1923.38 124.746L1980.01 103.038Z" fill="white"/>
</g>
<g style="mix-blend-mode:soft-light">
<path fill-rule="evenodd" clip-rule="evenodd" d="M182.016 121.164L237.861 205.704L233.58 205.612L179.941 135.012L178.282 136.794L219.996 201.424L192.871 193.049L159.303 145.352L182.016 121.164Z" fill="white"/>
</g>
<g style="mix-blend-mode:soft-light">
<path fill-rule="evenodd" clip-rule="evenodd" d="M154.587 150.367L180.817 189.321L177.934 188.44L148.865 156.464L154.587 150.367Z" fill="white"/>
</g>
<g style="mix-blend-mode:soft-light">
<path fill-rule="evenodd" clip-rule="evenodd" d="M122.765 177.088L165.637 205.978L127.002 204.491L99.768 185.335L92.2114 186.253L112.195 203.352L92.2114 203.444L75.2637 191.543L122.765 177.088Z" fill="white"/>
</g>
<defs>
<filter id="filter0_f_781_12055" x="422" y="26" width="1412" height="231.771" filterUnits="userSpaceOnUse" color-interpolation-filters="sRGB">
<feFlood flood-opacity="0" result="BackgroundImageFix"/>
<feBlend mode="normal" in="SourceGraphic" in2="BackgroundImageFix" result="shape"/>
<feGaussianBlur stdDeviation="1" result="effect1_foregroundBlur_781_12055"/>
</filter>
<linearGradient id="paint0_linear_781_12055" x1="1062.24" y1="255.771" x2="1062.24" y2="28" gradientUnits="userSpaceOnUse">
<stop stop-color="#86F9FF"/>
<stop offset="1" stop-color="#4C51DD"/>
</linearGradient>
<linearGradient id="paint1_linear_781_12055" x1="1100.01" y1="350.539" x2="1100.01" y2="0.901855" gradientUnits="userSpaceOnUse">
<stop stop-color="#86C4FF"/>
<stop offset="1" stop-color="#4C40DD"/>
</linearGradient>
<linearGradient id="paint2_linear_781_12055" x1="1100" y1="232.053" x2="1100" y2="801.683" gradientUnits="userSpaceOnUse">
<stop stop-color="#7399F4"/>
<stop offset="0.481174" stop-color="#D6E2FF"/>
<stop offset="0.945882" stop-color="#F9FAFF"/>
</linearGradient>
</defs>
</svg>
