<svg width="300" height="300" viewBox="0 0 300 300" fill="none" xmlns="http://www.w3.org/2000/svg">
<path d="M48.6935 149.494C-5.5645 180.82 -5.5645 231.61 48.6935 262.936C102.952 294.262 190.924 294.262 245.182 262.936C299.44 231.61 299.44 180.82 245.182 149.494C190.924 118.169 102.952 118.169 48.6935 149.494Z" fill="#455A64"/>
<path d="M134.119 199.156C134.269 197.2 132.721 194.956 129.277 192.328C122.923 187.444 99.8165 171.376 90.8405 165.43C90.8396 165.41 90.832 165.391 90.819 165.376C90.8059 165.361 90.7882 165.35 90.7685 165.346C83.8985 160.384 82.3685 126.4 78.6185 110.146C78.5825 109.996 78.3245 108.748 77.8025 107.146L77.7245 106.93C77.6525 106.708 77.5745 106.486 77.4905 106.258C77.4545 106.15 77.4185 106.03 77.3765 105.928C76.7335 104.055 75.7284 102.326 74.4185 100.84C73.9664 100.343 73.4474 99.911 72.8765 99.5563C72.1025 99.0343 70.2065 98.0863 69.7985 97.8043C65.1245 94.4743 53.2685 102.922 44.8986 106.672C39.6905 109.012 35.1725 111.922 32.1005 117.772C30.4191 121.141 29.2868 124.756 28.7465 128.482C27.3725 136.786 27.6485 164.662 28.3805 176.902C29.2265 197.332 32.2385 197.608 36.3545 201.346C43.4285 207.772 64.2065 220.918 71.1545 224.308C83.7545 230.452 94.9685 223.42 103.189 220.144C111.409 216.868 126.985 209.242 130.507 207.088C132.595 205.804 133.741 204.43 133.843 202.888C133.861 202.282 134.071 199.798 134.119 199.156Z" fill="#263238"/>
<path d="M103.465 216.372C111.685 213.102 127.261 205.464 130.783 203.31C135.541 200.406 135.397 197.028 129.283 192.33C120.787 185.802 85.9149 162.168 85.9149 162.168C85.9149 162.168 45.3849 181.698 35.7789 190.23C34.3269 191.52 34.2669 194.25 34.7709 194.886C40.0389 201.486 63.4749 216.648 71.4309 220.536C84.0009 226.68 95.2449 219.648 103.465 216.372Z" fill="#455A64"/>
<path d="M72.8711 99.5513L72.7391 99.4733C71.6942 98.8177 70.4974 98.4436 69.2651 98.3873C65.0171 98.0453 58.3091 101.015 48.2651 107.507C45.1839 109.417 42.2997 111.628 39.6551 114.107L39.4991 114.257C38.6994 115.018 37.963 115.843 37.2971 116.723C37.1831 116.867 37.0751 117.011 36.9671 117.161C36.8591 117.311 36.8411 117.329 36.7871 117.413C36.6491 117.611 36.5111 117.809 36.3791 118.013C36.1151 118.421 35.8571 118.847 35.6051 119.285L35.5271 119.423L35.2391 119.963L32.1191 117.803C35.1911 111.953 39.9191 108.941 44.7731 105.959C53.1731 100.823 62.4791 94.1513 68.4191 97.0313C68.8451 97.1993 72.0911 99.0293 72.8711 99.5513Z" fill="#455A64"/>
<path d="M78.5997 110.14C78.0537 107.998 76.1997 98.7398 69.2457 98.3858C64.9977 98.0438 58.2897 101.02 48.2457 107.506C43.5717 110.506 38.1837 114.394 35.5077 119.398C31.5717 125.614 30.9537 142.858 31.1877 159.448C31.4217 176.038 32.4957 191.962 34.7397 194.896C38.6817 183.832 85.2957 162.058 90.7497 165.346C83.8977 160.384 82.3557 126.4 78.5997 110.14Z" fill="#37474F"/>
<path d="M49.7043 164.219C45.6063 173.591 44.8083 183.185 45.8343 188.555C46.8603 193.925 47.8323 201.341 61.2063 209.789C76.4763 219.431 87.6003 224.999 87.6003 224.999L138.318 192.503L103.716 171.461L49.7043 164.219Z" fill="#BA68C8"/>
<path opacity="0.15" d="M49.7043 164.219C45.6063 173.591 44.8083 183.185 45.8343 188.555C46.8603 193.925 47.8323 201.341 61.2063 209.789C76.4763 219.431 87.6003 224.999 87.6003 224.999L138.318 192.503L103.716 171.461L49.7043 164.219Z" fill="black"/>
<path opacity="0.35" d="M62.539 199.364C62.119 198.908 61.717 198.452 61.339 197.996C65.221 196.97 67.507 192.146 67.027 186.698C66.745 183.578 66.427 180.032 66.853 176.684L66.175 176.594C65.743 180.02 66.061 183.602 66.343 186.758C66.829 192.254 64.543 196.694 60.835 197.414C53.401 188.504 54.547 179.852 58.165 168.368L57.511 168.164C53.545 180.764 52.939 189.992 62.035 199.826C68.035 206.294 84.325 215.12 93.865 221L94.507 220.592C84.985 214.736 68.533 205.838 62.539 199.364Z" fill="black"/>
<path opacity="0.35" d="M104.154 180.914C102.078 187.592 97.7578 190.796 97.7578 190.796C105.834 196.676 112.458 202.136 117.078 206.144L122.73 202.544L102.888 189.224C105.204 184.46 104.154 180.914 104.154 180.914Z" fill="black"/>
<path d="M126.932 280.453L37.8496 229.021L186.218 143.383L275.3 194.821L126.932 280.453Z" fill="#BA68C8"/>
<path opacity="0.8" d="M126.932 280.453L37.8496 229.021L186.218 143.383L275.3 194.821L126.932 280.453Z" fill="white"/>
<path d="M37.8496 229.02V235.446L126.932 286.878V280.452L37.8496 229.02Z" fill="#BA68C8"/>
<path opacity="0.5" d="M37.8496 229.02V235.446L126.932 286.878V280.452L37.8496 229.02Z" fill="white"/>
<path d="M126.932 286.878L275.3 201.246V194.82L126.932 280.452V286.878Z" fill="#BA68C8"/>
<path opacity="0.65" d="M126.932 280.452L275.3 194.82V201.246L126.932 286.878V280.452Z" fill="white"/>
<path opacity="0.2" d="M216.288 190.534L177.6 168.178C177.262 167.982 176.878 167.879 176.487 167.879C176.097 167.879 175.713 167.982 175.374 168.178L108.186 206.962C108.112 207.006 108.05 207.069 108.007 207.144C107.964 207.219 107.941 207.304 107.941 207.391C107.941 207.478 107.964 207.563 108.007 207.638C108.05 207.713 108.112 207.776 108.186 207.82L147.264 230.398L216.288 190.534Z" fill="#BA68C8"/>
<path d="M213.395 185.828V186.698C213.392 187.326 213.224 187.943 212.908 188.486C212.592 189.029 212.14 189.48 211.595 189.794L149.027 225.914C148.481 226.232 147.859 226.396 147.227 226.388C146.596 226.391 145.974 226.225 145.427 225.908L111.323 206.288C110.778 205.973 110.325 205.522 110.01 204.977C109.694 204.433 109.526 203.815 109.523 203.186V201.986C109.524 202.065 109.545 202.143 109.585 202.212C109.625 202.28 109.682 202.337 109.751 202.376L147.203 224.006L213.395 185.828Z" fill="#37474F"/>
<path d="M213.402 185.821L176.303 164.401C175.979 164.215 175.612 164.117 175.238 164.117C174.865 164.117 174.498 164.215 174.174 164.401L109.799 201.601C109.729 201.643 109.67 201.702 109.629 201.774C109.588 201.845 109.567 201.926 109.567 202.009C109.567 202.091 109.588 202.172 109.629 202.244C109.67 202.315 109.729 202.375 109.799 202.417L147.245 224.017L213.402 185.821Z" fill="#455A64"/>
<path d="M147.263 224.01V226.41C147.895 226.415 148.516 226.251 149.063 225.936L211.631 189.816C212.176 189.502 212.629 189.05 212.945 188.505C213.261 187.961 213.429 187.344 213.431 186.714V185.82L147.263 224.01Z" fill="#263238"/>
<path d="M146.922 220.861L126.912 209.323L185.418 175.543L205.53 187.021L146.922 220.861Z" fill="#37474F"/>
<path d="M205.53 187.021L204.768 187.465L185.418 176.425L127.68 209.761L126.918 209.323L185.418 175.543L205.53 187.021Z" fill="#263238"/>
<path d="M137.087 188.762L137.453 188.972L147.263 194.636L164.705 184.568L165.065 184.358L154.889 178.484L137.087 188.762Z" fill="#263238"/>
<path d="M137.453 188.97L147.263 194.634L164.705 184.566L154.889 178.902L137.453 188.97Z" fill="#37474F"/>
<path d="M159.93 169.014C158.094 166.313 155.918 163.858 153.456 161.712C150.534 159.312 149.334 158.586 144.06 156.066L136.26 166.602L138.612 167.31C139.596 167.658 140.13 167.754 140.514 168.672C140.726 169.708 140.872 170.756 140.952 171.81C141.145 173.566 141.528 175.296 142.092 176.97C142.92 179.454 143.454 179.28 144.948 181.26C146.328 183.06 146.886 184.302 147.654 184.206C148.422 184.11 149.376 182.604 148.986 180.918C148.596 179.232 147.186 176.808 146.982 176.118C146.814 175.518 146.514 174.384 148.332 174.954C150.24 175.554 153.528 179.694 155.178 181.398C156.828 183.102 157.848 185.706 159.378 186.852C160.908 187.998 163.236 187.938 162.588 185.448C162.834 184.008 163.722 181.518 163.938 179.208C164.154 176.898 161.634 171.486 159.93 169.014Z" fill="#FFA8A7"/>
<path d="M148.272 224.537C148.862 224.765 149.497 224.858 150.128 224.809C150.759 224.76 151.371 224.571 151.92 224.255L214.2 188.291C214.74 187.978 215.204 187.551 215.56 187.038C215.915 186.526 216.154 185.942 216.258 185.327L223.08 144.665C223.115 144.434 223.134 144.202 223.134 143.969C223.135 143.41 223.024 142.858 222.809 142.342C222.594 141.827 222.278 141.36 221.88 140.969L157.164 178.331C156.764 178.563 156.421 178.88 156.157 179.259C155.894 179.639 155.717 180.071 155.64 180.527L148.272 224.537Z" fill="#37474F"/>
<path d="M147.264 224.009L147.69 224.255C147.876 224.357 148.074 224.453 148.29 224.537L155.658 180.527C155.735 180.071 155.912 179.639 156.175 179.259C156.439 178.88 156.782 178.563 157.182 178.331L221.91 140.957C221.653 140.698 221.363 140.476 221.046 140.297L156.186 177.743C155.786 177.975 155.443 178.292 155.179 178.671C154.916 179.051 154.739 179.483 154.662 179.939L147.264 224.009Z" fill="#455A64"/>
<path d="M156.246 179.163L155.238 178.562C154.935 178.962 154.729 179.426 154.638 179.919L147.258 223.989L147.684 224.235C147.87 224.337 148.068 224.433 148.284 224.517L155.652 180.507C155.74 180.018 155.943 179.557 156.246 179.163Z" fill="#263238"/>
<path d="M184.638 186.249C184.986 184.173 187.134 181.407 189.438 180.081C191.742 178.755 193.32 179.361 192.972 181.443C192.624 183.525 190.476 186.285 188.172 187.611C185.868 188.937 184.29 188.331 184.638 186.249Z" fill="#BA68C8"/>
<path d="M102.001 102.129C106.123 103.101 112.201 105.015 114.859 113.331C118.027 123.273 121.339 145.773 121.339 145.773L144.049 156.069L136.249 166.605C136.249 166.605 119.521 162.453 111.451 160.101C102.745 157.563 103.051 154.947 100.249 140.583C98.4491 131.277 96.5231 119.847 96.5231 119.847C97.4171 112.029 102.001 102.129 102.001 102.129Z" fill="#FFA8A7"/>
<path d="M102.599 101.965C109.199 103.495 111.599 106.051 113.765 109.231C115.931 112.411 118.109 123.301 119.765 131.743C121.421 140.185 122.201 145.381 122.201 145.381L134.399 151.681C134.399 151.681 131.399 151.123 128.603 156.637C126.803 160.135 127.721 164.437 127.721 164.437C127.721 164.437 111.797 161.173 108.755 160.111C105.713 159.049 103.619 158.005 102.029 152.911C100.439 147.817 95.4293 118.651 95.4293 118.651L102.599 101.965Z" fill="#EBEBEB"/>
<path d="M108.439 110.265C105.439 105.117 102.997 102.753 102.013 102.129C99.0133 101.229 88.9633 100.449 83.9053 101.601C74.9773 102.855 68.5153 104.313 62.0653 106.677C59.9053 107.469 58.6813 109.797 58.1173 111.183C56.9533 114.135 56.7133 121.437 56.6473 125.379C56.5033 134.865 56.8513 142.047 55.4473 148.611C54.5953 152.619 48.2473 161.859 45.8473 177.213C67.7833 197.469 102.163 179.409 103.723 171.489C103.723 171.489 102.769 166.041 101.527 159.615C101.527 157.503 104.575 149.529 104.485 149.655C119.575 141.759 117.001 124.119 108.439 110.265Z" fill="#263238"/>
<path d="M97.7593 148.071C94.3813 151.743 81.1993 153.855 73.7593 145.023C74.9233 152.475 90.4933 158.115 97.7593 148.071Z" fill="black"/>
<path d="M115.254 72.339C113.514 75.237 114.48 77.595 112.89 80.571C112.29 81.657 83.0218 88.833 77.9818 90.897C76.9497 87.5483 75.6598 84.2846 74.1238 81.135C71.3818 75.627 70.1578 70.065 70.9378 65.907C71.8318 61.107 74.9278 59.481 76.4578 59.481C76.4578 55.563 80.7658 50.181 89.6578 48.231C107.364 44.337 123.6 58.449 115.254 72.339Z" fill="#263238"/>
<path d="M111.378 61.5928C111.952 61.8017 112.475 62.1316 112.911 62.5602C113.347 62.9887 113.685 63.5059 113.904 64.0768C114.912 66.5248 116.304 72.3148 114.096 83.3188C112.176 92.8708 108.87 97.1908 105.438 98.5648C103.374 99.3928 98.5858 99.0448 95.6758 98.2708C95.517 98.6737 95.3848 99.0866 95.2798 99.5068C94.8538 101.019 95.9938 101.223 95.9938 101.223C95.9938 101.223 103.866 111.963 93.1918 113.583C88.5499 114.227 83.8356 113.096 79.9918 110.415C76.9777 108.442 74.1066 106.258 71.3998 103.881C74.9338 102.957 75.2998 102.081 76.1998 98.9728C77.7658 93.4348 79.1698 84.5728 79.1698 84.5728C79.1698 84.5728 76.3918 87.0388 73.6978 83.6908C70.5658 79.7908 70.2478 74.0908 73.6978 72.0808C77.8978 69.6388 80.6218 72.5668 81.5758 75.5308C82.4518 78.2368 85.4098 78.6748 86.5018 75.5848C88.0558 71.1688 87.7918 65.3848 92.7538 62.2168C95.8798 60.2068 100.662 60.2248 105.138 65.3488C107.4 61.7308 109.518 60.9688 111.378 61.5928Z" fill="#FFA8A7"/>
<path d="M96.3291 86.3438L101.921 88.5038C101.793 88.8769 101.591 89.2206 101.328 89.5144C101.065 89.8082 100.745 90.046 100.388 90.2139C100.031 90.3818 99.644 90.4763 99.2497 90.4917C98.8555 90.5071 98.4622 90.4432 98.0931 90.3038C97.3461 89.9974 96.7459 89.4149 96.4174 88.6773C96.0889 87.9398 96.0573 87.104 96.3291 86.3438Z" fill="#B16668"/>
<path d="M96.2103 88C96.4443 88.0076 96.6772 88.0357 96.9063 88.084C97.5412 88.2236 98.1351 88.5087 98.6411 88.9169C99.1471 89.325 99.5515 89.845 99.8223 90.436C99.249 90.5797 98.6453 90.5419 98.0943 90.328C97.6071 90.1339 97.178 89.8179 96.8481 89.4102C96.5182 89.0026 96.2985 88.517 96.2103 88Z" fill="#F28F8F"/>
<path d="M97.9019 69.0553L93.5999 70.4653C93.4935 70.1886 93.4447 69.8931 93.4564 69.5968C93.4682 69.3006 93.5403 69.0099 93.6684 68.7425C93.7965 68.4751 93.9778 68.2367 94.2013 68.0418C94.4247 67.847 94.6856 67.6998 94.9679 67.6093C95.5492 67.4347 96.175 67.4868 96.7194 67.7551C97.2638 68.0234 97.6863 68.488 97.9019 69.0553Z" fill="#263238"/>
<path d="M108.816 71.5412L112.83 73.6652C112.982 73.4105 113.08 73.1274 113.119 72.8333C113.158 72.5392 113.136 72.2403 113.055 71.9549C112.974 71.6695 112.836 71.4036 112.649 71.1736C112.461 70.9436 112.229 70.7542 111.966 70.6172C111.422 70.3423 110.793 70.2848 110.208 70.4564C109.623 70.628 109.125 71.0159 108.816 71.5412Z" fill="#263238"/>
<path d="M107.843 76.4076C107.842 76.864 108.014 77.3037 108.325 77.6379C108.636 77.972 109.062 78.1757 109.517 78.2076C109.741 78.2247 109.967 78.1965 110.18 78.1246C110.393 78.0526 110.589 77.9385 110.757 77.789C110.925 77.6394 111.062 77.4576 111.158 77.2543C111.254 77.051 111.308 76.8304 111.317 76.6056C111.318 76.1503 111.147 75.7113 110.837 75.3773C110.528 75.0433 110.103 74.839 109.649 74.8056C109.425 74.7885 109.199 74.8167 108.985 74.8886C108.772 74.9605 108.575 75.0745 108.407 75.224C108.238 75.3734 108.102 75.5552 108.005 75.7586C107.908 75.9619 107.853 76.1826 107.843 76.4076Z" fill="#263238"/>
<path d="M94.8005 75.6697C94.723 76.1234 94.8222 76.5895 95.0778 76.9723C95.3333 77.355 95.7258 77.6254 96.1745 77.7277C96.3937 77.7777 96.6208 77.7832 96.8422 77.7438C97.0636 77.7044 97.2749 77.621 97.4634 77.4984C97.652 77.3759 97.8141 77.2168 97.94 77.0304C98.0659 76.8441 98.1531 76.6344 98.1965 76.4137C98.2738 75.9592 98.1737 75.4924 97.917 75.1095C97.6602 74.7266 97.2663 74.4568 96.8165 74.3557C96.5975 74.3049 96.3706 74.2988 96.1493 74.3379C95.9279 74.377 95.7168 74.4604 95.5285 74.5831C95.3402 74.7058 95.1786 74.8654 95.0535 75.0521C94.9284 75.2388 94.8424 75.4489 94.8005 75.6697Z" fill="#263238"/>
<path d="M102.745 74.2969L102.031 84.5449L108.139 83.4049L102.745 74.2969Z" fill="#F28F8F"/>
<path d="M81.4553 86.3438C81.4553 86.3438 80.4593 91.7138 83.4833 94.8998C87.0833 98.6738 92.8673 100.084 95.2493 100.528C95.1579 100.192 95.1683 99.8372 95.2793 99.5078C95.3842 99.0876 95.5165 98.6747 95.6753 98.2718C93.1253 97.5698 87.9893 96.0938 85.0853 93.5678C84.0147 92.6791 83.1395 91.5786 82.5148 90.3354C81.8901 89.0922 81.5294 87.7331 81.4553 86.3438Z" fill="#F28F8F"/>
<path d="M77.8132 82.0563C77.8132 82.3008 77.7407 82.5397 77.6049 82.743C77.4691 82.9463 77.276 83.1047 77.0502 83.1982C76.8243 83.2918 76.5758 83.3163 76.3361 83.2686C76.0963 83.2209 75.8761 83.1032 75.7032 82.9303C75.5303 82.7574 75.4126 82.5372 75.3649 82.2974C75.3172 82.0577 75.3417 81.8092 75.4353 81.5833C75.5288 81.3575 75.6872 81.1644 75.8905 81.0286C76.0938 80.8928 76.3327 80.8203 76.5772 80.8203C76.905 80.8203 77.2194 80.9505 77.4512 81.1823C77.683 81.4141 77.8132 81.7285 77.8132 82.0563Z" fill="#BA68C8"/>
<path d="M76.1403 99.004C76.1403 99.004 76.4163 103.552 77.6523 106.864C79.9743 113.05 83.3103 120.706 88.4883 127.63C93.6663 134.554 101.274 143.404 101.274 143.404C101.274 143.404 106.812 128.074 100.734 111.604C99.5369 108.452 98.1566 105.373 96.6003 102.382C96.3014 101.853 95.9184 101.377 95.4663 100.972C95.2323 100.744 95.0523 100.312 95.2743 99.508L95.5143 98.692C96.2921 99.2906 97.1283 99.8093 98.0103 100.24C99.2773 100.834 100.582 101.343 101.916 101.764C102.414 101.932 102.564 101.968 102.564 101.968C105.267 104.472 107.624 107.325 109.572 110.452C113.634 117.448 116.202 125.68 115.986 131.314C115.614 141.154 111.924 145.144 107.586 149.602C104.838 152.416 104.064 167.602 106.83 171.148C109.596 174.694 115.35 178.486 115.35 178.486C115.35 178.486 107.232 179.866 92.4003 187.156C77.5683 194.446 69.1503 200.956 66.7803 204.922C65.3796 207.206 64.5864 209.811 64.4763 212.488C64.4763 212.488 53.3163 206.8 49.0923 201.232C44.8683 195.664 43.2843 187.06 44.2203 179.152C45.1563 171.244 62.2203 105.982 62.2203 105.982C62.2203 105.982 69.4923 102.064 72.6423 99.73C74.2203 98.566 76.0563 97.42 76.5363 97.522L76.1403 99.004Z" fill="#FAFAFA"/>
<path d="M91.981 137.287L82.777 130.687C81.247 129.589 79.741 128.467 78.247 127.345C76.7631 126.269 75.3446 125.105 73.999 123.859C73.849 123.709 73.711 123.559 73.597 123.421C73.483 123.283 73.483 123.283 73.459 123.241V123.181C73.459 123.109 73.459 123.055 73.459 122.971C73.4655 122.802 73.4876 122.633 73.525 122.467C73.7256 121.655 74.028 120.87 74.425 120.133C75.2844 118.536 76.2695 117.009 77.371 115.567L77.413 115.519C77.5492 115.331 77.6238 115.105 77.6268 114.873C77.6297 114.641 77.5608 114.413 77.4295 114.221C77.2982 114.029 77.1108 113.883 76.8931 113.802C76.6753 113.721 76.4378 113.709 76.213 113.767C75.439 113.995 74.611 114.205 73.813 114.367C73.0582 114.533 72.2878 114.618 71.515 114.619L71.239 114.589V114.415V113.779C71.239 112.921 71.239 112.075 71.239 111.223C71.239 109.519 71.359 107.809 71.533 106.111C71.7026 104.4 71.9791 102.7 72.361 101.023C71.6225 102.604 71.0436 104.254 70.633 105.949C70.2102 107.65 69.8975 109.375 69.697 111.115C69.583 111.985 69.517 112.855 69.457 113.731L69.421 114.385V114.709C69.4161 114.773 69.4161 114.838 69.421 114.901C69.4224 115.039 69.4405 115.176 69.475 115.309C69.5541 115.587 69.7101 115.837 69.925 116.029C70.0895 116.174 70.2758 116.291 70.477 116.377C70.7617 116.491 71.0604 116.566 71.365 116.599C72.2274 116.677 73.0961 116.647 73.951 116.509C73.405 117.319 72.895 118.159 72.415 119.047C71.9063 119.97 71.5191 120.954 71.263 121.975C71.1997 122.27 71.1595 122.569 71.143 122.869C71.134 123.035 71.134 123.202 71.143 123.367L71.179 123.637V123.769C71.1934 123.849 71.2155 123.928 71.245 124.003C71.2834 124.127 71.3357 124.246 71.401 124.357C71.461 124.465 71.509 124.531 71.557 124.603C71.6462 124.736 71.7444 124.862 71.851 124.981C72.0262 125.191 72.2125 125.391 72.409 125.581C73.8473 126.891 75.3663 128.11 76.957 129.229C78.499 130.345 80.083 131.401 81.661 132.451C83.239 133.501 84.835 134.515 86.461 135.511C88.087 136.507 89.683 137.497 91.315 138.457C94.573 140.383 97.873 142.243 101.239 143.977C98.119 141.691 95.053 139.483 91.981 137.287ZM71.185 114.829C71.185 114.829 71.185 114.859 71.185 114.865C71.185 114.871 71.185 114.853 71.185 114.829Z" fill="#E0E0E0"/>
<path d="M100.506 146.934C100.368 149.724 100.068 152.502 99.7563 155.274C99.4443 158.046 99.0663 160.812 98.8563 163.578C98.7303 164.964 98.6463 166.35 98.6403 167.73C98.6147 169.105 98.7415 170.48 99.0183 171.828C99.3204 173.179 99.7545 174.497 100.314 175.764C100.834 177.053 101.591 178.234 102.546 179.244C102.003 178.799 101.528 178.278 101.136 177.696C100.731 177.123 100.368 176.521 100.05 175.896C99.4276 174.632 98.9312 173.309 98.5683 171.948C98.2353 170.573 98.0761 169.162 98.0943 167.748C98.0943 166.338 98.1483 164.94 98.2623 163.548C98.5203 160.758 98.8623 157.992 99.3003 155.232C99.7383 152.472 100.122 149.7 100.506 146.934Z" fill="#E0E0E0"/>
<path d="M110.748 115.84C110.573 115.362 110.337 114.908 110.046 114.49C109.547 113.764 108.987 113.081 108.372 112.45C107.772 111.85 107.172 111.25 106.536 110.722C105.9 110.194 105.204 109.594 104.52 109.06C104.66 109.012 104.796 108.956 104.928 108.892C105.03 108.849 105.127 108.795 105.216 108.73C105.327 108.659 105.427 108.574 105.516 108.478C105.746 108.249 105.89 107.949 105.924 107.626C105.944 107.457 105.932 107.286 105.888 107.122C105.872 107.052 105.848 106.983 105.816 106.918L105.738 106.756C105.646 106.6 105.544 106.449 105.432 106.306C105.228 106.054 105.018 105.826 104.832 105.61C104.412 105.184 103.98 104.794 103.548 104.41C102.664 103.662 101.764 102.94 100.848 102.244C99.9303 101.554 99.0003 100.882 98.0403 100.246L100.392 102.754C101.172 103.588 101.952 104.422 102.69 105.274C103.062 105.694 103.434 106.12 103.764 106.552C103.927 106.757 104.077 106.971 104.214 107.194C104.244 107.24 104.27 107.288 104.292 107.338H104.244C104.05 107.404 103.849 107.444 103.644 107.458C103.141 107.506 102.635 107.506 102.132 107.458C101.931 107.439 101.729 107.484 101.556 107.588C101.382 107.692 101.246 107.848 101.168 108.034C101.09 108.22 101.073 108.427 101.12 108.623C101.167 108.82 101.276 108.996 101.43 109.126L101.496 109.186C102.696 110.2 103.938 111.244 105.096 112.348C105.696 112.894 106.212 113.464 106.74 114.028C107.252 114.567 107.715 115.149 108.126 115.768C108.296 116.019 108.437 116.289 108.546 116.572C108.608 116.856 108.638 117.146 108.636 117.436C108.639 118.196 108.601 118.955 108.522 119.71C108.366 121.27 108.084 122.848 107.808 124.42C107.532 125.992 107.208 127.57 106.842 129.142C106.476 130.714 106.11 132.274 105.708 133.834C104.958 136.98 103.918 140.049 102.6 143.002C103.629 141.706 104.507 140.297 105.216 138.802C105.96 137.338 106.59 135.802 107.184 134.284C107.778 132.766 108.282 131.188 108.768 129.622C109.254 128.056 109.644 126.454 110.016 124.822C110.365 123.231 110.633 121.623 110.82 120.004C110.929 119.144 110.979 118.278 110.97 117.412C110.971 116.88 110.896 116.351 110.748 115.84ZM104.34 107.44V107.47C104.342 107.45 104.342 107.43 104.34 107.41V107.44Z" fill="#E0E0E0"/>
<path d="M68.7416 145.807C68.7416 145.807 80.1056 147.673 87.8996 145.447V141.391C80.0996 143.623 68.7416 141.757 68.7416 141.757V145.807Z" fill="#E0E0E0"/>
<path d="M40.1994 155.084C42.6654 140.93 45.0594 129.254 48.3534 119.084C50.2914 113.084 54.9534 109.736 62.0574 106.676C69.7074 112.124 66.4794 129.164 65.3994 133.154L59.3994 157.376C59.3994 157.376 65.9394 162.65 72.9114 167.762C78.8034 172.082 82.7694 174.674 89.7114 175.496C96.6534 176.318 99.4854 176.096 103.115 177.662C105.047 178.502 109.451 180.446 110.957 181.202C112.463 181.958 115.157 184.682 117.647 186.512C119.993 188.378 117.047 189.416 115.247 188.912C112.847 188.216 111.401 187.178 109.775 186.26C108.239 185.396 106.691 185.06 105.083 184.46C105.596 186.246 105.93 188.079 106.079 189.932C106.079 190.934 106.307 192.146 105.437 192.878C104.787 193.27 104.081 193.561 103.343 193.742C103.325 194.103 103.178 194.446 102.929 194.708C102.411 195.087 101.766 195.253 101.129 195.17C100.787 195.142 100.446 195.092 100.109 195.02C100.064 195.337 99.9361 195.636 99.7393 195.889C99.5426 196.141 99.2834 196.338 98.9874 196.46C97.6052 196.895 96.1307 196.947 94.7214 196.61C94.5114 196.526 92.9214 195.674 92.4534 195.41C91.7814 195.062 91.1814 194.864 90.8874 194.426C90.5934 193.988 91.4874 192.704 92.3334 192.572C93.2408 192.481 94.1571 192.539 95.0454 192.746C94.6806 192.003 94.4124 191.217 94.2474 190.406C93.5094 189.206 88.1694 190.406 83.4474 189.614C79.8474 189.014 77.2734 185.594 75.6474 184.868C65.3994 180.236 57.5034 177.002 47.0814 170.714C37.5654 165.002 38.9394 162.428 40.1994 155.084Z" fill="#FFA8A7"/>
<path d="M106.031 184.766C105.479 183.416 104.633 181.802 103.601 181.43C104.24 182.355 104.746 183.365 105.107 184.43C105.419 184.562 105.725 184.664 106.031 184.766Z" fill="#F28F8F"/>
<path d="M103.368 193.731C103.527 192.757 103.557 191.766 103.458 190.785C103.384 189.802 103.256 188.825 103.074 187.857C102.919 186.875 102.651 185.915 102.276 184.995C101.908 184.056 101.284 183.239 100.476 182.637C100.814 182.985 101.086 183.392 101.28 183.837C101.507 184.26 101.693 184.704 101.838 185.163C102.122 186.082 102.341 187.02 102.492 187.971C102.678 188.925 102.834 189.879 102.996 190.839C103.177 191.795 103.301 192.76 103.368 193.731Z" fill="#F28F8F"/>
<path d="M100.159 195.001C100.261 194.038 100.261 193.066 100.159 192.103C100.072 191.139 99.9277 190.181 99.7268 189.235C99.5281 188.286 99.2635 187.351 98.9348 186.439C98.5748 185.557 98.2388 184.573 97.4528 183.961C97.7478 184.333 97.9679 184.759 98.1008 185.215C98.2628 185.659 98.4008 186.115 98.5208 186.571C98.7608 187.495 98.9768 188.419 99.1688 189.355C99.5648 191.227 99.9308 193.093 100.159 195.001Z" fill="#F28F8F"/>
<path d="M92.4 192.601C92.8054 192.607 93.2085 192.663 93.6 192.769C93.984 192.859 94.26 193.057 94.746 193.207L94.548 192.895C94.5224 193.098 94.5492 193.305 94.626 193.495C94.6905 193.658 94.784 193.808 94.902 193.939C95.1162 194.192 95.3998 194.378 95.718 194.473C95.5267 194.244 95.3616 193.994 95.226 193.729C95.1734 193.607 95.1332 193.48 95.106 193.351C95.0922 193.241 95.0922 193.13 95.106 193.021L95.136 192.799L94.908 192.703C94.5466 192.566 94.166 192.487 93.78 192.469C93.3171 192.376 92.837 192.422 92.4 192.601Z" fill="#F28F8F"/>
<path d="M62.214 105.98C52.614 110.51 50.868 112.082 47.994 117.236C45.12 122.39 43.674 128.93 41.712 140.192C39.8759 150.74 37.386 160.88 38.814 164.12C40.242 167.36 41.604 167.96 46.614 171.146C51.624 174.332 63.918 179.588 63.918 179.588C63.918 179.588 64.098 174.932 66.636 171.788C70.482 167.06 72.894 167.738 72.894 167.738L60.702 157.052C60.702 157.052 65.904 135.068 67.194 129.878C68.484 124.688 70.2 110.402 62.214 105.98Z" fill="#EBEBEB"/>
<path opacity="0.2" d="M108.6 264.048L139.938 246C141.174 245.286 141.174 244.128 139.938 243.414L94.7522 217.278C94.0587 216.926 93.2919 216.742 92.5142 216.742C91.7364 216.742 90.9697 216.926 90.2762 217.278L58.9622 235.338C57.7262 236.052 57.7262 237.21 58.9622 237.924L104.142 264.06C104.835 264.406 105.598 264.585 106.373 264.583C107.147 264.581 107.91 264.398 108.6 264.048Z" fill="#BA68C8"/>
<path d="M133.483 244.724L105.709 260.408L63.0605 235.934L90.8286 220.25L133.483 244.724Z" fill="#BA68C8"/>
<path opacity="0.6" d="M133.483 244.724L105.709 260.408L63.0605 235.934L90.8286 220.25L133.483 244.724Z" fill="black"/>
<path d="M105.408 259.263L132.246 244.017C131.58 242.121 131.646 241.551 132.384 239.031L105.708 254.121C105.708 254.121 105.222 254.085 105.408 259.263Z" fill="#F5F5F5"/>
<path d="M107.011 252.06C106.303 252.52 105.712 253.14 105.287 253.869C104.862 254.598 104.614 255.417 104.562 256.26V259.56C104.562 261.114 105.661 261.744 107.011 260.964L133.477 245.934V244.734L107.346 259.488C106.53 259.95 105.877 259.572 105.877 258.642V255.702C105.906 255.194 106.054 254.7 106.309 254.26C106.565 253.821 106.92 253.447 107.346 253.17L133.447 238.416V237L107.011 252.06Z" fill="#BA68C8"/>
<path opacity="0.5" d="M107.011 252.06C106.303 252.52 105.712 253.14 105.287 253.869C104.862 254.598 104.614 255.417 104.562 256.26V259.56C104.562 261.114 105.661 261.744 107.011 260.964L133.477 245.934V244.734L107.346 259.488C106.53 259.95 105.877 259.572 105.877 258.642V255.702C105.906 255.194 106.054 254.7 106.309 254.26C106.565 253.821 106.92 253.447 107.346 253.17L133.447 238.416V237L107.011 252.06Z" fill="black"/>
<path d="M133.482 236.997L90.8277 212.523L64.3617 227.559C63.6537 228.019 63.0635 228.639 62.6384 229.368C62.2132 230.098 61.965 230.917 61.9137 231.759V235.059C61.8821 235.362 61.9315 235.668 62.057 235.945C62.1825 236.222 62.3794 236.461 62.6277 236.637L105.282 261.111C105.031 260.937 104.833 260.698 104.706 260.421C104.579 260.143 104.529 259.837 104.562 259.533V256.233C104.614 255.39 104.863 254.571 105.289 253.841C105.715 253.112 106.307 252.493 107.016 252.033L133.482 236.997Z" fill="#BA68C8"/>
<path opacity="0.35" d="M133.482 236.997L90.8277 212.523L64.3617 227.559C63.6537 228.019 63.0635 228.639 62.6384 229.368C62.2132 230.098 61.965 230.917 61.9137 231.759V235.059C61.8821 235.362 61.9315 235.668 62.057 235.945C62.1825 236.222 62.3794 236.461 62.6277 236.637L105.282 261.111C105.031 260.937 104.833 260.698 104.706 260.421C104.579 260.143 104.529 259.837 104.562 259.533V256.233C104.614 255.39 104.863 254.571 105.289 253.841C105.715 253.112 106.307 252.493 107.016 252.033L133.482 236.997Z" fill="black"/>
<path d="M105.276 253.876C104.833 254.601 104.585 255.428 104.556 256.276V259.576C104.523 259.88 104.573 260.186 104.7 260.464C104.827 260.741 105.025 260.98 105.276 261.154L62.6217 236.68C62.3735 236.504 62.1765 236.265 62.051 235.988C61.9256 235.711 61.8761 235.405 61.9077 235.102V231.802C61.9358 230.954 62.1817 230.128 62.6217 229.402L105.276 253.876Z" fill="#BA68C8"/>
<path opacity="0.45" d="M105.276 253.876C104.833 254.601 104.585 255.428 104.556 256.276V259.576C104.523 259.88 104.573 260.186 104.7 260.464C104.827 260.741 105.025 260.98 105.276 261.154L62.6217 236.68C62.3735 236.504 62.1765 236.265 62.051 235.988C61.9256 235.711 61.8761 235.405 61.9077 235.102V231.802C61.9358 230.954 62.1817 230.128 62.6217 229.402L105.276 253.876Z" fill="black"/>
<path d="M68.4006 232.672C67.6026 236.128 67.6146 237.472 68.4006 240.004L70.4346 241.204C69.6486 238.672 69.6366 237.322 70.4346 233.872L68.4006 232.672Z" fill="#BA68C8"/>
<path d="M96.3655 248.746C95.5675 252.196 95.5795 253.504 96.3655 256.036L98.3935 257.206C97.6135 254.674 97.6015 253.372 98.3935 249.922L96.3655 248.746Z" fill="#BA68C8"/>
<path d="M139.086 236.613L111.312 252.291L68.6641 227.817L96.4321 212.133L139.086 236.613Z" fill="#BA68C8"/>
<path opacity="0.4" d="M139.086 236.613L111.312 252.291L68.6641 227.817L96.4321 212.133L139.086 236.613Z" fill="black"/>
<path d="M110.999 251.147L137.831 235.901C137.165 234.011 137.231 233.165 137.969 230.645L111.299 245.735C111.299 245.735 110.825 245.999 110.999 251.147Z" fill="#F5F5F5"/>
<path d="M112.614 243.668C111.905 244.128 111.314 244.747 110.887 245.476C110.461 246.206 110.212 247.025 110.16 247.868V251.468C110.16 253.022 111.258 253.652 112.614 252.878L139.08 237.842V236.642L112.944 251.39C112.134 251.858 111.474 251.48 111.474 250.544V247.34C111.504 246.827 111.657 246.328 111.919 245.886C112.181 245.443 112.545 245.07 112.98 244.796L139.08 230.042V228.656L112.614 243.668Z" fill="#BA68C8"/>
<path opacity="0.25" d="M112.614 243.668C111.905 244.128 111.314 244.747 110.887 245.476C110.461 246.206 110.212 247.025 110.16 247.868V251.468C110.16 253.022 111.258 253.652 112.614 252.878L139.08 237.842V236.642L112.944 251.39C112.134 251.858 111.474 251.48 111.474 250.544V247.34C111.504 246.827 111.657 246.328 111.919 245.886C112.181 245.443 112.545 245.07 112.98 244.796L139.08 230.042V228.656L112.614 243.668Z" fill="black"/>
<path d="M139.079 228.634L96.4313 204.16L69.9653 219.196C69.2562 219.655 68.6648 220.275 68.2385 221.004C67.8123 221.734 67.5632 222.553 67.5112 223.396V226.966C67.4795 227.269 67.5295 227.574 67.6562 227.851C67.7828 228.127 67.9814 228.365 68.2313 228.538L110.879 253.012C110.63 252.838 110.432 252.6 110.306 252.324C110.179 252.048 110.129 251.743 110.159 251.44V247.84C110.211 246.997 110.459 246.179 110.884 245.449C111.309 244.72 111.899 244.1 112.607 243.64L139.079 228.634Z" fill="#BA68C8"/>
<path d="M110.879 245.491C110.438 246.216 110.19 247.042 110.159 247.891V251.491C110.129 251.793 110.179 252.098 110.306 252.375C110.432 252.651 110.63 252.888 110.879 253.063L68.2313 228.589C67.9814 228.415 67.7828 228.178 67.6562 227.901C67.5295 227.625 67.4795 227.319 67.5112 227.017V223.447C67.5428 222.599 67.7906 221.772 68.2313 221.047L110.879 245.491Z" fill="#BA68C8"/>
<path opacity="0.15" d="M110.879 245.491C110.438 246.216 110.19 247.042 110.159 247.891V251.491C110.129 251.793 110.179 252.098 110.306 252.375C110.432 252.651 110.63 252.888 110.879 253.063L68.2313 228.589C67.9814 228.415 67.7828 228.178 67.6562 227.901C67.5295 227.625 67.4795 227.319 67.5112 227.017V223.447C67.5428 222.599 67.7906 221.772 68.2313 221.047L110.879 245.491Z" fill="black"/>
<path d="M73.9919 224.281C73.1999 227.737 73.2119 229.357 73.9919 231.889L76.0259 233.059C75.2399 230.527 75.2279 228.907 76.0259 225.457L73.9919 224.281Z" fill="#BA68C8"/>
<path d="M101.963 240.383C101.171 243.833 101.183 245.399 101.963 247.931L103.997 249.101C103.211 246.569 103.199 244.997 103.997 241.541L101.963 240.383Z" fill="#BA68C8"/>
<g opacity="0.4">
<path d="M73.9915 224.285C73.1995 227.741 73.2115 229.361 73.9915 231.893L76.0255 233.063C75.2395 230.531 75.2275 228.911 76.0255 225.461L73.9915 224.285Z" fill="white"/>
<path d="M101.964 240.383C101.172 243.833 101.184 245.399 101.964 247.931L103.998 249.101C103.212 246.569 103.2 244.997 103.998 241.541L101.964 240.383Z" fill="white"/>
</g>
<path opacity="0.2" d="M196.763 219.97L163.523 239.17L158.915 240.106C158.889 240.11 158.861 240.107 158.837 240.097C158.812 240.086 158.79 240.069 158.775 240.047C158.759 240.026 158.75 240 158.748 239.973C158.747 239.946 158.752 239.92 158.765 239.896L160.205 237.256L193.451 218.056C194.357 217.528 197.471 219.556 196.763 219.97Z" fill="black"/>
<path d="M193.564 216.143C193.587 216.572 193.711 216.989 193.925 217.362C194.14 217.734 194.44 218.05 194.8 218.285C195.008 218.422 195.261 218.476 195.508 218.435C195.471 218.477 195.426 218.511 195.376 218.537L195.67 218.369L195.712 218.333L195.772 218.291L195.802 218.255L195.832 218.219C195.874 218.161 195.908 218.099 195.934 218.033V217.973C195.934 217.973 195.934 217.937 195.934 217.919C195.959 217.819 195.971 217.716 195.97 217.613C195.946 217.185 195.822 216.768 195.607 216.397C195.392 216.026 195.093 215.711 194.734 215.477C194.569 215.371 194.378 215.313 194.182 215.309H194.098H194.026H193.984H193.936H193.888L193.63 215.459C193.67 215.434 193.715 215.417 193.762 215.411C193.681 215.513 193.622 215.631 193.588 215.756C193.554 215.882 193.546 216.014 193.564 216.143Z" fill="#BA68C8"/>
<path d="M161.627 233.999L163.373 236.999L163.667 236.831L195.377 218.513C195.427 218.488 195.472 218.453 195.509 218.411C195.672 218.217 195.754 217.967 195.737 217.715C195.714 217.286 195.59 216.87 195.375 216.498C195.161 216.127 194.861 215.812 194.501 215.579C194.335 215.475 194.144 215.417 193.949 215.411C193.897 215.405 193.845 215.405 193.793 215.411C193.746 215.418 193.701 215.434 193.661 215.459L161.627 233.999Z" fill="#F0F0F0"/>
<path d="M162.502 234.081C161.818 233.691 161.266 234.009 161.266 234.795C161.289 235.224 161.413 235.641 161.628 236.013C161.843 236.385 162.142 236.702 162.502 236.937C163.18 237.327 163.738 237.009 163.738 236.223C163.714 235.794 163.59 235.376 163.375 235.004C163.16 234.632 162.861 234.316 162.502 234.081Z" fill="#BA68C8"/>
<path d="M159.844 235.917V235.881L161.422 234.153V234.117C161.562 234.006 161.737 233.945 161.916 233.945C162.096 233.945 162.271 234.006 162.412 234.117C162.771 234.353 163.07 234.669 163.285 235.041C163.499 235.413 163.624 235.83 163.648 236.259C163.671 236.433 163.637 236.61 163.55 236.763C163.463 236.916 163.329 237.036 163.168 237.105H163.077L160.791 237.603C160.654 237.628 160.512 237.598 160.395 237.519C160.193 237.387 160.024 237.21 159.901 237.002C159.779 236.794 159.705 236.56 159.688 236.319C159.688 236.171 159.743 236.027 159.844 235.917Z" fill="#E0E0E0"/>
<path d="M180.029 224.674H180.071C180.119 224.66 180.169 224.657 180.219 224.664C180.269 224.671 180.316 224.689 180.359 224.716C180.486 224.8 180.592 224.913 180.669 225.045C180.745 225.177 180.789 225.326 180.797 225.478C180.802 225.527 180.795 225.577 180.777 225.623C180.759 225.668 180.731 225.709 180.695 225.742L180.641 225.778L161.885 236.578L160.649 235.864L180.029 224.674Z" fill="#455A64"/>
<path d="M163.624 235.568L161.884 236.576L160.648 235.862L163.006 234.5C163.287 234.808 163.497 235.172 163.624 235.568Z" fill="#37474F"/>
<path d="M159.226 236.741L160.654 235.169L160.69 235.127C160.793 235.052 160.917 235.012 161.044 235.012C161.171 235.012 161.295 235.052 161.398 235.127C161.652 235.293 161.863 235.516 162.014 235.779C162.165 236.042 162.252 236.337 162.268 236.639C162.281 236.761 162.256 236.884 162.197 236.991C162.138 237.098 162.048 237.185 161.938 237.239H161.884L159.79 237.695C159.713 237.707 159.634 237.69 159.568 237.647C159.452 237.572 159.356 237.47 159.287 237.35C159.218 237.23 159.179 237.095 159.172 236.957C159.163 236.881 159.182 236.804 159.226 236.741Z" fill="#BA68C8"/>
<path opacity="0.1" d="M159.226 236.741L160.654 235.169L160.69 235.127C160.793 235.052 160.917 235.012 161.044 235.012C161.171 235.012 161.295 235.052 161.398 235.127C161.652 235.293 161.863 235.516 162.014 235.779C162.165 236.042 162.252 236.337 162.268 236.639C162.281 236.761 162.256 236.884 162.197 236.991C162.138 237.098 162.048 237.185 161.938 237.239H161.884L159.79 237.695C159.713 237.707 159.634 237.69 159.568 237.647C159.452 237.572 159.356 237.47 159.287 237.35C159.218 237.23 159.179 237.095 159.172 236.957C159.163 236.881 159.182 236.804 159.226 236.741Z" fill="black"/>
<path d="M159.149 237.002C159.156 237.14 159.195 237.274 159.264 237.394C159.333 237.514 159.429 237.616 159.545 237.692C159.611 237.734 159.689 237.751 159.767 237.74L160.823 237.506C160.991 237.476 161.099 237.314 161.099 237.062C161.087 236.842 161.023 236.627 160.912 236.436C160.802 236.246 160.648 236.084 160.463 235.964C160.391 235.906 160.302 235.875 160.211 235.875C160.119 235.875 160.03 235.906 159.959 235.964H159.929L159.221 236.744C159.191 236.779 159.169 236.82 159.156 236.865C159.144 236.909 159.141 236.956 159.149 237.002Z" fill="#BA68C8"/>
<path opacity="0.1" d="M159.544 236.741C159.322 236.615 159.148 236.741 159.148 236.969C159.155 237.107 159.195 237.242 159.264 237.362C159.332 237.482 159.429 237.584 159.544 237.659C159.76 237.785 159.94 237.659 159.94 237.431C159.933 237.293 159.893 237.159 159.825 237.039C159.756 236.919 159.66 236.817 159.544 236.741Z" fill="black"/>
<path d="M190.99 218.339C191.04 218.315 191.095 218.305 191.15 218.31C191.205 218.315 191.258 218.336 191.302 218.369C191.429 218.452 191.535 218.564 191.611 218.695C191.687 218.826 191.731 218.974 191.74 219.125C191.748 219.18 191.739 219.235 191.716 219.285C191.692 219.335 191.655 219.378 191.608 219.407L180.7 225.713C180.737 225.68 180.765 225.639 180.783 225.593C180.801 225.547 180.807 225.498 180.802 225.449C180.794 225.296 180.75 225.148 180.674 225.016C180.598 224.883 180.492 224.771 180.364 224.687C180.322 224.66 180.274 224.642 180.225 224.634C180.175 224.627 180.124 224.631 180.076 224.645L190.99 218.339Z" fill="#FAFAFA"/>
<path d="M190.865 218.621C190.874 218.772 190.918 218.92 190.994 219.051C191.07 219.182 191.176 219.294 191.303 219.377C191.347 219.409 191.398 219.428 191.452 219.433C191.506 219.438 191.56 219.429 191.609 219.407C191.655 219.377 191.691 219.334 191.715 219.284C191.738 219.235 191.747 219.18 191.741 219.125C191.732 218.974 191.688 218.826 191.612 218.695C191.536 218.564 191.43 218.452 191.303 218.369C191.259 218.336 191.206 218.315 191.151 218.31C191.096 218.305 191.041 218.315 190.991 218.339C190.947 218.371 190.912 218.413 190.89 218.463C190.868 218.512 190.859 218.567 190.865 218.621Z" fill="#F5F5F5"/>
<path d="M191.842 216.746L193.642 215.696H193.684C193.806 215.648 193.939 215.631 194.07 215.646C194.201 215.662 194.326 215.71 194.434 215.786C194.758 215.997 195.028 216.281 195.222 216.616C195.416 216.951 195.528 217.326 195.55 217.712C195.565 217.851 195.543 217.991 195.485 218.118C195.427 218.245 195.335 218.354 195.22 218.432L193.372 219.5C193.247 219.552 193.111 219.57 192.976 219.555C192.842 219.539 192.714 219.489 192.604 219.41C192.28 219.201 192.011 218.918 191.818 218.584C191.625 218.25 191.514 217.875 191.494 217.49C191.48 217.347 191.505 217.202 191.567 217.071C191.628 216.94 191.723 216.828 191.842 216.746Z" fill="#BA68C8"/>
<path opacity="0.05" d="M191.842 216.746L193.642 215.696H193.684C193.806 215.648 193.939 215.631 194.07 215.646C194.201 215.662 194.326 215.71 194.434 215.786C194.758 215.997 195.028 216.281 195.222 216.616C195.416 216.951 195.528 217.326 195.55 217.712C195.565 217.851 195.543 217.991 195.485 218.118C195.427 218.245 195.335 218.354 195.22 218.432L193.372 219.5C193.247 219.552 193.111 219.57 192.976 219.555C192.842 219.539 192.714 219.489 192.604 219.41C192.28 219.201 192.011 218.918 191.818 218.584C191.625 218.25 191.514 217.875 191.494 217.49C191.48 217.347 191.505 217.202 191.567 217.071C191.628 216.94 191.723 216.828 191.842 216.746Z" fill="black"/>
<path opacity="0.1" d="M192.653 216.817C192.053 216.463 191.543 216.745 191.543 217.459C191.563 217.844 191.674 218.218 191.867 218.552C192.06 218.886 192.329 219.169 192.653 219.379C193.253 219.733 193.763 219.451 193.763 218.737C193.742 218.352 193.63 217.978 193.437 217.644C193.244 217.31 192.976 217.027 192.653 216.817Z" fill="black"/>
<path d="M158.644 237.406L159.394 236.95C159.417 236.937 159.443 236.93 159.469 236.93C159.495 236.93 159.521 236.937 159.544 236.95C159.603 236.989 159.653 237.041 159.688 237.102C159.724 237.164 159.744 237.233 159.748 237.304C159.75 237.329 159.745 237.354 159.735 237.378C159.724 237.401 159.708 237.421 159.688 237.436L158.938 237.892C158.893 237.913 158.844 237.926 158.794 237.928C158.717 237.926 158.644 237.895 158.59 237.84C158.536 237.785 158.506 237.711 158.506 237.634C158.508 237.587 158.521 237.542 158.546 237.502C158.57 237.462 158.603 237.429 158.644 237.406Z" fill="#455A64"/>
<path d="M158.596 237.435L158.632 237.405C158.653 237.395 158.676 237.39 158.698 237.39C158.721 237.39 158.744 237.395 158.764 237.405C158.823 237.444 158.872 237.497 158.908 237.558C158.943 237.619 158.964 237.688 158.968 237.759C158.97 237.784 158.966 237.809 158.955 237.832C158.945 237.856 158.929 237.876 158.908 237.891H158.878C158.847 237.897 158.814 237.897 158.782 237.891C158.725 237.889 158.669 237.871 158.621 237.838C158.574 237.804 158.538 237.758 158.516 237.704C158.495 237.651 158.491 237.592 158.503 237.535C158.515 237.479 158.543 237.427 158.584 237.387L158.596 237.435Z" fill="#263238"/>
<path opacity="0.2" d="M177.846 235.664C178.182 236.57 179.148 237.134 180.762 237.344L209.562 220.574L212.562 217.574C212.597 217.537 212.619 217.488 212.624 217.437C212.63 217.385 212.617 217.334 212.59 217.29C212.563 217.246 212.521 217.212 212.473 217.194C212.424 217.176 212.371 217.175 212.322 217.19L206.82 218.99L177.846 235.664Z" fill="black"/>
<path d="M207 216.938L211.896 215.978C211.927 215.974 211.959 215.979 211.987 215.992C212.015 216.006 212.038 216.028 212.054 216.055C212.069 216.082 212.076 216.114 212.074 216.145C212.071 216.176 212.06 216.206 212.04 216.23L208.716 219.992L207 216.938Z" fill="#FFA8A7"/>
<path d="M212.057 216.23C212.077 216.206 212.088 216.176 212.091 216.145C212.093 216.114 212.086 216.082 212.071 216.055C212.055 216.028 212.032 216.006 212.004 215.992C211.976 215.979 211.944 215.974 211.913 215.978L210.959 216.164C211.09 216.247 211.196 216.363 211.265 216.502C211.334 216.641 211.363 216.796 211.349 216.95V217.034L212.057 216.23Z" fill="#263238"/>
<path d="M184.662 233.773L185.064 233.545L185.55 233.27L208.734 219.991C208.896 219.452 208.847 218.87 208.596 218.366C208.467 218.018 208.257 217.706 207.982 217.458C207.707 217.209 207.377 217.031 207.018 216.938L183.846 230.209L182.922 230.744C183.534 230.432 185.28 233.455 184.662 233.773Z" fill="#455A64"/>
<path d="M186.191 232.906L187.085 232.39C187.349 232.252 187.199 231.604 186.887 230.932C186.479 230.038 185.687 229.18 185.327 229.36L184.667 229.744L184.433 229.882C184.781 229.696 185.591 230.56 185.999 231.448C186.293 232.09 186.443 232.72 186.215 232.888L186.191 232.906Z" fill="#EBEBEB"/>
<path d="M186.414 232.801C187.014 232.477 185.268 229.453 184.656 229.801L183.762 230.311C184.362 229.987 186.162 233.011 185.52 233.341L186.414 232.801Z" fill="#BA68C8"/>
<path d="M184.662 233.776L185.55 233.272C186.15 232.954 184.482 230.02 183.846 230.212H183.804L182.922 230.728C183.534 230.434 185.28 233.458 184.662 233.776Z" fill="#EBEBEB"/>
<path opacity="0.15" d="M212.075 216.061L211.913 215.977L208.361 217.921L184.199 231.775C184.163 231.721 184.139 231.715 184.115 231.775C184.637 232.585 185.033 233.611 184.685 233.791L185.087 233.563L185.573 233.287L208.757 220.009L212.081 216.247C212.1 216.219 212.11 216.186 212.109 216.153C212.108 216.119 212.096 216.087 212.075 216.061Z" fill="black"/>
<path d="M180.911 235.921L184.661 233.773C184.925 233.635 184.781 232.993 184.475 232.327C184.073 231.433 183.275 230.563 182.921 230.743L179.153 232.897C178.403 233.329 179.093 234.955 179.927 235.681C180.047 235.815 180.206 235.911 180.382 235.953C180.557 235.996 180.742 235.985 180.911 235.921Z" fill="#F28F8F"/>
<path opacity="0.1" d="M181.133 234.759C181.037 234.353 180.85 233.975 180.584 233.654C180.319 233.332 179.983 233.076 179.603 232.905C179.51 232.87 179.41 232.859 179.311 232.873C179.213 232.886 179.119 232.924 179.039 232.983C178.475 233.505 179.135 234.999 179.921 235.683C180.039 235.816 180.194 235.91 180.366 235.954C180.539 235.998 180.72 235.989 180.887 235.929C181.199 235.767 181.277 235.335 181.133 234.759Z" fill="black"/>
<path opacity="0.2" d="M253.633 197.51C253.51 198.11 253.265 198.677 252.913 199.178C252.215 200.175 251.295 200.997 250.225 201.578C245.575 204.266 238.033 204.266 233.377 201.578C232.309 200.995 231.389 200.174 230.689 199.178C230.344 198.675 230.103 198.108 229.981 197.51C229.567 195.494 230.701 193.388 233.383 191.84C238.039 189.152 245.581 189.152 250.231 191.84C252.907 193.388 254.047 195.494 253.633 197.51Z" fill="#BA68C8"/>
<path d="M250.983 188.547H232.383L234.303 196.557C234.447 197.523 235.161 198.471 236.439 199.209C239.331 200.877 244.023 200.877 246.915 199.209C248.295 198.411 249.009 197.379 249.075 196.341L250.983 188.547Z" fill="#E0E0E0"/>
<path d="M251.955 186.171C251.854 186.688 251.65 187.18 251.355 187.617C250.747 188.479 249.948 189.19 249.021 189.693C244.983 192.021 238.437 192.021 234.399 189.693C233.471 189.19 232.672 188.479 232.065 187.617C231.769 187.18 231.565 186.688 231.465 186.171C231.105 184.419 232.095 182.571 234.423 181.251C238.461 178.916 245.007 178.916 249.045 181.251C251.325 182.595 252.315 184.419 251.955 186.171Z" fill="#FAFAFA"/>
<path d="M251.331 187.618C250.724 188.48 249.925 189.191 248.997 189.694C244.959 192.022 238.413 192.022 234.375 189.694C233.448 189.191 232.649 188.48 232.041 187.618C231.746 187.181 231.541 186.69 231.441 186.172L231.903 189.328C232.113 190.594 233.055 191.83 234.741 192.802C238.593 195.022 244.827 195.022 248.679 192.802C250.341 191.842 251.283 190.624 251.511 189.37V189.208L251.955 186.172C251.848 186.691 251.635 187.183 251.331 187.618Z" fill="#EBEBEB"/>
<path d="M247.802 181.95C244.436 180.006 238.982 180.006 235.616 181.95C233.714 183.048 232.886 184.536 233.138 185.97C233.33 187.068 234.158 188.142 235.616 188.97C238.982 190.914 244.436 190.914 247.802 188.97C249.26 188.13 250.088 187.056 250.28 185.97C250.508 184.536 249.686 183.048 247.802 181.95Z" fill="#E0E0E0"/>
<path d="M233.678 187.302C234.182 187.998 234.836 188.573 235.592 188.982C238.958 190.926 244.412 190.926 247.778 188.982C248.532 188.572 249.184 187.998 249.686 187.302C249.686 186.138 248.882 184.98 247.346 184.092C244.22 182.292 239.15 182.292 236.024 184.092C234.488 184.98 233.708 186.138 233.678 187.302Z" fill="#BA68C8"/>
<path d="M239.084 174.765C238.922 170.013 237.128 162.627 235.412 159.645C238.655 163.641 240.545 168.563 240.812 173.703L239.084 174.765Z" fill="#263238"/>
<path d="M244.244 185.028C244.4 181.722 246.836 180.648 249.572 181.722C251.516 182.49 254.324 185.376 255.212 189.984C254.342 187.608 248.03 179.598 244.244 185.028Z" fill="#455A64"/>
<path d="M244.387 186.603C244.543 185.403 245.653 183.759 247.585 184.155C249.517 184.551 254.065 188.103 255.985 193.935C255.637 190.023 254.365 186.651 251.755 184.461C249.145 182.271 247.237 181.941 245.329 183.075C243.697 184.059 244.387 186.603 244.387 186.603Z" fill="#37474F"/>
<path d="M240.919 188.211C239.347 182.955 239.119 173.211 240.625 167.907C242.767 160.437 247.225 157.167 250.519 156.375C247.381 157.683 244.069 162.471 243.139 167.175C242.209 171.879 242.743 188.235 242.743 188.235L240.919 188.211Z" fill="#455A64"/>
<path d="M242.209 183.088C242.413 180.148 244.129 173.626 247.525 170.998C248.734 170.041 250.253 169.565 251.791 169.66C253.329 169.756 254.778 170.416 255.859 171.514C254.948 170.818 253.829 170.45 252.683 170.467C251.537 170.484 250.431 170.887 249.541 171.61C247.741 173.086 245.941 177.514 245.029 181.72L242.209 183.088Z" fill="#263238"/>
<path d="M246.836 171.6C248.972 169.506 250.64 168.09 253.292 168.228C255.944 168.366 259.484 172.068 261.536 179.916C259.418 174.93 256.67 170.55 252.272 170.082C251.31 169.948 250.331 170.013 249.396 170.274C248.46 170.536 247.589 170.987 246.836 171.6Z" fill="#37474F"/>
<path d="M222.949 166.947C227.138 166.779 231.242 168.156 234.481 170.817C237.72 173.478 239.869 177.236 240.517 181.377L238.165 180.999C238.165 180.999 236.209 174.819 232.801 171.603C229.801 168.759 227.563 167.625 222.949 166.947Z" fill="#455A64"/>
<path d="M241.099 179.9C241.279 177.248 240.031 171.674 235.975 167.9C231.919 164.126 230.461 163.298 226.291 162.23C229.669 163.978 232.63 166.434 234.973 169.43C237.655 172.934 237.775 177.086 237.775 178.652C238.231 179.9 239.881 182.456 241.099 179.9Z" fill="#37474F"/>
<path d="M240.918 181.204C240.39 177.826 242.208 171.778 244.332 168.82C246.9 165.22 250.686 162.562 254.892 161.836C250.392 163.558 245.862 168.58 244.53 173.32C243.738 176.47 243.551 179.742 243.978 182.962L240.918 181.204Z" fill="#37474F"/>
<path d="M242.353 188.213C241.783 185.057 242.791 178.481 247.987 174.857C253.183 171.233 256.801 172.205 258.139 172.601C254.119 172.331 250.075 174.569 247.609 177.341C245.893 179.267 244.285 182.417 244.183 187.643L242.353 188.213Z" fill="#455A64"/>
<path d="M242.401 188.476C242.401 188.476 243.763 188.44 244.309 187.804C244.309 185.764 244.861 181.678 247.723 179.266C250.585 176.854 252.817 177.316 253.267 178.264C253.267 176.872 251.521 175.636 249.589 176.05C246.373 176.734 241.801 180.922 242.401 188.476Z" fill="#263238"/>
<path d="M247.922 176.672C249.686 175.712 251.198 174.872 253.166 175.802C253.25 175.748 254.366 175.466 254.792 175.97C256.436 177.908 255.908 182.732 252.896 187.37C254.282 183.902 254.348 177.506 251.792 176.51C250.531 176.052 249.14 176.11 247.922 176.672Z" fill="#37474F"/>
<path d="M253.166 175.801C253.958 176.161 255.566 178.939 254.534 182.809C255.506 179.887 255.134 177.073 253.514 175.711C253.395 175.727 253.278 175.757 253.166 175.801Z" fill="#263238"/>
<path d="M238.963 187.532C238.807 186.302 237.697 184.682 235.765 185.078C233.833 185.474 229.285 189.032 227.365 194.858C227.592 191.259 229.047 187.847 231.487 185.192C233.587 182.978 236.347 181.91 238.537 183.086C240.727 184.262 238.963 187.532 238.963 187.532Z" fill="#263238"/>
<path d="M238.165 180.165C236.467 178.467 235.279 176.841 232.165 177.483C229.051 178.125 226.903 181.521 226.057 186.099C226.585 184.299 228.193 180.285 231.385 179.595C234.577 178.905 236.125 179.145 238.165 180.165Z" fill="#455A64"/>
<path d="M238.963 187.532C238.519 184.532 237.379 180.266 234.193 180.092C231.007 179.918 227.509 181.928 226.051 186.092C226.795 182.294 230.035 178.67 233.413 178.664C236.791 178.658 240.115 179.39 240.919 188.204L238.963 187.532Z" fill="#37474F"/>
<path d="M236.276 174.825C235.054 173.688 233.528 172.932 231.884 172.647C230.798 172.461 228.686 171.627 226.424 173.733C224.162 175.839 221.78 180.759 222.602 184.203C222.986 180.543 227.888 170.307 236.276 174.825Z" fill="#37474F"/>
<path d="M241.369 188.513C241.369 185.735 239.341 176.927 236.137 174.683C232.129 171.881 229.447 174.269 229.447 174.269C230.251 174.011 231.104 173.945 231.937 174.076C232.771 174.208 233.562 174.533 234.247 175.025C236.317 176.543 238.249 180.971 238.987 187.535C239.283 187.869 239.651 188.131 240.064 188.301C240.477 188.471 240.924 188.543 241.369 188.513Z" fill="#263238"/>
<path d="M239.551 180.24C239.359 181.056 240.199 187.11 240.853 188.478C241.494 188.576 242.148 188.566 242.785 188.448C243.385 187.386 242.785 180.534 243.985 180.402C243.067 180.006 240.001 178.842 239.551 180.24Z" fill="#37474F"/>
<path d="M239.551 180.237C240.499 179.265 244.351 181.185 245.059 186.903C246.013 184.191 245.587 180.831 244.633 179.985C244.371 179.742 244.042 179.586 243.688 179.538C243.335 179.489 242.976 179.551 242.659 179.715C242.659 179.715 239.683 178.407 239.551 180.237Z" fill="#455A64"/>
<path d="M242.66 179.714C243.86 180.212 245.18 181.844 245.168 184.628C245.258 183.2 244.982 180.698 242.966 179.594C242.861 179.625 242.759 179.665 242.66 179.714Z" fill="#37474F"/>
<path d="M245.07 43.8018C241.614 42.8298 241.218 41.4018 241.188 41.2578C241.167 41.1934 241.167 41.1241 241.188 41.0598L241.674 39.3197C241.806 38.8517 241.674 37.8738 240.246 35.8818C240.238 35.8649 240.227 35.8489 240.216 35.8338C238.975 34.0237 238.322 31.8755 238.344 29.6811C238.367 27.4866 239.065 25.3524 240.343 23.5684C241.621 21.7843 243.417 20.4371 245.488 19.7096C247.558 18.9822 249.802 18.9098 251.915 19.5025C254.029 20.0951 255.908 21.3239 257.298 23.0219C258.688 24.7199 259.522 26.8048 259.686 28.9932C259.85 31.1816 259.336 33.3675 258.214 35.2537C257.093 37.1399 255.417 38.6349 253.416 39.5358H253.38C251.07 40.5138 250.44 41.2698 250.308 41.7438L249.816 43.4778C249.798 43.5436 249.763 43.6035 249.714 43.6518C249.6 43.8018 248.532 44.7798 245.07 43.8018ZM242.028 41.1498C242.16 41.4018 242.796 42.2957 245.298 43.0037C247.8 43.7118 248.796 43.2858 249.054 43.1358L249.504 41.5338C249.78 40.5678 250.89 39.7338 253.002 38.8098H253.038C254.888 37.9858 256.439 36.6119 257.48 34.8749C258.521 33.1379 259.002 31.1222 258.856 29.1024C258.711 27.0825 257.947 25.1565 256.667 23.5866C255.388 22.0167 253.656 20.8791 251.707 20.3288C249.758 19.7784 247.687 19.842 245.776 20.5109C243.864 21.1798 242.206 22.4214 241.025 24.0669C239.844 25.7123 239.2 27.6816 239.178 29.7065C239.157 31.7315 239.76 33.7139 240.906 35.3838C242.25 37.2798 242.706 38.5878 242.466 39.5478L242.028 41.1498Z" fill="#455A64"/>
<path d="M243.51 49.3263C239.91 48.3063 239.502 46.8423 239.466 46.6803C239.451 46.6131 239.451 46.5434 239.466 46.4763L240.45 42.9963C240.475 42.9075 240.527 42.8293 240.601 42.7735C240.674 42.7177 240.763 42.6875 240.855 42.6875C240.947 42.6875 241.037 42.7177 241.11 42.7735C241.183 42.8293 241.236 42.9075 241.26 42.9963C241.26 42.9963 241.632 44.1423 244.716 45.0123C247.8 45.8823 248.724 45.1023 248.73 45.0903C248.798 45.0294 248.884 44.9919 248.974 44.9833C249.065 44.9746 249.156 44.9953 249.234 45.0423C249.312 45.0879 249.372 45.158 249.406 45.2416C249.44 45.3252 249.445 45.4175 249.42 45.5043L248.436 48.9843C248.418 49.0487 248.385 49.1081 248.34 49.1583C248.226 49.3083 247.11 50.3403 243.51 49.3263ZM240.312 46.5723C240.444 46.8303 241.098 47.7723 243.738 48.5223C246.378 49.2723 247.416 48.8103 247.68 48.6543L248.4 46.1643C247.674 46.3443 246.45 46.3923 244.512 45.8403C242.574 45.2883 241.56 44.6403 241.032 44.0823L240.312 46.5723Z" fill="#455A64"/>
<path d="M244.452 40.8742L244.35 40.8262C244.299 40.7981 244.255 40.7595 244.22 40.7131C244.185 40.6668 244.161 40.6136 244.148 40.557C244.134 40.5004 244.134 40.4417 244.145 40.3847C244.156 40.3277 244.179 40.2737 244.212 40.2262C244.212 40.2262 244.866 39.0682 245.49 35.1382C245.666 34.147 245.68 33.1339 245.532 32.1382C244.02 32.1382 242.988 31.3342 242.7 30.5722C242.638 30.4247 242.606 30.2662 242.605 30.1061C242.605 29.946 242.637 29.7874 242.699 29.6398C242.761 29.4922 242.852 29.3585 242.967 29.2466C243.081 29.1347 243.217 29.0468 243.366 28.9882C243.636 28.8776 243.93 28.8443 244.218 28.892C244.505 28.9397 244.773 29.0665 244.992 29.2582C245.585 29.7829 246.003 30.4757 246.192 31.2442C246.42 31.1987 246.645 31.1366 246.864 31.0582C247.413 30.8759 247.931 30.6108 248.4 30.2722C248.076 29.2042 248.07 28.1782 248.466 27.5662C248.621 27.3713 248.83 27.2267 249.067 27.1504C249.304 27.0742 249.558 27.0698 249.797 27.1378C250.037 27.2059 250.251 27.3433 250.412 27.5327C250.573 27.7221 250.675 27.9551 250.704 28.2022C250.704 28.9282 250.182 29.8042 249.348 30.5422C249.556 31.0762 249.843 31.5759 250.2 32.0242C250.346 32.2049 250.507 32.3734 250.68 32.5282C251.24 31.9738 251.956 31.6034 252.732 31.4662C253.018 31.4153 253.312 31.4445 253.582 31.5504C253.852 31.6563 254.087 31.8348 254.262 32.0662C254.359 32.1945 254.43 32.341 254.469 32.4969C254.508 32.6529 254.516 32.8152 254.491 32.9742C254.467 33.1331 254.41 33.2855 254.326 33.4223C254.241 33.559 254.13 33.6773 253.998 33.7702C253.504 34.0645 252.934 34.2071 252.359 34.1805C251.784 34.1538 251.229 33.959 250.764 33.6202C250.112 34.3976 249.589 35.2748 249.216 36.2182C247.692 39.8902 247.644 41.2102 247.644 41.2222C247.643 41.2766 247.632 41.3303 247.61 41.3802C247.589 41.4301 247.558 41.4753 247.519 41.5132C247.48 41.5511 247.434 41.5809 247.383 41.601C247.333 41.6211 247.279 41.631 247.224 41.6302C247.17 41.6302 247.117 41.6195 247.067 41.5986C247.017 41.5777 246.972 41.5471 246.934 41.5086C246.896 41.4701 246.866 41.4244 246.846 41.3742C246.825 41.324 246.815 41.2703 246.816 41.2162C246.816 41.1562 246.816 39.7822 248.448 35.9002C248.845 34.8897 249.402 33.9497 250.098 33.1162C249.901 32.9309 249.718 32.7303 249.552 32.5162C249.192 32.0661 248.889 31.5721 248.652 31.0462C248.173 31.3699 247.655 31.6319 247.11 31.8262C246.86 31.9162 246.603 31.9864 246.342 32.0362C246.498 33.1099 246.482 34.2016 246.294 35.2702C245.634 39.4222 244.932 40.6102 244.908 40.6702C244.863 40.7479 244.795 40.8094 244.713 40.8461C244.631 40.8827 244.54 40.8926 244.452 40.8742ZM244.122 29.7382C243.983 29.6846 243.829 29.6846 243.69 29.7382C243.637 29.7528 243.588 29.7794 243.547 29.816C243.505 29.8525 243.473 29.8981 243.452 29.9491C243.431 30.0001 243.423 30.0552 243.426 30.1102C243.43 30.1652 243.447 30.2186 243.474 30.2662C243.664 30.5864 243.936 30.8499 244.262 31.0293C244.588 31.2087 244.956 31.2974 245.328 31.2862C245.183 30.7519 244.887 30.2707 244.476 29.9002C244.37 29.8237 244.25 29.7687 244.122 29.7382ZM251.4 33.0022C251.711 33.2065 252.071 33.3233 252.443 33.3402C252.815 33.3571 253.184 33.2735 253.512 33.0982C253.561 33.0732 253.603 33.0371 253.636 32.9928C253.669 32.9486 253.69 32.8973 253.7 32.8432C253.709 32.7891 253.706 32.7335 253.69 32.6809C253.674 32.6283 253.646 32.5802 253.608 32.5402C253.521 32.4282 253.403 32.3434 253.269 32.2956C253.136 32.2478 252.991 32.239 252.852 32.2702C252.307 32.3674 251.802 32.6218 251.4 33.0022ZM249.57 27.8782C249.3 27.8002 249.204 27.8782 249.138 27.9982C248.922 28.5231 248.898 29.1077 249.072 29.6482C249.502 29.2783 249.787 28.7681 249.876 28.2082C249.87 28.1122 249.84 27.9802 249.564 27.9022L249.57 27.8782Z" fill="#455A64"/>
<path d="M274.309 83.3342C273.52 80.8806 272.124 78.6659 270.251 76.8953C268.378 75.1248 266.088 73.8557 263.594 73.2058C261.1 72.5558 258.482 72.546 255.983 73.1772C253.484 73.8084 251.184 75.0602 249.298 76.8166C247.412 78.573 245.999 80.7771 245.192 83.2248C244.384 85.6724 244.207 88.2843 244.678 90.8185C245.148 93.3526 246.251 95.727 247.884 97.7215C249.516 99.716 251.626 101.266 254.017 102.228L254.089 102.264C257.365 103.512 258.289 104.568 258.523 105.234L259.315 107.694C259.342 107.788 259.394 107.873 259.465 107.94C259.633 108.102 261.223 109.47 266.125 107.892C271.027 106.314 271.525 104.292 271.555 104.046C271.578 103.952 271.578 103.853 271.555 103.758L270.763 101.298C270.547 100.638 270.697 99.2282 272.671 96.2282C272.684 96.2146 272.694 96.1982 272.701 96.1802C273.895 94.288 274.658 92.1563 274.935 89.9363C275.213 87.7163 274.999 85.4623 274.309 83.3342ZM268.843 88.8482C268.471 89.9462 267.043 91.1642 264.871 91.2482C264.708 92.6921 264.779 94.1529 265.081 95.5742C266.185 101.166 267.169 102.774 267.181 102.774C267.254 102.907 267.274 103.062 267.237 103.209C267.2 103.355 267.11 103.483 266.983 103.566C266.856 103.648 266.703 103.68 266.554 103.655C266.405 103.629 266.271 103.548 266.179 103.428C266.137 103.356 265.075 101.694 263.911 95.7902C263.587 94.2685 263.508 92.7048 263.677 91.1582C263.301 91.1004 262.93 91.0141 262.567 90.9002C261.778 90.6517 261.023 90.3029 260.323 89.8622C260.018 90.629 259.614 91.353 259.123 92.0162C258.895 92.3206 258.644 92.6074 258.373 92.8742C259.411 94.0339 260.259 95.3501 260.887 96.7742C263.383 102.246 263.491 104.214 263.497 104.298C263.503 104.43 263.466 104.56 263.391 104.668C263.317 104.777 263.208 104.858 263.083 104.898C263.031 104.907 262.979 104.907 262.927 104.898C262.773 104.898 262.625 104.839 262.513 104.733C262.401 104.627 262.335 104.482 262.327 104.328C262.327 104.328 262.189 102.432 259.825 97.2482C259.242 95.9172 258.448 94.6893 257.473 93.6122C255.673 94.8122 253.807 94.6682 252.853 93.9962C252.661 93.8723 252.496 93.7108 252.369 93.5216C252.241 93.3323 252.153 93.1191 252.11 92.8948C252.066 92.6706 252.069 92.4399 252.117 92.2168C252.166 91.9936 252.259 91.7825 252.391 91.5962C252.624 91.2505 252.949 90.9773 253.33 90.8075C253.711 90.6378 254.132 90.5784 254.545 90.6362C255.667 90.7911 256.714 91.2876 257.545 92.0582C257.785 91.8226 258.007 91.57 258.211 91.3022C258.704 90.6449 259.098 89.9193 259.381 89.1482C258.145 88.1342 257.323 86.9102 257.317 85.8662C257.334 85.5 257.463 85.1477 257.686 84.8565C257.908 84.5654 258.215 84.3492 258.564 84.237C258.913 84.1248 259.288 84.1218 259.639 84.2285C259.99 84.3353 260.299 84.5466 260.527 84.8342C261.127 85.6862 261.175 87.1622 260.767 88.7042C261.445 89.1668 262.19 89.5248 262.975 89.7662C263.295 89.8673 263.622 89.9435 263.953 89.9942C264.179 88.8876 264.738 87.8765 265.555 87.0962C265.857 86.809 266.233 86.6119 266.641 86.5271C267.05 86.4423 267.473 86.4732 267.865 86.6162C268.079 86.6943 268.275 86.815 268.441 86.9709C268.607 87.1268 268.739 87.3147 268.831 87.5233C268.922 87.7318 268.97 87.9568 268.972 88.1845C268.975 88.4122 268.93 88.638 268.843 88.8482ZM267.385 87.7202C267.192 87.655 266.984 87.6463 266.787 87.6952C266.589 87.7442 266.409 87.8486 266.269 87.9962C265.695 88.5455 265.295 89.2504 265.117 90.0242C266.599 89.8862 267.517 89.0762 267.721 88.4582C267.758 88.389 267.779 88.3123 267.781 88.2339C267.784 88.1554 267.768 88.0775 267.735 88.0061C267.703 87.9347 267.654 87.8717 267.594 87.8222C267.533 87.7726 267.461 87.7377 267.385 87.7202ZM258.877 85.3562C258.487 85.4822 258.457 85.6742 258.457 85.8482C258.61 86.6394 259.034 87.3524 259.657 87.8642C259.879 87.0838 259.815 86.2498 259.477 85.5122C259.405 85.3682 259.267 85.2302 258.877 85.3562ZM253.843 91.8662C253.635 91.9283 253.457 92.0624 253.339 92.2442C253.287 92.3028 253.249 92.3728 253.228 92.4486C253.208 92.5244 253.205 92.6039 253.221 92.6809C253.237 92.7578 253.27 92.83 253.319 92.8917C253.367 92.9534 253.43 93.0029 253.501 93.0362C254.035 93.4082 255.247 93.5402 256.501 92.7842C255.909 92.262 255.181 91.9205 254.401 91.8002C254.212 91.7847 254.023 91.8072 253.843 91.8662Z" fill="#455A64"/>
<path d="M268.644 115.717C263.544 117.355 261.894 115.939 261.72 115.771C261.651 115.702 261.6 115.618 261.57 115.525L259.986 110.593C259.946 110.466 259.949 110.329 259.994 110.205C260.04 110.08 260.126 109.973 260.238 109.903C260.352 109.835 260.484 109.806 260.616 109.821C260.747 109.836 260.869 109.895 260.964 109.987C260.964 109.987 262.32 111.055 266.694 109.645C271.068 108.235 271.542 106.579 271.542 106.561C271.573 106.432 271.644 106.318 271.746 106.234C271.848 106.151 271.975 106.103 272.106 106.099C272.236 106.091 272.365 106.127 272.474 106.199C272.582 106.272 272.664 106.378 272.706 106.501L274.29 111.433C274.314 111.527 274.314 111.626 274.29 111.721C274.26 111.955 273.744 114.073 268.644 115.717Z" fill="#455A64"/>
<path d="M254.4 71.4726C254.249 71.52 254.086 71.5063 253.946 71.4344C253.805 71.3626 253.699 71.2383 253.65 71.0886L252.126 66.3426C252.09 66.2656 252.072 66.1819 252.071 66.0972C252.07 66.0124 252.087 65.9284 252.122 65.8508C252.156 65.7732 252.206 65.7037 252.269 65.6469C252.332 65.5901 252.406 65.5472 252.487 65.5212C252.567 65.4952 252.652 65.4865 252.737 65.4958C252.821 65.5051 252.902 65.5322 252.975 65.5752C253.048 65.6183 253.111 65.6763 253.16 65.7455C253.209 65.8147 253.243 65.8934 253.26 65.9766L254.784 70.7226C254.831 70.873 254.817 71.036 254.745 71.1764C254.674 71.3167 254.549 71.4232 254.4 71.4726Z" fill="#455A64"/>
<path d="M263.849 71.1499C263.75 71.1802 263.644 71.184 263.542 71.161C263.441 71.138 263.347 71.089 263.27 71.0188C263.193 70.9486 263.136 70.8596 263.104 70.7606C263.072 70.6615 263.066 70.5558 263.087 70.4539L264.137 65.5819C264.185 65.4437 264.283 65.3278 264.41 65.2563C264.538 65.1847 264.688 65.1623 264.831 65.1933C264.974 65.2243 265.101 65.3065 265.187 65.4245C265.274 65.5425 265.314 65.6881 265.301 65.8339L264.251 70.7059C264.229 70.8086 264.18 70.9037 264.11 70.9816C264.039 71.0595 263.949 71.1176 263.849 71.1499Z" fill="#455A64"/>
<path d="M272.196 75.6036C272.094 75.6385 271.985 75.6452 271.879 75.6231C271.773 75.6009 271.676 75.5507 271.596 75.4776C271.481 75.3711 271.411 75.2233 271.404 75.0662C271.396 74.9091 271.45 74.7552 271.554 74.6376L274.902 70.9356C274.952 70.868 275.016 70.8115 275.089 70.7699C275.162 70.7283 275.243 70.7026 275.327 70.6943C275.41 70.686 275.495 70.6955 275.574 70.7219C275.654 70.7484 275.728 70.7914 275.79 70.848C275.852 70.9046 275.901 70.9737 275.935 71.0507C275.969 71.1277 275.986 71.2109 275.986 71.295C275.985 71.3791 275.967 71.4621 275.932 71.5387C275.898 71.6153 275.847 71.6838 275.784 71.7396L272.436 75.4356C272.371 75.5106 272.289 75.5683 272.196 75.6036Z" fill="#455A64"/>
<path d="M281.952 82.0755L277.2 83.6055C277.123 83.6417 277.039 83.661 276.953 83.6621C276.868 83.6632 276.783 83.646 276.705 83.6118C276.627 83.5775 276.557 83.527 276.5 83.4635C276.443 83.4 276.4 83.3251 276.374 83.2437C276.348 83.1623 276.34 83.0763 276.35 82.9915C276.36 82.9067 276.388 82.825 276.432 82.7519C276.476 82.6788 276.535 82.616 276.606 82.5676C276.676 82.5193 276.756 82.4865 276.84 82.4715L281.586 80.9415C281.663 80.9061 281.747 80.8874 281.832 80.8867C281.916 80.886 282 80.9033 282.078 80.9374C282.156 80.9715 282.225 81.0217 282.282 81.0846C282.339 81.1475 282.382 81.2217 282.408 81.3024C282.434 81.3831 282.442 81.4684 282.433 81.5526C282.424 81.6369 282.397 81.7182 282.354 81.7913C282.311 81.8643 282.253 81.9274 282.183 81.9764C282.114 82.0254 282.035 82.0592 281.952 82.0755Z" fill="#455A64"/>
<path d="M282.402 94.0993C282.302 94.1295 282.195 94.1295 282.096 94.0993L277.2 93.0673C277.046 93.0328 276.912 92.9392 276.827 92.8067C276.741 92.6742 276.711 92.5135 276.744 92.3593C276.778 92.2055 276.872 92.0715 277.004 91.9862C277.137 91.9009 277.297 91.8711 277.452 91.9033L282.33 92.9533C282.454 92.9851 282.565 93.056 282.646 93.1556C282.727 93.2551 282.774 93.3781 282.78 93.5063C282.786 93.6346 282.751 93.7614 282.68 93.8681C282.608 93.9749 282.504 94.0559 282.384 94.0993H282.402Z" fill="#455A64"/>
<path d="M246.547 76.7175C246.445 76.7524 246.335 76.7591 246.229 76.737C246.124 76.7148 246.026 76.6646 245.947 76.5915L242.251 73.2435C242.135 73.137 242.066 72.9892 242.058 72.8321C242.05 72.675 242.104 72.5211 242.209 72.4035C242.315 72.286 242.464 72.2156 242.623 72.2078C242.782 72.1999 242.937 72.2552 243.055 72.3615L246.751 75.7095C246.868 75.8163 246.939 75.9653 246.946 76.1239C246.954 76.2824 246.899 76.4377 246.793 76.5555C246.725 76.6291 246.641 76.6848 246.547 76.7175Z" fill="#455A64"/>
<path d="M242.358 85.2008C242.256 85.2283 242.148 85.2283 242.046 85.2008L237.174 84.1508C237.036 84.1026 236.92 84.0054 236.849 83.8777C236.777 83.75 236.755 83.6005 236.786 83.4574C236.817 83.3143 236.899 83.1875 237.017 83.1008C237.135 83.0142 237.28 82.9736 237.426 82.9868L242.298 84.0368C242.452 84.0713 242.586 84.1649 242.671 84.2974C242.757 84.4299 242.786 84.5906 242.754 84.7448C242.734 84.8491 242.687 84.9462 242.618 85.0263C242.548 85.1064 242.459 85.1666 242.358 85.2008Z" fill="#455A64"/>
<path d="M242.964 94.6265L238.2 96.1505C238.056 96.1788 237.907 96.1532 237.78 96.0787C237.654 96.0041 237.559 95.8858 237.514 95.746C237.469 95.6062 237.476 95.4548 237.536 95.3203C237.595 95.1859 237.701 95.0778 237.834 95.0165L242.58 93.4865C242.728 93.4498 242.884 93.4705 243.017 93.5446C243.15 93.6186 243.25 93.7404 243.296 93.8853C243.343 94.0302 243.333 94.1874 243.268 94.325C243.203 94.4626 243.088 94.5704 242.946 94.6265H242.964Z" fill="#455A64"/>
<path d="M244.86 106.201C244.758 106.236 244.649 106.242 244.543 106.22C244.438 106.198 244.34 106.148 244.26 106.075C244.145 105.968 244.075 105.82 244.068 105.663C244.06 105.506 244.114 105.352 244.218 105.235L247.566 101.539C247.676 101.439 247.82 101.383 247.968 101.383C248.117 101.382 248.26 101.437 248.371 101.537C248.482 101.636 248.551 101.773 248.567 101.921C248.582 102.068 248.542 102.217 248.454 102.337L245.106 106.033C245.04 106.109 244.955 106.166 244.86 106.201Z" fill="#455A64"/>
<path d="M277.8 53.0345C276.372 53.6345 276 54.7685 276.45 55.8665C276.9 56.9645 277.986 57.5465 279.408 56.9585C280.83 56.3705 281.178 55.2125 280.722 54.1145C280.266 53.0165 279.186 52.4585 277.8 53.0345ZM272.4 38.7305C268.848 40.1885 267.162 43.0685 267.552 46.1465L271.932 45.5825C271.932 44.2925 272.352 43.3925 273.9 42.7565C275.448 42.1205 276.414 42.7565 276.768 43.6265C277.182 44.6285 276.588 45.7445 273.45 48.3485L275.19 52.5965L279.39 50.8625L278.4 48.5165C280.2 46.8785 282 44.4185 280.716 41.3165C279.546 38.4425 276.312 37.1105 272.364 38.7305H272.4Z" fill="#455A64"/>
<path d="M249.263 152.4C249.238 152.38 249.214 152.358 249.191 152.334L208.301 107.16C207.701 106.56 207.503 105.528 207.869 104.268C208.351 102.915 209.146 101.694 210.188 100.706C211.231 99.7176 212.492 98.9894 213.869 98.5805C215.159 98.2685 216.179 98.4965 216.779 99.1145L261.023 141.114L261.083 141.186C261.126 141.219 261.166 141.255 261.203 141.294C261.953 142.056 262.542 142.959 262.939 143.951C263.335 144.943 263.53 146.004 263.511 147.072C263.493 148.14 263.262 149.194 262.831 150.171C262.401 151.149 261.78 152.031 261.005 152.766C259.422 154.256 257.317 155.066 255.144 155.023C252.97 154.979 250.9 154.085 249.377 152.532C249.329 152.502 249.299 152.46 249.263 152.4Z" fill="#BA68C8"/>
<path opacity="0.25" d="M213.857 98.5964C216.437 97.9964 217.931 99.5024 217.199 102.016C216.719 103.371 215.925 104.593 214.882 105.583C213.839 106.572 212.578 107.301 211.199 107.71C208.619 108.31 207.125 106.804 207.857 104.284C208.339 102.931 209.134 101.71 210.176 100.722C211.219 99.7336 212.48 99.0053 213.857 98.5964Z" fill="black"/>
<path opacity="0.1" d="M255.815 143.157L216.029 104.289C216.546 103.597 216.942 102.822 217.199 101.997C217.565 100.743 217.385 99.7412 216.779 99.1172L261.011 141.117L261.071 141.189C261.114 141.222 261.154 141.258 261.191 141.297C261.94 142.059 262.53 142.962 262.927 143.954C263.323 144.946 263.517 146.007 263.499 147.075C263.481 148.143 263.249 149.196 262.819 150.174C262.389 151.152 261.768 152.034 260.993 152.769C262.373 150.555 259.745 146.961 255.815 143.157Z" fill="black"/>
<path d="M198.449 92.3048C198.735 91.4873 199.21 90.749 199.836 90.1504C200.461 89.5518 201.22 89.1098 202.049 88.8608C202.346 88.7559 202.665 88.7306 202.975 88.7874C203.284 88.8443 203.573 88.9813 203.813 89.1848L215.081 100.723C215.279 100.963 215.408 101.252 215.454 101.559C215.501 101.867 215.463 102.181 215.345 102.469C215.058 103.284 214.582 104.021 213.956 104.618C213.331 105.216 212.573 105.657 211.745 105.907C211.453 106.011 211.138 106.037 210.832 105.984C210.526 105.93 210.239 105.798 209.999 105.601L198.731 94.0628C198.529 93.8229 198.396 93.5326 198.347 93.2229C198.297 92.9132 198.332 92.5958 198.449 92.3048Z" fill="#E0E0E0"/>
<path opacity="0.25" d="M209.999 95.5244L205.799 91.2344C204.475 93.2744 203.085 95.2224 201.629 97.0784L205.751 101.278C207.255 99.4384 208.671 97.5204 209.999 95.5244Z" fill="black"/>
<path d="M210.953 27.2269L199.013 20.3329C192.329 16.4809 183.095 17.0329 172.889 22.9189C152.489 34.7089 135.941 63.359 135.941 86.927C135.941 98.711 140.075 106.985 146.741 110.849L158.657 117.725C161.583 119.382 164.896 120.231 168.257 120.185C173.219 120.185 178.823 118.565 184.757 115.139C205.157 103.355 221.705 74.699 221.705 51.137C221.753 39.365 217.625 31.0909 210.953 27.2269ZM193.931 77.741C187.457 88.949 178.931 97.985 169.931 103.175C165.215 105.893 160.637 107.375 156.659 107.429C154.733 104.009 153.701 99.395 153.701 93.8029C153.701 83.423 157.265 71.531 163.739 60.323C170.213 49.115 178.739 40.0789 187.739 34.889C192.455 32.1649 197.039 30.6889 201.017 30.6349C202.937 34.0609 203.969 38.6749 203.969 44.2609C203.999 54.6409 200.399 66.533 193.931 77.741Z" fill="#455A64"/>
<path opacity="0.1" d="M145.596 52.5888L162.6 62.3988C162.978 61.7028 163.362 61.0068 163.764 60.3167C165.753 56.8562 167.987 53.5419 170.448 50.3988L153.408 40.5648C150.489 44.3595 147.877 48.3801 145.596 52.5888ZM162.396 30.7188C160.674 32.2968 159.012 33.9827 157.41 35.7587L174.54 45.6407C176.161 43.8975 177.876 42.2431 179.676 40.6847L162.396 30.7188Z" fill="white"/>
<path d="M158.633 117.693L146.765 110.846C140.075 106.982 135.965 98.7085 135.965 86.9245C135.965 86.4685 135.965 86.0185 135.965 85.5625L147.875 92.4385C147.875 92.8945 147.875 93.3505 147.875 93.8005C147.857 105.548 151.979 113.816 158.633 117.693Z" fill="#37474F"/>
<path d="M201.311 30.6289H200.999C202.919 34.0549 203.951 38.6689 203.951 44.2549C203.951 54.6349 200.387 66.5269 193.913 77.7349C187.439 88.9429 178.913 97.9789 169.913 103.169C165.197 105.887 160.619 107.369 156.641 107.423C159.131 111.869 163.109 114.311 168.263 114.311C172.313 114.311 176.999 112.835 181.829 110.051C190.829 104.861 199.337 95.8309 205.829 84.6169C212.321 73.4029 215.861 61.5169 215.861 51.1309C215.885 38.2969 210.443 30.6289 201.311 30.6289Z" fill="#263238"/>
<path opacity="0.3" d="M210.341 47.9493C210.341 58.3293 206.777 70.2273 200.303 81.4353C193.829 92.6433 185.303 101.679 176.303 106.863C171.473 109.653 166.781 111.129 162.737 111.129C161.509 111.135 160.284 110.982 159.095 110.673C158.142 109.706 157.325 108.614 156.665 107.427C154.739 104.007 153.707 99.3933 153.707 93.8013C153.707 83.4213 157.271 71.5293 163.745 60.3213C170.219 49.1133 178.745 40.0773 187.745 34.8873C192.461 32.1633 197.045 30.6873 201.023 30.6333H201.317C202.55 30.6233 203.779 30.7787 204.971 31.0953C208.427 34.5453 210.341 40.3413 210.341 47.9493Z" fill="white"/>
<path d="M184.799 29.8054C164.399 41.5834 147.851 70.2394 147.851 93.8014C147.851 117.363 164.399 126.921 184.799 115.137C205.199 103.353 221.759 74.7034 221.759 51.1354C221.759 27.5674 205.199 17.9974 184.799 29.8054ZM181.865 110.055C177.035 112.839 172.349 114.315 168.299 114.315C163.145 114.315 159.167 111.873 156.677 107.427C154.751 104.007 153.719 99.3934 153.719 93.8014C153.719 83.4214 157.283 71.5294 163.757 60.3214C170.231 49.1134 178.757 40.0774 187.757 34.8874C192.473 32.1634 197.057 30.6874 201.035 30.6334H201.329C210.461 30.6334 215.903 38.3014 215.903 51.1414C215.903 61.5274 212.345 73.4194 205.871 84.6274C199.397 95.8354 190.865 104.865 181.871 110.055H181.865Z" fill="#37474F"/>
<path d="M156.821 60.7734C153.413 67.4157 150.89 74.4757 149.315 81.7734C148.554 85.4184 148.134 89.1265 148.061 92.8494C147.961 96.5648 148.364 100.277 149.261 103.883C150.136 107.499 151.825 110.867 154.199 113.729C156.615 116.566 159.863 118.571 163.481 119.459C167.115 120.292 170.897 120.234 174.503 119.291C178.113 118.396 181.579 116.999 184.799 115.139C181.594 117.071 178.132 118.54 174.515 119.501C170.875 120.48 167.052 120.563 163.373 119.741C159.689 118.87 156.372 116.861 153.893 113.999C151.474 111.101 149.748 107.688 148.847 104.021C147.962 100.372 147.574 96.6204 147.695 92.8674C147.793 89.1241 148.239 85.3981 149.027 81.7374C149.818 78.0845 150.871 74.4932 152.177 70.9914C153.514 67.4933 155.065 64.0808 156.821 60.7734Z" fill="#455A64"/>
<path d="M201.31 30.6269C203.158 30.5966 204.994 30.9331 206.71 31.6169C208.433 32.3403 209.972 33.439 211.216 34.8329C212.455 36.2436 213.445 37.8545 214.144 39.5969C214.856 41.3194 215.372 43.1168 215.68 44.9549C216.267 48.6234 216.374 52.3527 215.998 56.0489C215.642 59.7463 214.949 63.4034 213.928 66.9749C212.933 70.5432 211.659 74.0279 210.118 77.3969C208.595 80.7814 206.851 84.0624 204.898 87.2189C201.032 93.5801 196.258 99.3428 190.726 104.325C187.929 106.794 184.883 108.965 181.636 110.805C178.381 112.695 174.812 113.983 171.1 114.609C169.216 114.902 167.296 114.88 165.418 114.543C162.566 113.988 159.985 112.487 158.092 110.283C157.47 109.563 156.917 108.786 156.442 107.961C155.506 106.319 154.8 104.557 154.342 102.723C153.47 99.0897 153.154 95.3449 153.406 91.6169C153.624 87.9098 154.201 84.2326 155.128 80.6369C156.056 77.0531 157.259 73.5466 158.728 70.1489C160.18 66.754 161.862 63.4623 163.762 60.2969C160.143 66.7197 157.425 73.6105 155.686 80.7749C154.829 84.3415 154.314 87.9822 154.15 91.6469C153.954 95.2938 154.312 98.9494 155.212 102.489C155.674 104.232 156.372 105.904 157.288 107.457C158.178 109.005 159.372 110.356 160.798 111.429C162.22 112.479 163.861 113.193 165.598 113.517C167.36 113.826 169.161 113.838 170.926 113.553C174.503 112.924 177.939 111.662 181.072 109.827C184.238 108.009 187.208 105.87 189.934 103.443C195.41 98.5586 200.14 92.8985 203.974 86.6429C207.871 80.4222 210.923 73.7115 213.052 66.6869C214.107 63.1768 214.84 59.5779 215.242 55.9349C215.669 52.294 215.62 48.6133 215.098 44.9849C214.841 43.1762 214.378 41.4028 213.718 39.6989C213.076 37.9899 212.154 36.4001 210.988 34.9949C209.795 33.6256 208.316 32.5341 206.656 31.7969C204.969 31.0571 203.152 30.6595 201.31 30.6269Z" fill="#455A64"/>
<path d="M57.4251 64.5798C57.2875 64.5036 57.1324 64.4643 56.9751 64.4658L49.3491 63.9258V73.8018L53.5071 76.2018L61.7271 68.4738C61.8371 68.3796 61.923 68.2607 61.9779 68.1267C62.0328 67.9928 62.055 67.8477 62.0426 67.7035C62.0303 67.5592 61.9839 67.42 61.9071 67.2973C61.8303 67.1746 61.7254 67.0719 61.6011 66.9978L57.4251 64.5798Z" fill="#BA68C8"/>
<path opacity="0.2" d="M57.4251 64.5798C57.2875 64.5036 57.1324 64.4643 56.9751 64.4658L49.3491 63.9258V73.8018L53.5071 76.2018L61.7271 68.4738C61.8371 68.3796 61.923 68.2607 61.9779 68.1267C62.0328 67.9928 62.055 67.8477 62.0426 67.7035C62.0303 67.5592 61.9839 67.42 61.9071 67.2973C61.8303 67.1746 61.7254 67.0719 61.6011 66.9978L57.4251 64.5798Z" fill="black"/>
<path d="M53.5073 66.3281L61.1333 66.8681C61.3197 66.8674 61.5018 66.9237 61.6551 67.0296C61.8084 67.1354 61.9257 67.2857 61.991 67.4602C62.0564 67.6347 62.0667 67.8251 62.0207 68.0056C61.9746 68.1862 61.8743 68.3483 61.7333 68.4701L53.5073 76.2041V66.3281Z" fill="#BA68C8"/>
<path d="M54.0478 51.6314C54.0193 51.0594 53.8548 50.5024 53.5678 50.0067C53.2808 49.511 52.8797 49.0909 52.3978 48.7814L51.0598 48.0014C50.5487 47.7411 49.9833 47.6055 49.4098 47.6055C48.8363 47.6055 48.2709 47.7411 47.7598 48.0014L20.0638 64.0154C19.5838 64.3284 19.1843 64.7501 18.8976 65.2463C18.6109 65.7425 18.4452 66.2992 18.4138 66.8714V101.227C18.4452 101.8 18.6109 102.356 18.8976 102.853C19.1843 103.349 19.5838 103.77 20.0638 104.083L21.4078 104.857C21.9187 105.115 22.4828 105.249 23.0548 105.249C23.6269 105.249 24.191 105.115 24.7018 104.857L52.3978 88.8434C52.8797 88.5339 53.2808 88.1138 53.5678 87.6181C53.8548 87.1225 54.0193 86.5655 54.0478 85.9934V51.6314Z" fill="#BA68C8"/>
<path opacity="0.2" d="M18.4139 101.228C18.4452 101.8 18.611 102.357 18.8976 102.853C19.1843 103.349 19.5838 103.771 20.0639 104.084L21.4079 104.858C21.8705 105.09 22.3768 105.221 22.8938 105.244C23.4107 105.267 23.9267 105.18 24.4079 104.99C23.6339 105.284 23.0399 104.846 23.0399 103.904V69.5481C23.0614 68.9737 23.2286 68.4141 23.5259 67.9221L18.8879 65.2461C18.5891 65.7375 18.4218 66.2974 18.4019 66.8721L18.4139 101.228Z" fill="black"/>
<path opacity="0.25" d="M53.9998 51.1629C53.8078 50.4669 53.1718 50.2449 52.4098 50.6829L24.7018 66.6969C24.2156 66.9884 23.8143 67.4021 23.5378 67.8969L18.9058 65.2209C19.182 64.7279 19.5809 64.3145 20.0638 64.0209L47.7598 48.0009C48.2706 47.7435 48.8347 47.6094 49.4068 47.6094C49.9788 47.6094 50.5429 47.7435 51.0538 48.0009L52.4038 48.7749C52.8178 49.044 53.1727 49.3944 53.4471 49.8049C53.7215 50.2154 53.9095 50.6774 53.9998 51.1629Z" fill="white"/>
<path d="M37.3627 86.3988C35.9107 87.2388 35.1727 89.0028 35.1727 90.7248C35.1727 92.4468 35.9107 93.4008 37.3627 92.5608C38.8147 91.7208 39.5347 89.9388 39.5347 88.2108C39.5347 86.4828 38.7907 85.5948 37.3627 86.3988ZM37.7467 63.9648C34.1467 66.0528 31.6267 70.4388 30.8647 75.2388L34.8907 74.5608C35.3527 72.5688 36.0367 71.1888 37.6207 70.2768C39.2047 69.3648 39.8107 70.3848 39.8107 71.7588C39.8107 73.3308 38.8927 75.0348 35.2207 78.9228V85.5948L39.5347 83.1048V79.4388C41.6767 76.9848 44.1247 73.2528 44.1247 68.4228C44.1247 63.8688 41.7787 61.6548 37.7467 63.9828V63.9648Z" fill="white"/>
</svg>
