<svg width="300" height="300" viewBox="0 0 300 300" fill="none" xmlns="http://www.w3.org/2000/svg">
<path d="M64.2014 249.72C112.621 278.976 191.119 278.976 239.533 249.72C287.947 220.464 287.947 173.022 239.533 143.766C191.119 114.51 112.621 114.51 64.2014 143.766C15.7814 173.022 15.7874 220.458 64.2014 249.72Z" fill="#455A64"/>
<path d="M43.9431 181.317C43.9431 181.317 42.9231 172.317 38.4531 165.363C33.9831 158.409 27.8451 154.041 22.1151 153.597C16.3851 153.153 11.7591 158.397 17.9151 162.039C24.0711 165.681 34.9371 169.347 39.9471 182.889L43.9431 181.317Z" fill="#BA68C8"/>
<path d="M43.9431 181.317C43.9431 181.317 42.9231 172.317 38.4531 165.363C33.9831 158.409 27.8451 154.041 22.1151 153.597C16.3851 153.153 11.7591 158.397 17.9151 162.039C24.0711 165.681 34.9371 169.347 39.9471 182.889L43.9431 181.317Z" fill="#263238"/>
<path d="M42.2632 178.983C42.2827 178.989 42.3036 178.989 42.3232 178.983C42.3606 178.969 42.3947 178.947 42.4235 178.919C42.4523 178.891 42.4752 178.857 42.4908 178.821C42.5065 178.784 42.5146 178.744 42.5147 178.704C42.5147 178.664 42.5067 178.624 42.4912 178.587C36.4492 163.701 24.9412 157.479 19.6912 156.273C19.6518 156.264 19.611 156.263 19.5712 156.27C19.5315 156.277 19.4935 156.292 19.4595 156.314C19.4254 156.336 19.3961 156.364 19.373 156.397C19.35 156.43 19.3337 156.468 19.3252 156.507C19.3088 156.586 19.3233 156.668 19.3658 156.736C19.4083 156.804 19.4754 156.853 19.5532 156.873C24.6892 158.073 35.9692 164.163 41.9212 178.815C41.9499 178.878 41.9997 178.93 42.0621 178.96C42.1245 178.991 42.1955 178.999 42.2632 178.983Z" fill="white"/>
<path d="M11.663 179.163C12.179 180.333 13.463 180.963 14.663 181.419C15.863 181.875 17.141 182.409 17.783 183.513C19.073 185.751 16.955 188.913 18.341 191.061C18.6652 191.496 19.0743 191.86 19.5435 192.133C20.0128 192.405 20.5325 192.579 21.071 192.645C21.9601 192.773 22.8554 192.853 23.753 192.885C24.1806 192.88 24.6075 192.848 25.031 192.789C26.2724 192.51 27.5712 192.647 28.727 193.179C30.527 194.181 31.049 196.419 32.123 198.147C32.7917 199.169 33.6745 200.034 34.7105 200.682C35.7466 201.329 36.9109 201.744 38.123 201.897C38.921 202.005 40.403 202.149 41.213 201.693C41.2714 201.663 41.3275 201.629 41.381 201.591C41.495 201.465 41.633 201.303 41.693 201.219C41.7052 201.202 41.7153 201.184 41.723 201.165C42.041 200.007 41.525 198.801 41.507 197.607C41.501 197.535 41.501 197.463 41.507 197.391C41.555 195.999 41.597 194.619 41.627 193.227C41.691 190.679 41.717 188.125 41.705 185.565C41.705 183.903 41.885 182.091 41.183 180.525C40.409 178.809 38.471 178.767 37.745 177.081C37.451 176.409 37.295 175.689 37.013 175.011C36.5729 174.015 35.8681 173.159 34.9752 172.536C34.0823 171.913 33.0356 171.546 31.949 171.477C28.577 171.303 25.547 174.039 22.175 173.787C21.3066 173.67 20.4453 173.506 19.595 173.295C16.859 172.785 13.703 173.565 12.167 175.875C11.821 176.34 11.5942 176.883 11.5063 177.456C11.4185 178.029 11.4723 178.615 11.663 179.163Z" fill="#37474F"/>
<path d="M41.9987 195.832C42.0352 195.823 42.0695 195.807 42.0996 195.784C42.1297 195.762 42.155 195.733 42.174 195.701C42.193 195.668 42.2053 195.633 42.2102 195.595C42.2152 195.558 42.2126 195.52 42.2027 195.484C37.5467 177.982 19.1147 175.456 14.8007 175.798C14.7631 175.8 14.7263 175.81 14.6926 175.827C14.6588 175.843 14.6287 175.867 14.6041 175.895C14.5795 175.924 14.5609 175.957 14.5493 175.993C14.5377 176.029 14.5334 176.066 14.5367 176.104C14.5428 176.179 14.5784 176.249 14.6356 176.299C14.6929 176.348 14.7673 176.373 14.8427 176.368C19.0427 176.068 37.0907 178.54 41.6507 195.652C41.6753 195.72 41.7248 195.777 41.7894 195.81C41.8539 195.844 41.9287 195.851 41.9987 195.832Z" fill="white"/>
<path d="M21.5029 186.97C21.5607 186.959 21.6134 186.929 21.6529 186.886C23.3571 185.413 25.3643 184.333 27.5324 183.722C29.7006 183.111 31.9765 182.985 34.1989 183.352C34.2384 183.363 34.28 183.367 34.3209 183.361C34.3618 183.355 34.4009 183.341 34.4357 183.319C34.4706 183.296 34.5002 183.267 34.5227 183.232C34.5451 183.198 34.5599 183.159 34.566 183.118C34.5721 183.077 34.5693 183.036 34.5579 182.996C34.5465 182.956 34.5267 182.92 34.4998 182.888C34.473 182.857 34.4397 182.832 34.4023 182.814C34.3649 182.797 34.3241 182.788 34.2829 182.788C31.9716 182.405 29.6043 182.538 27.3504 183.177C25.0965 183.816 23.0116 184.945 21.2449 186.484C21.1921 186.538 21.1626 186.611 21.1626 186.688C21.1626 186.764 21.1921 186.837 21.2449 186.892C21.278 186.925 21.3189 186.95 21.364 186.963C21.409 186.977 21.4568 186.979 21.5029 186.97Z" fill="white"/>
<path d="M189.361 31.4681L222.523 50.6201C222.846 50.8306 223.114 51.114 223.307 51.4476C223.5 51.7811 223.612 52.1554 223.633 52.5401V143.704C223.612 144.089 223.5 144.463 223.307 144.797C223.114 145.13 222.846 145.414 222.523 145.624L189.361 164.776C189.017 164.951 188.637 165.042 188.251 165.042C187.865 165.042 187.485 164.951 187.141 164.776L153.979 145.624C153.656 145.414 153.386 145.131 153.193 144.797C153.001 144.464 152.889 144.089 152.869 143.704V52.5401C152.89 52.1554 153.002 51.7811 153.195 51.4476C153.388 51.114 153.656 50.8306 153.979 50.6201L187.141 31.4681C187.486 31.2964 187.866 31.207 188.251 31.207C188.636 31.207 189.016 31.2964 189.361 31.4681Z" fill="#37474F"/>
<path d="M152.869 52.5404V143.704C152.89 144.088 153.001 144.462 153.193 144.796C153.384 145.129 153.652 145.413 153.973 145.624L187.141 164.776C187.482 164.959 187.864 165.05 188.251 165.04V71.3084C187.865 71.3151 187.483 71.2243 187.141 71.0444L153.973 51.8984L153.673 51.6464L153.277 51.3164C153.028 51.6774 152.886 52.1019 152.869 52.5404Z" fill="#263238"/>
<path d="M218.36 61.5108L193.52 75.8508C193.197 76.0622 192.928 76.3467 192.735 76.6813C192.542 77.0159 192.431 77.3912 192.41 77.7768V87.2268C192.41 87.9348 192.902 88.2228 193.514 87.8688L218.354 73.5288C218.677 73.3184 218.945 73.0349 219.138 72.7013C219.331 72.3678 219.443 71.9935 219.464 71.6088V62.1528C219.47 61.4448 219.002 61.1568 218.36 61.5108Z" fill="#455A64"/>
<path d="M217.386 65.6774C217.357 66.0496 217.242 66.4099 217.049 66.7297C216.856 67.0494 216.592 67.3198 216.276 67.5194L195.6 79.4534C195 79.8074 194.49 79.5554 194.49 78.8954C194.519 78.5232 194.635 78.1629 194.827 77.8431C195.02 77.5233 195.285 77.2529 195.6 77.0534L216.276 65.1134C216.888 64.7594 217.386 65.0114 217.386 65.6774Z" fill="#BA68C8"/>
<path d="M217.388 70.486C217.359 70.8582 217.244 71.2185 217.051 71.5383C216.858 71.858 216.594 72.1284 216.278 72.328L195.602 84.262C195.002 84.616 194.492 84.364 194.492 83.704C194.521 83.3318 194.637 82.9714 194.829 82.6517C195.022 82.3319 195.287 82.0615 195.602 81.862L216.278 69.922C216.89 69.568 217.388 69.82 217.388 70.486Z" fill="#263238"/>
<path d="M216.277 69.9221L204.877 76.5221V78.9221L216.277 72.3221C216.592 72.1226 216.857 71.8522 217.05 71.5324C217.242 71.2127 217.358 70.8523 217.387 70.4801C217.387 69.8201 216.889 69.5681 216.277 69.9221Z" fill="#BA68C8"/>
<path d="M218.36 78.3323L193.52 92.6723C193.198 92.8831 192.929 93.1666 192.736 93.5001C192.544 93.8336 192.432 94.2077 192.41 94.5923V104.048C192.41 104.756 192.902 105.044 193.514 104.69L218.354 90.3503C218.677 90.1399 218.945 89.8564 219.138 89.5229C219.331 89.1893 219.443 88.815 219.464 88.4303V78.9743C219.47 78.2663 219.002 78.0023 218.36 78.3323Z" fill="#455A64"/>
<path d="M217.388 82.4995C217.36 82.8728 217.245 83.2343 217.052 83.5552C216.859 83.876 216.594 84.1474 216.278 84.3475L195.602 96.2815C195.002 96.6355 194.492 96.3835 194.492 95.7235C194.52 95.3503 194.635 94.9888 194.828 94.6679C195.021 94.347 195.286 94.0757 195.602 93.8755L216.278 81.9415C216.89 81.6055 217.388 81.8395 217.388 82.4995Z" fill="#BA68C8"/>
<path d="M217.388 87.3088C217.359 87.681 217.244 88.0413 217.051 88.3611C216.858 88.6808 216.594 88.9512 216.278 89.1508L195.602 101.085C195.002 101.439 194.492 101.187 194.492 100.527C194.521 100.155 194.637 99.7943 194.829 99.4745C195.022 99.1547 195.287 98.8843 195.602 98.6848L216.278 86.7448C216.89 86.4028 217.388 86.6428 217.388 87.3088Z" fill="#263238"/>
<path d="M216.276 86.748L198.654 96.948V99.348L216.276 89.178C216.592 88.9785 216.856 88.7081 217.049 88.3883C217.242 88.0685 217.357 87.7082 217.386 87.336C217.386 86.646 216.888 86.406 216.276 86.748Z" fill="#BA68C8"/>
<path d="M218.36 95.1592L193.52 109.499C193.197 109.71 192.929 109.993 192.736 110.327C192.543 110.66 192.431 111.035 192.41 111.419V120.875C192.41 121.583 192.902 121.871 193.514 121.517L218.354 107.177C218.677 106.966 218.946 106.681 219.139 106.347C219.332 106.012 219.443 105.637 219.464 105.251V95.8012C219.47 95.0932 219.002 94.8052 218.36 95.1592Z" fill="#455A64"/>
<path d="M217.386 99.3226C217.357 99.6948 217.242 100.055 217.049 100.375C216.856 100.695 216.592 100.965 216.276 101.165L195.6 113.105C195 113.459 194.49 113.207 194.49 112.541C194.519 112.168 194.635 111.808 194.827 111.488C195.02 111.169 195.285 110.898 195.6 110.699L216.276 98.7646C216.888 98.4046 217.386 98.6626 217.386 99.3226Z" fill="#BA68C8"/>
<path d="M217.386 104.13C217.357 104.502 217.242 104.862 217.049 105.182C216.856 105.502 216.592 105.772 216.276 105.972L195.6 117.912C195 118.266 194.49 118.014 194.49 117.348C194.519 116.976 194.635 116.615 194.827 116.296C195.02 115.976 195.285 115.706 195.6 115.506L216.276 103.572C216.888 103.206 217.386 103.47 217.386 104.13Z" fill="#263238"/>
<path d="M216.276 103.572L209.076 107.736V110.136L216.276 105.966C216.592 105.767 216.856 105.496 217.049 105.176C217.242 104.857 217.357 104.496 217.386 104.124C217.386 103.47 216.888 103.206 216.276 103.572Z" fill="#BA68C8"/>
<path d="M218.36 111.982L193.52 126.322C193.197 126.533 192.929 126.816 192.736 127.15C192.543 127.483 192.431 127.858 192.41 128.242V137.698C192.41 138.406 192.902 138.694 193.514 138.34L218.354 124C218.677 123.789 218.946 123.504 219.139 123.17C219.332 122.835 219.443 122.46 219.464 122.074V112.624C219.47 111.916 219.002 111.604 218.36 111.982Z" fill="#455A64"/>
<path d="M217.388 116.148C217.359 116.52 217.244 116.881 217.051 117.2C216.858 117.52 216.594 117.791 216.278 117.99L195.602 129.93C195.002 130.284 194.492 130.032 194.492 129.366C194.521 128.994 194.637 128.634 194.829 128.314C195.022 127.994 195.287 127.724 195.602 127.524L216.278 115.59C216.89 115.236 217.388 115.488 217.388 116.148Z" fill="#BA68C8"/>
<path d="M217.386 120.953C217.357 121.325 217.242 121.685 217.049 122.005C216.856 122.325 216.592 122.595 216.276 122.795L195.6 134.735C195 135.089 194.49 134.837 194.49 134.171C194.519 133.799 194.635 133.438 194.827 133.119C195.02 132.799 195.285 132.528 195.6 132.329L216.276 120.395C216.888 120.041 217.386 120.293 217.386 120.953Z" fill="#263238"/>
<path d="M216.277 120.395L204.877 126.965V129.365L216.277 122.795C216.592 122.595 216.857 122.325 217.05 122.005C217.242 121.685 217.358 121.325 217.387 120.953C217.387 120.293 216.889 120.041 216.277 120.395Z" fill="#BA68C8"/>
<path d="M218.36 128.805L193.52 143.145C193.197 143.355 192.929 143.639 192.736 143.972C192.543 144.306 192.431 144.68 192.41 145.065V154.521C192.41 155.229 192.902 155.511 193.514 155.157L218.354 140.817C218.677 140.607 218.945 140.323 219.138 139.99C219.331 139.656 219.443 139.282 219.464 138.897V129.441C219.47 128.733 219.002 128.451 218.36 128.805Z" fill="#455A64"/>
<path d="M217.388 132.972C217.359 133.344 217.244 133.704 217.051 134.024C216.858 134.344 216.594 134.614 216.278 134.814L195.602 146.754C195.002 147.102 194.492 146.856 194.492 146.19C194.521 145.817 194.637 145.457 194.829 145.137C195.022 144.818 195.287 144.547 195.602 144.348L216.278 132.408C216.89 132.06 217.388 132.306 217.388 132.972Z" fill="#BA68C8"/>
<path d="M217.386 137.774C217.357 138.146 217.242 138.507 217.049 138.827C216.856 139.146 216.592 139.417 216.276 139.616L195.6 151.556C195 151.91 194.49 151.658 194.49 150.992C194.519 150.62 194.635 150.26 194.827 149.94C195.02 149.62 195.285 149.35 195.6 149.15L216.276 137.216C216.888 136.862 217.386 137.108 217.386 137.774Z" fill="#263238"/>
<path d="M216.278 137.217L200.738 146.187V148.587L216.278 139.587C216.594 139.388 216.858 139.117 217.051 138.797C217.244 138.478 217.359 138.117 217.388 137.745C217.388 137.109 216.89 136.863 216.278 137.217Z" fill="#BA68C8"/>
<path d="M183.049 77.0986C181.897 76.4326 180.967 77.0386 180.967 78.4546V133.421C180.997 134.167 181.201 134.897 181.562 135.551C181.924 136.205 182.433 136.766 183.049 137.189C184.195 137.855 185.125 137.249 185.125 135.833V80.8666C185.096 80.1203 184.893 79.3911 184.533 78.737C184.173 78.0829 183.664 77.5219 183.049 77.0986Z" fill="#37474F"/>
<path d="M183.048 135.971C182.739 135.76 182.484 135.48 182.303 135.152C182.121 134.825 182.019 134.46 182.004 134.087V78.9708C182.004 78.2628 182.472 77.9568 183.048 78.2928C183.355 78.5038 183.608 78.7834 183.788 79.1093C183.969 79.4353 184.07 79.7987 184.086 80.1708V135.293C184.086 135.995 183.6 136.301 183.048 135.971Z" fill="#263238"/>
<path d="M183.048 135.97C182.739 135.759 182.484 135.479 182.303 135.152C182.121 134.825 182.019 134.46 182.004 134.086V107.734L184.086 108.934V135.286C184.086 135.994 183.6 136.3 183.048 135.97Z" fill="#BA68C8"/>
<path d="M176.803 73.4931C175.651 72.8271 174.721 73.4331 174.721 74.8491V129.815C174.748 130.563 174.95 131.293 175.312 131.948C175.674 132.602 176.185 133.163 176.803 133.583C177.949 134.249 178.885 133.643 178.885 132.227V77.2611C178.855 76.5143 178.652 75.7848 178.29 75.1306C177.929 74.4765 177.419 73.9157 176.803 73.4931Z" fill="#37474F"/>
<path d="M176.804 132.363C176.495 132.152 176.24 131.872 176.058 131.544C175.877 131.217 175.775 130.852 175.76 130.479V75.3627C175.76 74.6547 176.228 74.3547 176.804 74.6847C177.111 74.8964 177.365 75.1769 177.546 75.5039C177.726 75.831 177.827 76.1956 177.842 76.5687V131.685C177.842 132.393 177.38 132.693 176.804 132.363Z" fill="#BA68C8"/>
<path d="M170.556 69.8904C169.41 69.2184 168.474 69.8304 168.474 71.2404V126.206C168.504 126.953 168.708 127.683 169.069 128.337C169.431 128.991 169.94 129.552 170.556 129.974C171.708 130.64 172.638 130.034 172.638 128.618V73.6584C172.612 72.911 172.409 72.1804 172.047 71.5258C171.686 70.8712 171.175 70.3109 170.556 69.8904Z" fill="#37474F"/>
<path d="M170.557 128.756C170.249 128.547 169.993 128.268 169.813 127.942C169.633 127.615 169.532 127.251 169.519 126.878V71.7563C169.519 71.0543 169.981 70.7483 170.557 71.0783C170.866 71.2892 171.121 71.5695 171.303 71.8966C171.484 72.2237 171.586 72.5886 171.601 72.9623V128.078C171.601 128.786 171.133 129.092 170.557 128.756Z" fill="#263238"/>
<path d="M170.557 128.755C170.248 128.546 169.993 128.267 169.813 127.941C169.632 127.615 169.532 127.25 169.519 126.877V84.2773L171.601 85.4773V128.077C171.601 128.785 171.133 129.091 170.557 128.755Z" fill="#BA68C8"/>
<path d="M164.316 66.2861C163.164 65.6201 162.234 66.2261 162.234 67.6421V122.602C162.261 123.35 162.464 124.08 162.825 124.735C163.187 125.389 163.698 125.95 164.316 126.37C165.462 127.036 166.392 126.43 166.392 125.014V70.0541C166.363 69.3078 166.16 68.5786 165.8 67.9245C165.44 67.2704 164.932 66.7094 164.316 66.2861Z" fill="#37474F"/>
<path d="M164.317 125.151C164.009 124.94 163.755 124.661 163.573 124.335C163.392 124.009 163.289 123.645 163.273 123.273V68.1567C163.273 67.4487 163.741 67.1427 164.317 67.4727C164.625 67.6843 164.879 67.9648 165.059 68.2919C165.239 68.6189 165.341 68.9835 165.355 69.3567V124.473C165.355 125.181 164.887 125.487 164.317 125.151Z" fill="#263238"/>
<path d="M164.317 125.153C164.009 124.942 163.755 124.663 163.573 124.337C163.392 124.011 163.289 123.647 163.273 123.275V113.969L165.355 115.169V124.469C165.355 125.183 164.887 125.489 164.317 125.153Z" fill="#BA68C8"/>
<path d="M158.07 62.6767C156.918 62.0107 155.988 62.6167 155.988 64.0327V118.993C156.015 119.74 156.218 120.471 156.579 121.125C156.941 121.78 157.452 122.34 158.07 122.761C159.216 123.433 160.152 122.821 160.152 121.411V66.4447C160.122 65.6979 159.919 64.9684 159.557 64.3142C159.196 63.6601 158.687 63.0993 158.07 62.6767Z" fill="#37474F"/>
<path d="M158.071 121.553C157.762 121.342 157.507 121.062 157.326 120.735C157.144 120.407 157.042 120.042 157.027 119.669V64.5528C157.027 63.8448 157.495 63.5388 158.071 63.8748C158.38 64.0838 158.635 64.3629 158.815 64.6893C158.995 65.0157 159.096 65.3801 159.109 65.7528V120.869C159.109 121.577 158.647 121.883 158.071 121.553Z" fill="#263238"/>
<path d="M158.071 121.548C157.762 121.337 157.507 121.057 157.326 120.73C157.145 120.403 157.042 120.038 157.027 119.664V90.9062L159.109 92.1062V120.858C159.109 121.572 158.647 121.878 158.071 121.548Z" fill="#BA68C8"/>
<path d="M184.236 143.872L156.876 128.074C156.384 127.792 155.988 128.02 155.988 128.59V138.556C156.005 138.864 156.094 139.163 156.248 139.43C156.402 139.697 156.618 139.924 156.876 140.092L184.236 155.89C184.728 156.172 185.124 155.944 185.124 155.38V145.408C185.108 145.1 185.019 144.8 184.864 144.533C184.71 144.266 184.495 144.04 184.236 143.872Z" fill="#37474F"/>
<path d="M183.116 146.829C183.116 147.489 182.618 147.741 182.006 147.387L159.11 134.187C158.794 133.988 158.53 133.717 158.337 133.398C158.144 133.078 158.029 132.718 158 132.345C158 131.679 158.498 131.427 159.11 131.781L182.006 144.981C182.322 145.181 182.587 145.453 182.78 145.774C182.973 146.095 183.088 146.456 183.116 146.829Z" fill="#263238"/>
<path d="M183.115 146.829C183.115 147.489 182.617 147.741 182.005 147.387L165.355 137.787V135.387L182.005 144.987C182.321 145.186 182.586 145.457 182.778 145.776C182.971 146.096 183.086 146.457 183.115 146.829Z" fill="#BA68C8"/>
<path d="M183.116 151.638C183.116 152.298 182.618 152.55 182.006 152.196L159.11 138.996C158.794 138.796 158.53 138.526 158.337 138.206C158.144 137.886 158.029 137.526 158 137.154C158 136.488 158.498 136.236 159.11 136.59L182.006 149.79C182.322 149.99 182.587 150.261 182.78 150.582C182.973 150.903 183.088 151.265 183.116 151.638Z" fill="#263238"/>
<path d="M183.115 151.637C183.115 152.297 182.617 152.549 182.005 152.195L175.759 148.595V146.195L182.005 149.795C182.321 149.995 182.585 150.265 182.778 150.585C182.971 150.905 183.086 151.265 183.115 151.637Z" fill="#BA68C8"/>
<path d="M153.98 50.6201L187.142 31.4681C187.486 31.2964 187.866 31.207 188.252 31.207C188.637 31.207 189.017 31.2964 189.362 31.4681L222.523 50.6201C222.658 50.664 222.776 50.7495 222.859 50.8643C222.943 50.9791 222.988 51.1173 222.988 51.2591C222.988 51.401 222.943 51.5392 222.859 51.654C222.776 51.7688 222.658 51.8542 222.523 51.8981L189.362 71.0441C189.018 71.2186 188.637 71.3095 188.252 71.3095C187.866 71.3095 187.486 71.2186 187.142 71.0441L153.98 51.8981C153.845 51.8542 153.727 51.7688 153.644 51.654C153.56 51.5392 153.516 51.401 153.516 51.2591C153.516 51.1173 153.56 50.9791 153.644 50.8643C153.727 50.7495 153.845 50.664 153.98 50.6201Z" fill="#455A64"/>
<path d="M188.917 66.4947L214.639 51.6387C214.834 51.5136 214.996 51.3439 215.112 51.1435C215.228 50.9431 215.294 50.7179 215.305 50.4867V49.6227C215.294 49.3915 215.228 49.1663 215.112 48.9659C214.996 48.7655 214.834 48.5957 214.639 48.4707L188.917 33.6027C188.711 33.4992 188.483 33.4453 188.251 33.4453C188.02 33.4453 187.792 33.4992 187.585 33.6027L161.857 48.4707C161.664 48.5968 161.502 48.7668 161.386 48.967C161.271 49.1672 161.204 49.3918 161.191 49.6227V50.4867C161.204 50.7175 161.271 50.9422 161.386 51.1423C161.502 51.3425 161.664 51.5126 161.857 51.6387L187.585 66.4947C187.792 66.5982 188.02 66.652 188.251 66.652C188.483 66.652 188.711 66.5982 188.917 66.4947Z" fill="#263238"/>
<path d="M214.64 49.2385L188.918 64.0885C188.712 64.1948 188.484 64.2502 188.252 64.2502C188.02 64.2502 187.792 64.1948 187.586 64.0885L161.858 49.2385C161.779 49.2101 161.71 49.158 161.662 49.0892C161.614 49.0205 161.588 48.9385 161.588 48.8545C161.588 48.7705 161.614 48.6885 161.662 48.6198C161.71 48.551 161.779 48.4989 161.858 48.4705L187.586 34.1305C187.792 34.0242 188.02 33.9688 188.252 33.9688C188.484 33.9688 188.712 34.0242 188.918 34.1305L214.64 48.4705C214.722 48.4959 214.794 48.5469 214.845 48.616C214.895 48.6851 214.923 48.7687 214.923 48.8545C214.923 48.9403 214.895 49.0239 214.845 49.093C214.794 49.1621 214.722 49.2131 214.64 49.2385Z" fill="#455A64"/>
<path d="M188.25 64.2507V66.6507C188.482 66.6567 188.711 66.603 188.916 66.4947L214.638 51.6387C214.833 51.5137 214.995 51.3439 215.111 51.1435C215.226 50.9431 215.293 50.7179 215.304 50.4867V49.6227C215.293 49.4168 215.24 49.2154 215.147 49.0315C215.054 48.8476 214.923 48.6851 214.764 48.5547C215.004 48.7647 214.962 49.0527 214.638 49.2387L188.916 64.0887C188.712 64.1991 188.482 64.2549 188.25 64.2507Z" fill="#37474F"/>
<path d="M188.917 59.285L206.317 49.241C206.514 49.1169 206.679 48.9478 206.798 48.7475C206.917 48.5472 206.986 48.3215 207.001 48.089V47.219C206.987 46.9885 206.919 46.7644 206.804 46.5644C206.688 46.3645 206.528 46.1942 206.335 46.067L195.157 39.605C194.729 39.3368 194.35 38.998 194.035 38.603L188.707 31.403C188.579 31.2357 188.396 31.12 188.19 31.077C187.983 31.0341 187.769 31.0667 187.585 31.169L170.185 41.213C169.991 41.3388 169.829 41.5087 169.713 41.709C169.598 41.9092 169.531 42.134 169.519 42.365V48.041C169.532 48.2719 169.598 48.4965 169.714 48.6967C169.83 48.8968 169.991 49.0669 170.185 49.193L187.585 59.237C187.787 59.3508 188.013 59.4145 188.245 59.4229C188.477 59.4312 188.707 59.384 188.917 59.285Z" fill="#263238"/>
<path d="M187.585 56.8832L176.401 50.4392C176.188 50.314 175.987 50.1693 175.801 50.0072C175.601 49.8263 175.42 49.6253 175.261 49.4072L169.933 42.2072C169.872 42.1306 169.829 42.0416 169.807 41.9465C169.784 41.8515 169.783 41.7526 169.803 41.657C169.823 41.5614 169.864 41.4713 169.923 41.3932C169.982 41.3152 170.057 41.251 170.143 41.2052L187.543 31.1612C187.727 31.0589 187.942 31.0263 188.148 31.0692C188.354 31.1122 188.537 31.2279 188.665 31.3952L193.993 38.5952C194.273 38.9997 194.622 39.3512 195.025 39.6332L206.275 46.0352C206.354 46.0636 206.423 46.1157 206.471 46.1844C206.519 46.2532 206.545 46.3352 206.545 46.4192C206.545 46.5032 206.519 46.5852 206.471 46.6539C206.423 46.7227 206.354 46.7748 206.275 46.8032L188.875 56.8532C188.676 56.9547 188.457 57.0101 188.233 57.0153C188.01 57.0205 187.789 56.9753 187.585 56.8832Z" fill="#455A64"/>
<path d="M170.184 41.2599L187.584 31.2159C187.768 31.1136 187.983 31.081 188.189 31.1239C188.395 31.1669 188.578 31.2826 188.706 31.4499L194.034 38.6499C194.197 38.8556 194.38 39.0445 194.58 39.2139C194.58 39.2139 175.854 50.0139 175.848 50.0139C175.645 49.8347 175.461 49.6334 175.302 49.4139L169.974 42.2139C169.922 42.1385 169.886 42.0532 169.868 41.9632C169.85 41.8733 169.851 41.7806 169.871 41.691C169.891 41.6015 169.929 41.517 169.983 41.4428C170.036 41.3686 170.105 41.3063 170.184 41.2599Z" fill="#37474F"/>
<path d="M202.093 46.2437C201.852 46.1195 201.584 46.0547 201.313 46.0547C201.042 46.0547 200.774 46.1195 200.533 46.2437C200.101 46.4897 200.101 46.8917 200.533 47.1437C200.775 47.2651 201.042 47.3283 201.313 47.3283C201.584 47.3283 201.851 47.2651 202.093 47.1437C202.525 46.8917 202.525 46.4897 202.093 46.2437Z" fill="#BA68C8"/>
<path d="M198.974 48.044C198.732 47.9226 198.465 47.8594 198.194 47.8594C197.923 47.8594 197.656 47.9226 197.414 48.044C196.982 48.296 196.982 48.698 197.414 48.944C197.655 49.0682 197.922 49.133 198.194 49.133C198.465 49.133 198.732 49.0682 198.974 48.944C199.406 48.698 199.406 48.296 198.974 48.044Z" fill="#BA68C8"/>
<path d="M195.852 49.8449C195.609 49.7234 195.341 49.6602 195.069 49.6602C194.797 49.6602 194.529 49.7234 194.286 49.8449C194.192 49.8778 194.111 49.939 194.053 50.0202C193.996 50.1013 193.965 50.1984 193.965 50.2979C193.965 50.3974 193.996 50.4944 194.053 50.5755C194.111 50.6567 194.192 50.718 194.286 50.7509C194.529 50.8723 194.797 50.9356 195.069 50.9356C195.341 50.9356 195.609 50.8723 195.852 50.7509C195.946 50.718 196.027 50.6567 196.085 50.5755C196.142 50.4944 196.173 50.3974 196.173 50.2979C196.173 50.1984 196.142 50.1013 196.085 50.0202C196.027 49.939 195.946 49.8778 195.852 49.8449Z" fill="#263238"/>
<path d="M192.727 51.6499C192.486 51.5257 192.218 51.4609 191.947 51.4609C191.675 51.4609 191.408 51.5257 191.167 51.6499C191.072 51.6813 190.99 51.7416 190.931 51.8224C190.873 51.9032 190.842 52.0003 190.842 52.0999C190.842 52.1996 190.873 52.2967 190.931 52.3775C190.99 52.4583 191.072 52.5186 191.167 52.5499C191.408 52.6741 191.675 52.7389 191.947 52.7389C192.218 52.7389 192.486 52.6741 192.727 52.5499C192.821 52.5186 192.904 52.4583 192.962 52.3775C193.02 52.2967 193.052 52.1996 193.052 52.0999C193.052 52.0003 193.02 51.9032 192.962 51.8224C192.904 51.7416 192.821 51.6813 192.727 51.6499Z" fill="#263238"/>
<path d="M199.752 44.8877C199.51 44.7663 199.243 44.7031 198.972 44.7031C198.701 44.7031 198.434 44.7663 198.192 44.8877C198.098 44.9206 198.017 44.9819 197.959 45.0631C197.902 45.1442 197.871 45.2413 197.871 45.3407C197.871 45.4402 197.902 45.5373 197.959 45.6184C198.017 45.6996 198.098 45.7608 198.192 45.7937C198.434 45.9152 198.701 45.9784 198.972 45.9784C199.243 45.9784 199.51 45.9152 199.752 45.7937C199.846 45.7608 199.928 45.6996 199.985 45.6184C200.043 45.5373 200.074 45.4402 200.074 45.3407C200.074 45.2413 200.043 45.1442 199.985 45.0631C199.928 44.9819 199.846 44.9206 199.752 44.8877Z" fill="#BA68C8"/>
<path d="M196.633 46.6969C196.391 46.5726 196.122 46.5078 195.85 46.5078C195.578 46.5078 195.309 46.5726 195.067 46.6969C194.973 46.7282 194.89 46.7885 194.832 46.8693C194.773 46.9501 194.742 47.0472 194.742 47.1469C194.742 47.2465 194.773 47.3436 194.832 47.4244C194.89 47.5052 194.973 47.5656 195.067 47.5969C195.31 47.7183 195.578 47.7816 195.85 47.7816C196.122 47.7816 196.39 47.7183 196.633 47.5969C196.728 47.5656 196.81 47.5052 196.868 47.4244C196.927 47.3436 196.958 47.2465 196.958 47.1469C196.958 47.0472 196.927 46.9501 196.868 46.8693C196.81 46.7885 196.728 46.7282 196.633 46.6969Z" fill="#263238"/>
<path d="M192.727 49.5806C193.337 49.5806 193.831 49.2958 193.831 48.9446C193.831 48.5933 193.337 48.3086 192.727 48.3086C192.117 48.3086 191.623 48.5933 191.623 48.9446C191.623 49.2958 192.117 49.5806 192.727 49.5806Z" fill="#BA68C8"/>
<path d="M190.388 50.2984C190.147 50.1742 189.879 50.1094 189.608 50.1094C189.336 50.1094 189.069 50.1742 188.828 50.2984C188.396 50.5444 188.396 50.9464 188.828 51.1984C189.07 51.3198 189.337 51.383 189.608 51.383C189.879 51.383 190.146 51.3198 190.388 51.1984C190.802 50.9464 190.802 50.5444 190.388 50.2984Z" fill="#263238"/>
<path d="M197.401 43.5362C197.159 43.4148 196.892 43.3516 196.621 43.3516C196.351 43.3516 196.084 43.4148 195.841 43.5362C195.409 43.7882 195.409 44.1902 195.841 44.4362C196.083 44.5604 196.35 44.6252 196.621 44.6252C196.893 44.6252 197.16 44.5604 197.401 44.4362C197.845 44.1902 197.845 43.8002 197.401 43.5362Z" fill="#263238"/>
<path d="M194.287 45.3409C194.045 45.2195 193.778 45.1562 193.507 45.1562C193.236 45.1562 192.969 45.2195 192.727 45.3409C192.633 45.3738 192.552 45.435 192.494 45.5162C192.437 45.5973 192.406 45.6944 192.406 45.7939C192.406 45.8934 192.437 45.9904 192.494 46.0716C192.552 46.1527 192.633 46.214 192.727 46.2469C192.969 46.3683 193.236 46.4315 193.507 46.4315C193.778 46.4315 194.045 46.3683 194.287 46.2469C194.381 46.214 194.462 46.1527 194.52 46.0716C194.577 45.9904 194.608 45.8934 194.608 45.7939C194.608 45.6944 194.577 45.5973 194.52 45.5162C194.462 45.435 194.381 45.3738 194.287 45.3409Z" fill="#BA68C8"/>
<path d="M191.166 47.146C190.925 47.0218 190.658 46.957 190.386 46.957C190.115 46.957 189.847 47.0218 189.606 47.146C189.512 47.1773 189.429 47.2377 189.371 47.3185C189.313 47.3992 189.281 47.4964 189.281 47.596C189.281 47.6957 189.313 47.7928 189.371 47.8736C189.429 47.9544 189.512 48.0147 189.606 48.046C189.848 48.1674 190.115 48.2307 190.386 48.2307C190.657 48.2307 190.924 48.1674 191.166 48.046C191.261 48.0147 191.343 47.9544 191.402 47.8736C191.46 47.7928 191.491 47.6957 191.491 47.596C191.491 47.4964 191.46 47.3992 191.402 47.3185C191.343 47.2377 191.261 47.1773 191.166 47.146Z" fill="#263238"/>
<path d="M189.601 53.4034C189.359 53.282 189.092 53.2187 188.821 53.2188C188.55 53.2187 188.283 53.282 188.041 53.4034C187.609 53.6554 187.609 54.0574 188.041 54.3034C188.282 54.4276 188.55 54.4924 188.821 54.4924C189.092 54.4924 189.36 54.4276 189.601 54.3034C190.021 54.0694 190.021 53.6674 189.601 53.4034Z" fill="#BA68C8"/>
<path d="M187.248 52.064C187.007 51.9398 186.74 51.875 186.468 51.875C186.197 51.875 185.929 51.9398 185.688 52.064C185.594 52.0953 185.511 52.1556 185.453 52.2364C185.395 52.3172 185.363 52.4143 185.363 52.514C185.363 52.6137 185.395 52.7108 185.453 52.7916C185.511 52.8724 185.594 52.9327 185.688 52.964C185.929 53.0882 186.197 53.153 186.468 53.153C186.74 53.153 187.007 53.0882 187.248 52.964C187.343 52.9327 187.425 52.8724 187.484 52.7916C187.542 52.7108 187.573 52.6137 187.573 52.514C187.573 52.4143 187.542 52.3172 187.484 52.2364C187.425 52.1556 187.343 52.0953 187.248 52.064Z" fill="#263238"/>
<path d="M188.047 48.9463C187.805 48.8249 187.538 48.7617 187.267 48.7617C186.996 48.7617 186.729 48.8249 186.487 48.9463C186.393 48.9792 186.312 49.0405 186.254 49.1217C186.197 49.2028 186.166 49.2998 186.166 49.3993C186.166 49.4988 186.197 49.5959 186.254 49.677C186.312 49.7582 186.393 49.8194 186.487 49.8523C186.729 49.9737 186.996 50.037 187.267 50.037C187.538 50.037 187.805 49.9737 188.047 49.8523C188.141 49.8194 188.222 49.7582 188.28 49.677C188.338 49.5959 188.368 49.4988 188.368 49.3993C188.368 49.2998 188.338 49.2028 188.28 49.1217C188.222 49.0405 188.141 48.9792 188.047 48.9463Z" fill="#263238"/>
<path d="M195.073 42.1891C194.83 42.0648 194.562 42 194.29 42C194.017 42 193.749 42.0648 193.507 42.1891C193.412 42.2204 193.33 42.2807 193.271 42.3615C193.213 42.4423 193.182 42.5394 193.182 42.6391C193.182 42.7387 193.213 42.8358 193.271 42.9166C193.33 42.9974 193.412 43.0577 193.507 43.0891C193.749 43.2133 194.017 43.2781 194.29 43.2781C194.562 43.2781 194.83 43.2133 195.073 43.0891C195.167 43.0577 195.25 42.9974 195.308 42.9166C195.366 42.8358 195.398 42.7387 195.398 42.6391C195.398 42.5394 195.366 42.4423 195.308 42.3615C195.25 42.2807 195.167 42.2204 195.073 42.1891Z" fill="#BA68C8"/>
<path d="M191.166 45.0767C191.776 45.0767 192.27 44.7919 192.27 44.4407C192.27 44.0894 191.776 43.8047 191.166 43.8047C190.557 43.8047 190.062 44.0894 190.062 44.4407C190.062 44.7919 190.557 45.0767 191.166 45.0767Z" fill="#263238"/>
<path d="M188.827 45.7945C188.586 45.6703 188.319 45.6055 188.047 45.6055C187.776 45.6055 187.508 45.6703 187.267 45.7945C186.835 46.0405 186.835 46.4425 187.267 46.6945C187.509 46.8159 187.776 46.8791 188.047 46.8791C188.318 46.8791 188.585 46.8159 188.827 46.6945C189.259 46.4425 189.259 46.0405 188.827 45.7945Z" fill="#BA68C8"/>
<path d="M185.707 47.5949C185.464 47.4734 185.196 47.4102 184.924 47.4102C184.653 47.4102 184.385 47.4734 184.141 47.5949C184.047 47.6262 183.964 47.6865 183.906 47.7673C183.848 47.8481 183.816 47.9452 183.816 48.0449C183.816 48.1445 183.848 48.2416 183.906 48.3224C183.964 48.4032 184.047 48.4635 184.141 48.4949C184.384 48.6191 184.652 48.6839 184.924 48.6839C185.197 48.6839 185.465 48.6191 185.707 48.4949C185.802 48.4635 185.884 48.4032 185.943 48.3224C186.001 48.2416 186.032 48.1445 186.032 48.0449C186.032 47.9452 186.001 47.8481 185.943 47.7673C185.884 47.6865 185.802 47.6262 185.707 47.5949Z" fill="#263238"/>
<path d="M184.909 50.7125C184.666 50.5882 184.398 50.5234 184.126 50.5234C183.853 50.5234 183.585 50.5882 183.343 50.7125C183.248 50.7438 183.166 50.8041 183.107 50.8849C183.049 50.9657 183.017 51.0628 183.017 51.1625C183.017 51.2621 183.049 51.3593 183.107 51.4401C183.166 51.5208 183.248 51.5812 183.343 51.6125C183.585 51.7367 183.853 51.8015 184.126 51.8015C184.398 51.8015 184.666 51.7367 184.909 51.6125C185.003 51.5812 185.085 51.5208 185.144 51.4401C185.202 51.3593 185.234 51.2621 185.234 51.1625C185.234 51.0628 185.202 50.9657 185.144 50.8849C185.085 50.8041 185.003 50.7438 184.909 50.7125Z" fill="#BA68C8"/>
<path d="M182.564 49.3648C182.322 49.2406 182.055 49.1758 181.784 49.1758C181.512 49.1758 181.245 49.2406 181.004 49.3648C180.572 49.6108 180.572 50.0128 181.004 50.2648C181.246 50.3862 181.513 50.4494 181.784 50.4494C182.054 50.4494 182.321 50.3862 182.564 50.2648C183.002 50.0128 183.002 49.6108 182.564 49.3648Z" fill="#263238"/>
<path d="M188.215 57.0402V59.4402C188.458 59.4515 188.701 59.3977 188.917 59.2843L206.317 49.2402C206.514 49.1148 206.679 48.9446 206.798 48.7433C206.917 48.5421 206.986 48.3155 207.001 48.0822V47.2183C206.988 47.013 206.933 46.8127 206.839 46.6298C206.745 46.447 206.614 46.2857 206.455 46.1562C206.695 46.3662 206.653 46.6483 206.335 46.8343L188.935 56.8843C188.713 57.0008 188.464 57.0548 188.215 57.0402Z" fill="#37474F"/>
<path d="M191.736 38.3274C191.649 38.2181 191.526 38.1426 191.389 38.1141C191.253 38.0857 191.11 38.1059 190.986 38.1714L175.83 46.8954C175.772 46.9254 175.722 46.9678 175.683 47.0198C175.643 47.0717 175.616 47.1317 175.603 47.1955C175.59 47.2594 175.591 47.3253 175.606 47.3886C175.622 47.4519 175.651 47.5109 175.692 47.5614C175.78 47.6708 175.902 47.7462 176.039 47.7747C176.176 47.8032 176.319 47.7829 176.442 47.7174L191.592 39.0054C191.652 38.9755 191.704 38.9326 191.744 38.8799C191.785 38.8272 191.813 38.7661 191.827 38.701C191.841 38.6359 191.84 38.5685 191.824 38.5039C191.809 38.4392 191.779 38.3789 191.736 38.3274Z" fill="#263238"/>
<path d="M191.737 38.3274C191.65 38.2181 191.527 38.1426 191.39 38.1141C191.253 38.0857 191.111 38.1059 190.987 38.1714L179.713 44.6514L180.343 45.4914L191.593 39.0054C191.653 38.9755 191.705 38.9326 191.745 38.8799C191.786 38.8272 191.814 38.7661 191.828 38.701C191.842 38.6359 191.841 38.5685 191.825 38.5039C191.809 38.4392 191.779 38.3789 191.737 38.3274Z" fill="#BA68C8"/>
<path d="M190.483 36.6455C190.396 36.5376 190.274 36.4631 190.139 36.4346C190.003 36.4062 189.862 36.4256 189.739 36.4895L174.601 45.2075C174.544 45.2389 174.494 45.2823 174.455 45.3348C174.416 45.3873 174.389 45.4476 174.376 45.5116C174.363 45.5755 174.364 45.6415 174.379 45.7051C174.394 45.7686 174.422 45.8281 174.463 45.8795C174.55 45.9889 174.673 46.0643 174.81 46.0928C174.947 46.1213 175.089 46.101 175.213 46.0355L190.351 37.2935C190.405 37.262 190.451 37.2194 190.487 37.1687C190.524 37.118 190.549 37.0601 190.561 36.999C190.574 36.9378 190.573 36.8748 190.56 36.8139C190.546 36.7529 190.52 36.6956 190.483 36.6455Z" fill="#263238"/>
<path d="M190.483 36.6455C190.396 36.5376 190.275 36.4631 190.139 36.4346C190.003 36.4062 189.862 36.4256 189.739 36.4895L185.971 38.6615L186.601 39.4835L190.363 37.3115C190.419 37.2792 190.467 37.2351 190.504 37.1824C190.541 37.1297 190.566 37.0696 190.577 37.0063C190.589 36.9429 190.586 36.8778 190.57 36.8155C190.554 36.7532 190.524 36.6952 190.483 36.6455Z" fill="#BA68C8"/>
<path d="M189.229 34.9641C189.142 34.8548 189.019 34.7793 188.883 34.7509C188.746 34.7224 188.603 34.7426 188.479 34.8081L173.323 43.5261C173.266 43.5575 173.216 43.6009 173.178 43.6535C173.139 43.706 173.112 43.7663 173.099 43.8302C173.086 43.8941 173.087 43.9601 173.102 44.0237C173.117 44.0872 173.145 44.1467 173.185 44.1981C173.273 44.3075 173.395 44.3829 173.532 44.4114C173.669 44.4399 173.812 44.4196 173.935 44.3541L189.073 35.6121C189.129 35.5827 189.178 35.5417 189.217 35.4919C189.255 35.4421 189.283 35.3847 189.298 35.3234C189.313 35.2621 189.314 35.1983 189.302 35.1364C189.291 35.0744 189.266 35.0157 189.229 34.9641Z" fill="#263238"/>
<path d="M189.229 34.9641C189.142 34.8548 189.02 34.7793 188.883 34.7509C188.746 34.7224 188.603 34.7426 188.479 34.8081L180.601 39.3261L181.231 40.1661L189.115 35.6301C189.171 35.5973 189.218 35.5529 189.254 35.4999C189.291 35.447 189.315 35.3867 189.326 35.3234C189.337 35.2601 189.334 35.1952 189.317 35.1332C189.301 35.0711 189.271 35.0135 189.229 34.9641Z" fill="#BA68C8"/>
<path d="M187.981 33.2844C187.894 33.1751 187.771 33.0997 187.634 33.0712C187.498 33.0427 187.355 33.0629 187.231 33.1284L172.075 41.8464C172.018 41.8778 171.968 41.9213 171.93 41.9738C171.891 42.0263 171.864 42.0866 171.851 42.1505C171.838 42.2144 171.839 42.2805 171.854 42.344C171.869 42.4075 171.897 42.4671 171.937 42.5184C172.025 42.6278 172.147 42.7032 172.284 42.7317C172.421 42.7602 172.564 42.7399 172.687 42.6744L187.825 33.9324C187.881 33.903 187.93 33.862 187.969 33.8122C188.007 33.7625 188.035 33.705 188.05 33.6437C188.065 33.5824 188.066 33.5186 188.054 33.4567C188.042 33.3947 188.018 33.336 187.981 33.2844Z" fill="#263238"/>
<path d="M187.981 33.2844C187.893 33.1751 187.771 33.0997 187.634 33.0712C187.497 33.0427 187.354 33.0629 187.231 33.1284L173.467 41.0424L174.097 41.8824L187.837 33.9504C187.894 33.9202 187.944 33.8778 187.984 33.8261C188.023 33.7743 188.051 33.7146 188.064 33.6511C188.078 33.5876 188.078 33.5218 188.063 33.4585C188.049 33.3951 188.021 33.3357 187.981 33.2844Z" fill="#BA68C8"/>
<path d="M158.604 145.286C158.65 145.27 158.699 145.266 158.747 145.273C158.795 145.28 158.841 145.299 158.88 145.328C159.002 145.409 159.104 145.517 159.176 145.644C159.249 145.771 159.292 145.914 159.3 146.06C159.303 146.106 159.297 146.153 159.28 146.197C159.263 146.24 159.237 146.28 159.204 146.312L159.156 146.342L141.12 156.752L139.92 156.068L158.604 145.286Z" fill="#455A64"/>
<path d="M161.039 146.699C161.085 146.682 161.134 146.676 161.182 146.682C161.23 146.688 161.276 146.707 161.315 146.735C161.439 146.815 161.541 146.923 161.615 147.05C161.689 147.177 161.733 147.32 161.741 147.467C161.746 147.515 161.738 147.563 161.721 147.608C161.703 147.653 161.675 147.693 161.639 147.725L161.591 147.755L143.555 158.165L142.355 157.481L161.039 146.699Z" fill="#455A64"/>
<path d="M163.477 148.102C163.523 148.087 163.572 148.082 163.62 148.089C163.668 148.097 163.714 148.116 163.753 148.144C163.875 148.224 163.977 148.331 164.05 148.457C164.123 148.583 164.165 148.725 164.173 148.87C164.177 148.918 164.17 148.966 164.154 149.01C164.137 149.055 164.111 149.095 164.077 149.128L164.023 149.158L145.993 159.568L144.793 158.884L163.477 148.102Z" fill="#455A64"/>
<path d="M165.912 149.507C165.96 149.492 166.009 149.489 166.058 149.496C166.107 149.503 166.153 149.521 166.194 149.549C166.316 149.63 166.418 149.738 166.491 149.865C166.564 149.992 166.606 150.135 166.614 150.281C166.619 150.327 166.612 150.374 166.596 150.418C166.579 150.462 166.553 150.501 166.518 150.533L166.47 150.563L148.434 160.973L147.234 160.289L165.912 149.507Z" fill="#455A64"/>
<path d="M42.6 208.534C42.6602 209.36 42.9143 210.161 43.3417 210.871C43.7691 211.581 44.3578 212.18 45.06 212.62L114.06 252.442C114.823 252.829 115.667 253.031 116.523 253.031C117.379 253.031 118.223 252.829 118.986 252.442L213.354 197.956C214.097 197.563 214.72 196.974 215.153 196.254C215.587 195.533 215.817 194.708 215.817 193.867C215.817 193.026 215.587 192.201 215.153 191.48C214.72 190.76 214.097 190.171 213.354 189.778L144.378 149.956C143.615 149.571 142.772 149.371 141.918 149.371C141.064 149.371 140.221 149.571 139.458 149.956L45.084 204.442C44.3765 204.88 43.7827 205.479 43.351 206.19C42.9193 206.901 42.6619 207.704 42.6 208.534Z" fill="#BA68C8"/>
<path opacity="0.7" d="M116.52 247.702V253.03C115.66 253.042 114.811 252.836 114.054 252.43L45.0835 212.62C44.3602 212.241 43.7505 211.677 43.3169 210.985C42.8832 210.293 42.6412 209.498 42.6156 208.682C42.5899 207.866 42.7816 207.058 43.171 206.34C43.5603 205.622 44.1334 205.021 44.8315 204.598C43.7275 205.39 43.8115 206.548 45.0835 207.28L114.084 247.102C114.831 247.506 115.67 247.712 116.52 247.702Z" fill="black"/>
<path d="M40.3139 204.534C39.6245 204.066 39.0557 203.442 38.6542 202.712C38.2527 201.982 38.0298 201.167 38.0039 200.334V118.05C38.0506 117.197 38.2977 116.366 38.7251 115.626C39.1525 114.886 39.7482 114.257 40.4639 113.79L134.838 59.3041C135.55 58.8577 136.37 58.6138 137.21 58.5984C138.051 58.5831 138.879 58.7969 139.607 59.217C140.335 59.6371 140.935 60.2475 141.342 60.9828C141.749 61.718 141.948 62.5502 141.918 63.3901V145.698C141.872 146.552 141.625 147.382 141.198 148.123C140.771 148.863 140.174 149.492 139.458 149.958L45.0839 204.444C44.352 204.833 43.5385 205.044 42.7097 205.06C41.8808 205.076 41.06 204.895 40.3139 204.534Z" fill="#BA68C8"/>
<path opacity="0.7" d="M44.7899 204.598C44.0847 204.916 43.3185 205.075 42.5453 205.064C41.772 205.054 41.0104 204.875 40.3139 204.538C39.6248 204.07 39.0563 203.446 38.6548 202.716C38.2534 201.986 38.0303 201.171 38.0039 200.338V118.048C38.0373 117.2 38.285 116.375 38.7239 115.648L43.3439 118.312C42.9031 119.038 42.6533 119.864 42.6179 120.712V203.026C42.5999 204.478 43.5719 205.132 44.7899 204.598Z" fill="black"/>
<path opacity="0.5" d="M42.5996 120.718V203.026C42.5996 204.592 43.6976 205.228 45.0596 204.442L139.434 149.956C140.15 149.489 140.746 148.861 141.174 148.12C141.601 147.38 141.848 146.549 141.894 145.696V63.3878C141.894 61.8158 140.79 61.1798 139.434 61.9658L45.0836 116.452C44.3623 116.916 43.7612 117.545 43.3294 118.287C42.8977 119.028 42.6476 119.861 42.5996 120.718Z" fill="black"/>
<path d="M45.084 207.286L114.084 247.108C114.847 247.495 115.691 247.697 116.547 247.697C117.403 247.697 118.247 247.495 119.01 247.108L213.348 192.598C214.71 191.812 214.71 190.54 213.348 189.754L144.378 149.956C143.615 149.571 142.772 149.371 141.918 149.371C141.064 149.371 140.221 149.571 139.458 149.956L45.084 204.442C43.722 205.228 43.722 206.5 45.084 207.286Z" fill="#BA68C8"/>
<path opacity="0.3" d="M45.084 207.286L114.084 247.108C114.847 247.495 115.691 247.697 116.547 247.697C117.403 247.697 118.247 247.495 119.01 247.108L213.348 192.598C214.71 191.812 214.71 190.54 213.348 189.754L144.378 149.956C143.615 149.571 142.772 149.371 141.918 149.371C141.064 149.371 140.221 149.571 139.458 149.956L45.084 204.442C43.722 205.228 43.722 206.5 45.084 207.286Z" fill="black"/>
<path d="M46.4099 121.018L137.4 68.5002C138.216 68.0322 138.876 68.4162 138.876 69.3582V140.608C138.848 141.12 138.7 141.618 138.443 142.063C138.187 142.507 137.829 142.884 137.4 143.164L46.4099 195.682C45.5939 196.15 44.9279 195.772 44.9279 194.83V123.598C44.9542 123.082 45.1022 122.579 45.3597 122.131C45.6172 121.682 45.9771 121.301 46.4099 121.018Z" fill="#FAFAFA"/>
<path d="M106.44 109.902L105.84 126.354C105.84 133.128 101.586 145.362 92.8319 154.404C92.2039 155.004 91.4093 155.402 90.5519 155.544C90.1079 155.586 89.6819 155.604 89.2619 155.604C87.3896 155.631 85.5432 155.163 83.9099 154.248L83.8559 154.218L83.7539 154.152C79.8599 151.8 77.9399 147 77.9399 142.476L77.3399 126.75C77.336 126.325 77.4949 125.915 77.7839 125.604C77.9987 125.348 78.2671 125.143 78.5699 125.004C82.5779 123.204 88.5839 116.13 91.4039 109.128C91.6079 108.63 91.9079 108.468 92.2439 108.624L92.2919 108.654C92.4067 108.718 92.5101 108.801 92.5979 108.9L92.6519 108.966C95.6519 112.446 101.526 112.44 105.45 109.44C105.75 109.212 105.996 109.14 106.164 109.212C106.368 109.332 106.452 109.548 106.44 109.902Z" fill="#BA68C8"/>
<path opacity="0.2" d="M91.9013 108.598C91.7881 108.645 91.6869 108.717 91.6049 108.808C91.5229 108.9 91.4623 109.008 91.4274 109.126C88.6074 116.128 82.6014 123.226 78.5934 125.002C78.2905 125.142 78.0222 125.346 77.8073 125.602C77.5184 125.913 77.3595 126.323 77.3634 126.748L77.9634 142.474C77.9634 147.016 79.8834 151.816 83.7954 154.15L83.8973 154.216L83.9513 154.246C85.5846 155.162 87.431 155.629 89.3033 155.602C89.7233 155.602 90.1494 155.602 90.5934 155.542C91.0624 155.476 91.5145 155.321 91.9254 155.086L91.9013 108.598Z" fill="black"/>
<path opacity="0.3" d="M53.0888 205.156L140.689 154.582C141.07 154.389 141.492 154.289 141.919 154.289C142.346 154.289 142.767 154.389 143.149 154.582L147.631 157.168C147.78 157.218 147.909 157.313 148.001 157.441C148.093 157.569 148.142 157.722 148.142 157.879C148.142 158.036 148.093 158.189 148.001 158.317C147.909 158.444 147.78 158.54 147.631 158.59L60.0008 209.158C59.6194 209.35 59.1981 209.451 58.7708 209.451C58.3436 209.451 57.9223 209.35 57.5408 209.158L53.0708 206.578C52.9225 206.526 52.7942 206.429 52.704 206.3C52.6139 206.171 52.5664 206.018 52.5684 205.86C52.5704 205.703 52.6217 205.551 52.7151 205.424C52.8085 205.298 52.9392 205.204 53.0888 205.156Z" fill="black"/>
<path opacity="0.3" d="M64.6381 211.797L152.238 161.223C152.619 161.028 153.04 160.926 153.468 160.926C153.896 160.926 154.318 161.028 154.698 161.223L182.256 177.135C182.405 177.185 182.535 177.281 182.626 177.408C182.718 177.536 182.767 177.689 182.767 177.846C182.767 178.003 182.718 178.156 182.626 178.284C182.535 178.411 182.405 178.507 182.256 178.557L94.7581 229.083C94.3755 229.275 93.9532 229.375 93.5251 229.375C93.097 229.375 92.6747 229.275 92.2921 229.083L64.6381 213.237C64.4787 213.195 64.3376 213.102 64.2369 212.972C64.1362 212.842 64.0815 212.682 64.0815 212.517C64.0815 212.352 64.1362 212.192 64.2369 212.062C64.3376 211.932 64.4787 211.838 64.6381 211.797Z" fill="black"/>
<path d="M143.159 184.001L145.901 182.417C146.015 182.351 146.009 182.237 145.901 182.165L142.733 180.335C142.665 180.301 142.59 180.284 142.514 180.284C142.438 180.284 142.363 180.301 142.295 180.335L139.553 181.919C139.433 181.991 139.439 182.099 139.553 182.171L142.727 184.007C142.794 184.039 142.868 184.055 142.943 184.054C143.018 184.053 143.092 184.035 143.159 184.001ZM137.759 177.713L134.999 179.291C134.879 179.363 134.885 179.471 134.999 179.549L138.173 181.379C138.241 181.413 138.316 181.431 138.392 181.431C138.468 181.431 138.543 181.413 138.611 181.379L141.353 179.795C141.467 179.729 141.461 179.615 141.353 179.543L138.185 177.713C138.117 177.678 138.042 177.66 137.966 177.66C137.889 177.66 137.814 177.678 137.747 177.713H137.759ZM128.897 182.825L124.253 185.507C124.139 185.573 124.145 185.687 124.253 185.759L127.427 187.559C127.494 187.593 127.568 187.611 127.643 187.611C127.718 187.611 127.792 187.593 127.859 187.559L132.503 184.877C132.617 184.811 132.611 184.697 132.503 184.625L129.335 182.825C129.265 182.789 129.188 182.771 129.11 182.771C129.031 182.771 128.954 182.789 128.885 182.825H128.897ZM133.739 179.999L130.991 181.583C130.877 181.649 130.883 181.763 130.991 181.835L134.165 183.635C134.233 183.669 134.308 183.687 134.384 183.687C134.46 183.687 134.535 183.669 134.603 183.635L137.345 182.051C137.459 181.985 137.453 181.871 137.345 181.799L134.177 179.969C134.106 179.94 134.03 179.928 133.954 179.933C133.878 179.938 133.804 179.961 133.739 179.999ZM122.999 186.239L120.233 187.799C120.119 187.871 120.125 187.985 120.233 188.057L123.401 189.887C123.469 189.921 123.544 189.939 123.62 189.939C123.696 189.939 123.771 189.921 123.839 189.887L126.581 188.303C126.701 188.237 126.695 188.123 126.581 188.051L123.407 186.251C123.344 186.219 123.275 186.201 123.204 186.199C123.133 186.197 123.063 186.211 122.999 186.239ZM118.991 188.549L116.249 190.133C116.135 190.199 116.141 190.313 116.249 190.385L119.417 192.215C119.484 192.25 119.559 192.269 119.636 192.269C119.712 192.269 119.787 192.25 119.855 192.215L122.597 190.631C122.717 190.565 122.711 190.451 122.597 190.379L119.399 188.561C119.332 188.527 119.259 188.507 119.184 188.505C119.109 188.503 119.035 188.518 118.967 188.549H118.991ZM131.465 195.995L134.213 194.411C134.327 194.345 134.321 194.231 134.213 194.159L131.039 192.329C130.971 192.294 130.896 192.276 130.82 192.276C130.743 192.276 130.668 192.294 130.601 192.329L127.799 193.907C127.685 193.973 127.691 194.087 127.799 194.159L130.967 195.959C131.036 196.005 131.116 196.032 131.199 196.038C131.282 196.045 131.365 196.03 131.441 195.995H131.465ZM127.457 198.311L130.199 196.727C130.319 196.661 130.313 196.547 130.199 196.475L127.025 194.675C126.957 194.641 126.882 194.624 126.806 194.624C126.73 194.624 126.655 194.641 126.587 194.675L123.809 196.199C123.695 196.265 123.701 196.379 123.809 196.451L126.977 198.287C127.045 198.328 127.122 198.351 127.202 198.355C127.281 198.36 127.36 198.344 127.433 198.311H127.457ZM123.449 200.627L126.191 199.043C126.311 198.977 126.305 198.863 126.191 198.791L122.999 196.961C122.931 196.926 122.856 196.908 122.78 196.908C122.703 196.908 122.628 196.926 122.561 196.961L119.819 198.545C119.705 198.611 119.711 198.725 119.819 198.797L122.987 200.627C123.055 200.661 123.13 200.679 123.206 200.679C123.282 200.679 123.357 200.661 123.425 200.627H123.449ZM119.399 202.937L122.141 201.359C122.261 201.287 122.249 201.173 122.141 201.101L118.967 199.271C118.899 199.237 118.824 199.22 118.748 199.22C118.672 199.22 118.597 199.237 118.529 199.271L115.799 200.849C115.685 200.915 115.691 201.029 115.799 201.101L118.967 202.931C119.033 202.966 119.107 202.985 119.182 202.986C119.257 202.987 119.331 202.971 119.399 202.937ZM139.133 186.317L141.875 184.733C141.989 184.667 141.983 184.553 141.875 184.481L138.707 182.651C138.639 182.617 138.564 182.6 138.488 182.6C138.412 182.6 138.337 182.617 138.269 182.651L135.527 184.199C135.407 184.265 135.413 184.379 135.527 184.451L138.701 186.281C138.767 186.323 138.843 186.348 138.921 186.354C139 186.36 139.078 186.348 139.151 186.317H139.133ZM135.431 193.685L141.551 190.151C141.671 190.085 141.659 189.971 141.551 189.899L133.847 185.453C133.779 185.419 133.704 185.402 133.628 185.402C133.552 185.402 133.477 185.419 133.409 185.453L130.247 187.283C130.127 187.349 130.133 187.463 130.247 187.535L134.327 189.887C134.453 189.959 134.459 190.073 134.327 190.139L131.795 191.603C131.681 191.669 131.687 191.783 131.795 191.855L134.969 193.685C135.042 193.727 135.124 193.75 135.209 193.75C135.293 193.75 135.376 193.727 135.449 193.685H135.431ZM114.941 190.865L112.199 192.449C112.085 192.515 112.091 192.629 112.199 192.701L115.367 194.531C115.435 194.565 115.51 194.583 115.586 194.583C115.662 194.583 115.737 194.565 115.805 194.531L118.547 192.947C118.667 192.881 118.661 192.767 118.547 192.695L115.373 190.865C115.308 190.834 115.237 190.818 115.166 190.818C115.094 190.818 115.023 190.834 114.959 190.865H114.941ZM110.951 193.199L108.209 194.783C108.095 194.849 108.101 194.963 108.209 195.035L111.377 196.865C111.444 196.9 111.519 196.919 111.596 196.919C111.672 196.919 111.747 196.9 111.815 196.865L114.557 195.287C114.677 195.215 114.665 195.101 114.557 195.029L111.383 193.229C111.318 193.192 111.245 193.169 111.17 193.164C111.095 193.159 111.02 193.171 110.951 193.199ZM90.9226 219.149C90.9903 219.185 91.0654 219.203 91.1416 219.203C91.2179 219.203 91.293 219.185 91.3606 219.149L94.1026 217.571C94.2166 217.499 94.2106 217.385 94.1026 217.313L90.9286 215.483C90.8618 215.449 90.7878 215.431 90.7126 215.431C90.6375 215.431 90.5635 215.449 90.4966 215.483L87.7486 217.067C87.6346 217.133 87.6406 217.247 87.7486 217.319L90.9226 219.149ZM78.8806 211.715L76.1386 213.293C76.0246 213.365 76.0306 213.473 76.1386 213.551L79.3066 215.381C79.3747 215.415 79.4496 215.433 79.5256 215.433C79.6016 215.433 79.6766 215.415 79.7446 215.381L82.4866 213.797C82.6066 213.731 82.6006 213.617 82.4866 213.545L79.3126 211.715C79.2472 211.678 79.1739 211.657 79.0988 211.654C79.0237 211.651 78.9489 211.666 78.8806 211.697V211.715ZM85.3366 217.145C85.4047 217.179 85.4796 217.197 85.5556 217.197C85.6316 217.197 85.7066 217.179 85.7746 217.145L88.5166 215.561C88.6306 215.495 88.6246 215.381 88.5166 215.309L85.3486 213.479C85.2806 213.445 85.2056 213.428 85.1296 213.428C85.0536 213.428 84.9787 213.445 84.9106 213.479L82.1686 215.063C82.0486 215.135 82.0546 215.243 82.1686 215.315L85.3366 217.145ZM97.9966 220.553L100.739 218.975C100.859 218.903 100.853 218.789 100.739 218.717L97.5646 216.887C97.4966 216.853 97.4216 216.836 97.3456 216.836C97.2696 216.836 97.1947 216.853 97.1266 216.887L94.3846 218.471C94.2706 218.537 94.2766 218.651 94.3846 218.723L97.5526 220.553C97.6225 220.587 97.6995 220.603 97.7769 220.6C97.8543 220.596 97.9297 220.574 97.9966 220.535V220.553ZM93.5506 222.863C93.6187 222.897 93.6936 222.915 93.7696 222.915C93.8456 222.915 93.9206 222.897 93.9886 222.863L96.7306 221.279C96.8506 221.213 96.8386 221.099 96.7306 221.027L93.5566 219.197C93.4886 219.163 93.4136 219.146 93.3376 219.146C93.2616 219.146 93.1867 219.163 93.1186 219.197L90.3766 220.781C90.2626 220.853 90.2686 220.961 90.3766 221.033L93.5506 222.863ZM82.8886 209.399L80.1466 210.983C80.0326 211.049 80.0386 211.163 80.1466 211.235L83.3206 213.065C83.3872 213.1 83.4613 213.119 83.5366 213.119C83.6119 213.119 83.6861 213.1 83.7526 213.065L86.5006 211.487C86.6146 211.415 86.6086 211.307 86.5006 211.229L83.3266 209.429C83.2609 209.391 83.1872 209.368 83.1112 209.363C83.0352 209.358 82.959 209.37 82.8886 209.399ZM102.935 197.825L100.199 199.391C100.079 199.457 100.091 199.571 100.199 199.643L103.373 201.473C103.441 201.507 103.516 201.525 103.592 201.525C103.668 201.525 103.743 201.507 103.811 201.473L106.553 199.889C106.667 199.823 106.661 199.709 106.553 199.637L103.385 197.807C103.315 197.771 103.238 197.753 103.16 197.753C103.081 197.753 103.004 197.771 102.935 197.807V197.825ZM86.9026 207.083L84.1546 208.667C84.0406 208.733 84.0466 208.847 84.1546 208.919L87.3286 210.749C87.3967 210.783 87.4716 210.801 87.5476 210.801C87.6236 210.801 87.6986 210.783 87.7666 210.749L90.5086 209.165C90.6226 209.099 90.6166 208.985 90.5086 208.913L87.3346 207.083C87.2691 207.047 87.1958 207.026 87.1208 207.023C87.0458 207.02 86.971 207.034 86.9026 207.065V207.083ZM106.943 195.509L104.201 197.093C104.081 197.165 104.093 197.273 104.201 197.345L107.375 199.181C107.443 199.215 107.518 199.233 107.594 199.233C107.67 199.233 107.745 199.215 107.813 199.181L110.555 197.597C110.675 197.531 110.663 197.417 110.555 197.345L107.399 195.503C107.329 195.465 107.252 195.443 107.172 195.441C107.093 195.439 107.014 195.456 106.943 195.491V195.509ZM98.9266 200.141L96.1846 201.725C96.0646 201.791 96.0706 201.905 96.1846 201.977L99.3586 203.777C99.4267 203.811 99.5016 203.829 99.5776 203.829C99.6536 203.829 99.7286 203.811 99.7966 203.777L102.539 202.193C102.653 202.121 102.647 202.013 102.539 201.941L99.3706 200.105C99.3004 200.073 99.2236 200.058 99.1465 200.061C99.0694 200.064 98.994 200.086 98.9266 200.123V200.141ZM94.9186 202.457L92.1766 203.999C92.0566 204.065 92.0626 204.179 92.1766 204.251L95.3506 206.081C95.4183 206.117 95.4934 206.135 95.5696 206.135C95.6459 206.135 95.721 206.117 95.7886 206.081L98.5306 204.497C98.6446 204.431 98.6386 204.317 98.5306 204.245L95.3626 202.445C95.2947 202.408 95.2188 202.388 95.1414 202.387C95.064 202.386 94.9875 202.404 94.9186 202.439V202.457ZM90.9106 204.767L88.1986 206.333C88.0786 206.399 88.0846 206.513 88.1986 206.585L91.3726 208.421C91.4407 208.455 91.5156 208.473 91.5916 208.473C91.6676 208.473 91.7426 208.455 91.8106 208.421L94.5526 206.837C94.6666 206.771 94.6606 206.657 94.5526 206.585L91.3846 204.755C91.3125 204.714 91.2313 204.692 91.1484 204.691C91.0655 204.69 90.9838 204.71 90.9106 204.749V204.767ZM111.401 207.587L114.143 206.003C114.257 205.937 114.251 205.823 114.143 205.751L110.975 203.921C110.907 203.887 110.832 203.87 110.756 203.87C110.68 203.87 110.605 203.887 110.537 203.921L107.795 205.505C107.675 205.571 107.687 205.685 107.795 205.757L110.969 207.587C111.035 207.622 111.108 207.641 111.183 207.643C111.258 207.645 111.332 207.63 111.401 207.599V207.587ZM146.609 172.613L143.861 174.197C143.747 174.263 143.753 174.377 143.861 174.449L147.035 176.249C147.103 176.283 147.178 176.301 147.254 176.301C147.33 176.301 147.405 176.283 147.473 176.249L150.215 174.665C150.329 174.593 150.323 174.485 150.215 174.413L147.041 172.577C146.972 172.546 146.898 172.531 146.822 172.534C146.747 172.537 146.674 172.558 146.609 172.595V172.613ZM141.755 175.415L139.013 176.999C138.893 177.065 138.899 177.179 139.013 177.251L142.187 179.081C142.254 179.117 142.329 179.135 142.406 179.135C142.482 179.135 142.557 179.117 142.625 179.081L145.367 177.503C145.481 177.431 145.475 177.317 145.367 177.245L142.199 175.403C142.13 175.368 142.054 175.348 141.977 175.347C141.9 175.346 141.824 175.363 141.755 175.397V175.415ZM150.599 170.279L147.857 171.863C147.737 171.929 147.743 172.043 147.857 172.115L151.031 173.945C151.099 173.979 151.174 173.997 151.25 173.997C151.326 173.997 151.401 173.979 151.469 173.945L154.211 172.361C154.325 172.295 154.319 172.181 154.211 172.109L151.043 170.279C150.974 170.244 150.898 170.226 150.821 170.226C150.744 170.226 150.667 170.244 150.599 170.279ZM129.851 191.675L132.593 190.091C132.707 190.025 132.701 189.911 132.593 189.839L129.425 188.039C129.357 188.005 129.282 187.988 129.206 187.988C129.13 187.988 129.055 188.005 128.987 188.039L126.239 189.599C126.125 189.671 126.131 189.779 126.239 189.851L129.413 191.687C129.484 191.722 129.563 191.739 129.642 191.737C129.722 191.735 129.799 191.714 129.869 191.675H129.851ZM155.051 167.975C154.983 167.941 154.908 167.924 154.832 167.924C154.756 167.924 154.681 167.941 154.613 167.975L151.871 169.559C151.751 169.631 151.757 169.739 151.871 169.811L155.045 171.647C155.113 171.681 155.188 171.699 155.264 171.699C155.34 171.699 155.415 171.681 155.483 171.647L158.225 170.063C158.339 169.997 158.333 169.883 158.225 169.811L155.051 167.975ZM115.397 205.253L118.139 203.669C118.259 203.603 118.247 203.489 118.139 203.417L114.965 201.617C114.897 201.583 114.822 201.566 114.746 201.566C114.67 201.566 114.595 201.583 114.527 201.617L111.785 203.201C111.665 203.273 111.677 203.381 111.785 203.453L114.953 205.289C115.026 205.321 115.106 205.334 115.185 205.327C115.265 205.321 115.341 205.296 115.409 205.253H115.397ZM164.555 176.873L167.297 175.289C167.411 175.223 167.405 175.109 167.297 175.037L164.129 173.207C164.061 173.173 163.986 173.156 163.91 173.156C163.834 173.156 163.759 173.173 163.691 173.207L160.949 174.791C160.829 174.857 160.841 174.971 160.949 175.043L164.123 176.843C164.189 176.884 164.263 176.908 164.341 176.914C164.418 176.919 164.496 176.905 164.567 176.873H164.555ZM156.017 176.573L158.759 174.989C158.873 174.923 158.867 174.809 158.759 174.737L155.591 172.907C155.523 172.873 155.448 172.856 155.372 172.856C155.296 172.856 155.221 172.873 155.153 172.907L152.399 174.479C152.279 174.545 152.285 174.659 152.399 174.731L155.573 176.531C155.64 176.575 155.716 176.601 155.795 176.609C155.875 176.616 155.955 176.604 156.029 176.573H156.017ZM159.581 170.573C159.513 170.539 159.438 170.522 159.362 170.522C159.286 170.522 159.211 170.539 159.143 170.573L156.401 172.157C156.281 172.229 156.287 172.337 156.401 172.409L159.575 174.245C159.643 174.279 159.718 174.297 159.794 174.297C159.87 174.297 159.945 174.279 160.013 174.245L162.755 172.661C162.869 172.595 162.863 172.481 162.755 172.409L159.581 170.573ZM160.421 170.087L168.125 174.533C168.192 174.569 168.267 174.587 168.344 174.587C168.42 174.587 168.495 174.569 168.563 174.533L171.305 172.949C171.425 172.883 171.413 172.769 171.305 172.697L163.601 168.251C163.533 168.216 163.458 168.198 163.382 168.198C163.305 168.198 163.23 168.216 163.163 168.251L160.421 169.835C160.301 169.919 160.313 170.033 160.433 170.105L160.421 170.087ZM151.139 175.199L148.397 176.783C148.277 176.849 148.283 176.963 148.397 177.035L151.571 178.865C151.638 178.9 151.713 178.919 151.79 178.919C151.866 178.919 151.941 178.9 152.009 178.865L154.751 177.287C154.865 177.215 154.859 177.107 154.751 177.029L151.577 175.199C151.509 175.165 151.434 175.148 151.358 175.148C151.282 175.148 151.207 175.165 151.139 175.199ZM120.965 192.599L118.199 194.213C118.085 194.279 118.091 194.393 118.199 194.465L121.367 196.295C121.435 196.329 121.51 196.347 121.586 196.347C121.662 196.347 121.737 196.329 121.805 196.295L124.547 194.711C124.667 194.639 124.661 194.531 124.547 194.459L121.373 192.623C121.308 192.595 121.238 192.581 121.168 192.582C121.098 192.583 121.028 192.599 120.965 192.629V192.599ZM160.121 179.147C160.189 179.181 160.264 179.199 160.34 179.199C160.416 179.199 160.491 179.181 160.559 179.147L163.301 177.563C163.415 177.497 163.409 177.383 163.301 177.311L160.133 175.511C160.065 175.476 159.99 175.458 159.914 175.458C159.837 175.458 159.762 175.476 159.695 175.511L156.953 177.095C156.833 177.161 156.839 177.275 156.953 177.347L160.121 179.147ZM124.973 190.283L122.231 191.867C122.117 191.933 122.123 192.047 122.231 192.119L125.399 193.979C125.466 194.013 125.54 194.031 125.615 194.031C125.69 194.031 125.764 194.013 125.831 193.979L128.579 192.395C128.693 192.329 128.687 192.215 128.579 192.143L125.399 190.325C125.333 190.291 125.261 190.273 125.187 190.271C125.113 190.269 125.04 190.283 124.973 190.313V190.283ZM94.9306 216.785C94.9987 216.819 95.0737 216.837 95.1496 216.837C95.2256 216.837 95.3006 216.819 95.3686 216.785L98.1106 215.201C98.2246 215.135 98.2186 215.021 98.1106 214.949L94.9426 213.119C94.8746 213.085 94.7996 213.068 94.7236 213.068C94.6476 213.068 94.5727 213.085 94.5046 213.119L91.7626 214.703C91.6426 214.769 91.6486 214.883 91.7626 214.955L94.9306 216.785ZM88.9006 211.115L86.1586 212.699C86.0386 212.765 86.0446 212.879 86.1586 212.951L89.3326 214.751C89.4003 214.787 89.4754 214.805 89.5516 214.805C89.6279 214.805 89.703 214.787 89.7706 214.751L92.5126 213.167C92.6266 213.101 92.6206 212.987 92.5126 212.915L89.3446 211.085C89.2714 211.058 89.1926 211.049 89.1151 211.06C89.0376 211.07 88.964 211.099 88.9006 211.145V211.115ZM99.3766 214.481L102.119 212.897C102.233 212.831 102.227 212.717 102.119 212.645L98.9506 210.845C98.8826 210.811 98.8076 210.794 98.7316 210.794C98.6556 210.794 98.5807 210.811 98.5126 210.845L95.7526 212.399C95.6326 212.465 95.6386 212.579 95.7526 212.651L98.9266 214.487C98.9943 214.527 99.0705 214.55 99.1487 214.554C99.227 214.558 99.3051 214.543 99.3766 214.511V214.481ZM103.385 212.165L106.127 210.581C106.241 210.515 106.235 210.401 106.127 210.329L102.959 208.499C102.891 208.464 102.816 208.446 102.74 208.446C102.663 208.446 102.588 208.464 102.521 208.499L99.7786 210.083C99.6586 210.149 99.6646 210.263 99.7786 210.335L102.953 212.135C103.015 212.179 103.086 212.207 103.161 212.218C103.237 212.228 103.313 212.221 103.385 212.195V212.165ZM107.393 209.855L110.135 208.271C110.249 208.199 110.243 208.091 110.135 208.019L106.967 206.183C106.899 206.149 106.824 206.132 106.748 206.132C106.672 206.132 106.597 206.149 106.529 206.183L103.799 207.791C103.679 207.857 103.685 207.971 103.799 208.043L106.973 209.873C107.038 209.907 107.111 209.926 107.184 209.928C107.258 209.93 107.331 209.915 107.399 209.885L107.393 209.855ZM92.9086 208.799L90.1666 210.383C90.0466 210.449 90.0526 210.563 90.1666 210.635L93.3406 212.465C93.4087 212.499 93.4836 212.517 93.5596 212.517C93.6356 212.517 93.7106 212.499 93.7786 212.465L96.5206 210.881C96.6346 210.809 96.6286 210.701 96.5206 210.629L93.3526 208.793C93.281 208.764 93.2035 208.752 93.1263 208.758C93.0492 208.764 92.9746 208.789 92.9086 208.829V208.799ZM96.9166 206.483L94.1986 208.097C94.0786 208.163 94.0846 208.277 94.1986 208.349L97.3726 210.179C97.4407 210.213 97.5156 210.231 97.5916 210.231C97.6676 210.231 97.7426 210.213 97.8106 210.179L100.553 208.595C100.667 208.529 100.661 208.415 100.553 208.343L97.3846 206.513C97.3128 206.474 97.2323 206.454 97.1506 206.454C97.0689 206.454 96.9885 206.474 96.9166 206.513V206.483ZM112.949 197.225L110.207 198.809C110.093 198.875 110.099 198.989 110.207 199.061L113.375 200.891C113.442 200.927 113.517 200.945 113.594 200.945C113.67 200.945 113.745 200.927 113.813 200.891L116.555 199.307C116.675 199.241 116.669 199.127 116.555 199.055L113.399 197.267C113.33 197.23 113.253 197.209 113.175 197.207C113.097 197.205 113.019 197.221 112.949 197.255V197.225ZM108.941 199.541L106.199 201.155C106.085 201.221 106.091 201.335 106.199 201.407L109.367 203.237C109.435 203.271 109.51 203.289 109.586 203.289C109.662 203.289 109.737 203.271 109.805 203.237L112.547 201.653C112.667 201.587 112.661 201.473 112.547 201.401L109.373 199.571C109.306 199.537 109.232 199.519 109.157 199.519C109.082 199.519 109.007 199.537 108.941 199.571V199.541ZM116.957 194.915L114.215 196.493C114.101 196.565 114.107 196.679 114.215 196.751L117.383 198.551C117.451 198.585 117.526 198.603 117.602 198.603C117.678 198.603 117.753 198.585 117.821 198.551L120.563 196.967C120.683 196.901 120.677 196.787 120.563 196.715L117.389 194.885C117.317 194.86 117.241 194.852 117.165 194.863C117.09 194.873 117.019 194.901 116.957 194.945V194.915ZM100.925 204.167L98.1826 205.799C98.0626 205.871 98.0746 205.979 98.1826 206.051L101.357 207.887C101.425 207.921 101.5 207.939 101.576 207.939C101.652 207.939 101.727 207.921 101.795 207.887L104.537 206.303C104.651 206.237 104.645 206.123 104.537 206.051L101.369 204.251C101.304 204.208 101.23 204.18 101.153 204.171C101.076 204.162 100.998 204.171 100.925 204.197V204.167ZM104.933 201.857L102.191 203.441C102.077 203.507 102.083 203.621 102.191 203.693L105.359 205.493C105.426 205.528 105.501 205.547 105.578 205.547C105.654 205.547 105.729 205.528 105.797 205.493L108.539 203.915C108.659 203.843 108.647 203.729 108.539 203.657L105.365 201.827C105.293 201.803 105.217 201.796 105.142 201.807C105.067 201.817 104.995 201.845 104.933 201.887V201.857ZM101.999 218.225L104.741 216.641C104.861 216.575 104.855 216.461 104.741 216.389L101.567 214.589C101.499 214.554 101.424 214.536 101.348 214.536C101.271 214.536 101.196 214.554 101.129 214.589L98.3986 216.131C98.2846 216.197 98.2906 216.311 98.3986 216.383L101.567 218.213C101.633 218.248 101.706 218.267 101.781 218.269C101.856 218.271 101.93 218.256 101.999 218.225ZM78.4786 215.825L75.3046 213.995C75.2366 213.961 75.1616 213.944 75.0856 213.944C75.0096 213.944 74.9347 213.961 74.8666 213.995L72.1246 215.579C72.0106 215.645 72.0166 215.759 72.1246 215.831L75.2926 217.661C75.3607 217.695 75.4356 217.713 75.5116 217.713C75.5876 217.713 75.6626 217.695 75.7306 217.661L78.4726 216.077C78.5986 216.035 78.5986 215.921 78.4846 215.849L78.4786 215.825ZM84.4786 217.589L81.3046 215.759C81.2376 215.726 81.1637 215.708 81.0886 215.708C81.0136 215.708 80.9396 215.726 80.8726 215.759L76.6726 218.195C76.5586 218.261 76.5646 218.375 76.6726 218.447L79.8406 220.247C79.9087 220.281 79.9836 220.299 80.0596 220.299C80.1356 220.299 80.2106 220.281 80.2786 220.247L84.4786 217.811C84.5986 217.799 84.5986 217.685 84.4906 217.613L84.4786 217.589ZM73.6066 212.285L70.4326 210.455C70.3646 210.421 70.2896 210.404 70.2136 210.404C70.1376 210.404 70.0627 210.421 69.9946 210.455L66.6346 212.399C66.5146 212.465 66.5206 212.579 66.6346 212.651L69.8086 214.481C69.8767 214.515 69.9516 214.533 70.0276 214.533C70.1036 214.533 70.1786 214.515 70.2466 214.481L73.6186 212.531C73.7506 212.495 73.7446 212.399 73.6186 212.309L73.6066 212.285ZM76.1926 210.791C76.2603 210.827 76.3354 210.845 76.4116 210.845C76.4879 210.845 76.563 210.827 76.6306 210.791L79.3726 209.207C79.4926 209.141 79.4806 209.027 79.3726 208.955L76.1986 207.155C76.1306 207.121 76.0556 207.104 75.9796 207.104C75.9036 207.104 75.8287 207.121 75.7606 207.155L73.0186 208.739C72.9046 208.805 72.9106 208.919 73.0186 208.991L76.1926 210.791ZM90.0766 219.599L86.9026 217.799C86.835 217.764 86.7599 217.746 86.6836 217.746C86.6074 217.746 86.5323 217.764 86.4646 217.799L81.1906 220.799C81.0766 220.865 81.0826 220.979 81.1906 221.051L84.3646 222.881C84.4316 222.915 84.5056 222.933 84.5806 222.933C84.6557 222.933 84.7296 222.915 84.7966 222.881L90.0766 219.833C90.2086 219.803 90.2026 219.689 90.0766 219.599ZM92.7106 223.313L89.5366 221.483C89.4686 221.449 89.3936 221.432 89.3176 221.432C89.2417 221.432 89.1667 221.449 89.0986 221.483L85.7206 223.433C85.6066 223.499 85.6126 223.613 85.7206 223.685L88.8946 225.515C88.9627 225.549 89.0376 225.567 89.1136 225.567C89.1896 225.567 89.2646 225.549 89.3326 225.515L92.7046 223.565C92.8426 223.517 92.8306 223.403 92.7106 223.331V223.313ZM106.007 193.589C106.075 193.623 106.15 193.641 106.226 193.641C106.302 193.641 106.377 193.623 106.445 193.589L109.187 192.005C109.307 191.933 109.301 191.825 109.187 191.753L106.013 189.917C105.945 189.883 105.87 189.866 105.794 189.866C105.718 189.866 105.643 189.883 105.575 189.917L102.833 191.501C102.719 191.567 102.725 191.681 102.833 191.753L106.007 193.589ZM97.9906 198.215C98.0583 198.25 98.1334 198.269 98.2096 198.269C98.2859 198.269 98.361 198.25 98.4286 198.215L101.171 196.631C101.291 196.565 101.285 196.451 101.171 196.379L97.9966 194.549C97.9286 194.515 97.8536 194.498 97.7776 194.498C97.7016 194.498 97.6267 194.515 97.5586 194.549L94.7986 196.151C94.6846 196.217 94.6906 196.331 94.7986 196.403L97.9906 198.215ZM80.2126 208.499C80.2807 208.533 80.3556 208.551 80.4316 208.551C80.5076 208.551 80.5826 208.533 80.6506 208.499L83.3926 206.915C83.5126 206.849 83.5066 206.735 83.3926 206.663L80.2186 204.827C80.1506 204.793 80.0756 204.776 79.9996 204.776C79.9237 204.776 79.8487 204.793 79.7806 204.827L77.0266 206.399C76.9126 206.465 76.9186 206.579 77.0266 206.651L80.2126 208.499ZM101.999 195.899C102.067 195.933 102.142 195.951 102.218 195.951C102.294 195.951 102.369 195.933 102.437 195.899L105.179 194.315C105.299 194.249 105.293 194.135 105.179 194.063L101.999 192.263C101.931 192.228 101.856 192.21 101.78 192.21C101.703 192.21 101.628 192.228 101.561 192.263L98.8186 193.841C98.7046 193.913 98.7106 194.027 98.8186 194.099L101.999 195.899ZM93.9826 200.525C94.0507 200.559 94.1257 200.577 94.2016 200.577C94.2776 200.577 94.3526 200.559 94.4206 200.525L97.1626 198.941C97.2826 198.875 97.2706 198.761 97.1626 198.689L93.9886 196.853C93.9206 196.819 93.8456 196.802 93.7696 196.802C93.6936 196.802 93.6187 196.819 93.5506 196.853L90.8086 198.437C90.6946 198.503 90.7006 198.617 90.8086 198.689L93.9826 200.525ZM94.9126 223.601C94.8446 223.567 94.7696 223.55 94.6936 223.55C94.6176 223.55 94.5427 223.567 94.4746 223.601L90.2746 226.037C90.1546 226.103 90.1606 226.217 90.2746 226.289L93.4486 228.119C93.5167 228.153 93.5917 228.171 93.6676 228.171C93.7436 228.171 93.8186 228.153 93.8866 228.119L98.0866 225.683C98.2006 225.617 98.1946 225.503 98.0866 225.431L94.9126 223.601ZM88.2286 203.849C88.2967 203.883 88.3716 203.901 88.4476 203.901C88.5236 203.901 88.5986 203.883 88.6666 203.849L91.4086 202.265C91.5286 202.199 91.5226 202.085 91.4086 202.013L88.1986 200.213C88.131 200.178 88.0559 200.16 87.9796 200.16C87.9034 200.16 87.8283 200.178 87.7606 200.213L85.0186 201.791C84.9046 201.863 84.9106 201.971 85.0186 202.049L88.2286 203.849ZM84.2206 206.159C84.2887 206.193 84.3636 206.211 84.4396 206.211C84.5156 206.211 84.5906 206.193 84.6586 206.159L87.4006 204.575C87.5206 204.509 87.5146 204.395 87.4006 204.323L84.2266 202.493C84.1586 202.459 84.0836 202.442 84.0076 202.442C83.9316 202.442 83.8567 202.459 83.7886 202.493L81.0466 204.077C80.9326 204.143 80.9386 204.257 81.0466 204.329L84.2206 206.159ZM169.199 180.749C169.131 180.715 169.056 180.698 168.98 180.698C168.904 180.698 168.829 180.715 168.761 180.749L161.999 184.643C161.879 184.709 161.891 184.823 161.999 184.895L165.173 186.695C165.24 186.731 165.315 186.749 165.392 186.749C165.468 186.749 165.543 186.731 165.611 186.695L172.361 182.801C172.481 182.735 172.469 182.621 172.361 182.549L169.199 180.749ZM160.337 185.867C160.269 185.832 160.194 185.814 160.118 185.814C160.041 185.814 159.966 185.832 159.899 185.867L157.157 187.451C157.043 187.517 157.049 187.631 157.157 187.703L160.325 189.533C160.392 189.569 160.467 189.587 160.544 189.587C160.62 189.587 160.695 189.569 160.763 189.533L163.505 187.949C163.625 187.883 163.619 187.769 163.505 187.697L160.337 185.867ZM106.037 215.909L108.785 214.325C108.899 214.259 108.893 214.145 108.785 214.073L105.599 212.243C105.531 212.209 105.456 212.192 105.38 212.192C105.304 212.192 105.229 212.209 105.161 212.243L102.419 213.827C102.305 213.893 102.311 214.007 102.419 214.079L105.587 215.915C105.654 215.946 105.727 215.962 105.8 215.961C105.874 215.96 105.947 215.942 106.013 215.909H106.037ZM152.321 190.499C152.253 190.465 152.178 190.448 152.102 190.448C152.026 190.448 151.951 190.465 151.883 190.499L149.141 192.083C149.021 192.149 149.033 192.263 149.141 192.335L152.309 194.135C152.377 194.169 152.452 194.187 152.528 194.187C152.604 194.187 152.679 194.169 152.747 194.135L155.489 192.551C155.609 192.485 155.597 192.371 155.489 192.299L152.321 190.499ZM173.207 178.439C173.139 178.405 173.064 178.388 172.988 178.388C172.912 178.388 172.837 178.405 172.769 178.439L170.003 179.999C169.889 180.065 169.895 180.179 170.003 180.251L173.171 182.081C173.239 182.115 173.314 182.133 173.39 182.133C173.466 182.133 173.541 182.115 173.609 182.081L176.351 180.497C176.471 180.431 176.459 180.317 176.351 180.245L173.207 178.439ZM180.407 177.953L172.703 173.507C172.635 173.472 172.56 173.454 172.484 173.454C172.407 173.454 172.332 173.472 172.265 173.507L169.523 175.085C169.409 175.157 169.415 175.271 169.523 175.343L177.221 179.789C177.289 179.823 177.364 179.841 177.44 179.841C177.516 179.841 177.591 179.823 177.659 179.789L180.401 178.205C180.497 178.139 180.491 178.025 180.365 177.953H180.407ZM137.357 199.145C137.29 199.112 137.216 199.094 137.141 199.094C137.066 199.094 136.992 199.112 136.925 199.145L133.547 201.095C133.427 201.161 133.439 201.275 133.547 201.347L136.721 203.177C136.788 203.213 136.863 203.231 136.94 203.231C137.016 203.231 137.091 203.213 137.159 203.177L140.537 201.227C140.651 201.161 140.645 201.047 140.537 200.975L137.357 199.145ZM147.485 193.295C147.417 193.261 147.342 193.244 147.266 193.244C147.19 193.244 147.115 193.261 147.047 193.295L142.847 195.731C142.733 195.797 142.739 195.911 142.847 195.983L146.015 197.813C146.083 197.847 146.158 197.865 146.234 197.865C146.31 197.865 146.385 197.847 146.453 197.813L150.653 195.377C150.773 195.311 150.767 195.197 150.653 195.125L147.485 193.295ZM128.075 204.503C128.007 204.468 127.932 204.45 127.856 204.45C127.779 204.45 127.704 204.468 127.637 204.503L104.999 217.529C104.885 217.595 104.891 217.709 104.999 217.781L108.167 219.581C108.235 219.615 108.31 219.633 108.386 219.633C108.462 219.633 108.537 219.615 108.605 219.581L131.177 206.543C131.297 206.477 131.291 206.363 131.177 206.291L128.075 204.503ZM104.237 218.267C104.169 218.232 104.094 218.214 104.018 218.214C103.941 218.214 103.866 218.232 103.799 218.267L100.379 220.199C100.265 220.265 100.271 220.379 100.379 220.451L103.553 222.281C103.619 222.316 103.694 222.333 103.769 222.333C103.844 222.333 103.918 222.316 103.985 222.281L107.363 220.331C107.477 220.265 107.471 220.151 107.363 220.079L104.237 218.267ZM132.719 201.827C132.651 201.792 132.576 201.774 132.5 201.774C132.423 201.774 132.348 201.792 132.281 201.827L128.903 203.777C128.789 203.843 128.795 203.957 128.903 204.029L132.071 205.859C132.139 205.893 132.214 205.911 132.29 205.911C132.366 205.911 132.441 205.893 132.509 205.859L135.887 203.909C136.001 203.843 135.995 203.729 135.887 203.657L132.719 201.827ZM99.5926 220.949C99.5246 220.915 99.4496 220.898 99.3736 220.898C99.2976 220.898 99.2227 220.915 99.1546 220.949L95.7826 222.899C95.6626 222.965 95.6746 223.079 95.7826 223.151L98.9566 224.981C99.0247 225.015 99.0996 225.033 99.1756 225.033C99.2516 225.033 99.3266 225.015 99.3946 224.981L102.767 223.031C102.887 222.965 102.881 222.851 102.767 222.779L99.5926 220.949ZM142.001 196.463C141.933 196.429 141.858 196.412 141.782 196.412C141.706 196.412 141.631 196.429 141.563 196.463L138.185 198.413C138.071 198.479 138.077 198.593 138.185 198.665L141.359 200.465C141.426 200.5 141.501 200.519 141.578 200.519C141.654 200.519 141.729 200.5 141.797 200.465L145.169 198.521C145.289 198.449 145.277 198.335 145.169 198.263L142.001 196.463ZM156.347 188.183C156.279 188.149 156.204 188.132 156.128 188.132C156.052 188.132 155.977 188.149 155.909 188.183L153.167 189.767C153.053 189.833 153.059 189.947 153.167 190.019L156.335 191.855C156.403 191.889 156.478 191.907 156.554 191.907C156.63 191.907 156.705 191.889 156.773 191.855L159.515 190.271C159.635 190.205 159.623 190.091 159.515 190.019L156.347 188.183ZM165.089 181.799L167.831 180.215C167.945 180.149 167.939 180.035 167.831 179.963L164.663 178.133C164.595 178.098 164.52 178.08 164.444 178.08C164.367 178.08 164.292 178.098 164.225 178.133L161.483 179.717C161.363 179.783 161.375 179.897 161.483 179.969L164.657 181.799C164.724 181.832 164.798 181.849 164.873 181.849C164.948 181.849 165.021 181.832 165.089 181.799ZM147.167 181.679L149.909 180.101C150.023 180.029 150.017 179.915 149.909 179.843L146.741 178.013C146.673 177.978 146.598 177.96 146.522 177.96C146.445 177.96 146.37 177.978 146.303 178.013L143.561 179.597C143.441 179.663 143.453 179.777 143.561 179.849L146.735 181.679C146.801 181.714 146.875 181.733 146.95 181.734C147.025 181.735 147.099 181.719 147.167 181.685V181.679ZM138.083 197.399L146.099 192.773C146.219 192.707 146.213 192.593 146.099 192.521L142.925 190.691C142.857 190.657 142.782 190.64 142.706 190.64C142.63 190.64 142.555 190.657 142.487 190.691L134.459 195.299C134.345 195.371 134.351 195.485 134.459 195.557L137.627 197.387C137.696 197.426 137.774 197.447 137.853 197.449C137.933 197.451 138.011 197.434 138.083 197.399ZM160.643 184.115C160.71 184.15 160.785 184.169 160.862 184.169C160.938 184.169 161.013 184.15 161.081 184.115L163.823 182.537C163.937 182.465 163.931 182.351 163.823 182.279L160.655 180.449C160.587 180.415 160.512 180.398 160.436 180.398C160.36 180.398 160.285 180.415 160.217 180.449L157.475 182.033C157.355 182.099 157.361 182.213 157.475 182.285L160.643 184.115ZM156.551 181.505L159.293 179.927C159.407 179.855 159.401 179.741 159.293 179.669L156.125 177.839C156.057 177.805 155.982 177.788 155.906 177.788C155.83 177.788 155.755 177.805 155.687 177.839L152.927 179.399C152.807 179.465 152.813 179.579 152.927 179.651L156.101 181.481C156.168 181.521 156.245 181.544 156.323 181.547C156.402 181.55 156.48 181.534 156.551 181.499V181.505ZM134.075 199.715L136.817 198.131C136.937 198.065 136.925 197.951 136.817 197.879L133.643 196.049C133.575 196.015 133.5 195.998 133.424 195.998C133.348 195.998 133.273 196.015 133.205 196.049L130.463 197.633C130.343 197.699 130.355 197.813 130.463 197.885L133.631 199.715C133.7 199.749 133.776 199.766 133.853 199.765C133.93 199.764 134.006 199.745 134.075 199.709V199.715ZM151.799 189.227C151.867 189.261 151.942 189.279 152.018 189.279C152.094 189.279 152.169 189.261 152.237 189.227L154.979 187.643C155.099 187.577 155.087 187.463 154.979 187.391L151.799 185.567C151.731 185.533 151.656 185.516 151.58 185.516C151.504 185.516 151.429 185.533 151.361 185.567L148.619 187.151C148.499 187.223 148.511 187.331 148.619 187.403L151.799 189.227ZM114.053 211.283L116.795 209.699C116.909 209.627 116.903 209.519 116.795 209.447L113.591 207.599C113.523 207.565 113.448 207.548 113.372 207.548C113.296 207.548 113.221 207.565 113.153 207.599L110.399 209.189C110.279 209.255 110.285 209.369 110.399 209.441L113.573 211.271C113.643 211.311 113.722 211.333 113.802 211.335C113.883 211.337 113.963 211.319 114.035 211.283H114.053ZM118.061 208.967L120.803 207.383C120.917 207.317 120.911 207.203 120.803 207.131L117.599 205.301C117.531 205.267 117.456 205.25 117.38 205.25C117.304 205.25 117.229 205.267 117.161 205.301L114.419 206.885C114.299 206.951 114.305 207.065 114.419 207.137L117.593 208.967C117.662 209.003 117.739 209.022 117.818 209.022C117.896 209.022 117.973 209.003 118.043 208.967H118.061ZM110.021 213.599L112.769 212.015C112.883 211.949 112.877 211.835 112.769 211.763L109.595 209.933C109.527 209.898 109.452 209.88 109.376 209.88C109.299 209.88 109.224 209.898 109.157 209.933L106.415 211.517C106.301 211.583 106.307 211.697 106.415 211.769L109.589 213.599C109.655 213.634 109.73 213.651 109.805 213.651C109.88 213.651 109.954 213.634 110.021 213.599ZM126.059 204.341L128.801 202.763C128.915 202.691 128.909 202.577 128.801 202.505L125.633 200.675C125.565 200.641 125.49 200.624 125.414 200.624C125.338 200.624 125.263 200.641 125.195 200.675L122.453 202.259C122.333 202.325 122.339 202.439 122.453 202.511L125.627 204.341C125.694 204.375 125.768 204.391 125.843 204.39C125.918 204.389 125.992 204.37 126.059 204.335V204.341ZM122.051 206.657L124.793 205.073C124.907 205.007 124.901 204.893 124.793 204.821L121.625 202.991C121.557 202.957 121.482 202.94 121.406 202.94C121.33 202.94 121.255 202.957 121.187 202.991L118.445 204.575C118.325 204.647 118.331 204.755 118.445 204.827L121.619 206.663C121.687 206.694 121.761 206.709 121.836 206.707C121.911 206.705 121.984 206.686 122.051 206.651V206.657ZM130.067 202.031L132.809 200.447C132.923 200.381 132.917 200.267 132.809 200.195L129.641 198.395C129.573 198.36 129.498 198.342 129.422 198.342C129.345 198.342 129.27 198.36 129.203 198.395L126.461 199.979C126.341 200.045 126.353 200.159 126.461 200.231L129.635 202.061C129.705 202.089 129.78 202.1 129.855 202.093C129.93 202.087 130.002 202.064 130.067 202.025V202.031ZM148.403 167.795C148.471 167.829 148.546 167.847 148.622 167.847C148.698 167.847 148.773 167.829 148.841 167.795L151.583 166.211C151.703 166.145 151.697 166.031 151.583 165.959L150.737 165.473C150.669 165.439 150.594 165.422 150.518 165.422C150.442 165.422 150.367 165.439 150.299 165.473L147.557 167.057C147.443 167.123 147.449 167.237 147.557 167.309L148.403 167.795ZM128.681 180.521C128.749 180.555 128.824 180.573 128.9 180.573C128.976 180.573 129.051 180.555 129.119 180.521L131.861 178.937C131.981 178.871 131.975 178.757 131.861 178.685L128.687 176.855C128.619 176.821 128.544 176.804 128.468 176.804C128.392 176.804 128.317 176.821 128.249 176.855L125.507 178.439C125.393 178.505 125.399 178.619 125.507 178.691L128.681 180.521ZM136.697 175.895C136.764 175.931 136.839 175.949 136.916 175.949C136.992 175.949 137.067 175.931 137.135 175.895L139.877 174.311C139.997 174.245 139.991 174.131 139.877 174.059L136.703 172.229C136.635 172.194 136.56 172.176 136.484 172.176C136.407 172.176 136.332 172.194 136.265 172.229L133.523 173.813C133.409 173.879 133.415 173.993 133.523 174.065L136.697 175.895ZM123.785 183.347C123.853 183.381 123.928 183.399 124.004 183.399C124.08 183.399 124.155 183.381 124.223 183.347L126.971 181.763C127.085 181.697 127.079 181.583 126.971 181.511L123.797 179.711C123.729 179.677 123.654 179.66 123.578 179.66C123.502 179.66 123.427 179.677 123.359 179.711L120.599 181.259C120.485 181.325 120.491 181.439 120.599 181.511L123.785 183.347ZM132.689 178.199C132.757 178.233 132.832 178.251 132.908 178.251C132.984 178.251 133.059 178.233 133.127 178.199L135.869 176.615C135.989 176.549 135.983 176.435 135.869 176.363L132.695 174.563C132.627 174.529 132.552 174.512 132.476 174.512C132.4 174.512 132.325 174.529 132.257 174.563L129.515 176.147C129.401 176.219 129.407 176.327 129.515 176.399L132.689 178.199ZM115.799 187.973C115.867 188.007 115.942 188.025 116.018 188.025C116.094 188.025 116.169 188.007 116.237 187.973L118.979 186.389C119.099 186.323 119.093 186.209 118.979 186.137L115.805 184.307C115.737 184.272 115.662 184.254 115.586 184.254C115.509 184.254 115.434 184.272 115.367 184.307L112.625 185.885C112.511 185.957 112.517 186.071 112.625 186.143L115.799 187.973ZM119.807 185.657C119.875 185.691 119.95 185.709 120.026 185.709C120.102 185.709 120.177 185.691 120.245 185.657L122.987 184.073C123.107 184.001 123.101 183.893 122.987 183.821L119.813 181.985C119.745 181.951 119.67 181.934 119.594 181.934C119.518 181.934 119.443 181.951 119.375 181.985L116.591 183.599C116.477 183.665 116.483 183.779 116.591 183.851L119.807 185.657ZM140.399 172.415C140.466 172.451 140.541 172.469 140.618 172.469C140.694 172.469 140.769 172.451 140.837 172.415L143.579 170.837C143.699 170.765 143.693 170.657 143.579 170.579L142.733 170.093C142.665 170.059 142.59 170.042 142.514 170.042C142.438 170.042 142.363 170.059 142.295 170.093L139.553 171.677C139.439 171.743 139.445 171.857 139.553 171.929L140.399 172.415ZM152.399 165.473C152.466 165.509 152.541 165.527 152.618 165.527C152.694 165.527 152.769 165.509 152.837 165.473L155.585 163.889C155.699 163.823 155.693 163.709 155.585 163.637L154.739 163.151C154.671 163.116 154.596 163.098 154.52 163.098C154.443 163.098 154.368 163.116 154.301 163.151L151.559 164.729C151.445 164.801 151.451 164.915 151.559 164.987L152.399 165.473ZM159.065 169.319C159.132 169.355 159.207 169.373 159.284 169.373C159.36 169.373 159.435 169.355 159.503 169.319L162.245 167.735C162.359 167.669 162.353 167.555 162.245 167.483L159.077 165.683C159.009 165.648 158.934 165.63 158.858 165.63C158.781 165.63 158.706 165.648 158.639 165.683L155.897 167.267C155.777 167.333 155.783 167.447 155.897 167.519L159.065 169.319ZM169.085 179.489L171.827 177.905C171.947 177.839 171.935 177.725 171.827 177.653L168.653 175.853C168.585 175.819 168.51 175.802 168.434 175.802C168.358 175.802 168.283 175.819 168.215 175.853L165.473 177.437C165.353 177.503 165.365 177.617 165.473 177.689L168.641 179.519C168.713 179.553 168.793 179.568 168.872 179.563C168.952 179.558 169.029 179.532 169.097 179.489H169.085ZM144.395 170.099C144.463 170.133 144.538 170.151 144.614 170.151C144.69 170.151 144.765 170.133 144.833 170.099L147.575 168.515C147.695 168.449 147.689 168.335 147.575 168.263L146.729 167.777C146.661 167.742 146.586 167.724 146.51 167.724C146.433 167.724 146.358 167.742 146.291 167.777L143.549 169.361C143.435 169.427 143.441 169.541 143.549 169.613L144.395 170.099ZM111.761 190.283C111.829 190.317 111.904 190.335 111.98 190.335C112.056 190.335 112.131 190.317 112.199 190.283L114.941 188.699C115.061 188.633 115.055 188.519 114.941 188.447L111.767 186.617C111.699 186.583 111.624 186.566 111.548 186.566C111.472 186.566 111.397 186.583 111.329 186.617L108.599 188.201C108.485 188.267 108.491 188.381 108.599 188.453L111.761 190.283Z" fill="#263238"/>
<path opacity="0.3" d="M129.54 214.349L156.6 198.719C157.058 198.488 157.563 198.367 158.076 198.367C158.589 198.367 159.094 198.488 159.552 198.719L175.074 207.683C175.89 208.151 175.89 208.913 175.074 209.387L148.008 224.987C147.551 225.22 147.045 225.342 146.532 225.342C146.019 225.342 145.513 225.22 145.056 224.987L129.54 216.053C128.724 215.579 128.724 214.799 129.54 214.349Z" fill="black"/>
<path d="M40.3138 204.527C40.5526 204.663 40.8063 204.772 41.0698 204.851C40.8055 204.777 40.5516 204.67 40.3138 204.533C40.2315 204.49 40.1532 204.44 40.0798 204.383C40.1548 204.436 40.2329 204.484 40.3138 204.527Z" fill="#BA68C8"/>
<path opacity="0.3" d="M141.895 62.9986C141.721 61.7266 140.695 61.2586 139.453 61.9786L45.0846 116.453C44.3605 116.894 43.7614 117.514 43.3446 118.253L38.7246 115.595C39.1389 114.844 39.7378 114.213 40.4646 113.759L134.839 59.2966C135.522 58.8673 136.305 58.6248 137.111 58.5933C137.917 58.5619 138.717 58.7426 139.432 59.1174C140.146 59.4921 140.75 60.0478 141.182 60.7289C141.614 61.4101 141.86 62.1927 141.895 62.9986Z" fill="black"/>
<path d="M44.6211 204.76C44.6329 204.757 44.6453 204.757 44.6571 204.76H44.6211Z" fill="#BA68C8"/>
<path opacity="0.5" d="M215.814 193.868C215.752 194.694 215.497 195.494 215.07 196.204C214.643 196.914 214.055 197.513 213.354 197.954L118.98 252.44C118.222 252.846 117.373 253.053 116.514 253.04V247.718C117.373 247.731 118.222 247.524 118.98 247.118L213.354 192.596C214.62 191.858 214.704 190.706 213.6 189.914C214.238 190.369 214.767 190.959 215.15 191.643C215.533 192.326 215.76 193.086 215.814 193.868Z" fill="black"/>
<path d="M276.22 147.216L265.198 140.856C264.952 140.724 264.598 140.814 264.166 141.144C263.938 141.312 263.711 141.48 263.483 141.636L263.224 141.798C263.074 141.894 262.925 141.996 262.769 142.086C262.613 142.176 262.552 142.206 262.444 142.272L262.042 142.494L261.67 142.68L261.298 142.86L260.884 143.034C260.77 143.082 260.657 143.136 260.537 143.178L260.087 143.346L259.769 143.46L259.283 143.61L258.994 143.694L258.472 143.826L258.208 143.886C258.028 143.928 257.842 143.964 257.656 143.994L257.428 144.036L256.828 144.12H256.63C256.426 144.12 256.216 144.162 256.03 144.174H255.869H255.22H255.088C254.866 144.174 254.645 144.174 254.423 144.174H254.32C254.092 144.174 253.858 144.174 253.63 144.126H253.564L252.851 144.03H252.814L252.484 143.964L245.644 140.016C245.14 139.734 244.678 139.938 244.378 140.676C240.406 150.54 231.946 160.542 226.306 163.044C226.194 163.092 226.086 163.148 225.983 163.212C225.914 163.252 225.848 163.296 225.784 163.344L225.695 163.404L225.448 163.614C225.364 163.692 225.287 163.776 225.209 163.86C224.806 164.299 224.582 164.872 224.578 165.468L225.395 175.488C225.395 181.95 228.142 188.766 233.752 192.024L244.78 198.378L244.859 198.42C247.707 199.996 250.98 200.637 254.212 200.25C255.42 200.05 256.539 199.49 257.423 198.642C269.758 185.904 275.752 168.642 275.752 159.126L276.569 148.086C276.563 147.648 276.436 147.342 276.22 147.216Z" fill="#BA68C8"/>
<path opacity="0.4" d="M256.584 146.361C256.474 146.305 256.351 146.279 256.228 146.286C256.105 146.292 255.986 146.33 255.882 146.397L255.762 146.487C255.692 146.557 255.63 146.633 255.576 146.715C255.516 146.819 255.463 146.927 255.42 147.039C254.386 149.573 253.143 152.018 251.706 154.347C250.461 156.395 249.093 158.364 247.608 160.245C246.888 161.145 246.168 162.003 245.442 162.807C245.444 162.817 245.444 162.827 245.442 162.837L244.842 163.503C244.632 163.713 244.434 163.929 244.242 164.133C244.14 164.247 244.038 164.355 243.93 164.457C241.614 166.785 239.346 168.525 237.408 169.383C237.077 169.53 236.775 169.733 236.514 169.983L236.292 170.205C236.279 170.224 236.265 170.242 236.25 170.259L236.292 170.205L225.276 163.857C225.284 163.84 225.297 163.826 225.312 163.815C225.332 163.782 225.356 163.752 225.384 163.725L225.45 163.665C225.468 163.644 225.488 163.623 225.51 163.605L225.576 163.545C225.633 163.49 225.693 163.438 225.756 163.389L225.846 163.329C225.912 163.287 225.978 163.233 226.044 163.197C226.146 163.13 226.254 163.074 226.368 163.029C232.008 160.527 240.474 150.525 244.44 140.661C244.656 140.133 244.95 139.875 245.286 139.875C245.435 139.881 245.58 139.926 245.706 140.007L252.48 144.003L256.584 146.361Z" fill="white"/>
<path opacity="0.1" d="M276.221 147.215L265.199 140.855C264.959 140.729 264.599 140.819 264.173 141.143C263.951 141.317 263.717 141.485 263.483 141.641L263.231 141.803C263.081 141.899 262.931 142.001 262.775 142.091C262.619 142.181 262.559 142.211 262.451 142.277L262.049 142.499C261.929 142.565 261.803 142.619 261.677 142.679L261.305 142.865L260.885 143.039C260.777 143.093 260.657 143.141 260.543 143.189L260.093 143.351L259.775 143.465L259.283 143.615L258.995 143.699L258.479 143.831L258.221 143.891L257.663 143.999L257.429 144.041C257.237 144.077 257.045 144.101 256.829 144.125H256.631L256.031 144.185H255.869C255.653 144.185 255.437 144.185 255.221 144.185H255.095C254.867 144.185 254.645 144.185 254.423 144.185H254.327C254.093 144.185 253.859 144.155 253.631 144.137H253.565C253.325 144.137 253.085 144.083 252.857 144.047H252.821C252.709 144.033 252.599 144.009 252.491 143.975L256.595 146.339L256.667 146.381C256.823 146.479 256.961 146.603 257.075 146.747C257.104 146.772 257.13 146.801 257.153 146.831C261.353 151.739 269.657 151.733 275.195 147.497C275.615 147.179 275.963 147.077 276.197 147.185H276.233C276.342 147.251 276.425 147.353 276.467 147.473C276.416 147.362 276.329 147.272 276.221 147.215Z" fill="black"/>
<path opacity="0.2" d="M244.607 198.349L233.729 192.085C228.125 188.821 225.371 182.005 225.371 175.543L224.555 165.523C224.562 165.138 224.656 164.76 224.83 164.416C225.005 164.073 225.256 163.775 225.563 163.543C225.427 163.656 225.301 163.781 225.185 163.915L236.207 170.263C235.81 170.706 235.596 171.282 235.607 171.877L236.417 181.897C236.399 188.299 239.099 195.055 244.607 198.349Z" fill="black"/>
<path d="M276.545 148.145L275.729 159.185C275.729 168.725 269.729 185.963 257.405 198.701C256.52 199.552 255.395 200.111 254.183 200.303C250.955 200.701 247.684 200.071 244.835 198.503L244.757 198.461L244.613 198.371C239.099 195.077 236.393 188.327 236.393 181.919L235.583 171.899C235.574 171.307 235.788 170.733 236.183 170.291C236.25 170.212 236.322 170.138 236.399 170.069C236.659 169.818 236.962 169.615 237.293 169.469C239.237 168.605 241.493 166.865 243.821 164.543L244.133 164.219L244.733 163.583L245.333 162.917C246.065 162.107 246.785 161.249 247.505 160.349C248.989 158.468 250.358 156.498 251.603 154.451C253.038 152.124 254.279 149.681 255.311 147.149C255.359 147.036 255.413 146.926 255.473 146.819C255.527 146.739 255.589 146.664 255.659 146.597C255.696 146.563 255.736 146.533 255.779 146.507C255.88 146.438 255.999 146.398 256.122 146.392C256.244 146.385 256.366 146.413 256.475 146.471L256.553 146.507C256.71 146.603 256.848 146.727 256.961 146.873L257.039 146.963C261.239 151.865 269.543 151.859 275.081 147.629C275.495 147.311 275.849 147.209 276.083 147.311H276.113C276.169 147.335 276.216 147.374 276.251 147.425C276.429 147.623 276.533 147.878 276.545 148.145Z" fill="#BA68C8"/>
<path d="M259.264 184.358L252.7 188.144L253.714 176.27C252.928 175.856 252.43 174.83 252.43 173.366C252.43 170.75 254.02 167.714 255.982 166.58C257.944 165.446 259.534 166.646 259.534 169.262C259.492 170.812 259.049 172.325 258.25 173.654L259.264 184.358Z" fill="#455A64"/>
<path d="M259.266 184.356L253.32 180.918L252.702 188.142L259.266 184.356Z" fill="#37474F"/>
<path d="M255.984 166.58C254.553 167.544 253.487 168.959 252.953 170.6L258.252 173.654C259.051 172.325 259.493 170.812 259.535 169.262C259.535 166.646 257.946 165.446 255.984 166.58Z" fill="#37474F"/>
<path d="M264.24 119.215C262.44 118.159 260.124 118.279 257.946 119.533L240.696 129.499C238.898 130.638 237.403 132.197 236.341 134.042C235.28 135.887 234.682 137.962 234.6 140.089V161.221C234.625 161.489 234.721 161.745 234.878 161.963C235.035 162.182 235.248 162.354 235.494 162.463C236.162 162.799 236.9 162.973 237.648 162.973C238.396 162.973 239.134 162.799 239.802 162.463C240.048 162.354 240.261 162.182 240.418 161.963C240.575 161.745 240.671 161.489 240.696 161.221V140.089C240.778 139.031 241.097 138.005 241.627 137.087C242.158 136.168 242.887 135.379 243.762 134.779L261 124.801V145.951C261.026 146.22 261.123 146.476 261.281 146.695C261.439 146.913 261.653 147.085 261.9 147.193C262.567 147.53 263.304 147.706 264.051 147.706C264.798 147.706 265.535 147.53 266.202 147.193C266.448 147.084 266.661 146.912 266.818 146.693C266.975 146.475 267.071 146.219 267.096 145.951V124.801C267.108 122.311 266.064 120.265 264.24 119.215Z" fill="#37474F"/>
<path d="M260.998 124.802V145.934C261.024 146.202 261.121 146.459 261.279 146.677C261.437 146.896 261.651 147.068 261.898 147.176C262.179 147.334 262.479 147.454 262.792 147.53V123.77L260.998 124.802Z" fill="#263238"/>
</svg>
