<svg width="514" height="320" viewBox="0 0 514 320" fill="none" xmlns="http://www.w3.org/2000/svg">
<g clip-path="url(#clip0_400_8666)">
<path d="M303.966 214.146C303.966 214.146 312.044 209.109 315.086 209.446L332.564 213.526C332.564 213.526 334.093 215.164 331.036 216.672C327.979 218.18 324.158 216.014 324.158 216.014L319.908 216.611L322.843 219.068L334.437 222.643C334.437 222.643 342.844 225.016 341.82 226.256C340.796 227.496 338.273 227.649 334.651 226.623L326.427 224.327C326.427 224.327 324.991 224.013 327.306 225.621C329.622 227.228 339.794 229.731 341.139 230.397C342.485 231.063 346.138 231.622 345.725 233.712C345.312 235.802 340.742 234.118 340.742 234.118L325.686 230.619C325.686 230.619 331.632 233.191 332.641 233.681C333.65 234.171 336.944 235.067 338.701 235.978C340.459 236.889 341.3 238.022 341.101 238.948C341.033 239.392 340.798 239.793 340.444 240.069C340.09 240.345 339.645 240.475 339.198 240.433L326.458 236.047C326.458 236.047 320.68 233.75 320.29 233.827C319.901 233.903 322.545 236.376 322.545 236.376L326.611 238.466C326.611 238.466 332.48 240.433 332.496 242.063C332.511 243.694 331.288 243.633 331.288 243.633L320.588 239.935L308.643 233.873L299.693 228.376C299.693 228.376 301.306 222.053 301 221.778C300.695 221.502 303.966 214.146 303.966 214.146Z" fill="#FFBE9D"/>
<path d="M308.184 226.027C308.184 225.905 309.307 225.606 311.065 224.971C312.823 224.335 315.299 223.202 316.583 220.699C317.145 219.683 317.349 218.508 317.164 217.362L317.087 216.979L317.508 216.925C319.365 216.68 321.092 216.275 322.261 216.122C323.431 215.968 324.18 215.915 324.18 216.014C323.59 216.254 322.978 216.436 322.353 216.558C321.168 216.841 319.609 217.323 317.531 217.653L317.875 217.216C318.126 218.524 317.912 219.878 317.271 221.044C316.602 222.312 315.597 223.372 314.366 224.106C313.392 224.7 312.34 225.156 311.241 225.461C309.383 226.012 308.207 226.119 308.184 226.027Z" fill="#EB996E"/>
<path d="M143.928 291.33L142.514 238.496L235.02 240.287L247.608 289.34L143.928 291.33Z" fill="#060040"/>
<path d="M189.968 90.8555L183.013 97.454C183.013 97.454 157.028 103.922 152.443 108.477C147.857 113.032 145.564 183.204 145.832 188.088C146.099 192.972 145.832 235.112 145.832 235.112C145.832 235.112 144.303 251.187 145.832 252.106C147.36 253.025 176.525 253.407 191.069 253.714C205.613 254.02 236.451 254.869 238.27 253.354C240.089 251.838 233.753 220.376 233.753 220.376L231.231 205.87L231.995 180.502L237.345 145.603L241.296 109.465C241.296 109.465 230.696 103.096 225.545 101.879C220.393 100.661 189.968 90.8555 189.968 90.8555Z" fill="url(#paint0_linear_400_8666)"/>
<path d="M266.663 192.176L252.532 132.743C251.414 128.022 249.784 123.438 247.671 119.071C245.478 114.563 242.764 109.648 241.274 109.472C232.508 108.462 227.945 135.269 227.945 135.269V169.249L236.215 206.054C236.838 208.83 238.176 211.394 240.096 213.49C242.016 215.587 244.451 217.143 247.159 218.003L303.248 235.885L309.752 207.998L266.663 192.176Z" fill="url(#paint1_linear_400_8666)"/>
<path d="M166.467 103.165C166.467 103.165 145.151 106.181 138.265 122.471C138.265 122.471 116.965 205.511 120.527 216.45C124.088 227.389 151.625 269.59 151.625 269.59L175.768 256.83C175.768 256.83 152.175 207.785 152.175 202.373C152.175 196.961 166.467 103.165 166.467 103.165Z" fill="url(#paint2_linear_400_8666)"/>
<path d="M175.769 256.83C175.714 256.746 175.668 256.656 175.632 256.563C175.54 256.371 175.425 256.103 175.272 255.797C174.959 255.07 174.508 254.044 173.927 252.735L169.051 241.429C164.97 231.853 159.337 218.656 153.116 204.081C152.826 203.407 152.543 202.741 152.283 202.121V202.075C152.364 201.108 152.515 200.149 152.734 199.204C152.933 198.271 153.139 197.344 153.361 196.441C153.789 194.619 154.247 192.836 154.698 191.083C155.608 187.584 156.494 184.193 157.327 181.001C159.024 174.594 160.53 168.837 161.752 163.999C162.975 159.162 163.908 155.242 164.557 152.517C164.863 151.178 165.108 150.136 165.276 149.402C165.36 149.057 165.429 148.797 165.474 148.59C165.491 148.498 165.519 148.407 165.558 148.322C165.548 148.415 165.533 148.507 165.513 148.598C165.474 148.805 165.421 149.072 165.352 149.417C165.199 150.182 164.985 151.208 164.703 152.555C164.106 155.273 163.22 159.2 162.02 164.038C160.82 168.876 159.353 174.647 157.679 181.062C156.854 184.277 155.975 187.645 155.073 191.144C154.629 192.897 154.171 194.68 153.743 196.502C153.263 198.321 152.908 200.17 152.681 202.037V201.96C152.948 202.58 153.231 203.254 153.514 203.92L169.349 241.322L174.042 252.613C174.584 253.945 175.012 254.978 175.318 255.675C175.451 256.011 175.558 256.279 175.639 256.478C175.739 256.731 175.769 256.83 175.769 256.83Z" fill="#263238"/>
<path d="M237.221 139.318C237.241 139.481 237.241 139.646 237.221 139.808C237.221 140.16 237.198 140.62 237.152 141.186C237.068 142.434 236.961 144.149 236.823 146.254C236.518 150.533 236.151 156.442 235.471 162.957C234.79 169.471 233.827 175.327 233.094 179.553C232.727 181.665 232.414 183.38 232.184 184.551C232.077 185.102 231.986 185.554 231.909 185.898C231.885 186.06 231.846 186.218 231.794 186.373C231.788 186.211 231.801 186.049 231.833 185.891C231.886 185.531 231.947 185.079 232.031 184.521C232.222 183.288 232.49 181.589 232.796 179.507C233.453 175.273 234.37 169.417 235.05 162.918C235.73 156.419 236.143 150.502 236.518 146.231C236.709 144.133 236.862 142.403 236.976 141.171C237.03 140.612 237.083 140.153 237.121 139.801C237.137 139.637 237.17 139.475 237.221 139.318Z" fill="#263238"/>
<path d="M154.803 267.921L157.195 272.331C157.195 272.331 169.049 267.807 174.689 260.182L173.16 258.651L154.803 267.921Z" fill="#FFBE9D"/>
<path d="M178.191 255.864C177.993 256.256 177.766 256.632 177.511 256.99C177.282 257.349 176.999 257.755 176.632 258.26C176.265 258.765 175.868 259.301 175.379 259.875C174.889 260.45 174.362 261.1 173.743 261.736C173.124 262.371 172.451 263.052 171.725 263.741C170.122 265.213 168.407 266.559 166.597 267.768C164.781 268.963 162.886 270.035 160.926 270.975C159.321 271.73 157.676 272.395 155.997 272.965C155.286 273.226 154.629 273.409 154.048 273.585C153.467 273.761 152.978 273.892 152.565 273.983C152.145 274.109 151.716 274.201 151.281 274.259C151.681 274.083 152.095 273.943 152.519 273.838C152.924 273.715 153.421 273.57 153.987 273.371C154.552 273.172 155.202 272.973 155.905 272.697C157.319 272.192 158.962 271.496 160.766 270.638C162.702 269.688 164.578 268.619 166.383 267.438C168.172 266.237 169.876 264.912 171.481 263.473C172.207 262.8 172.902 262.157 173.506 261.506C174.11 260.855 174.668 260.258 175.165 259.692C175.661 259.125 176.074 258.582 176.449 258.122C176.823 257.663 177.136 257.242 177.381 256.898C177.621 256.531 177.892 256.185 178.191 255.864Z" fill="#455A64"/>
<path d="M166.147 132.811C166.055 132.811 166.376 131.403 166.307 129.145C166.292 128.53 166.238 127.916 166.147 127.308C166.059 126.606 165.929 125.911 165.757 125.225C164.976 122.07 163.442 119.151 161.286 116.721C160.804 116.196 160.294 115.698 159.757 115.228C159.307 114.807 158.829 114.416 158.328 114.057C156.509 112.725 155.179 112.204 155.218 112.128C155.54 112.207 155.851 112.328 156.142 112.488C156.504 112.631 156.852 112.808 157.182 113.016C157.636 113.26 158.075 113.531 158.496 113.827C159.016 114.179 159.511 114.565 159.979 114.983C160.518 115.449 161.029 115.948 161.508 116.476C162.612 117.704 163.564 119.061 164.343 120.518C165.099 121.975 165.679 123.516 166.07 125.111C166.232 125.81 166.352 126.518 166.429 127.231C166.506 127.853 166.545 128.48 166.544 129.107C166.554 129.618 166.531 130.129 166.475 130.637C166.453 131.026 166.402 131.412 166.322 131.793C166.293 132.137 166.234 132.478 166.147 132.811Z" fill="#263238"/>
<path d="M162.935 155.686C162.935 155.793 155.873 154.155 147.229 152.095C138.585 150.036 131.585 148.268 131.607 148.13C131.63 147.992 138.669 149.623 147.321 151.713C155.972 153.802 162.958 155.578 162.935 155.686Z" fill="white"/>
<path d="M235.709 151.292C235.709 151.407 219.874 151.767 200.347 152.096C180.82 152.425 164.976 152.616 164.969 152.502C164.961 152.387 180.804 152.035 200.339 151.698C219.874 151.361 235.709 151.185 235.709 151.292Z" fill="white"/>
<path d="M258.363 155.272C258.083 155.368 257.793 155.43 257.499 155.456C256.949 155.555 256.139 155.67 255.137 155.808C253.143 156.083 250.376 156.413 247.311 156.719C244.247 157.025 241.465 157.232 239.455 157.354C238.446 157.415 237.628 157.454 237.062 157.469C236.771 157.509 236.475 157.509 236.184 157.469C236.469 157.396 236.761 157.35 237.055 157.331L239.432 157.086L247.273 156.321L255.107 155.555L257.484 155.326C257.773 155.271 258.069 155.253 258.363 155.272Z" fill="white"/>
<path d="M152.841 198.882C152.841 198.989 146.031 198.116 137.678 196.899C129.324 195.682 122.553 194.603 122.568 194.526C122.584 194.45 129.37 195.292 137.731 196.509C146.092 197.726 152.856 198.775 152.841 198.882Z" fill="white"/>
<path d="M230 205.074C230 205.181 213.599 206.406 193.316 207.807C173.032 209.208 156.631 210.249 156.631 210.103C156.631 209.958 173.032 208.771 193.316 207.378C213.599 205.985 229.993 204.967 230 205.074Z" fill="white"/>
<path d="M265.156 193.133C264.868 193.436 264.556 193.715 264.223 193.967L261.594 196.141C259.378 197.971 256.321 200.512 252.996 203.367C249.672 206.223 246.691 208.871 244.551 210.793L242.006 213.089C241.709 213.374 241.387 213.63 241.043 213.855C241.308 213.53 241.596 213.225 241.907 212.944C242.472 212.377 243.313 211.566 244.36 210.578C246.454 208.611 249.404 205.932 252.767 203.069C256.13 200.206 259.187 197.71 261.449 195.919C262.588 195.031 263.512 194.319 264.154 193.845C264.467 193.579 264.802 193.341 265.156 193.133Z" fill="white"/>
<path d="M169.285 246.985C168.976 247.164 168.651 247.315 168.315 247.437L165.632 248.555L156.736 252.206L147.863 255.934L145.173 257.052C144.849 257.205 144.511 257.328 144.164 257.419C144.464 257.221 144.781 257.052 145.112 256.914C145.731 256.608 146.64 256.187 147.756 255.674C149.995 254.648 153.106 253.285 156.583 251.846C160.061 250.407 163.225 249.167 165.533 248.302C166.687 247.866 167.619 247.537 168.277 247.299C168.601 247.16 168.939 247.054 169.285 246.985Z" fill="white"/>
<path d="M297.218 204.654C297.209 205.026 297.16 205.395 297.073 205.757C296.95 206.461 296.744 207.471 296.469 208.719C295.926 211.215 295.047 214.629 293.863 218.341C292.678 222.054 291.402 225.353 290.401 227.696C289.896 228.874 289.476 229.816 289.17 230.459C289.031 230.803 288.857 231.131 288.65 231.439C288.747 231.082 288.872 230.734 289.025 230.398L290.141 227.588C291.073 225.223 292.296 221.924 293.481 218.219C294.665 214.514 295.582 211.123 296.194 208.65C296.484 207.471 296.729 206.491 296.92 205.726C296.988 205.361 297.088 205.002 297.218 204.654Z" fill="white"/>
<path d="M189.632 105.293C189.232 105.408 188.823 105.49 188.409 105.538L185.061 106.112C182.234 106.61 178.336 107.368 174.079 108.409C169.822 109.45 166.016 110.544 163.272 111.402L160.032 112.42C159.638 112.565 159.235 112.68 158.824 112.764C159.194 112.568 159.58 112.404 159.978 112.274C160.743 111.984 161.82 111.593 163.188 111.134C165.909 110.208 169.715 109.052 173.987 108.018C178.259 106.985 182.165 106.273 185.016 105.844C186.437 105.63 187.591 105.477 188.386 105.393C188.798 105.323 189.214 105.29 189.632 105.293Z" fill="white"/>
<path d="M247.5 32.694C253.171 37.5855 249.999 45.2557 248.861 52.658C247.722 60.0603 249.044 68.1898 249.342 75.6763C249.503 79.6339 250.473 83.7216 249.189 87.4648C247.852 91.3841 244.344 94.0633 241.615 97.1865C238.887 100.31 236.846 104.941 238.994 108.478C238.407 108.702 237.773 108.774 237.151 108.689C236.528 108.603 235.937 108.362 235.432 107.988C234.515 109.633 232.253 110.123 230.442 109.587C228.63 109.052 227.163 107.758 225.764 106.526C225.55 107.88 223.907 108.615 222.562 108.34C221.243 107.939 220.069 107.162 219.184 106.104C218.301 105.049 217.194 104.204 215.944 103.632C213.078 102.614 209.73 104.796 206.948 103.555C203.127 101.864 203.501 95.2499 199.55 93.8949C197.693 93.2519 195.691 94.1322 193.742 94.3466C191.793 94.5609 189.699 92.8156 189.966 90.8866C186.611 92.2874 182.324 92.9534 178.877 91.7056C179.427 91.2572 179.846 90.6688 180.091 90.0021C180.336 89.3353 180.397 88.615 180.268 87.9165C177.774 88.3532 175.207 88.0388 172.893 87.0132C173.936 86.7527 174.912 86.2716 175.754 85.6022C176.596 84.9328 177.286 84.0906 177.776 83.1321C176.721 83.2942 175.641 83.1908 174.635 82.8314C173.629 82.472 172.729 81.8677 172.014 81.073C176.271 81.1189 179.236 76.7097 180.13 72.5454C181.024 68.3811 180.711 63.926 182.423 60.022C184.265 55.7735 188.208 52.8111 190.601 48.8458C193.94 43.319 194.032 36.2688 197.479 30.8109C199.772 27.236 201.896 24.1894 205.32 21.7092C209.646 18.5707 212.122 16.9479 217.465 17.0168C221.943 17.078 229.601 18.3257 233.422 20.6681C240.209 24.8324 247.416 29.4789 250.427 36.8583" fill="url(#paint3_linear_400_8666)"/>
<path d="M197.274 65.4876C196.953 59.578 196.67 53.6225 197.366 47.7435C198.061 41.8646 199.812 36.0009 203.228 31.163C203.747 30.4358 207.768 25.6668 208.578 25.9806C209.174 26.2026 206.239 30.8721 206.407 31.4922C208.02 37.3941 207.171 43.74 205.154 49.5348C203.118 55.1305 200.464 60.4812 197.244 65.4876" fill="#263238"/>
<path d="M211.398 125.625C202.586 123.076 186.001 105.799 188.355 96.9189L202.517 43.503C205.865 29.0276 217.038 18.9155 231.414 22.6664L232.721 23.095C239.056 25.1536 244.386 29.5253 247.65 35.3406C250.915 41.1559 251.874 47.9888 250.337 54.4801C247.364 67.0112 243.925 80.8053 241.724 87.3273C237.138 100.831 222.946 98.5417 222.946 98.5417C222.946 98.5417 222.013 101.711 220.898 105.745C218.391 114.801 213.11 123.68 211.398 125.648V125.625Z" fill="url(#paint4_linear_400_8666)"/>
<path d="M200.37 53.8978C200.171 53.7217 191.963 48.126 189.257 57.4879C186.552 66.8499 196.495 67.646 196.587 67.378C196.678 67.1101 200.37 53.8978 200.37 53.8978Z" fill="#FFBE9D"/>
<path d="M248.618 37.2324C250.376 36.819 247.196 30.6262 243.941 27.8857C239.003 23.7291 230.856 19.7562 225.247 19.7715C218.498 19.7715 212.43 21.4556 207.668 26.2782C202.907 31.1008 199.896 37.4161 198.26 43.9763C197.756 45.9743 197.381 48.1023 197.978 50.1002C198.704 52.5422 200.851 54.5554 199.942 57.3877C199.762 57.8961 199.684 58.4351 199.713 58.9738C199.741 59.5125 199.876 60.0401 200.11 60.5262C201.317 62.8227 203.931 61.7127 205.345 60.2583C208.402 57.1581 209.885 52.833 211.245 48.6688C212.208 45.714 213.186 42.6826 213.148 39.5748C213.148 37.883 212.804 36.1989 212.873 34.4996C212.858 33.6506 213.028 32.8085 213.37 32.0314C213.711 31.2543 214.217 30.5607 214.853 29.9985C215.159 29.7864 215.484 29.602 215.823 29.4473C217.45 28.6691 219.253 28.3389 221.049 28.491C222.845 28.643 224.569 29.2717 226.041 30.3123C230.795 33.6652 239.034 38.9853 241.885 37.8524C245.996 36.2219 247.28 34.7904 247.28 34.7904L248.618 37.2324Z" fill="url(#paint5_linear_400_8666)"/>
<path d="M200.18 55.1836C200.18 55.375 200.18 55.5663 200.18 55.7807C200.187 55.7807 200.18 55.5663 200.18 55.1836Z" fill="#FF725E"/>
<path d="M225.56 209.431C225.56 209.431 225.468 209.523 225.27 209.668L224.398 210.296C223.634 210.832 222.518 211.582 221.127 212.493C218.353 214.322 214.455 216.772 210.068 219.328C205.682 221.885 201.623 224.052 198.658 225.567C197.183 226.333 195.975 226.922 195.135 227.32L194.164 227.772C193.935 227.871 193.82 227.917 193.812 227.902C193.909 227.823 194.014 227.757 194.126 227.703L195.066 227.182L198.528 225.315C201.455 223.784 205.483 221.533 209.87 218.984C214.257 216.435 218.162 214.024 220.975 212.255L224.314 210.166L225.224 209.607C225.327 209.533 225.441 209.474 225.56 209.431Z" fill="#263238"/>
<path d="M266.632 192.084C262.805 194.289 259.546 197.362 257.117 201.056C257.34 200.44 257.652 199.859 258.042 199.333C258.918 198.015 259.944 196.802 261.099 195.72C262.25 194.641 263.519 193.696 264.882 192.903C265.423 192.548 266.013 192.272 266.632 192.084Z" fill="#263238"/>
<path d="M265.851 182.141C265.851 182.141 238.697 185.364 228.655 193.402C227.059 194.701 225.583 196.141 224.245 197.704C217.954 205.053 214.133 214.199 213.323 223.845L209.686 263.842L209.976 270.448C210.196 275.414 212.316 280.104 215.896 283.546C219.476 286.989 224.242 288.918 229.205 288.935L341.414 289.7C341.414 289.7 356.149 273.227 352.29 247.675C351.38 241.666 349.928 221.059 344.242 208.375C341.239 201.669 336.638 193.386 324.494 190.156L296.147 182.126L265.851 182.141Z" fill="url(#paint6_linear_400_8666)"/>
<path d="M240.402 214.675C240.294 214.385 240.217 214.085 240.172 213.779C240.05 213.205 239.859 212.371 239.607 211.345C238.936 208.677 238.057 206.067 236.978 203.537C235.883 201.016 234.59 198.587 233.111 196.272C232.537 195.377 232.064 194.672 231.72 194.182C231.534 193.943 231.37 193.686 231.23 193.417C231.463 193.622 231.671 193.853 231.85 194.106C232.224 194.565 232.736 195.254 233.34 196.127C234.904 198.417 236.245 200.852 237.345 203.399C238.436 205.939 239.286 208.576 239.882 211.276C240.104 212.317 240.249 213.167 240.325 213.756C240.388 214.058 240.414 214.366 240.402 214.675Z" fill="#455A64"/>
<path d="M245.117 260.267C245.002 260.267 243.802 251.541 242.434 240.74C241.066 229.939 240.042 221.174 240.141 221.166C240.241 221.158 241.448 229.893 242.824 240.694C244.2 251.495 245.224 260.267 245.117 260.267Z" fill="#455A64"/>
<path d="M240.149 218.112C239.482 217.92 238.84 217.647 238.238 217.301C235.252 215.784 232.5 213.843 230.068 211.537C229.536 211.089 229.063 210.574 228.662 210.006C229.221 210.411 229.752 210.854 230.252 211.33C231.222 212.157 232.583 213.267 234.172 214.392C235.762 215.517 237.23 216.421 238.368 217.048C238.987 217.359 239.582 217.714 240.149 218.112Z" fill="#455A64"/>
<path d="M312.862 225.514C312.824 225.058 312.824 224.6 312.862 224.144C312.87 223.609 312.905 223.075 312.969 222.544C313.038 221.924 313.084 221.212 313.237 220.439C313.364 219.588 313.534 218.745 313.749 217.913C313.94 217.002 314.246 216.06 314.513 215.065C315.95 210.76 318.193 206.769 321.124 203.307C321.82 202.542 322.462 201.776 323.134 201.141C323.736 200.527 324.369 199.945 325.03 199.395C325.61 198.86 326.191 198.454 326.688 198.071C327.106 197.74 327.542 197.433 327.995 197.152C328.367 196.889 328.758 196.654 329.164 196.448C328.827 196.751 328.466 197.027 328.087 197.275C327.727 197.528 327.322 197.841 326.826 198.247C326.329 198.653 325.779 199.066 325.213 199.602C324.647 200.138 323.998 200.704 323.371 201.37C322.744 202.036 322.087 202.771 321.407 203.544C318.543 206.998 316.326 210.943 314.865 215.187C314.552 216.167 314.231 217.094 314.032 217.989C313.833 218.885 313.619 219.719 313.474 220.485C313.329 221.25 313.245 221.954 313.153 222.574C313.061 223.194 313.008 223.715 312.977 224.159C312.97 224.613 312.931 225.065 312.862 225.514Z" fill="#455A64"/>
<path d="M301.672 271.45C301.564 270.989 301.536 270.513 301.588 270.042C301.64 269.373 301.849 268.726 302.199 268.154C302.548 267.582 303.028 267.101 303.598 266.75C306.841 263.325 310.747 260.598 315.077 258.735L314.963 258.896C315.116 257.457 315.276 255.964 315.391 254.426C315.826 248.823 315.902 243.198 315.62 237.585C315.521 235.434 315.368 233.689 315.284 232.487C315.238 231.92 315.2 231.461 315.169 231.101C315.151 230.938 315.151 230.774 315.169 230.611C315.219 230.768 315.25 230.93 315.261 231.094C315.314 231.446 315.376 231.905 315.452 232.471C315.582 233.673 315.781 235.411 315.918 237.57C316.281 243.197 316.243 248.842 315.803 254.464C315.689 255.995 315.528 257.526 315.368 258.95V259.065L315.261 259.111C310.963 260.941 307.067 263.602 303.797 266.941C303.173 267.309 302.658 267.838 302.307 268.472C302.043 268.946 301.875 269.466 301.81 270.003C301.619 270.983 301.726 271.443 301.672 271.45Z" fill="#455A64"/>
<path d="M333.695 268.212C333.627 268.251 333.046 267.148 331.769 265.617C330.108 263.627 328.072 261.984 325.778 260.78C324.518 260.124 323.191 259.611 321.819 259.249C320.694 258.966 319.539 258.814 318.379 258.797C316.392 258.797 315.162 259.027 315.154 258.95C315.427 258.846 315.712 258.777 316.003 258.743C316.788 258.606 317.583 258.529 318.379 258.514C319.565 258.489 320.75 258.618 321.903 258.896C323.312 259.242 324.674 259.756 325.961 260.427C328.303 261.651 330.359 263.36 331.991 265.441C332.482 266.067 332.924 266.73 333.313 267.424C333.472 267.671 333.6 267.935 333.695 268.212Z" fill="#455A64"/>
<path d="M333.146 257.748C333.146 257.817 332.214 257.388 330.662 256.983C329.758 256.757 328.838 256.598 327.911 256.508C326.77 256.403 325.624 256.372 324.479 256.416C322.4 256.523 320.336 256.839 318.319 257.358C316.791 257.764 315.835 258.123 315.812 258.039C316.006 257.908 316.217 257.805 316.439 257.733C317.028 257.485 317.63 257.27 318.243 257.09C320.265 256.479 322.354 256.119 324.464 256.018C325.627 255.976 326.792 256.017 327.949 256.141C328.893 256.253 329.826 256.442 330.739 256.707C331.088 256.807 331.433 256.924 331.77 257.059C332.033 257.147 332.288 257.255 332.535 257.381C332.756 257.472 332.962 257.596 333.146 257.748Z" fill="#455A64"/>
<path d="M311.875 136.794C309.636 127.271 305.639 117.542 297.751 111.754C290.735 106.603 280.494 104.643 271.812 105.286C267.54 105.608 262.771 107.743 259.11 109.978C254.097 113.04 252.117 118.988 249.824 124.408C245.239 135.27 246.332 149.73 249.824 153.65L295.214 175.803C302.987 171.424 311.401 165.53 313.213 156.796C314.428 150.84 313.266 142.711 311.875 136.794Z" fill="url(#paint7_linear_400_8666)"/>
<path d="M294.685 119.899L266.331 112.528C257.236 111.502 251.114 122.686 250.473 131.826C249.769 141.976 249.303 154.408 250.473 161.994C252.765 177.25 264.443 180.871 264.443 180.871C264.443 180.871 264.443 194.129 264.527 198.653L277.757 239.01L296.565 198.653L299.462 125.388C299.502 124.039 299.033 122.724 298.147 121.706C297.262 120.689 296.025 120.043 294.685 119.899Z" fill="url(#paint8_linear_400_8666)"/>
<path d="M295.344 143.913C295.55 143.821 303.812 141.188 303.751 149.7C303.69 158.213 295.161 156.375 295.145 156.13C295.13 155.886 295.344 143.913 295.344 143.913Z" fill="#FFBE9D"/>
<path d="M249.794 134.221C250.94 131.757 253.164 129.958 255.526 128.61C257.887 127.263 260.44 126.314 262.786 124.921C268.224 121.73 272.291 116.636 274.204 110.621C270.024 108.455 264.819 108.708 260.6 110.797C256.414 113.013 253.109 116.594 251.231 120.948C249.382 125.299 248.498 130 248.64 134.727" fill="url(#paint9_linear_400_8666)"/>
<path d="M297.294 117.626C291.011 111.647 279.142 108.348 270.957 111.15C272.172 118.307 277.568 126.352 282.314 131.818C287.06 137.283 289.957 147.028 300.374 143.737C301.084 143.515 301.902 144.165 302.552 143.782C303.068 143.398 303.424 142.837 303.553 142.206C304.861 137.928 304.969 133.372 303.865 129.036C302.761 124.701 300.488 120.754 297.294 117.626Z" fill="url(#paint10_linear_400_8666)"/>
<path d="M302.834 275.715C302.697 275.749 302.555 275.762 302.414 275.754C302.139 275.754 301.726 275.754 301.207 275.754C299.72 275.73 298.237 275.587 296.774 275.325C291.907 274.485 287.324 272.447 283.438 269.394C279.552 266.341 276.484 262.368 274.511 257.834C273.909 256.472 273.419 255.064 273.043 253.623C272.898 253.118 272.837 252.712 272.776 252.444C272.743 252.306 272.72 252.165 272.707 252.023C272.898 252.524 273.059 253.035 273.189 253.554C273.623 254.969 274.151 256.352 274.771 257.696C276.792 262.143 279.851 266.039 283.689 269.055C287.528 272.071 292.033 274.119 296.827 275.026C298.273 275.31 299.736 275.494 301.207 275.578C302.254 275.677 302.834 275.685 302.834 275.715Z" fill="#455A64"/>
<path d="M267.051 273.281C266.932 273.232 266.82 273.171 266.715 273.097L265.79 272.5L262.435 270.219C258.77 267.725 254.94 265.484 250.971 263.513C247.012 261.561 242.785 260.209 238.429 259.502C237.105 259.305 235.77 259.183 234.432 259.135C233.94 259.14 233.447 259.119 232.957 259.073C233.081 259.039 233.21 259.023 233.339 259.027C233.584 259.027 233.958 258.974 234.432 258.981C235.781 258.965 237.13 259.047 238.467 259.226C242.884 259.855 247.172 261.185 251.169 263.169C255.148 265.149 258.968 267.434 262.595 270.005C263.994 270.969 265.11 271.773 265.882 272.339L266.761 272.998C266.959 273.143 267.059 273.227 267.051 273.281Z" fill="#455A64"/>
<path d="M305.479 271.26L253.303 273.901L257.346 289.295L326.879 289.616L305.479 271.26Z" fill="#FFBE9D"/>
<path d="M255.725 273.778C255.725 273.778 238.865 265.358 236.779 265.274C235.182 265.22 225.919 266.805 221.654 267.532C220.853 267.642 220.129 268.066 219.639 268.71C219.149 269.354 218.934 270.166 219.04 270.969C219.151 271.542 219.451 272.061 219.892 272.443C220.333 272.825 220.889 273.047 221.471 273.074C220.855 273.38 220.352 273.873 220.031 274.481C219.71 275.09 219.588 275.784 219.682 276.465C220.019 278.892 223.015 278.953 223.015 278.953C222.885 279.09 222.765 279.236 222.655 279.389C222.355 279.809 222.173 280.302 222.126 280.816C222.079 281.33 222.169 281.848 222.388 282.315C222.606 282.783 222.945 283.184 223.37 283.477C223.794 283.77 224.289 283.944 224.803 283.982L226.163 284.082C226.163 284.082 224.497 285.1 224.772 286.753C225.307 289.923 232.537 289.448 232.537 289.448L257.345 289.272L255.725 273.778Z" fill="#FFBE9D"/>
<path d="M222.725 263.52C222.962 264.553 223.551 266.75 225.484 267.485L235.259 265.625C235.259 265.625 227.548 264.209 226.317 263.122C225.827 262.673 225.286 262.282 224.705 261.958C224.468 261.846 224.205 261.802 223.944 261.831C223.684 261.86 223.437 261.962 223.231 262.124C223.026 262.287 222.869 262.503 222.78 262.75C222.69 262.997 222.671 263.263 222.725 263.52Z" fill="#FFBE9D"/>
<path d="M230.594 266.216C230.594 266.385 228.637 266.882 226.146 267.219C223.654 267.556 221.652 267.762 221.621 267.579C221.591 267.395 223.57 266.913 226.062 266.576C228.553 266.239 230.594 266.032 230.594 266.216Z" fill="#EB996E"/>
<path d="M229.243 272.049C229.289 272.217 227.6 272.814 225.422 273.036C223.244 273.258 221.471 273.121 221.479 272.952C221.486 272.784 223.221 272.646 225.346 272.393C227.47 272.141 229.198 271.873 229.243 272.049Z" fill="#EB996E"/>
<path d="M234.135 270.579C234.295 270.648 234.188 271.214 233.691 271.658C233.195 272.102 232.621 272.14 232.568 271.98C232.514 271.819 232.874 271.528 233.263 271.176C233.653 270.824 233.974 270.502 234.135 270.579Z" fill="#EB996E"/>
<path d="M231.274 278.118C231.274 278.294 229.402 278.669 227.063 278.945C224.725 279.221 222.806 279.305 222.776 279.129C222.745 278.953 224.633 278.585 226.987 278.31C229.341 278.034 231.259 277.942 231.274 278.118Z" fill="#EB996E"/>
<path d="M236.489 274.627C236.565 274.627 236.749 274.772 236.856 275.147C236.983 275.657 236.91 276.195 236.653 276.652C236.395 277.109 235.973 277.45 235.472 277.605C235.09 277.712 234.846 277.643 234.838 277.559C234.83 277.475 235.64 277.145 236.091 276.334C236.542 275.523 236.328 274.696 236.489 274.627Z" fill="#EB996E"/>
<path d="M233.654 283.997C233.654 284.173 231.942 284.365 229.832 284.426C227.723 284.487 225.973 284.388 225.973 284.212C225.973 284.036 227.685 283.844 229.794 283.783C231.903 283.722 233.654 283.829 233.654 283.997Z" fill="#EB996E"/>
<path d="M238.706 280.063C238.782 280.063 238.935 280.232 238.981 280.622C239.025 281.116 238.912 281.612 238.66 282.038C238.071 283.018 237.315 283.455 237.208 283.355C237.101 283.256 237.613 282.544 238.094 281.725C238.576 280.906 238.545 280.117 238.706 280.063Z" fill="#EB996E"/>
<path d="M189.134 280.934C185.71 279.303 174.284 274.81 174.284 274.81L168.69 236.535L145.93 239.957C145.93 239.957 159.174 288.742 162.744 289.078C166.313 289.415 186.612 289.078 186.612 289.078L193.23 288.979C193.23 288.979 191.533 282.067 189.134 280.934Z" fill="url(#paint11_linear_400_8666)"/>
<path d="M173.276 287.885C172.936 288.115 172.545 288.26 172.137 288.306C171.162 288.492 170.158 288.455 169.199 288.2C168.24 287.944 167.35 287.475 166.596 286.829C166.273 286.581 166.012 286.261 165.832 285.895C165.886 285.849 166.199 286.178 166.787 286.607C167.55 287.158 168.408 287.566 169.317 287.809C170.226 288.049 171.171 288.124 172.107 288.031C172.492 287.951 172.883 287.902 173.276 287.885Z" fill="#704C45"/>
<path d="M186.439 288.965C186.385 289.004 185.911 288.2 185.04 287.036C184.538 286.356 183.947 285.745 183.282 285.222C182.436 284.622 181.5 284.162 180.508 283.86C178.689 283.225 176.941 282.398 175.296 281.395C174.593 281.021 173.927 280.58 173.309 280.078C174.045 280.377 174.755 280.735 175.433 281.15C177.102 282.073 178.846 282.854 180.646 283.485C181.676 283.801 182.645 284.29 183.512 284.931C184.193 285.485 184.786 286.141 185.269 286.876C185.601 287.369 185.904 287.88 186.179 288.407C186.294 288.578 186.381 288.767 186.439 288.965Z" fill="#704C45"/>
<path d="M119.883 110.152L111.476 115.955C111.476 115.955 101.006 115.327 93.4089 117.914C89.1978 119.354 84.0925 121.091 78.5592 126.702C73.5058 131.823 69.8641 138.169 67.9894 145.12L57.8171 229.99L42.3789 289.874H145.15V214.091L154.986 179.33C154.986 179.33 152.433 175.319 152.51 173.719C152.586 172.119 158.326 135.077 158.326 135.077L146.609 121.038L119.883 110.152Z" fill="url(#paint12_linear_400_8666)"/>
<path d="M156.952 133.316C156.952 133.316 162.768 136.034 164.19 146.207C165.611 156.381 175.914 234.897 175.914 234.897C175.914 234.897 164.534 237.53 154.147 238.724L141.071 240.952L140.742 188.455L156.952 133.316Z" fill="url(#paint13_linear_400_8666)"/>
<path d="M106.785 134.955C106.388 167.325 104.905 199.657 102.337 231.95C102.021 234.464 101.468 236.943 100.686 239.353C100.305 240.575 99.4979 241.621 98.4127 242.299C97.3274 242.977 96.0354 243.244 94.771 243.05L73.6849 239.866C70.0164 239.245 68.6254 238.756 67.5249 236.383C66.7869 234.742 66.4415 232.952 66.5161 231.154C67.3262 202.257 64.8041 186.947 66.5161 159.627" fill="url(#paint14_linear_400_8666)"/>
<path d="M66.5773 159.627C66.5773 159.627 66.5773 159.819 66.5773 160.186C66.5773 160.553 66.5391 161.12 66.5085 161.839C66.4321 163.294 66.3327 165.43 66.2486 168.185C66.1646 170.941 66.0958 174.309 66.0805 178.236C66.0652 182.163 66.1417 186.611 66.2792 191.54C66.5544 201.4 67.0435 213.15 66.8524 226.202C66.8524 227.832 66.7836 229.478 66.7454 231.155C66.6839 232.821 66.981 234.482 67.6167 236.023C67.8869 236.818 68.3633 237.527 68.9972 238.078C69.6311 238.628 70.3996 238.999 71.224 239.154C72.9267 239.549 74.6486 239.855 76.3828 240.072L87.0825 241.68L92.547 242.507C93.4565 242.637 94.3966 242.805 95.2908 242.897C96.195 242.956 97.0988 242.777 97.9122 242.377C98.7247 241.969 99.4174 241.357 99.9222 240.601C100.387 239.815 100.722 238.959 100.916 238.067C101.431 236.309 101.829 234.519 102.108 232.708C102.444 229.088 102.689 225.467 102.956 221.93C103.476 214.85 103.919 208.021 104.309 201.507C105.073 188.494 105.601 176.751 105.952 166.892C106.304 157.032 106.503 149.056 106.625 143.537C106.686 140.788 106.732 138.653 106.762 137.191C106.762 136.471 106.778 135.92 106.808 135.537V137.191C106.808 138.653 106.77 140.788 106.739 143.544C106.671 149.056 106.518 157.04 106.197 166.899C105.876 176.759 105.379 188.501 104.668 201.53C104.286 208.044 103.851 214.88 103.338 221.961C103.079 225.505 102.834 229.095 102.49 232.762C102.207 234.598 101.806 236.413 101.29 238.197C101.084 239.128 100.731 240.019 100.243 240.838C99.7049 241.655 98.9581 242.313 98.0803 242.744C97.2062 243.178 96.2336 243.373 95.2602 243.311C94.2972 243.211 93.403 243.043 92.4782 242.912L87.0138 242.086L76.314 240.471C74.5664 240.252 72.8316 239.94 71.117 239.537C70.2407 239.339 69.422 238.941 68.7249 238.373C68.0792 237.762 67.5778 237.014 67.2575 236.184C66.6037 234.599 66.2962 232.892 66.3556 231.178C66.3964 229.509 66.4346 227.86 66.4703 226.232C66.7072 213.219 66.2181 201.454 65.9888 191.586C65.8665 186.657 65.8207 182.194 65.8436 178.274C65.8665 174.355 65.9582 170.979 66.0805 168.224C66.2028 165.468 66.3098 163.324 66.4091 161.878L66.5238 160.224C66.5544 159.819 66.5773 159.627 66.5773 159.627Z" fill="#263238"/>
<path d="M145.152 242.843C145.144 242.762 145.144 242.68 145.152 242.598C145.152 242.415 145.152 242.177 145.152 241.887C145.152 241.228 145.206 240.302 145.244 239.131C145.29 236.735 145.588 233.282 146.084 229.034C146.398 226.914 146.658 224.579 147.154 222.145C147.384 220.904 147.59 219.618 147.873 218.317C148.156 217.016 148.438 215.653 148.736 214.275C149.975 208.748 151.557 202.739 153.032 196.386C156.089 183.702 157.182 171.89 156.945 163.324L156.738 157.568C156.647 155.868 156.478 154.414 156.387 153.227C156.295 152.041 156.219 151.138 156.165 150.479C156.165 150.181 156.127 149.951 156.119 149.767C156.112 149.584 156.119 149.522 156.119 149.522C156.145 149.599 156.16 149.679 156.165 149.76L156.257 150.472C156.326 151.122 156.425 152.041 156.555 153.212C156.685 154.383 156.853 155.853 156.968 157.552C157.082 159.252 157.136 161.189 157.235 163.324C157.548 171.875 156.509 183.771 153.414 196.478C151.939 202.839 150.357 208.848 149.088 214.352C148.782 215.73 148.492 217.077 148.201 218.386C147.911 219.695 147.712 220.973 147.437 222.213C146.933 224.678 146.673 227.005 146.329 229.103C145.794 233.344 145.458 236.758 145.366 239.177C145.29 240.348 145.236 241.266 145.19 241.925C145.19 242.223 145.152 242.453 145.137 242.637C145.147 242.705 145.153 242.774 145.152 242.843Z" fill="#263238"/>
<path d="M144.426 191.288C144.338 191.415 144.239 191.533 144.128 191.64L143.218 192.589C142.454 193.416 141.254 194.572 139.779 195.981C136.837 198.798 132.625 202.556 127.734 206.407C122.843 210.257 118.204 213.464 114.742 215.661C113.022 216.764 111.623 217.636 110.638 218.21L109.499 218.861C109.374 218.949 109.238 219.018 109.094 219.068C109.206 218.966 109.329 218.876 109.461 218.8L110.553 218.073C111.516 217.46 112.892 216.542 114.589 215.432C117.975 213.173 122.575 209.935 127.459 206.093C132.343 202.25 136.569 198.537 139.557 195.774C141.086 194.396 142.255 193.271 143.081 192.482L144.036 191.587C144.151 191.469 144.282 191.368 144.426 191.288Z" fill="#263238"/>
<path d="M171.824 39.3072C172.689 39.0062 173.473 38.5101 174.115 37.8572C174.758 37.2043 175.242 36.4122 175.53 35.542C175.818 34.6719 175.903 33.747 175.777 32.8389C175.651 31.9308 175.319 31.0638 174.805 30.305C174.041 29.1262 172.81 28.2535 172.092 27.0211C171.588 25.9534 171.184 24.8412 170.884 23.6989C170.195 21.9266 169.098 20.3423 167.683 19.0747C166.267 17.8071 164.573 16.892 162.737 16.4037C159.03 15.4646 155.107 15.9251 151.717 17.6974C150.371 18.3787 149.057 19.2284 147.559 19.3662C146.061 19.504 144.701 18.9069 143.271 18.6007C141.565 18.295 139.808 18.4418 138.176 19.0265C136.544 19.6113 135.093 20.6136 133.967 21.9339C132.841 23.2542 132.08 24.8465 131.759 26.5528C131.438 28.259 131.568 30.0197 132.136 31.66C130.143 31.9785 128.327 32.9955 127.012 34.5299C125.697 36.0642 124.969 38.0163 124.957 40.0382C124.945 42.0601 125.65 44.0206 126.947 45.5704C128.243 47.1202 130.047 48.1586 132.037 48.5008C134.452 48.9371 136.92 48.3094 139.313 47.7353C149.015 45.4999 158.942 44.3903 168.897 44.4283" fill="#11076F"/>
<path d="M121.642 91.7731C117.967 85.6289 116.566 78.386 117.683 71.3116C118.822 64.315 121.665 55.8563 127.053 51.2557C124.707 47.4283 126.671 44.0371 129.591 40.6077C132.51 37.1783 136.859 35.2493 141.207 34.1164C147.711 32.3787 154.505 32.0189 161.155 33.06C166.558 33.9097 173.521 36.2444 173.475 40.2556C173.421 44.4428 170.418 45.7212 170.418 45.7212C173.896 47.6968 176.892 50.4211 179.191 53.6976C184.602 61.4597 185.917 68.4792 183.578 75.5371C181.24 82.5949 178.557 87.9303 173.307 91.6583" fill="url(#paint15_linear_400_8666)"/>
<path d="M167.353 99.3142C168.268 98.703 169.316 98.3221 170.41 98.2043L170.211 98.1507C170.408 98.1482 170.605 98.161 170.8 98.189C171.166 98.1735 171.531 98.2335 171.872 98.3652C172.214 98.4968 172.525 98.6974 172.787 98.9545C173.832 99.6359 174.584 100.685 174.896 101.894C175.112 102.956 175.032 104.056 174.665 105.075C174.299 106.095 173.659 106.993 172.817 107.673C172.173 108.322 171.347 108.759 170.449 108.928C169.551 109.096 168.623 108.988 167.787 108.617C166.952 108.247 166.249 107.631 165.77 106.852C165.291 106.072 165.06 105.166 165.106 104.252C165.034 103.306 165.203 102.357 165.596 101.494C165.989 100.63 166.593 99.8807 167.353 99.3142Z" fill="#455A64"/>
<path d="M119.496 115.78L127.995 59.6237C128.247 58.2659 128.998 57.0523 130.101 56.223C131.203 55.3937 132.576 55.0092 133.948 55.1456L164.106 53.8213C173.476 54.7475 177.236 67.3169 175.914 76.6482C174.447 87.0206 172.246 99.6129 169.456 107.015C163.854 121.866 151.695 121.391 151.695 121.391C151.695 121.391 149.402 132.024 148.202 137.597L141.943 159.627L119.496 115.78Z" fill="url(#paint16_linear_400_8666)"/>
<path d="M165.214 58.6357C165.214 58.6357 150.891 55.3441 136.546 69.2607C127.092 78.4466 122.713 91.5594 122.713 91.5594L122.621 64.7673L129.278 53.9968L140.413 50.5215L159.482 53.4992L165.84 58.5515" fill="url(#paint17_linear_400_8666)"/>
<path d="M136.775 53.9347C160.842 53.3146 177.518 64.8276 177.037 83.5209L184.221 72.6892L175.371 55.7795L163.074 49.5867L135.973 47.9639L136.775 53.9347Z" fill="url(#paint18_linear_400_8666)"/>
<path d="M119.571 89.1405C120.547 88.4859 121.666 88.0763 122.834 87.9463L122.62 87.8851C122.832 87.8826 123.044 87.8954 123.254 87.9234C123.644 87.899 124.035 87.9543 124.403 88.0859C124.771 88.2175 125.108 88.4226 125.394 88.6888C126.529 89.4231 127.347 90.5566 127.687 91.8656C127.915 93.0077 127.826 94.1904 127.432 95.2858C127.037 96.3813 126.351 97.348 125.448 98.0814C124.754 98.7803 123.864 99.2516 122.897 99.4331C121.929 99.6145 120.93 99.4976 120.03 99.0977C119.13 98.6978 118.373 98.0337 117.859 97.1934C117.344 96.3532 117.096 95.3762 117.148 94.3917C117.081 93.3834 117.268 92.3745 117.692 91.4571C118.115 90.5398 118.761 89.7433 119.571 89.1405Z" fill="#455A64"/>
<path d="M170.45 45.7225C169.853 45.6786 169.262 45.5787 168.684 45.424C167.561 45.1713 165.925 44.8881 163.9 44.5896C158.611 43.8685 153.245 43.9485 147.98 44.8269C142.728 45.7975 137.587 47.2952 132.634 49.2973L128.117 51.1039C127.578 51.3601 127.014 51.5626 126.436 51.7086C126.934 51.3796 127.464 51.1001 128.018 50.8742C129.049 50.369 130.57 49.6724 132.466 48.8763C137.409 46.7395 142.578 45.168 147.873 44.1915C153.2 43.2957 158.636 43.2776 163.969 44.1379C165.576 44.4005 167.167 44.748 168.738 45.179C169.324 45.3073 169.897 45.4893 170.45 45.7225Z" fill="#263238"/>
<path d="M131.303 52.1375H131.463L131.929 52.0456L132.694 51.8925L133.733 51.7241C135.943 51.4101 138.182 51.3535 140.405 51.5557C143.7 51.8621 146.945 52.5742 150.065 53.6761C151.839 54.2732 153.65 55.0234 155.515 55.8424C157.379 56.6615 159.282 57.5725 161.163 58.6288C168.805 62.7242 173.949 69.1926 175.76 74.5281C176.494 76.6388 176.912 78.8471 176.998 81.0807C177.044 81.8461 177.036 82.4815 176.998 82.9025V83.3771C176.992 83.4305 176.992 83.4845 176.998 83.5379C177.008 83.4847 177.008 83.4303 176.998 83.3771C176.998 83.247 176.998 83.0939 176.998 82.9025C176.998 82.4892 177.059 81.8691 177.044 81.073C177.006 78.8179 176.622 76.582 175.905 74.4439C174.14 69.0165 168.928 62.441 161.239 58.3073C159.344 57.251 157.418 56.34 155.561 55.5133C153.703 54.6866 151.861 53.9823 150.073 53.3546C146.951 52.2665 143.706 51.5722 140.413 51.2878C138.173 51.1107 135.919 51.2084 133.703 51.5787L132.663 51.7777L131.899 51.9691L131.44 52.0916C131.349 52.1145 131.303 52.1298 131.303 52.1375Z" fill="#263238"/>
<path d="M161.248 58.5827C161.082 58.5441 160.913 58.516 160.743 58.4985C160.259 58.4324 159.772 58.3941 159.284 58.3837C157.482 58.3447 155.683 58.5454 153.934 58.9807C148.188 60.5241 142.898 63.4307 138.511 67.4547C136.11 69.6586 133.903 72.0661 131.915 74.6503C130.245 76.7206 128.698 78.8881 127.284 81.1417C126.321 82.6567 125.47 84.2404 124.739 85.8801C124.494 86.4618 124.311 86.9211 124.204 87.235C124.137 87.3922 124.088 87.5565 124.059 87.7249C124.141 87.5771 124.212 87.4236 124.273 87.2656C124.4 86.9492 124.599 86.5052 124.869 85.9337C125.65 84.3288 126.531 82.7743 127.505 81.2795C128.946 79.0587 130.505 76.9174 132.175 74.8647C134.167 72.308 136.368 69.9217 138.755 67.7303C143.104 63.7459 148.323 60.836 153.995 59.2334C155.717 58.7834 157.488 58.5444 159.268 58.5215C159.895 58.5215 160.392 58.5215 160.72 58.575C160.896 58.5952 161.072 58.5977 161.248 58.5827Z" fill="#263238"/>
<path d="M31.291 287.212C31.291 287.212 35.9683 285.681 38.9337 284.808C40.5921 284.326 47.4552 281.287 51.6281 280.498C55.1132 279.84 64.7659 274.903 66.2638 273.892C67.7618 272.882 73.6772 239.866 73.6772 239.866L95.9938 243.234C95.9938 243.234 84.0941 275.079 83.3452 278.118C82.5962 281.157 79.7684 289.018 79.7684 289.018H31.291V287.212Z" fill="url(#paint19_linear_400_8666)"/>
<path d="M70.3691 288.283C70.3691 288.214 71.1334 288.153 72.1805 287.694C73.5908 287.119 74.7842 286.114 75.591 284.82C76.3978 283.527 76.7769 282.012 76.6743 280.49C76.6056 279.319 76.3381 278.623 76.4068 278.6C76.4756 278.577 76.5215 278.753 76.6361 279.074C76.7975 279.524 76.9052 279.992 76.9571 280.467C77.1406 282.062 76.7786 283.671 75.9304 285.032C75.0821 286.394 73.7978 287.426 72.2874 287.962C71.8381 288.123 71.3712 288.231 70.8965 288.283C70.7229 288.322 70.5427 288.322 70.3691 288.283Z" fill="#704C45"/>
<path d="M67.4414 286.654C67.2972 286.733 67.1463 286.8 66.9905 286.853C66.5424 287.01 66.0823 287.13 65.6148 287.212C63.8783 287.394 62.1299 287.432 60.3872 287.327C59.2012 287.296 58.0169 287.438 56.8716 287.748C55.6411 288.116 54.4259 288.789 53.0503 289.279C49.9437 290.26 46.5789 290.003 43.6574 288.56L43.1836 288.33L43.688 288.192L44.1389 288.062C45.7285 287.604 47.2425 286.916 48.6328 286.018C49.9126 285.146 51.1214 284.173 52.2478 283.109C54.2556 281.348 56.6204 280.042 59.1797 279.282C60.8812 278.758 62.6145 278.343 64.369 278.042L65.8059 277.805C65.9691 277.769 66.1356 277.752 66.3026 277.751C66.1463 277.817 65.9817 277.86 65.8135 277.881L64.3996 278.195C62.6641 278.552 60.9495 279.004 59.2637 279.55C56.7622 280.333 54.4544 281.637 52.4924 283.377C51.3597 284.463 50.1404 285.453 48.8468 286.34C47.4276 287.257 45.883 287.964 44.2612 288.437L43.8026 288.567V288.2C46.6396 289.593 49.9005 289.851 52.9203 288.919C54.2884 288.483 55.5188 287.81 56.7875 287.442C57.9696 287.136 59.1901 287.004 60.4101 287.052C62.1401 287.179 63.8772 287.179 65.6072 287.052C66.7994 286.891 67.4261 286.608 67.4414 286.654Z" fill="#704C45"/>
<path d="M400.502 230.367L388.086 260.591L376.57 299.519L488.153 300.073L486.251 226.342L431.407 220.462L400.502 230.367Z" fill="url(#paint20_linear_400_8666)"/>
<path d="M334.619 235.213C334.619 235.213 325.234 238.788 317.89 240.954C310.545 243.12 297.438 251.227 297.438 251.227C297.438 251.227 284.094 263.268 284.575 264.86C285.057 266.453 286.639 267.218 288.664 265.588C290.689 263.957 300.694 258.04 300.694 258.04C300.694 258.04 301.336 261.393 303.498 261.775C304.591 262.045 305.737 261.992 306.8 261.622C306.8 261.622 307.687 264.768 309.246 265.794C310.158 266.4 311.174 266.833 312.242 267.073C312.27 267.641 312.489 268.183 312.864 268.611C313.239 269.039 313.746 269.328 314.305 269.43C315.649 269.812 317.044 269.977 318.44 269.92C318.44 269.92 325.402 265.695 326.51 263.659C327.619 261.622 328.971 258.874 328.971 258.874L331.845 257.435L340.672 255.904L334.619 235.213Z" fill="url(#paint21_linear_400_8666)"/>
<path d="M324.937 251.118C324.694 251.507 324.404 251.865 324.073 252.182C323.168 253.078 322.119 253.815 320.971 254.364C319.229 255.215 317.345 255.734 315.414 255.895C314.247 256.017 313.068 255.968 311.914 255.75C310.64 255.519 309.428 255.021 308.36 254.287L308.589 253.974C309.455 254.615 310.277 255.314 311.05 256.063C311.461 256.46 311.833 256.896 312.159 257.365C312.493 257.859 312.722 258.416 312.831 259.003C312.962 259.7 312.945 260.417 312.78 261.107C312.616 261.797 312.308 262.444 311.876 263.006L311.784 263.121L311.646 263.068C310.322 262.514 309.066 261.81 307.902 260.97C306.77 260.205 305.731 259.378 304.753 258.605C303.775 257.832 302.873 257.074 302.009 256.385C301.626 256.017 301.334 255.564 301.156 255.063C300.978 254.562 300.92 254.027 300.985 253.499C301.056 253.054 301.19 252.621 301.382 252.213C301.543 251.823 301.703 251.447 301.872 251.134C302.2 250.483 302.521 249.939 302.796 249.503C303.071 249.067 303.308 248.738 303.476 248.546C303.554 248.432 303.644 248.327 303.744 248.232C303.689 248.357 303.619 248.475 303.538 248.585C303.392 248.807 303.178 249.143 302.919 249.58C302.603 250.113 302.315 250.663 302.055 251.225C301.894 251.555 301.742 251.914 301.596 252.297C301.42 252.689 301.301 253.104 301.245 253.53C301.191 254.014 301.251 254.504 301.42 254.961C301.588 255.418 301.861 255.83 302.215 256.163C303.041 256.837 304.004 257.564 304.967 258.329C305.93 259.095 306.984 259.898 308.108 260.664C309.256 261.479 310.492 262.162 311.792 262.7L311.562 262.769C311.959 262.25 312.242 261.653 312.394 261.018C312.545 260.382 312.561 259.722 312.441 259.079C312.339 258.546 312.131 258.039 311.83 257.587C311.518 257.141 311.165 256.726 310.775 256.347C310.019 255.605 309.212 254.917 308.36 254.287L308.589 253.974C309.606 254.684 310.763 255.167 311.983 255.39C313.104 255.614 314.253 255.673 315.391 255.566C317.288 255.416 319.142 254.923 320.864 254.111C322.006 253.592 323.058 252.895 323.982 252.045C324.601 251.493 324.899 251.08 324.937 251.118Z" fill="#925B4C"/>
<path d="M312.371 260.972C312.739 260.785 313.123 260.631 313.517 260.513C314.427 260.17 315.269 259.673 316.009 259.043C316.382 258.696 316.647 258.25 316.773 257.757C316.858 257.362 316.799 256.95 316.609 256.594C316.419 256.238 316.109 255.961 315.734 255.812C315.734 255.812 315.864 255.766 316.085 255.812C316.405 255.911 316.677 256.123 316.85 256.409C317.122 256.822 317.228 257.322 317.148 257.81C317.029 258.401 316.724 258.938 316.276 259.341C315.504 260.02 314.59 260.517 313.602 260.796C313.21 260.947 312.789 261.008 312.371 260.972Z" fill="#925B4C"/>
<path d="M314.336 266.308C314.876 265.906 315.44 265.538 316.025 265.206C316.552 264.869 317.164 264.44 317.821 263.966C318.537 263.454 319.202 262.875 319.808 262.236C320.097 261.912 320.304 261.523 320.412 261.103C320.492 260.717 320.441 260.315 320.267 259.962C320.114 259.655 319.9 259.382 319.637 259.162C319.374 258.942 319.068 258.779 318.738 258.684C318.278 258.544 317.797 258.484 317.317 258.508C317.137 258.532 316.954 258.532 316.774 258.508C316.94 258.42 317.122 258.368 317.309 258.355C317.817 258.269 318.337 258.287 318.837 258.408C319.217 258.501 319.572 258.673 319.881 258.913C320.189 259.153 320.443 259.456 320.626 259.801C320.837 260.231 320.904 260.717 320.817 261.187C320.698 261.672 320.465 262.121 320.137 262.496C319.512 263.159 318.814 263.75 318.058 264.257C317.378 264.739 316.743 265.137 316.201 265.451C315.623 265.823 314.995 266.112 314.336 266.308Z" fill="#925B4C"/>
<path d="M323.598 265.694C323.735 265.359 323.845 265.014 323.927 264.661C324.012 264.247 323.98 263.818 323.834 263.421C323.688 263.025 323.433 262.678 323.099 262.42C322.764 262.162 322.365 262.004 321.945 261.963C321.525 261.922 321.102 262 320.724 262.189C320.113 262.456 319.861 262.824 319.807 262.778C319.754 262.732 319.952 262.303 320.571 261.936C320.993 261.685 321.48 261.566 321.97 261.595C322.46 261.624 322.93 261.8 323.319 262.099C323.708 262.398 323.999 262.807 324.153 263.273C324.308 263.74 324.319 264.242 324.186 264.715C324.018 265.434 323.621 265.725 323.598 265.694Z" fill="#925B4C"/>
<path d="M381.424 275.784L378.97 279.405H360.682L337.387 288.805H397.55C398.062 288.17 399.628 285.743 399.628 285.743L381.424 275.784Z" fill="url(#paint22_linear_400_8666)"/>
<path d="M464.788 164.283C451.65 142.995 423.418 116.984 421.026 115.782C418.634 114.58 380.038 112.153 380.038 112.153L349.56 133.817L339.441 148.966C338.057 153.275 335.619 159.912 336.735 164.276L337.675 171.747L369.469 192.3L385.281 201.547L394.086 214.055L393.383 235.007L405.84 232.634C405.84 232.634 425.023 234.532 443.411 234.984C461.8 235.436 487.089 229.587 487.089 229.587C487.089 229.587 479.439 188.036 464.788 164.283Z" fill="url(#paint23_linear_400_8666)"/>
<path d="M391.213 148.951L402.005 208.919L379.627 275.065L402.005 287.313C402.005 287.313 417.993 259.128 425.192 242.08C432.392 225.033 435.013 215.51 435.013 215.51C435.013 215.51 435.013 150.696 432.721 143.225C430.428 135.754 422.831 120.942 414.837 121.745C406.842 122.549 387.942 130.763 391.213 148.951Z" fill="url(#paint24_linear_400_8666)"/>
<path d="M337.675 171.776L356.958 219.068C355.911 220.794 355.138 222.671 354.665 224.633L330.613 236.537L337.675 259.31C337.675 259.31 367.68 249.359 371.929 247.062C376.179 244.766 388.438 236.024 390.562 228.928C392.687 221.832 380.91 196.693 380.91 196.693L337.675 171.776Z" fill="url(#paint25_linear_400_8666)"/>
<path d="M385.284 201.577C385.14 201.522 385.002 201.453 384.872 201.37L383.733 200.735C382.747 200.168 381.325 199.342 379.583 198.285C377.84 197.229 375.762 195.989 373.576 194.458C372.468 193.692 371.283 192.866 370.175 191.939L366.69 189.053L354.523 178.842L350.869 175.711L349.883 174.846C349.764 174.752 349.657 174.644 349.562 174.524C349.699 174.593 349.825 174.681 349.937 174.785L350.961 175.55C351.886 176.316 353.155 177.334 354.706 178.612C357.87 181.238 362.181 184.797 366.934 188.732L370.412 191.633C371.543 192.544 372.704 193.378 373.774 194.144C375.976 195.675 378.008 196.984 379.728 198.071L383.802 200.62L384.902 201.324C385.04 201.392 385.168 201.477 385.284 201.577Z" fill="#1A107E"/>
<path d="M432.919 143.077C432.919 143.077 432.919 143.184 433.011 143.399C433.102 143.716 433.173 144.038 433.225 144.363C433.393 145.221 433.546 146.514 433.714 148.191C434.035 151.559 434.325 156.512 434.562 162.834C435.036 175.473 435.327 193.569 435.418 215.362V215.408C433.806 220.897 431.773 226.516 429.526 232.318C427.279 238.12 424.841 244.099 421.952 250.093C416.22 262.103 409.556 274.535 402.425 287.257L402.326 287.433L402.157 287.334L400.086 286.209L379.772 275.101L379.627 275.025L379.68 274.864L402.104 208.726V208.802C398.841 190.507 396.166 175.511 394.309 165.085C393.384 159.88 392.673 155.815 392.184 153.044C391.947 151.666 391.763 150.61 391.641 149.89C391.519 149.17 391.465 148.811 391.465 148.811C391.465 148.811 391.55 149.178 391.687 149.882C391.825 150.587 392.016 151.651 392.276 153.029C392.78 155.8 393.529 159.857 394.484 165.054C396.372 175.473 399.07 190.461 402.417 208.749V208.787V208.825C396.082 227.572 388.439 250.223 380.07 274.994L379.979 274.757L400.262 285.856L402.333 286.989L402.066 287.066C409.189 274.343 415.823 261.92 421.593 249.932C424.474 243.946 426.943 237.967 429.174 232.188C431.406 226.408 433.469 220.774 435.082 215.347V215.393C435.082 193.6 434.784 175.511 434.371 162.873C434.157 156.55 433.897 151.597 433.607 148.237C433.454 146.552 433.317 145.266 433.164 144.409C433.12 144.082 433.058 143.758 432.98 143.437C432.953 143.318 432.933 143.198 432.919 143.077Z" fill="#1A107E"/>
<path d="M483.604 249.191C483.193 249.302 482.774 249.377 482.35 249.413C481.857 249.497 481.359 249.548 480.86 249.566C480.202 249.624 479.541 249.644 478.88 249.628C478.081 249.636 477.283 249.598 476.488 249.513C475.625 249.459 474.715 249.291 473.752 249.145C471.682 248.735 469.656 248.13 467.699 247.339C465.757 246.513 463.898 245.5 462.151 244.315C461.386 243.741 460.622 243.22 459.957 242.639C459.336 242.135 458.744 241.595 458.184 241.023C457.641 240.526 457.221 240.005 456.831 239.577C456.492 239.211 456.178 238.822 455.891 238.413C455.607 238.088 455.352 237.74 455.127 237.372C455.439 237.659 455.723 237.974 455.975 238.314C456.285 238.703 456.616 239.073 456.969 239.424C457.366 239.837 457.802 240.342 458.345 240.817C458.915 241.371 459.515 241.895 460.141 242.386C460.783 242.945 461.547 243.458 462.326 244.017C464.066 245.165 465.905 246.154 467.821 246.971C469.752 247.755 471.75 248.36 473.79 248.778C474.738 248.939 475.632 249.122 476.488 249.184C477.274 249.281 478.065 249.337 478.857 249.352C479.622 249.398 480.241 249.352 480.822 249.352C481.317 249.352 481.812 249.324 482.304 249.268C482.735 249.21 483.169 249.184 483.604 249.191Z" fill="#455A64"/>
<path d="M422.333 287.825C422.226 287.825 423.862 280.216 425.994 270.877C428.126 261.538 429.93 253.99 430.037 254.036C430.144 254.082 428.508 261.653 426.376 270.992C424.244 280.331 422.425 287.879 422.333 287.825Z" fill="#455A64"/>
<path d="M385.847 123.819C385.956 122.344 385.693 120.865 385.083 119.517L361.888 68.658C356.484 54.0602 343.492 45.035 329.07 50.8527L327.763 51.4728C321.439 54.4592 316.47 59.7232 313.849 66.2154C311.227 72.7076 311.144 79.951 313.617 86.5016C318.37 99.1322 323.789 113.018 326.946 119.51C333.48 132.944 347.963 128.695 347.963 128.695L350.668 133.87C350.668 133.87 353.496 143.615 365.587 142.252C374.888 141.196 381.766 132.155 384.456 128.029C385.272 126.768 385.751 125.319 385.847 123.819Z" fill="url(#paint26_linear_400_8666)"/>
<path d="M311.989 79.6652C311.989 79.6652 311.561 69.5225 314.702 65.6185C318.524 60.8954 323.186 65.3123 327.267 61.791C331.348 58.2698 334.978 53.7304 341.498 55.1006C348.628 56.5933 347.482 60.5509 350.669 66.3993C363.447 90.0835 371.121 94.8602 366.978 82.8114C366.527 81.4947 369.531 78.8538 367.551 73.3117C364.976 66.1237 361.307 57.6497 357.478 53.5008C354.246 49.9948 350.6 48.2648 344.899 47.1166C335.941 45.31 326.793 49.5049 320.908 53.0491C315.023 56.5934 306.433 69.3388 311.989 79.6652Z" fill="#11076F"/>
<path d="M365.916 82.8424C365.698 82.3378 365.586 81.7943 365.584 81.2448C365.582 80.6952 365.692 80.1511 365.906 79.6452C366.121 79.1394 366.435 78.6823 366.831 78.3016C367.227 77.9209 367.695 77.6245 368.208 77.4304C370.838 76.4812 374.323 76.5883 376.615 81.8779C380.674 91.2551 370.432 93.4062 370.303 93.1459C370.173 92.8856 367.582 86.777 365.916 82.8424Z" fill="#C78976"/>
<path d="M357.294 65.0213C356.484 66.4068 355.621 67.8536 354.237 68.6803C352.854 69.507 350.813 69.4458 349.896 68.1368C349.484 67.5474 349.293 66.7283 348.635 66.4298C347.871 66.07 347.007 66.6977 346.274 67.1493C344.975 67.8916 343.461 68.1636 341.986 67.9197C340.51 67.6757 339.164 66.9307 338.172 65.8097C337.966 67.157 336.353 67.8689 335.001 67.6928C333.648 67.5168 332.471 66.7283 331.225 66.1619C329.98 65.5954 328.443 65.3198 327.305 66.07C326.67 66.491 326.227 67.2029 325.509 67.4632C324.248 67.9301 322.986 66.7896 322.237 65.6719C321.489 64.5543 320.709 63.2147 319.349 63.0463C317.988 62.8779 317.056 63.8118 316.001 64.5161C314.946 65.2203 313.403 65.626 312.6 64.6691C312.416 64.3988 312.288 64.0942 312.224 63.7733C312.159 63.4525 312.16 63.1219 312.226 62.8014C312.448 61.329 313.159 59.9748 314.245 58.9579C315.331 57.9409 316.728 57.3209 318.21 57.198C317.937 55.4445 318.191 53.6496 318.938 52.0405C319.685 50.4314 320.892 49.0806 322.406 48.1592C323.92 47.2378 325.673 46.7872 327.443 46.8646C329.213 46.942 330.921 47.5438 332.349 48.5939C332.91 47.2454 333.787 46.052 334.905 45.1145C336.024 44.177 337.351 43.523 338.775 43.2077C340.199 42.8924 341.678 42.9251 343.087 43.3029C344.496 43.6808 345.794 44.3928 346.87 45.3788C347.859 44.5459 349.071 44.0231 350.355 43.8756C351.638 43.7281 352.937 43.9624 354.089 44.5494C355.24 45.1363 356.194 46.0499 356.831 47.1762C357.467 48.3025 357.759 49.5916 357.669 50.8827C359.778 51.0434 361.972 52.0233 362.912 53.9446C363.852 55.866 362.912 58.6218 360.802 58.9892C361.544 59.5605 362.039 60.3958 362.183 61.3221C362.327 62.2484 362.11 63.1947 361.576 63.9651C361.043 64.7355 360.234 65.2708 359.318 65.4603C358.401 65.6498 357.447 65.4789 356.652 64.983" fill="url(#paint27_linear_400_8666)"/>
<path d="M285.226 284.156H331.419C332.027 284.156 332.61 284.398 333.04 284.829C333.47 285.26 333.711 285.844 333.711 286.453C333.711 287.062 333.47 287.646 333.04 288.077C332.61 288.507 332.027 288.749 331.419 288.749H285.226C284.618 288.749 284.035 288.507 283.605 288.077C283.175 287.646 282.934 287.062 282.934 286.453C282.934 285.844 283.175 285.26 283.605 284.829C284.035 284.398 284.618 284.156 285.226 284.156Z" fill="url(#paint28_linear_400_8666)"/>
<path d="M292.594 288.772H205.224L196.595 229.645C196.487 228.928 196.535 228.196 196.736 227.499C196.936 226.802 197.285 226.156 197.757 225.606C198.229 225.056 198.814 224.614 199.472 224.311C200.131 224.009 200.846 223.851 201.57 223.851L278.287 224.471C280.771 224.471 283.148 225.672 283.523 228.137L292.594 288.772Z" fill="url(#paint29_linear_400_8666)"/>
<ellipse cx="7.40817" cy="9.75131" rx="7.40817" ry="9.75131" transform="matrix(0 -1 -0.999983 0.00585565 247.965 267.193)" fill="#B471CC"/>
<path d="M235.523 258.627C236.812 260.029 238.284 261.348 239.858 262.508C241.431 263.667 243.074 264.645 244.692 265.385C246.31 266.125 247.872 266.613 249.29 266.821C250.707 267.029 251.951 266.953 252.951 266.597C253.951 266.242 254.688 265.613 255.118 264.747C255.549 263.882 255.666 262.797 255.462 261.553C255.258 260.31 254.738 258.933 253.93 257.501C253.122 256.069 252.043 254.61 250.755 253.207" stroke="#AAC4E5" stroke-width="0.744461"/>
<path d="M234.828 259.353C236.11 260.763 237.58 262.084 239.155 263.241C240.731 264.397 242.38 265.366 244.01 266.091C245.639 266.817 247.217 267.286 248.652 267.47C250.087 267.655 251.353 267.552 252.376 267.168C253.399 266.784 254.159 266.125 254.614 265.23C255.068 264.335 255.208 263.221 255.026 261.952C254.843 260.683 254.341 259.283 253.548 257.833C252.756 256.382 251.688 254.91 250.407 253.499" stroke="#799DCB" stroke-width="1.78671"/>
<path d="M235.763 258.878C234.463 257.502 233.371 256.066 232.549 254.652C231.728 253.237 231.193 251.873 230.975 250.636C230.757 249.399 230.861 248.313 231.28 247.442C231.699 246.57 232.426 245.93 233.418 245.556C234.411 245.183 235.65 245.084 237.064 245.266C238.479 245.448 240.041 245.907 241.663 246.616C243.284 247.325 244.932 248.271 246.514 249.399" stroke="#AAC4E5" stroke-width="0.744461"/>
<path d="M235.086 259.637C233.8 258.23 232.728 256.761 231.931 255.313C231.134 253.866 230.627 252.467 230.441 251.199C230.254 249.93 230.39 248.816 230.842 247.919C231.294 247.023 232.052 246.362 233.074 245.974C234.096 245.587 235.361 245.48 236.797 245.66C238.233 245.84 239.812 246.304 241.443 247.024C243.075 247.745 244.728 248.708 246.307 249.859" stroke="#799DCB" stroke-width="1.78671"/>
<path d="M249.891 250.071C249.94 249.941 249.803 249.82 249.682 249.886L248.607 250.473C248.569 250.494 248.524 250.497 248.484 250.482L247.342 250.041C247.214 249.992 247.093 250.13 247.159 250.252L247.742 251.336C247.762 251.374 247.765 251.42 247.75 251.461L247.313 252.612C247.264 252.742 247.402 252.863 247.523 252.797L248.597 252.21C248.635 252.189 248.68 252.186 248.72 252.201L249.862 252.642C249.991 252.691 250.111 252.553 250.045 252.431L249.463 251.347C249.442 251.309 249.439 251.263 249.455 251.222L249.891 250.071Z" fill="#B471CC"/>
<path d="M288.796 288.259C288.689 288.259 286.251 274.013 283.347 256.414C280.443 238.816 278.173 224.516 278.287 224.493C278.402 224.47 280.832 238.739 283.737 256.345C286.641 273.952 288.903 288.236 288.796 288.259Z" fill="#263238"/>
<path d="M514.138 288.59H-0.212891V301.603H514.138V288.59Z" fill="url(#paint30_linear_400_8666)"/>
</g>
<defs>
<linearGradient id="paint0_linear_400_8666" x1="193.224" y1="90.8555" x2="193.147" y2="231.56" gradientUnits="userSpaceOnUse">
<stop stop-color="#0A034E"/>
<stop offset="1" stop-color="#2C209B"/>
</linearGradient>
<linearGradient id="paint1_linear_400_8666" x1="236.71" y1="114.057" x2="268.945" y2="235.86" gradientUnits="userSpaceOnUse">
<stop offset="0.0835031" stop-color="#150C66"/>
<stop offset="1" stop-color="#2B1F9A"/>
</linearGradient>
<linearGradient id="paint2_linear_400_8666" x1="147.946" y1="103.165" x2="147.946" y2="269.59" gradientUnits="userSpaceOnUse">
<stop stop-color="#11076F"/>
<stop offset="1" stop-color="#2B1F9B"/>
</linearGradient>
<linearGradient id="paint3_linear_400_8666" x1="211.395" y1="17.0146" x2="211.395" y2="109.795" gradientUnits="userSpaceOnUse">
<stop stop-color="#11076F"/>
<stop offset="1" stop-color="#584ADB"/>
</linearGradient>
<linearGradient id="paint4_linear_400_8666" x1="219.897" y1="37.5089" x2="219.59" y2="125.648" gradientUnits="userSpaceOnUse">
<stop offset="0.252014" stop-color="#FFBE9D"/>
<stop offset="1" stop-color="#FFA97D"/>
</linearGradient>
<linearGradient id="paint5_linear_400_8666" x1="223.395" y1="19.7715" x2="192.715" y2="51.2376" gradientUnits="userSpaceOnUse">
<stop stop-color="#11076F"/>
<stop offset="1" stop-color="#23188B"/>
</linearGradient>
<linearGradient id="paint6_linear_400_8666" x1="281.31" y1="182.126" x2="281.31" y2="289.7" gradientUnits="userSpaceOnUse">
<stop stop-color="#94124F"/>
<stop offset="1" stop-color="#E7428F"/>
</linearGradient>
<linearGradient id="paint7_linear_400_8666" x1="280.252" y1="105.168" x2="307.093" y2="166.846" gradientUnits="userSpaceOnUse">
<stop stop-color="#11076F"/>
<stop offset="0.504744" stop-color="#49409F"/>
<stop offset="0.954707" stop-color="#6B62BC"/>
</linearGradient>
<linearGradient id="paint8_linear_400_8666" x1="274.612" y1="112.462" x2="274.612" y2="239.01" gradientUnits="userSpaceOnUse">
<stop offset="0.080041" stop-color="#FFC9AE"/>
<stop offset="1" stop-color="#FF9E6D"/>
</linearGradient>
<linearGradient id="paint9_linear_400_8666" x1="261.415" y1="109.109" x2="246.226" y2="134.705" gradientUnits="userSpaceOnUse">
<stop stop-color="#11076F"/>
<stop offset="1" stop-color="#6D64BD"/>
</linearGradient>
<linearGradient id="paint10_linear_400_8666" x1="287.789" y1="110.139" x2="302.86" y2="146.192" gradientUnits="userSpaceOnUse">
<stop stop-color="#11076F"/>
<stop offset="0.761332" stop-color="#6960BA"/>
</linearGradient>
<linearGradient id="paint11_linear_400_8666" x1="147.29" y1="260.648" x2="190.891" y2="287.378" gradientUnits="userSpaceOnUse">
<stop offset="0.0202143" stop-color="#8B5C52"/>
<stop offset="0.85339" stop-color="#AE8077"/>
</linearGradient>
<linearGradient id="paint12_linear_400_8666" x1="100.352" y1="110.152" x2="100.352" y2="289.874" gradientUnits="userSpaceOnUse">
<stop stop-color="#DC5292"/>
<stop offset="1" stop-color="#8D184F"/>
</linearGradient>
<linearGradient id="paint13_linear_400_8666" x1="158.328" y1="133.316" x2="158.328" y2="240.952" gradientUnits="userSpaceOnUse">
<stop stop-color="#CD4685"/>
<stop offset="1" stop-color="#A22760"/>
</linearGradient>
<linearGradient id="paint14_linear_400_8666" x1="86.3457" y1="134.955" x2="86.3457" y2="243.112" gradientUnits="userSpaceOnUse">
<stop stop-color="#D04988"/>
<stop offset="1" stop-color="#C1236D" stop-opacity="0"/>
</linearGradient>
<linearGradient id="paint15_linear_400_8666" x1="150.998" y1="32.4785" x2="150.998" y2="91.7731" gradientUnits="userSpaceOnUse">
<stop stop-color="#C1236D"/>
<stop offset="1" stop-color="#CC88A8"/>
</linearGradient>
<linearGradient id="paint16_linear_400_8666" x1="147.834" y1="53.8213" x2="147.834" y2="159.627" gradientUnits="userSpaceOnUse">
<stop offset="0.153735" stop-color="#9B6E65"/>
<stop offset="1" stop-color="#573C37"/>
</linearGradient>
<linearGradient id="paint17_linear_400_8666" x1="144.231" y1="50.5215" x2="120.112" y2="80.7207" gradientUnits="userSpaceOnUse">
<stop stop-color="#C43E7D"/>
<stop offset="1" stop-color="#C9729B"/>
</linearGradient>
<linearGradient id="paint18_linear_400_8666" x1="166.397" y1="47.4585" x2="180.958" y2="83.4204" gradientUnits="userSpaceOnUse">
<stop offset="0.00777952" stop-color="#C43E7D"/>
<stop offset="0.906045" stop-color="#C9709A"/>
</linearGradient>
<linearGradient id="paint19_linear_400_8666" x1="49.4647" y1="284.762" x2="96.0963" y2="271.405" gradientUnits="userSpaceOnUse">
<stop stop-color="#B08279"/>
<stop offset="1" stop-color="#8A5A51"/>
</linearGradient>
<linearGradient id="paint20_linear_400_8666" x1="435.153" y1="234.031" x2="432.065" y2="300.059" gradientUnits="userSpaceOnUse">
<stop stop-color="#090343"/>
<stop offset="0.803067" stop-color="#291E96"/>
</linearGradient>
<linearGradient id="paint21_linear_400_8666" x1="312.617" y1="235.213" x2="312.617" y2="269.931" gradientUnits="userSpaceOnUse">
<stop offset="0.312345" stop-color="#C78976"/>
<stop offset="1" stop-color="#B05F47"/>
</linearGradient>
<linearGradient id="paint22_linear_400_8666" x1="368.508" y1="275.784" x2="368.508" y2="288.805" gradientUnits="userSpaceOnUse">
<stop offset="0.140113" stop-color="#C78976"/>
<stop offset="1" stop-color="#C67E68"/>
</linearGradient>
<linearGradient id="paint23_linear_400_8666" x1="384.594" y1="127.838" x2="411.852" y2="234.988" gradientUnits="userSpaceOnUse">
<stop stop-color="#4235BC"/>
<stop offset="1" stop-color="#11076F"/>
</linearGradient>
<linearGradient id="paint24_linear_400_8666" x1="407.32" y1="121.714" x2="407.32" y2="287.313" gradientUnits="userSpaceOnUse">
<stop stop-color="#4134BB"/>
<stop offset="1" stop-color="#11076F"/>
</linearGradient>
<linearGradient id="paint25_linear_400_8666" x1="360.716" y1="171.776" x2="360.716" y2="259.31" gradientUnits="userSpaceOnUse">
<stop stop-color="#3327A5"/>
<stop offset="1" stop-color="#11076F"/>
</linearGradient>
<linearGradient id="paint26_linear_400_8666" x1="324.217" y1="60.858" x2="357.55" y2="131.625" gradientUnits="userSpaceOnUse">
<stop offset="0.186938" stop-color="#D89F8D"/>
<stop offset="1" stop-color="#B1664E"/>
</linearGradient>
<linearGradient id="paint27_linear_400_8666" x1="337.726" y1="42.9932" x2="337.726" y2="69.2256" gradientUnits="userSpaceOnUse">
<stop stop-color="#11076F"/>
<stop offset="1" stop-color="#372C9C"/>
</linearGradient>
<linearGradient id="paint28_linear_400_8666" x1="284.859" y1="288.588" x2="329.569" y2="288.588" gradientUnits="userSpaceOnUse">
<stop stop-color="#9D9C9C"/>
<stop offset="1" stop-color="#E0E0E0"/>
</linearGradient>
<linearGradient id="paint29_linear_400_8666" x1="244.567" y1="223.851" x2="244.567" y2="288.772" gradientUnits="userSpaceOnUse">
<stop offset="0.111434" stop-color="#E0E0E0"/>
<stop offset="1" stop-color="#989797"/>
</linearGradient>
<linearGradient id="paint30_linear_400_8666" x1="256.963" y1="288.59" x2="256.963" y2="301.603" gradientUnits="userSpaceOnUse">
<stop offset="0.0690878" stop-color="#455A64"/>
<stop offset="1" stop-color="#869EAA"/>
</linearGradient>
<clipPath id="clip0_400_8666">
<rect width="514" height="320" fill="white"/>
</clipPath>
</defs>
</svg>
