<svg width="256" height="221" viewBox="0 0 256 221" fill="none" xmlns="http://www.w3.org/2000/svg">
<g clip-path="url(#clip0_1760_14517)">
<path d="M47.0882 193.245C89.9871 219.162 159.534 219.162 202.428 193.245C245.321 167.328 245.321 125.301 202.428 99.3839C159.534 73.4671 89.9871 73.4671 47.0882 99.3839C4.1893 125.301 4.19462 167.323 47.0882 193.245Z" fill="#455A64"/>
<path d="M29.1341 132.65C29.1341 132.65 28.2304 124.677 24.2701 118.517C20.3098 112.357 14.8717 108.487 9.79503 108.094C4.71839 107.7 0.619874 112.346 6.07393 115.572C11.528 118.799 21.155 122.046 25.5937 134.043L29.1341 132.65Z" fill="#BA68C8"/>
<path d="M29.1341 132.65C29.1341 132.65 28.2304 124.677 24.2701 118.517C20.3098 112.357 14.8717 108.487 9.79503 108.094C4.71839 107.7 0.619874 112.346 6.07393 115.572C11.528 118.799 21.155 122.046 25.5937 134.043L29.1341 132.65Z" fill="#263238"/>
<path d="M27.6486 130.583C27.6659 130.588 27.6845 130.588 27.7018 130.583C27.7349 130.57 27.7651 130.55 27.7906 130.526C27.8161 130.501 27.8364 130.471 27.8503 130.439C27.8642 130.406 27.8714 130.371 27.8714 130.335C27.8715 130.3 27.8644 130.265 27.8506 130.232C22.4976 117.045 12.3018 111.533 7.65041 110.465C7.6155 110.457 7.57939 110.456 7.54415 110.462C7.50891 110.468 7.47525 110.481 7.44511 110.501C7.41497 110.52 7.38894 110.545 7.36852 110.574C7.3481 110.604 7.3337 110.637 7.32615 110.672C7.3116 110.742 7.32449 110.814 7.36211 110.874C7.39974 110.935 7.45921 110.978 7.52815 110.996C12.0785 112.059 22.0723 117.454 27.3456 130.434C27.3711 130.49 27.4152 130.535 27.4705 130.562C27.5257 130.59 27.5887 130.597 27.6486 130.583Z" fill="white"/>
<path d="M0.53843 130.742C0.995593 131.778 2.13318 132.336 3.19635 132.74C4.25952 133.144 5.3918 133.617 5.96059 134.595C7.1035 136.578 5.22701 139.379 6.45497 141.282C6.74216 141.667 7.10461 141.99 7.52037 142.231C7.93612 142.473 8.39652 142.627 8.87368 142.685C9.66137 142.798 10.4546 142.869 11.2499 142.897C11.6287 142.894 12.0069 142.865 12.3821 142.812C13.482 142.565 14.6327 142.686 15.6567 143.158C17.2515 144.046 17.7139 146.028 18.6655 147.559C19.2579 148.465 20.0401 149.231 20.958 149.804C21.8758 150.378 22.9074 150.745 23.9813 150.881C24.6883 150.977 26.0013 151.104 26.719 150.7C26.7707 150.674 26.8204 150.643 26.8678 150.61C26.9688 150.498 27.0911 150.355 27.1442 150.28C27.1551 150.265 27.164 150.249 27.1708 150.232C27.4526 149.207 26.9954 148.138 26.9795 147.081C26.9741 147.017 26.9741 146.953 26.9795 146.889C27.022 145.656 27.0592 144.434 27.0858 143.2C27.1425 140.943 27.1655 138.681 27.1549 136.413C27.1549 134.941 27.3144 133.335 26.6924 131.948C26.0067 130.428 24.2896 130.391 23.6464 128.897C23.3859 128.302 23.2477 127.664 22.9979 127.063C22.608 126.181 21.9835 125.423 21.1924 124.871C20.4013 124.319 19.474 123.994 18.5113 123.933C15.5238 123.779 12.8393 126.202 9.85179 125.979C9.08242 125.876 8.31933 125.731 7.56598 125.543C5.14195 125.092 2.34582 125.783 0.984961 127.829C0.678416 128.241 0.47745 128.722 0.399614 129.23C0.321777 129.737 0.369437 130.257 0.53843 130.742Z" fill="#37474F"/>
<path d="M27.4156 145.507C27.4479 145.499 27.4783 145.485 27.5049 145.465C27.5316 145.445 27.554 145.42 27.5708 145.391C27.5877 145.362 27.5986 145.33 27.603 145.297C27.6073 145.264 27.6051 145.231 27.5963 145.199C23.4712 129.694 7.14092 127.457 3.31883 127.76C3.28551 127.762 3.25293 127.77 3.22302 127.785C3.1931 127.8 3.16646 127.82 3.14466 127.846C3.12285 127.871 3.10634 127.9 3.09608 127.932C3.08582 127.964 3.08203 127.997 3.08493 128.031C3.09037 128.097 3.12185 128.159 3.17257 128.203C3.22329 128.247 3.28919 128.269 3.35604 128.264C7.07713 127.999 23.0672 130.189 27.1072 145.348C27.129 145.408 27.1729 145.458 27.2301 145.488C27.2873 145.517 27.3535 145.524 27.4156 145.507Z" fill="white"/>
<path d="M9.25852 137.657C9.30975 137.648 9.35641 137.622 9.39142 137.583C10.9013 136.278 12.6797 135.321 14.6006 134.78C16.5215 134.239 18.5379 134.127 20.5069 134.452C20.5419 134.463 20.5788 134.466 20.615 134.461C20.6512 134.455 20.6859 134.443 20.7167 134.423C20.7475 134.403 20.7738 134.377 20.7937 134.347C20.8136 134.316 20.8267 134.282 20.8321 134.245C20.8375 134.209 20.835 134.172 20.8249 134.137C20.8148 134.102 20.7973 134.07 20.7735 134.042C20.7497 134.014 20.7202 133.992 20.6871 133.976C20.6539 133.961 20.6178 133.953 20.5813 133.953C18.5335 133.614 16.4362 133.732 14.4393 134.298C12.4424 134.864 10.5952 135.864 9.02994 137.227C8.98317 137.275 8.95703 137.34 8.95703 137.408C8.95703 137.475 8.98317 137.54 9.02994 137.588C9.05924 137.618 9.09551 137.64 9.13544 137.652C9.17537 137.664 9.21768 137.666 9.25852 137.657Z" fill="white"/>
<path d="M157.979 -0.0958497L187.36 16.8702C187.646 17.0566 187.884 17.3078 188.055 17.6033C188.226 17.8987 188.325 18.2303 188.344 18.5711V99.3301C188.325 99.6709 188.226 100.002 188.055 100.298C187.884 100.593 187.646 100.845 187.36 101.031L157.979 117.997C157.675 118.152 157.338 118.232 156.996 118.232C156.654 118.232 156.317 118.152 156.013 117.997L126.632 101.031C126.345 100.845 126.107 100.594 125.936 100.299C125.765 100.003 125.666 99.6711 125.648 99.3301V18.5711C125.667 18.2303 125.766 17.8987 125.937 17.6033C126.108 17.3078 126.346 17.0566 126.632 16.8702L156.013 -0.0958497C156.318 -0.247973 156.655 -0.327148 156.996 -0.327148C157.337 -0.327148 157.674 -0.247973 157.979 -0.0958497Z" fill="#37474F"/>
<path d="M125.648 18.5687V99.3277C125.667 99.6679 125.765 99.999 125.935 100.294C126.105 100.59 126.342 100.841 126.627 101.029L156.013 117.995C156.315 118.156 156.653 118.237 156.996 118.228V35.1946C156.654 35.2005 156.315 35.1201 156.013 34.9607L126.627 17.9999L126.361 17.7767L126.01 17.4844C125.789 17.8041 125.663 18.1802 125.648 18.5687Z" fill="#263238"/>
<path d="M183.673 26.515L161.665 39.2183C161.379 39.4055 161.14 39.6576 160.97 39.954C160.799 40.2504 160.7 40.5829 160.682 40.9245V49.2959C160.682 49.9231 161.118 50.1782 161.66 49.8646L183.667 37.1613C183.953 36.9749 184.191 36.7238 184.362 36.4283C184.533 36.1328 184.632 35.8013 184.651 35.4605V27.0837C184.656 26.4565 184.241 26.2014 183.673 26.515Z" fill="#455A64"/>
<path d="M182.811 30.2109C182.785 30.5406 182.683 30.8598 182.512 31.1431C182.341 31.4264 182.107 31.6659 181.827 31.8427L163.509 42.4146C162.977 42.7282 162.525 42.505 162.525 41.9203C162.551 41.5906 162.653 41.2714 162.824 40.9881C162.995 40.7048 163.229 40.4653 163.509 40.2885L181.827 29.7113C182.369 29.3977 182.811 29.6209 182.811 30.2109Z" fill="#BA68C8"/>
<path d="M182.811 34.4687C182.785 34.7985 182.683 35.1176 182.512 35.4009C182.341 35.6842 182.107 35.9237 181.827 36.1005L163.509 46.6724C162.977 46.986 162.525 46.7628 162.525 46.1781C162.551 45.8484 162.653 45.5292 162.824 45.2459C162.995 44.9626 163.229 44.7231 163.509 44.5463L181.827 33.9691C182.369 33.6555 182.811 33.8787 182.811 34.4687Z" fill="#263238"/>
<path d="M181.825 33.9693L171.725 39.816V41.942L181.825 36.0953C182.104 35.9186 182.339 35.679 182.509 35.3958C182.68 35.1125 182.782 34.7933 182.808 34.4636C182.808 33.8789 182.367 33.6557 181.825 33.9693Z" fill="#BA68C8"/>
<path d="M183.673 41.4178L161.665 54.1211C161.379 54.3078 161.142 54.559 160.971 54.8544C160.8 55.1498 160.701 55.4812 160.682 55.8219V64.1987C160.682 64.8259 161.118 65.081 161.66 64.7674L183.667 52.0641C183.953 51.8777 184.191 51.6266 184.362 51.3311C184.533 51.0356 184.632 50.704 184.651 50.3633V41.9865C184.656 41.3593 184.241 41.1254 183.673 41.4178Z" fill="#455A64"/>
<path d="M182.811 45.1089C182.786 45.4395 182.684 45.7598 182.513 46.044C182.342 46.3283 182.107 46.5687 181.827 46.7459L163.509 57.3179C162.977 57.6315 162.525 57.4082 162.525 56.8235C162.55 56.4929 162.652 56.1726 162.823 55.8884C162.994 55.6041 163.229 55.3638 163.509 55.1865L181.827 44.6145C182.369 44.3169 182.811 44.5242 182.811 45.1089Z" fill="#BA68C8"/>
<path d="M182.811 49.3693C182.785 49.699 182.683 50.0182 182.512 50.3015C182.341 50.5848 182.107 50.8243 181.827 51.0011L163.509 61.573C162.977 61.8866 162.525 61.6633 162.525 61.0787C162.551 60.7489 162.653 60.4297 162.824 60.1465C162.995 59.8632 163.229 59.6237 163.509 59.4469L181.827 48.8697C182.369 48.5667 182.811 48.7793 182.811 49.3693Z" fill="#263238"/>
<path d="M181.827 48.873L166.215 57.9088V60.0349L181.827 51.0256C182.107 50.8489 182.342 50.6093 182.512 50.326C182.683 50.0428 182.785 49.7236 182.811 49.3939C182.811 48.7826 182.37 48.57 181.827 48.873Z" fill="#BA68C8"/>
<path d="M183.673 56.3226L161.665 69.0259C161.379 69.2123 161.141 69.4634 160.97 69.7589C160.799 70.0544 160.701 70.386 160.682 70.7268V79.1035C160.682 79.7307 161.118 79.9858 161.66 79.6722L183.667 66.9689C183.954 66.7817 184.192 66.5297 184.363 66.2333C184.534 65.9368 184.632 65.6044 184.651 65.2628V56.8913C184.656 56.2641 184.241 56.009 183.673 56.3226Z" fill="#455A64"/>
<path d="M182.811 60.0099C182.785 60.3396 182.683 60.6588 182.512 60.9421C182.341 61.2253 182.107 61.4649 181.827 61.6416L163.509 72.2189C162.977 72.5325 162.525 72.3092 162.525 71.7192C162.551 71.3895 162.653 71.0703 162.824 70.787C162.995 70.5038 163.229 70.2642 163.509 70.0875L181.827 59.5156C182.369 59.1966 182.811 59.4252 182.811 60.0099Z" fill="#BA68C8"/>
<path d="M182.811 64.2691C182.785 64.5988 182.683 64.918 182.512 65.2012C182.341 65.4845 182.107 65.7241 181.827 65.9008L163.509 76.478C162.977 76.7916 162.525 76.5684 162.525 75.9784C162.551 75.6487 162.653 75.3295 162.824 75.0462C162.995 74.763 163.229 74.5234 163.509 74.3467L181.827 63.7747C182.369 63.4505 182.811 63.6844 182.811 64.2691Z" fill="#263238"/>
<path d="M181.828 63.7749L175.449 67.4636V69.5897L181.828 65.8957C182.108 65.7189 182.342 65.4794 182.513 65.1961C182.684 64.9128 182.786 64.5936 182.812 64.2639C182.812 63.6845 182.37 63.4507 181.828 63.7749Z" fill="#BA68C8"/>
<path d="M183.673 71.2275L161.665 83.9308C161.379 84.1172 161.141 84.3683 160.97 84.6638C160.799 84.9593 160.701 85.2908 160.682 85.6316V94.0084C160.682 94.6356 161.118 94.8907 161.66 94.5771L183.667 81.8738C183.954 81.6865 184.192 81.4345 184.363 81.1381C184.534 80.8417 184.632 80.5092 184.651 80.1676V71.7962C184.656 71.169 184.241 70.8926 183.673 71.2275Z" fill="#455A64"/>
<path d="M182.811 74.9157C182.785 75.2455 182.683 75.5646 182.512 75.8479C182.341 76.1312 182.107 76.3707 181.827 76.5475L163.509 87.1247C162.977 87.4383 162.525 87.2151 162.525 86.6251C162.551 86.2954 162.653 85.9762 162.824 85.6929C162.995 85.4096 163.229 85.1701 163.509 84.9933L181.827 74.4214C182.369 74.1078 182.811 74.3311 182.811 74.9157Z" fill="#BA68C8"/>
<path d="M182.811 79.1726C182.785 79.5023 182.683 79.8215 182.512 80.1047C182.341 80.388 182.107 80.6276 181.827 80.8043L163.509 91.3815C162.977 91.6951 162.525 91.4719 162.525 90.8819C162.551 90.5522 162.653 90.233 162.824 89.9497C162.995 89.6665 163.229 89.4269 163.509 89.2502L181.827 78.6782C182.369 78.3646 182.811 78.5879 182.811 79.1726Z" fill="#263238"/>
<path d="M181.825 78.6782L171.725 84.4984V86.6245L181.825 80.8043C182.104 80.6276 182.339 80.388 182.509 80.1047C182.68 79.8215 182.782 79.5023 182.808 79.1726C182.808 78.5879 182.367 78.3646 181.825 78.6782Z" fill="#BA68C8"/>
<path d="M183.673 86.1303L161.665 98.8337C161.379 99.0201 161.141 99.2712 160.97 99.5667C160.799 99.8622 160.701 100.194 160.682 100.535V108.911C160.682 109.538 161.118 109.788 161.66 109.475L183.667 96.7714C183.953 96.5849 184.191 96.3338 184.362 96.0383C184.533 95.7429 184.632 95.4113 184.651 95.0705V86.6938C184.656 86.0666 184.241 85.8167 183.673 86.1303Z" fill="#455A64"/>
<path d="M182.811 89.8189C182.785 90.1486 182.683 90.4678 182.512 90.7511C182.341 91.0344 182.107 91.2739 181.827 91.4507L163.509 102.028C162.977 102.336 162.525 102.118 162.525 101.528C162.551 101.199 162.653 100.879 162.824 100.596C162.995 100.313 163.229 100.073 163.509 99.8965L181.827 89.3193C182.369 89.011 182.811 89.2289 182.811 89.8189Z" fill="#BA68C8"/>
<path d="M182.811 94.0769C182.785 94.4066 182.683 94.7258 182.512 95.0091C182.341 95.2924 182.107 95.5319 181.827 95.7087L163.509 106.286C162.977 106.6 162.525 106.376 162.525 105.786C162.551 105.457 162.653 105.137 162.824 104.854C162.995 104.571 163.229 104.331 163.509 104.155L181.827 93.5826C182.369 93.269 182.811 93.4869 182.811 94.0769Z" fill="#263238"/>
<path d="M181.827 93.5834L168.059 101.53V103.656L181.827 95.6829C182.106 95.5061 182.341 95.2666 182.511 94.9833C182.682 94.7001 182.784 94.3809 182.81 94.0511C182.81 93.4877 182.369 93.2698 181.827 93.5834Z" fill="#BA68C8"/>
<path d="M152.388 40.3236C151.367 39.7336 150.543 40.2704 150.543 41.5248V90.2173C150.569 90.8788 150.75 91.5251 151.07 92.1046C151.39 92.6841 151.841 93.1808 152.388 93.5552C153.403 94.1452 154.227 93.6084 154.227 92.354V43.6615C154.201 43.0004 154.021 42.3545 153.702 41.775C153.383 41.1955 152.933 40.6985 152.388 40.3236Z" fill="#37474F"/>
<path d="M152.39 92.4776C152.116 92.2907 151.89 92.0425 151.73 91.7527C151.569 91.4629 151.478 91.1396 151.465 90.8086V41.9833C151.465 41.3561 151.879 41.085 152.39 41.3827C152.662 41.5696 152.886 41.8173 153.046 42.106C153.206 42.3948 153.296 42.7167 153.309 43.0463V91.877C153.309 92.4989 152.879 92.7699 152.39 92.4776Z" fill="#263238"/>
<path d="M152.39 92.4762C152.116 92.2893 151.89 92.041 151.73 91.7513C151.569 91.4615 151.478 91.1382 151.465 90.8072V67.4629L153.309 68.5259V91.8702C153.309 92.4974 152.879 92.7685 152.39 92.4762Z" fill="#BA68C8"/>
<path d="M146.854 37.1302C145.834 36.5402 145.01 37.0771 145.01 38.3315V87.0239C145.034 87.686 145.213 88.3332 145.533 88.9131C145.854 89.493 146.306 89.9893 146.854 90.3619C147.87 90.9518 148.699 90.415 148.699 89.1606V40.4682C148.673 39.8066 148.492 39.1603 148.172 38.5808C147.852 38.0013 147.401 37.5046 146.854 37.1302Z" fill="#37474F"/>
<path d="M146.853 89.2829C146.579 89.096 146.353 88.8478 146.192 88.558C146.032 88.2682 145.941 87.945 145.928 87.6139V38.7886C145.928 38.1614 146.342 37.8956 146.853 38.188C147.125 38.3755 147.35 38.624 147.51 38.9137C147.67 39.2034 147.759 39.5264 147.772 39.857V88.6823C147.772 89.3095 147.363 89.5752 146.853 89.2829Z" fill="#BA68C8"/>
<path d="M141.321 33.9403C140.306 33.345 139.477 33.8871 139.477 35.1362V83.8286C139.503 84.4902 139.683 85.1365 140.004 85.716C140.324 86.2955 140.775 86.7922 141.321 87.1666C142.342 87.7566 143.166 87.2197 143.166 85.9653V37.2782C143.142 36.6161 142.963 35.9689 142.642 35.389C142.322 34.8091 141.869 34.3128 141.321 33.9403Z" fill="#37474F"/>
<path d="M141.316 86.0857C141.042 85.9006 140.816 85.6534 140.657 85.3643C140.497 85.0751 140.408 84.7523 140.396 84.4221V35.5914C140.396 34.9696 140.806 34.6985 141.316 34.9908C141.59 35.1777 141.816 35.426 141.976 35.7157C142.137 36.0055 142.228 36.3288 142.241 36.6598V85.4851C142.241 86.1123 141.826 86.3834 141.316 86.0857Z" fill="#263238"/>
<path d="M141.316 86.089C141.042 85.9039 140.816 85.6567 140.657 85.3675C140.497 85.0784 140.408 84.7555 140.396 84.4253V46.6875L142.241 47.7505V85.4884C142.241 86.1156 141.826 86.3866 141.316 86.089Z" fill="#BA68C8"/>
<path d="M135.794 30.7474C134.773 30.1574 133.949 30.6943 133.949 31.9487V80.6358C133.973 81.2979 134.152 81.9451 134.473 82.525C134.793 83.1049 135.246 83.6012 135.794 83.9737C136.809 84.5637 137.633 84.0269 137.633 82.7725V34.0854C137.607 33.4243 137.428 32.7783 137.108 32.1988C136.789 31.6193 136.339 31.1224 135.794 30.7474Z" fill="#37474F"/>
<path d="M135.79 82.8923C135.517 82.7059 135.292 82.4585 135.131 82.1697C134.971 81.8809 134.88 81.5587 134.865 81.2286V32.4033C134.865 31.7761 135.28 31.505 135.79 31.7974C136.063 31.9848 136.288 32.2333 136.447 32.5231C136.607 32.8128 136.697 33.1358 136.71 33.4663V82.2917C136.71 82.9189 136.295 83.1899 135.79 82.8923Z" fill="#263238"/>
<path d="M135.79 82.8919C135.517 82.7055 135.292 82.4581 135.131 82.1693C134.971 81.8806 134.88 81.5583 134.865 81.2282V72.9844L136.71 74.0474V82.286C136.71 82.9185 136.295 83.1895 135.79 82.8919Z" fill="#BA68C8"/>
<path d="M130.261 27.5521C129.24 26.9621 128.416 27.499 128.416 28.7533V77.4405C128.44 78.1026 128.619 78.7498 128.94 79.3297C129.26 79.9095 129.713 80.4059 130.261 80.7784C131.276 81.3737 132.105 80.8316 132.105 79.5825V30.89C132.079 30.2285 131.898 29.5822 131.578 29.0027C131.258 28.4232 130.807 27.9265 130.261 27.5521Z" fill="#37474F"/>
<path d="M130.257 79.7032C129.983 79.5163 129.757 79.268 129.597 78.9783C129.436 78.6885 129.346 78.3652 129.332 78.0342V29.2089C129.332 28.5817 129.747 28.3106 130.257 28.6083C130.531 28.7934 130.757 29.0406 130.916 29.3298C131.076 29.6189 131.165 29.9417 131.177 30.2719V79.0973C131.177 79.7244 130.767 79.9955 130.257 79.7032Z" fill="#263238"/>
<path d="M130.257 79.7033C129.983 79.5164 129.757 79.2681 129.597 78.9784C129.436 78.6886 129.346 78.3653 129.332 78.0343V52.5586L131.177 53.6216V79.092C131.177 79.7245 130.767 79.9956 130.257 79.7033Z" fill="#BA68C8"/>
<path d="M153.443 99.4769L129.203 85.482C128.767 85.2322 128.416 85.4341 128.416 85.9391V94.7676C128.431 95.0404 128.509 95.3058 128.646 95.5423C128.783 95.7788 128.974 95.9796 129.203 96.1283L153.443 110.123C153.879 110.373 154.23 110.171 154.23 109.671V100.838C154.215 100.565 154.136 100.299 154 100.063C153.863 99.8264 153.672 99.6256 153.443 99.4769Z" fill="#37474F"/>
<path d="M152.444 102.098C152.444 102.683 152.002 102.906 151.46 102.593L131.175 90.8993C130.895 90.7226 130.661 90.483 130.49 90.1997C130.319 89.9165 130.217 89.5973 130.191 89.2676C130.191 88.6776 130.633 88.4543 131.175 88.7679L151.46 100.461C151.74 100.639 151.975 100.879 152.146 101.163C152.317 101.448 152.419 101.768 152.444 102.098Z" fill="#263238"/>
<path d="M152.444 102.098C152.444 102.683 152.003 102.906 151.46 102.592L136.709 94.088V91.9619L151.46 100.466C151.74 100.643 151.974 100.883 152.145 101.166C152.316 101.449 152.418 101.768 152.444 102.098Z" fill="#BA68C8"/>
<path d="M152.444 106.356C152.444 106.941 152.002 107.164 151.46 106.851L131.175 95.1571C130.895 94.9804 130.661 94.7408 130.49 94.4576C130.319 94.1743 130.217 93.8551 130.191 93.5254C130.191 92.9354 130.633 92.7121 131.175 93.0257L151.46 104.719C151.74 104.896 151.975 105.137 152.146 105.421C152.317 105.705 152.419 106.026 152.444 106.356Z" fill="#263238"/>
<path d="M152.445 106.354C152.445 106.939 152.004 107.162 151.462 106.848L145.928 103.659V101.533L151.462 104.722C151.741 104.899 151.976 105.139 152.146 105.422C152.317 105.705 152.419 106.024 152.445 106.354Z" fill="#BA68C8"/>
<path d="M126.63 16.8702L156.011 -0.0958498C156.316 -0.247973 156.653 -0.327148 156.994 -0.327148C157.335 -0.327148 157.672 -0.247973 157.977 -0.0958498L187.358 16.8702C187.478 16.9091 187.582 16.9848 187.656 17.0865C187.729 17.1882 187.769 17.3106 187.769 17.4363C187.769 17.562 187.729 17.6844 187.656 17.7861C187.582 17.8878 187.478 17.9635 187.358 18.0024L157.977 34.9631C157.673 35.1177 157.336 35.1982 156.994 35.1982C156.652 35.1982 156.315 35.1177 156.011 34.9631L126.63 18.0024C126.51 17.9635 126.406 17.8878 126.332 17.7861C126.259 17.6844 126.219 17.562 126.219 17.4363C126.219 17.3106 126.259 17.1882 126.332 17.0865C126.406 16.9848 126.51 16.9091 126.63 16.8702Z" fill="#455A64"/>
<path d="M157.584 30.9306L180.373 17.7702C180.546 17.6594 180.689 17.509 180.792 17.3315C180.895 17.154 180.953 16.9545 180.963 16.7497V15.9843C180.953 15.7795 180.895 15.58 180.792 15.4025C180.689 15.2249 180.546 15.0745 180.373 14.9638L157.584 1.79272C157.401 1.70105 157.199 1.65332 156.994 1.65332C156.789 1.65332 156.587 1.70105 156.404 1.79272L133.61 14.9638C133.438 15.0755 133.295 15.2261 133.192 15.4034C133.09 15.5808 133.031 15.7798 133.02 15.9843V16.7497C133.031 16.9542 133.09 17.1532 133.192 17.3305C133.295 17.5078 133.438 17.6585 133.61 17.7702L156.404 30.9306C156.587 31.0223 156.789 31.07 156.994 31.07C157.199 31.07 157.401 31.0223 157.584 30.9306Z" fill="#263238"/>
<path d="M180.378 15.6441L157.589 28.7992C157.406 28.8934 157.204 28.9425 156.999 28.9425C156.793 28.9425 156.591 28.8934 156.409 28.7992L133.614 15.6441C133.544 15.619 133.484 15.5728 133.441 15.5119C133.398 15.451 133.375 15.3784 133.375 15.304C133.375 15.2295 133.398 15.1569 133.441 15.096C133.484 15.0351 133.544 14.9889 133.614 14.9638L156.409 2.26047C156.591 2.16632 156.793 2.11719 156.999 2.11719C157.204 2.11719 157.406 2.16632 157.589 2.26047L180.378 14.9638C180.45 14.9863 180.514 15.0314 180.559 15.0927C180.604 15.1539 180.629 15.2279 180.629 15.304C180.629 15.38 180.604 15.454 180.559 15.5153C180.514 15.5765 180.45 15.6216 180.378 15.6441Z" fill="#455A64"/>
<path d="M156.998 28.9436V31.0697C157.203 31.075 157.407 31.0274 157.588 30.9315L180.377 17.7711C180.55 17.6603 180.693 17.5099 180.796 17.3324C180.899 17.1549 180.957 16.9554 180.967 16.7506V15.9852C180.958 15.8028 180.911 15.6244 180.828 15.4615C180.746 15.2985 180.63 15.1546 180.489 15.0391C180.701 15.2251 180.664 15.4802 180.377 15.645L157.588 28.8001C157.407 28.8979 157.204 28.9473 156.998 28.9436Z" fill="#37474F"/>
<path d="M157.583 24.5419L172.999 15.6443C173.173 15.5343 173.319 15.3845 173.425 15.2071C173.53 15.0296 173.592 14.8297 173.605 14.6238V13.8531C173.592 13.6488 173.532 13.4503 173.43 13.2732C173.328 13.096 173.185 12.9452 173.015 12.8325L163.111 7.10808C162.732 6.87047 162.396 6.57034 162.117 6.22044L157.397 -0.157787C157.283 -0.305976 157.121 -0.408479 156.938 -0.446544C156.756 -0.484608 156.565 -0.455691 156.403 -0.365081L140.987 8.53255C140.815 8.64395 140.671 8.79451 140.569 8.9719C140.466 9.14929 140.407 9.34845 140.396 9.55306V14.5812C140.408 14.7857 140.467 14.9848 140.569 15.1621C140.672 15.3394 140.815 15.49 140.987 15.6018L156.403 24.4994C156.582 24.6002 156.782 24.6566 156.987 24.664C157.193 24.6714 157.397 24.6296 157.583 24.5419Z" fill="#263238"/>
<path d="M156.409 22.4172L146.501 16.7087C146.312 16.5978 146.134 16.4697 145.969 16.326C145.792 16.1658 145.631 15.9877 145.491 15.7945L140.77 9.41628C140.716 9.34844 140.678 9.26961 140.658 9.18538C140.638 9.10114 140.637 9.01357 140.655 8.92886C140.673 8.84415 140.709 8.76439 140.761 8.69522C140.813 8.62606 140.88 8.56919 140.956 8.52864L156.372 -0.368986C156.535 -0.459596 156.725 -0.488515 156.908 -0.45045C157.09 -0.412386 157.253 -0.309883 157.366 -0.161694L162.087 6.21653C162.334 6.57491 162.644 6.88629 163.001 7.13606L172.968 12.8074C173.038 12.8325 173.099 12.8787 173.142 12.9396C173.185 13.0005 173.208 13.0731 173.208 13.1475C173.208 13.222 173.185 13.2946 173.142 13.3555C173.099 13.4164 173.038 13.4626 172.968 13.4877L157.552 22.3907C157.376 22.4806 157.182 22.5297 156.984 22.5343C156.786 22.5389 156.59 22.4989 156.409 22.4172Z" fill="#455A64"/>
<path d="M140.991 8.57747L156.407 -0.320158C156.569 -0.410768 156.76 -0.439687 156.942 -0.401622C157.125 -0.363558 157.287 -0.261054 157.401 -0.112866L162.121 6.26536C162.265 6.44759 162.427 6.61495 162.605 6.76499C162.605 6.76499 146.014 16.3323 146.009 16.3323C145.828 16.1736 145.666 15.9953 145.525 15.8008L140.804 9.42258C140.758 9.35584 140.726 9.28025 140.71 9.20055C140.695 9.12085 140.696 9.03876 140.713 8.95942C140.73 8.88008 140.764 8.8052 140.812 8.73948C140.86 8.67375 140.92 8.6186 140.991 8.57747Z" fill="#37474F"/>
<path d="M169.261 12.9926C169.047 12.8826 168.81 12.8252 168.57 12.8252C168.33 12.8252 168.093 12.8826 167.879 12.9926C167.496 13.2105 167.496 13.5667 167.879 13.7899C168.093 13.8975 168.33 13.9535 168.57 13.9535C168.81 13.9535 169.046 13.8975 169.261 13.7899C169.644 13.5667 169.644 13.2105 169.261 12.9926Z" fill="#BA68C8"/>
<path d="M166.493 14.5893C166.279 14.4818 166.042 14.4258 165.802 14.4258C165.562 14.4258 165.326 14.4818 165.111 14.5893C164.729 14.8126 164.729 15.1687 165.111 15.3866C165.325 15.4966 165.562 15.554 165.802 15.554C166.043 15.554 166.28 15.4966 166.493 15.3866C166.876 15.1687 166.876 14.8126 166.493 14.5893Z" fill="#BA68C8"/>
<path d="M163.733 16.1812C163.517 16.0736 163.28 16.0176 163.039 16.0176C162.798 16.0176 162.561 16.0736 162.345 16.1812C162.262 16.2103 162.19 16.2646 162.139 16.3365C162.088 16.4084 162.061 16.4944 162.061 16.5825C162.061 16.6706 162.088 16.7566 162.139 16.8285C162.19 16.9004 162.262 16.9547 162.345 16.9838C162.561 17.0914 162.798 17.1474 163.039 17.1474C163.28 17.1474 163.517 17.0914 163.733 16.9838C163.816 16.9547 163.888 16.9004 163.939 16.8285C163.99 16.7566 164.017 16.6706 164.017 16.5825C164.017 16.4944 163.99 16.4084 163.939 16.3365C163.888 16.2646 163.816 16.2103 163.733 16.1812Z" fill="#263238"/>
<path d="M160.961 17.7807C160.747 17.6707 160.51 17.6133 160.27 17.6133C160.03 17.6133 159.793 17.6707 159.579 17.7807C159.495 17.8085 159.422 17.8619 159.371 17.9335C159.319 18.005 159.291 18.0911 159.291 18.1794C159.291 18.2676 159.319 18.3537 159.371 18.4252C159.422 18.4968 159.495 18.5503 159.579 18.578C159.793 18.688 160.03 18.7454 160.27 18.7454C160.51 18.7454 160.747 18.688 160.961 18.578C161.045 18.5503 161.118 18.4968 161.17 18.4252C161.221 18.3537 161.249 18.2676 161.249 18.1794C161.249 18.0911 161.221 18.005 161.17 17.9335C161.118 17.8619 161.045 17.8085 160.961 17.7807Z" fill="#263238"/>
<path d="M167.186 11.7925C166.972 11.6849 166.735 11.6289 166.495 11.6289C166.255 11.6289 166.019 11.6849 165.804 11.7925C165.721 11.8216 165.649 11.8759 165.598 11.9478C165.547 12.0197 165.52 12.1056 165.52 12.1938C165.52 12.2819 165.547 12.3679 165.598 12.4397C165.649 12.5116 165.721 12.5659 165.804 12.595C166.019 12.7026 166.255 12.7586 166.495 12.7586C166.735 12.7586 166.972 12.7026 167.186 12.595C167.27 12.5659 167.342 12.5116 167.393 12.4397C167.444 12.3679 167.471 12.2819 167.471 12.1938C167.471 12.1056 167.444 12.0197 167.393 11.9478C167.342 11.8759 167.27 11.8216 167.186 11.7925Z" fill="#BA68C8"/>
<path d="M164.42 13.3921C164.205 13.282 163.967 13.2246 163.726 13.2246C163.485 13.2246 163.247 13.282 163.032 13.3921C162.948 13.4198 162.875 13.4733 162.824 13.5448C162.772 13.6164 162.744 13.7024 162.744 13.7907C162.744 13.879 162.772 13.965 162.824 14.0366C162.875 14.1082 162.948 14.1616 163.032 14.1894C163.248 14.297 163.485 14.353 163.726 14.353C163.967 14.353 164.204 14.297 164.42 14.1894C164.503 14.1616 164.576 14.1082 164.628 14.0366C164.68 13.965 164.708 13.879 164.708 13.7907C164.708 13.7024 164.68 13.6164 164.628 13.5448C164.576 13.4733 164.503 13.4198 164.42 13.3921Z" fill="#263238"/>
<path d="M160.962 15.9481C161.503 15.9481 161.941 15.6959 161.941 15.3847C161.941 15.0735 161.503 14.8213 160.962 14.8213C160.422 14.8213 159.984 15.0735 159.984 15.3847C159.984 15.6959 160.422 15.9481 160.962 15.9481Z" fill="#BA68C8"/>
<path d="M158.886 16.5854C158.672 16.4754 158.435 16.418 158.195 16.418C157.955 16.418 157.718 16.4754 157.504 16.5854C157.121 16.8033 157.121 17.1594 157.504 17.3827C157.718 17.4902 157.955 17.5462 158.195 17.5462C158.435 17.5462 158.671 17.4902 158.886 17.3827C159.253 17.1594 159.253 16.8033 158.886 16.5854Z" fill="#263238"/>
<path d="M165.105 10.5952C164.89 10.4876 164.654 10.4316 164.414 10.4316C164.174 10.4316 163.937 10.4876 163.723 10.5952C163.34 10.8184 163.34 11.1745 163.723 11.3925C163.936 11.5025 164.173 11.5599 164.414 11.5599C164.654 11.5599 164.891 11.5025 165.105 11.3925C165.498 11.1745 165.498 10.8291 165.105 10.5952Z" fill="#263238"/>
<path d="M162.341 12.1909C162.126 12.0833 161.889 12.0273 161.65 12.0273C161.41 12.0273 161.173 12.0833 160.958 12.1909C160.875 12.22 160.803 12.2743 160.752 12.3462C160.701 12.4181 160.674 12.5041 160.674 12.5922C160.674 12.6803 160.701 12.7663 160.752 12.8382C160.803 12.9101 160.875 12.9643 160.958 12.9935C161.173 13.101 161.41 13.157 161.65 13.157C161.889 13.157 162.126 13.101 162.341 12.9935C162.424 12.9643 162.496 12.9101 162.547 12.8382C162.598 12.7663 162.625 12.6803 162.625 12.5922C162.625 12.5041 162.598 12.4181 162.547 12.3462C162.496 12.2743 162.424 12.22 162.341 12.1909Z" fill="#BA68C8"/>
<path d="M159.58 13.7915C159.367 13.6814 159.13 13.624 158.889 13.624C158.649 13.624 158.412 13.6814 158.198 13.7915C158.114 13.8192 158.041 13.8726 157.99 13.9442C157.938 14.0158 157.91 14.1018 157.91 14.1901C157.91 14.2784 157.938 14.3644 157.99 14.436C158.041 14.5075 158.114 14.561 158.198 14.5887C158.413 14.6963 158.649 14.7523 158.889 14.7523C159.129 14.7523 159.366 14.6963 159.58 14.5887C159.664 14.561 159.737 14.5075 159.789 14.436C159.84 14.3644 159.868 14.2784 159.868 14.1901C159.868 14.1018 159.84 14.0158 159.789 13.9442C159.737 13.8726 159.664 13.8192 159.58 13.7915Z" fill="#263238"/>
<path d="M158.195 19.3335C157.98 19.2259 157.743 19.1699 157.504 19.1699C157.264 19.1699 157.027 19.2259 156.812 19.3335C156.43 19.5567 156.43 19.9128 156.812 20.1307C157.026 20.2408 157.263 20.2982 157.504 20.2982C157.744 20.2982 157.981 20.2408 158.195 20.1307C158.567 19.9235 158.567 19.5673 158.195 19.3335Z" fill="#BA68C8"/>
<path d="M156.108 18.1508C155.894 18.0408 155.657 17.9834 155.417 17.9834C155.176 17.9834 154.939 18.0408 154.726 18.1508C154.642 18.1786 154.569 18.232 154.517 18.3036C154.465 18.3751 154.438 18.4612 154.438 18.5495C154.438 18.6378 154.465 18.7238 154.517 18.7954C154.569 18.8669 154.642 18.9204 154.726 18.9481C154.939 19.0581 155.176 19.1155 155.417 19.1155C155.657 19.1155 155.894 19.0581 156.108 18.9481C156.191 18.9204 156.264 18.8669 156.316 18.7954C156.368 18.7238 156.396 18.6378 156.396 18.5495C156.396 18.4612 156.368 18.3751 156.316 18.3036C156.264 18.232 156.191 18.1786 156.108 18.1508Z" fill="#263238"/>
<path d="M156.817 15.3862C156.603 15.2787 156.366 15.2227 156.126 15.2227C155.886 15.2227 155.65 15.2787 155.435 15.3862C155.352 15.4153 155.28 15.4696 155.229 15.5415C155.178 15.6134 155.15 15.6994 155.15 15.7875C155.15 15.8756 155.178 15.9616 155.229 16.0335C155.28 16.1054 155.352 16.1597 155.435 16.1888C155.65 16.2963 155.886 16.3523 156.126 16.3523C156.366 16.3523 156.603 16.2963 156.817 16.1888C156.9 16.1597 156.972 16.1054 157.023 16.0335C157.074 15.9616 157.102 15.8756 157.102 15.7875C157.102 15.6994 157.074 15.6134 157.023 15.5415C156.972 15.4696 156.9 15.4153 156.817 15.3862Z" fill="#263238"/>
<path d="M163.041 9.39892C162.826 9.28885 162.588 9.23145 162.347 9.23145C162.106 9.23145 161.868 9.28885 161.653 9.39892C161.569 9.42666 161.496 9.48011 161.445 9.55167C161.393 9.62323 161.365 9.70927 161.365 9.79756C161.365 9.88584 161.393 9.97188 161.445 10.0434C161.496 10.115 161.569 10.1685 161.653 10.1962C161.868 10.3063 162.106 10.3637 162.347 10.3637C162.588 10.3637 162.826 10.3063 163.041 10.1962C163.125 10.1685 163.197 10.115 163.249 10.0434C163.301 9.97188 163.329 9.88584 163.329 9.79756C163.329 9.70927 163.301 9.62323 163.249 9.55167C163.197 9.48011 163.125 9.42666 163.041 9.39892Z" fill="#BA68C8"/>
<path d="M159.584 11.9579C160.124 11.9579 160.562 11.7056 160.562 11.3945C160.562 11.0833 160.124 10.8311 159.584 10.8311C159.043 10.8311 158.605 11.0833 158.605 11.3945C158.605 11.7056 159.043 11.9579 159.584 11.9579Z" fill="#263238"/>
<path d="M157.507 12.5952C157.293 12.4851 157.056 12.4277 156.816 12.4277C156.576 12.4277 156.339 12.4851 156.125 12.5952C155.742 12.8131 155.742 13.1692 156.125 13.3924C156.339 13.5 156.576 13.556 156.816 13.556C157.056 13.556 157.293 13.5 157.507 13.3924C157.89 13.1692 157.89 12.8131 157.507 12.5952Z" fill="#BA68C8"/>
<path d="M154.74 14.19C154.524 14.0824 154.287 14.0264 154.046 14.0264C153.805 14.0264 153.568 14.0824 153.352 14.19C153.269 14.2177 153.196 14.2712 153.144 14.3427C153.092 14.4143 153.064 14.5003 153.064 14.5886C153.064 14.6769 153.092 14.763 153.144 14.8345C153.196 14.9061 153.269 14.9595 153.352 14.9873C153.567 15.0973 153.805 15.1547 154.046 15.1547C154.287 15.1547 154.525 15.0973 154.74 14.9873C154.824 14.9595 154.897 14.9061 154.948 14.8345C155 14.763 155.028 14.6769 155.028 14.5886C155.028 14.5003 155 14.4143 154.948 14.3427C154.897 14.2712 154.824 14.2177 154.74 14.19Z" fill="#263238"/>
<path d="M154.035 16.9517C153.82 16.8416 153.582 16.7842 153.341 16.7842C153.1 16.7842 152.862 16.8416 152.647 16.9517C152.564 16.9794 152.491 17.0328 152.439 17.1044C152.387 17.176 152.359 17.262 152.359 17.3503C152.359 17.4386 152.387 17.5246 152.439 17.5962C152.491 17.6677 152.564 17.7212 152.647 17.7489C152.862 17.859 153.1 17.9164 153.341 17.9164C153.582 17.9164 153.82 17.859 154.035 17.7489C154.119 17.7212 154.192 17.6677 154.243 17.5962C154.295 17.5246 154.323 17.4386 154.323 17.3503C154.323 17.262 154.295 17.176 154.243 17.1044C154.192 17.0328 154.119 16.9794 154.035 16.9517Z" fill="#BA68C8"/>
<path d="M151.954 15.7563C151.741 15.6463 151.504 15.5889 151.263 15.5889C151.023 15.5889 150.786 15.6463 150.572 15.7563C150.189 15.9742 150.189 16.3303 150.572 16.5536C150.787 16.6611 151.023 16.7171 151.263 16.7171C151.503 16.7171 151.74 16.6611 151.954 16.5536C152.342 16.3303 152.342 15.9742 151.954 15.7563Z" fill="#263238"/>
<path d="M156.969 22.5548V24.6809C157.185 24.6909 157.399 24.6432 157.591 24.5427L173.007 15.6451C173.181 15.534 173.327 15.3832 173.433 15.2049C173.538 15.0266 173.6 14.8259 173.613 14.6193V13.8539C173.602 13.6721 173.553 13.4946 173.47 13.3326C173.386 13.1706 173.27 13.0278 173.129 12.9131C173.342 13.0991 173.304 13.3489 173.023 13.5137L157.607 22.4166C157.411 22.5199 157.19 22.5677 156.969 22.5548Z" fill="#37474F"/>
<path d="M160.087 5.97741C160.01 5.88054 159.901 5.81372 159.78 5.78848C159.659 5.76325 159.532 5.78119 159.423 5.83922L145.995 13.5675C145.944 13.594 145.899 13.6317 145.864 13.6777C145.829 13.7237 145.805 13.7769 145.793 13.8334C145.782 13.8899 145.783 13.9483 145.796 14.0044C145.81 14.0605 145.836 14.1128 145.873 14.1575C145.95 14.2544 146.059 14.3212 146.18 14.3464C146.301 14.3716 146.428 14.3537 146.537 14.2957L159.96 6.57803C160.012 6.55154 160.058 6.51355 160.094 6.46688C160.13 6.4202 160.155 6.36602 160.168 6.30835C160.18 6.25069 160.179 6.19101 160.165 6.13372C160.151 6.07644 160.125 6.02302 160.087 5.97741Z" fill="#263238"/>
<path d="M160.083 5.97741C160.005 5.88054 159.897 5.81372 159.775 5.78848C159.654 5.76325 159.528 5.78119 159.418 5.83922L149.43 11.5796L149.988 12.3237L159.955 6.57803C160.008 6.55154 160.054 6.51355 160.09 6.46688C160.126 6.4202 160.151 6.36602 160.163 6.30835C160.175 6.25069 160.174 6.19101 160.161 6.13372C160.147 6.07644 160.12 6.02302 160.083 5.97741Z" fill="#BA68C8"/>
<path d="M158.973 4.4901C158.896 4.3945 158.789 4.3285 158.668 4.3033C158.548 4.27811 158.423 4.29529 158.314 4.3519L144.902 12.0749C144.852 12.1027 144.808 12.1412 144.773 12.1877C144.739 12.2342 144.715 12.2876 144.703 12.3442C144.692 12.4009 144.693 12.4594 144.706 12.5156C144.719 12.5719 144.744 12.6247 144.78 12.6702C144.857 12.767 144.966 12.8339 145.087 12.8591C145.209 12.8843 145.335 12.8664 145.445 12.8084L158.856 5.06414C158.904 5.03621 158.945 4.99854 158.978 4.95358C159.01 4.90862 159.032 4.85739 159.043 4.80323C159.054 4.74907 159.054 4.69319 159.042 4.63923C159.03 4.58528 159.006 4.53446 158.973 4.4901Z" fill="#263238"/>
<path d="M158.974 4.48912C158.897 4.39352 158.789 4.32752 158.669 4.30233C158.549 4.27714 158.424 4.29431 158.315 4.35093L154.977 6.27502L155.535 7.00321L158.868 5.07911C158.917 5.05047 158.96 5.01146 158.992 4.96477C159.025 4.91807 159.047 4.86482 159.057 4.8087C159.068 4.75258 159.065 4.69493 159.051 4.63974C159.037 4.58456 159.01 4.53316 158.974 4.48912Z" fill="#BA68C8"/>
<path d="M157.86 2.99987C157.783 2.903 157.674 2.83618 157.553 2.81094C157.431 2.78571 157.305 2.80365 157.195 2.86168L143.768 10.5846C143.717 10.6124 143.673 10.6509 143.638 10.6974C143.604 10.744 143.58 10.7974 143.569 10.854C143.557 10.9106 143.558 10.9691 143.571 11.0254C143.584 11.0817 143.61 11.1344 143.645 11.18C143.723 11.2768 143.831 11.3436 143.953 11.3689C144.074 11.3941 144.2 11.3762 144.31 11.3181L157.722 3.57391C157.771 3.54784 157.814 3.51154 157.849 3.46744C157.883 3.42333 157.907 3.37243 157.921 3.31812C157.934 3.26381 157.935 3.20734 157.924 3.15246C157.914 3.09759 157.892 3.04557 157.86 2.99987Z" fill="#263238"/>
<path d="M157.863 3.00085C157.786 2.90398 157.677 2.83715 157.556 2.81192C157.434 2.78669 157.308 2.80463 157.198 2.86265L150.219 6.86499L150.777 7.60912L157.762 3.59083C157.811 3.56174 157.853 3.52239 157.885 3.47548C157.917 3.42857 157.939 3.37523 157.949 3.31914C157.958 3.26305 157.955 3.20554 157.941 3.15059C157.926 3.09564 157.899 3.04455 157.863 3.00085Z" fill="#BA68C8"/>
<path d="M156.758 1.51159C156.681 1.41472 156.572 1.3479 156.451 1.32266C156.33 1.29743 156.203 1.31537 156.094 1.3734L142.666 9.09637C142.615 9.12416 142.571 9.16265 142.537 9.20916C142.503 9.25567 142.479 9.3091 142.467 9.36574C142.455 9.42237 142.456 9.48085 142.47 9.53713C142.483 9.59342 142.508 9.64615 142.544 9.69167C142.621 9.78854 142.73 9.85537 142.851 9.8806C142.972 9.90583 143.099 9.88789 143.208 9.82987L156.62 2.08563C156.67 2.05956 156.713 2.02326 156.747 1.97916C156.781 1.93505 156.806 1.88415 156.819 1.82984C156.832 1.77553 156.833 1.71906 156.823 1.66418C156.812 1.60931 156.79 1.55729 156.758 1.51159Z" fill="#263238"/>
<path d="M156.756 1.51159C156.678 1.41472 156.57 1.3479 156.448 1.32266C156.327 1.29743 156.201 1.31537 156.091 1.3734L143.896 8.38413L144.455 9.12826L156.628 2.10158C156.679 2.07483 156.723 2.03722 156.758 1.9914C156.793 1.94558 156.818 1.89267 156.83 1.83641C156.842 1.78014 156.842 1.72189 156.829 1.66576C156.816 1.60964 156.791 1.55701 156.756 1.51159Z" fill="#BA68C8"/>
<path d="M130.729 100.73C130.77 100.716 130.814 100.712 130.856 100.719C130.899 100.725 130.939 100.742 130.974 100.768C131.082 100.839 131.172 100.935 131.237 101.048C131.301 101.16 131.339 101.286 131.346 101.416C131.349 101.457 131.343 101.499 131.328 101.537C131.314 101.576 131.291 101.611 131.261 101.639L131.218 101.666L115.239 110.888L114.176 110.282L130.729 100.73Z" fill="#455A64"/>
<path d="M132.888 101.979C132.928 101.964 132.971 101.959 133.014 101.964C133.056 101.97 133.097 101.986 133.132 102.011C133.241 102.082 133.332 102.178 133.398 102.29C133.463 102.403 133.502 102.529 133.509 102.659C133.513 102.702 133.507 102.744 133.491 102.784C133.475 102.824 133.451 102.859 133.419 102.888L133.377 102.914L117.397 112.136L116.334 111.53L132.888 101.979Z" fill="#455A64"/>
<path d="M135.044 103.223C135.084 103.209 135.128 103.205 135.171 103.211C135.213 103.218 135.254 103.234 135.288 103.26C135.397 103.33 135.487 103.425 135.552 103.537C135.616 103.649 135.654 103.774 135.66 103.903C135.664 103.945 135.658 103.987 135.643 104.027C135.629 104.066 135.605 104.102 135.575 104.131L135.528 104.158L119.553 113.38L118.49 112.774L135.044 103.223Z" fill="#455A64"/>
<path d="M137.204 104.466C137.246 104.453 137.29 104.45 137.334 104.456C137.377 104.463 137.418 104.479 137.454 104.503C137.563 104.575 137.652 104.671 137.717 104.784C137.782 104.896 137.819 105.022 137.826 105.152C137.83 105.193 137.825 105.235 137.81 105.273C137.795 105.312 137.772 105.347 137.741 105.375L137.699 105.402L121.719 114.623L120.656 114.017L137.204 104.466Z" fill="#455A64"/>
<path d="M27.9512 156.759C28.0045 157.491 28.2297 158.2 28.6083 158.829C28.987 159.458 29.5085 159.989 30.1307 160.379L91.2629 195.655C91.9391 195.999 92.6867 196.178 93.4451 196.178C94.2034 196.178 94.951 195.999 95.6272 195.655L179.235 147.388C179.894 147.04 180.445 146.518 180.829 145.88C181.214 145.242 181.417 144.511 181.417 143.766C181.417 143.021 181.214 142.29 180.829 141.652C180.445 141.013 179.894 140.492 179.235 140.144L118.124 104.867C117.448 104.526 116.701 104.349 115.944 104.349C115.187 104.349 114.441 104.526 113.765 104.867L30.1519 153.134C29.5252 153.522 28.999 154.052 28.6165 154.682C28.2341 155.312 28.0061 156.024 27.9512 156.759Z" fill="#BA68C8"/>
<path opacity="0.7" d="M93.438 191.456V196.176C92.6764 196.187 91.9246 196.004 91.2532 195.644L30.1476 160.378C29.5067 160.042 28.9665 159.543 28.5823 158.93C28.1981 158.317 27.9837 157.613 27.961 156.89C27.9383 156.167 28.1081 155.451 28.4531 154.815C28.798 154.179 29.3058 153.647 29.9243 153.271C28.9462 153.973 29.0206 154.999 30.1476 155.647L91.2798 190.924C91.9423 191.282 92.6851 191.465 93.438 191.456Z" fill="black"/>
<path d="M25.9236 153.216C25.3127 152.801 24.8088 152.248 24.4531 151.601C24.0973 150.954 23.8999 150.233 23.877 149.495V76.6024C23.9184 75.8464 24.1373 75.1108 24.5159 74.4552C24.8946 73.7996 25.4223 73.2423 26.0565 72.8286L109.669 24.5613C110.3 24.1659 111.027 23.9498 111.771 23.9362C112.516 23.9226 113.25 24.1121 113.895 24.4842C114.54 24.8564 115.071 25.3971 115.432 26.0484C115.792 26.6997 115.969 27.437 115.942 28.181V101.095C115.902 101.851 115.683 102.587 115.304 103.243C114.926 103.898 114.397 104.455 113.763 104.869L30.1497 153.136C29.5012 153.481 28.7805 153.668 28.0461 153.681C27.3118 153.695 26.5846 153.536 25.9236 153.216Z" fill="#BA68C8"/>
<path opacity="0.7" d="M29.8892 153.273C29.2643 153.554 28.5856 153.695 27.9005 153.686C27.2154 153.677 26.5406 153.518 25.9236 153.22C25.313 152.805 24.8094 152.252 24.4537 151.605C24.098 150.959 23.9003 150.237 23.877 149.499V76.6017C23.9065 75.8505 24.126 75.119 24.5149 74.4756L28.6081 76.8355C28.2175 77.4785 27.9962 78.21 27.9648 78.9616V151.881C27.9489 153.167 28.8101 153.746 29.8892 153.273Z" fill="black"/>
<path opacity="0.5" d="M27.9512 78.9659V151.88C27.9512 153.267 28.924 153.83 30.1307 153.134L113.744 104.867C114.378 104.454 114.907 103.897 115.285 103.241C115.664 102.585 115.883 101.849 115.923 101.093V28.1792C115.923 26.7867 114.945 26.2233 113.744 26.9195L30.1519 75.1868C29.5129 75.5983 28.9803 76.1553 28.5978 76.8121C28.2153 77.469 27.9937 78.207 27.9512 78.9659Z" fill="black"/>
<path d="M30.1511 155.654L91.2834 190.931C91.9596 191.274 92.7072 191.453 93.4655 191.453C94.2238 191.453 94.9715 191.274 95.6477 190.931L179.229 142.643C180.435 141.946 180.435 140.82 179.229 140.123L118.123 104.868C117.447 104.527 116.701 104.35 115.944 104.35C115.187 104.35 114.44 104.527 113.764 104.868L30.1511 153.135C28.9444 153.831 28.9444 154.958 30.1511 155.654Z" fill="#BA68C8"/>
<path opacity="0.3" d="M30.1511 155.654L91.2834 190.931C91.9596 191.274 92.7072 191.453 93.4655 191.453C94.2238 191.453 94.9715 191.274 95.6477 190.931L179.229 142.643C180.435 141.946 180.435 140.82 179.229 140.123L118.123 104.868C117.447 104.527 116.701 104.35 115.944 104.35C115.187 104.35 114.44 104.527 113.764 104.868L30.1511 153.135C28.9444 153.831 28.9444 154.958 30.1511 155.654Z" fill="black"/>
<path d="M31.3247 79.2327L111.94 32.7088C112.663 32.2943 113.247 32.6344 113.247 33.4689V96.5868C113.222 97.0404 113.091 97.4818 112.864 97.8752C112.637 98.2686 112.32 98.6029 111.94 98.8511L31.3247 145.375C30.6018 145.79 30.0117 145.455 30.0117 144.62V81.5182C30.035 81.0608 30.1661 80.6153 30.3943 80.2182C30.6225 79.821 30.9413 79.4833 31.3247 79.2327Z" fill="#FAFAFA"/>
<path d="M84.5104 69.3859L83.9788 83.9601C83.9788 89.961 80.2099 100.799 72.4541 108.809C71.8977 109.341 71.1937 109.693 70.4341 109.819C70.0407 109.856 69.6633 109.872 69.2912 109.872C67.6323 109.896 65.9965 109.482 64.5494 108.67L64.5016 108.644L64.4112 108.585C60.9612 106.502 59.2602 102.25 59.2602 98.242L58.7286 84.3109C58.7252 83.9347 58.8659 83.5714 59.122 83.2957C59.3123 83.0696 59.55 82.8882 59.8183 82.7642C63.3693 81.1696 68.6905 74.903 71.1889 68.7002C71.3697 68.2591 71.6355 68.1155 71.9331 68.2537L71.9757 68.2803C72.0774 68.3376 72.169 68.4112 72.2468 68.4982L72.2946 68.5567C74.9525 71.6395 80.1568 71.6342 83.6333 68.9766C83.8991 68.7746 84.1171 68.7108 84.2659 68.7746C84.4466 68.8809 84.5211 69.0723 84.5104 69.3859Z" fill="#BA68C8"/>
<path opacity="0.2" d="M71.6265 68.2305C71.5262 68.2724 71.4365 68.3362 71.3638 68.4171C71.2912 68.498 71.2375 68.594 71.2065 68.6982C68.7081 74.901 63.3869 81.1889 59.8359 82.7622C59.5676 82.8862 59.3298 83.0676 59.1395 83.2937C58.8835 83.5694 58.7427 83.9327 58.7462 84.3089L59.2777 98.24C59.2777 102.264 60.9788 106.516 64.4447 108.583L64.5351 108.642L64.583 108.668C66.03 109.48 67.6658 109.894 69.3247 109.87C69.6968 109.87 70.0742 109.87 70.4676 109.817C70.8832 109.758 71.2838 109.621 71.6477 109.413L71.6265 68.2305Z" fill="black"/>
<path opacity="0.3" d="M37.2404 153.767L114.852 108.965C115.19 108.795 115.563 108.706 115.942 108.706C116.32 108.706 116.693 108.795 117.031 108.965L121.002 111.256C121.134 111.301 121.249 111.385 121.33 111.498C121.412 111.611 121.455 111.747 121.455 111.886C121.455 112.025 121.412 112.161 121.33 112.274C121.249 112.387 121.134 112.472 121.002 112.516L43.3643 157.312C43.0263 157.483 42.6531 157.572 42.2745 157.572C41.896 157.572 41.5227 157.483 41.1848 157.312L37.2245 155.027C37.093 154.981 36.9794 154.895 36.8995 154.781C36.8196 154.667 36.7776 154.531 36.7794 154.391C36.7811 154.252 36.8266 154.117 36.9093 154.005C36.992 153.893 37.1079 153.81 37.2404 153.767Z" fill="black"/>
<path opacity="0.3" d="M47.4736 159.652L125.085 114.85C125.422 114.677 125.796 114.587 126.175 114.587C126.554 114.587 126.927 114.677 127.264 114.85L151.68 128.946C151.812 128.99 151.927 129.075 152.008 129.188C152.089 129.301 152.133 129.437 152.133 129.576C152.133 129.715 152.089 129.851 152.008 129.964C151.927 130.077 151.812 130.161 151.68 130.206L74.1591 174.965C73.8201 175.135 73.446 175.224 73.0667 175.224C72.6874 175.224 72.3133 175.135 71.9743 174.965L47.4736 160.928C47.3324 160.891 47.2073 160.808 47.1181 160.693C47.0289 160.577 46.9805 160.436 46.9805 160.29C46.9805 160.144 47.0289 160.002 47.1181 159.887C47.2073 159.771 47.3324 159.689 47.4736 159.652Z" fill="black"/>
<path d="M117.04 135.027L119.469 133.623C119.57 133.565 119.565 133.464 119.469 133.4L116.663 131.779C116.602 131.749 116.536 131.733 116.469 131.733C116.401 131.733 116.335 131.749 116.275 131.779L113.845 133.182C113.739 133.246 113.744 133.342 113.845 133.405L116.657 135.032C116.717 135.06 116.783 135.074 116.849 135.073C116.916 135.073 116.981 135.057 117.04 135.027ZM112.256 129.456L109.811 130.854C109.704 130.918 109.71 131.014 109.811 131.083L112.623 132.704C112.683 132.734 112.749 132.749 112.817 132.749C112.884 132.749 112.95 132.734 113.011 132.704L115.44 131.301C115.541 131.242 115.536 131.141 115.44 131.077L112.633 129.456C112.573 129.425 112.507 129.409 112.439 129.409C112.372 129.409 112.305 129.425 112.245 129.456H112.256ZM104.404 133.985L100.29 136.361C100.189 136.419 100.194 136.52 100.29 136.584L103.102 138.178C103.161 138.208 103.227 138.224 103.293 138.224C103.36 138.224 103.425 138.208 103.485 138.178L107.599 135.803C107.7 135.744 107.695 135.643 107.599 135.579L104.792 133.985C104.731 133.953 104.662 133.937 104.593 133.937C104.524 133.937 104.455 133.953 104.394 133.985H104.404ZM108.694 131.481L106.26 132.885C106.159 132.943 106.164 133.044 106.26 133.108L109.072 134.702C109.132 134.732 109.198 134.748 109.266 134.748C109.333 134.748 109.399 134.732 109.46 134.702L111.889 133.299C111.99 133.241 111.985 133.14 111.889 133.076L109.082 131.455C109.02 131.429 108.952 131.418 108.885 131.422C108.818 131.427 108.752 131.447 108.694 131.481ZM99.1789 137.009L96.7283 138.391C96.6273 138.455 96.6326 138.556 96.7283 138.62L99.5351 140.241C99.5953 140.271 99.6618 140.286 99.7291 140.286C99.7964 140.286 99.8628 140.271 99.9231 140.241L102.352 138.838C102.459 138.779 102.453 138.678 102.352 138.614L99.5404 137.02C99.4847 136.991 99.4234 136.975 99.3608 136.974C99.2983 136.972 99.2361 136.984 99.1789 137.009ZM95.6279 139.055L93.1986 140.459C93.0976 140.517 93.1029 140.618 93.1986 140.682L96.0053 142.303C96.0652 142.334 96.1318 142.351 96.1994 142.351C96.2669 142.351 96.3335 142.334 96.3934 142.303L98.8227 140.9C98.929 140.841 98.9237 140.74 98.8227 140.677L95.9894 139.066C95.9306 139.035 95.8656 139.018 95.7992 139.017C95.7329 139.015 95.667 139.028 95.6066 139.055H95.6279ZM106.68 145.652L109.114 144.248C109.215 144.19 109.21 144.089 109.114 144.025L106.302 142.404C106.242 142.373 106.176 142.357 106.108 142.357C106.041 142.357 105.974 142.373 105.914 142.404L103.432 143.802C103.331 143.86 103.336 143.961 103.432 144.025L106.238 145.62C106.3 145.66 106.371 145.684 106.444 145.69C106.518 145.695 106.591 145.682 106.658 145.652H106.68ZM103.129 147.703L105.558 146.3C105.664 146.242 105.659 146.141 105.558 146.077L102.746 144.482C102.686 144.452 102.619 144.437 102.552 144.437C102.484 144.437 102.418 144.452 102.358 144.482L99.8965 145.832C99.7955 145.891 99.8008 145.992 99.8965 146.056L102.703 147.682C102.764 147.718 102.832 147.739 102.903 147.742C102.973 147.746 103.043 147.733 103.107 147.703H103.129ZM99.5776 149.755L102.007 148.352C102.113 148.293 102.108 148.192 102.007 148.129L99.1789 146.507C99.119 146.476 99.0524 146.46 98.9849 146.46C98.9173 146.46 98.8507 146.476 98.7908 146.507L96.3615 147.911C96.2605 147.969 96.2658 148.07 96.3615 148.134L99.1683 149.755C99.2285 149.785 99.295 149.801 99.3623 149.801C99.4296 149.801 99.496 149.785 99.5563 149.755H99.5776ZM95.9894 151.801L98.4187 150.403C98.525 150.34 98.5144 150.239 98.4187 150.175L95.6066 148.554C95.5464 148.524 95.4799 148.508 95.4126 148.508C95.3453 148.508 95.2789 148.524 95.2186 148.554L92.7999 149.952C92.6989 150.01 92.7042 150.111 92.7999 150.175L95.6066 151.796C95.6655 151.827 95.7308 151.844 95.7974 151.845C95.8639 151.846 95.9297 151.831 95.9894 151.801ZM113.473 137.078L115.903 135.675C116.004 135.617 115.998 135.516 115.903 135.452L113.096 133.831C113.035 133.801 112.969 133.785 112.902 133.785C112.834 133.785 112.768 133.801 112.708 133.831L110.278 135.202C110.172 135.26 110.177 135.361 110.278 135.425L113.09 137.046C113.15 137.083 113.217 137.105 113.286 137.111C113.355 137.116 113.425 137.105 113.489 137.078H113.473ZM110.193 143.605L115.615 140.475C115.722 140.416 115.711 140.315 115.615 140.251L108.79 136.313C108.73 136.283 108.663 136.267 108.596 136.267C108.529 136.267 108.462 136.283 108.402 136.313L105.6 137.934C105.494 137.992 105.499 138.093 105.6 138.157L109.215 140.241C109.327 140.305 109.332 140.406 109.215 140.464L106.972 141.761C106.871 141.819 106.876 141.92 106.972 141.984L109.784 143.605C109.849 143.643 109.922 143.662 109.997 143.662C110.071 143.662 110.145 143.643 110.209 143.605H110.193ZM92.0397 141.107L89.6104 142.51C89.5094 142.569 89.5147 142.67 89.6104 142.734L92.4171 144.355C92.4774 144.385 92.5438 144.4 92.6112 144.4C92.6785 144.4 92.7449 144.385 92.8052 144.355L95.2345 142.952C95.3408 142.893 95.3355 142.792 95.2345 142.728L92.4224 141.107C92.3653 141.079 92.3026 141.065 92.2391 141.065C92.1755 141.065 92.1128 141.079 92.0557 141.107H92.0397ZM88.5047 143.175L86.0753 144.578C85.9743 144.636 85.9796 144.737 86.0753 144.801L88.8821 146.422C88.942 146.454 89.0086 146.47 89.0761 146.47C89.1437 146.47 89.2102 146.454 89.2702 146.422L91.6995 145.024C91.8058 144.961 91.7952 144.86 91.6995 144.796L88.8874 143.201C88.8299 143.168 88.7655 143.148 88.6991 143.144C88.6328 143.139 88.5663 143.15 88.5047 143.175ZM70.7604 166.163C70.8203 166.194 70.8868 166.21 70.9544 166.21C71.022 166.21 71.0885 166.194 71.1484 166.163L73.5778 164.765C73.6788 164.701 73.6735 164.6 73.5778 164.537L70.7657 162.915C70.7065 162.885 70.6409 162.869 70.5743 162.869C70.5078 162.869 70.4422 162.885 70.3829 162.915L67.9483 164.319C67.8473 164.377 67.8526 164.478 67.9483 164.542L70.7604 166.163ZM60.0915 159.577L57.6621 160.975C57.5611 161.039 57.5664 161.135 57.6621 161.204L60.4689 162.825C60.5292 162.855 60.5956 162.871 60.6629 162.871C60.7302 162.871 60.7967 162.855 60.8569 162.825L63.2863 161.422C63.3926 161.363 63.3873 161.262 63.2863 161.199L60.4742 159.577C60.4162 159.545 60.3513 159.526 60.2848 159.523C60.2182 159.521 60.152 159.534 60.0915 159.561V159.577ZM65.8113 164.388C65.8716 164.418 65.938 164.433 66.0053 164.433C66.0727 164.433 66.1391 164.418 66.1994 164.388L68.6287 162.984C68.7297 162.926 68.7244 162.825 68.6287 162.761L65.8219 161.14C65.7617 161.11 65.6952 161.095 65.6279 161.095C65.5606 161.095 65.4942 161.11 65.4339 161.14L63.0045 162.543C62.8982 162.607 62.9035 162.703 63.0045 162.767L65.8113 164.388ZM77.0278 167.407L79.4571 166.009C79.5634 165.945 79.5581 165.844 79.4571 165.78L76.645 164.159C76.5847 164.129 76.5183 164.114 76.451 164.114C76.3837 164.114 76.3172 164.129 76.257 164.159L73.8276 165.562C73.7266 165.621 73.7319 165.722 73.8276 165.786L76.6344 167.407C76.6963 167.436 76.7645 167.45 76.8331 167.448C76.9016 167.445 76.9685 167.425 77.0278 167.391V167.407ZM73.0887 169.453C73.149 169.483 73.2154 169.499 73.2827 169.499C73.3501 169.499 73.4165 169.483 73.4768 169.453L75.9061 168.05C76.0124 167.991 76.0018 167.89 75.9061 167.827L73.094 166.205C73.0337 166.176 72.9673 166.16 72.9 166.16C72.8327 166.16 72.7663 166.176 72.706 166.205L70.2766 167.609C70.1756 167.672 70.1809 167.768 70.2766 167.832L73.0887 169.453ZM63.6424 157.526L61.2131 158.929C61.1121 158.987 61.1174 159.088 61.2131 159.152L64.0252 160.773C64.0842 160.805 64.1499 160.821 64.2166 160.821C64.2833 160.821 64.349 160.805 64.4079 160.773L66.8426 159.375C66.9436 159.312 66.9383 159.216 66.8426 159.147L64.0305 157.552C63.9723 157.518 63.907 157.498 63.8396 157.493C63.7723 157.489 63.7048 157.5 63.6424 157.526ZM81.4027 147.273L78.9787 148.66C78.8724 148.719 78.883 148.819 78.9787 148.883L81.7908 150.504C81.851 150.534 81.9175 150.55 81.9848 150.55C82.0521 150.55 82.1185 150.534 82.1788 150.504L84.6081 149.101C84.7092 149.043 84.7038 148.942 84.6081 148.878L81.8014 147.257C81.7397 147.225 81.6714 147.209 81.602 147.209C81.5327 147.209 81.4644 147.225 81.4027 147.257V147.273ZM67.1988 155.474L64.7641 156.877C64.6631 156.936 64.6684 157.037 64.7641 157.101L67.5762 158.722C67.6365 158.752 67.7029 158.767 67.7702 158.767C67.8375 158.767 67.9039 158.752 67.9642 158.722L70.3936 157.318C70.4946 157.26 70.4893 157.159 70.3936 157.095L67.5815 155.474C67.5234 155.442 67.4585 155.423 67.392 155.421C67.3255 155.418 67.2593 155.431 67.1988 155.458V155.474ZM84.9537 145.221L82.5243 146.624C82.418 146.688 82.4287 146.784 82.5243 146.848L85.3364 148.474C85.3967 148.504 85.4631 148.52 85.5304 148.52C85.5978 148.52 85.6642 148.504 85.7245 148.474L88.1538 147.071C88.2601 147.012 88.2495 146.911 88.1538 146.848L85.3577 145.216C85.2962 145.182 85.2273 145.163 85.157 145.161C85.0866 145.159 85.0169 145.174 84.9537 145.205V145.221ZM77.8517 149.324L75.4224 150.728C75.3161 150.786 75.3214 150.887 75.4224 150.951L78.2345 152.545C78.2947 152.575 78.3612 152.591 78.4285 152.591C78.4958 152.591 78.5622 152.575 78.6225 152.545L81.0518 151.142C81.1528 151.078 81.1475 150.983 81.0518 150.919L78.2451 149.293C78.1829 149.264 78.1148 149.251 78.0465 149.254C77.9782 149.256 77.9114 149.275 77.8517 149.308V149.324ZM74.3007 151.376L71.8714 152.742C71.7651 152.801 71.7704 152.902 71.8714 152.965L74.6835 154.586C74.7434 154.618 74.8099 154.634 74.8775 154.634C74.9451 154.634 75.0116 154.618 75.0715 154.586L77.5009 153.183C77.6019 153.125 77.5966 153.024 77.5009 152.96L74.6941 151.365C74.6339 151.333 74.5666 151.315 74.4981 151.314C74.4295 151.313 74.3617 151.329 74.3007 151.36V151.376ZM70.7497 153.422L68.347 154.81C68.2407 154.868 68.246 154.969 68.347 155.033L71.1591 156.659C71.2193 156.689 71.2858 156.705 71.3531 156.705C71.4204 156.705 71.4868 156.689 71.5471 156.659L73.9765 155.256C74.0775 155.198 74.0721 155.097 73.9765 155.033L71.1697 153.412C71.1058 153.376 71.0338 153.356 70.9604 153.355C70.887 153.354 70.8145 153.372 70.7497 153.407V153.422ZM88.9034 155.921L91.3327 154.517C91.4337 154.459 91.4284 154.358 91.3327 154.294L88.5259 152.673C88.4656 152.643 88.3992 152.627 88.3319 152.627C88.2646 152.627 88.1982 152.643 88.1379 152.673L85.7085 154.076C85.6022 154.135 85.6128 154.236 85.7085 154.299L88.5206 155.921C88.5794 155.951 88.6444 155.968 88.7108 155.97C88.7771 155.972 88.843 155.959 88.9034 155.931V155.921ZM120.097 124.938L117.662 126.342C117.561 126.4 117.566 126.501 117.662 126.565L120.474 128.159C120.534 128.189 120.601 128.205 120.668 128.205C120.736 128.205 120.802 128.189 120.862 128.159L123.292 126.756C123.393 126.692 123.387 126.597 123.292 126.533L120.479 124.906C120.419 124.879 120.353 124.865 120.286 124.868C120.22 124.871 120.155 124.89 120.097 124.922V124.938ZM115.796 127.421L113.367 128.824C113.261 128.882 113.266 128.983 113.367 129.047L116.179 130.668C116.239 130.699 116.305 130.716 116.373 130.716C116.441 130.716 116.507 130.699 116.567 130.668L118.996 129.27C119.097 129.206 119.092 129.105 118.996 129.042L116.19 127.41C116.129 127.378 116.062 127.361 115.994 127.36C115.925 127.359 115.858 127.375 115.796 127.405V127.421ZM123.632 122.871L121.202 124.274C121.096 124.332 121.101 124.433 121.202 124.497L124.015 126.118C124.075 126.148 124.141 126.164 124.209 126.164C124.276 126.164 124.342 126.148 124.403 126.118L126.832 124.715C126.933 124.657 126.928 124.556 126.832 124.492L124.025 122.871C123.964 122.84 123.897 122.824 123.828 122.824C123.76 122.824 123.693 122.84 123.632 122.871ZM105.25 141.825L107.679 140.421C107.78 140.363 107.775 140.262 107.679 140.198L104.872 138.604C104.812 138.574 104.745 138.558 104.678 138.558C104.611 138.558 104.544 138.574 104.484 138.604L102.049 139.986C101.948 140.049 101.954 140.145 102.049 140.209L104.862 141.835C104.925 141.866 104.994 141.882 105.065 141.88C105.135 141.878 105.204 141.859 105.266 141.825H105.25ZM127.576 120.83C127.516 120.8 127.449 120.784 127.382 120.784C127.315 120.784 127.248 120.8 127.188 120.83L124.759 122.233C124.652 122.297 124.658 122.392 124.759 122.456L127.571 124.083C127.631 124.113 127.698 124.128 127.765 124.128C127.832 124.128 127.899 124.113 127.959 124.083L130.388 122.679C130.489 122.621 130.484 122.52 130.388 122.456L127.576 120.83ZM92.4437 153.853L94.873 152.45C94.9794 152.391 94.9687 152.29 94.873 152.227L92.061 150.632C92.0007 150.602 91.9343 150.586 91.8669 150.586C91.7996 150.586 91.7332 150.602 91.6729 150.632L89.2436 152.035C89.1373 152.099 89.1479 152.195 89.2436 152.258L92.0503 153.885C92.1152 153.913 92.1859 153.924 92.2563 153.919C92.3266 153.913 92.3946 153.891 92.4543 153.853H92.4437ZM135.996 128.712L138.426 127.309C138.527 127.25 138.521 127.149 138.426 127.086L135.619 125.465C135.559 125.435 135.492 125.419 135.425 125.419C135.358 125.419 135.291 125.435 135.231 125.465L132.802 126.868C132.695 126.926 132.706 127.027 132.802 127.091L135.614 128.686C135.672 128.722 135.738 128.743 135.807 128.748C135.876 128.753 135.944 128.74 136.007 128.712H135.996ZM128.432 128.446L130.861 127.043C130.962 126.985 130.957 126.884 130.861 126.82L128.055 125.199C127.994 125.169 127.928 125.153 127.861 125.153C127.793 125.153 127.727 125.169 127.667 125.199L125.227 126.591C125.12 126.65 125.126 126.751 125.227 126.815L128.039 128.409C128.098 128.448 128.166 128.471 128.236 128.478C128.306 128.484 128.377 128.473 128.443 128.446H128.432ZM131.59 123.131C131.529 123.101 131.463 123.086 131.396 123.086C131.328 123.086 131.262 123.101 131.202 123.131L128.772 124.534C128.666 124.598 128.671 124.694 128.772 124.758L131.584 126.384C131.645 126.414 131.711 126.43 131.778 126.43C131.846 126.43 131.912 126.414 131.972 126.384L134.402 124.981C134.503 124.922 134.497 124.821 134.402 124.758L131.59 123.131ZM132.334 122.701L139.159 126.639C139.219 126.67 139.286 126.687 139.353 126.687C139.421 126.687 139.488 126.67 139.547 126.639L141.977 125.236C142.083 125.178 142.072 125.077 141.977 125.013L135.151 121.074C135.091 121.043 135.025 121.027 134.957 121.027C134.89 121.027 134.823 121.043 134.763 121.074L132.334 122.477C132.228 122.552 132.238 122.653 132.344 122.717L132.334 122.701ZM124.11 127.229L121.681 128.632C121.575 128.691 121.58 128.792 121.681 128.856L124.493 130.477C124.553 130.508 124.619 130.524 124.687 130.524C124.755 130.524 124.821 130.508 124.881 130.477L127.31 129.079C127.411 129.015 127.406 128.919 127.31 128.85L124.498 127.229C124.438 127.199 124.372 127.184 124.304 127.184C124.237 127.184 124.17 127.199 124.11 127.229ZM97.3768 142.643L94.9262 144.073C94.8252 144.131 94.8305 144.232 94.9262 144.296L97.733 145.917C97.7933 145.947 97.8597 145.963 97.927 145.963C97.9943 145.963 98.0607 145.947 98.121 145.917L100.55 144.514C100.657 144.45 100.651 144.355 100.55 144.291L97.7383 142.665C97.6812 142.639 97.6193 142.627 97.557 142.628C97.4946 142.629 97.4332 142.643 97.3768 142.67V142.643ZM132.068 130.727C132.128 130.757 132.195 130.772 132.262 130.772C132.329 130.772 132.396 130.757 132.456 130.727L134.885 129.323C134.986 129.265 134.981 129.164 134.885 129.1L132.079 127.506C132.019 127.474 131.952 127.458 131.885 127.458C131.817 127.458 131.751 127.474 131.691 127.506L129.261 128.909C129.155 128.967 129.16 129.068 129.261 129.132L132.068 130.727ZM100.928 140.592L98.4985 141.995C98.3975 142.053 98.4028 142.154 98.4985 142.218L101.305 143.866C101.365 143.896 101.43 143.911 101.497 143.911C101.563 143.911 101.629 143.896 101.688 143.866L104.123 142.463C104.224 142.404 104.218 142.303 104.123 142.239L101.305 140.629C101.247 140.599 101.183 140.582 101.118 140.58C101.052 140.579 100.987 140.592 100.928 140.618V140.592ZM74.3114 164.069C74.3716 164.099 74.4381 164.114 74.5054 164.114C74.5727 164.114 74.6391 164.099 74.6994 164.069L77.1288 162.666C77.2298 162.607 77.2244 162.506 77.1288 162.442L74.322 160.821C74.2617 160.791 74.1953 160.776 74.128 160.776C74.0606 160.776 73.9942 160.791 73.9339 160.821L71.5046 162.224C71.3983 162.283 71.4036 162.384 71.5046 162.448L74.3114 164.069ZM68.9689 159.046L66.5396 160.449C66.4333 160.508 66.4386 160.609 66.5396 160.672L69.3517 162.267C69.4116 162.298 69.4781 162.314 69.5457 162.314C69.6133 162.314 69.6798 162.298 69.7397 162.267L72.1691 160.864C72.2701 160.805 72.2648 160.704 72.1691 160.64L69.3623 159.019C69.2974 158.995 69.2276 158.987 69.1589 158.997C69.0903 159.006 69.025 159.032 68.9689 159.072V159.046ZM78.2504 162.028L80.6797 160.625C80.7807 160.566 80.7754 160.465 80.6797 160.401L77.873 158.807C77.8127 158.777 77.7463 158.761 77.6789 158.761C77.6116 158.761 77.5452 158.777 77.4849 158.807L75.0396 160.183C74.9333 160.242 74.9386 160.343 75.0396 160.407L77.8517 162.033C77.9117 162.068 77.9791 162.088 78.0485 162.092C78.1178 162.096 78.1871 162.083 78.2504 162.054V162.028ZM81.8014 159.976L84.2307 158.573C84.3317 158.514 84.3264 158.413 84.2307 158.35L81.424 156.728C81.3641 156.697 81.2975 156.681 81.2299 156.681C81.1624 156.681 81.0958 156.697 81.0359 156.728L78.6066 158.132C78.5002 158.19 78.5056 158.291 78.6066 158.355L81.4186 159.95C81.4735 159.988 81.5369 160.013 81.6035 160.023C81.6701 160.032 81.738 160.025 81.8014 160.003V159.976ZM85.3524 157.93L87.7817 156.527C87.8827 156.463 87.8774 156.367 87.7817 156.303L84.9749 154.677C84.9147 154.647 84.8482 154.631 84.7809 154.631C84.7136 154.631 84.6472 154.647 84.5869 154.677L82.1682 156.101C82.0619 156.16 82.0672 156.261 82.1682 156.325L84.9803 157.946C85.0383 157.976 85.1024 157.992 85.1678 157.994C85.2331 157.996 85.298 157.983 85.3577 157.956L85.3524 157.93ZM72.5199 156.994L70.0906 158.397C69.9843 158.456 69.9896 158.557 70.0906 158.621L72.9027 160.242C72.963 160.272 73.0294 160.287 73.0967 160.287C73.164 160.287 73.2304 160.272 73.2907 160.242L75.7201 158.839C75.8211 158.775 75.8157 158.679 75.7201 158.615L72.9133 156.989C72.8498 156.963 72.7811 156.952 72.7128 156.958C72.6444 156.963 72.5784 156.985 72.5199 157.021V156.994ZM76.0709 154.943L73.6628 156.372C73.5565 156.431 73.5618 156.532 73.6628 156.596L76.4749 158.217C76.5352 158.247 76.6016 158.262 76.6689 158.262C76.7363 158.262 76.8027 158.247 76.863 158.217L79.2923 156.814C79.3933 156.755 79.388 156.654 79.2923 156.59L76.4855 154.969C76.4219 154.935 76.3506 154.917 76.2782 154.917C76.2058 154.917 76.1346 154.935 76.0709 154.969V154.943ZM90.2748 146.741L87.8455 148.144C87.7445 148.203 87.7498 148.304 87.8455 148.368L90.6523 149.989C90.7122 150.02 90.7787 150.036 90.8463 150.036C90.9139 150.036 90.9804 150.02 91.0403 149.989L93.4697 148.586C93.576 148.527 93.5707 148.426 93.4697 148.362L90.6735 146.778C90.6127 146.745 90.5448 146.727 90.4755 146.725C90.4061 146.723 90.3374 146.738 90.2748 146.768V146.741ZM86.7239 148.793L84.2945 150.223C84.1935 150.281 84.1988 150.382 84.2945 150.446L87.1013 152.067C87.1616 152.097 87.228 152.113 87.2953 152.113C87.3626 152.113 87.429 152.097 87.4893 152.067L89.9187 150.664C90.025 150.605 90.0197 150.504 89.9187 150.441L87.1066 148.819C87.0474 148.789 86.9818 148.773 86.9152 148.773C86.8487 148.773 86.7831 148.789 86.7239 148.819V148.793ZM93.8258 144.695L91.3965 146.093C91.2955 146.157 91.3008 146.258 91.3965 146.321L94.2033 147.916C94.2635 147.946 94.33 147.961 94.3973 147.961C94.4646 147.961 94.531 147.946 94.5913 147.916L97.0207 146.513C97.127 146.454 97.1217 146.353 97.0207 146.289L94.2086 144.668C94.1452 144.646 94.0773 144.639 94.0107 144.648C93.9441 144.658 93.8807 144.683 93.8258 144.721V144.695ZM79.6219 152.891L77.1925 154.337C77.0862 154.4 77.0969 154.496 77.1925 154.56L80.0046 156.186C80.0649 156.216 80.1313 156.232 80.1987 156.232C80.266 156.232 80.3324 156.216 80.3927 156.186L82.822 154.783C82.923 154.725 82.9177 154.624 82.822 154.56L80.0153 152.965C79.9581 152.927 79.8927 152.902 79.8243 152.894C79.756 152.886 79.6866 152.894 79.6219 152.917V152.891ZM83.1729 150.845L80.7435 152.248C80.6425 152.306 80.6479 152.407 80.7435 152.471L83.5503 154.066C83.6102 154.097 83.6768 154.113 83.7443 154.113C83.8119 154.113 83.8784 154.097 83.9384 154.066L86.3677 152.668C86.474 152.604 86.4634 152.503 86.3677 152.439L83.5556 150.818C83.492 150.797 83.4244 150.791 83.358 150.8C83.2916 150.809 83.2283 150.833 83.1729 150.871V150.845ZM80.5734 165.344L83.0028 163.941C83.1091 163.883 83.1038 163.782 83.0028 163.718L80.1907 162.123C80.1308 162.092 80.0642 162.076 79.9967 162.076C79.9291 162.076 79.8625 162.092 79.8026 162.123L77.3839 163.489C77.2829 163.548 77.2882 163.649 77.3839 163.713L80.1907 165.334C80.2495 165.365 80.3145 165.382 80.3808 165.383C80.4472 165.385 80.513 165.372 80.5734 165.344ZM59.7353 163.218L56.9232 161.597C56.8629 161.567 56.7965 161.552 56.7292 161.552C56.6619 161.552 56.5955 161.567 56.5352 161.597L54.1058 163C54.0048 163.059 54.0101 163.16 54.1058 163.224L56.9126 164.845C56.9729 164.875 57.0393 164.89 57.1066 164.89C57.1739 164.89 57.2404 164.875 57.3006 164.845L59.73 163.442C59.8416 163.404 59.8416 163.303 59.7406 163.24L59.7353 163.218ZM65.0512 164.781L62.2391 163.16C62.1797 163.13 62.1142 163.114 62.0477 163.114C61.9812 163.114 61.9157 163.13 61.8563 163.16L58.1352 165.318C58.0342 165.376 58.0395 165.477 58.1352 165.541L60.942 167.136C61.0023 167.166 61.0687 167.181 61.136 167.181C61.2034 167.181 61.2698 167.166 61.3301 167.136L65.0512 164.978C65.1575 164.967 65.1575 164.866 65.0618 164.802L65.0512 164.781ZM55.4188 160.082L52.6068 158.461C52.5465 158.431 52.4801 158.416 52.4127 158.416C52.3454 158.416 52.279 158.431 52.2187 158.461L49.2418 160.183C49.1355 160.242 49.1408 160.343 49.2418 160.407L52.0539 162.028C52.1142 162.058 52.1806 162.073 52.2479 162.073C52.3153 162.073 52.3817 162.058 52.442 162.028L55.4295 160.3C55.5464 160.268 55.5411 160.183 55.4295 160.104L55.4188 160.082ZM57.71 158.759C57.7699 158.79 57.8364 158.806 57.904 158.806C57.9716 158.806 58.0381 158.79 58.098 158.759L60.5274 157.356C60.6337 157.297 60.623 157.196 60.5274 157.132L57.7153 155.538C57.655 155.508 57.5886 155.492 57.5213 155.492C57.4539 155.492 57.3875 155.508 57.3272 155.538L54.8979 156.941C54.7969 157 54.8022 157.101 54.8979 157.164L57.71 158.759ZM70.0108 166.562L67.1988 164.967C67.1388 164.936 67.0723 164.92 67.0047 164.92C66.9372 164.92 66.8706 164.936 66.8107 164.967L62.1381 167.625C62.0371 167.683 62.0424 167.784 62.1381 167.848L64.9502 169.469C65.0095 169.499 65.0751 169.514 65.1415 169.514C65.208 169.514 65.2735 169.499 65.3329 169.469L70.0108 166.769C70.1278 166.742 70.1225 166.641 70.0108 166.562ZM72.3445 169.852L69.5324 168.231C69.4721 168.201 69.4057 168.185 69.3384 168.185C69.2711 168.185 69.2046 168.201 69.1444 168.231L66.1515 169.958C66.0505 170.016 66.0558 170.117 66.1515 170.181L68.9636 171.802C69.0239 171.832 69.0903 171.848 69.1576 171.848C69.225 171.848 69.2914 171.832 69.3517 171.802L72.3392 170.075C72.4614 170.032 72.4508 169.931 72.3445 169.868V169.852ZM84.1244 143.52C84.1847 143.55 84.2511 143.566 84.3184 143.566C84.3858 143.566 84.4522 143.55 84.5125 143.52L86.9418 142.117C87.0481 142.053 87.0428 141.958 86.9418 141.894L84.1297 140.267C84.0694 140.237 84.003 140.222 83.9357 140.222C83.8684 140.222 83.802 140.237 83.7417 140.267L81.3123 141.671C81.2113 141.729 81.2166 141.83 81.3123 141.894L84.1244 143.52ZM77.0224 147.618C77.0824 147.649 77.1489 147.666 77.2165 147.666C77.284 147.666 77.3506 147.649 77.4105 147.618L79.8398 146.215C79.9462 146.157 79.9408 146.056 79.8398 145.992L77.0278 144.371C76.9675 144.341 76.9011 144.325 76.8337 144.325C76.7664 144.325 76.7 144.341 76.6397 144.371L74.1944 145.79C74.0934 145.848 74.0987 145.949 74.1944 146.013L77.0224 147.618ZM61.2716 156.728C61.3319 156.758 61.3983 156.774 61.4656 156.774C61.5329 156.774 61.5994 156.758 61.6596 156.728L64.089 155.325C64.1953 155.267 64.19 155.166 64.089 155.102L61.2769 153.476C61.2166 153.446 61.1502 153.43 61.0829 153.43C61.0155 153.43 60.9491 153.446 60.8888 153.476L58.4489 154.868C58.3479 154.927 58.3532 155.028 58.4489 155.091L61.2716 156.728ZM80.5734 145.567C80.6337 145.597 80.7001 145.612 80.7675 145.612C80.8348 145.612 80.9012 145.597 80.9615 145.567L83.3908 144.163C83.4971 144.105 83.4918 144.004 83.3908 143.94L80.5734 142.346C80.5135 142.314 80.447 142.298 80.3794 142.298C80.3118 142.298 80.2453 142.314 80.1854 142.346L77.756 143.743C77.655 143.807 77.6603 143.908 77.756 143.972L80.5734 145.567ZM73.4715 149.665C73.5317 149.695 73.5982 149.71 73.6655 149.71C73.7328 149.71 73.7992 149.695 73.8595 149.665L76.2889 148.261C76.3952 148.203 76.3845 148.102 76.2889 148.038L73.4768 146.412C73.4165 146.382 73.3501 146.366 73.2827 146.366C73.2154 146.366 73.149 146.382 73.0887 146.412L70.6594 147.815C70.5584 147.873 70.5637 147.974 70.6594 148.038L73.4715 149.665ZM74.2954 170.107C74.2351 170.077 74.1687 170.061 74.1014 170.061C74.0341 170.061 73.9676 170.077 73.9074 170.107L70.1863 172.265C70.0799 172.323 70.0853 172.424 70.1863 172.488L72.9983 174.109C73.0586 174.139 73.125 174.155 73.1924 174.155C73.2597 174.155 73.3261 174.139 73.3864 174.109L77.1075 171.951C77.2085 171.893 77.2032 171.792 77.1075 171.728L74.2954 170.107ZM68.3736 152.609C68.4338 152.639 68.5003 152.655 68.5676 152.655C68.6349 152.655 68.7013 152.639 68.7616 152.609L71.191 151.206C71.2973 151.148 71.292 151.047 71.191 150.983L68.347 149.388C68.2871 149.357 68.2205 149.341 68.1529 149.341C68.0854 149.341 68.0188 149.357 67.9589 149.388L65.5296 150.786C65.4286 150.85 65.4339 150.946 65.5296 151.015L68.3736 152.609ZM64.8226 154.656C64.8829 154.686 64.9493 154.701 65.0166 154.701C65.0839 154.701 65.1503 154.686 65.2106 154.656L67.64 153.252C67.7463 153.194 67.741 153.093 67.64 153.029L64.8279 151.408C64.7676 151.378 64.7012 151.362 64.6339 151.362C64.5665 151.362 64.5001 151.378 64.4398 151.408L62.0105 152.811C61.9095 152.87 61.9148 152.971 62.0105 153.034L64.8226 154.656ZM140.111 132.146C140.051 132.116 139.984 132.1 139.917 132.1C139.85 132.1 139.783 132.116 139.723 132.146L133.732 135.595C133.626 135.654 133.636 135.755 133.732 135.819L136.544 137.413C136.604 137.444 136.67 137.461 136.738 137.461C136.806 137.461 136.872 137.444 136.932 137.413L142.912 133.964C143.019 133.905 143.008 133.804 142.912 133.74L140.111 132.146ZM132.259 136.68C132.2 136.648 132.133 136.632 132.065 136.632C131.998 136.632 131.931 136.648 131.871 136.68L129.442 138.083C129.341 138.141 129.346 138.242 129.442 138.306L132.249 139.927C132.309 139.958 132.375 139.975 132.443 139.975C132.51 139.975 132.577 139.958 132.637 139.927L135.066 138.524C135.172 138.466 135.167 138.365 135.066 138.301L132.259 136.68ZM84.151 163.293L86.5856 161.89C86.6866 161.831 86.6813 161.73 86.5856 161.666L83.7629 160.045C83.7026 160.015 83.6362 160 83.5689 160C83.5016 160 83.4352 160.015 83.3749 160.045L80.9455 161.448C80.8445 161.507 80.8498 161.608 80.9455 161.672L83.7523 163.298C83.8116 163.326 83.8763 163.339 83.9416 163.338C84.0069 163.337 84.0712 163.322 84.1297 163.293H84.151ZM125.157 140.783C125.097 140.753 125.031 140.737 124.963 140.737C124.896 140.737 124.83 140.753 124.769 140.783L122.34 142.186C122.234 142.245 122.244 142.346 122.34 142.409L125.147 144.004C125.207 144.034 125.274 144.049 125.341 144.049C125.408 144.049 125.475 144.034 125.535 144.004L127.964 142.601C128.071 142.542 128.06 142.441 127.964 142.377L125.157 140.783ZM143.662 130.099C143.602 130.069 143.535 130.054 143.468 130.054C143.401 130.054 143.334 130.069 143.274 130.099L140.823 131.481C140.722 131.54 140.728 131.641 140.823 131.705L143.63 133.326C143.69 133.356 143.757 133.371 143.824 133.371C143.891 133.371 143.958 133.356 144.018 133.326L146.447 131.922C146.554 131.864 146.543 131.763 146.447 131.699L143.662 130.099ZM150.041 129.669L143.215 125.73C143.155 125.699 143.089 125.683 143.021 125.683C142.954 125.683 142.887 125.699 142.827 125.73L140.398 127.128C140.297 127.192 140.302 127.293 140.398 127.357L147.218 131.295C147.278 131.325 147.345 131.341 147.412 131.341C147.48 131.341 147.546 131.325 147.606 131.295L150.036 129.892C150.121 129.834 150.115 129.733 150.004 129.669H150.041ZM111.9 148.442C111.84 148.412 111.775 148.397 111.708 148.397C111.642 148.397 111.576 148.412 111.517 148.442L108.524 150.17C108.418 150.228 108.428 150.329 108.524 150.393L111.336 152.014C111.396 152.045 111.463 152.061 111.53 152.061C111.598 152.061 111.664 152.045 111.724 152.014L114.717 150.286C114.818 150.228 114.813 150.127 114.717 150.063L111.9 148.442ZM120.873 143.26C120.813 143.23 120.746 143.214 120.679 143.214C120.612 143.214 120.545 143.23 120.485 143.26L116.764 145.418C116.663 145.476 116.668 145.577 116.764 145.641L119.57 147.262C119.631 147.292 119.697 147.308 119.765 147.308C119.832 147.308 119.898 147.292 119.959 147.262L123.68 145.104C123.786 145.046 123.781 144.945 123.68 144.881L120.873 143.26ZM103.676 153.189C103.616 153.157 103.55 153.141 103.482 153.141C103.415 153.141 103.348 153.157 103.288 153.189L83.2313 164.728C83.1303 164.786 83.1357 164.887 83.2313 164.951L86.0381 166.546C86.0984 166.576 86.1648 166.591 86.2321 166.591C86.2995 166.591 86.3659 166.576 86.4262 166.546L106.424 154.996C106.531 154.937 106.525 154.836 106.424 154.773L103.676 153.189ZM82.5562 165.382C82.4963 165.35 82.4298 165.334 82.3622 165.334C82.2947 165.334 82.2281 165.35 82.1682 165.382L79.1381 167.093C79.0371 167.152 79.0425 167.253 79.1381 167.316L81.9502 168.937C82.0095 168.968 82.0751 168.984 82.1416 168.984C82.2081 168.984 82.2737 168.968 82.333 168.937L85.3258 167.21C85.4268 167.152 85.4215 167.051 85.3258 166.987L82.5562 165.382ZM107.791 150.818C107.731 150.787 107.664 150.77 107.597 150.77C107.529 150.77 107.462 150.787 107.403 150.818L104.41 152.545C104.309 152.604 104.314 152.705 104.41 152.769L107.216 154.39C107.277 154.42 107.343 154.435 107.41 154.435C107.478 154.435 107.544 154.42 107.605 154.39L110.597 152.662C110.698 152.604 110.693 152.503 110.597 152.439L107.791 150.818ZM78.4418 167.758C78.3815 167.728 78.3151 167.712 78.2477 167.712C78.1804 167.712 78.114 167.728 78.0537 167.758L75.0662 169.485C74.9599 169.543 74.9705 169.644 75.0662 169.708L77.8783 171.329C77.9386 171.359 78.005 171.375 78.0723 171.375C78.1396 171.375 78.2061 171.359 78.2663 171.329L81.2539 169.602C81.3602 169.543 81.3549 169.442 81.2539 169.379L78.4418 167.758ZM116.014 146.066C115.954 146.036 115.887 146.021 115.82 146.021C115.753 146.021 115.686 146.036 115.626 146.066L112.633 147.794C112.532 147.852 112.538 147.953 112.633 148.017L115.445 149.611C115.505 149.643 115.572 149.659 115.639 149.659C115.707 149.659 115.774 149.643 115.833 149.611L118.821 147.889C118.927 147.826 118.917 147.725 118.821 147.661L116.014 146.066ZM128.724 138.731C128.664 138.701 128.598 138.686 128.53 138.686C128.463 138.686 128.397 138.701 128.336 138.731L125.907 140.134C125.806 140.193 125.811 140.294 125.907 140.358L128.714 141.984C128.774 142.014 128.84 142.03 128.908 142.03C128.975 142.03 129.042 142.014 129.102 141.984L131.531 140.581C131.637 140.522 131.627 140.422 131.531 140.358L128.724 138.731ZM136.47 133.076L138.899 131.673C139 131.614 138.995 131.513 138.899 131.449L136.092 129.828C136.032 129.797 135.966 129.781 135.898 129.781C135.831 129.781 135.764 129.797 135.704 129.828L133.275 131.232C133.168 131.29 133.179 131.391 133.275 131.455L136.087 133.076C136.146 133.105 136.212 133.12 136.278 133.12C136.345 133.12 136.41 133.105 136.47 133.076ZM120.591 132.97L123.02 131.572C123.121 131.508 123.116 131.407 123.02 131.343L120.214 129.722C120.154 129.691 120.087 129.675 120.02 129.675C119.952 129.675 119.886 129.691 119.826 129.722L117.396 131.125C117.29 131.184 117.301 131.285 117.396 131.348L120.208 132.97C120.267 133.001 120.333 133.017 120.399 133.018C120.466 133.019 120.531 133.004 120.591 132.975V132.97ZM112.543 146.895L119.645 142.797C119.751 142.739 119.746 142.638 119.645 142.574L116.833 140.953C116.773 140.923 116.706 140.907 116.639 140.907C116.571 140.907 116.505 140.923 116.445 140.953L109.332 145.035C109.231 145.099 109.236 145.2 109.332 145.264L112.139 146.885C112.2 146.919 112.269 146.938 112.34 146.94C112.41 146.942 112.48 146.926 112.543 146.895ZM132.531 135.128C132.59 135.159 132.657 135.175 132.725 135.175C132.792 135.175 132.859 135.159 132.919 135.128L135.348 133.73C135.449 133.666 135.444 133.565 135.348 133.501L132.541 131.88C132.481 131.85 132.414 131.834 132.347 131.834C132.28 131.834 132.213 131.85 132.153 131.88L129.724 133.283C129.617 133.342 129.623 133.443 129.724 133.506L132.531 135.128ZM128.905 132.815L131.334 131.418C131.435 131.354 131.43 131.253 131.334 131.189L128.528 129.568C128.467 129.538 128.401 129.522 128.334 129.522C128.266 129.522 128.2 129.538 128.14 129.568L125.694 130.95C125.588 131.008 125.593 131.109 125.694 131.173L128.506 132.794C128.566 132.83 128.634 132.85 128.704 132.853C128.773 132.855 128.843 132.841 128.905 132.81V132.815ZM108.992 148.947L111.421 147.544C111.528 147.485 111.517 147.384 111.421 147.321L108.609 145.699C108.549 145.67 108.483 145.654 108.415 145.654C108.348 145.654 108.281 145.67 108.221 145.699L105.792 147.103C105.685 147.161 105.696 147.262 105.792 147.326L108.599 148.947C108.66 148.977 108.728 148.992 108.796 148.991C108.864 148.99 108.931 148.973 108.992 148.942V148.947ZM124.695 139.656C124.755 139.686 124.822 139.702 124.889 139.702C124.956 139.702 125.023 139.686 125.083 139.656L127.512 138.253C127.619 138.194 127.608 138.093 127.512 138.03L124.695 136.414C124.635 136.384 124.568 136.368 124.501 136.368C124.434 136.368 124.367 136.384 124.307 136.414L121.878 137.817C121.771 137.881 121.782 137.977 121.878 138.04L124.695 139.656ZM91.253 159.195L93.6823 157.792C93.7833 157.728 93.778 157.632 93.6823 157.568L90.8436 155.931C90.7834 155.901 90.7169 155.886 90.6496 155.886C90.5823 155.886 90.5159 155.901 90.4556 155.931L88.0156 157.34C87.9093 157.398 87.9146 157.499 88.0156 157.563L90.8277 159.184C90.8898 159.219 90.9597 159.239 91.031 159.24C91.1024 159.242 91.1731 159.227 91.237 159.195H91.253ZM94.8039 157.143L97.2333 155.74C97.3343 155.681 97.329 155.58 97.2333 155.517L94.3946 153.896C94.3343 153.866 94.2679 153.85 94.2006 153.85C94.1333 153.85 94.0669 153.866 94.0066 153.896L91.5772 155.299C91.4709 155.357 91.4762 155.458 91.5772 155.522L94.3893 157.143C94.451 157.175 94.5193 157.191 94.5887 157.191C94.658 157.191 94.7263 157.175 94.788 157.143H94.8039ZM87.6807 161.246L90.1154 159.843C90.2164 159.785 90.2111 159.684 90.1154 159.62L87.3033 157.999C87.2434 157.968 87.1768 157.951 87.1093 157.951C87.0417 157.951 86.9751 157.968 86.9152 157.999L84.4859 159.402C84.3849 159.461 84.3902 159.562 84.4859 159.625L87.298 161.246C87.3572 161.277 87.4228 161.293 87.4893 161.293C87.5559 161.293 87.6215 161.277 87.6807 161.246ZM101.89 153.045L104.319 151.647C104.42 151.583 104.415 151.482 104.319 151.419L101.513 149.797C101.452 149.768 101.386 149.752 101.319 149.752C101.251 149.752 101.185 149.768 101.124 149.797L98.6951 151.201C98.5888 151.259 98.5941 151.36 98.6951 151.424L101.507 153.045C101.567 153.075 101.633 153.089 101.699 153.089C101.766 153.088 101.831 153.071 101.89 153.04V153.045ZM98.339 155.097L100.768 153.694C100.869 153.635 100.864 153.534 100.768 153.47L97.9616 151.849C97.9013 151.819 97.8349 151.804 97.7675 151.804C97.7002 151.804 97.6338 151.819 97.5735 151.849L95.1442 153.252C95.0378 153.316 95.0432 153.412 95.1442 153.476L97.9562 155.102C98.0166 155.13 98.0825 155.143 98.1488 155.141C98.2152 155.139 98.2802 155.122 98.339 155.091V155.097ZM105.441 150.999L107.87 149.596C107.971 149.537 107.966 149.436 107.87 149.372L105.064 147.778C105.004 147.747 104.937 147.73 104.87 147.73C104.802 147.73 104.735 147.747 104.675 147.778L102.246 149.181C102.14 149.239 102.15 149.34 102.246 149.404L105.058 151.025C105.12 151.05 105.187 151.059 105.253 151.054C105.32 151.048 105.384 151.028 105.441 150.993V150.999ZM121.686 120.67C121.746 120.7 121.813 120.716 121.88 120.716C121.948 120.716 122.014 120.7 122.074 120.67L124.504 119.267C124.61 119.209 124.605 119.108 124.504 119.044L123.754 118.613C123.694 118.583 123.627 118.568 123.56 118.568C123.493 118.568 123.426 118.583 123.366 118.613L120.937 120.016C120.836 120.075 120.841 120.176 120.937 120.24L121.686 120.67ZM104.213 131.944C104.273 131.974 104.34 131.989 104.407 131.989C104.474 131.989 104.541 131.974 104.601 131.944L107.03 130.541C107.137 130.482 107.131 130.381 107.03 130.317L104.218 128.696C104.158 128.666 104.092 128.651 104.024 128.651C103.957 128.651 103.891 128.666 103.83 128.696L101.401 130.099C101.3 130.158 101.305 130.259 101.401 130.323L104.213 131.944ZM111.315 127.846C111.375 127.877 111.441 127.893 111.509 127.893C111.577 127.893 111.643 127.877 111.703 127.846L114.132 126.443C114.239 126.384 114.233 126.283 114.132 126.219L111.32 124.598C111.26 124.567 111.194 124.551 111.126 124.551C111.059 124.551 110.992 124.567 110.932 124.598L108.503 126.001C108.402 126.06 108.407 126.161 108.503 126.225L111.315 127.846ZM99.8753 134.447C99.9356 134.477 100.002 134.493 100.069 134.493C100.137 134.493 100.203 134.477 100.263 134.447L102.698 133.044C102.799 132.986 102.794 132.885 102.698 132.821L99.8859 131.226C99.8256 131.196 99.7592 131.181 99.6919 131.181C99.6245 131.181 99.5581 131.196 99.4978 131.226L97.0526 132.598C96.9515 132.656 96.9569 132.757 97.0526 132.821L99.8753 134.447ZM107.764 129.887C107.824 129.917 107.891 129.932 107.958 129.932C108.025 129.932 108.092 129.917 108.152 129.887L110.581 128.484C110.688 128.425 110.682 128.324 110.581 128.26L107.769 126.666C107.709 126.636 107.643 126.62 107.575 126.62C107.508 126.62 107.442 126.636 107.381 126.666L104.952 128.069C104.851 128.133 104.856 128.228 104.952 128.292L107.764 129.887ZM92.7999 138.545C92.8602 138.575 92.9266 138.591 92.9939 138.591C93.0612 138.591 93.1276 138.575 93.1879 138.545L95.6173 137.142C95.7236 137.084 95.7183 136.983 95.6173 136.919L92.8052 135.298C92.7453 135.266 92.6787 135.25 92.6112 135.25C92.5436 135.25 92.477 135.266 92.4171 135.298L89.9878 136.696C89.8868 136.759 89.8921 136.86 89.9878 136.924L92.7999 138.545ZM96.3509 136.494C96.4111 136.524 96.4776 136.539 96.5449 136.539C96.6122 136.539 96.6786 136.524 96.7389 136.494L99.1683 135.09C99.2746 135.027 99.2693 134.931 99.1683 134.867L96.3562 133.241C96.2959 133.211 96.2295 133.195 96.1621 133.195C96.0948 133.195 96.0284 133.211 95.9681 133.241L93.5016 134.67C93.4006 134.729 93.4059 134.83 93.5016 134.894L96.3509 136.494ZM114.595 124.763C114.655 124.794 114.721 124.81 114.789 124.81C114.856 124.81 114.923 124.794 114.983 124.763L117.412 123.365C117.519 123.301 117.513 123.206 117.412 123.136L116.663 122.706C116.602 122.676 116.536 122.66 116.469 122.66C116.401 122.66 116.335 122.676 116.275 122.706L113.845 124.109C113.744 124.168 113.75 124.269 113.845 124.332L114.595 124.763ZM125.227 118.613C125.286 118.644 125.353 118.661 125.421 118.661C125.488 118.661 125.555 118.644 125.615 118.613L128.049 117.21C128.15 117.152 128.145 117.051 128.049 116.987L127.3 116.556C127.24 116.525 127.173 116.509 127.106 116.509C127.038 116.509 126.972 116.525 126.912 116.556L124.482 117.954C124.381 118.018 124.387 118.119 124.482 118.183L125.227 118.613ZM131.132 122.02C131.192 122.052 131.259 122.068 131.326 122.068C131.394 122.068 131.461 122.052 131.521 122.02L133.95 120.617C134.051 120.559 134.046 120.458 133.95 120.394L131.143 118.799C131.083 118.768 131.017 118.752 130.949 118.752C130.882 118.752 130.815 118.768 130.755 118.799L128.326 120.203C128.219 120.261 128.225 120.362 128.326 120.426L131.132 122.02ZM140.01 131.03L142.439 129.626C142.546 129.568 142.535 129.467 142.439 129.403L139.627 127.809C139.567 127.779 139.5 127.763 139.433 127.763C139.366 127.763 139.299 127.779 139.239 127.809L136.81 129.212C136.703 129.27 136.714 129.371 136.81 129.435L139.617 131.056C139.681 131.086 139.751 131.099 139.822 131.095C139.893 131.09 139.961 131.068 140.021 131.03H140.01ZM118.135 122.711C118.195 122.741 118.262 122.757 118.329 122.757C118.397 122.757 118.463 122.741 118.523 122.711L120.953 121.308C121.059 121.25 121.054 121.149 120.953 121.085L120.203 120.654C120.143 120.623 120.077 120.607 120.009 120.607C119.941 120.607 119.875 120.623 119.815 120.654L117.386 122.058C117.285 122.116 117.29 122.217 117.386 122.281L118.135 122.711ZM89.2223 140.592C89.2826 140.622 89.349 140.637 89.4163 140.637C89.4837 140.637 89.5501 140.622 89.6104 140.592L92.0397 139.188C92.146 139.13 92.1407 139.029 92.0397 138.965L89.2276 137.344C89.1673 137.314 89.1009 137.298 89.0336 137.298C88.9663 137.298 88.8999 137.314 88.8396 137.344L86.4209 138.747C86.3199 138.806 86.3252 138.907 86.4209 138.97L89.2223 140.592Z" fill="#263238"/>
<path opacity="0.3" d="M104.98 161.91L128.954 148.064C129.36 147.86 129.808 147.753 130.262 147.753C130.716 147.753 131.164 147.86 131.57 148.064L145.322 156.005C146.045 156.42 146.045 157.095 145.322 157.515L121.342 171.334C120.937 171.541 120.489 171.649 120.034 171.649C119.579 171.649 119.131 171.541 118.726 171.334L104.98 163.42C104.257 163 104.257 162.309 104.98 161.91Z" fill="black"/>
<path d="M25.9222 153.211C26.1337 153.332 26.3585 153.428 26.592 153.498C26.3578 153.432 26.1328 153.337 25.9222 153.216C25.8492 153.178 25.7798 153.133 25.7148 153.083C25.7812 153.13 25.8505 153.172 25.9222 153.211Z" fill="#BA68C8"/>
<path opacity="0.3" d="M115.922 27.8352C115.767 26.7084 114.858 26.2938 113.758 26.9317L30.1504 75.1883C29.5088 75.5795 28.9781 76.1284 28.6088 76.7828L24.5156 74.4282C24.8827 73.7637 25.4133 73.2039 26.0572 72.8017L109.67 24.5558C110.275 24.1755 110.97 23.9607 111.684 23.9328C112.398 23.9049 113.107 24.065 113.74 24.397C114.372 24.729 114.907 25.2213 115.29 25.8246C115.673 26.428 115.891 27.1213 115.922 27.8352Z" fill="black"/>
<path d="M29.7402 153.416C29.7501 153.414 29.7604 153.414 29.7703 153.416H29.7402Z" fill="#BA68C8"/>
<path opacity="0.5" d="M181.415 143.769C181.36 144.501 181.135 145.21 180.756 145.839C180.377 146.467 179.857 146.998 179.235 147.389L95.6223 195.656C94.9511 196.016 94.1991 196.199 93.4375 196.188V191.473C94.1991 191.484 94.951 191.301 95.6223 190.942L179.235 142.642C180.357 141.989 180.431 140.968 179.453 140.267C180.019 140.669 180.488 141.192 180.827 141.798C181.166 142.404 181.367 143.077 181.415 143.769Z" fill="black"/>
<path d="M234.933 102.44L225.168 96.8059C224.95 96.689 224.636 96.7687 224.254 97.0611C224.052 97.2099 223.85 97.3587 223.648 97.4969L223.419 97.6404C223.286 97.7255 223.153 97.8158 223.015 97.8955C222.877 97.9753 222.824 98.0018 222.728 98.0603L222.372 98.257L222.042 98.4217L221.713 98.5812L221.346 98.7353C221.245 98.7779 221.144 98.8257 221.038 98.8629L220.639 99.0117L220.357 99.1127L219.927 99.2456L219.671 99.32L219.209 99.4369L218.975 99.4901C218.816 99.5273 218.651 99.5592 218.486 99.5858L218.284 99.623L217.752 99.6974H217.577C217.396 99.6974 217.21 99.7346 217.045 99.7452H216.902H216.328H216.211C216.014 99.7452 215.817 99.7452 215.621 99.7452H215.53C215.328 99.7452 215.121 99.7452 214.919 99.7027H214.861L214.228 99.6177H214.196L213.904 99.5592L207.844 96.0618C207.397 95.812 206.988 95.9927 206.722 96.6465C203.203 105.385 195.708 114.245 190.711 116.461C190.611 116.504 190.515 116.553 190.424 116.61C190.363 116.646 190.304 116.685 190.248 116.727L190.168 116.78L189.95 116.966C189.876 117.036 189.807 117.11 189.738 117.184C189.381 117.573 189.183 118.081 189.18 118.609L189.903 127.485C189.903 133.21 192.337 139.248 197.308 142.134L207.078 147.763L207.147 147.8C209.671 149.196 212.571 149.763 215.435 149.421C216.505 149.244 217.496 148.747 218.279 147.997C229.208 136.712 234.519 121.421 234.519 112.991L235.242 103.211C235.236 102.823 235.125 102.552 234.933 102.44Z" fill="#BA68C8"/>
<path opacity="0.4" d="M217.535 101.679C217.438 101.63 217.329 101.607 217.22 101.613C217.111 101.618 217.005 101.652 216.913 101.711L216.807 101.791C216.745 101.853 216.69 101.92 216.642 101.993C216.589 102.085 216.542 102.181 216.504 102.28C215.588 104.525 214.487 106.69 213.213 108.754C212.111 110.568 210.898 112.313 209.582 113.979C208.945 114.776 208.307 115.536 207.663 116.248C207.666 116.257 207.666 116.266 207.663 116.275L207.132 116.865C206.946 117.051 206.77 117.242 206.6 117.423C206.51 117.524 206.42 117.62 206.324 117.71C204.272 119.772 202.263 121.314 200.546 122.074C200.253 122.204 199.985 122.384 199.753 122.605L199.557 122.802C199.546 122.819 199.533 122.835 199.52 122.85L199.557 122.802L189.797 117.178C189.804 117.164 189.815 117.151 189.829 117.141C189.847 117.112 189.868 117.085 189.893 117.061L189.951 117.008C189.967 116.989 189.985 116.972 190.004 116.955L190.063 116.902C190.113 116.853 190.166 116.807 190.222 116.764L190.302 116.711C190.36 116.673 190.419 116.626 190.477 116.594C190.568 116.535 190.664 116.485 190.764 116.445C195.761 114.228 203.262 105.368 206.776 96.6299C206.967 96.1621 207.228 95.9336 207.525 95.9336C207.657 95.9388 207.786 95.9792 207.897 96.0505L213.899 99.5904L217.535 101.679Z" fill="white"/>
<path opacity="0.1" d="M234.936 102.441L225.171 96.8072C224.958 96.6956 224.639 96.7753 224.262 97.0624C224.065 97.2165 223.858 97.3653 223.651 97.5035L223.427 97.647C223.295 97.7321 223.162 97.8224 223.023 97.9022C222.885 97.9819 222.832 98.0085 222.736 98.0669L222.38 98.2636C222.274 98.3221 222.162 98.3699 222.051 98.4231L221.721 98.5878L221.349 98.742C221.253 98.7898 221.147 98.8323 221.046 98.8748L220.647 99.0184L220.366 99.1193L219.93 99.2522L219.674 99.3266L219.217 99.4436L218.989 99.4967L218.494 99.5924L218.287 99.6296C218.117 99.6615 217.947 99.6828 217.755 99.704H217.58L217.048 99.7572H216.905C216.714 99.7572 216.522 99.7572 216.331 99.7572H216.219C216.017 99.7572 215.82 99.7572 215.624 99.7572H215.539C215.331 99.7572 215.124 99.7306 214.922 99.7146H214.864C214.651 99.7146 214.438 99.6668 214.236 99.6349H214.204C214.105 99.6221 214.008 99.6008 213.912 99.5711L217.548 101.665L217.612 101.703C217.75 101.789 217.872 101.899 217.973 102.027C217.999 102.049 218.022 102.074 218.043 102.101C221.764 106.449 229.121 106.444 234.027 102.691C234.399 102.409 234.708 102.319 234.915 102.415H234.947C235.044 102.473 235.117 102.563 235.154 102.67C235.109 102.571 235.032 102.491 234.936 102.441Z" fill="black"/>
<path opacity="0.2" d="M206.924 147.736L197.286 142.187C192.321 139.295 189.881 133.257 189.881 127.533L189.158 118.656C189.164 118.315 189.247 117.98 189.402 117.676C189.557 117.372 189.779 117.108 190.051 116.902C189.931 117.003 189.819 117.113 189.716 117.232L199.482 122.855C199.13 123.248 198.94 123.758 198.95 124.285L199.668 133.162C199.652 138.833 202.044 144.818 206.924 147.736Z" fill="black"/>
<path d="M235.217 103.263L234.494 113.043C234.494 121.494 229.178 136.765 218.26 148.049C217.476 148.803 216.479 149.298 215.405 149.468C212.545 149.821 209.647 149.263 207.123 147.873L207.054 147.836L206.926 147.756C202.041 144.838 199.644 138.859 199.644 133.182L198.926 124.306C198.918 123.781 199.108 123.273 199.458 122.881C199.517 122.812 199.581 122.746 199.649 122.685C199.88 122.463 200.148 122.283 200.441 122.153C202.163 121.388 204.162 119.846 206.225 117.789L206.501 117.502L207.033 116.939L207.564 116.349C208.213 115.631 208.851 114.871 209.489 114.074C210.804 112.408 212.016 110.663 213.119 108.849C214.391 106.788 215.49 104.624 216.404 102.381C216.447 102.281 216.495 102.183 216.548 102.088C216.596 102.017 216.651 101.951 216.713 101.892C216.746 101.862 216.781 101.835 216.819 101.812C216.909 101.751 217.014 101.715 217.123 101.71C217.232 101.704 217.34 101.728 217.436 101.78L217.505 101.812C217.644 101.897 217.767 102.007 217.866 102.136L217.935 102.216C221.657 106.558 229.014 106.553 233.92 102.806C234.287 102.524 234.601 102.434 234.808 102.524H234.835C234.884 102.545 234.927 102.58 234.957 102.625C235.115 102.801 235.207 103.027 235.217 103.263Z" fill="#BA68C8"/>
<path d="M219.906 135.34L214.091 138.694L214.989 128.176C214.293 127.809 213.852 126.9 213.852 125.603C213.852 123.286 215.26 120.596 216.999 119.592C218.737 118.587 220.146 119.65 220.146 121.967C220.108 123.341 219.716 124.681 219.008 125.858L219.906 135.34Z" fill="#455A64"/>
<path d="M219.911 135.34L214.643 132.294L214.096 138.693L219.911 135.34Z" fill="#37474F"/>
<path d="M217.001 119.592C215.734 120.446 214.789 121.7 214.316 123.153L219.01 125.858C219.718 124.681 220.11 123.341 220.148 121.967C220.148 119.65 218.739 118.587 217.001 119.592Z" fill="#37474F"/>
<path d="M224.317 77.6334C222.722 76.6979 220.67 76.8043 218.741 77.9151L203.458 86.7437C201.864 87.7527 200.54 89.1338 199.6 90.7681C198.659 92.4023 198.129 94.2407 198.057 96.125V114.845C198.079 115.082 198.164 115.309 198.303 115.503C198.442 115.696 198.631 115.849 198.849 115.945C199.441 116.243 200.094 116.397 200.757 116.397C201.42 116.397 202.073 116.243 202.665 115.945C202.883 115.849 203.072 115.696 203.211 115.503C203.35 115.309 203.435 115.082 203.458 114.845V96.125C203.531 95.1879 203.813 94.2791 204.283 93.4652C204.753 92.6512 205.399 91.9528 206.174 91.421L221.446 82.5819V101.318C221.469 101.556 221.555 101.783 221.695 101.977C221.835 102.17 222.025 102.323 222.244 102.418C222.835 102.717 223.487 102.873 224.149 102.873C224.812 102.873 225.464 102.717 226.055 102.418C226.273 102.322 226.462 102.169 226.601 101.976C226.74 101.782 226.825 101.555 226.847 101.318V82.5819C226.858 80.3761 225.933 78.5636 224.317 77.6334Z" fill="#37474F"/>
<path d="M221.447 82.5832V101.303C221.47 101.541 221.556 101.769 221.696 101.962C221.836 102.155 222.026 102.308 222.245 102.403C222.493 102.544 222.759 102.65 223.037 102.717V81.6689L221.447 82.5832Z" fill="#263238"/>
</g>
<defs>
<clipPath id="clip0_1760_14517">
<rect width="256" height="221" fill="white"/>
</clipPath>
</defs>
</svg>
