<svg width="238" height="238" viewBox="0 0 238 238" fill="none" xmlns="http://www.w3.org/2000/svg">
<path d="M38.6292 118.6C-4.41547 143.452 -4.41547 183.745 38.6292 208.597C81.6739 233.449 151.465 233.449 194.51 208.597C237.554 183.745 237.554 143.452 194.51 118.6C151.465 93.7479 81.6739 93.7479 38.6292 118.6Z" fill="#455A64"/>
<path d="M106.4 157.998C106.519 156.446 105.291 154.666 102.559 152.581C97.5182 148.707 79.1874 135.959 72.0664 131.242C72.0657 131.226 72.0597 131.211 72.0493 131.199C72.039 131.187 72.0249 131.179 72.0093 131.176C66.5591 127.239 65.3453 100.278 62.3703 87.3836C62.3418 87.2646 62.1371 86.2745 61.723 85.0036L61.6611 84.8323C61.604 84.6561 61.5421 84.48 61.4754 84.2991C61.4469 84.2135 61.4183 84.1183 61.385 84.0373C60.8748 82.5511 60.0775 81.1796 59.0383 80.0009C58.6796 79.6064 58.2679 79.2636 57.815 78.9822C57.201 78.5681 55.6968 77.816 55.3731 77.5923C51.6651 74.9505 42.2593 81.6526 35.6191 84.6276C31.4874 86.484 27.9032 88.7926 25.466 93.4336C24.1321 96.1059 23.2338 98.9743 22.8052 101.93C21.7152 108.518 21.9341 130.633 22.5148 140.343C23.186 156.551 25.5755 156.77 28.8409 159.736C34.4529 164.834 50.9368 175.263 56.4489 177.952C66.4449 182.826 75.3413 177.248 81.8625 174.649C88.3837 172.05 100.741 166 103.535 164.291C105.191 163.272 106.1 162.182 106.181 160.959C106.196 160.478 106.362 158.508 106.4 157.998Z" fill="#263238"/>
<path d="M82.0819 171.656C88.6031 169.062 100.96 163.002 103.754 161.294C107.529 158.99 107.415 156.31 102.564 152.583C95.8241 147.404 68.1589 128.654 68.1589 128.654C68.1589 128.654 36.0051 144.148 28.3844 150.917C27.2325 151.94 27.1849 154.106 27.5847 154.611C31.764 159.847 50.3565 171.875 56.6683 174.96C66.6405 179.834 75.5607 174.255 82.0819 171.656Z" fill="#455A64"/>
<path d="M57.8084 78.9786L57.7037 78.9167C56.8747 78.3966 55.9253 78.0998 54.9477 78.0551C51.5776 77.7838 46.2559 80.14 38.2877 85.2903C35.8432 86.8054 33.5551 88.5593 31.4571 90.5263L31.3333 90.6453C30.6989 91.2489 30.1146 91.9032 29.5864 92.6017C29.496 92.7159 29.4103 92.8302 29.3246 92.9492C29.2389 93.0682 29.2246 93.0824 29.1818 93.1491C29.0723 93.3062 28.9628 93.4632 28.8581 93.6251C28.6487 93.9488 28.444 94.2867 28.2441 94.6342L28.1822 94.7437L27.9537 95.1721L25.4785 93.4585C27.9156 88.8175 31.6665 86.428 35.5174 84.0622C42.1814 79.9877 49.5641 74.6946 54.2765 76.9794C54.6145 77.1126 57.1896 78.5644 57.8084 78.9786Z" fill="#455A64"/>
<path d="M62.3548 87.38C61.9217 85.6807 60.4508 78.336 54.934 78.0551C51.5639 77.7838 46.2422 80.1448 38.274 85.2903C34.5659 87.6703 30.2915 90.7548 28.1685 94.7247C25.0459 99.656 24.5557 113.336 24.7413 126.498C24.9269 139.659 25.779 152.292 27.5592 154.62C30.6865 145.842 67.667 128.568 71.9938 131.177C66.5579 127.24 65.3346 100.28 62.3548 87.38Z" fill="#37474F"/>
<path d="M39.4322 130.281C36.1811 137.716 35.548 145.328 36.362 149.588C37.176 153.848 37.9471 159.731 48.5571 166.433C60.6713 174.083 69.4964 178.5 69.4964 178.5L109.733 152.72L82.2817 136.027L39.4322 130.281Z" fill="#BA68C8"/>
<path opacity="0.15" d="M39.4322 130.281C36.1811 137.716 35.548 145.328 36.362 149.588C37.176 153.848 37.9471 159.731 48.5571 166.433C60.6713 174.083 69.4964 178.5 69.4964 178.5L109.733 152.72L82.2817 136.027L39.4322 130.281Z" fill="black"/>
<path opacity="0.35" d="M49.6153 158.164C49.2821 157.802 48.9632 157.441 48.6633 157.079C51.743 156.265 53.5566 152.438 53.1758 148.116C52.952 145.641 52.6998 142.827 53.0377 140.171L52.4998 140.1C52.1571 142.818 52.4094 145.66 52.6331 148.163C53.0187 152.524 51.2051 156.046 48.2634 156.617C42.3658 149.549 43.275 142.685 46.1452 133.574L45.6264 133.412C42.48 143.408 41.9993 150.729 49.2154 158.531C53.9754 163.662 66.8988 170.664 74.4672 175.329L74.9765 175.005C67.4224 170.359 54.3705 163.3 49.6153 158.164Z" fill="black"/>
<path opacity="0.35" d="M82.6288 143.528C80.9819 148.826 77.5547 151.368 77.5547 151.368C83.9616 156.033 89.2167 160.364 92.8819 163.544L97.3658 160.688L81.6245 150.121C83.4618 146.341 82.6288 143.528 82.6288 143.528Z" fill="black"/>
<path d="M100.697 222.493L30.0254 181.69L147.731 113.751L218.402 154.558L100.697 222.493Z" fill="#BA68C8"/>
<path opacity="0.8" d="M100.697 222.493L30.0254 181.69L147.731 113.751L218.402 154.558L100.697 222.493Z" fill="white"/>
<path d="M30.0254 181.69V186.788L100.697 227.591V222.493L30.0254 181.69Z" fill="#BA68C8"/>
<path opacity="0.5" d="M30.0254 181.69V186.788L100.697 227.591V222.493L30.0254 181.69Z" fill="white"/>
<path d="M100.697 227.59L218.403 159.656V154.558L100.697 222.492V227.59Z" fill="#BA68C8"/>
<path opacity="0.65" d="M100.697 222.492L218.403 154.558V159.656L100.697 227.59V222.492Z" fill="white"/>
<path opacity="0.2" d="M171.588 151.159L140.896 133.423C140.627 133.267 140.323 133.186 140.013 133.186C139.703 133.186 139.398 133.267 139.13 133.423L85.8272 164.192C85.768 164.226 85.7189 164.276 85.6848 164.336C85.6507 164.396 85.6328 164.463 85.6328 164.532C85.6328 164.601 85.6507 164.668 85.6848 164.728C85.7189 164.788 85.768 164.837 85.8272 164.872L116.829 182.784L171.588 151.159Z" fill="#BA68C8"/>
<path d="M169.294 147.421V148.111C169.291 148.61 169.157 149.098 168.907 149.529C168.656 149.96 168.297 150.318 167.866 150.567L118.229 179.222C117.795 179.475 117.302 179.605 116.801 179.599C116.299 179.6 115.806 179.469 115.373 179.218L88.3167 163.653C87.8843 163.403 87.525 163.044 87.2744 162.613C87.0239 162.181 86.8909 161.691 86.8887 161.192V160.24C86.8889 160.303 86.9057 160.364 86.9375 160.419C86.9692 160.473 87.0148 160.518 87.0696 160.549L116.781 177.709L169.294 147.421Z" fill="#37474F"/>
<path d="M169.299 147.416L139.868 130.423C139.611 130.276 139.32 130.198 139.023 130.198C138.727 130.198 138.436 130.276 138.178 130.423L87.1085 159.935C87.0522 159.968 87.0056 160.016 86.9732 160.073C86.9409 160.129 86.9238 160.194 86.9238 160.259C86.9238 160.324 86.9409 160.388 86.9732 160.445C87.0056 160.502 87.0522 160.549 87.1085 160.583L116.816 177.719L169.299 147.416Z" fill="#455A64"/>
<path d="M116.828 177.714V179.618C117.329 179.622 117.822 179.492 118.256 179.242L167.893 150.587C168.326 150.338 168.685 149.979 168.936 149.547C169.186 149.115 169.319 148.625 169.321 148.126V147.417L116.828 177.714Z" fill="#263238"/>
<path d="M116.556 175.215L100.682 166.061L147.096 139.263L163.052 148.369L116.556 175.215Z" fill="#37474F"/>
<path d="M163.055 148.369L162.45 148.721L147.099 139.962L101.294 166.409L100.689 166.061L147.099 139.263L163.055 148.369Z" fill="#263238"/>
<path d="M108.756 149.749L109.046 149.915L116.829 154.409L130.666 146.421L130.952 146.255L122.879 141.595L108.756 149.749Z" fill="#263238"/>
<path d="M109.045 149.916L116.828 154.409L130.665 146.422L122.877 141.929L109.045 149.916Z" fill="#37474F"/>
<path d="M126.88 134.086C125.423 131.942 123.697 129.995 121.744 128.293C119.426 126.389 118.474 125.813 114.29 123.813L108.102 132.172L109.967 132.734C110.748 133.01 111.172 133.086 111.476 133.814C111.644 134.636 111.761 135.467 111.824 136.304C111.977 137.697 112.281 139.069 112.728 140.397C113.385 142.368 113.809 142.23 114.994 143.801C116.089 145.229 116.532 146.214 117.141 146.138C117.75 146.062 118.507 144.867 118.198 143.529C117.888 142.192 116.77 140.269 116.608 139.721C116.474 139.245 116.236 138.346 117.679 138.798C119.192 139.274 121.801 142.558 123.11 143.91C124.419 145.262 125.228 147.328 126.442 148.237C127.656 149.146 129.503 149.099 128.988 147.123C129.184 145.981 129.888 144.005 130.059 142.173C130.231 140.34 128.232 136.047 126.88 134.086Z" fill="#FFA8A7"/>
<path d="M117.631 178.133C118.099 178.314 118.602 178.388 119.103 178.349C119.604 178.311 120.09 178.16 120.525 177.91L169.934 149.378C170.362 149.13 170.73 148.791 171.013 148.385C171.295 147.978 171.484 147.514 171.566 147.027L176.979 114.768C177.007 114.585 177.021 114.401 177.021 114.216C177.022 113.773 176.934 113.334 176.764 112.926C176.593 112.517 176.342 112.147 176.027 111.836L124.685 141.476C124.368 141.66 124.096 141.912 123.887 142.213C123.678 142.514 123.538 142.857 123.476 143.219L117.631 178.133Z" fill="#37474F"/>
<path d="M116.83 177.714L117.168 177.909C117.316 177.99 117.473 178.067 117.644 178.133L123.489 143.219C123.551 142.857 123.691 142.514 123.9 142.213C124.109 141.912 124.381 141.66 124.698 141.476L176.049 111.826C175.846 111.621 175.615 111.445 175.364 111.303L123.908 141.01C123.591 141.194 123.319 141.445 123.11 141.746C122.901 142.047 122.761 142.391 122.699 142.752L116.83 177.714Z" fill="#455A64"/>
<path d="M123.955 142.137L123.155 141.661C122.915 141.978 122.752 142.346 122.679 142.737L116.824 177.699L117.162 177.894C117.31 177.975 117.467 178.051 117.638 178.118L123.483 143.203C123.553 142.815 123.715 142.45 123.955 142.137Z" fill="#263238"/>
<path d="M146.478 147.76C146.754 146.113 148.458 143.919 150.286 142.867C152.113 141.815 153.365 142.295 153.089 143.947C152.813 145.599 151.109 147.788 149.281 148.84C147.453 149.892 146.202 149.412 146.478 147.76Z" fill="#BA68C8"/>
<path d="M80.9181 81.0215C84.1883 81.7926 89.0101 83.311 91.1188 89.9084C93.6321 97.7957 96.2596 115.646 96.2596 115.646L114.276 123.814L108.088 132.172C108.088 132.172 94.8173 128.879 88.4151 127.013C81.5084 124.999 81.7511 122.924 79.5282 111.528C78.1002 104.146 76.5723 95.0778 76.5723 95.0778C77.2815 88.8755 80.9181 81.0215 80.9181 81.0215Z" fill="#FFA8A7"/>
<path d="M81.3952 80.8916C86.6312 82.1054 88.5352 84.1332 90.2536 86.656C91.9719 89.1788 93.6998 97.8182 95.0136 104.515C96.3273 111.213 96.9461 115.335 96.9461 115.335L106.623 120.333C106.623 120.333 104.243 119.89 102.025 124.265C100.597 127.04 101.325 130.453 101.325 130.453C101.325 130.453 88.6923 127.863 86.279 127.021C83.8657 126.178 82.2044 125.35 80.943 121.309C79.6816 117.268 75.707 94.1292 75.707 94.1292L81.3952 80.8916Z" fill="#EBEBEB"/>
<path d="M86.0294 87.4771C83.6494 83.3931 81.712 81.5176 80.9314 81.0226C78.5514 80.3086 70.5784 79.6898 66.5657 80.6037C59.4828 81.5985 54.3563 82.7552 49.2393 84.6307C47.5257 85.259 46.5547 87.1059 46.1072 88.2054C45.1838 90.5473 44.9934 96.3403 44.941 99.4676C44.8268 106.993 45.1029 112.691 43.989 117.898C43.3131 121.078 38.277 128.408 36.373 140.589C53.7756 156.659 81.0504 142.331 82.288 136.048C82.288 136.048 81.5312 131.726 80.5458 126.628C80.5458 124.953 82.9639 118.627 82.8925 118.727C94.8639 112.462 92.8219 98.468 86.0294 87.4771Z" fill="#263238"/>
<path d="M77.5556 117.471C74.8757 120.384 64.418 122.059 58.5156 115.053C59.4391 120.965 71.7913 125.439 77.5556 117.471Z" fill="black"/>
<path d="M91.4327 57.3889C90.0523 59.688 90.8187 61.5587 89.5573 63.9196C89.0813 64.7812 65.862 70.4741 61.8636 72.1116C61.0448 69.455 60.0215 66.8657 58.8029 64.3671C56.6276 59.9974 55.6566 55.5849 56.2754 52.2862C56.9846 48.4782 59.4408 47.1882 60.6546 47.1882C60.6546 44.0799 64.0723 39.8102 71.1266 38.2632C85.1733 35.174 98.0539 46.3695 91.4327 57.3889Z" fill="#263238"/>
<path d="M88.3599 48.864C88.8156 49.0298 89.2304 49.2915 89.5761 49.6315C89.9219 49.9715 90.1905 50.3818 90.3639 50.8347C91.1635 52.7767 92.2679 57.3701 90.5162 66.1C88.993 73.6779 86.3702 77.1051 83.6475 78.1951C82.0101 78.852 78.2116 78.5759 75.903 77.9619C75.777 78.2816 75.6721 78.6091 75.5888 78.9425C75.2509 80.142 76.1553 80.3038 76.1553 80.3038C76.1553 80.3038 82.4004 88.8242 73.9323 90.1094C70.2497 90.6209 66.5097 89.7233 63.4603 87.5961C61.0692 86.0307 58.7914 84.2985 56.644 82.4125C59.4477 81.6795 59.738 80.9845 60.452 78.5188C61.6944 74.1253 62.8082 67.0948 62.8082 67.0948C62.8082 67.0948 60.6043 69.0512 58.4671 66.3951C55.9824 63.3011 55.7301 58.7791 58.4671 57.1845C61.7991 55.2472 63.9601 57.5701 64.717 59.9215C65.4119 62.0683 67.7586 62.4157 68.6249 59.9643C69.8578 56.461 69.6483 51.8723 73.5849 49.3591C76.0648 47.7645 79.8585 47.7787 83.4095 51.8438C85.204 48.9735 86.8843 48.369 88.3599 48.864Z" fill="#FFA8A7"/>
<path d="M76.4188 68.498L80.8551 70.2116C80.7536 70.5077 80.5936 70.7804 80.3847 71.0134C80.1758 71.2465 79.9222 71.4352 79.6389 71.5684C79.3557 71.7016 79.0486 71.7765 78.7358 71.7887C78.4231 71.801 78.1111 71.7503 77.8183 71.6396C77.2256 71.3966 76.7495 70.9345 76.4889 70.3494C76.2282 69.7642 76.2031 69.1012 76.4188 68.498Z" fill="#B16668"/>
<path d="M76.3262 69.8125C76.5118 69.8185 76.6966 69.8408 76.8783 69.8791C77.382 69.9899 77.8531 70.2161 78.2546 70.5399C78.656 70.8637 78.9768 71.2762 79.1917 71.7451C78.7369 71.859 78.2579 71.8291 77.8208 71.6594C77.4343 71.5054 77.0938 71.2547 76.8321 70.9313C76.5704 70.6079 76.3962 70.2226 76.3262 69.8125Z" fill="#F28F8F"/>
<path d="M77.6687 54.7853L74.2558 55.9039C74.1714 55.6844 74.1326 55.4499 74.142 55.2149C74.1513 54.9799 74.2086 54.7492 74.3102 54.5371C74.4118 54.325 74.5556 54.1358 74.7329 53.9813C74.9102 53.8267 75.1171 53.7099 75.3411 53.6381C75.8022 53.4996 76.2987 53.5409 76.7306 53.7538C77.1625 53.9666 77.4977 54.3352 77.6687 54.7853Z" fill="#263238"/>
<path d="M86.3262 56.755L89.5106 58.44C89.6312 58.2379 89.7093 58.0133 89.74 57.78C89.7708 57.5467 89.7535 57.3096 89.6893 57.0831C89.6252 56.8567 89.5154 56.6458 89.3668 56.4633C89.2182 56.2808 89.0339 56.1306 88.8252 56.0219C88.3934 55.8038 87.8949 55.7582 87.4307 55.8944C86.9666 56.0305 86.5717 56.3382 86.3262 56.755Z" fill="#263238"/>
<path d="M85.5547 60.6175C85.5538 60.9796 85.6905 61.3284 85.937 61.5935C86.1836 61.8586 86.5216 62.0202 86.8827 62.0455C87.0606 62.0591 87.2395 62.0367 87.4085 61.9796C87.5776 61.9226 87.7334 61.832 87.8667 61.7134C88 61.5948 88.108 61.4505 88.1843 61.2892C88.2606 61.1279 88.3036 60.9529 88.3107 60.7746C88.3117 60.4134 88.1757 60.0652 87.9302 59.8002C87.6846 59.5352 87.3477 59.3731 86.9874 59.3466C86.8093 59.3331 86.6302 59.3554 86.4609 59.4125C86.2916 59.4695 86.1355 59.56 86.0018 59.6785C85.8681 59.7971 85.7597 59.9413 85.6829 60.1026C85.6061 60.2639 85.5625 60.439 85.5547 60.6175Z" fill="#263238"/>
<path d="M75.204 60.0308C75.1425 60.3907 75.2212 60.7605 75.424 61.0642C75.6267 61.3678 75.938 61.5823 76.294 61.6635C76.468 61.7032 76.6481 61.7075 76.8238 61.6763C76.9994 61.645 77.167 61.5788 77.3166 61.4816C77.4662 61.3844 77.5948 61.2581 77.6946 61.1103C77.7945 60.9625 77.8637 60.7961 77.8981 60.6211C77.9595 60.2605 77.8801 59.8901 77.6764 59.5864C77.4727 59.2826 77.1602 59.0685 76.8033 58.9884C76.6297 58.9481 76.4496 58.9433 76.274 58.9743C76.0984 59.0053 75.9309 59.0714 75.7815 59.1688C75.6322 59.2662 75.504 59.3927 75.4047 59.5408C75.3055 59.689 75.2372 59.8556 75.204 60.0308Z" fill="#263238"/>
<path d="M81.5078 58.9404L80.9414 67.0705L85.7871 66.1661L81.5078 58.9404Z" fill="#F28F8F"/>
<path d="M64.6227 68.498C64.6227 68.498 63.8325 72.7583 66.2315 75.2858C69.0875 78.2799 73.6762 79.3984 75.5659 79.7507C75.4934 79.4846 75.5017 79.2029 75.5897 78.9415C75.6729 78.6081 75.7779 78.2806 75.9039 77.9609C73.8809 77.404 69.8063 76.2331 67.5025 74.2291C66.6531 73.5241 65.9588 72.651 65.4632 71.6647C64.9676 70.6785 64.6814 69.6003 64.6227 68.498Z" fill="#F28F8F"/>
<path d="M61.7307 65.0997C61.7307 65.2936 61.6731 65.4832 61.5654 65.6445C61.4577 65.8057 61.3045 65.9314 61.1253 66.0056C60.9462 66.0798 60.749 66.0993 60.5588 66.0614C60.3686 66.0236 60.1939 65.9302 60.0567 65.7931C59.9196 65.6559 59.8262 65.4812 59.7884 65.291C59.7505 65.1008 59.77 64.9036 59.8442 64.7245C59.9184 64.5453 60.0441 64.3921 60.2053 64.2844C60.3666 64.1767 60.5562 64.1191 60.7501 64.1191C61.0102 64.1191 61.2596 64.2225 61.4435 64.4063C61.6273 64.5902 61.7307 64.8396 61.7307 65.0997Z" fill="#BA68C8"/>
<path d="M60.4025 78.5421C60.4025 78.5421 60.6215 82.1502 61.602 84.7777C63.4441 89.6852 66.0907 95.759 70.1986 101.252C74.3065 106.745 80.3421 113.766 80.3421 113.766C80.3421 113.766 84.7356 101.604 79.9137 88.5381C78.9638 86.0376 77.8688 83.5948 76.6341 81.222C76.397 80.8027 76.0931 80.4249 75.7345 80.1034C75.5488 79.9225 75.406 79.5798 75.5821 78.9419L75.7725 78.2946C76.3896 78.7695 77.053 79.1809 77.7527 79.5226C78.7578 79.9936 79.793 80.3975 80.8515 80.7317C81.2465 80.865 81.3655 80.8935 81.3655 80.8935C83.51 82.8797 85.3797 85.1432 86.9252 87.6242C90.1477 93.1743 92.185 99.705 92.0137 104.175C91.7185 111.981 88.7911 115.146 85.3497 118.683C83.1696 120.916 82.5555 132.963 84.7499 135.776C86.9443 138.589 91.5091 141.598 91.5091 141.598C91.5091 141.598 85.0688 142.693 73.3021 148.476C61.5354 154.259 54.8571 159.424 52.9769 162.57C51.8656 164.382 51.2364 166.449 51.1491 168.573C51.1491 168.573 42.2955 164.06 38.9444 159.643C35.5934 155.226 34.3367 148.4 35.0793 142.126C35.8219 135.852 49.3593 84.078 49.3593 84.078C49.3593 84.078 55.1284 80.9697 57.6274 79.118C58.8793 78.1946 60.3359 77.2854 60.7167 77.3664L60.4025 78.5421Z" fill="#FAFAFA"/>
<path d="M72.9689 108.916L65.667 103.68C64.4532 102.809 63.2585 101.919 62.0732 101.029C60.896 100.174 59.7706 99.2509 58.7031 98.263C58.5841 98.144 58.4747 98.025 58.3842 97.9156C58.2938 97.8061 58.2938 97.8061 58.2747 97.7728V97.7252C58.2747 97.668 58.2747 97.6252 58.2747 97.5586C58.2799 97.424 58.2974 97.2901 58.3271 97.1587C58.4862 96.5139 58.7261 95.8918 59.0411 95.3071C59.7229 94.0396 60.5044 92.8283 61.3783 91.6847L61.4116 91.6466C61.5196 91.4972 61.5788 91.3181 61.5812 91.1337C61.5835 90.9494 61.5288 90.7688 61.4246 90.6167C61.3205 90.4646 61.1718 90.3484 60.9991 90.284C60.8264 90.2195 60.6379 90.21 60.4596 90.2567C59.8455 90.4376 59.1887 90.6042 58.5556 90.7327C57.9568 90.8644 57.3456 90.9314 56.7325 90.9326L56.5135 90.9088V90.7708V90.2662C56.5135 89.5856 56.5135 88.9144 56.5135 88.2385C56.5135 86.8866 56.6087 85.53 56.7468 84.183C56.8813 82.8251 57.1007 81.477 57.4037 80.1465C56.8178 81.4003 56.3585 82.7094 56.0328 84.0544C55.6973 85.4032 55.4493 86.7721 55.2902 88.1528C55.1998 88.843 55.1474 89.5332 55.0998 90.2282L55.0713 90.747V91.004C55.0674 91.0547 55.0674 91.1057 55.0713 91.1564C55.0724 91.2656 55.0868 91.3743 55.1141 91.48C55.1768 91.7003 55.3006 91.8983 55.4711 92.0512C55.6016 92.1658 55.7494 92.259 55.909 92.3273C56.1349 92.4173 56.3718 92.4766 56.6135 92.5034C57.2977 92.565 57.9868 92.541 58.6651 92.432C58.2319 93.0746 57.8273 93.741 57.4465 94.4455C57.043 95.1772 56.7358 95.9579 56.5326 96.7684C56.4823 97.002 56.4505 97.2391 56.4374 97.4776C56.4302 97.6092 56.4302 97.7411 56.4374 97.8727L56.4659 98.0869V98.1916C56.4773 98.2551 56.4949 98.3172 56.5183 98.3773C56.5487 98.4753 56.5902 98.5695 56.6421 98.6581C56.6897 98.7438 56.7277 98.7962 56.7658 98.8533C56.8365 98.9585 56.9145 99.0587 56.9991 99.1532C57.1381 99.3196 57.2858 99.4785 57.4417 99.6292C58.5828 100.668 59.7879 101.635 61.0498 102.523C62.2731 103.409 63.5298 104.246 64.7817 105.079C66.0335 105.912 67.2997 106.717 68.5897 107.507C69.8796 108.297 71.1458 109.083 72.4405 109.844C75.0252 111.372 77.6432 112.848 80.3135 114.223C77.8383 112.41 75.406 110.658 72.9689 108.916ZM56.4707 91.0992C56.4707 91.0992 56.4707 91.123 56.4707 91.1278C56.4707 91.1326 56.4707 91.1183 56.4707 91.0992Z" fill="#E0E0E0"/>
<path d="M79.733 116.565C79.6235 118.779 79.3855 120.983 79.138 123.182C78.8905 125.381 78.5906 127.575 78.424 129.77C78.324 130.869 78.2574 131.969 78.2526 133.064C78.2323 134.155 78.3329 135.245 78.5525 136.315C78.7922 137.387 79.1365 138.433 79.5807 139.437C79.9928 140.46 80.5935 141.397 81.3514 142.198C80.9207 141.845 80.5438 141.432 80.2328 140.97C79.9115 140.515 79.6236 140.038 79.3712 139.542C78.8773 138.539 78.4834 137.49 78.1955 136.41C77.9313 135.319 77.805 134.2 77.8195 133.078C77.8195 131.959 77.8623 130.85 77.9528 129.746C78.1574 127.532 78.4288 125.338 78.7762 123.149C79.1237 120.959 79.4283 118.76 79.733 116.565Z" fill="#E0E0E0"/>
<path d="M87.8571 91.8986C87.7176 91.5194 87.5305 91.1595 87.3002 90.8276C86.9043 90.2513 86.46 89.7099 85.9721 89.2092C85.4961 88.7332 85.0201 88.2572 84.5156 87.8383C84.011 87.4194 83.4588 86.9434 82.9162 86.5198C83.0267 86.4819 83.1347 86.4374 83.2399 86.3865C83.3208 86.3526 83.3974 86.3095 83.4684 86.258C83.5558 86.2017 83.6358 86.1345 83.7064 86.0581C83.8888 85.8767 84.0031 85.638 84.03 85.3821C84.046 85.2483 84.0363 85.1126 84.0015 84.9823C83.9886 84.9264 83.9695 84.8721 83.9444 84.8205L83.8825 84.6919C83.8094 84.5678 83.7283 84.4486 83.6397 84.3349C83.4779 84.135 83.3113 83.9541 83.1637 83.7828C82.8305 83.4448 82.4878 83.1354 82.1451 82.8308C81.4438 82.2374 80.7298 81.6646 80.0031 81.1124C79.2748 80.565 78.537 80.0319 77.7754 79.5273L79.6413 81.517C80.2601 82.1787 80.8789 82.8403 81.4644 83.5162C81.7595 83.8494 82.0546 84.1874 82.3164 84.5301C82.4454 84.6927 82.5646 84.8627 82.6734 85.0394C82.6967 85.076 82.7174 85.1142 82.7353 85.1537H82.6972C82.5433 85.2056 82.3833 85.2376 82.2212 85.2489C81.8223 85.2869 81.4206 85.2869 81.0217 85.2489C80.8622 85.2336 80.7019 85.2697 80.5643 85.3519C80.4267 85.4341 80.319 85.5581 80.2568 85.7058C80.1946 85.8535 80.1813 86.0172 80.2187 86.1731C80.2561 86.3289 80.3423 86.4687 80.4648 86.5721L80.5172 86.6197C81.4692 87.4242 82.4545 88.2524 83.3732 89.1283C83.8492 89.5614 84.2585 90.0136 84.6774 90.4611C85.0831 90.8885 85.451 91.3504 85.777 91.8415C85.9117 92.0409 86.0234 92.2548 86.1102 92.4793C86.1592 92.7044 86.1831 92.9343 86.1816 93.1647C86.1836 93.7673 86.1534 94.3695 86.0911 94.9688C85.9674 96.2064 85.7436 97.4583 85.5247 98.7054C85.3057 99.9525 85.0487 101.204 84.7583 102.451C84.468 103.699 84.1776 104.936 83.8587 106.174C83.2638 108.669 82.4384 111.104 81.393 113.447C82.2091 112.419 82.9053 111.301 83.4684 110.115C84.0586 108.954 84.5584 107.735 85.0296 106.531C85.5009 105.327 85.9007 104.075 86.2863 102.832C86.6718 101.59 86.9812 100.319 87.2764 99.0243C87.5529 97.7617 87.7658 96.486 87.9142 95.202C88.0004 94.5201 88.0402 93.833 88.0332 93.1457C88.0336 92.7238 87.9744 92.3039 87.8571 91.8986ZM82.7734 85.2346V85.2584C82.7747 85.2425 82.7747 85.2266 82.7734 85.2108V85.2346Z" fill="#E0E0E0"/>
<path d="M54.5332 115.67C54.5332 115.67 63.5486 117.151 69.7319 115.385V112.167C63.5439 113.938 54.5332 112.457 54.5332 112.457V115.67Z" fill="#E0E0E0"/>
<path d="M31.8902 123.033C33.8465 111.804 35.7458 102.541 38.359 94.4726C39.8965 89.7126 43.595 87.0565 49.2309 84.6289C55.2999 88.951 52.739 102.469 51.8822 105.635L47.1222 124.851C47.1222 124.851 52.3106 129.035 57.8417 133.09C62.516 136.518 65.6624 138.574 71.1697 139.226C76.677 139.878 78.9237 139.702 81.8035 140.944C83.3363 141.611 86.8301 143.153 88.0248 143.753C89.2196 144.353 91.3569 146.514 93.3323 147.965C95.1934 149.446 92.8563 150.269 91.4283 149.869C89.5243 149.317 88.3771 148.494 87.0871 147.766C85.8686 147.08 84.6405 146.814 83.3648 146.338C83.7719 147.755 84.0366 149.209 84.155 150.679C84.155 151.474 84.3359 152.435 83.6457 153.016C83.1296 153.327 82.5696 153.558 81.9844 153.701C81.9701 153.988 81.8536 154.26 81.656 154.468C81.2447 154.769 80.7334 154.9 80.228 154.834C79.956 154.812 79.6857 154.772 79.4188 154.715C79.3825 154.966 79.2813 155.204 79.1252 155.404C78.9691 155.605 78.7635 155.761 78.5287 155.858C77.4321 156.203 76.2624 156.244 75.1443 155.977C74.9777 155.91 73.7163 155.234 73.345 155.025C72.8119 154.748 72.3359 154.591 72.1027 154.244C71.8694 153.896 72.5787 152.878 73.2498 152.773C73.9697 152.701 74.6966 152.747 75.4013 152.911C75.112 152.322 74.8992 151.698 74.7683 151.055C74.1828 150.103 69.9464 151.055 66.2003 150.426C63.3443 149.95 61.3022 147.237 60.0123 146.661C51.8822 142.987 45.618 140.421 37.3499 135.432C29.8005 130.901 30.8906 128.859 31.8902 123.033Z" fill="#FFA8A7"/>
<path d="M84.1173 146.581C83.6793 145.51 83.0082 144.23 82.1895 143.935C82.6959 144.669 83.0979 145.47 83.3842 146.315C83.6317 146.419 83.8745 146.5 84.1173 146.581Z" fill="#F28F8F"/>
<path d="M82.0033 153.693C82.1293 152.92 82.1533 152.134 82.0747 151.356C82.016 150.576 81.9143 149.801 81.7701 149.033C81.6474 148.254 81.4349 147.492 81.137 146.762C80.845 146.018 80.3503 145.37 79.709 144.892C79.9773 145.168 80.1933 145.49 80.3468 145.844C80.5266 146.18 80.6748 146.532 80.7895 146.896C81.0149 147.625 81.1883 148.369 81.3083 149.123C81.4559 149.88 81.5797 150.637 81.7082 151.399C81.8518 152.157 81.9503 152.923 82.0033 153.693Z" fill="#F28F8F"/>
<path d="M79.4573 154.703C79.5382 153.939 79.5382 153.168 79.4573 152.404C79.3884 151.639 79.274 150.879 79.1146 150.128C78.957 149.375 78.747 148.634 78.4863 147.91C78.2007 147.21 77.9341 146.43 77.3105 145.944C77.5446 146.24 77.7192 146.577 77.8246 146.939C77.9531 147.291 78.0626 147.653 78.1578 148.015C78.3482 148.748 78.5196 149.481 78.6719 150.224C78.9861 151.709 79.2764 153.189 79.4573 154.703Z" fill="#F28F8F"/>
<path d="M73.3008 152.798C73.6224 152.803 73.9422 152.848 74.2528 152.931C74.5574 153.003 74.7764 153.16 75.1619 153.279L75.0049 153.031C74.9845 153.193 75.0058 153.356 75.0667 153.507C75.1179 153.637 75.1921 153.756 75.2857 153.86C75.4556 154.061 75.6806 154.208 75.9331 154.283C75.7812 154.102 75.6503 153.904 75.5427 153.693C75.501 153.596 75.4691 153.496 75.4475 153.393C75.4366 153.306 75.4366 153.218 75.4475 153.131L75.4713 152.955L75.2905 152.879C75.0037 152.771 74.7018 152.708 74.3956 152.693C74.0283 152.62 73.6475 152.656 73.3008 152.798Z" fill="#F28F8F"/>
<path d="M49.3552 84.0781C41.7392 87.6719 40.354 88.919 38.074 93.0079C35.794 97.0967 34.6468 102.285 33.0903 111.22C31.6337 119.588 29.6583 127.632 30.7912 130.203C31.9241 132.773 33.0046 133.249 36.9792 135.776C40.9538 138.304 50.707 142.474 50.707 142.474C50.707 142.474 50.8498 138.78 52.8633 136.286C55.9145 132.535 57.828 133.073 57.828 133.073L48.1557 124.595C48.1557 124.595 52.2826 107.155 53.306 103.037C54.3294 98.9198 55.6908 87.5862 49.3552 84.0781Z" fill="#EBEBEB"/>
<path opacity="0.2" d="M86.1559 209.478L111.017 195.16C111.998 194.594 111.998 193.675 111.017 193.109L75.1698 172.374C74.6197 172.095 74.0114 171.949 73.3944 171.949C72.7774 171.949 72.169 172.095 71.6189 172.374L46.7764 186.702C45.7959 187.268 45.7959 188.187 46.7764 188.753L82.6192 209.488C83.1685 209.763 83.7745 209.905 84.3887 209.903C85.0029 209.902 85.6081 209.756 86.1559 209.478Z" fill="#BA68C8"/>
<path d="M105.895 194.151L83.8614 206.594L50.0273 187.178L72.0566 174.735L105.895 194.151Z" fill="#BA68C8"/>
<path opacity="0.6" d="M105.895 194.151L83.8614 206.594L50.0273 187.178L72.0566 174.735L105.895 194.151Z" fill="black"/>
<path d="M83.6254 205.684L104.917 193.589C104.389 192.085 104.441 191.633 105.026 189.634L83.8634 201.605C83.8634 201.605 83.4779 201.577 83.6254 205.684Z" fill="#F5F5F5"/>
<path d="M84.8933 199.968C84.3316 200.333 83.8633 200.825 83.5261 201.403C83.1888 201.982 82.9919 202.632 82.9512 203.3V205.918C82.9512 207.151 83.8223 207.651 84.8933 207.032L105.89 195.108V194.156L85.1598 205.861C84.5125 206.228 83.9936 205.928 83.9936 205.19V202.857C84.0167 202.455 84.1343 202.063 84.3369 201.714C84.5395 201.365 84.8214 201.068 85.1598 200.849L105.866 189.144V188.021L84.8933 199.968Z" fill="#BA68C8"/>
<path opacity="0.5" d="M84.8933 199.968C84.3316 200.333 83.8633 200.825 83.5261 201.403C83.1888 201.982 82.9919 202.632 82.9512 203.3V205.918C82.9512 207.151 83.8223 207.651 84.8933 207.032L105.89 195.108V194.156L85.1598 205.861C84.5125 206.228 83.9936 205.928 83.9936 205.19V202.857C84.0167 202.455 84.1343 202.063 84.3369 201.714C84.5395 201.365 84.8214 201.068 85.1598 200.849L105.866 189.144V188.021L84.8933 199.968Z" fill="black"/>
<path d="M105.896 188.02L72.0571 168.604L51.0608 180.532C50.4991 180.897 50.0309 181.389 49.6936 181.967C49.3563 182.546 49.1594 183.196 49.1187 183.864V186.482C49.0936 186.722 49.1328 186.965 49.2324 187.185C49.3319 187.405 49.4882 187.594 49.6851 187.734L83.524 207.15C83.3254 207.012 83.1676 206.822 83.0672 206.602C82.9667 206.382 82.9272 206.139 82.9528 205.898V203.28C82.994 202.611 83.1916 201.961 83.5298 201.382C83.8679 200.804 84.3371 200.313 84.8996 199.948L105.896 188.02Z" fill="#BA68C8"/>
<path opacity="0.35" d="M105.896 188.02L72.0571 168.604L51.0608 180.532C50.4991 180.897 50.0309 181.389 49.6936 181.967C49.3563 182.546 49.1594 183.196 49.1187 183.864V186.482C49.0936 186.722 49.1328 186.965 49.2324 187.185C49.3319 187.405 49.4882 187.594 49.6851 187.734L83.524 207.15C83.3254 207.012 83.1676 206.822 83.0672 206.602C82.9667 206.382 82.9272 206.139 82.9528 205.898V203.28C82.994 202.611 83.1916 201.961 83.5298 201.382C83.8679 200.804 84.3371 200.313 84.8996 199.948L105.896 188.02Z" fill="black"/>
<path d="M83.5181 201.41C83.1672 201.985 82.9704 202.641 82.9469 203.314V205.932C82.9213 206.173 82.9608 206.416 83.0613 206.636C83.1618 206.856 83.3196 207.046 83.5181 207.184L49.6793 187.768C49.4823 187.628 49.3261 187.439 49.2265 187.219C49.127 186.999 49.0877 186.756 49.1128 186.516V183.898C49.1351 183.225 49.3302 182.57 49.6793 181.994L83.5181 201.41Z" fill="#BA68C8"/>
<path opacity="0.45" d="M83.5181 201.41C83.1672 201.985 82.9704 202.641 82.9469 203.314V205.932C82.9213 206.173 82.9608 206.416 83.0613 206.636C83.1618 206.856 83.3196 207.046 83.5181 207.184L49.6793 187.768C49.4823 187.628 49.3261 187.439 49.2265 187.219C49.127 186.999 49.0877 186.756 49.1128 186.516V183.898C49.1351 183.225 49.3302 182.57 49.6793 181.994L83.5181 201.41Z" fill="black"/>
<path d="M54.2642 184.587C53.6311 187.329 53.6407 188.395 54.2642 190.404L55.8779 191.356C55.2543 189.347 55.2448 188.276 55.8779 185.539L54.2642 184.587Z" fill="#BA68C8"/>
<path d="M76.4498 197.341C75.8167 200.078 75.8262 201.116 76.4498 203.124L78.0586 204.052C77.4398 202.044 77.4303 201.011 78.0586 198.274L76.4498 197.341Z" fill="#BA68C8"/>
<path d="M110.343 187.716L88.3087 200.154L54.4746 180.738L76.5039 168.295L110.343 187.716Z" fill="#BA68C8"/>
<path opacity="0.4" d="M110.343 187.716L88.3087 200.154L54.4746 180.738L76.5039 168.295L110.343 187.716Z" fill="black"/>
<path d="M88.0578 199.244L109.345 187.149C108.816 185.65 108.869 184.979 109.454 182.979L88.2958 194.951C88.2958 194.951 87.9198 195.16 88.0578 199.244Z" fill="#F5F5F5"/>
<path d="M89.3394 193.313C88.7769 193.677 88.3077 194.169 87.9696 194.747C87.6314 195.326 87.4338 195.976 87.3926 196.645V199.501C87.3926 200.734 88.2637 201.233 89.3394 200.619L110.336 188.691V187.739L89.6012 199.439C88.9586 199.81 88.435 199.51 88.435 198.768V196.226C88.459 195.819 88.58 195.423 88.7878 195.072C88.9956 194.721 89.2843 194.425 89.6298 194.208L110.336 182.503V181.403L89.3394 193.313Z" fill="#BA68C8"/>
<path opacity="0.25" d="M89.3394 193.313C88.7769 193.677 88.3077 194.169 87.9696 194.747C87.6314 195.326 87.4338 195.976 87.3926 196.645V199.501C87.3926 200.734 88.2637 201.233 89.3394 200.619L110.336 188.691V187.739L89.6012 199.439C88.9586 199.81 88.435 199.51 88.435 198.768V196.226C88.459 195.819 88.58 195.423 88.7878 195.072C88.9956 194.721 89.2843 194.425 89.6298 194.208L110.336 182.503V181.403L89.3394 193.313Z" fill="black"/>
<path d="M110.337 181.385L76.5033 161.969L55.507 173.897C54.9444 174.262 54.4752 174.753 54.1371 175.332C53.799 175.91 53.6013 176.56 53.5601 177.229V180.062C53.5349 180.301 53.5746 180.544 53.6751 180.763C53.7756 180.983 53.9331 181.171 54.1313 181.309L87.9654 200.725C87.768 200.586 87.611 200.398 87.5106 200.179C87.4102 199.959 87.37 199.717 87.3942 199.478V196.622C87.4349 195.953 87.6318 195.303 87.9691 194.725C88.3064 194.146 88.7746 193.654 89.3363 193.29L110.337 181.385Z" fill="#BA68C8"/>
<path d="M87.9654 194.756C87.615 195.332 87.4184 195.987 87.3942 196.66V199.516C87.37 199.756 87.4102 199.998 87.5106 200.218C87.611 200.437 87.768 200.625 87.9654 200.764L54.1313 181.348C53.9331 181.21 53.7756 181.022 53.6751 180.802C53.5746 180.583 53.5349 180.34 53.5601 180.1V177.268C53.5851 176.595 53.7817 175.94 54.1313 175.364L87.9654 194.756Z" fill="#BA68C8"/>
<path opacity="0.15" d="M87.9654 194.756C87.615 195.332 87.4184 195.987 87.3942 196.66V199.516C87.37 199.756 87.4102 199.998 87.5106 200.218C87.611 200.437 87.768 200.625 87.9654 200.764L54.1313 181.348C53.9331 181.21 53.7756 181.022 53.6751 180.802C53.5746 180.583 53.5349 180.34 53.5601 180.1V177.268C53.5851 176.595 53.7817 175.94 54.1313 175.364L87.9654 194.756Z" fill="black"/>
<path d="M58.6981 177.934C58.0698 180.675 58.0793 181.961 58.6981 183.969L60.3118 184.897C59.6882 182.889 59.6787 181.604 60.3118 178.867L58.6981 177.934Z" fill="#BA68C8"/>
<path d="M80.8915 190.706C80.2632 193.443 80.2727 194.685 80.8915 196.694L82.5051 197.622C81.8816 195.614 81.8721 194.366 82.5051 191.625L80.8915 190.706Z" fill="#BA68C8"/>
<g opacity="0.4">
<path d="M58.6981 177.935C58.0698 180.676 58.0793 181.962 58.6981 183.97L60.3118 184.898C59.6882 182.89 59.6787 181.605 60.3118 178.868L58.6981 177.935Z" fill="white"/>
<path d="M80.8896 190.705C80.2612 193.442 80.2708 194.684 80.8896 196.693L82.5032 197.621C81.8796 195.613 81.8701 194.366 82.5032 191.624L80.8896 190.705Z" fill="white"/>
</g>
<path opacity="0.2" d="M156.098 174.511L129.728 189.743L126.072 190.486C126.051 190.489 126.029 190.487 126.01 190.479C125.99 190.47 125.973 190.457 125.961 190.44C125.948 190.422 125.941 190.402 125.94 190.381C125.938 190.359 125.943 190.338 125.953 190.319L127.095 188.225L153.47 172.993C154.189 172.574 156.66 174.183 156.098 174.511Z" fill="black"/>
<path d="M153.562 171.473C153.58 171.814 153.678 172.145 153.849 172.44C154.019 172.736 154.257 172.986 154.542 173.172C154.708 173.282 154.909 173.324 155.104 173.291C155.075 173.325 155.039 173.352 154.999 173.372L155.233 173.239L155.266 173.211L155.314 173.177L155.337 173.149L155.361 173.12C155.395 173.075 155.422 173.025 155.442 172.973V172.925C155.442 172.925 155.442 172.896 155.442 172.882C155.462 172.803 155.472 172.721 155.471 172.639C155.452 172.3 155.353 171.969 155.183 171.675C155.012 171.381 154.775 171.13 154.49 170.945C154.359 170.861 154.208 170.815 154.052 170.812H153.986H153.928H153.895H153.857H153.819L153.614 170.931C153.646 170.911 153.682 170.898 153.719 170.892C153.655 170.974 153.608 171.067 153.581 171.167C153.554 171.267 153.548 171.371 153.562 171.473Z" fill="#BA68C8"/>
<path d="M128.223 185.64L129.608 188.02L129.841 187.886L154.998 173.354C155.037 173.334 155.073 173.307 155.102 173.273C155.232 173.119 155.297 172.922 155.283 172.721C155.265 172.381 155.167 172.051 154.996 171.756C154.826 171.462 154.588 171.211 154.303 171.026C154.171 170.944 154.02 170.898 153.865 170.893C153.824 170.888 153.782 170.888 153.741 170.893C153.704 170.899 153.668 170.912 153.636 170.931L128.223 185.64Z" fill="#F0F0F0"/>
<path d="M128.92 185.705C128.377 185.396 127.939 185.648 127.939 186.272C127.958 186.612 128.056 186.943 128.227 187.239C128.397 187.534 128.635 187.785 128.92 187.971C129.458 188.281 129.901 188.028 129.901 187.405C129.882 187.064 129.783 186.733 129.613 186.438C129.442 186.143 129.205 185.892 128.92 185.705Z" fill="#BA68C8"/>
<path d="M126.809 187.162V187.134L128.061 185.763V185.734C128.173 185.646 128.311 185.598 128.454 185.598C128.596 185.598 128.735 185.646 128.847 185.734C129.132 185.921 129.369 186.172 129.539 186.467C129.71 186.762 129.808 187.093 129.827 187.433C129.846 187.572 129.819 187.712 129.75 187.833C129.681 187.954 129.574 188.05 129.446 188.105H129.375L127.561 188.5C127.452 188.519 127.339 188.495 127.247 188.433C127.087 188.328 126.953 188.188 126.855 188.023C126.758 187.858 126.7 187.672 126.686 187.481C126.686 187.363 126.73 187.249 126.809 187.162Z" fill="#E0E0E0"/>
<path d="M142.822 178.241H142.855C142.894 178.229 142.934 178.227 142.973 178.232C143.013 178.238 143.05 178.252 143.084 178.274C143.185 178.34 143.269 178.43 143.33 178.535C143.39 178.64 143.425 178.758 143.431 178.879C143.435 178.917 143.43 178.957 143.416 178.993C143.402 179.029 143.379 179.062 143.35 179.088L143.308 179.117L128.428 187.685L127.447 187.118L142.822 178.241Z" fill="#455A64"/>
<path d="M129.808 186.885L128.428 187.685L127.447 187.119L129.318 186.038C129.54 186.282 129.708 186.571 129.808 186.885Z" fill="#37474F"/>
<path d="M126.32 187.814L127.453 186.567L127.481 186.534C127.563 186.474 127.661 186.442 127.762 186.442C127.863 186.442 127.961 186.474 128.043 186.534C128.244 186.666 128.412 186.843 128.532 187.051C128.652 187.26 128.721 187.493 128.733 187.734C128.743 187.83 128.724 187.928 128.677 188.013C128.63 188.098 128.558 188.166 128.471 188.21H128.429L126.767 188.571C126.706 188.58 126.643 188.567 126.591 188.533C126.499 188.473 126.423 188.392 126.368 188.297C126.314 188.202 126.282 188.095 126.277 187.986C126.27 187.925 126.285 187.865 126.32 187.814Z" fill="#BA68C8"/>
<path opacity="0.1" d="M126.32 187.814L127.453 186.567L127.481 186.534C127.563 186.474 127.661 186.442 127.762 186.442C127.863 186.442 127.961 186.474 128.043 186.534C128.244 186.666 128.412 186.843 128.532 187.051C128.652 187.26 128.721 187.493 128.733 187.734C128.743 187.83 128.724 187.928 128.677 188.013C128.63 188.098 128.558 188.166 128.471 188.21H128.429L126.767 188.571C126.706 188.58 126.643 188.567 126.591 188.533C126.499 188.473 126.423 188.392 126.368 188.297C126.314 188.202 126.282 188.095 126.277 187.986C126.27 187.925 126.285 187.865 126.32 187.814Z" fill="black"/>
<path d="M126.257 188.02C126.263 188.129 126.294 188.236 126.349 188.331C126.403 188.426 126.48 188.507 126.571 188.567C126.624 188.601 126.686 188.614 126.748 188.605L127.585 188.42C127.719 188.396 127.804 188.267 127.804 188.068C127.795 187.893 127.744 187.723 127.656 187.571C127.569 187.42 127.447 187.292 127.3 187.196C127.243 187.151 127.172 187.126 127.1 187.126C127.027 187.126 126.956 187.151 126.9 187.196H126.876L126.314 187.815C126.291 187.843 126.273 187.876 126.263 187.911C126.253 187.947 126.251 187.984 126.257 188.02Z" fill="#BA68C8"/>
<path opacity="0.1" d="M126.572 187.815C126.396 187.715 126.258 187.815 126.258 187.996C126.263 188.105 126.295 188.212 126.349 188.307C126.404 188.402 126.48 188.483 126.572 188.543C126.743 188.643 126.886 188.543 126.886 188.362C126.88 188.253 126.849 188.146 126.794 188.051C126.74 187.956 126.664 187.875 126.572 187.815Z" fill="black"/>
<path d="M151.522 173.215C151.561 173.196 151.605 173.188 151.649 173.192C151.693 173.197 151.734 173.213 151.769 173.239C151.87 173.305 151.954 173.394 152.014 173.498C152.075 173.602 152.11 173.719 152.117 173.839C152.123 173.882 152.116 173.927 152.097 173.966C152.079 174.006 152.049 174.039 152.012 174.063L143.358 179.066C143.387 179.039 143.41 179.007 143.424 178.971C143.438 178.934 143.443 178.895 143.439 178.856C143.433 178.735 143.398 178.617 143.338 178.512C143.277 178.407 143.193 178.318 143.092 178.252C143.058 178.23 143.021 178.216 142.981 178.21C142.942 178.204 142.902 178.207 142.863 178.218L151.522 173.215Z" fill="#FAFAFA"/>
<path d="M151.419 173.439C151.426 173.559 151.462 173.676 151.522 173.78C151.582 173.884 151.666 173.973 151.767 174.039C151.802 174.064 151.842 174.079 151.885 174.084C151.928 174.088 151.971 174.081 152.01 174.063C152.046 174.039 152.075 174.005 152.093 173.966C152.112 173.926 152.119 173.882 152.114 173.839C152.107 173.719 152.072 173.602 152.012 173.498C151.951 173.394 151.868 173.305 151.767 173.239C151.732 173.213 151.69 173.197 151.646 173.192C151.603 173.188 151.559 173.196 151.519 173.215C151.484 173.241 151.457 173.275 151.439 173.314C151.422 173.353 151.415 173.396 151.419 173.439Z" fill="#F5F5F5"/>
<path d="M152.195 171.954L153.623 171.121H153.656C153.754 171.083 153.859 171.069 153.963 171.082C154.067 171.094 154.166 171.132 154.251 171.193C154.509 171.36 154.723 171.585 154.877 171.851C155.03 172.116 155.12 172.414 155.137 172.721C155.149 172.831 155.131 172.942 155.085 173.043C155.039 173.143 154.966 173.23 154.875 173.292L153.409 174.139C153.309 174.18 153.201 174.195 153.095 174.182C152.988 174.17 152.887 174.13 152.799 174.068C152.543 173.902 152.329 173.677 152.176 173.412C152.023 173.147 151.935 172.85 151.919 172.545C151.908 172.431 151.928 172.316 151.977 172.212C152.025 172.108 152.1 172.019 152.195 171.954Z" fill="#BA68C8"/>
<path opacity="0.05" d="M152.195 171.954L153.623 171.121H153.656C153.754 171.083 153.859 171.069 153.963 171.082C154.067 171.094 154.166 171.132 154.251 171.193C154.509 171.36 154.723 171.585 154.877 171.851C155.03 172.116 155.12 172.414 155.137 172.721C155.149 172.831 155.131 172.942 155.085 173.043C155.039 173.143 154.966 173.23 154.875 173.292L153.409 174.139C153.309 174.18 153.201 174.195 153.095 174.182C152.988 174.17 152.887 174.13 152.799 174.068C152.543 173.902 152.329 173.677 152.176 173.412C152.023 173.147 151.935 172.85 151.919 172.545C151.908 172.431 151.928 172.316 151.977 172.212C152.025 172.108 152.1 172.019 152.195 171.954Z" fill="black"/>
<path opacity="0.1" d="M152.838 172.006C152.362 171.725 151.957 171.949 151.957 172.515C151.973 172.821 152.061 173.118 152.214 173.383C152.367 173.648 152.581 173.872 152.838 174.038C153.314 174.319 153.718 174.095 153.718 173.529C153.701 173.224 153.613 172.927 153.46 172.662C153.307 172.398 153.094 172.173 152.838 172.006Z" fill="black"/>
<path d="M125.858 188.342L126.453 187.98C126.471 187.969 126.491 187.964 126.512 187.964C126.533 187.964 126.553 187.969 126.572 187.98C126.619 188.011 126.658 188.052 126.686 188.101C126.714 188.15 126.73 188.204 126.733 188.261C126.735 188.281 126.731 188.301 126.723 188.319C126.715 188.337 126.702 188.353 126.686 188.365L126.091 188.727C126.055 188.744 126.016 188.754 125.977 188.756C125.916 188.754 125.857 188.729 125.815 188.686C125.772 188.642 125.748 188.583 125.748 188.522C125.75 188.486 125.76 188.45 125.78 188.418C125.799 188.386 125.825 188.36 125.858 188.342Z" fill="#455A64"/>
<path d="M125.82 188.366L125.848 188.342C125.865 188.335 125.883 188.331 125.901 188.331C125.919 188.331 125.937 188.335 125.953 188.342C126 188.374 126.039 188.415 126.067 188.464C126.095 188.513 126.111 188.567 126.115 188.623C126.117 188.643 126.113 188.663 126.105 188.682C126.096 188.7 126.084 188.716 126.067 188.728H126.044C126.018 188.733 125.993 188.733 125.967 188.728C125.922 188.727 125.877 188.712 125.84 188.686C125.802 188.66 125.773 188.623 125.756 188.58C125.74 188.537 125.736 188.491 125.745 188.446C125.755 188.401 125.778 188.36 125.81 188.328L125.82 188.366Z" fill="#263238"/>
<path opacity="0.2" d="M141.094 186.958C141.36 187.677 142.127 188.125 143.407 188.291L166.255 174.987L168.635 172.607C168.663 172.577 168.681 172.539 168.685 172.498C168.689 172.457 168.679 172.416 168.658 172.381C168.636 172.346 168.603 172.32 168.565 172.305C168.526 172.291 168.484 172.29 168.445 172.302L164.08 173.73L141.094 186.958Z" fill="black"/>
<path d="M164.227 172.103L168.111 171.341C168.135 171.338 168.16 171.341 168.183 171.352C168.205 171.363 168.224 171.381 168.236 171.402C168.248 171.424 168.254 171.449 168.252 171.473C168.25 171.498 168.24 171.522 168.225 171.541L165.588 174.526L164.227 172.103Z" fill="#FFA8A7"/>
<path d="M168.238 171.541C168.254 171.522 168.263 171.498 168.265 171.473C168.267 171.449 168.261 171.424 168.249 171.402C168.237 171.381 168.218 171.363 168.196 171.352C168.174 171.341 168.149 171.338 168.124 171.341L167.367 171.489C167.471 171.554 167.555 171.647 167.61 171.757C167.664 171.867 167.687 171.99 167.677 172.112V172.179L168.238 171.541Z" fill="#263238"/>
<path d="M146.503 185.459L146.822 185.278L147.208 185.059L165.601 174.525C165.729 174.097 165.69 173.636 165.491 173.235C165.389 172.96 165.222 172.713 165.004 172.515C164.786 172.318 164.524 172.176 164.239 172.103L145.856 182.632L145.123 183.055C145.609 182.808 146.994 185.207 146.503 185.459Z" fill="#455A64"/>
<path d="M147.715 184.769L148.424 184.359C148.634 184.25 148.515 183.736 148.267 183.203C147.943 182.494 147.315 181.813 147.03 181.956L146.506 182.26L146.32 182.37C146.596 182.222 147.239 182.908 147.563 183.612C147.796 184.121 147.915 184.621 147.734 184.755L147.715 184.769Z" fill="#EBEBEB"/>
<path d="M147.891 184.687C148.367 184.43 146.982 182.031 146.496 182.307L145.787 182.712C146.263 182.455 147.691 184.854 147.182 185.116L147.891 184.687Z" fill="#BA68C8"/>
<path d="M146.503 185.46L147.208 185.06C147.684 184.807 146.361 182.48 145.856 182.632H145.823L145.123 183.042C145.609 182.808 146.994 185.207 146.503 185.46Z" fill="#EBEBEB"/>
<path opacity="0.15" d="M168.248 171.407L168.119 171.341L165.302 172.883L146.133 183.874C146.104 183.831 146.085 183.826 146.066 183.874C146.481 184.517 146.795 185.33 146.519 185.473L146.838 185.292L147.223 185.073L165.616 174.54L168.253 171.555C168.268 171.533 168.276 171.507 168.275 171.48C168.274 171.454 168.265 171.428 168.248 171.407Z" fill="black"/>
<path d="M143.526 187.163L146.501 185.459C146.711 185.349 146.597 184.84 146.354 184.312C146.035 183.602 145.402 182.912 145.121 183.055L142.132 184.764C141.537 185.107 142.084 186.397 142.746 186.973C142.841 187.079 142.967 187.155 143.107 187.189C143.246 187.223 143.392 187.214 143.526 187.163Z" fill="#F28F8F"/>
<path opacity="0.1" d="M143.704 186.24C143.628 185.918 143.479 185.618 143.268 185.363C143.058 185.108 142.791 184.905 142.49 184.769C142.416 184.742 142.336 184.733 142.258 184.744C142.18 184.755 142.106 184.785 142.042 184.831C141.595 185.245 142.119 186.43 142.742 186.973C142.836 187.079 142.959 187.154 143.095 187.188C143.232 187.223 143.376 187.216 143.508 187.168C143.756 187.04 143.818 186.697 143.704 186.24Z" fill="black"/>
<path opacity="0.2" d="M201.213 156.69C201.115 157.166 200.921 157.616 200.641 158.014C200.087 158.805 199.358 159.457 198.509 159.918C194.82 162.05 188.837 162.05 185.143 159.918C184.295 159.455 183.565 158.804 183.01 158.014C182.736 157.615 182.545 157.165 182.449 156.69C182.12 155.091 183.02 153.42 185.148 152.192C188.841 150.06 194.825 150.06 198.514 152.192C200.637 153.42 201.541 155.091 201.213 156.69Z" fill="#BA68C8"/>
<path d="M199.111 149.581H184.355L185.879 155.936C185.993 156.702 186.559 157.454 187.573 158.04C189.868 159.363 193.59 159.363 195.884 158.04C196.979 157.407 197.545 156.588 197.598 155.764L199.111 149.581Z" fill="#E0E0E0"/>
<path d="M199.883 147.695C199.803 148.106 199.641 148.496 199.407 148.842C198.925 149.527 198.291 150.09 197.555 150.489C194.352 152.336 189.159 152.336 185.955 150.489C185.219 150.09 184.586 149.527 184.103 148.842C183.869 148.496 183.707 148.106 183.627 147.695C183.342 146.305 184.127 144.839 185.974 143.792C189.178 141.94 194.371 141.94 197.574 143.792C199.383 144.858 200.168 146.305 199.883 147.695Z" fill="#FAFAFA"/>
<path d="M199.389 148.841C198.907 149.526 198.273 150.089 197.537 150.488C194.334 152.335 189.14 152.335 185.937 150.488C185.201 150.089 184.567 149.526 184.085 148.841C183.851 148.495 183.689 148.105 183.609 147.694L183.976 150.198C184.142 151.202 184.89 152.183 186.227 152.954C189.283 154.715 194.229 154.715 197.285 152.954C198.603 152.193 199.351 151.226 199.532 150.231V150.103L199.884 147.694C199.798 148.106 199.63 148.497 199.389 148.841Z" fill="#EBEBEB"/>
<path d="M196.59 144.349C193.92 142.807 189.593 142.807 186.923 144.349C185.414 145.22 184.757 146.401 184.957 147.538C185.109 148.409 185.766 149.261 186.923 149.918C189.593 151.461 193.92 151.461 196.59 149.918C197.747 149.252 198.404 148.4 198.556 147.538C198.737 146.401 198.085 145.22 196.59 144.349Z" fill="#E0E0E0"/>
<path d="M185.383 148.594C185.783 149.146 186.302 149.602 186.901 149.927C189.572 151.469 193.898 151.469 196.569 149.927C197.167 149.602 197.684 149.146 198.083 148.594C198.083 147.671 197.445 146.752 196.226 146.048C193.746 144.62 189.724 144.62 187.244 146.048C186.025 146.752 185.407 147.671 185.383 148.594Z" fill="#BA68C8"/>
<path d="M189.671 138.646C189.542 134.876 188.119 129.016 186.758 126.65C189.33 129.821 190.83 133.726 191.042 137.803L189.671 138.646Z" fill="#263238"/>
<path d="M193.764 146.787C193.887 144.164 195.82 143.312 197.991 144.164C199.533 144.773 201.76 147.063 202.465 150.719C201.775 148.834 196.767 142.479 193.764 146.787Z" fill="#455A64"/>
<path d="M193.879 148.037C194.002 147.085 194.883 145.781 196.416 146.095C197.948 146.409 201.556 149.227 203.08 153.854C202.804 150.75 201.794 148.075 199.724 146.338C197.653 144.6 196.14 144.338 194.626 145.238C193.331 146.019 193.879 148.037 193.879 148.037Z" fill="#37474F"/>
<path d="M191.127 149.313C189.88 145.143 189.699 137.413 190.894 133.205C192.593 127.279 196.13 124.685 198.743 124.057C196.253 125.094 193.626 128.893 192.888 132.625C192.15 136.356 192.574 149.332 192.574 149.332L191.127 149.313Z" fill="#455A64"/>
<path d="M192.15 145.249C192.312 142.916 193.674 137.742 196.368 135.657C197.327 134.899 198.532 134.521 199.752 134.596C200.972 134.672 202.122 135.196 202.979 136.067C202.257 135.515 201.369 135.222 200.46 135.236C199.551 135.25 198.673 135.569 197.967 136.143C196.539 137.314 195.111 140.827 194.388 144.163L192.15 145.249Z" fill="#263238"/>
<path d="M195.82 136.138C197.515 134.476 198.838 133.353 200.942 133.462C203.046 133.572 205.854 136.509 207.482 142.735C205.802 138.779 203.622 135.305 200.133 134.933C199.37 134.827 198.593 134.879 197.851 135.086C197.109 135.293 196.418 135.651 195.82 136.138Z" fill="#37474F"/>
<path d="M176.873 132.445C180.196 132.311 183.452 133.404 186.022 135.514C188.591 137.625 190.296 140.607 190.81 143.892L188.944 143.592C188.944 143.592 187.393 138.69 184.689 136.138C182.309 133.882 180.533 132.982 176.873 132.445Z" fill="#455A64"/>
<path d="M191.271 142.72C191.414 140.616 190.424 136.194 187.206 133.2C183.988 130.206 182.832 129.549 179.523 128.702C182.203 130.089 184.553 132.037 186.411 134.414C188.539 137.194 188.634 140.488 188.634 141.73C188.996 142.72 190.305 144.748 191.271 142.72Z" fill="#37474F"/>
<path d="M191.126 143.753C190.707 141.073 192.149 136.275 193.834 133.928C195.872 131.072 198.875 128.964 202.212 128.388C198.642 129.754 195.048 133.738 193.991 137.498C193.363 139.997 193.214 142.593 193.554 145.148L191.126 143.753Z" fill="#37474F"/>
<path d="M192.265 149.313C191.813 146.81 192.612 141.593 196.734 138.718C200.857 135.843 203.727 136.614 204.788 136.928C201.599 136.714 198.391 138.489 196.435 140.688C195.073 142.216 193.797 144.715 193.717 148.861L192.265 149.313Z" fill="#455A64"/>
<path d="M192.304 149.524C192.304 149.524 193.385 149.495 193.818 148.991C193.818 147.372 194.256 144.131 196.526 142.217C198.797 140.304 200.568 140.67 200.925 141.422C200.925 140.318 199.539 139.337 198.007 139.666C195.455 140.209 191.828 143.531 192.304 149.524Z" fill="#263238"/>
<path d="M196.682 140.16C198.081 139.398 199.281 138.732 200.842 139.47C200.909 139.427 201.794 139.203 202.132 139.603C203.436 141.141 203.017 144.968 200.628 148.647C201.727 145.896 201.78 140.822 199.752 140.031C198.752 139.668 197.648 139.714 196.682 140.16Z" fill="#37474F"/>
<path d="M200.842 139.47C201.47 139.755 202.746 141.959 201.927 145.03C202.698 142.711 202.403 140.479 201.118 139.398C201.023 139.411 200.931 139.435 200.842 139.47Z" fill="#263238"/>
<path d="M189.574 148.776C189.45 147.801 188.57 146.515 187.037 146.83C185.504 147.144 181.896 149.966 180.373 154.588C180.553 151.733 181.707 149.026 183.643 146.92C185.309 145.164 187.499 144.316 189.236 145.249C190.974 146.182 189.574 148.776 189.574 148.776Z" fill="#263238"/>
<path d="M188.942 142.93C187.595 141.583 186.652 140.293 184.182 140.802C181.711 141.311 180.007 144.006 179.336 147.638C179.755 146.21 181.03 143.025 183.563 142.478C186.095 141.93 187.323 142.121 188.942 142.93Z" fill="#455A64"/>
<path d="M189.576 148.777C189.223 146.397 188.319 143.012 185.791 142.874C183.264 142.736 180.489 144.331 179.332 147.634C179.922 144.621 182.493 141.746 185.173 141.741C187.852 141.736 190.489 142.317 191.127 149.31L189.576 148.777Z" fill="#37474F"/>
<path d="M187.443 138.694C186.473 137.792 185.263 137.192 183.958 136.966C183.097 136.819 181.421 136.157 179.627 137.828C177.832 139.498 175.942 143.402 176.595 146.134C176.899 143.23 180.788 135.11 187.443 138.694Z" fill="#37474F"/>
<path d="M191.484 149.552C191.484 147.348 189.875 140.36 187.333 138.58C184.153 136.357 182.025 138.252 182.025 138.252C182.663 138.047 183.339 137.995 184.001 138.099C184.662 138.203 185.29 138.461 185.833 138.851C187.476 140.056 189.008 143.568 189.594 148.776C189.828 149.041 190.121 149.249 190.448 149.384C190.776 149.518 191.13 149.576 191.484 149.552Z" fill="#263238"/>
<path d="M190.04 142.987C189.887 143.634 190.554 148.437 191.073 149.522C191.581 149.6 192.099 149.592 192.605 149.499C193.081 148.656 192.605 143.22 193.557 143.115C192.829 142.801 190.397 141.878 190.04 142.987Z" fill="#37474F"/>
<path d="M190.041 142.986C190.793 142.215 193.849 143.738 194.411 148.275C195.168 146.123 194.83 143.458 194.073 142.786C193.865 142.594 193.604 142.47 193.324 142.432C193.043 142.394 192.758 142.443 192.507 142.572C192.507 142.572 190.146 141.534 190.041 142.986Z" fill="#455A64"/>
<path d="M192.506 142.574C193.458 142.969 194.505 144.264 194.496 146.472C194.567 145.339 194.348 143.354 192.749 142.479C192.665 142.503 192.584 142.535 192.506 142.574Z" fill="#37474F"/>
<path d="M194.422 34.7477C191.68 33.9765 191.366 32.8437 191.342 32.7294C191.326 32.6784 191.326 32.6234 191.342 32.5723L191.728 31.1919C191.833 30.8207 191.728 30.0448 190.595 28.4645C190.588 28.4511 190.58 28.4384 190.571 28.4264C189.587 26.9904 189.068 25.2862 189.086 23.5452C189.104 21.8043 189.658 20.1112 190.672 18.6958C191.686 17.2805 193.111 16.2117 194.753 15.6346C196.396 15.0575 198.176 15.0001 199.853 15.4702C201.529 15.9403 203.02 16.9152 204.123 18.2623C205.226 19.6094 205.887 21.2634 206.017 22.9996C206.147 24.7357 205.74 26.4698 204.85 27.9662C203.96 29.4626 202.631 30.6487 201.043 31.3633H201.015C199.182 32.1392 198.682 32.7389 198.578 33.115L198.187 34.4906C198.173 34.5428 198.145 34.5904 198.106 34.6287C198.016 34.7477 197.169 35.5235 194.422 34.7477ZM192.009 32.6437C192.114 32.8437 192.618 33.5529 194.603 34.1146C196.588 34.6763 197.378 34.3383 197.583 34.2193L197.94 32.9484C198.159 32.182 199.039 31.5204 200.715 30.7873H200.743C202.211 30.1337 203.442 29.0437 204.267 27.6657C205.093 26.2876 205.475 24.6886 205.359 23.0861C205.244 21.4837 204.637 19.9558 203.623 18.7103C202.608 17.4648 201.234 16.5624 199.688 16.1258C198.141 15.6892 196.498 15.7396 194.982 16.2702C193.466 16.8009 192.15 17.7859 191.213 19.0913C190.276 20.3967 189.765 21.959 189.748 23.5655C189.731 25.172 190.21 26.7446 191.119 28.0694C192.185 29.5735 192.547 30.6112 192.356 31.3728L192.009 32.6437Z" fill="#455A64"/>
<path d="M193.184 39.132C190.328 38.3228 190.004 37.1613 189.976 37.0328C189.964 36.9795 189.964 36.9243 189.976 36.871L190.756 34.1102C190.776 34.0398 190.818 33.9777 190.876 33.9335C190.934 33.8892 191.005 33.8652 191.078 33.8652C191.151 33.8652 191.222 33.8892 191.28 33.9335C191.338 33.9777 191.38 34.0398 191.399 34.1102C191.399 34.1102 191.694 35.0193 194.141 35.7095C196.587 36.3997 197.32 35.7809 197.325 35.7714C197.379 35.7231 197.447 35.6934 197.519 35.6865C197.591 35.6797 197.663 35.6961 197.725 35.7333C197.787 35.7696 197.835 35.8252 197.861 35.8915C197.888 35.9578 197.892 36.031 197.873 36.0999L197.092 38.8607C197.077 38.9118 197.051 38.9589 197.016 38.9987C196.925 39.1177 196.04 39.9364 193.184 39.132ZM190.647 36.9471C190.752 37.1518 191.27 37.8991 193.365 38.4941C195.459 39.0891 196.283 38.7226 196.492 38.5989L197.063 36.6235C196.487 36.7663 195.516 36.8043 193.979 36.3664C192.441 35.9285 191.637 35.4144 191.218 34.9717L190.647 36.9471Z" fill="#455A64"/>
<path d="M193.93 32.4249L193.849 32.3868C193.809 32.3644 193.774 32.3339 193.746 32.2971C193.718 32.2603 193.699 32.2181 193.688 32.1732C193.678 32.1283 193.677 32.0817 193.686 32.0365C193.695 31.9913 193.713 31.9485 193.74 31.9108C193.74 31.9108 194.258 30.9921 194.753 27.8743C194.893 27.088 194.904 26.2842 194.787 25.4943C193.587 25.4943 192.768 24.8565 192.54 24.2519C192.491 24.1349 192.465 24.0092 192.465 23.8822C192.465 23.7551 192.49 23.6293 192.539 23.5122C192.589 23.3951 192.661 23.2891 192.752 23.2003C192.842 23.1115 192.95 23.0418 193.068 22.9953C193.282 22.9076 193.516 22.8811 193.744 22.919C193.972 22.9568 194.184 23.0574 194.358 23.2095C194.828 23.6257 195.16 24.1753 195.31 24.7851C195.491 24.749 195.67 24.6997 195.843 24.6375C196.279 24.4928 196.69 24.2826 197.062 24.0139C196.805 23.1667 196.8 22.3527 197.114 21.8672C197.237 21.7126 197.403 21.5978 197.591 21.5373C197.779 21.4768 197.98 21.4734 198.17 21.5273C198.36 21.5813 198.53 21.6903 198.658 21.8406C198.786 21.9908 198.867 22.1757 198.89 22.3717C198.89 22.9477 198.476 23.6427 197.814 24.2281C197.979 24.6518 198.207 25.0482 198.49 25.4039C198.606 25.5472 198.733 25.6809 198.871 25.8037C199.315 25.3639 199.883 25.07 200.499 24.9612C200.725 24.9208 200.959 24.9439 201.173 25.0279C201.387 25.1119 201.574 25.2536 201.713 25.4372C201.79 25.5389 201.845 25.6551 201.877 25.7789C201.908 25.9026 201.914 26.0314 201.894 26.1575C201.875 26.2836 201.83 26.4045 201.763 26.513C201.696 26.6215 201.607 26.7153 201.503 26.789C201.111 27.0225 200.658 27.1356 200.202 27.1145C199.746 27.0933 199.306 26.9388 198.937 26.67C198.42 27.2867 198.005 27.9826 197.709 28.7311C196.5 31.6442 196.462 32.6914 196.462 32.7009C196.462 32.7441 196.452 32.7867 196.435 32.8263C196.418 32.8659 196.394 32.9017 196.363 32.9318C196.332 32.9619 196.295 32.9855 196.255 33.0015C196.215 33.0174 196.172 33.0253 196.129 33.0246C196.086 33.0246 196.044 33.0161 196.004 32.9995C195.964 32.983 195.929 32.9587 195.898 32.9281C195.868 32.8976 195.845 32.8613 195.829 32.8215C195.813 32.7817 195.805 32.7391 195.805 32.6962C195.805 32.6486 195.805 31.5585 197.1 28.4788C197.415 27.6771 197.857 26.9314 198.409 26.2702C198.252 26.1232 198.108 25.964 197.976 25.7942C197.69 25.4371 197.45 25.0452 197.262 24.628C196.882 24.8847 196.471 25.0926 196.039 25.2468C195.84 25.3181 195.636 25.3738 195.429 25.4134C195.553 26.2652 195.54 27.1313 195.391 27.979C194.868 31.2729 194.311 32.2154 194.292 32.263C194.256 32.3246 194.202 32.3735 194.137 32.4025C194.072 32.4316 194 32.4394 193.93 32.4249ZM193.668 23.5903C193.558 23.5477 193.436 23.5477 193.325 23.5903C193.283 23.6019 193.244 23.623 193.212 23.652C193.179 23.681 193.153 23.7171 193.137 23.7576C193.12 23.7981 193.113 23.8418 193.116 23.8854C193.119 23.929 193.132 23.9714 193.154 24.0092C193.304 24.2632 193.52 24.4723 193.779 24.6146C194.038 24.7569 194.33 24.8273 194.625 24.8184C194.51 24.3945 194.275 24.0128 193.949 23.7188C193.865 23.6581 193.769 23.6145 193.668 23.5903ZM199.442 26.1797C199.689 26.3418 199.974 26.4345 200.269 26.4479C200.564 26.4613 200.857 26.395 201.118 26.2559C201.156 26.236 201.19 26.2074 201.216 26.1723C201.242 26.1372 201.259 26.0965 201.266 26.0536C201.274 26.0106 201.271 25.9666 201.258 25.9249C201.246 25.8831 201.224 25.8449 201.194 25.8132C201.124 25.7244 201.031 25.657 200.925 25.6191C200.819 25.5812 200.704 25.5742 200.594 25.599C200.162 25.6761 199.761 25.878 199.442 26.1797ZM197.99 22.1147C197.776 22.0528 197.7 22.1147 197.647 22.2099C197.476 22.6263 197.457 23.0901 197.595 23.5189C197.936 23.2254 198.162 22.8207 198.233 22.3765C198.228 22.3003 198.204 22.1956 197.985 22.1337L197.99 22.1147Z" fill="#455A64"/>
<path d="M217.62 66.1104C216.994 64.1639 215.886 62.4069 214.4 61.0022C212.914 59.5976 211.098 58.5908 209.119 58.0752C207.14 57.5596 205.063 57.5518 203.081 58.0525C201.098 58.5532 199.274 59.5463 197.778 60.9398C196.281 62.3332 195.161 64.0818 194.52 66.0236C193.879 67.9654 193.739 70.0375 194.112 72.0479C194.486 74.0584 195.36 75.942 196.656 77.5243C197.951 79.1066 199.624 80.3364 201.521 81.0997L201.579 81.1282C204.177 82.1183 204.911 82.9561 205.096 83.4844L205.724 85.436C205.746 85.5106 205.787 85.578 205.843 85.6312C205.977 85.7597 207.238 86.845 211.127 85.5931C215.016 84.3412 215.411 82.7371 215.435 82.5419C215.453 82.4669 215.453 82.3885 215.435 82.3135L214.807 80.3619C214.635 79.8383 214.754 78.7197 216.32 76.3397C216.331 76.3288 216.339 76.3158 216.344 76.3016C217.291 74.8004 217.896 73.1093 218.117 71.3481C218.337 69.5869 218.168 67.7987 217.62 66.1104ZM213.283 70.4849C212.988 71.3559 211.855 72.3222 210.132 72.3889C210.003 73.5344 210.059 74.6932 210.299 75.8208C211.175 80.2571 211.955 81.5328 211.965 81.5328C212.023 81.638 212.039 81.7611 212.009 81.8775C211.98 81.9939 211.908 82.095 211.808 82.1606C211.707 82.2262 211.586 82.2514 211.468 82.2312C211.349 82.211 211.243 82.1469 211.17 82.0517C211.137 81.9945 210.294 80.676 209.371 75.9922C209.114 74.7849 209.051 73.5444 209.185 72.3175C208.887 72.2716 208.592 72.2031 208.304 72.1128C207.678 71.9156 207.08 71.6389 206.524 71.2893C206.282 71.8976 205.962 72.472 205.572 72.9981C205.391 73.2396 205.192 73.4671 204.977 73.6788C205.801 74.5988 206.474 75.643 206.972 76.7728C208.952 81.1139 209.037 82.6752 209.042 82.7419C209.047 82.8463 209.018 82.9494 208.959 83.0355C208.899 83.1215 208.813 83.1856 208.714 83.2179C208.673 83.2246 208.631 83.2246 208.59 83.2179C208.468 83.218 208.35 83.1711 208.262 83.087C208.173 83.0028 208.12 82.8877 208.114 82.7657C208.114 82.7657 208.005 81.2615 206.129 77.1489C205.667 76.0929 205.037 75.1188 204.263 74.2643C202.835 75.2163 201.355 75.1021 200.598 74.5689C200.446 74.4706 200.315 74.3425 200.214 74.1924C200.112 74.0422 200.042 73.8731 200.008 73.6952C199.974 73.5173 199.976 73.3343 200.014 73.1572C200.053 72.9802 200.127 72.8127 200.231 72.6649C200.416 72.3907 200.675 72.1739 200.977 72.0393C201.279 71.9046 201.613 71.8575 201.94 71.9033C202.831 72.0262 203.661 72.4201 204.32 73.0315C204.511 72.8446 204.687 72.6441 204.849 72.4317C205.239 71.9102 205.552 71.3346 205.777 70.7229C204.796 69.9184 204.144 68.9474 204.139 68.1191C204.153 67.8286 204.255 67.5491 204.432 67.3181C204.609 67.0871 204.852 66.9156 205.129 66.8266C205.406 66.7376 205.703 66.7352 205.981 66.8199C206.26 66.9046 206.506 67.0722 206.686 67.3004C207.162 67.9763 207.2 69.1473 206.876 70.3706C207.415 70.7376 208.005 71.0217 208.628 71.2131C208.882 71.2933 209.141 71.3538 209.404 71.394C209.584 70.5161 210.027 69.7139 210.675 69.0949C210.915 68.8671 211.213 68.7107 211.537 68.6434C211.861 68.5762 212.197 68.6006 212.507 68.7141C212.677 68.7761 212.833 68.8718 212.964 68.9955C213.096 69.1192 213.201 69.2682 213.274 69.4337C213.346 69.5992 213.384 69.7777 213.386 69.9583C213.388 70.139 213.353 70.3181 213.283 70.4849ZM212.127 69.59C211.974 69.5382 211.809 69.5314 211.652 69.5702C211.495 69.609 211.353 69.6918 211.241 69.8089C210.786 70.2447 210.469 70.8039 210.327 71.4178C211.503 71.3083 212.231 70.6657 212.393 70.1755C212.423 70.1206 212.439 70.0597 212.441 69.9975C212.443 69.9353 212.431 69.8734 212.405 69.8168C212.379 69.7601 212.341 69.7102 212.292 69.6709C212.244 69.6315 212.187 69.6038 212.127 69.59ZM205.377 67.7145C205.068 67.8145 205.044 67.9668 205.044 68.1049C205.165 68.7325 205.502 69.2982 205.996 69.7042C206.172 69.0851 206.121 68.4234 205.853 67.8383C205.796 67.7241 205.686 67.6146 205.377 67.7145ZM201.383 72.8791C201.219 72.9284 201.077 73.0347 200.984 73.179C200.942 73.2255 200.912 73.281 200.896 73.3412C200.88 73.4013 200.878 73.4644 200.89 73.5254C200.903 73.5865 200.929 73.6437 200.968 73.6927C201.006 73.7416 201.056 73.7809 201.112 73.8073C201.536 74.1025 202.497 74.2072 203.492 73.6074C203.023 73.1931 202.445 72.9222 201.826 72.8268C201.676 72.8145 201.526 72.8323 201.383 72.8791Z" fill="#455A64"/>
<path d="M213.126 91.8009C209.08 93.1004 207.771 91.9771 207.633 91.8438C207.578 91.7894 207.537 91.7224 207.514 91.6486L206.257 87.7359C206.225 87.6354 206.227 87.5271 206.263 87.428C206.299 87.3289 206.368 87.2447 206.457 87.1885C206.547 87.1346 206.652 87.112 206.756 87.124C206.86 87.1361 206.957 87.1821 207.033 87.2551C207.033 87.2551 208.108 88.1024 211.579 86.9838C215.049 85.8652 215.425 84.5515 215.425 84.5372C215.449 84.4354 215.505 84.3444 215.586 84.2782C215.667 84.2119 215.768 84.1741 215.872 84.1707C215.975 84.1649 216.078 84.1929 216.163 84.2505C216.249 84.308 216.314 84.3919 216.348 84.4896L217.605 88.4023C217.623 88.4773 217.623 88.5557 217.605 88.6308C217.581 88.8164 217.172 90.4967 213.126 91.8009Z" fill="#455A64"/>
<path d="M201.826 56.6986C201.707 56.7362 201.577 56.7253 201.466 56.6683C201.355 56.6113 201.27 56.5127 201.231 56.3939L200.022 52.6288C199.994 52.5677 199.979 52.5013 199.979 52.434C199.978 52.3668 199.992 52.3002 200.019 52.2386C200.046 52.177 200.086 52.1219 200.136 52.0768C200.185 52.0318 200.244 51.9978 200.308 51.9771C200.372 51.9565 200.44 51.9496 200.507 51.957C200.574 51.9644 200.638 51.9858 200.696 52.02C200.754 52.0541 200.804 52.1002 200.843 52.155C200.882 52.2099 200.909 52.2724 200.922 52.3384L202.131 56.1036C202.168 56.2229 202.157 56.3522 202.1 56.4636C202.043 56.5749 201.945 56.6593 201.826 56.6986Z" fill="#455A64"/>
<path d="M209.323 56.4434C209.244 56.4674 209.16 56.4704 209.08 56.4522C208.999 56.434 208.925 56.3951 208.864 56.3394C208.803 56.2837 208.758 56.2131 208.732 56.1345C208.707 56.0559 208.702 55.9721 208.719 55.8912L209.552 52.0261C209.59 51.9164 209.667 51.8246 209.769 51.7678C209.87 51.711 209.989 51.6932 210.102 51.7178C210.216 51.7424 210.316 51.8076 210.385 51.9012C210.454 51.9948 210.486 52.1103 210.475 52.226L209.642 56.0911C209.625 56.1726 209.586 56.2481 209.53 56.3099C209.474 56.3717 209.403 56.4177 209.323 56.4434Z" fill="#455A64"/>
<path d="M215.942 59.9752C215.861 60.0028 215.774 60.0082 215.69 59.9906C215.607 59.973 215.529 59.9331 215.466 59.8752C215.374 59.7907 215.319 59.6735 215.313 59.5488C215.307 59.4242 215.35 59.3021 215.433 59.2088L218.089 56.2719C218.128 56.2182 218.179 56.1734 218.237 56.1404C218.295 56.1074 218.359 56.087 218.425 56.0804C218.492 56.0739 218.559 56.0813 218.622 56.1023C218.685 56.1233 218.743 56.1574 218.793 56.2024C218.842 56.2473 218.881 56.3021 218.908 56.3632C218.935 56.4243 218.949 56.4903 218.948 56.557C218.948 56.6237 218.933 56.6895 218.906 56.7503C218.878 56.8111 218.838 56.8654 218.789 56.9097L216.132 59.8419C216.081 59.9014 216.016 59.9472 215.942 59.9752Z" fill="#455A64"/>
<path d="M223.684 65.1111L219.914 66.3249C219.853 66.3536 219.786 66.3689 219.718 66.3698C219.651 66.3706 219.583 66.357 219.521 66.3298C219.459 66.3027 219.404 66.2626 219.359 66.2122C219.313 66.1619 219.279 66.1024 219.259 66.0378C219.238 65.9733 219.232 65.9051 219.24 65.8378C219.248 65.7705 219.27 65.7057 219.305 65.6477C219.34 65.5897 219.387 65.5399 219.443 65.5015C219.499 65.4631 219.562 65.4371 219.629 65.4252L223.394 64.2114C223.455 64.1833 223.521 64.1685 223.589 64.168C223.656 64.1674 223.722 64.1811 223.784 64.2082C223.846 64.2352 223.901 64.275 223.946 64.3249C223.991 64.3749 224.025 64.4338 224.045 64.4978C224.066 64.5618 224.073 64.6294 224.066 64.6963C224.058 64.7631 224.037 64.8276 224.003 64.8856C223.968 64.9435 223.922 64.9936 223.868 65.0324C223.813 65.0713 223.75 65.0981 223.684 65.1111Z" fill="#455A64"/>
<path d="M224.042 74.6497C223.963 74.6736 223.878 74.6736 223.799 74.6497L219.915 73.8309C219.793 73.8036 219.686 73.7293 219.619 73.6242C219.551 73.5191 219.527 73.3916 219.553 73.2693C219.58 73.1473 219.655 73.041 219.76 72.9733C219.865 72.9056 219.992 72.882 220.115 72.9075L223.985 73.7405C224.083 73.7657 224.171 73.822 224.236 73.901C224.3 73.9799 224.337 74.0775 224.342 74.1792C224.347 74.281 224.319 74.3816 224.262 74.4663C224.206 74.551 224.123 74.6152 224.027 74.6497H224.042Z" fill="#455A64"/>
<path d="M195.593 60.8606C195.512 60.8882 195.425 60.8936 195.341 60.876C195.257 60.8584 195.18 60.8185 195.117 60.7606L192.185 58.1045C192.093 58.02 192.038 57.9028 192.032 57.7781C192.026 57.6535 192.069 57.5314 192.151 57.4381C192.236 57.3449 192.354 57.2891 192.48 57.2828C192.606 57.2766 192.729 57.3204 192.823 57.4048L195.755 60.0609C195.848 60.1456 195.904 60.2638 195.91 60.3896C195.916 60.5154 195.873 60.6385 195.788 60.732C195.735 60.7904 195.668 60.8346 195.593 60.8606Z" fill="#455A64"/>
<path d="M192.272 67.5894C192.19 67.6113 192.105 67.6113 192.024 67.5894L188.159 66.7564C188.049 66.7181 187.957 66.6411 187.901 66.5398C187.844 66.4384 187.826 66.3199 187.851 66.2063C187.875 66.0928 187.94 65.9922 188.034 65.9234C188.128 65.8547 188.243 65.8225 188.359 65.833L192.224 66.666C192.346 66.6934 192.452 66.7676 192.52 66.8727C192.588 66.9778 192.611 67.1053 192.586 67.2277C192.57 67.3104 192.533 67.3874 192.477 67.451C192.422 67.5145 192.351 67.5623 192.272 67.5894Z" fill="#455A64"/>
<path d="M192.749 75.0689L188.97 76.2779C188.856 76.3003 188.737 76.2801 188.637 76.2209C188.536 76.1618 188.461 76.0679 188.425 75.957C188.39 75.8461 188.396 75.726 188.443 75.6193C188.489 75.5127 188.574 75.4269 188.68 75.3783L192.445 74.1645C192.562 74.1353 192.686 74.1518 192.791 74.2106C192.897 74.2693 192.976 74.3659 193.013 74.4809C193.05 74.5958 193.042 74.7205 192.99 74.8297C192.939 74.9389 192.847 75.0243 192.735 75.0689H192.749Z" fill="#455A64"/>
<path d="M194.255 84.2529C194.174 84.2806 194.087 84.2859 194.003 84.2683C193.919 84.2507 193.842 84.2109 193.779 84.153C193.687 84.0684 193.632 83.9512 193.626 83.8266C193.619 83.7019 193.662 83.5798 193.745 83.4866L196.401 80.5544C196.489 80.4751 196.602 80.431 196.72 80.4307C196.838 80.4303 196.952 80.4738 197.04 80.5526C197.127 80.6314 197.183 80.74 197.195 80.8573C197.207 80.9746 197.175 81.0923 197.106 81.1875L194.45 84.1197C194.397 84.1798 194.33 84.2256 194.255 84.2529Z" fill="#455A64"/>
<path d="M220.391 42.0734C219.258 42.5494 218.963 43.4491 219.32 44.3202C219.677 45.1912 220.538 45.653 221.666 45.1865C222.794 44.72 223.07 43.8013 222.709 42.9302C222.347 42.0592 221.49 41.6165 220.391 42.0734ZM216.107 30.7256C213.289 31.8823 211.951 34.1671 212.261 36.609L215.735 36.1615C215.735 35.1381 216.069 34.4241 217.297 33.9196C218.525 33.415 219.291 33.9196 219.572 34.6098C219.9 35.4047 219.429 36.29 216.94 38.3559L218.32 41.726L221.652 40.3503L220.867 38.4892C222.295 37.1897 223.723 35.2381 222.704 32.7772C221.776 30.4971 219.21 29.4404 216.078 30.7256H216.107Z" fill="#455A64"/>
<path d="M197.747 120.904C197.727 120.888 197.708 120.87 197.69 120.852L165.25 85.0138C164.774 84.5378 164.617 83.7191 164.908 82.7195C165.29 81.6457 165.92 80.6774 166.747 79.8933C167.575 79.1092 168.575 78.5314 169.668 78.207C170.691 77.9595 171.5 78.1404 171.976 78.6306L207.077 111.951L207.124 112.008C207.158 112.034 207.19 112.062 207.219 112.093C207.814 112.698 208.282 113.414 208.596 114.201C208.91 114.988 209.065 115.83 209.05 116.677C209.036 117.524 208.852 118.36 208.511 119.136C208.17 119.911 207.677 120.611 207.062 121.195C205.806 122.377 204.137 123.019 202.412 122.984C200.687 122.95 199.045 122.241 197.837 121.009C197.799 120.985 197.776 120.952 197.747 120.904Z" fill="#BA68C8"/>
<path opacity="0.25" d="M169.658 78.2216C171.704 77.7456 172.89 78.9403 172.309 80.9348C171.928 82.0096 171.298 82.979 170.47 83.7641C169.643 84.5491 168.642 85.1275 167.549 85.452C165.502 85.928 164.317 84.7332 164.898 82.734C165.28 81.6603 165.91 80.692 166.737 79.9079C167.564 79.1237 168.565 78.546 169.658 78.2216Z" fill="black"/>
<path opacity="0.1" d="M202.948 113.573L171.385 82.7379C171.795 82.1886 172.109 81.5738 172.313 80.9196C172.603 79.9247 172.461 79.1298 171.98 78.6348L207.07 111.955L207.118 112.012C207.152 112.038 207.184 112.067 207.213 112.098C207.808 112.702 208.276 113.418 208.59 114.205C208.904 114.992 209.059 115.834 209.044 116.681C209.029 117.528 208.846 118.364 208.505 119.14C208.163 119.916 207.671 120.615 207.056 121.199C208.151 119.442 206.066 116.591 202.948 113.573Z" fill="black"/>
<path d="M157.435 73.228C157.661 72.5794 158.038 71.9937 158.535 71.5188C159.031 71.0439 159.633 70.6933 160.291 70.4957C160.526 70.4125 160.779 70.3925 161.025 70.4376C161.27 70.4827 161.5 70.5913 161.69 70.7528L170.63 79.9063C170.786 80.0967 170.888 80.3261 170.925 80.57C170.962 80.8138 170.932 81.0631 170.839 81.2914C170.611 81.9385 170.233 82.5227 169.737 82.9966C169.241 83.4705 168.64 83.8208 167.983 84.0189C167.751 84.1014 167.501 84.1224 167.258 84.0799C167.016 84.0373 166.788 83.9327 166.598 83.7761L157.659 74.6227C157.498 74.4324 157.393 74.2021 157.353 73.9564C157.314 73.7107 157.342 73.4589 157.435 73.228Z" fill="#E0E0E0"/>
<path opacity="0.25" d="M166.597 75.7833L163.265 72.3799C162.215 73.9983 161.112 75.5437 159.957 77.0161L163.227 80.3481C164.42 78.8884 165.544 77.3668 166.597 75.7833Z" fill="black"/>
<path d="M167.355 21.6007L157.883 16.1314C152.58 13.0755 145.255 13.5134 137.158 18.183C120.974 27.5364 107.846 50.2654 107.846 68.9627C107.846 78.3113 111.125 84.8754 116.414 87.9408L125.867 93.3958C128.188 94.71 130.816 95.3835 133.483 95.3474C137.42 95.3474 141.865 94.0622 146.573 91.3442C162.757 81.9956 175.885 59.2618 175.885 40.5693C175.923 31.2302 172.648 24.6661 167.355 21.6007ZM153.851 61.6751C148.715 70.5668 141.951 77.7354 134.811 81.8528C131.07 84.0091 127.438 85.1848 124.282 85.2276C122.754 82.5144 121.935 78.854 121.935 74.4176C121.935 66.1828 124.763 56.7485 129.899 47.8568C135.035 38.9652 141.799 31.7966 148.939 27.6792C152.68 25.5182 156.317 24.3472 159.473 24.3044C160.996 27.0223 161.815 30.6828 161.815 35.1143C161.838 43.3491 158.982 52.7834 153.851 61.6751Z" fill="#455A64"/>
<path opacity="0.1" d="M115.502 41.7213L128.992 49.5039C129.292 48.9517 129.596 48.3996 129.915 47.8522C131.494 45.1068 133.266 42.4774 135.218 39.9839L121.699 32.1823C119.384 35.1927 117.312 38.3824 115.502 41.7213ZM128.83 24.3711C127.464 25.623 126.145 26.9605 124.874 28.3695L138.464 36.2092C139.751 34.8263 141.111 33.5138 142.539 32.2775L128.83 24.3711Z" fill="white"/>
<path d="M125.849 93.3716L116.433 87.9405C111.126 84.875 107.865 78.311 107.865 68.9624C107.865 68.6006 107.865 68.2436 107.865 67.8818L117.314 73.3368C117.314 73.6986 117.314 74.0603 117.314 74.4173C117.3 83.7374 120.57 90.2967 125.849 93.3716Z" fill="#37474F"/>
<path d="M159.706 24.2988H159.458C160.981 27.0168 161.8 30.6772 161.8 35.1088C161.8 43.3436 158.973 52.7779 153.837 61.6696C148.701 70.5613 141.937 77.7298 134.797 81.8472C131.055 84.0035 127.423 85.1792 124.268 85.2221C126.243 88.7492 129.399 90.6865 133.488 90.6865C136.701 90.6865 140.418 89.5156 144.25 87.3069C151.39 83.1895 158.14 76.0257 163.29 67.1293C168.44 58.2329 171.249 48.8033 171.249 40.5637C171.268 30.3821 166.95 24.2988 159.706 24.2988Z" fill="#263238"/>
<path opacity="0.3" d="M166.869 38.0424C166.869 46.2772 164.042 55.7163 158.906 64.608C153.77 73.4996 147.006 80.6682 139.866 84.7809C136.034 86.9943 132.312 88.1652 129.103 88.1652C128.129 88.17 127.157 88.0484 126.214 87.8035C125.458 87.0363 124.809 86.17 124.286 85.2283C122.758 82.5151 121.939 78.8546 121.939 74.4183C121.939 66.1835 124.767 56.7492 129.903 47.8575C135.039 38.9658 141.803 31.7973 148.943 27.6799C152.684 25.5188 156.321 24.3479 159.477 24.305H159.71C160.688 24.2971 161.663 24.4204 162.609 24.6716C165.351 27.4086 166.869 32.0067 166.869 38.0424Z" fill="white"/>
<path d="M146.605 23.6475C130.421 32.9914 117.293 55.7251 117.293 74.4177C117.293 93.1102 130.421 100.693 146.605 91.3442C162.789 81.9956 175.927 59.2666 175.927 40.5693C175.927 21.872 162.789 14.2798 146.605 23.6475ZM144.277 87.3125C140.446 89.5211 136.728 90.6921 133.515 90.6921C129.426 90.6921 126.27 88.7548 124.295 85.2276C122.767 82.5144 121.948 78.854 121.948 74.4177C121.948 66.1829 124.776 56.7486 129.912 47.8569C135.048 38.9652 141.812 31.7966 148.952 27.6792C152.693 25.5182 156.33 24.3472 159.486 24.3044H159.719C166.964 24.3044 171.281 30.3877 171.281 40.5741C171.281 48.8136 168.458 58.248 163.322 67.1396C158.186 76.0313 151.417 83.1951 144.282 87.3125H144.277Z" fill="#37474F"/>
<path d="M124.407 48.2139C121.704 53.4834 119.702 59.0843 118.453 64.8739C117.848 67.7655 117.515 70.7073 117.458 73.6608C117.378 76.6083 117.698 79.553 118.41 82.4145C119.103 85.2827 120.443 87.9544 122.327 90.2256C124.244 92.4761 126.82 94.0664 129.691 94.7714C132.574 95.432 135.574 95.3862 138.435 94.6382C141.299 93.9281 144.048 92.8193 146.603 91.3442C144.061 92.8766 141.314 94.0416 138.445 94.8047C135.557 95.5814 132.524 95.6468 129.605 94.9952C126.683 94.3037 124.051 92.71 122.085 90.4398C120.165 88.1401 118.796 85.4327 118.081 82.5239C117.379 79.6291 117.072 76.6524 117.168 73.6751C117.245 70.7054 117.599 67.7494 118.224 64.8453C118.852 61.9473 119.687 59.0982 120.723 56.3201C121.784 53.5449 123.014 50.8377 124.407 48.2139Z" fill="#455A64"/>
<path d="M159.705 24.2993C161.171 24.2753 162.627 24.5422 163.989 25.0847C165.356 25.6587 166.577 26.5303 167.564 27.6361C168.547 28.7553 169.332 30.0333 169.887 31.4155C170.452 32.7821 170.861 34.208 171.106 35.6662C171.571 38.5766 171.656 41.5352 171.358 44.4675C171.075 47.4007 170.526 50.3021 169.716 53.1354C168.926 55.9663 167.915 58.7308 166.693 61.4035C165.484 64.0886 164.101 66.6915 162.552 69.1957C159.484 74.2422 155.697 78.814 151.309 82.7664C149.089 84.725 146.673 86.4478 144.097 87.9072C141.515 89.4066 138.684 90.4289 135.739 90.9251C134.244 91.1575 132.72 91.1398 131.231 90.8727C128.968 90.4328 126.921 89.242 125.419 87.4931C124.925 86.9221 124.487 86.3053 124.11 85.651C123.367 84.3485 122.807 82.9503 122.444 81.4955C121.752 78.6131 121.501 75.6423 121.702 72.6847C121.874 69.7438 122.332 66.8265 123.068 63.9739C123.803 61.1308 124.758 58.349 125.924 55.6535C127.075 52.9602 128.41 50.3488 129.917 47.8375C127.046 52.933 124.89 58.3996 123.51 64.0834C122.83 66.913 122.422 69.8012 122.292 72.7085C122.136 75.6018 122.42 78.5019 123.134 81.3099C123.5 82.6928 124.054 84.019 124.781 85.2511C125.487 86.479 126.434 87.551 127.566 88.4023C128.693 89.2355 129.996 89.8019 131.374 90.0587C132.771 90.3039 134.2 90.3135 135.601 90.0873C138.438 89.5885 141.164 88.5875 143.65 87.1313C146.161 85.6891 148.517 83.992 150.68 82.0667C155.024 78.1918 158.777 73.7015 161.819 68.7387C164.91 63.8036 167.332 58.4798 169.021 52.9069C169.858 50.1223 170.439 47.2672 170.758 44.377C171.096 41.4886 171.058 38.5685 170.644 35.69C170.439 34.2551 170.072 32.8482 169.549 31.4965C169.04 30.1407 168.308 28.8794 167.383 27.7646C166.436 26.6784 165.263 25.8124 163.947 25.2275C162.608 24.6407 161.167 24.3252 159.705 24.2993Z" fill="#455A64"/>
<path d="M45.5593 51.2317C45.4501 51.1713 45.3271 51.1401 45.2023 51.1413L39.1523 50.7129V58.5478L42.451 60.4518L48.9722 54.321C49.0594 54.2463 49.1276 54.1519 49.1712 54.0456C49.2147 53.9394 49.2323 53.8243 49.2225 53.7099C49.2128 53.5954 49.1759 53.485 49.115 53.3876C49.0541 53.2903 48.9709 53.2088 48.8723 53.15L45.5593 51.2317Z" fill="#BA68C8"/>
<path opacity="0.2" d="M45.5593 51.2317C45.4501 51.1713 45.3271 51.1401 45.2023 51.1413L39.1523 50.7129V58.5478L42.451 60.4518L48.9722 54.321C49.0594 54.2463 49.1276 54.1519 49.1712 54.0456C49.2147 53.9394 49.2323 53.8243 49.2225 53.7099C49.2128 53.5954 49.1759 53.485 49.115 53.3876C49.0541 53.2903 48.9709 53.2088 48.8723 53.15L45.5593 51.2317Z" fill="black"/>
<path d="M42.4492 52.6172L48.4992 53.0456C48.647 53.045 48.7915 53.0897 48.9131 53.1737C49.0348 53.2577 49.1278 53.3769 49.1796 53.5153C49.2315 53.6538 49.2397 53.8048 49.2031 53.948C49.1666 54.0912 49.087 54.2198 48.9752 54.3165L42.4492 60.4521V52.6172Z" fill="#BA68C8"/>
<path d="M42.8771 40.9595C42.8545 40.5057 42.7239 40.0638 42.4962 39.6706C42.2686 39.2773 41.9504 38.9441 41.5681 38.6985L40.5066 38.0797C40.1011 37.8733 39.6526 37.7656 39.1976 37.7656C38.7426 37.7656 38.294 37.8733 37.8886 38.0797L15.9164 50.7842C15.5356 51.0325 15.2186 51.367 14.9912 51.7607C14.7638 52.1543 14.6323 52.596 14.6074 53.0499V80.3057C14.6323 80.7596 14.7638 81.2013 14.9912 81.595C15.2186 81.9886 15.5356 82.3231 15.9164 82.5715L16.9827 83.1855C17.3879 83.3897 17.8355 83.4961 18.2893 83.4961C18.7431 83.4961 19.1906 83.3897 19.5959 83.1855L41.5681 70.4811C41.9504 70.2355 42.2686 69.9022 42.4962 69.509C42.7239 69.1158 42.8545 68.6739 42.8771 68.2201V40.9595Z" fill="#BA68C8"/>
<path opacity="0.2" d="M14.6091 80.3055C14.634 80.7594 14.7655 81.2011 14.9929 81.5948C15.2204 81.9884 15.5373 82.3229 15.9181 82.5712L16.9844 83.1853C17.3514 83.3692 17.7531 83.4736 18.1632 83.4916C18.5733 83.5096 18.9826 83.441 19.3644 83.29C18.7503 83.5232 18.2791 83.1758 18.2791 82.4284V55.1727C18.2962 54.717 18.4288 54.2731 18.6646 53.8827L14.9852 51.7598C14.7482 52.1496 14.6154 52.5938 14.5996 53.0497L14.6091 80.3055Z" fill="black"/>
<path opacity="0.25" d="M42.8393 40.5877C42.687 40.0355 42.1824 39.8594 41.5779 40.2069L19.5962 52.9113C19.2106 53.1426 18.8922 53.4708 18.6728 53.8633L14.998 51.7404C15.2172 51.3492 15.5336 51.0213 15.9167 50.7884L37.8889 38.0792C38.2942 37.8749 38.7417 37.7686 39.1955 37.7686C39.6493 37.7686 40.0968 37.8749 40.5021 38.0792L41.5731 38.6932C41.9016 38.9067 42.1832 39.1847 42.4008 39.5103C42.6185 39.836 42.7677 40.2026 42.8393 40.5877Z" fill="white"/>
<path d="M29.6395 68.5425C28.4875 69.2089 27.9021 70.6083 27.9021 71.9744C27.9021 73.3405 28.4875 74.0974 29.6395 73.431C30.7914 72.7646 31.3626 71.3509 31.3626 69.98C31.3626 68.6091 30.7723 67.9046 29.6395 68.5425ZM29.9441 50.7448C27.0881 52.4013 25.0889 55.8809 24.4844 59.6889L27.6783 59.151C28.0449 57.5707 28.5875 56.4759 29.8441 55.7523C31.1008 55.0288 31.5815 55.838 31.5815 56.9281C31.5815 58.1752 30.8533 59.527 27.9401 62.6115V67.9046L31.3626 65.9292V63.0209C33.0619 61.074 35.004 58.1133 35.004 54.2815C35.004 50.6687 33.1428 48.9122 29.9441 50.7591V50.7448Z" fill="white"/>
</svg>
