<svg width="346" height="298" viewBox="0 0 346 298" fill="none" xmlns="http://www.w3.org/2000/svg">
<g clip-path="url(#clip0_678_12581)">
<g opacity="0.5">
<path d="M63.6424 260.574C121.623 295.521 215.62 295.521 273.594 260.574C331.567 225.628 331.567 168.958 273.594 134.011C215.62 99.0641 121.623 99.0641 63.6424 134.011C5.66184 168.958 5.66902 225.621 63.6424 260.574Z" fill="#455A64"/>
</g>
<path d="M39.376 178.866C39.376 178.866 38.1546 168.116 32.802 159.809C27.4494 151.502 20.0994 146.285 13.238 145.754C6.37664 145.224 0.837234 151.488 8.20874 155.838C15.5802 160.189 28.5917 164.568 34.591 180.744L39.376 178.866Z" fill="#BA68C8"/>
<path d="M39.376 178.866C39.376 178.866 38.1546 168.116 32.802 159.809C27.4494 151.502 20.0994 146.285 13.238 145.754C6.37664 145.224 0.837234 151.488 8.20874 155.838C15.5802 160.189 28.5917 164.568 34.591 180.744L39.376 178.866Z" fill="#263238"/>
<path d="M37.3685 176.078C37.392 176.085 37.417 176.085 37.4404 176.078C37.4852 176.06 37.526 176.034 37.5605 176.001C37.595 175.968 37.6224 175.928 37.6411 175.884C37.6599 175.839 37.6696 175.792 37.6697 175.744C37.6697 175.696 37.6602 175.649 37.6416 175.605C30.4066 157.823 16.6263 150.391 10.3397 148.95C10.2925 148.94 10.2437 148.939 10.1961 148.947C10.1485 148.955 10.103 148.973 10.0622 148.999C10.0215 149.025 9.9863 149.059 9.95871 149.098C9.93111 149.138 9.91165 149.183 9.90144 149.23C9.88179 149.324 9.8992 149.422 9.95005 149.503C10.0009 149.584 10.0813 149.643 10.1745 149.667C16.3246 151.1 29.8318 158.375 36.959 175.877C36.9934 175.953 37.053 176.014 37.1277 176.051C37.2024 176.087 37.2875 176.097 37.3685 176.078Z" fill="white"/>
<path d="M0.727447 176.292C1.34533 177.69 2.88286 178.442 4.3198 178.987C5.75674 179.532 7.28708 180.17 8.05584 181.488C9.60055 184.162 7.06435 187.939 8.72402 190.504C9.11217 191.024 9.60205 191.46 10.164 191.785C10.7259 192.11 11.3482 192.318 11.9931 192.397C13.0577 192.549 14.1297 192.645 15.2046 192.683C15.7167 192.678 16.2279 192.64 16.735 192.569C18.2215 192.235 19.7767 192.399 21.1607 193.034C23.3161 194.231 23.9412 196.905 25.2273 198.969C26.0279 200.19 27.0851 201.223 28.3257 201.997C29.5663 202.77 30.9605 203.266 32.412 203.448C33.3675 203.577 35.1422 203.749 36.1121 203.205C36.182 203.169 36.2492 203.128 36.3133 203.083C36.4498 202.932 36.615 202.739 36.6869 202.638C36.7015 202.618 36.7136 202.597 36.7228 202.574C37.1036 201.191 36.4857 199.75 36.4641 198.324C36.4569 198.238 36.4569 198.152 36.4641 198.066C36.5216 196.403 36.5719 194.755 36.6078 193.092C36.6845 190.048 36.7156 186.997 36.7012 183.939C36.7012 181.954 36.9168 179.79 36.0762 177.919C35.1493 175.869 32.8287 175.819 31.9593 173.805C31.6073 173.002 31.4205 172.142 31.0828 171.333C30.5558 170.143 29.7118 169.12 28.6426 168.376C27.5734 167.632 26.32 167.194 25.0189 167.111C20.9811 166.903 17.3528 170.171 13.315 169.87C12.2752 169.731 11.2438 169.535 10.2256 169.283C6.9494 168.674 3.17025 169.605 1.33096 172.365C0.916647 172.92 0.645029 173.569 0.539828 174.254C0.434627 174.938 0.499042 175.638 0.727447 176.292Z" fill="#37474F"/>
<path d="M37.0536 196.203C37.0973 196.192 37.1384 196.173 37.1744 196.146C37.2104 196.119 37.2407 196.085 37.2635 196.047C37.2862 196.008 37.301 195.965 37.3069 195.92C37.3128 195.876 37.3098 195.831 37.2979 195.787C31.7226 174.881 9.65117 171.864 4.48537 172.272C4.44034 172.275 4.39631 172.287 4.35588 172.307C4.31545 172.327 4.27944 172.354 4.24997 172.388C4.2205 172.422 4.19818 172.462 4.18432 172.505C4.17045 172.548 4.16533 172.593 4.16925 172.638C4.1766 172.728 4.21914 172.811 4.2877 172.87C4.35625 172.929 4.44532 172.959 4.53567 172.953C9.56496 172.595 31.1765 175.548 36.6369 195.988C36.6664 196.07 36.7257 196.137 36.803 196.177C36.8802 196.217 36.9698 196.226 37.0536 196.203Z" fill="white"/>
<path d="M12.513 185.618C12.5822 185.604 12.6453 185.569 12.6926 185.517C14.7332 183.758 17.1368 182.468 19.733 181.738C22.3293 181.008 25.0545 180.858 27.7158 181.296C27.7631 181.31 27.813 181.314 27.8619 181.307C27.9108 181.3 27.9577 181.283 27.9994 181.256C28.0411 181.23 28.0766 181.195 28.1035 181.153C28.1304 181.112 28.1481 181.066 28.1554 181.017C28.1626 180.968 28.1593 180.918 28.1457 180.871C28.132 180.824 28.1083 180.78 28.0762 180.742C28.044 180.705 28.0042 180.675 27.9594 180.654C27.9145 180.633 27.8658 180.622 27.8164 180.622C25.0487 180.165 22.214 180.324 19.5151 181.087C16.8161 181.85 14.3196 183.199 12.204 185.037C12.1408 185.102 12.1055 185.19 12.1055 185.281C12.1055 185.372 12.1408 185.459 12.204 185.524C12.2436 185.564 12.2926 185.594 12.3466 185.61C12.4006 185.626 12.4578 185.629 12.513 185.618Z" fill="white"/>
<path d="M213.519 -0.129519L253.229 22.7478C253.615 22.9992 253.937 23.3378 254.168 23.7362C254.399 24.1347 254.533 24.5818 254.558 25.0413V133.938C254.533 134.398 254.399 134.845 254.168 135.243C253.937 135.642 253.615 135.98 253.229 136.232L213.519 159.109C213.107 159.317 212.652 159.426 212.19 159.426C211.728 159.426 211.273 159.317 210.861 159.109L171.151 136.232C170.764 135.981 170.441 135.643 170.21 135.244C169.979 134.845 169.846 134.398 169.822 133.938V25.0413C169.847 24.5818 169.981 24.1347 170.212 23.7362C170.443 23.3378 170.764 22.9992 171.151 22.7478L210.861 -0.129519C211.274 -0.334644 211.729 -0.441406 212.19 -0.441406C212.651 -0.441406 213.106 -0.334644 213.519 -0.129519Z" fill="#37474F"/>
<path d="M169.822 25.0383V133.935C169.847 134.394 169.98 134.84 170.209 135.239C170.439 135.637 170.759 135.976 171.144 136.228L210.861 159.106C211.269 159.324 211.727 159.433 212.19 159.421V47.4569C211.727 47.4649 211.27 47.3565 210.861 47.1416L171.144 24.2714L170.785 23.9704L170.31 23.5762C170.012 24.0074 169.842 24.5145 169.822 25.0383Z" fill="#263238"/>
<path d="M248.245 35.7531L218.501 52.8825C218.114 53.135 217.792 53.4748 217.561 53.8745C217.33 54.2742 217.196 54.7225 217.171 55.1831V66.4713C217.171 67.317 217.761 67.661 218.493 67.2382L248.238 50.1088C248.625 49.8575 248.946 49.5189 249.177 49.1204C249.408 48.722 249.542 48.2749 249.567 47.8153V36.52C249.574 35.6743 249.014 35.3303 248.245 35.7531Z" fill="#455A64"/>
<path d="M247.08 40.7362C247.046 41.1808 246.907 41.6112 246.677 41.9932C246.446 42.3752 246.129 42.6982 245.751 42.9365L220.993 57.1919C220.274 57.6147 219.664 57.3137 219.664 56.5253C219.698 56.0807 219.837 55.6503 220.067 55.2683C220.298 54.8864 220.615 54.5634 220.993 54.325L245.751 40.0625C246.484 39.6396 247.08 39.9407 247.08 40.7362Z" fill="#BA68C8"/>
<path d="M247.08 46.4804C247.046 46.925 246.907 47.3554 246.677 47.7373C246.446 48.1193 246.129 48.4423 245.751 48.6807L220.993 62.936C220.274 63.3588 219.664 63.0578 219.664 62.2695C219.698 61.8248 219.837 61.3944 220.067 61.0125C220.298 60.6305 220.615 60.3075 220.993 60.0692L245.751 45.8066C246.484 45.3838 247.08 45.6848 247.08 46.4804Z" fill="#263238"/>
<path d="M245.748 45.8069L232.097 53.6907V56.5575L245.748 48.6737C246.125 48.4353 246.442 48.1123 246.673 47.7304C246.904 47.3484 247.042 46.918 247.077 46.4734C247.077 45.685 246.48 45.384 245.748 45.8069Z" fill="#BA68C8"/>
<path d="M248.245 55.848L218.501 72.9773C218.114 73.2291 217.793 73.5678 217.562 73.9662C217.331 74.3645 217.197 74.8114 217.171 75.2708V86.5661C217.171 87.4118 217.761 87.7559 218.493 87.333L248.238 70.2037C248.625 69.9523 248.946 69.6137 249.177 69.2153C249.408 68.8168 249.542 68.3697 249.567 67.9102V56.6149C249.574 55.7691 249.014 55.4538 248.245 55.848Z" fill="#455A64"/>
<path d="M247.08 60.8272C247.047 61.273 246.909 61.7049 246.678 62.0881C246.447 62.4714 246.13 62.7956 245.751 63.0346L220.993 77.29C220.274 77.7128 219.664 77.4118 219.664 76.6234C219.697 76.1776 219.835 75.7457 220.066 75.3625C220.297 74.9792 220.614 74.655 220.993 74.416L245.751 60.1606C246.484 59.7593 247.08 60.0388 247.08 60.8272Z" fill="#BA68C8"/>
<path d="M247.08 66.5717C247.045 67.0163 246.907 67.4467 246.676 67.8286C246.445 68.2106 246.129 68.5336 245.751 68.772L220.992 83.0273C220.274 83.4502 219.663 83.1491 219.663 82.3608C219.698 81.9162 219.836 81.4858 220.067 81.1038C220.298 80.7218 220.614 80.3988 220.992 80.1605L245.751 65.898C246.484 65.4894 247.08 65.7761 247.08 66.5717Z" fill="#263238"/>
<path d="M245.751 65.9011L224.65 78.0851V80.9519L245.751 68.8037C246.129 68.5654 246.446 68.2424 246.677 67.8604C246.908 67.4784 247.046 67.048 247.081 66.6034C247.081 65.7792 246.484 65.4925 245.751 65.9011Z" fill="#BA68C8"/>
<path d="M248.245 75.9465L218.501 93.0758C218.114 93.3272 217.792 93.6658 217.561 94.0642C217.331 94.4627 217.197 94.9098 217.171 95.3693V106.665C217.171 107.51 217.761 107.854 218.493 107.432L248.238 90.3022C248.625 90.0497 248.947 89.7099 249.178 89.3102C249.409 88.9105 249.542 88.4622 249.567 88.0015V76.7134C249.574 75.8677 249.014 75.5236 248.245 75.9465Z" fill="#455A64"/>
<path d="M247.08 80.918C247.045 81.3626 246.907 81.793 246.676 82.1749C246.445 82.5569 246.129 82.8799 245.751 83.1183L220.992 97.3808C220.274 97.8036 219.663 97.5026 219.663 96.7071C219.698 96.2625 219.836 95.8321 220.067 95.4501C220.298 95.0681 220.614 94.7451 220.992 94.5068L245.751 80.2514C246.484 79.8214 247.08 80.1296 247.08 80.918Z" fill="#BA68C8"/>
<path d="M247.08 86.6614C247.046 87.106 246.907 87.5364 246.677 87.9183C246.446 88.3003 246.129 88.6233 245.751 88.8617L220.993 103.124C220.274 103.547 219.664 103.246 219.664 102.45C219.698 102.006 219.837 101.575 220.067 101.194C220.298 100.812 220.615 100.489 220.993 100.25L245.751 85.9948C246.484 85.5576 247.08 85.873 247.08 86.6614Z" fill="#263238"/>
<path d="M245.752 85.9951L237.131 90.969V93.8358L245.752 88.8547C246.13 88.6164 246.447 88.2934 246.678 87.9114C246.909 87.5294 247.047 87.099 247.082 86.6544C247.082 85.8732 246.485 85.5579 245.752 85.9951Z" fill="#BA68C8"/>
<path d="M248.245 96.045L218.501 113.174C218.114 113.426 217.792 113.764 217.561 114.163C217.331 114.561 217.197 115.008 217.171 115.468V126.763C217.171 127.609 217.761 127.953 218.493 127.53L248.238 110.401C248.625 110.148 248.947 109.808 249.178 109.409C249.409 109.009 249.542 108.561 249.567 108.1V96.8119C249.574 95.9662 249.014 95.5935 248.245 96.045Z" fill="#455A64"/>
<path d="M247.08 101.018C247.046 101.463 246.907 101.893 246.677 102.275C246.446 102.657 246.129 102.98 245.751 103.219L220.993 117.481C220.274 117.904 219.664 117.603 219.664 116.807C219.698 116.363 219.837 115.932 220.067 115.55C220.298 115.168 220.615 114.845 220.993 114.607L245.751 100.352C246.484 99.9289 247.08 100.23 247.08 101.018Z" fill="#BA68C8"/>
<path d="M247.08 106.757C247.046 107.201 246.907 107.632 246.677 108.014C246.446 108.396 246.129 108.719 245.751 108.957L220.993 123.219C220.274 123.642 219.664 123.341 219.664 122.546C219.698 122.101 219.837 121.671 220.067 121.289C220.298 120.907 220.615 120.584 220.993 120.345L245.751 106.09C246.484 105.667 247.08 105.968 247.08 106.757Z" fill="#263238"/>
<path d="M245.748 106.09L232.097 113.938V116.805L245.748 108.957C246.125 108.719 246.442 108.396 246.673 108.014C246.904 107.632 247.042 107.201 247.077 106.757C247.077 105.968 246.48 105.667 245.748 106.09Z" fill="#BA68C8"/>
<path d="M248.245 116.141L218.501 133.271C218.114 133.522 217.792 133.861 217.561 134.259C217.331 134.658 217.197 135.105 217.171 135.564V146.859C217.171 147.705 217.761 148.042 218.493 147.619L248.238 130.49C248.625 130.238 248.946 129.9 249.177 129.501C249.408 129.103 249.542 128.656 249.567 128.196V116.901C249.574 116.055 249.014 115.718 248.245 116.141Z" fill="#455A64"/>
<path d="M247.08 121.114C247.045 121.559 246.907 121.989 246.676 122.371C246.445 122.753 246.129 123.076 245.751 123.314L220.992 137.577C220.274 137.992 219.663 137.699 219.663 136.903C219.698 136.458 219.836 136.028 220.067 135.646C220.298 135.264 220.614 134.941 220.992 134.703L245.751 120.44C246.484 120.025 247.08 120.318 247.08 121.114Z" fill="#BA68C8"/>
<path d="M247.08 126.856C247.046 127.3 246.907 127.731 246.677 128.113C246.446 128.495 246.129 128.818 245.751 129.056L220.993 143.318C220.274 143.741 219.664 143.44 219.664 142.645C219.698 142.2 219.837 141.77 220.067 141.388C220.298 141.006 220.615 140.683 220.993 140.444L245.751 126.189C246.484 125.766 247.08 126.06 247.08 126.856Z" fill="#263238"/>
<path d="M245.75 126.19L227.142 136.905V139.772L245.75 129.021C246.128 128.783 246.445 128.46 246.675 128.078C246.906 127.696 247.044 127.266 247.079 126.821C247.079 126.061 246.483 125.767 245.75 126.19Z" fill="#BA68C8"/>
<path d="M205.961 54.3739C204.582 53.5783 203.468 54.3022 203.468 55.9936V121.651C203.504 122.543 203.748 123.415 204.181 124.196C204.613 124.978 205.223 125.647 205.961 126.152C207.334 126.948 208.447 126.224 208.447 124.533V58.8748C208.412 57.9834 208.17 57.1123 207.738 56.331C207.307 55.5496 206.698 54.8795 205.961 54.3739Z" fill="#37474F"/>
<path d="M205.964 124.699C205.595 124.447 205.289 124.112 205.072 123.722C204.855 123.331 204.733 122.895 204.714 122.449V56.6117C204.714 55.7659 205.275 55.4004 205.964 55.8018C206.332 56.0538 206.636 56.3878 206.851 56.7771C207.067 57.1665 207.189 57.6006 207.207 58.0451V123.889C207.207 124.728 206.625 125.093 205.964 124.699Z" fill="#263238"/>
<path d="M205.964 124.697C205.595 124.445 205.289 124.11 205.072 123.72C204.855 123.329 204.733 122.893 204.714 122.447V90.9688L207.207 92.4022V123.88C207.207 124.726 206.625 125.091 205.964 124.697Z" fill="#BA68C8"/>
<path d="M198.483 50.0672C197.103 49.2717 195.99 49.9956 195.99 51.687V117.345C196.022 118.237 196.264 119.11 196.698 119.892C197.131 120.674 197.742 121.343 198.483 121.846C199.855 122.641 200.976 121.917 200.976 120.226V54.5682C200.94 53.6761 200.696 52.8047 200.264 52.0232C199.831 51.2418 199.221 50.572 198.483 50.0672Z" fill="#37474F"/>
<path d="M198.481 120.393C198.111 120.141 197.805 119.806 197.588 119.416C197.371 119.025 197.249 118.589 197.23 118.143V52.3058C197.23 51.4601 197.791 51.1017 198.481 51.4959C198.849 51.7487 199.153 52.0838 199.369 52.4745C199.585 52.8652 199.706 53.3007 199.724 53.7464V119.583C199.724 120.429 199.17 120.787 198.481 120.393Z" fill="#BA68C8"/>
<path d="M191.004 45.7678C189.632 44.965 188.511 45.6961 188.511 47.3803V113.038C188.547 113.93 188.791 114.802 189.224 115.583C189.656 116.364 190.266 117.034 191.004 117.539C192.384 118.335 193.497 117.611 193.497 115.919V50.2687C193.465 49.3759 193.223 48.5032 192.79 47.7213C192.356 46.9393 191.745 46.2701 191.004 45.7678Z" fill="#37474F"/>
<path d="M190.998 116.079C190.628 115.83 190.323 115.496 190.107 115.107C189.89 114.717 189.77 114.281 189.755 113.836V47.9921C189.755 47.1536 190.308 46.7881 190.998 47.1823C191.368 47.4343 191.673 47.769 191.89 48.1597C192.107 48.5505 192.23 48.9864 192.248 49.4327V115.27C192.248 116.115 191.688 116.481 190.998 116.079Z" fill="#263238"/>
<path d="M190.998 116.085C190.628 115.835 190.323 115.502 190.107 115.112C189.89 114.722 189.77 114.287 189.755 113.841V62.9551L192.248 64.3885V115.275C192.248 116.121 191.688 116.486 190.998 116.085Z" fill="#BA68C8"/>
<path d="M183.534 41.4618C182.155 40.6662 181.041 41.3901 181.041 43.0815V108.732C181.073 109.625 181.316 110.498 181.749 111.279C182.182 112.061 182.794 112.731 183.534 113.233C184.906 114.029 186.02 113.305 186.02 111.613V45.9627C185.985 45.0713 185.742 44.2002 185.311 43.4189C184.879 42.6375 184.271 41.9674 183.534 41.4618Z" fill="#37474F"/>
<path d="M183.529 111.775C183.16 111.523 182.855 111.19 182.638 110.8C182.421 110.411 182.298 109.976 182.279 109.531V43.6945C182.279 42.8487 182.839 42.4832 183.529 42.8774C183.897 43.1302 184.202 43.4653 184.417 43.856C184.633 44.2466 184.755 44.6822 184.772 45.1279V110.965C184.772 111.81 184.211 112.176 183.529 111.775Z" fill="#263238"/>
<path d="M183.529 111.774C183.16 111.522 182.855 111.189 182.638 110.799C182.421 110.41 182.298 109.975 182.279 109.53V98.4141L184.772 99.8475V110.956C184.772 111.809 184.211 112.175 183.529 111.774Z" fill="#BA68C8"/>
<path d="M176.056 37.1532C174.676 36.3576 173.562 37.0815 173.562 38.7729V104.423C173.595 105.316 173.837 106.189 174.27 106.971C174.703 107.753 175.315 108.422 176.056 108.924C177.428 109.727 178.549 108.996 178.549 107.312V41.6541C178.513 40.762 178.269 39.8906 177.836 39.1092C177.403 38.3278 176.794 37.658 176.056 37.1532Z" fill="#37474F"/>
<path d="M176.05 107.474C175.681 107.222 175.375 106.888 175.158 106.497C174.941 106.106 174.818 105.67 174.8 105.224V39.387C174.8 38.5413 175.361 38.1758 176.05 38.5772C176.42 38.8268 176.726 39.1601 176.942 39.55C177.158 39.9399 177.278 40.3752 177.293 40.8205V106.657C177.293 107.503 176.74 107.869 176.05 107.474Z" fill="#263238"/>
<path d="M176.05 107.473C175.681 107.221 175.375 106.887 175.158 106.496C174.941 106.105 174.818 105.669 174.8 105.223V70.8711L177.293 72.3045V106.649C177.293 107.502 176.74 107.868 176.05 107.473Z" fill="#BA68C8"/>
<path d="M207.388 134.136L174.626 115.265C174.037 114.928 173.562 115.201 173.562 115.882V127.786C173.582 128.154 173.689 128.512 173.874 128.831C174.058 129.15 174.316 129.42 174.626 129.621L207.388 148.492C207.977 148.829 208.451 148.556 208.451 147.883V135.971C208.432 135.603 208.325 135.245 208.14 134.926C207.955 134.608 207.698 134.337 207.388 134.136Z" fill="#37474F"/>
<path d="M206.037 137.67C206.037 138.459 205.441 138.76 204.708 138.337L177.291 122.569C176.913 122.331 176.596 122.008 176.366 121.626C176.135 121.244 175.997 120.814 175.962 120.369C175.962 119.573 176.558 119.272 177.291 119.695L204.708 135.463C205.087 135.702 205.404 136.026 205.635 136.409C205.866 136.793 206.003 137.225 206.037 137.67Z" fill="#263238"/>
<path d="M206.038 137.67C206.038 138.458 205.441 138.759 204.709 138.336L184.771 126.869V124.002L204.709 135.469C205.086 135.708 205.403 136.031 205.634 136.413C205.865 136.795 206.003 137.225 206.038 137.67Z" fill="#BA68C8"/>
<path d="M206.037 143.413C206.037 144.201 205.441 144.502 204.708 144.079L177.291 128.312C176.913 128.073 176.596 127.75 176.366 127.368C176.135 126.986 175.997 126.556 175.962 126.111C175.962 125.316 176.558 125.015 177.291 125.438L204.708 141.205C205.087 141.444 205.404 141.768 205.635 142.152C205.866 142.535 206.003 142.967 206.037 143.413Z" fill="#263238"/>
<path d="M206.039 143.411C206.039 144.199 205.443 144.5 204.71 144.077L197.23 139.777V136.91L204.71 141.21C205.088 141.449 205.404 141.772 205.635 142.154C205.866 142.536 206.004 142.966 206.039 143.411Z" fill="#BA68C8"/>
<path d="M171.148 22.7478L210.858 -0.129519C211.271 -0.334644 211.726 -0.441406 212.187 -0.441406C212.649 -0.441406 213.104 -0.334644 213.517 -0.129519L253.226 22.7478C253.388 22.8003 253.529 22.9024 253.628 23.0395C253.728 23.1766 253.782 23.3417 253.782 23.5111C253.782 23.6806 253.728 23.8457 253.628 23.9828C253.529 24.1199 253.388 24.222 253.226 24.2744L213.517 47.1446C213.105 47.353 212.649 47.4616 212.187 47.4616C211.726 47.4616 211.27 47.353 210.858 47.1446L171.148 24.2744C170.987 24.222 170.846 24.1199 170.746 23.9828C170.647 23.8457 170.593 23.6806 170.593 23.5111C170.593 23.3417 170.647 23.1766 170.746 23.0395C170.846 22.9024 170.987 22.8003 171.148 22.7478Z" fill="#455A64"/>
<path d="M212.985 41.7065L243.785 23.9608C244.019 23.8114 244.213 23.6086 244.352 23.3692C244.49 23.1298 244.57 22.8609 244.583 22.5847V21.5526C244.57 21.2764 244.49 21.0075 244.352 20.7681C244.213 20.5287 244.019 20.3259 243.785 20.1765L212.985 2.41649C212.737 2.29288 212.464 2.22852 212.187 2.22852C211.91 2.22852 211.637 2.29288 211.39 2.41649L180.582 20.1765C180.35 20.3272 180.156 20.5303 180.018 20.7694C179.879 21.0085 179.799 21.2768 179.784 21.5526V22.5847C179.799 22.8605 179.879 23.1288 180.018 23.3679C180.156 23.607 180.35 23.8101 180.582 23.9608L211.39 41.7065C211.637 41.8301 211.91 41.8944 212.187 41.8944C212.464 41.8944 212.737 41.8301 212.985 41.7065Z" fill="#263238"/>
<path d="M243.792 21.0954L212.991 38.834C212.745 38.9609 212.471 39.0272 212.194 39.0272C211.916 39.0272 211.643 38.9609 211.396 38.834L180.588 21.0954C180.493 21.0615 180.412 20.9992 180.354 20.9171C180.296 20.835 180.265 20.7371 180.265 20.6367C180.265 20.5363 180.296 20.4384 180.354 20.3563C180.412 20.2742 180.493 20.2119 180.588 20.178L211.396 3.04868C211.643 2.92172 211.916 2.85547 212.194 2.85547C212.471 2.85547 212.745 2.92172 212.991 3.04868L243.792 20.178C243.89 20.2084 243.976 20.2693 244.037 20.3518C244.098 20.4343 244.131 20.5342 244.131 20.6367C244.131 20.7393 244.098 20.8391 244.037 20.9216C243.976 21.0042 243.89 21.0651 243.792 21.0954Z" fill="#455A64"/>
<path d="M212.193 39.0284V41.8952C212.47 41.9024 212.745 41.8383 212.99 41.7089L243.791 23.9632C244.024 23.8138 244.219 23.611 244.357 23.3716C244.496 23.1323 244.575 22.8633 244.589 22.5871V21.555C244.576 21.3091 244.512 21.0686 244.401 20.8489C244.289 20.6291 244.133 20.4351 243.942 20.2793C244.229 20.5301 244.179 20.8742 243.791 21.0963L212.99 38.8349C212.746 38.9668 212.471 39.0334 212.193 39.0284Z" fill="#37474F"/>
<path d="M212.983 33.0938L233.819 21.0961C234.055 20.9479 234.252 20.7458 234.394 20.5066C234.537 20.2673 234.62 19.9977 234.638 19.72V18.6808C234.621 18.4054 234.54 18.1377 234.402 17.8989C234.263 17.66 234.071 17.4566 233.84 17.3047L220.455 9.58577C219.943 9.26538 219.488 8.86068 219.112 8.38887L212.732 -0.21164C212.579 -0.411461 212.359 -0.549677 212.112 -0.601004C211.865 -0.652331 211.608 -0.613339 211.388 -0.491159L190.552 11.5066C190.32 11.6568 190.126 11.8598 189.988 12.099C189.849 12.3382 189.769 12.6067 189.755 12.8826V19.6627C189.77 19.9385 189.85 20.2068 189.989 20.4459C190.127 20.685 190.32 20.8881 190.552 21.0388L211.388 33.0365C211.63 33.1724 211.901 33.2485 212.179 33.2585C212.456 33.2685 212.732 33.212 212.983 33.0938Z" fill="#263238"/>
<path d="M211.397 30.2283L198.005 22.5308C197.75 22.3812 197.51 22.2085 197.286 22.0148C197.047 21.7988 196.83 21.5586 196.64 21.2981L190.26 12.6976C190.187 12.6061 190.136 12.4998 190.109 12.3862C190.082 12.2727 190.08 12.1546 190.104 12.0404C190.128 11.9261 190.177 11.8186 190.248 11.7253C190.318 11.632 190.408 11.5554 190.511 11.5007L211.347 -0.497016C211.567 -0.619196 211.824 -0.658191 212.071 -0.606864C212.318 -0.555537 212.538 -0.417321 212.69 -0.2175L219.07 8.38301C219.405 8.86624 219.824 9.28611 220.306 9.62291L233.778 17.2702C233.872 17.3041 233.954 17.3664 234.012 17.4485C234.07 17.5306 234.101 17.6285 234.101 17.7289C234.101 17.8293 234.07 17.9272 234.012 18.0093C233.954 18.0914 233.872 18.1537 233.778 18.1876L212.942 30.1925C212.704 30.3137 212.441 30.3799 212.174 30.3861C211.906 30.3923 211.641 30.3384 211.397 30.2283Z" fill="#455A64"/>
<path d="M190.558 11.5671L211.393 -0.43061C211.614 -0.55279 211.871 -0.591785 212.117 -0.540458C212.364 -0.489131 212.584 -0.350914 212.737 -0.151094L219.117 8.44942C219.312 8.69512 219.531 8.92081 219.771 9.12312C219.771 9.12312 197.347 22.0239 197.34 22.0239C197.096 21.8098 196.877 21.5694 196.686 21.3072L190.306 12.7067C190.244 12.6167 190.2 12.5147 190.179 12.4073C190.158 12.2998 190.159 12.1891 190.183 12.0821C190.206 11.9751 190.252 11.8742 190.316 11.7856C190.381 11.6969 190.463 11.6226 190.558 11.5671Z" fill="#37474F"/>
<path d="M228.767 17.5187C228.478 17.3704 228.158 17.293 227.833 17.293C227.508 17.293 227.188 17.3704 226.899 17.5187C226.381 17.8126 226.381 18.2928 226.899 18.5938C227.189 18.7388 227.508 18.8143 227.833 18.8143C228.157 18.8143 228.477 18.7388 228.767 18.5938C229.284 18.2928 229.284 17.8126 228.767 17.5187Z" fill="#BA68C8"/>
<path d="M225.027 19.6737C224.737 19.5286 224.417 19.4531 224.093 19.4531C223.768 19.4531 223.448 19.5286 223.158 19.6737C222.641 19.9747 222.641 20.4549 223.158 20.7487C223.447 20.8971 223.768 20.9745 224.093 20.9745C224.417 20.9745 224.738 20.8971 225.027 20.7487C225.544 20.4549 225.544 19.9747 225.027 19.6737Z" fill="#BA68C8"/>
<path d="M221.295 21.8202C221.004 21.6751 220.683 21.5996 220.357 21.5996C220.032 21.5996 219.711 21.6751 219.42 21.8202C219.307 21.8595 219.21 21.9327 219.141 22.0297C219.072 22.1266 219.035 22.2425 219.035 22.3614C219.035 22.4802 219.072 22.5961 219.141 22.6931C219.21 22.79 219.307 22.8632 219.42 22.9025C219.711 23.0476 220.032 23.1231 220.357 23.1231C220.683 23.1231 221.004 23.0476 221.295 22.9025C221.408 22.8632 221.505 22.79 221.574 22.6931C221.643 22.5961 221.68 22.4802 221.68 22.3614C221.68 22.2425 221.643 22.1266 221.574 22.0297C221.505 21.9327 221.408 21.8595 221.295 21.8202Z" fill="#263238"/>
<path d="M217.549 23.9758C217.26 23.8274 216.94 23.75 216.615 23.75C216.29 23.75 215.97 23.8274 215.681 23.9758C215.568 24.0132 215.469 24.0852 215.399 24.1817C215.33 24.2782 215.292 24.3943 215.292 24.5133C215.292 24.6323 215.33 24.7484 215.399 24.8449C215.469 24.9414 215.568 25.0134 215.681 25.0508C215.97 25.1992 216.29 25.2766 216.615 25.2766C216.94 25.2766 217.26 25.1992 217.549 25.0508C217.663 25.0134 217.761 24.9414 217.831 24.8449C217.901 24.7484 217.939 24.6323 217.939 24.5133C217.939 24.3943 217.901 24.2782 217.831 24.1817C217.761 24.0852 217.663 24.0132 217.549 23.9758Z" fill="#263238"/>
<path d="M225.963 15.9022C225.673 15.7572 225.353 15.6816 225.029 15.6816C224.704 15.6816 224.385 15.7572 224.095 15.9022C223.982 15.9415 223.885 16.0147 223.816 16.1116C223.747 16.2085 223.71 16.3244 223.71 16.4433C223.71 16.5621 223.747 16.678 223.816 16.775C223.885 16.8719 223.982 16.9451 224.095 16.9844C224.385 17.1294 224.704 17.2049 225.029 17.2049C225.353 17.2049 225.673 17.1294 225.963 16.9844C226.075 16.9451 226.173 16.8719 226.241 16.775C226.31 16.678 226.347 16.5621 226.347 16.4433C226.347 16.3244 226.31 16.2085 226.241 16.1116C226.173 16.0147 226.075 15.9415 225.963 15.9022Z" fill="#BA68C8"/>
<path d="M222.223 18.0579C221.933 17.9094 221.612 17.832 221.286 17.832C220.96 17.832 220.638 17.9094 220.348 18.0579C220.235 18.0953 220.136 18.1673 220.066 18.2638C219.997 18.3603 219.959 18.4763 219.959 18.5954C219.959 18.7144 219.997 18.8305 220.066 18.9269C220.136 19.0234 220.235 19.0955 220.348 19.1329C220.639 19.278 220.96 19.3536 221.286 19.3536C221.611 19.3536 221.932 19.278 222.223 19.1329C222.337 19.0955 222.435 19.0234 222.505 18.9269C222.575 18.8305 222.613 18.7144 222.613 18.5954C222.613 18.4763 222.575 18.3603 222.505 18.2638C222.435 18.1673 222.337 18.0953 222.223 18.0579Z" fill="#263238"/>
<path d="M217.551 21.5038C218.281 21.5038 218.873 21.1637 218.873 20.7441C218.873 20.3245 218.281 19.9844 217.551 19.9844C216.821 19.9844 216.229 20.3245 216.229 20.7441C216.229 21.1637 216.821 21.5038 217.551 21.5038Z" fill="#BA68C8"/>
<path d="M214.744 22.3644C214.455 22.2161 214.135 22.1387 213.81 22.1387C213.485 22.1387 213.165 22.2161 212.876 22.3644C212.359 22.6583 212.359 23.1385 212.876 23.4395C213.166 23.5845 213.486 23.66 213.81 23.66C214.135 23.66 214.454 23.5845 214.744 23.4395C215.24 23.1385 215.24 22.6583 214.744 22.3644Z" fill="#263238"/>
<path d="M223.15 14.2869C222.86 14.1419 222.54 14.0664 222.216 14.0664C221.891 14.0664 221.571 14.1419 221.282 14.2869C220.764 14.588 220.764 15.0682 221.282 15.362C221.57 15.5104 221.891 15.5878 222.216 15.5878C222.54 15.5878 222.861 15.5104 223.15 15.362C223.681 15.0682 223.681 14.6023 223.15 14.2869Z" fill="#263238"/>
<path d="M219.413 16.4393C219.123 16.2943 218.804 16.2187 218.479 16.2188C218.155 16.2187 217.835 16.2943 217.545 16.4393C217.433 16.4786 217.336 16.5518 217.267 16.6487C217.198 16.7456 217.161 16.8616 217.161 16.9804C217.161 17.0992 217.198 17.2152 217.267 17.3121C217.336 17.409 217.433 17.4822 217.545 17.5215C217.835 17.6665 218.155 17.742 218.479 17.742C218.804 17.742 219.123 17.6665 219.413 17.5215C219.526 17.4822 219.623 17.409 219.692 17.3121C219.761 17.2152 219.798 17.0992 219.798 16.9804C219.798 16.8616 219.761 16.7456 219.692 16.6487C219.623 16.5518 219.526 16.4786 219.413 16.4393Z" fill="#BA68C8"/>
<path d="M215.683 18.5988C215.394 18.4504 215.074 18.373 214.749 18.373C214.424 18.373 214.104 18.4504 213.815 18.5988C213.702 18.6362 213.603 18.7083 213.533 18.8048C213.463 18.9013 213.426 19.0173 213.426 19.1363C213.426 19.2554 213.463 19.3714 213.533 19.4679C213.603 19.5644 213.702 19.6365 213.815 19.6739C214.105 19.8189 214.425 19.8944 214.749 19.8944C215.073 19.8944 215.393 19.8189 215.683 19.6739C215.796 19.6365 215.895 19.5644 215.965 19.4679C216.035 19.3714 216.072 19.2554 216.072 19.1363C216.072 19.0173 216.035 18.9013 215.965 18.8048C215.895 18.7083 215.796 18.6362 215.683 18.5988Z" fill="#263238"/>
<path d="M213.81 26.0701C213.52 25.9251 213.2 25.8496 212.876 25.8496C212.552 25.8496 212.232 25.9251 211.942 26.0701C211.425 26.3712 211.425 26.8514 211.942 27.1452C212.231 27.2936 212.551 27.371 212.876 27.371C213.201 27.371 213.521 27.2936 213.81 27.1452C214.313 26.8657 214.313 26.3855 213.81 26.0701Z" fill="#BA68C8"/>
<path d="M210.989 24.4758C210.7 24.3274 210.38 24.25 210.055 24.25C209.73 24.25 209.41 24.3274 209.121 24.4758C209.008 24.5132 208.909 24.5852 208.839 24.6817C208.77 24.7782 208.732 24.8943 208.732 25.0133C208.732 25.1323 208.77 25.2484 208.839 25.3449C208.909 25.4414 209.008 25.5134 209.121 25.5508C209.41 25.6992 209.73 25.7766 210.055 25.7766C210.38 25.7766 210.7 25.6992 210.989 25.5508C211.103 25.5134 211.201 25.4414 211.271 25.3449C211.341 25.2484 211.378 25.1323 211.378 25.0133C211.378 24.8943 211.341 24.7782 211.271 24.6817C211.201 24.5852 211.103 24.5132 210.989 24.4758Z" fill="#263238"/>
<path d="M211.948 20.7479C211.658 20.6029 211.338 20.5273 211.014 20.5273C210.69 20.5273 210.37 20.6029 210.08 20.7479C209.968 20.7872 209.87 20.8604 209.801 20.9573C209.732 21.0542 209.695 21.1701 209.695 21.289C209.695 21.4078 209.732 21.5237 209.801 21.6207C209.87 21.7176 209.968 21.7908 210.08 21.8301C210.37 21.9751 210.69 22.0506 211.014 22.0506C211.338 22.0506 211.658 21.9751 211.948 21.8301C212.06 21.7908 212.158 21.7176 212.227 21.6207C212.296 21.5237 212.333 21.4078 212.333 21.289C212.333 21.1701 212.296 21.0542 212.227 20.9573C212.158 20.8604 212.06 20.7872 211.948 20.7479Z" fill="#263238"/>
<path d="M220.36 12.6731C220.07 12.5247 219.748 12.4473 219.422 12.4473C219.096 12.4473 218.775 12.5247 218.484 12.6731C218.371 12.7105 218.273 12.7826 218.203 12.8791C218.133 12.9756 218.095 13.0916 218.095 13.2106C218.095 13.3297 218.133 13.4457 218.203 13.5422C218.273 13.6387 218.371 13.7108 218.484 13.7482C218.775 13.8966 219.096 13.974 219.422 13.974C219.748 13.974 220.07 13.8966 220.36 13.7482C220.473 13.7108 220.572 13.6387 220.641 13.5422C220.711 13.4457 220.749 13.3297 220.749 13.2106C220.749 13.0916 220.711 12.9756 220.641 12.8791C220.572 12.7826 220.473 12.7105 220.36 12.6731Z" fill="#BA68C8"/>
<path d="M215.687 16.1268C216.417 16.1268 217.009 15.7867 217.009 15.3671C217.009 14.9476 216.417 14.6074 215.687 14.6074C214.957 14.6074 214.365 14.9476 214.365 15.3671C214.365 15.7867 214.957 16.1268 215.687 16.1268Z" fill="#263238"/>
<path d="M212.881 16.9836C212.592 16.8352 212.271 16.7578 211.947 16.7578C211.622 16.7578 211.301 16.8352 211.012 16.9836C210.495 17.2774 210.495 17.7576 211.012 18.0586C211.302 18.2037 211.622 18.2792 211.947 18.2792C212.271 18.2792 212.591 18.2037 212.881 18.0586C213.398 17.7576 213.398 17.2774 212.881 16.9836Z" fill="#BA68C8"/>
<path d="M209.141 19.1366C208.85 18.9915 208.529 18.916 208.203 18.916C207.878 18.916 207.557 18.9915 207.266 19.1366C207.152 19.174 207.054 19.2461 206.984 19.3426C206.914 19.4391 206.876 19.5551 206.876 19.6742C206.876 19.7932 206.914 19.9092 206.984 20.0057C207.054 20.1022 207.152 20.1743 207.266 20.2117C207.556 20.3601 207.877 20.4375 208.203 20.4375C208.529 20.4375 208.851 20.3601 209.141 20.2117C209.254 20.1743 209.353 20.1022 209.423 20.0057C209.493 19.9092 209.53 19.7932 209.53 19.6742C209.53 19.5551 209.493 19.4391 209.423 19.3426C209.353 19.2461 209.254 19.174 209.141 19.1366Z" fill="#263238"/>
<path d="M208.188 22.8606C207.898 22.7122 207.576 22.6348 207.25 22.6348C206.924 22.6348 206.603 22.7122 206.313 22.8606C206.199 22.898 206.101 22.9701 206.031 23.0666C205.961 23.1631 205.923 23.2791 205.923 23.3981C205.923 23.5172 205.961 23.6332 206.031 23.7297C206.101 23.8262 206.199 23.8983 206.313 23.9357C206.603 24.0841 206.924 24.1615 207.25 24.1615C207.576 24.1615 207.898 24.0841 208.188 23.9357C208.301 23.8983 208.4 23.8262 208.47 23.7297C208.539 23.6332 208.577 23.5172 208.577 23.3981C208.577 23.2791 208.539 23.1631 208.47 23.0666C208.4 22.9701 208.301 22.898 208.188 22.8606Z" fill="#BA68C8"/>
<path d="M205.376 21.2472C205.087 21.0989 204.767 21.0215 204.442 21.0215C204.117 21.0215 203.797 21.0989 203.508 21.2472C202.991 21.5411 202.991 22.0213 203.508 22.3223C203.798 22.4673 204.118 22.5429 204.442 22.5429C204.766 22.5429 205.086 22.4673 205.376 22.3223C205.901 22.0213 205.901 21.5411 205.376 21.2472Z" fill="#263238"/>
<path d="M212.153 30.4152V33.282C212.445 33.2954 212.735 33.2311 212.994 33.0957L233.83 21.0979C234.066 20.9481 234.263 20.7447 234.405 20.5043C234.548 20.2639 234.631 19.9934 234.649 19.7147V18.6826C234.634 18.4375 234.568 18.1981 234.455 17.9798C234.343 17.7614 234.186 17.5687 233.995 17.4141C234.282 17.6649 234.232 18.0018 233.851 18.2239L213.015 30.2288C212.75 30.3681 212.452 30.4325 212.153 30.4152Z" fill="#37474F"/>
<path d="M216.368 8.06079C216.263 7.93017 216.116 7.84006 215.952 7.80603C215.788 7.77201 215.618 7.79621 215.47 7.87445L197.321 18.2954C197.252 18.3312 197.191 18.3819 197.144 18.4439C197.097 18.506 197.064 18.5777 197.048 18.6539C197.033 18.7301 197.034 18.8089 197.053 18.8845C197.071 18.9601 197.106 19.0306 197.156 19.0909C197.26 19.2216 197.407 19.3117 197.571 19.3457C197.735 19.3797 197.906 19.3555 198.054 19.2773L216.195 8.87067C216.266 8.83495 216.329 8.78373 216.377 8.72079C216.426 8.65785 216.46 8.5848 216.476 8.50704C216.493 8.42928 216.492 8.34881 216.473 8.27156C216.454 8.19432 216.418 8.12229 216.368 8.06079Z" fill="#263238"/>
<path d="M216.362 8.06079C216.258 7.93017 216.111 7.84006 215.947 7.80603C215.783 7.77201 215.612 7.79621 215.464 7.87445L201.964 15.6149L202.718 16.6183L216.19 8.87067C216.261 8.83495 216.323 8.78373 216.372 8.72079C216.42 8.65785 216.454 8.5848 216.471 8.50704C216.487 8.42928 216.486 8.34881 216.467 8.27156C216.448 8.19432 216.413 8.12229 216.362 8.06079Z" fill="#BA68C8"/>
<path d="M214.863 6.05619C214.759 5.92728 214.613 5.83828 214.451 5.80432C214.288 5.77035 214.119 5.7935 213.972 5.86985L195.845 16.2836C195.776 16.3211 195.717 16.373 195.67 16.4357C195.624 16.4984 195.592 16.5705 195.576 16.6468C195.56 16.7232 195.561 16.8021 195.579 16.878C195.597 16.9539 195.631 17.025 195.679 17.0863C195.784 17.217 195.931 17.3071 196.095 17.3411C196.259 17.3751 196.43 17.3509 196.578 17.2727L214.705 6.83024C214.769 6.79257 214.825 6.74178 214.868 6.68116C214.912 6.62054 214.942 6.55146 214.957 6.47842C214.972 6.40539 214.971 6.33004 214.955 6.25729C214.939 6.18453 214.907 6.11601 214.863 6.05619Z" fill="#263238"/>
<path d="M214.863 6.05424C214.759 5.92533 214.614 5.83633 214.451 5.80236C214.289 5.7684 214.12 5.79155 213.972 5.86789L209.46 8.46238L210.215 9.44427L214.72 6.84978C214.786 6.81117 214.844 6.75857 214.888 6.69561C214.932 6.63265 214.962 6.56084 214.976 6.48516C214.99 6.40949 214.987 6.33175 214.967 6.25734C214.948 6.18293 214.912 6.11363 214.863 6.05424Z" fill="#BA68C8"/>
<path d="M213.358 4.04712C213.253 3.9165 213.106 3.82639 212.942 3.79236C212.778 3.75834 212.608 3.78253 212.46 3.86077L194.311 14.2746C194.243 14.312 194.183 14.3639 194.137 14.4266C194.09 14.4894 194.058 14.5614 194.042 14.6378C194.027 14.7141 194.028 14.793 194.046 14.8689C194.063 14.9448 194.098 15.0159 194.146 15.0773C194.25 15.2079 194.397 15.298 194.561 15.332C194.725 15.366 194.896 15.3418 195.044 15.2636L213.171 4.82116C213.238 4.786 213.296 4.73706 213.343 4.67759C213.389 4.61812 213.422 4.54948 213.44 4.47625C213.457 4.40302 213.459 4.32687 213.445 4.25287C213.431 4.17888 213.401 4.10874 213.358 4.04712Z" fill="#263238"/>
<path d="M213.362 4.04712C213.257 3.9165 213.11 3.82639 212.947 3.79236C212.783 3.75834 212.612 3.78253 212.464 3.86077L203.03 9.25759L203.785 10.261L213.225 4.84266C213.291 4.80344 213.348 4.75037 213.392 4.68712C213.435 4.62387 213.465 4.55194 213.478 4.47631C213.491 4.40068 213.487 4.32313 213.467 4.24903C213.447 4.17493 213.411 4.10604 213.362 4.04712Z" fill="#BA68C8"/>
<path d="M211.869 2.03931C211.764 1.90869 211.618 1.81858 211.454 1.78455C211.29 1.75052 211.119 1.77472 210.971 1.85296L192.822 12.2667C192.754 12.3042 192.694 12.3561 192.648 12.4188C192.601 12.4816 192.569 12.5536 192.553 12.63C192.538 12.7063 192.539 12.7852 192.557 12.8611C192.575 12.937 192.609 13.0081 192.657 13.0695C192.761 13.2001 192.908 13.2902 193.072 13.3242C193.236 13.3582 193.407 13.334 193.555 13.2558L211.682 2.81335C211.749 2.77819 211.807 2.72925 211.854 2.66978C211.9 2.61031 211.933 2.54167 211.951 2.46844C211.969 2.39521 211.97 2.31906 211.956 2.24506C211.942 2.17107 211.912 2.10093 211.869 2.03931Z" fill="#263238"/>
<path d="M211.865 2.03931C211.761 1.90869 211.614 1.81858 211.45 1.78455C211.286 1.75052 211.115 1.77472 210.967 1.85296L194.485 11.3064L195.24 12.3097L211.693 2.83485C211.762 2.79879 211.822 2.74807 211.869 2.68629C211.916 2.62451 211.949 2.55316 211.965 2.47729C211.982 2.40142 211.981 2.32287 211.964 2.24719C211.947 2.17151 211.913 2.10055 211.865 2.03931Z" fill="#BA68C8"/>
<path d="M176.689 135.828C176.744 135.809 176.803 135.804 176.861 135.813C176.918 135.821 176.973 135.844 177.02 135.878C177.166 135.975 177.287 136.105 177.375 136.256C177.462 136.408 177.513 136.578 177.522 136.753C177.527 136.808 177.518 136.864 177.499 136.916C177.479 136.968 177.448 137.015 177.408 137.054L177.35 137.09L155.753 149.525L154.316 148.708L176.689 135.828Z" fill="#455A64"/>
<path d="M179.606 137.509C179.66 137.489 179.719 137.482 179.777 137.489C179.834 137.497 179.889 137.518 179.937 137.552C180.084 137.648 180.207 137.777 180.296 137.929C180.384 138.081 180.436 138.251 180.447 138.427C180.452 138.484 180.443 138.542 180.422 138.595C180.401 138.648 180.367 138.696 180.325 138.735L180.267 138.771L158.67 151.206L157.233 150.389L179.606 137.509Z" fill="#455A64"/>
<path d="M182.52 139.186C182.575 139.167 182.634 139.161 182.692 139.17C182.749 139.179 182.804 139.201 182.851 139.236C182.997 139.331 183.119 139.459 183.206 139.609C183.294 139.76 183.344 139.929 183.354 140.103C183.358 140.16 183.35 140.217 183.331 140.27C183.311 140.323 183.279 140.371 183.239 140.411L183.174 140.447L161.584 152.882L160.147 152.065L182.52 139.186Z" fill="#455A64"/>
<path d="M185.441 140.865C185.497 140.848 185.557 140.843 185.615 140.852C185.674 140.861 185.729 140.882 185.778 140.915C185.925 141.012 186.046 141.141 186.133 141.293C186.221 141.445 186.271 141.615 186.281 141.79C186.286 141.845 186.279 141.901 186.259 141.953C186.239 142.006 186.207 142.053 186.166 142.091L186.109 142.127L164.512 154.561L163.075 153.744L185.441 140.865Z" fill="#455A64"/>
<path d="M37.7778 211.376C37.8499 212.363 38.1542 213.32 38.666 214.168C39.1778 215.016 39.8827 215.731 40.7236 216.257L123.348 263.825C124.262 264.287 125.272 264.529 126.297 264.529C127.322 264.529 128.332 264.287 129.246 263.825L242.247 198.74C243.137 198.271 243.882 197.568 244.402 196.707C244.922 195.846 245.196 194.861 245.196 193.856C245.196 192.851 244.922 191.866 244.402 191.005C243.882 190.145 243.137 189.441 242.247 188.972L159.652 141.404C158.738 140.944 157.729 140.705 156.706 140.705C155.683 140.705 154.674 140.944 153.76 141.404L40.7523 206.488C39.9052 207.011 39.1941 207.726 38.6771 208.576C38.1602 209.425 37.852 210.385 37.7778 211.376Z" fill="#BA68C8"/>
<path opacity="0.7" d="M126.288 258.162V264.527C125.258 264.542 124.242 264.295 123.335 263.81L40.7466 216.256C39.8804 215.804 39.1503 215.13 38.6311 214.303C38.1118 213.477 37.822 212.528 37.7913 211.553C37.7606 210.578 37.9901 209.613 38.4564 208.755C38.9226 207.898 39.6088 207.18 40.4448 206.674C39.1228 207.62 39.2234 209.003 40.7466 209.878L123.371 257.445C124.266 257.928 125.27 258.175 126.288 258.162Z" fill="black"/>
<path d="M35.0376 206.599C34.212 206.04 33.531 205.294 33.0502 204.422C32.5694 203.55 32.3025 202.576 32.2715 201.582V103.292C32.3274 102.273 32.6233 101.281 33.1351 100.397C33.6468 99.5128 34.3601 98.7614 35.2172 98.2036L148.225 33.1192C149.078 32.586 150.06 32.2946 151.066 32.2763C152.073 32.258 153.065 32.5134 153.936 33.0152C154.808 33.517 155.526 34.2462 156.014 35.1244C156.501 36.0027 156.739 36.9968 156.703 38V136.318C156.648 137.338 156.353 138.33 155.841 139.214C155.329 140.099 154.615 140.85 153.758 141.407L40.7494 206.491C39.873 206.956 38.8989 207.208 37.9064 207.227C36.9139 207.246 35.931 207.03 35.0376 206.599Z" fill="#BA68C8"/>
<path opacity="0.7" d="M40.3974 206.676C39.5529 207.055 38.6355 207.245 37.7095 207.233C36.7836 207.22 35.8716 207.006 35.0376 206.604C34.2125 206.045 33.5317 205.299 33.0509 204.427C32.5702 203.555 32.3031 202.582 32.2715 201.587V103.291C32.3114 102.278 32.6081 101.291 33.1336 100.424L38.6659 103.606C38.138 104.473 37.839 105.459 37.7965 106.473V204.798C37.775 206.533 38.9389 207.314 40.3974 206.676Z" fill="black"/>
<path opacity="0.5" d="M37.7778 106.479V204.797C37.7778 206.668 39.0926 207.428 40.7236 206.489L153.732 141.404C154.59 140.847 155.303 140.096 155.815 139.212C156.327 138.328 156.623 137.335 156.677 136.316V37.9975C156.677 36.1197 155.355 35.36 153.732 36.2989L40.7523 101.383C39.8885 101.938 39.1687 102.689 38.6518 103.575C38.1348 104.461 37.8353 105.456 37.7778 106.479Z" fill="black"/>
<path d="M40.7515 209.887L123.376 257.455C124.289 257.918 125.3 258.159 126.325 258.159C127.35 258.159 128.36 257.918 129.274 257.455L242.239 192.342C243.87 191.403 243.87 189.884 242.239 188.945L159.651 141.406C158.737 140.946 157.729 140.707 156.705 140.707C155.682 140.707 154.673 140.946 153.76 141.406L40.7515 206.49C39.1206 207.429 39.1206 208.948 40.7515 209.887Z" fill="#BA68C8"/>
<path opacity="0.3" d="M40.7515 209.887L123.376 257.455C124.289 257.918 125.3 258.159 126.325 258.159C127.35 258.159 128.36 257.918 129.274 257.455L242.239 192.342C243.87 191.403 243.87 189.884 242.239 188.945L159.651 141.406C158.737 140.946 157.729 140.707 156.705 140.707C155.682 140.707 154.673 140.946 153.76 141.406L40.7515 206.49C39.1206 207.429 39.1206 208.948 40.7515 209.887Z" fill="black"/>
<path d="M42.3376 106.837L151.294 44.1034C152.271 43.5444 153.061 44.003 153.061 45.1283V130.237C153.028 130.849 152.85 131.444 152.543 131.975C152.236 132.505 151.808 132.956 151.294 133.291L42.3376 196.024C41.3605 196.583 40.563 196.132 40.563 195.006V109.919C40.5945 109.302 40.7717 108.701 41.0801 108.166C41.3885 107.63 41.8194 107.175 42.3376 106.837Z" fill="#FAFAFA"/>
<path d="M114.221 93.5616L113.503 113.214C113.503 121.305 108.409 135.919 97.9265 146.72C97.1744 147.437 96.2229 147.912 95.1963 148.082C94.6646 148.132 94.1545 148.153 93.6516 148.153C91.4095 148.186 89.1986 147.628 87.2428 146.534L87.1782 146.498L87.056 146.419C82.3931 143.609 80.094 137.876 80.094 132.472L79.3756 113.687C79.3709 113.18 79.5612 112.69 79.9072 112.318C80.1645 112.013 80.4858 111.768 80.8484 111.601C85.6478 109.451 92.8397 101.001 96.2165 92.6371C96.4608 92.0422 96.82 91.8487 97.2224 92.035L97.2799 92.0709C97.4173 92.1481 97.5411 92.2474 97.6463 92.3647L97.7109 92.4436C101.303 96.6005 108.337 96.5933 113.036 93.0098C113.395 92.7374 113.69 92.6514 113.891 92.7374C114.135 92.8808 114.236 93.1388 114.221 93.5616Z" fill="#BA68C8"/>
<path opacity="0.2" d="M96.808 92.0039C96.6725 92.0605 96.5512 92.1465 96.4531 92.2555C96.3549 92.3646 96.2823 92.4941 96.2404 92.6346C92.8636 100.999 85.6717 109.477 80.8724 111.599C80.5097 111.766 80.1884 112.011 79.9312 112.315C79.5851 112.687 79.3949 113.177 79.3995 113.684L80.118 132.469C80.118 137.895 82.4171 143.628 87.1015 146.416L87.2236 146.495L87.2883 146.531C89.244 147.625 91.455 148.184 93.697 148.151C94.2 148.151 94.7101 148.151 95.2418 148.079C95.8034 148.001 96.3448 147.816 96.8368 147.535L96.808 92.0039Z" fill="black"/>
<path opacity="0.3" d="M50.3332 207.343L155.23 146.932C155.687 146.702 156.191 146.582 156.703 146.582C157.214 146.582 157.719 146.702 158.176 146.932L163.543 150.021C163.721 150.081 163.876 150.195 163.986 150.347C164.096 150.499 164.155 150.682 164.155 150.87C164.155 151.058 164.096 151.241 163.986 151.393C163.876 151.546 163.721 151.66 163.543 151.719L58.61 212.124C58.1532 212.354 57.6487 212.473 57.1371 212.473C56.6255 212.473 56.121 212.354 55.6643 212.124L50.3117 209.042C50.134 208.98 49.9804 208.864 49.8724 208.71C49.7644 208.556 49.7077 208.372 49.71 208.185C49.7124 207.997 49.7739 207.815 49.8857 207.664C49.9975 207.513 50.154 207.401 50.3332 207.343Z" fill="black"/>
<path opacity="0.3" d="M64.164 215.276L169.061 154.865C169.516 154.631 170.021 154.51 170.533 154.51C171.046 154.51 171.551 154.631 172.006 154.865L205.006 173.872C205.184 173.932 205.339 174.046 205.449 174.198C205.559 174.351 205.618 174.533 205.618 174.721C205.618 174.909 205.559 175.092 205.449 175.244C205.339 175.397 205.184 175.511 205.006 175.57L100.231 235.925C99.773 236.154 99.2674 236.274 98.7547 236.274C98.2421 236.274 97.7365 236.154 97.2783 235.925L64.164 216.996C63.9732 216.947 63.8042 216.835 63.6836 216.68C63.563 216.524 63.4976 216.333 63.4976 216.136C63.4976 215.939 63.563 215.748 63.6836 215.593C63.8042 215.437 63.9732 215.326 64.164 215.276Z" fill="black"/>
<path d="M158.187 182.071L161.471 180.179C161.607 180.1 161.6 179.964 161.471 179.878L157.677 177.692C157.596 177.652 157.506 177.631 157.415 177.631C157.324 177.631 157.234 177.652 157.153 177.692L153.869 179.584C153.726 179.67 153.733 179.799 153.869 179.885L157.67 182.078C157.751 182.117 157.84 182.136 157.93 182.135C158.019 182.133 158.107 182.112 158.187 182.071ZM151.721 174.56L148.416 176.445C148.273 176.531 148.28 176.66 148.416 176.753L152.217 178.939C152.298 178.98 152.388 179.001 152.479 179.001C152.57 179.001 152.66 178.98 152.741 178.939L156.025 177.047C156.161 176.968 156.154 176.832 156.025 176.746L152.231 174.56C152.15 174.518 152.06 174.496 151.969 174.496C151.878 174.496 151.788 174.518 151.707 174.56H151.721ZM141.109 180.666L135.548 183.87C135.412 183.949 135.419 184.085 135.548 184.171L139.349 186.321C139.429 186.362 139.518 186.383 139.608 186.383C139.698 186.383 139.786 186.362 139.867 186.321L145.427 183.118C145.564 183.039 145.557 182.903 145.427 182.817L141.634 180.666C141.551 180.624 141.458 180.601 141.365 180.601C141.271 180.601 141.178 180.624 141.095 180.666H141.109ZM146.907 177.291L143.617 179.183C143.48 179.262 143.488 179.398 143.617 179.484L147.418 181.634C147.499 181.674 147.589 181.695 147.68 181.695C147.771 181.695 147.861 181.674 147.942 181.634L151.226 179.742C151.362 179.663 151.355 179.527 151.226 179.441L147.432 177.255C147.348 177.22 147.257 177.205 147.166 177.211C147.074 177.218 146.986 177.245 146.907 177.291ZM134.047 184.745L130.735 186.608C130.598 186.694 130.605 186.83 130.735 186.916L134.528 189.102C134.61 189.143 134.7 189.164 134.791 189.164C134.882 189.164 134.971 189.143 135.053 189.102L138.336 187.21C138.48 187.131 138.473 186.995 138.336 186.909L134.535 184.759C134.46 184.72 134.377 184.699 134.293 184.697C134.208 184.694 134.124 184.711 134.047 184.745ZM129.248 187.504L125.964 189.396C125.828 189.475 125.835 189.611 125.964 189.697L129.758 191.883C129.839 191.925 129.929 191.947 130.02 191.947C130.111 191.947 130.201 191.925 130.282 191.883L133.566 189.991C133.709 189.912 133.702 189.776 133.566 189.69L129.736 187.518C129.657 187.477 129.569 187.454 129.479 187.451C129.389 187.449 129.3 187.467 129.219 187.504H129.248ZM144.185 196.398L147.475 194.506C147.612 194.427 147.604 194.291 147.475 194.205L143.674 192.019C143.593 191.977 143.503 191.955 143.412 191.955C143.321 191.955 143.231 191.977 143.15 192.019L139.795 193.904C139.658 193.983 139.665 194.119 139.795 194.205L143.588 196.355C143.671 196.41 143.767 196.442 143.866 196.45C143.966 196.457 144.065 196.44 144.156 196.398H144.185ZM139.385 199.165L142.669 197.273C142.812 197.194 142.805 197.058 142.669 196.972L138.868 194.821C138.786 194.781 138.697 194.76 138.606 194.76C138.515 194.76 138.425 194.781 138.343 194.821L135.017 196.642C134.88 196.721 134.888 196.857 135.017 196.943L138.81 199.136C138.892 199.185 138.985 199.212 139.08 199.217C139.175 199.222 139.27 199.204 139.356 199.165H139.385ZM134.586 201.931L137.869 200.039C138.013 199.96 138.006 199.824 137.869 199.738L134.047 197.552C133.966 197.51 133.876 197.488 133.785 197.488C133.693 197.488 133.603 197.51 133.522 197.552L130.239 199.444C130.102 199.523 130.11 199.659 130.239 199.745L134.033 201.931C134.114 201.972 134.204 201.993 134.295 201.993C134.386 201.993 134.476 201.972 134.557 201.931H134.586ZM129.736 204.691L133.019 202.806C133.163 202.72 133.149 202.583 133.019 202.497L129.219 200.311C129.137 200.271 129.048 200.25 128.957 200.25C128.866 200.25 128.776 200.271 128.694 200.311L125.425 202.196C125.289 202.275 125.296 202.411 125.425 202.497L129.219 204.683C129.298 204.725 129.387 204.748 129.477 204.749C129.566 204.75 129.655 204.73 129.736 204.691ZM153.367 184.838L156.65 182.946C156.786 182.867 156.779 182.731 156.65 182.645L152.856 180.459C152.775 180.418 152.685 180.397 152.594 180.397C152.503 180.397 152.413 180.418 152.332 180.459L149.049 182.308C148.905 182.387 148.912 182.523 149.049 182.609L152.849 184.795C152.929 184.844 153.02 184.874 153.113 184.882C153.207 184.889 153.301 184.874 153.388 184.838H153.367ZM148.934 193.639L156.262 189.418C156.406 189.339 156.391 189.203 156.262 189.116L147.037 183.806C146.955 183.765 146.866 183.744 146.775 183.744C146.684 183.744 146.594 183.765 146.512 183.806L142.726 185.992C142.582 186.07 142.589 186.207 142.726 186.293L147.612 189.102C147.762 189.188 147.77 189.324 147.612 189.403L144.58 191.152C144.443 191.231 144.45 191.367 144.58 191.453L148.38 193.639C148.468 193.689 148.567 193.716 148.668 193.716C148.769 193.716 148.868 193.689 148.955 193.639H148.934ZM124.398 190.27L121.114 192.163C120.978 192.241 120.985 192.378 121.114 192.464L124.908 194.649C124.989 194.69 125.079 194.711 125.17 194.711C125.261 194.711 125.351 194.69 125.432 194.649L128.716 192.757C128.86 192.679 128.852 192.542 128.716 192.456L124.915 190.27C124.838 190.233 124.753 190.214 124.667 190.214C124.581 190.214 124.497 190.233 124.419 190.27H124.398ZM119.62 193.058L116.337 194.951C116.2 195.029 116.207 195.166 116.337 195.252L120.13 197.437C120.211 197.48 120.301 197.502 120.392 197.502C120.484 197.502 120.574 197.48 120.655 197.437L123.938 195.553C124.082 195.467 124.067 195.33 123.938 195.244L120.137 193.094C120.06 193.049 119.972 193.023 119.883 193.016C119.793 193.01 119.703 193.025 119.62 193.058ZM95.6375 224.056C95.7185 224.098 95.8084 224.12 95.8997 224.12C95.991 224.12 96.081 224.098 96.162 224.056L99.4454 222.171C99.5819 222.085 99.5747 221.949 99.4454 221.863L95.6447 219.677C95.5646 219.636 95.476 219.615 95.386 219.615C95.2961 219.615 95.2074 219.636 95.1274 219.677L91.8368 221.569C91.7003 221.648 91.7075 221.784 91.8368 221.87L95.6375 224.056ZM81.2178 215.176L77.9344 217.061C77.7979 217.147 77.8051 217.276 77.9344 217.369L81.7279 219.555C81.8094 219.596 81.8992 219.617 81.9902 219.617C82.0811 219.617 82.1709 219.596 82.2524 219.555L85.5358 217.663C85.6795 217.584 85.6723 217.448 85.5358 217.362L81.7351 215.176C81.6568 215.132 81.569 215.107 81.479 215.103C81.3891 215.099 81.2996 215.117 81.2178 215.155V215.176ZM88.9485 221.662C89.03 221.703 89.1198 221.724 89.2108 221.724C89.3018 221.724 89.3915 221.703 89.473 221.662L92.7564 219.77C92.8929 219.691 92.8857 219.555 92.7564 219.469L88.9629 217.283C88.8814 217.243 88.7917 217.222 88.7007 217.222C88.6097 217.222 88.5199 217.243 88.4384 217.283L85.155 219.175C85.0113 219.261 85.0185 219.39 85.155 219.476L88.9485 221.662ZM104.108 225.733L107.392 223.848C107.535 223.762 107.528 223.626 107.392 223.54L103.591 221.354C103.509 221.314 103.42 221.293 103.329 221.293C103.238 221.293 103.148 221.314 103.066 221.354L99.7831 223.246C99.6465 223.325 99.6537 223.461 99.7831 223.547L103.577 225.733C103.66 225.773 103.752 225.792 103.845 225.788C103.938 225.785 104.028 225.758 104.108 225.712V225.733ZM98.7844 228.492C98.8659 228.533 98.9556 228.554 99.0466 228.554C99.1376 228.554 99.2274 228.533 99.3089 228.492L102.592 226.6C102.736 226.522 102.722 226.385 102.592 226.299L98.7916 224.113C98.7101 224.073 98.6203 224.052 98.5293 224.052C98.4383 224.052 98.3486 224.073 98.2671 224.113L94.9837 226.006C94.8472 226.092 94.8544 226.221 94.9837 226.307L98.7844 228.492ZM86.0172 212.41L82.7338 214.302C82.5973 214.38 82.6044 214.517 82.7338 214.603L86.5345 216.789C86.6142 216.831 86.703 216.853 86.7931 216.853C86.8833 216.853 86.9721 216.831 87.0518 216.789L90.3424 214.904C90.4789 214.818 90.4717 214.689 90.3424 214.595L86.5417 212.445C86.463 212.399 86.3747 212.372 86.2836 212.366C86.1926 212.36 86.1014 212.375 86.0172 212.41ZM110.021 198.584L106.745 200.455C106.601 200.534 106.616 200.67 106.745 200.756L110.546 202.942C110.627 202.982 110.717 203.003 110.808 203.003C110.899 203.003 110.989 202.982 111.07 202.942L114.354 201.05C114.49 200.971 114.483 200.835 114.354 200.749L110.56 198.563C110.477 198.52 110.384 198.498 110.291 198.498C110.197 198.498 110.105 198.52 110.021 198.563V198.584ZM90.8237 209.643L87.5331 211.535C87.3966 211.614 87.4038 211.75 87.5331 211.836L91.3339 214.022C91.4153 214.063 91.5051 214.084 91.5961 214.084C91.6871 214.084 91.7769 214.063 91.8583 214.022L95.1417 212.13C95.2783 212.051 95.2711 211.915 95.1417 211.829L91.341 209.643C91.2625 209.599 91.1748 209.575 91.085 209.571C90.9951 209.567 90.9056 209.584 90.8237 209.622V209.643ZM114.821 195.818L111.537 197.71C111.394 197.796 111.408 197.925 111.537 198.011L115.338 200.204C115.419 200.244 115.509 200.265 115.6 200.265C115.691 200.265 115.781 200.244 115.862 200.204L119.146 198.312C119.29 198.233 119.275 198.097 119.146 198.011L115.367 195.811C115.284 195.764 115.191 195.739 115.095 195.736C115 195.734 114.906 195.754 114.821 195.796V195.818ZM105.222 201.351L101.938 203.243C101.795 203.322 101.802 203.458 101.938 203.544L105.739 205.694C105.821 205.734 105.91 205.755 106.001 205.755C106.092 205.755 106.182 205.734 106.264 205.694L109.547 203.802C109.684 203.716 109.676 203.587 109.547 203.501L105.754 201.308C105.669 201.269 105.577 201.251 105.485 201.255C105.393 201.259 105.303 201.284 105.222 201.329V201.351ZM100.422 204.117L97.1391 205.959C96.9954 206.038 97.0026 206.174 97.1391 206.26L100.94 208.446C101.021 208.488 101.111 208.51 101.202 208.51C101.293 208.51 101.383 208.488 101.464 208.446L104.748 206.554C104.884 206.475 104.877 206.339 104.748 206.253L100.954 204.103C100.873 204.058 100.782 204.035 100.689 204.033C100.597 204.032 100.505 204.054 100.422 204.096V204.117ZM95.6231 206.877L92.3756 208.747C92.2319 208.826 92.2391 208.962 92.3756 209.048L96.1763 211.241C96.2578 211.282 96.3476 211.303 96.4386 211.303C96.5296 211.303 96.6193 211.282 96.7008 211.241L99.9842 209.349C100.121 209.27 100.114 209.134 99.9842 209.048L96.1907 206.862C96.1044 206.813 96.0071 206.787 95.9078 206.786C95.8086 206.785 95.7107 206.808 95.6231 206.855V206.877ZM120.159 210.245L123.442 208.353C123.579 208.274 123.572 208.138 123.442 208.052L119.649 205.866C119.567 205.826 119.478 205.805 119.387 205.805C119.296 205.805 119.206 205.826 119.124 205.866L115.841 207.758C115.697 207.837 115.712 207.973 115.841 208.059L119.642 210.245C119.721 210.287 119.809 210.309 119.899 210.312C119.988 210.314 120.077 210.296 120.159 210.259V210.245ZM162.319 168.468L159.028 170.36C158.892 170.439 158.899 170.575 159.028 170.661L162.829 172.811C162.91 172.852 163 172.873 163.091 172.873C163.182 172.873 163.272 172.852 163.353 172.811L166.637 170.919C166.773 170.833 166.766 170.704 166.637 170.618L162.836 168.425C162.754 168.388 162.665 168.37 162.575 168.374C162.485 168.377 162.397 168.402 162.319 168.447V168.468ZM156.506 171.815L153.223 173.707C153.079 173.786 153.086 173.922 153.223 174.008L157.024 176.194C157.105 176.236 157.194 176.258 157.286 176.258C157.377 176.258 157.467 176.236 157.548 176.194L160.831 174.309C160.968 174.223 160.961 174.087 160.831 174.001L157.038 171.801C156.956 171.758 156.865 171.735 156.773 171.734C156.681 171.733 156.589 171.753 156.506 171.794V171.815ZM167.097 165.68L163.813 167.572C163.669 167.651 163.677 167.787 163.813 167.873L167.614 170.059C167.695 170.1 167.785 170.121 167.876 170.121C167.967 170.121 168.057 170.1 168.138 170.059L171.422 168.167C171.558 168.088 171.551 167.952 171.422 167.866L167.628 165.68C167.546 165.639 167.455 165.617 167.362 165.617C167.27 165.617 167.179 165.639 167.097 165.68ZM142.252 191.238L145.535 189.346C145.672 189.267 145.665 189.131 145.535 189.045L141.742 186.895C141.66 186.854 141.57 186.833 141.479 186.833C141.388 186.833 141.299 186.854 141.217 186.895L137.927 188.758C137.79 188.844 137.797 188.973 137.927 189.059L141.727 191.252C141.813 191.294 141.907 191.315 142.002 191.312C142.097 191.31 142.19 191.284 142.273 191.238H142.252ZM172.428 162.928C172.346 162.888 172.256 162.867 172.165 162.867C172.074 162.867 171.985 162.888 171.903 162.928L168.62 164.82C168.476 164.906 168.483 165.035 168.62 165.121L172.42 167.314C172.502 167.355 172.592 167.376 172.683 167.376C172.774 167.376 172.863 167.355 172.945 167.314L176.228 165.422C176.365 165.343 176.358 165.207 176.228 165.121L172.428 162.928ZM124.944 207.457L128.227 205.565C128.371 205.486 128.357 205.35 128.227 205.264L124.427 203.114C124.345 203.073 124.255 203.052 124.164 203.052C124.073 203.052 123.984 203.073 123.902 203.114L120.619 205.006C120.475 205.092 120.489 205.221 120.619 205.307L124.412 207.5C124.5 207.538 124.595 207.553 124.691 207.546C124.786 207.538 124.878 207.508 124.958 207.457H124.944ZM183.808 173.557L187.092 171.665C187.228 171.586 187.221 171.45 187.092 171.364L183.298 169.178C183.217 169.137 183.127 169.116 183.036 169.116C182.945 169.116 182.855 169.137 182.774 169.178L179.49 171.07C179.346 171.149 179.361 171.285 179.49 171.371L183.291 173.521C183.37 173.57 183.459 173.599 183.552 173.605C183.645 173.611 183.738 173.595 183.822 173.557H183.808ZM173.584 173.198L176.868 171.306C177.004 171.227 176.997 171.091 176.868 171.005L173.074 168.819C172.993 168.779 172.903 168.758 172.812 168.758C172.721 168.758 172.631 168.779 172.55 168.819L169.252 170.697C169.108 170.776 169.115 170.912 169.252 170.998L173.053 173.148C173.133 173.2 173.224 173.232 173.319 173.241C173.415 173.249 173.51 173.235 173.599 173.198H173.584ZM177.852 166.031C177.771 165.991 177.681 165.97 177.59 165.97C177.499 165.97 177.409 165.991 177.328 166.031L174.044 167.923C173.9 168.009 173.908 168.138 174.044 168.224L177.845 170.418C177.926 170.458 178.016 170.479 178.107 170.479C178.198 170.479 178.288 170.458 178.369 170.418L181.653 168.525C181.789 168.447 181.782 168.31 181.653 168.224L177.852 166.031ZM178.858 165.451L188.083 170.762C188.164 170.804 188.254 170.826 188.345 170.826C188.437 170.826 188.527 170.804 188.607 170.762L191.891 168.869C192.035 168.791 192.02 168.654 191.891 168.568L182.666 163.258C182.585 163.216 182.495 163.194 182.404 163.194C182.312 163.194 182.222 163.216 182.141 163.258L178.858 165.15C178.714 165.25 178.729 165.386 178.872 165.472L178.858 165.451ZM167.743 171.557L164.46 173.449C164.316 173.528 164.323 173.664 164.46 173.75L168.26 175.936C168.341 175.978 168.431 176 168.523 176C168.614 176 168.704 175.978 168.785 175.936L172.068 174.051C172.205 173.965 172.198 173.836 172.068 173.743L168.268 171.557C168.186 171.517 168.096 171.496 168.005 171.496C167.914 171.496 167.825 171.517 167.743 171.557ZM131.611 192.342L128.299 194.27C128.163 194.348 128.17 194.485 128.299 194.571L132.093 196.757C132.174 196.797 132.264 196.818 132.355 196.818C132.446 196.818 132.536 196.797 132.617 196.757L135.901 194.864C136.044 194.778 136.037 194.649 135.901 194.563L132.1 192.37C132.023 192.337 131.939 192.32 131.855 192.321C131.77 192.322 131.687 192.342 131.611 192.378V192.342ZM178.499 176.273C178.58 176.313 178.67 176.335 178.761 176.335C178.852 176.335 178.942 176.313 179.023 176.273L182.307 174.381C182.443 174.302 182.436 174.166 182.307 174.08L178.513 171.93C178.432 171.888 178.342 171.866 178.251 171.866C178.159 171.866 178.069 171.888 177.989 171.93L174.705 173.822C174.561 173.901 174.569 174.037 174.705 174.123L178.499 176.273ZM136.411 189.575L133.127 191.467C132.991 191.546 132.998 191.682 133.127 191.768L136.921 193.99C137.001 194.03 137.09 194.051 137.179 194.051C137.269 194.051 137.358 194.03 137.438 193.99L140.729 192.098C140.865 192.019 140.858 191.883 140.729 191.797L136.921 189.625C136.842 189.585 136.756 189.563 136.667 189.56C136.579 189.558 136.491 189.575 136.411 189.611V189.575ZM100.437 221.232C100.518 221.273 100.608 221.294 100.699 221.294C100.79 221.294 100.88 221.273 100.961 221.232L104.245 219.34C104.381 219.261 104.374 219.125 104.245 219.039L100.451 216.853C100.37 216.813 100.28 216.792 100.189 216.792C100.098 216.792 100.008 216.813 99.9268 216.853L96.6433 218.745C96.4997 218.824 96.5068 218.96 96.6433 219.046L100.437 221.232ZM93.2162 214.459L89.9328 216.351C89.7891 216.43 89.7963 216.566 89.9328 216.652L93.7335 218.803C93.8145 218.845 93.9045 218.867 93.9958 218.867C94.0871 218.867 94.177 218.845 94.258 218.803L97.5414 216.91C97.6779 216.832 97.6708 216.695 97.5414 216.609L93.7479 214.423C93.6602 214.391 93.5658 214.38 93.4731 214.393C93.3803 214.405 93.2921 214.44 93.2162 214.495V214.459ZM105.761 218.48L109.044 216.588C109.181 216.509 109.173 216.373 109.044 216.287L105.251 214.137C105.169 214.096 105.079 214.075 104.988 214.075C104.897 214.075 104.808 214.096 104.726 214.137L101.421 215.993C101.277 216.072 101.285 216.208 101.421 216.294L105.222 218.487C105.303 218.534 105.394 218.562 105.488 218.567C105.582 218.572 105.675 218.554 105.761 218.516V218.48ZM110.56 215.714L113.844 213.821C113.98 213.743 113.973 213.606 113.844 213.52L110.05 211.334C109.969 211.292 109.879 211.27 109.788 211.27C109.696 211.27 109.606 211.292 109.526 211.334L106.242 213.227C106.098 213.305 106.106 213.442 106.242 213.528L110.043 215.678C110.117 215.73 110.203 215.764 110.293 215.776C110.383 215.789 110.474 215.78 110.56 215.749V215.714ZM115.359 212.954L118.643 211.062C118.779 210.976 118.772 210.847 118.643 210.761L114.849 208.568C114.768 208.528 114.678 208.507 114.587 208.507C114.496 208.507 114.406 208.528 114.325 208.568L111.056 210.489C110.912 210.568 110.919 210.704 111.056 210.79L114.857 212.976C114.935 213.016 115.022 213.038 115.11 213.041C115.198 213.043 115.286 213.026 115.367 212.99L115.359 212.954ZM98.0156 211.693L94.7322 213.585C94.5885 213.664 94.5957 213.8 94.7322 213.886L98.5329 216.072C98.6144 216.112 98.7042 216.133 98.7952 216.133C98.8862 216.133 98.9759 216.112 99.0574 216.072L102.341 214.18C102.477 214.094 102.47 213.965 102.341 213.879L98.5473 211.686C98.4615 211.651 98.3687 211.636 98.2763 211.644C98.1839 211.651 98.0946 211.68 98.0156 211.729V211.693ZM102.815 208.926L99.5603 210.854C99.4166 210.933 99.4238 211.069 99.5603 211.155L103.361 213.341C103.443 213.382 103.532 213.403 103.623 213.403C103.714 213.403 103.804 213.382 103.886 213.341L107.169 211.449C107.305 211.37 107.298 211.234 107.169 211.148L103.375 208.962C103.289 208.916 103.193 208.891 103.095 208.891C102.997 208.891 102.901 208.916 102.815 208.962V208.926ZM122.013 197.868L118.729 199.76C118.593 199.838 118.6 199.975 118.729 200.061L122.523 202.247C122.604 202.289 122.694 202.311 122.785 202.311C122.876 202.311 122.966 202.289 123.047 202.247L126.331 200.354C126.474 200.276 126.467 200.139 126.331 200.053L122.551 197.918C122.469 197.873 122.377 197.848 122.284 197.845C122.19 197.843 122.097 197.863 122.013 197.903V197.868ZM117.213 200.634L113.93 202.562C113.793 202.641 113.8 202.777 113.93 202.863L117.723 205.049C117.805 205.089 117.894 205.11 117.985 205.11C118.076 205.11 118.166 205.089 118.248 205.049L121.531 203.157C121.675 203.078 121.668 202.942 121.531 202.856L117.73 200.67C117.65 200.629 117.562 200.608 117.472 200.608C117.382 200.608 117.293 200.629 117.213 200.67V200.634ZM126.812 195.108L123.528 196.993C123.392 197.079 123.399 197.215 123.528 197.301L127.322 199.451C127.403 199.492 127.493 199.513 127.584 199.513C127.675 199.513 127.765 199.492 127.846 199.451L131.13 197.559C131.274 197.48 131.266 197.344 131.13 197.258L127.329 195.072C127.244 195.042 127.152 195.033 127.062 195.045C126.972 195.058 126.886 195.092 126.812 195.144V195.108ZM107.614 206.16L104.331 208.109C104.187 208.195 104.202 208.324 104.331 208.41L108.132 210.603C108.213 210.644 108.303 210.665 108.394 210.665C108.485 210.665 108.575 210.644 108.656 210.603L111.94 208.711C112.076 208.632 112.069 208.496 111.94 208.41L108.146 206.26C108.069 206.208 107.98 206.175 107.888 206.164C107.796 206.153 107.702 206.164 107.614 206.196V206.16ZM112.414 203.4L109.13 205.293C108.994 205.371 109.001 205.508 109.13 205.594L112.924 207.744C113.005 207.786 113.095 207.808 113.186 207.808C113.277 207.808 113.367 207.786 113.448 207.744L116.732 205.859C116.875 205.773 116.861 205.637 116.732 205.551L112.931 203.365C112.845 203.336 112.754 203.328 112.664 203.34C112.574 203.353 112.489 203.386 112.414 203.436V203.4ZM108.9 222.952L112.184 221.06C112.328 220.981 112.32 220.845 112.184 220.759L108.383 218.609C108.302 218.567 108.212 218.545 108.121 218.545C108.03 218.545 107.94 218.567 107.859 218.609L104.59 220.451C104.453 220.53 104.46 220.666 104.59 220.752L108.383 222.938C108.463 222.979 108.55 223.002 108.64 223.005C108.73 223.007 108.819 222.989 108.9 222.952ZM80.7364 220.085L76.9357 217.9C76.8542 217.859 76.7645 217.838 76.6735 217.838C76.5825 217.838 76.4927 217.859 76.4112 217.9L73.1278 219.792C72.9913 219.87 72.9985 220.007 73.1278 220.093L76.9213 222.279C77.0028 222.319 77.0926 222.34 77.1836 222.34C77.2746 222.34 77.3643 222.319 77.4458 222.279L80.7292 220.387C80.8801 220.336 80.8801 220.2 80.7436 220.114L80.7364 220.085ZM87.9211 222.193L84.1204 220.007C84.0402 219.966 83.9516 219.945 83.8618 219.945C83.7719 219.945 83.6833 219.966 83.6031 220.007L78.5738 222.916C78.4373 222.995 78.4445 223.131 78.5738 223.217L82.3674 225.368C82.4488 225.408 82.5386 225.429 82.6296 225.429C82.7206 225.429 82.8103 225.408 82.8918 225.368L87.9211 222.458C88.0648 222.443 88.0648 222.307 87.9355 222.221L87.9211 222.193ZM74.9024 215.857L71.1017 213.671C71.0203 213.631 70.9305 213.61 70.8395 213.61C70.7485 213.61 70.6587 213.631 70.5773 213.671L66.5538 215.993C66.4101 216.072 66.4173 216.208 66.5538 216.294L70.3545 218.48C70.436 218.52 70.5258 218.541 70.6168 218.541C70.7078 218.541 70.7975 218.52 70.879 218.48L74.9168 216.151C75.0749 216.108 75.0677 215.993 74.9168 215.886L74.9024 215.857ZM77.9991 214.072C78.08 214.114 78.17 214.136 78.2613 214.136C78.3526 214.136 78.4426 214.114 78.5235 214.072L81.8069 212.18C81.9506 212.101 81.9363 211.965 81.8069 211.879L78.0062 209.729C77.9248 209.689 77.835 209.668 77.744 209.668C77.653 209.668 77.5632 209.689 77.4818 209.729L74.1983 211.621C74.0618 211.7 74.069 211.836 74.1983 211.922L77.9991 214.072ZM94.6244 224.594L90.8237 222.443C90.7428 222.401 90.6528 222.379 90.5615 222.379C90.4702 222.379 90.3802 222.401 90.2993 222.443L83.9839 226.027C83.8474 226.106 83.8546 226.242 83.9839 226.328L87.7846 228.514C87.8648 228.554 87.9534 228.575 88.0433 228.575C88.1331 228.575 88.2217 228.554 88.3019 228.514L94.6244 224.873C94.7825 224.837 94.7753 224.701 94.6244 224.594ZM97.7785 229.03L93.9778 226.844C93.8963 226.804 93.8066 226.783 93.7156 226.783C93.6246 226.783 93.5348 226.804 93.4533 226.844L89.4083 229.173C89.2718 229.252 89.279 229.388 89.4083 229.474L93.2091 231.66C93.2905 231.701 93.3803 231.722 93.4713 231.722C93.5623 231.722 93.6521 231.701 93.7335 231.66L97.7713 229.331C97.9366 229.274 97.9222 229.138 97.7785 229.052V229.03ZM113.7 193.524C113.781 193.565 113.871 193.586 113.962 193.586C114.053 193.586 114.143 193.565 114.224 193.524L117.508 191.632C117.651 191.546 117.644 191.417 117.508 191.331L113.707 189.138C113.626 189.098 113.536 189.077 113.445 189.077C113.354 189.077 113.264 189.098 113.183 189.138L109.899 191.03C109.763 191.109 109.77 191.245 109.899 191.331L113.7 193.524ZM104.101 199.05C104.182 199.092 104.272 199.114 104.363 199.114C104.455 199.114 104.545 199.092 104.626 199.05L107.909 197.158C108.053 197.079 108.045 196.943 107.909 196.857L104.108 194.671C104.027 194.631 103.937 194.61 103.846 194.61C103.755 194.61 103.665 194.631 103.584 194.671L100.279 196.585C100.142 196.663 100.149 196.8 100.279 196.886L104.101 199.05ZM82.8128 211.334C82.8943 211.375 82.984 211.396 83.075 211.396C83.166 211.396 83.2558 211.375 83.3373 211.334L86.6207 209.442C86.7644 209.364 86.7572 209.227 86.6207 209.141L82.82 206.948C82.7385 206.908 82.6487 206.887 82.5577 206.887C82.4668 206.887 82.377 206.908 82.2955 206.948L78.9977 208.826C78.8612 208.905 78.8684 209.041 78.9977 209.127L82.8128 211.334ZM108.9 196.284C108.982 196.324 109.072 196.345 109.163 196.345C109.254 196.345 109.343 196.324 109.425 196.284L112.708 194.391C112.852 194.313 112.845 194.176 112.708 194.09L108.9 191.94C108.819 191.898 108.73 191.876 108.638 191.876C108.547 191.876 108.457 191.898 108.376 191.94L105.093 193.825C104.956 193.911 104.963 194.047 105.093 194.133L108.9 196.284ZM99.3017 201.809C99.3832 201.85 99.4729 201.871 99.5639 201.871C99.6549 201.871 99.7447 201.85 99.8262 201.809L103.11 199.917C103.253 199.838 103.239 199.702 103.11 199.616L99.3089 197.423C99.2274 197.383 99.1376 197.362 99.0466 197.362C98.9556 197.362 98.8659 197.383 98.7844 197.423L95.501 199.315C95.3645 199.394 95.3717 199.53 95.501 199.616L99.3017 201.809ZM100.415 229.374C100.334 229.334 100.244 229.313 100.153 229.313C100.062 229.313 99.9723 229.334 99.8908 229.374L94.8615 232.284C94.7179 232.363 94.725 232.499 94.8615 232.585L98.6622 234.771C98.7437 234.811 98.8335 234.832 98.9245 234.832C99.0155 234.832 99.1052 234.811 99.1867 234.771L104.216 231.861C104.353 231.782 104.345 231.646 104.216 231.56L100.415 229.374ZM92.4116 205.78C92.493 205.82 92.5828 205.841 92.6738 205.841C92.7648 205.841 92.8546 205.82 92.936 205.78L96.2195 203.888C96.3631 203.809 96.356 203.673 96.2195 203.587L92.3756 201.437C92.2947 201.395 92.2047 201.373 92.1134 201.373C92.0221 201.373 91.9321 201.395 91.8512 201.437L88.5677 203.322C88.4312 203.408 88.4384 203.537 88.5677 203.63L92.4116 205.78ZM87.6122 208.539C87.6937 208.58 87.7834 208.601 87.8744 208.601C87.9654 208.601 88.0552 208.58 88.1367 208.539L91.4201 206.647C91.5638 206.568 91.5566 206.432 91.4201 206.346L87.6194 204.16C87.5379 204.12 87.4481 204.099 87.3571 204.099C87.2661 204.099 87.1764 204.12 87.0949 204.16L83.8115 206.052C83.675 206.131 83.6821 206.267 83.8115 206.353L87.6122 208.539ZM189.369 178.187C189.288 178.146 189.198 178.125 189.107 178.125C189.016 178.125 188.926 178.146 188.845 178.187L180.747 182.838C180.604 182.917 180.618 183.053 180.747 183.139L184.548 185.289C184.629 185.331 184.719 185.353 184.81 185.353C184.902 185.353 184.992 185.331 185.073 185.289L193.155 180.638C193.299 180.559 193.285 180.423 193.155 180.337L189.369 178.187ZM178.757 184.3C178.676 184.258 178.586 184.236 178.495 184.236C178.404 184.236 178.314 184.258 178.233 184.3L174.949 186.192C174.813 186.271 174.82 186.407 174.949 186.493L178.743 188.679C178.824 188.721 178.914 188.743 179.005 188.743C179.096 188.743 179.186 188.721 179.267 188.679L182.551 186.787C182.694 186.708 182.687 186.572 182.551 186.486L178.757 184.3ZM113.736 220.186L117.026 218.294C117.163 218.215 117.156 218.079 117.026 217.993L113.211 215.807C113.13 215.766 113.04 215.745 112.949 215.745C112.858 215.745 112.768 215.766 112.687 215.807L109.403 217.699C109.267 217.778 109.274 217.914 109.403 218L113.197 220.193C113.277 220.23 113.364 220.249 113.453 220.247C113.541 220.246 113.628 220.225 113.707 220.186H113.736ZM169.159 189.833C169.077 189.793 168.987 189.772 168.896 189.772C168.805 189.772 168.716 189.793 168.634 189.833L165.351 191.725C165.207 191.804 165.221 191.94 165.351 192.026L169.144 194.176C169.226 194.217 169.315 194.238 169.406 194.238C169.497 194.238 169.587 194.217 169.669 194.176L172.952 192.284C173.096 192.206 173.081 192.069 172.952 191.983L169.159 189.833ZM194.168 175.427C194.087 175.387 193.997 175.366 193.906 175.366C193.815 175.366 193.725 175.387 193.644 175.427L190.332 177.291C190.195 177.37 190.202 177.506 190.332 177.592L194.125 179.778C194.207 179.818 194.297 179.839 194.388 179.839C194.479 179.839 194.568 179.818 194.65 179.778L197.933 177.886C198.077 177.807 198.063 177.671 197.933 177.585L194.168 175.427ZM202.79 174.847L193.565 169.536C193.484 169.494 193.394 169.472 193.303 169.472C193.211 169.472 193.121 169.494 193.04 169.536L189.757 171.421C189.621 171.507 189.628 171.643 189.757 171.729L198.975 177.04C199.056 177.08 199.146 177.101 199.237 177.101C199.328 177.101 199.418 177.08 199.499 177.04L202.783 175.148C202.898 175.069 202.891 174.933 202.74 174.847H202.79ZM151.24 200.161C151.16 200.121 151.071 200.1 150.981 200.1C150.891 200.1 150.803 200.121 150.723 200.161L146.678 202.49C146.534 202.569 146.548 202.705 146.678 202.791L150.478 204.977C150.559 205.019 150.649 205.041 150.741 205.041C150.832 205.041 150.922 205.019 151.003 204.977L155.048 202.648C155.184 202.569 155.177 202.433 155.048 202.347L151.24 200.161ZM163.368 193.173C163.286 193.133 163.196 193.112 163.105 193.112C163.014 193.112 162.925 193.133 162.843 193.173L157.814 196.083C157.677 196.162 157.685 196.298 157.814 196.384L161.607 198.57C161.689 198.61 161.779 198.631 161.87 198.631C161.961 198.631 162.05 198.61 162.132 198.57L167.161 195.66C167.305 195.581 167.298 195.445 167.161 195.359L163.368 193.173ZM140.125 206.561C140.044 206.519 139.954 206.497 139.863 206.497C139.772 206.497 139.682 206.519 139.601 206.561L112.493 222.121C112.356 222.2 112.363 222.336 112.493 222.422L116.286 224.572C116.368 224.612 116.458 224.634 116.549 224.634C116.64 224.634 116.729 224.612 116.811 224.572L143.84 208.998C143.983 208.919 143.976 208.783 143.84 208.697L140.125 206.561ZM111.58 223.002C111.499 222.96 111.409 222.938 111.318 222.938C111.227 222.938 111.137 222.96 111.056 223.002L106.961 225.31C106.824 225.389 106.831 225.525 106.961 225.611L110.761 227.797C110.841 227.838 110.93 227.859 111.02 227.859C111.11 227.859 111.199 227.838 111.279 227.797L115.324 225.468C115.46 225.389 115.453 225.253 115.324 225.167L111.58 223.002ZM145.686 203.365C145.605 203.323 145.515 203.301 145.424 203.301C145.333 203.301 145.243 203.323 145.162 203.365L141.117 205.694C140.98 205.773 140.987 205.909 141.117 205.995L144.91 208.181C144.992 208.221 145.081 208.242 145.172 208.242C145.263 208.242 145.353 208.221 145.435 208.181L149.48 205.852C149.616 205.773 149.609 205.637 149.48 205.551L145.686 203.365ZM106.019 226.206C105.938 226.166 105.848 226.145 105.757 226.145C105.666 226.145 105.576 226.166 105.495 226.206L101.457 228.535C101.313 228.614 101.328 228.751 101.457 228.837L105.258 231.022C105.339 231.063 105.429 231.084 105.52 231.084C105.611 231.084 105.701 231.063 105.782 231.022L109.82 228.693C109.964 228.614 109.957 228.478 109.82 228.392L106.019 226.206ZM156.801 196.957C156.719 196.917 156.63 196.896 156.539 196.896C156.448 196.896 156.358 196.917 156.276 196.957L152.231 199.287C152.095 199.365 152.102 199.502 152.231 199.588L156.032 201.738C156.113 201.78 156.203 201.802 156.294 201.802C156.386 201.802 156.476 201.78 156.557 201.738L160.594 199.416C160.738 199.33 160.724 199.193 160.594 199.107L156.801 196.957ZM173.979 187.067C173.898 187.026 173.808 187.005 173.717 187.005C173.626 187.005 173.536 187.026 173.455 187.067L170.172 188.959C170.035 189.038 170.042 189.174 170.172 189.26L173.965 191.453C174.047 191.493 174.136 191.514 174.227 191.514C174.318 191.514 174.408 191.493 174.49 191.453L177.773 189.561C177.917 189.482 177.902 189.346 177.773 189.26L173.979 187.067ZM184.448 179.441L187.731 177.549C187.867 177.47 187.86 177.334 187.731 177.248L183.937 175.062C183.856 175.02 183.767 174.998 183.675 174.998C183.584 174.998 183.494 175.02 183.413 175.062L180.13 176.954C179.986 177.033 180 177.169 180.13 177.255L183.93 179.441C184.011 179.48 184.099 179.501 184.189 179.501C184.279 179.501 184.367 179.48 184.448 179.441ZM162.987 179.298L166.27 177.413C166.407 177.327 166.4 177.19 166.27 177.104L162.477 174.918C162.396 174.876 162.306 174.854 162.215 174.854C162.123 174.854 162.033 174.876 161.952 174.918L158.669 176.811C158.525 176.889 158.54 177.026 158.669 177.112L162.47 179.298C162.549 179.34 162.637 179.362 162.727 179.363C162.817 179.365 162.906 179.345 162.987 179.305V179.298ZM152.109 198.075L161.708 192.55C161.852 192.471 161.844 192.335 161.708 192.249L157.907 190.063C157.826 190.022 157.736 190.001 157.645 190.001C157.554 190.001 157.464 190.022 157.383 190.063L147.77 195.567C147.633 195.653 147.64 195.789 147.77 195.875L151.563 198.061C151.646 198.107 151.739 198.133 151.834 198.135C151.93 198.138 152.024 198.117 152.109 198.075ZM179.124 182.207C179.205 182.249 179.295 182.271 179.386 182.271C179.477 182.271 179.567 182.249 179.648 182.207L182.932 180.322C183.068 180.236 183.061 180.1 182.932 180.014L179.138 177.828C179.057 177.788 178.967 177.767 178.876 177.767C178.785 177.767 178.695 177.788 178.614 177.828L175.33 179.72C175.186 179.799 175.194 179.935 175.33 180.021L179.124 182.207ZM174.224 179.09L177.507 177.205C177.644 177.119 177.636 176.983 177.507 176.897L173.714 174.711C173.632 174.67 173.542 174.649 173.451 174.649C173.36 174.649 173.271 174.67 173.189 174.711L169.884 176.574C169.74 176.653 169.748 176.789 169.884 176.875L173.685 179.061C173.766 179.109 173.858 179.136 173.952 179.14C174.046 179.143 174.139 179.124 174.224 179.083V179.09ZM147.31 200.842L150.593 198.95C150.737 198.871 150.723 198.735 150.593 198.649L146.793 196.463C146.711 196.422 146.621 196.401 146.53 196.401C146.439 196.401 146.35 196.422 146.268 196.463L142.985 198.355C142.841 198.434 142.855 198.57 142.985 198.656L146.778 200.842C146.861 200.882 146.953 200.903 147.045 200.902C147.137 200.9 147.228 200.877 147.31 200.835V200.842ZM168.533 188.314C168.615 188.354 168.705 188.375 168.796 188.375C168.887 188.375 168.976 188.354 169.058 188.314L172.341 186.422C172.485 186.343 172.471 186.207 172.341 186.121L168.533 183.942C168.452 183.901 168.362 183.88 168.271 183.88C168.18 183.88 168.09 183.901 168.009 183.942L164.726 185.834C164.582 185.92 164.596 186.049 164.726 186.135L168.533 188.314ZM123.334 214.66L126.618 212.768C126.754 212.682 126.747 212.553 126.618 212.467L122.781 210.259C122.7 210.219 122.61 210.198 122.519 210.198C122.428 210.198 122.338 210.219 122.257 210.259L118.959 212.159C118.815 212.238 118.823 212.374 118.959 212.46L122.76 214.646C122.844 214.693 122.938 214.719 123.035 214.722C123.131 214.724 123.227 214.703 123.313 214.66H123.334ZM128.134 211.894L131.417 210.001C131.554 209.923 131.547 209.786 131.417 209.7L127.581 207.514C127.499 207.474 127.409 207.453 127.318 207.453C127.227 207.453 127.138 207.474 127.056 207.514L123.773 209.407C123.629 209.485 123.636 209.622 123.773 209.708L127.573 211.894C127.657 211.936 127.749 211.959 127.843 211.959C127.937 211.959 128.029 211.936 128.112 211.894H128.134ZM118.506 217.426L121.797 215.534C121.933 215.456 121.926 215.319 121.797 215.233L117.996 213.047C117.915 213.005 117.825 212.983 117.734 212.983C117.643 212.983 117.553 213.005 117.472 213.047L114.188 214.94C114.052 215.018 114.059 215.155 114.188 215.241L117.989 217.426C118.069 217.467 118.158 217.489 118.248 217.489C118.338 217.489 118.426 217.467 118.506 217.426ZM137.711 206.368L140.994 204.483C141.131 204.397 141.124 204.261 140.994 204.175L137.201 201.989C137.119 201.948 137.03 201.927 136.939 201.927C136.848 201.927 136.758 201.948 136.676 201.989L133.393 203.881C133.249 203.96 133.257 204.096 133.393 204.182L137.194 206.368C137.274 206.407 137.363 206.428 137.453 206.426C137.543 206.425 137.632 206.403 137.711 206.361V206.368ZM132.912 209.134L136.195 207.242C136.332 207.163 136.324 207.027 136.195 206.941L132.402 204.755C132.32 204.715 132.23 204.694 132.139 204.694C132.048 204.694 131.959 204.715 131.877 204.755L128.594 206.647C128.45 206.733 128.457 206.862 128.594 206.948L132.394 209.141C132.476 209.178 132.565 209.196 132.655 209.194C132.744 209.191 132.832 209.169 132.912 209.127V209.134ZM142.51 203.608L145.794 201.716C145.93 201.637 145.923 201.501 145.794 201.415L142 199.265C141.919 199.223 141.829 199.201 141.738 199.201C141.647 199.201 141.557 199.223 141.476 199.265L138.192 201.157C138.049 201.236 138.063 201.372 138.192 201.458L141.993 203.644C142.077 203.677 142.167 203.69 142.257 203.683C142.346 203.675 142.433 203.647 142.51 203.601V203.608ZM164.467 162.713C164.548 162.753 164.638 162.774 164.729 162.774C164.82 162.774 164.91 162.753 164.991 162.713L168.275 160.821C168.418 160.742 168.411 160.606 168.275 160.52L167.262 159.939C167.18 159.899 167.091 159.878 167 159.878C166.909 159.878 166.819 159.899 166.737 159.939L163.454 161.831C163.317 161.91 163.325 162.046 163.454 162.132L164.467 162.713ZM140.851 177.914C140.932 177.955 141.022 177.976 141.113 177.976C141.204 177.976 141.294 177.955 141.375 177.914L144.659 176.022C144.802 175.943 144.795 175.807 144.659 175.721L140.858 173.535C140.776 173.495 140.687 173.474 140.596 173.474C140.505 173.474 140.415 173.495 140.333 173.535L137.05 175.427C136.914 175.506 136.921 175.642 137.05 175.728L140.851 177.914ZM150.45 172.389C150.531 172.431 150.62 172.453 150.712 172.453C150.803 172.453 150.893 172.431 150.974 172.389L154.257 170.496C154.401 170.418 154.394 170.281 154.257 170.195L150.457 168.009C150.376 167.967 150.286 167.945 150.195 167.945C150.103 167.945 150.013 167.967 149.932 168.009L146.649 169.902C146.512 169.98 146.52 170.117 146.649 170.203L150.45 172.389ZM134.988 181.29C135.07 181.33 135.159 181.351 135.25 181.351C135.341 181.351 135.431 181.33 135.513 181.29L138.803 179.398C138.94 179.319 138.932 179.183 138.803 179.097L135.002 176.947C134.921 176.906 134.831 176.885 134.74 176.885C134.649 176.885 134.559 176.906 134.478 176.947L131.173 178.796C131.036 178.875 131.044 179.011 131.173 179.097L134.988 181.29ZM145.65 175.141C145.732 175.181 145.821 175.202 145.912 175.202C146.003 175.202 146.093 175.181 146.175 175.141L149.458 173.249C149.602 173.17 149.595 173.034 149.458 172.948L145.657 170.797C145.576 170.757 145.486 170.736 145.395 170.736C145.304 170.736 145.214 170.757 145.133 170.797L141.849 172.69C141.713 172.776 141.72 172.905 141.849 172.991L145.65 175.141ZM125.425 186.816C125.507 186.856 125.596 186.877 125.687 186.877C125.778 186.877 125.868 186.856 125.95 186.816L129.233 184.924C129.377 184.845 129.37 184.709 129.233 184.623L125.432 182.437C125.351 182.395 125.262 182.373 125.17 182.373C125.079 182.373 124.989 182.395 124.908 182.437L121.625 184.322C121.488 184.408 121.495 184.544 121.625 184.63L125.425 186.816ZM130.225 184.049C130.306 184.09 130.396 184.111 130.487 184.111C130.578 184.111 130.668 184.09 130.749 184.049L134.033 182.157C134.176 182.071 134.169 181.942 134.033 181.856L130.232 179.663C130.15 179.623 130.061 179.602 129.97 179.602C129.879 179.602 129.789 179.623 129.707 179.663L126.374 181.591C126.237 181.67 126.244 181.806 126.374 181.892L130.225 184.049ZM154.883 168.232C154.963 168.274 155.053 168.296 155.145 168.296C155.236 168.296 155.326 168.274 155.407 168.232L158.69 166.347C158.834 166.261 158.827 166.132 158.69 166.038L157.677 165.458C157.596 165.418 157.506 165.397 157.415 165.397C157.324 165.397 157.234 165.418 157.153 165.458L153.869 167.35C153.733 167.429 153.74 167.565 153.869 167.651L154.883 168.232ZM169.252 159.939C169.333 159.981 169.423 160.003 169.514 160.003C169.605 160.003 169.695 159.981 169.776 159.939L173.067 158.047C173.203 157.968 173.196 157.832 173.067 157.746L172.054 157.166C171.973 157.124 171.883 157.102 171.792 157.102C171.7 157.102 171.61 157.124 171.529 157.166L168.246 159.051C168.11 159.137 168.117 159.273 168.246 159.359L169.252 159.939ZM177.234 164.533C177.315 164.575 177.405 164.597 177.496 164.597C177.588 164.597 177.678 164.575 177.759 164.533L181.042 162.641C181.179 162.562 181.171 162.426 181.042 162.34L177.248 160.19C177.168 160.148 177.078 160.126 176.986 160.126C176.895 160.126 176.805 160.148 176.724 160.19L173.441 162.082C173.297 162.161 173.304 162.297 173.441 162.383L177.234 164.533ZM189.233 176.682L192.516 174.789C192.66 174.711 192.645 174.574 192.516 174.488L188.715 172.338C188.634 172.298 188.544 172.277 188.453 172.277C188.362 172.277 188.272 172.298 188.191 172.338L184.907 174.23C184.764 174.309 184.778 174.445 184.907 174.531L188.701 176.717C188.788 176.758 188.883 176.776 188.979 176.769C189.074 176.763 189.166 176.733 189.247 176.682H189.233ZM159.668 165.465C159.749 165.506 159.839 165.527 159.93 165.527C160.021 165.527 160.111 165.506 160.192 165.465L163.475 163.573C163.619 163.494 163.612 163.358 163.475 163.272L162.462 162.691C162.381 162.649 162.291 162.627 162.2 162.627C162.109 162.627 162.019 162.649 161.938 162.691L158.654 164.584C158.518 164.662 158.525 164.799 158.654 164.885L159.668 165.465ZM120.59 189.575C120.671 189.616 120.761 189.637 120.852 189.637C120.943 189.637 121.033 189.616 121.114 189.575L124.398 187.683C124.542 187.604 124.534 187.468 124.398 187.382L120.597 185.196C120.516 185.156 120.426 185.135 120.335 185.135C120.244 185.135 120.154 185.156 120.073 185.196L116.804 187.088C116.667 187.167 116.674 187.303 116.804 187.389L120.59 189.575Z" fill="#263238"/>
<path opacity="0.3" d="M141.887 218.324L174.29 199.654C174.838 199.378 175.444 199.234 176.058 199.234C176.672 199.234 177.277 199.378 177.825 199.654L196.412 210.362C197.389 210.921 197.389 211.831 196.412 212.397L164.002 231.032C163.455 231.311 162.849 231.457 162.234 231.457C161.62 231.457 161.014 231.311 160.467 231.032L141.887 220.36C140.91 219.794 140.91 218.862 141.887 218.324Z" fill="black"/>
<path d="M35.0356 206.59C35.3215 206.753 35.6253 206.883 35.9408 206.977C35.6244 206.889 35.3203 206.761 35.0356 206.597C34.937 206.546 34.8432 206.486 34.7554 206.418C34.8451 206.481 34.9387 206.538 35.0356 206.59Z" fill="#BA68C8"/>
<path opacity="0.3" d="M156.676 37.5339C156.467 36.0145 155.239 35.4554 153.751 36.3155L40.7505 101.385C39.8834 101.913 39.1661 102.653 38.667 103.536L33.1348 100.361C33.6308 99.4646 34.348 98.7097 35.2183 98.1675L148.226 33.1118C149.044 32.599 149.983 32.3093 150.948 32.2718C151.913 32.2342 152.871 32.45 153.727 32.8977C154.582 33.3454 155.304 34.0092 155.822 34.8228C156.34 35.6364 156.634 36.5712 156.676 37.5339Z" fill="black"/>
<path d="M40.1963 206.869C40.2096 206.866 40.2235 206.866 40.2369 206.869H40.1963Z" fill="#BA68C8"/>
<path opacity="0.5" d="M245.194 193.86C245.12 194.847 244.815 195.802 244.303 196.65C243.792 197.498 243.088 198.214 242.248 198.741L129.24 263.825C128.333 264.31 127.316 264.557 126.287 264.542V258.184C127.316 258.199 128.333 257.953 129.24 257.468L242.248 192.34C243.764 191.459 243.865 190.083 242.543 189.137C243.307 189.68 243.941 190.385 244.399 191.202C244.858 192.018 245.129 192.926 245.194 193.86Z" fill="black"/>
<path d="M317.527 138.13L304.328 130.533C304.034 130.376 303.61 130.483 303.093 130.877C302.82 131.078 302.547 131.279 302.274 131.465L301.965 131.659C301.785 131.773 301.605 131.895 301.419 132.003C301.232 132.11 301.16 132.146 301.031 132.225L300.549 132.49L300.104 132.712L299.658 132.927L299.163 133.135C299.026 133.192 298.89 133.257 298.746 133.307L298.207 133.508L297.826 133.644L297.244 133.823L296.899 133.923L296.274 134.081L295.958 134.153C295.743 134.203 295.52 134.246 295.297 134.282L295.024 134.332L294.306 134.432H294.069C293.824 134.432 293.573 134.482 293.35 134.497H293.156H292.38H292.222C291.956 134.497 291.691 134.497 291.425 134.497H291.303C291.03 134.497 290.749 134.497 290.476 134.439H290.397L289.542 134.325H289.499L289.104 134.246L280.913 129.53C280.31 129.193 279.757 129.437 279.397 130.318C274.641 142.101 264.511 154.049 257.757 157.037C257.623 157.094 257.493 157.161 257.369 157.238C257.287 157.285 257.208 157.338 257.132 157.396L257.024 157.467L256.73 157.718C256.629 157.811 256.536 157.912 256.442 158.012C255.961 158.537 255.692 159.221 255.688 159.933L256.665 171.902C256.665 179.621 259.956 187.763 266.673 191.654L279.879 199.244L279.972 199.294C283.384 201.177 287.302 201.942 291.173 201.48C292.619 201.242 293.959 200.572 295.017 199.56C309.789 184.344 316.966 163.724 316.966 152.357L317.943 139.17C317.936 138.647 317.785 138.281 317.527 138.13Z" fill="#BA68C8"/>
<path opacity="0.4" d="M294.012 137.107C293.88 137.041 293.734 137.01 293.586 137.017C293.439 137.025 293.296 137.07 293.172 137.15L293.028 137.258C292.945 137.341 292.87 137.432 292.805 137.53C292.733 137.654 292.671 137.783 292.618 137.917C291.38 140.944 289.893 143.864 288.171 146.646C286.681 149.093 285.042 151.445 283.264 153.692C282.402 154.767 281.54 155.792 280.67 156.752C280.673 156.764 280.673 156.776 280.67 156.788L279.952 157.583C279.7 157.834 279.463 158.092 279.233 158.336C279.111 158.472 278.989 158.601 278.86 158.723C276.086 161.504 273.371 163.582 271.05 164.607C270.654 164.783 270.292 165.025 269.979 165.324L269.714 165.589C269.699 165.612 269.682 165.633 269.663 165.654L269.714 165.589L256.522 158.006C256.533 157.986 256.547 157.969 256.566 157.956C256.59 157.917 256.619 157.881 256.652 157.849L256.731 157.777C256.753 157.751 256.777 157.727 256.803 157.705L256.882 157.634C256.95 157.567 257.022 157.505 257.097 157.447L257.205 157.376C257.284 157.325 257.363 157.261 257.442 157.218C257.564 157.138 257.694 157.071 257.83 157.017C264.584 154.028 274.721 142.081 279.47 130.298C279.729 129.668 280.081 129.359 280.483 129.359C280.662 129.366 280.836 129.421 280.986 129.517L289.098 134.29L294.012 137.107Z" fill="white"/>
<path opacity="0.1" d="M317.531 138.133L304.333 130.536C304.046 130.386 303.614 130.493 303.104 130.88C302.838 131.088 302.558 131.289 302.278 131.475L301.976 131.668C301.797 131.783 301.617 131.905 301.43 132.012C301.243 132.12 301.172 132.156 301.042 132.235L300.561 132.5C300.417 132.579 300.266 132.643 300.115 132.715L299.67 132.937L299.167 133.145C299.038 133.209 298.894 133.267 298.758 133.324L298.219 133.518L297.838 133.654L297.249 133.833L296.904 133.933L296.286 134.091L295.977 134.163L295.309 134.292L295.029 134.342C294.799 134.385 294.569 134.413 294.31 134.442H294.073L293.355 134.514H293.161C292.902 134.514 292.643 134.514 292.385 134.514H292.234C291.961 134.514 291.695 134.514 291.429 134.514H291.314C291.034 134.514 290.754 134.478 290.481 134.456H290.402C290.114 134.456 289.827 134.392 289.554 134.349H289.511C289.377 134.332 289.245 134.303 289.116 134.263L294.03 137.087L294.116 137.137C294.303 137.254 294.468 137.401 294.605 137.574C294.64 137.604 294.671 137.638 294.698 137.674C299.728 143.537 309.671 143.53 316.303 138.47C316.806 138.09 317.222 137.968 317.502 138.097H317.546C317.677 138.175 317.776 138.297 317.826 138.441C317.765 138.309 317.661 138.2 317.531 138.133Z" fill="black"/>
<path opacity="0.2" d="M279.67 199.209L266.645 191.727C259.934 187.828 256.636 179.686 256.636 171.967L255.659 159.998C255.667 159.538 255.78 159.086 255.989 158.676C256.198 158.266 256.498 157.91 256.866 157.633C256.703 157.768 256.552 157.917 256.414 158.077L269.612 165.66C269.137 166.189 268.88 166.878 268.893 167.588L269.863 179.557C269.842 187.204 273.075 195.274 279.67 199.209Z" fill="black"/>
<path d="M317.911 139.242L316.934 152.429C316.934 163.825 309.749 184.416 294.992 199.632C293.932 200.648 292.586 201.316 291.134 201.545C287.269 202.021 283.352 201.268 279.94 199.395L279.847 199.345L279.674 199.238C273.071 195.303 269.831 187.24 269.831 179.585L268.861 167.616C268.851 166.909 269.107 166.223 269.58 165.696C269.66 165.602 269.747 165.514 269.838 165.43C270.15 165.131 270.513 164.889 270.909 164.714C273.237 163.682 275.938 161.603 278.726 158.83L279.099 158.443L279.818 157.683L280.536 156.887C281.413 155.92 282.275 154.895 283.137 153.82C284.915 151.573 286.553 149.22 288.044 146.774C289.763 143.994 291.249 141.077 292.484 138.052C292.542 137.917 292.607 137.786 292.678 137.658C292.743 137.562 292.818 137.473 292.901 137.393C292.945 137.352 292.994 137.316 293.045 137.285C293.167 137.203 293.309 137.155 293.456 137.148C293.602 137.14 293.749 137.173 293.878 137.242L293.972 137.285C294.16 137.4 294.325 137.548 294.46 137.722L294.554 137.83C299.583 143.685 309.527 143.678 316.158 138.626C316.654 138.246 317.078 138.124 317.358 138.246H317.394C317.461 138.274 317.518 138.322 317.559 138.382C317.773 138.619 317.897 138.923 317.911 139.242Z" fill="#BA68C8"/>
<path d="M297.217 182.495L289.357 187.017L290.571 172.833C289.63 172.339 289.034 171.113 289.034 169.365C289.034 166.24 290.938 162.613 293.287 161.259C295.636 159.904 297.54 161.337 297.54 164.462C297.49 166.314 296.96 168.121 296.003 169.709L297.217 182.495Z" fill="#455A64"/>
<path d="M297.224 182.493L290.104 178.387L289.364 187.016L297.224 182.493Z" fill="#37474F"/>
<path d="M293.29 161.259C291.578 162.411 290.301 164.101 289.662 166.061L296.006 169.709C296.963 168.121 297.493 166.314 297.544 164.462C297.544 161.337 295.64 159.904 293.29 161.259Z" fill="#37474F"/>
<path d="M303.178 104.682C301.023 103.421 298.25 103.564 295.642 105.062L274.986 116.967C272.832 118.327 271.043 120.19 269.771 122.393C268.5 124.597 267.784 127.076 267.686 129.617V154.859C267.716 155.179 267.831 155.485 268.019 155.746C268.207 156.007 268.462 156.213 268.757 156.343C269.557 156.744 270.44 156.952 271.336 156.952C272.232 156.952 273.115 156.744 273.915 156.343C274.21 156.213 274.464 156.007 274.652 155.746C274.841 155.485 274.956 155.179 274.986 154.859V129.617C275.084 128.353 275.465 127.128 276.101 126.03C276.736 124.932 277.609 123.991 278.657 123.274L299.299 111.355V136.619C299.329 136.939 299.445 137.246 299.635 137.507C299.824 137.768 300.08 137.973 300.376 138.102C301.175 138.505 302.057 138.715 302.952 138.715C303.847 138.715 304.729 138.505 305.528 138.102C305.822 137.972 306.077 137.766 306.265 137.506C306.453 137.245 306.568 136.939 306.598 136.619V111.355C306.613 108.38 305.363 105.936 303.178 104.682Z" fill="#37474F"/>
<path d="M299.3 111.356V136.598C299.33 136.919 299.447 137.226 299.636 137.487C299.826 137.747 300.082 137.953 300.378 138.082C300.713 138.272 301.073 138.414 301.448 138.505V110.123L299.3 111.356Z" fill="#263238"/>
</g>
<defs>
<clipPath id="clip0_678_12581">
<rect width="346" height="298" fill="white"/>
</clipPath>
</defs>
</svg>
