<svg width="346" height="346" viewBox="0 0 346 346" fill="none" xmlns="http://www.w3.org/2000/svg">
<path opacity="0.5" d="M56.1583 172.419C-6.41929 208.549 -6.41929 267.126 56.1583 303.256C118.736 339.385 220.197 339.385 282.774 303.256C345.352 267.126 345.352 208.549 282.774 172.419C220.197 136.29 118.736 136.29 56.1583 172.419Z" fill="#455A64"/>
<path d="M154.683 229.695C154.856 227.439 153.071 224.851 149.099 221.82C141.77 216.187 115.121 197.655 104.769 190.797C104.768 190.774 104.759 190.752 104.744 190.735C104.729 190.717 104.709 190.705 104.686 190.7C96.7627 184.978 94.9981 145.783 90.6731 127.036C90.6316 126.863 90.334 125.424 89.732 123.576L89.642 123.327C89.559 123.071 89.469 122.815 89.3721 122.552C89.3306 122.428 89.2891 122.289 89.2407 122.172C88.499 120.011 87.3398 118.017 85.8291 116.303C85.3076 115.73 84.7091 115.232 84.0507 114.823C83.158 114.221 80.9713 113.127 80.5007 112.802C75.11 108.961 61.4361 118.705 51.7827 123.03C45.7761 125.728 40.5654 129.085 37.0223 135.832C35.0831 139.717 33.7772 143.887 33.1541 148.184C31.5694 157.761 31.8877 189.911 32.7319 204.028C33.7077 227.591 37.1815 227.909 41.9286 232.22C50.0873 239.632 74.0513 254.793 82.0646 258.703C96.5966 265.789 109.53 257.679 119.01 253.901C128.491 250.122 146.455 241.327 150.517 238.843C152.925 237.362 154.247 235.777 154.365 233.999C154.386 233.3 154.628 230.435 154.683 229.695Z" fill="#263238"/>
<path d="M119.329 249.55C128.809 245.779 146.774 236.97 150.836 234.486C156.323 231.136 156.157 227.24 149.106 221.822C139.307 214.293 99.088 187.035 99.088 187.035C99.088 187.035 52.3434 209.56 41.2645 219.4C39.5898 220.888 39.5206 224.036 40.1019 224.77C46.1777 232.382 73.2072 249.869 82.3831 254.353C96.8805 261.439 109.849 253.329 119.329 249.55Z" fill="#455A64"/>
<path d="M84.0412 114.818L83.8889 114.728C82.6837 113.972 81.3035 113.54 79.8823 113.475C74.9829 113.081 67.2463 116.506 55.6623 123.994C52.1085 126.196 48.7822 128.746 45.732 131.606L45.5521 131.779C44.6298 132.656 43.7804 133.607 43.0125 134.623C42.881 134.789 42.7564 134.955 42.6319 135.128C42.5073 135.301 42.4866 135.322 42.4243 135.419C42.2651 135.647 42.106 135.875 41.9537 136.111C41.6492 136.581 41.3517 137.072 41.061 137.578L40.9711 137.737L40.6389 138.36L37.0405 135.868C40.5836 129.121 46.0365 125.648 51.6348 122.208C61.3228 116.285 72.0557 108.59 78.9065 111.911C79.3979 112.105 83.1416 114.216 84.0412 114.818Z" fill="#455A64"/>
<path d="M90.6506 127.032C90.0209 124.562 87.8826 113.884 79.8623 113.476C74.963 113.081 67.2264 116.514 55.6423 123.994C50.2516 127.454 44.0375 131.938 40.9512 137.71C36.4116 144.879 35.6989 164.767 35.9688 183.901C36.2386 203.034 37.4773 221.4 40.0654 224.784C44.6118 212.023 98.3733 186.911 104.664 190.703C96.761 184.98 94.9825 145.785 90.6506 127.032Z" fill="#37474F"/>
<path d="M57.326 189.4C52.5997 200.209 51.6793 211.275 52.8626 217.468C54.046 223.661 55.167 232.214 70.5917 241.958C88.2031 253.078 101.033 259.5 101.033 259.5L159.528 222.021L119.62 197.753L57.326 189.4Z" fill="#BA68C8"/>
<path opacity="0.15" d="M57.326 189.4C52.5997 200.209 51.6793 211.275 52.8626 217.468C54.046 223.661 55.167 232.214 70.5917 241.958C88.2031 253.078 101.033 259.5 101.033 259.5L159.528 222.021L119.62 197.753L57.326 189.4Z" fill="black"/>
<path opacity="0.35" d="M72.1299 229.935C71.6455 229.409 71.1819 228.883 70.7459 228.357C75.2232 227.174 77.8597 221.61 77.3061 215.327C76.9808 211.729 76.6141 207.639 77.1054 203.778L76.3234 203.674C75.8252 207.625 76.192 211.756 76.5172 215.396C77.0777 221.735 74.4412 226.856 70.1646 227.686C61.5908 217.41 62.9125 207.431 67.0853 194.186L66.331 193.951C61.7568 208.483 61.0579 219.126 71.5486 230.468C78.4686 237.928 97.2565 248.107 108.259 254.889L109 254.418C98.0176 247.664 79.043 237.402 72.1299 229.935Z" fill="black"/>
<path opacity="0.35" d="M120.125 208.658C117.73 216.36 112.748 220.055 112.748 220.055C122.062 226.837 129.702 233.134 135.03 237.757L141.549 233.605L118.665 218.242C121.336 212.748 120.125 208.658 120.125 208.658Z" fill="black"/>
<path d="M146.392 323.457L43.6504 264.138L214.768 165.369L317.509 224.694L146.392 323.457Z" fill="#BA68C8"/>
<path opacity="0.8" d="M146.392 323.457L43.6504 264.138L214.768 165.369L317.509 224.694L146.392 323.457Z" fill="white"/>
<path d="M43.6504 264.139V271.55L146.392 330.868V323.457L43.6504 264.139Z" fill="#BA68C8"/>
<path opacity="0.5" d="M43.6504 264.139V271.55L146.392 330.868V323.457L43.6504 264.139Z" fill="white"/>
<path d="M146.392 330.867L317.51 232.105V224.693L146.392 323.456V330.867Z" fill="#BA68C8"/>
<path opacity="0.65" d="M146.392 323.456L317.51 224.693V232.105L146.392 330.867V323.456Z" fill="white"/>
<path opacity="0.2" d="M249.452 219.752L204.832 193.968C204.442 193.742 203.999 193.623 203.548 193.623C203.097 193.623 202.655 193.742 202.265 193.968L124.774 238.699C124.688 238.75 124.617 238.822 124.567 238.909C124.518 238.996 124.492 239.094 124.492 239.194C124.492 239.294 124.518 239.392 124.567 239.479C124.617 239.565 124.688 239.638 124.774 239.689L169.844 265.728L249.452 219.752Z" fill="#BA68C8"/>
<path d="M246.116 214.318V215.322C246.112 216.046 245.918 216.757 245.554 217.384C245.19 218.01 244.668 218.53 244.04 218.892L171.879 260.551C171.249 260.918 170.531 261.107 169.803 261.098C169.074 261.1 168.357 260.909 167.727 260.544L128.393 237.916C127.765 237.553 127.242 237.031 126.878 236.404C126.514 235.776 126.321 235.064 126.317 234.338V232.954C126.318 233.045 126.342 233.135 126.388 233.214C126.435 233.293 126.501 233.359 126.58 233.404L169.775 258.35L246.116 214.318Z" fill="#37474F"/>
<path d="M246.125 214.313L203.338 189.608C202.964 189.394 202.541 189.281 202.11 189.281C201.679 189.281 201.256 189.394 200.882 189.608L126.637 232.512C126.555 232.561 126.488 232.629 126.44 232.712C126.393 232.794 126.369 232.888 126.369 232.983C126.369 233.078 126.393 233.171 126.44 233.254C126.488 233.336 126.555 233.405 126.637 233.453L169.825 258.365L246.125 214.313Z" fill="#455A64"/>
<path d="M169.843 258.36V261.128C170.571 261.133 171.288 260.945 171.919 260.582L244.081 218.923C244.709 218.56 245.232 218.039 245.596 217.411C245.96 216.784 246.153 216.071 246.157 215.346V214.314L169.843 258.36Z" fill="#263238"/>
<path d="M169.447 254.726L146.369 241.419L213.846 202.459L237.042 215.697L169.447 254.726Z" fill="#37474F"/>
<path d="M237.047 215.697L236.168 216.209L213.851 203.476L147.26 241.924L146.381 241.419L213.851 202.459L237.047 215.697Z" fill="#263238"/>
<path d="M158.107 217.704L158.53 217.946L169.844 224.478L189.96 212.866L190.375 212.624L178.639 205.85L158.107 217.704Z" fill="#263238"/>
<path d="M158.528 217.946L169.842 224.478L189.958 212.866L178.637 206.334L158.528 217.946Z" fill="#37474F"/>
<path d="M184.456 194.929C182.339 191.813 179.829 188.983 176.989 186.508C173.619 183.74 172.235 182.902 166.152 179.996L157.156 192.148L159.869 192.964C161.004 193.366 161.62 193.476 162.063 194.535C162.307 195.73 162.476 196.938 162.568 198.154C162.791 200.179 163.232 202.175 163.882 204.105C164.837 206.97 165.453 206.77 167.176 209.053C168.768 211.129 169.412 212.562 170.297 212.451C171.183 212.34 172.283 210.603 171.834 208.659C171.384 206.714 169.758 203.919 169.522 203.123C169.329 202.431 168.983 201.123 171.079 201.78C173.28 202.472 177.072 207.247 178.975 209.212C180.878 211.178 182.054 214.181 183.819 215.503C185.584 216.824 188.269 216.755 187.521 213.883C187.805 212.223 188.829 209.351 189.078 206.687C189.327 204.022 186.421 197.781 184.456 194.929Z" fill="#FFA8A7"/>
<path d="M171.01 258.966C171.691 259.229 172.423 259.336 173.151 259.28C173.879 259.224 174.585 259.005 175.218 258.641L247.047 217.162C247.67 216.802 248.205 216.309 248.616 215.718C249.026 215.127 249.301 214.453 249.421 213.744L257.289 166.847C257.33 166.581 257.351 166.313 257.351 166.044C257.352 165.4 257.225 164.762 256.976 164.168C256.728 163.574 256.364 163.036 255.905 162.584L181.266 205.675C180.805 205.942 180.409 206.308 180.105 206.745C179.801 207.183 179.597 207.682 179.508 208.208L171.01 258.966Z" fill="#37474F"/>
<path d="M169.846 258.356L170.337 258.64C170.552 258.758 170.78 258.869 171.029 258.965L179.527 208.207C179.616 207.682 179.82 207.183 180.124 206.745C180.427 206.307 180.824 205.942 181.284 205.674L255.937 162.57C255.642 162.272 255.306 162.015 254.941 161.809L180.136 204.996C179.675 205.264 179.279 205.629 178.975 206.067C178.671 206.505 178.467 207.004 178.378 207.529L169.846 258.356Z" fill="#455A64"/>
<path d="M180.204 206.633L179.041 205.941C178.692 206.402 178.455 206.937 178.349 207.505L169.837 258.333L170.329 258.616C170.543 258.734 170.772 258.845 171.021 258.942L179.518 208.184C179.62 207.62 179.855 207.088 180.204 206.633Z" fill="#263238"/>
<path d="M212.947 214.808C213.348 212.414 215.826 209.224 218.483 207.695C221.14 206.165 222.96 206.864 222.559 209.265C222.158 211.667 219.68 214.85 217.023 216.379C214.366 217.909 212.546 217.21 212.947 214.808Z" fill="#BA68C8"/>
<path d="M117.638 117.787C122.392 118.908 129.402 121.116 132.467 130.707C136.121 142.173 139.941 168.123 139.941 168.123L166.133 179.998L157.137 192.149C157.137 192.149 137.844 187.361 128.537 184.648C118.496 181.721 118.849 178.704 115.617 162.137C113.541 151.404 111.32 138.222 111.32 138.222C112.351 129.205 117.638 117.787 117.638 117.787Z" fill="#FFA8A7"/>
<path d="M118.331 117.598C125.943 119.362 128.711 122.31 131.209 125.978C133.707 129.645 136.219 142.205 138.129 151.942C140.039 161.678 140.939 167.671 140.939 167.671L155.007 174.937C155.007 174.937 151.547 174.293 148.322 180.653C146.246 184.687 147.305 189.649 147.305 189.649C147.305 189.649 128.939 185.884 125.431 184.659C121.922 183.435 119.507 182.23 117.674 176.355C115.84 170.48 110.062 136.842 110.062 136.842L118.331 117.598Z" fill="#EBEBEB"/>
<path d="M125.068 127.172C121.608 121.235 118.792 118.508 117.657 117.789C114.197 116.751 102.606 115.851 96.7725 117.18C86.4755 118.626 79.0227 120.308 71.5837 123.034C69.0925 123.948 67.6808 126.632 67.0303 128.231C65.6878 131.636 65.411 140.057 65.3349 144.604C65.1688 155.544 65.5702 163.827 63.9509 171.398C62.9683 176.021 55.6469 186.677 52.8789 204.386C78.1784 227.748 117.83 206.918 119.629 197.784C119.629 197.784 118.529 191.501 117.097 184.089C117.097 181.653 120.612 172.457 120.508 172.602C137.912 163.495 134.943 143.151 125.068 127.172Z" fill="#263238"/>
<path d="M112.749 170.775C108.853 175.01 93.6501 177.446 85.0693 167.26C86.4118 175.854 104.369 182.359 112.749 170.775Z" fill="black"/>
<path d="M132.923 83.4312C130.917 86.7735 132.031 89.4931 130.197 92.9254C129.505 94.1779 95.7492 102.454 89.9364 104.835C88.746 100.973 87.2583 97.2084 85.4868 93.5759C82.3244 87.2233 80.9127 80.8085 81.8123 76.0129C82.8434 70.4769 86.4141 68.6016 88.1787 68.6016C88.1787 64.0829 93.1473 57.8756 103.403 55.6266C123.824 51.1355 142.549 67.4114 132.923 83.4312Z" fill="#263238"/>
<path d="M128.456 71.0355C129.119 71.2765 129.722 71.6569 130.224 72.1512C130.727 72.6455 131.118 73.242 131.37 73.9004C132.532 76.7237 134.138 83.4015 131.591 96.0928C129.377 107.109 125.564 112.092 121.606 113.677C119.225 114.632 113.703 114.23 110.347 113.337C110.164 113.802 110.011 114.278 109.89 114.763C109.399 116.507 110.713 116.742 110.713 116.742C110.713 116.742 119.793 129.129 107.482 130.997C102.128 131.741 96.691 130.436 92.2578 127.344C88.7816 125.068 85.4702 122.55 82.3484 119.808C86.4243 118.742 86.8464 117.732 87.8844 114.147C89.6905 107.76 91.3098 97.5391 91.3098 97.5391C91.3098 97.5391 88.1058 100.383 84.9988 96.5219C81.3865 92.0239 81.0198 85.4499 84.9988 83.1317C89.8428 80.3152 92.9844 83.6922 94.0847 87.1107C95.095 90.2316 98.5066 90.7367 99.766 87.1729C101.558 82.0798 101.254 75.4089 106.977 71.7552C110.582 69.437 116.097 69.4577 121.26 75.3674C123.868 71.1947 126.311 70.3158 128.456 71.0355Z" fill="#FFA8A7"/>
<path d="M111.097 99.582L117.546 102.073C117.398 102.504 117.166 102.9 116.862 103.239C116.558 103.578 116.19 103.852 115.778 104.046C115.366 104.239 114.92 104.348 114.465 104.366C114.01 104.384 113.557 104.31 113.131 104.149C112.27 103.796 111.577 103.124 111.198 102.273C110.82 101.423 110.783 100.459 111.097 99.582Z" fill="#B16668"/>
<path d="M110.962 101.492C111.232 101.501 111.5 101.533 111.765 101.589C112.497 101.75 113.182 102.079 113.765 102.55C114.349 103.02 114.815 103.62 115.128 104.302C114.467 104.467 113.77 104.424 113.135 104.177C112.573 103.953 112.078 103.589 111.697 103.119C111.317 102.648 111.064 102.088 110.962 101.492Z" fill="#F28F8F"/>
<path d="M112.914 79.648L107.952 81.2742C107.829 80.9551 107.773 80.6143 107.787 80.2726C107.8 79.9309 107.883 79.5956 108.031 79.2873C108.179 78.9789 108.388 78.7039 108.646 78.4792C108.903 78.2544 109.204 78.0847 109.53 77.9803C110.2 77.7789 110.922 77.839 111.55 78.1484C112.178 78.4579 112.665 78.9937 112.914 79.648Z" fill="#263238"/>
<path d="M125.5 82.5076L130.129 84.9572C130.304 84.6635 130.418 84.337 130.463 83.9978C130.507 83.6586 130.482 83.3138 130.389 82.9847C130.296 82.6555 130.136 82.3489 129.92 82.0836C129.704 81.8183 129.436 81.5999 129.133 81.4419C128.505 81.1248 127.78 81.0585 127.105 81.2564C126.431 81.4544 125.856 81.9017 125.5 82.5076Z" fill="#263238"/>
<path d="M124.378 88.1267C124.377 88.653 124.575 89.1601 124.934 89.5455C125.292 89.931 125.784 90.1658 126.309 90.2027C126.567 90.2224 126.827 90.1898 127.073 90.1069C127.319 90.0239 127.545 89.8923 127.739 89.7198C127.933 89.5474 128.09 89.3376 128.201 89.1031C128.312 88.8686 128.374 88.6142 128.385 88.355C128.386 87.8298 128.188 87.3236 127.831 86.9384C127.474 86.5532 126.985 86.3175 126.461 86.279C126.202 86.2593 125.942 86.2919 125.695 86.3747C125.449 86.4576 125.222 86.5892 125.028 86.7615C124.834 86.9339 124.676 87.1436 124.564 87.3781C124.453 87.6126 124.389 87.8672 124.378 88.1267Z" fill="#263238"/>
<path d="M109.33 87.2704C109.241 87.7936 109.355 88.3312 109.65 88.7727C109.945 89.2141 110.398 89.5259 110.915 89.644C111.168 89.7016 111.43 89.7079 111.685 89.6625C111.941 89.6171 112.184 89.5209 112.402 89.3795C112.619 89.2382 112.806 89.0547 112.951 88.8398C113.097 88.6249 113.197 88.383 113.247 88.1285C113.336 87.6043 113.221 87.0659 112.925 86.6242C112.629 86.1826 112.174 85.8715 111.656 85.7549C111.403 85.6963 111.141 85.6893 110.886 85.7344C110.631 85.7794 110.387 85.8756 110.17 86.0172C109.953 86.1587 109.767 86.3427 109.622 86.5581C109.478 86.7734 109.379 87.0157 109.33 87.2704Z" fill="#263238"/>
<path d="M118.495 85.6875L117.671 97.5069L124.716 96.1921L118.495 85.6875Z" fill="#F28F8F"/>
<path d="M93.9473 99.582C93.9473 99.582 92.7986 105.775 96.2862 109.45C100.438 113.803 107.109 115.429 109.856 115.941C109.751 115.554 109.763 115.145 109.891 114.765C110.012 114.28 110.165 113.804 110.348 113.339C107.407 112.529 101.483 110.827 98.1339 107.914C96.8991 106.889 95.8897 105.62 95.1692 104.186C94.4488 102.752 94.0327 101.184 93.9473 99.582Z" fill="#F28F8F"/>
<path d="M89.7431 94.6404C89.7431 94.9223 89.6595 95.1979 89.5029 95.4323C89.3463 95.6668 89.1236 95.8495 88.8631 95.9574C88.6027 96.0653 88.316 96.0935 88.0395 96.0385C87.763 95.9835 87.509 95.8477 87.3096 95.6484C87.1103 95.449 86.9745 95.195 86.9195 94.9185C86.8645 94.6419 86.8927 94.3553 87.0006 94.0948C87.1085 93.8344 87.2912 93.6117 87.5256 93.4551C87.7601 93.2985 88.0357 93.2148 88.3176 93.2148C88.6957 93.2148 89.0583 93.365 89.3256 93.6324C89.5929 93.8997 89.7431 94.2623 89.7431 94.6404Z" fill="#BA68C8"/>
<path d="M87.8125 114.183C87.8125 114.183 88.1308 119.429 89.5563 123.249C92.2344 130.383 96.0819 139.213 102.054 147.199C108.026 155.184 116.8 165.391 116.8 165.391C116.8 165.391 123.188 147.711 116.178 128.715C114.797 125.08 113.205 121.529 111.41 118.079C111.065 117.47 110.623 116.92 110.102 116.453C109.832 116.19 109.624 115.692 109.88 114.765L110.157 113.824C111.054 114.514 112.019 115.112 113.036 115.609C114.497 116.294 116.002 116.881 117.541 117.367C118.115 117.56 118.288 117.602 118.288 117.602C121.406 120.489 124.124 123.78 126.371 127.387C131.056 135.455 134.017 144.95 133.768 151.448C133.339 162.796 129.083 167.398 124.08 172.54C120.911 175.785 120.018 193.3 123.208 197.389C126.398 201.479 133.035 205.853 133.035 205.853C133.035 205.853 123.672 207.444 106.566 215.852C89.4594 224.26 79.7507 231.768 77.0173 236.342C75.4018 238.977 74.487 241.98 74.36 245.068C74.36 245.068 61.4888 238.508 56.6171 232.086C51.7454 225.665 49.9186 215.741 50.9981 206.621C52.0776 197.5 71.7581 122.231 71.7581 122.231C71.7581 122.231 80.1451 117.713 83.7781 115.021C85.5981 113.678 87.7156 112.356 88.2692 112.474L87.8125 114.183Z" fill="#FAFAFA"/>
<path d="M106.081 158.34L95.4658 150.728C93.7012 149.462 91.9642 148.168 90.2412 146.874C88.5297 145.632 86.8937 144.289 85.3418 142.853C85.1688 142.68 85.0096 142.507 84.8782 142.348C84.7467 142.189 84.7467 142.189 84.719 142.14V142.071C84.719 141.988 84.719 141.926 84.719 141.829C84.7265 141.633 84.752 141.439 84.7951 141.248C85.0265 140.31 85.3752 139.406 85.8331 138.556C86.8242 136.713 87.9604 134.952 89.2308 133.29L89.2793 133.234C89.4363 133.017 89.5224 132.757 89.5258 132.489C89.5292 132.221 89.4497 131.958 89.2983 131.737C89.1468 131.516 88.9308 131.347 88.6796 131.253C88.4285 131.16 88.1546 131.146 87.8953 131.214C87.0026 131.477 86.0476 131.719 85.1273 131.906C84.2568 132.097 83.3682 132.195 82.4769 132.196L82.1586 132.162V131.961V131.228C82.1586 130.238 82.1586 129.262 82.1586 128.28C82.1586 126.314 82.297 124.342 82.4977 122.384C82.6932 120.41 83.0122 118.45 83.4526 116.516C82.6009 118.338 81.9333 120.242 81.4597 122.197C80.972 124.158 80.6114 126.148 80.3802 128.155C80.2487 129.158 80.1726 130.162 80.1034 131.172L80.0618 131.926V132.3C80.0562 132.374 80.0562 132.448 80.0618 132.522C80.0634 132.68 80.0844 132.838 80.1241 132.992C80.2153 133.312 80.3952 133.6 80.6431 133.823C80.8329 133.989 81.0477 134.125 81.2798 134.224C81.6081 134.355 81.9526 134.441 82.3039 134.48C83.2985 134.569 84.3004 134.535 85.2864 134.376C84.6567 135.31 84.0685 136.279 83.5149 137.303C82.9283 138.367 82.4817 139.502 82.1863 140.68C82.1132 141.02 82.0669 141.365 82.0479 141.711C82.0375 141.903 82.0375 142.094 82.0479 142.286L82.0894 142.597V142.749C82.106 142.842 82.1315 142.932 82.1655 143.019C82.2097 143.162 82.2701 143.299 82.3454 143.428C82.4146 143.552 82.47 143.628 82.5254 143.711C82.6282 143.864 82.7415 144.01 82.8644 144.147C83.0665 144.389 83.2814 144.62 83.508 144.839C85.1669 146.35 86.9188 147.755 88.7534 149.047C90.5318 150.334 92.3587 151.552 94.1786 152.763C95.9986 153.974 97.8393 155.143 99.7146 156.292C101.59 157.441 103.431 158.582 105.313 159.689C109.07 161.911 112.876 164.056 116.759 166.056C113.16 163.419 109.624 160.873 106.081 158.34ZM82.0963 132.439C82.0963 132.439 82.0963 132.473 82.0963 132.48C82.0963 132.487 82.0963 132.466 82.0963 132.439Z" fill="#E0E0E0"/>
<path d="M115.915 169.463C115.756 172.681 115.41 175.885 115.05 179.082C114.69 182.279 114.254 185.469 114.012 188.659C113.866 190.257 113.77 191.856 113.763 193.448C113.733 195.034 113.879 196.619 114.199 198.174C114.547 199.732 115.048 201.253 115.693 202.713C116.293 204.201 117.166 205.562 118.268 206.727C117.641 206.214 117.094 205.613 116.641 204.942C116.174 204.281 115.756 203.587 115.389 202.866C114.671 201.408 114.098 199.883 113.68 198.312C113.296 196.727 113.112 195.1 113.133 193.468C113.133 191.842 113.195 190.23 113.327 188.624C113.624 185.407 114.019 182.216 114.524 179.033C115.029 175.85 115.472 172.653 115.915 169.463Z" fill="#E0E0E0"/>
<path d="M127.725 133.6C127.523 133.049 127.251 132.526 126.916 132.043C126.34 131.206 125.694 130.418 124.985 129.691C124.293 128.999 123.601 128.307 122.868 127.698C122.134 127.089 121.331 126.397 120.542 125.781C120.703 125.726 120.86 125.661 121.013 125.587C121.131 125.538 121.242 125.475 121.345 125.4C121.472 125.318 121.589 125.221 121.691 125.109C121.956 124.846 122.123 124.499 122.162 124.127C122.185 123.932 122.171 123.735 122.12 123.546C122.102 123.464 122.074 123.385 122.037 123.31L121.947 123.123C121.841 122.943 121.723 122.77 121.594 122.604C121.359 122.314 121.117 122.051 120.902 121.802C120.418 121.31 119.92 120.861 119.421 120.418C118.402 119.555 117.364 118.722 116.307 117.92C115.249 117.124 114.176 116.349 113.069 115.615L115.781 118.508C116.681 119.47 117.581 120.432 118.432 121.414C118.861 121.899 119.29 122.39 119.671 122.888C119.858 123.124 120.031 123.372 120.19 123.629C120.223 123.682 120.253 123.737 120.279 123.795H120.224C120 123.87 119.768 123.917 119.532 123.933C118.952 123.988 118.368 123.988 117.788 123.933C117.556 123.911 117.323 123.963 117.123 124.083C116.923 124.202 116.767 124.383 116.676 124.597C116.586 124.812 116.567 125.05 116.621 125.277C116.675 125.503 116.801 125.707 116.979 125.857L117.055 125.926C118.439 127.096 119.871 128.3 121.207 129.573C121.899 130.203 122.494 130.86 123.103 131.51C123.693 132.132 124.228 132.803 124.701 133.517C124.897 133.807 125.06 134.118 125.186 134.445C125.257 134.772 125.292 135.106 125.29 135.441C125.293 136.317 125.249 137.192 125.158 138.064C124.978 139.863 124.653 141.683 124.335 143.496C124.016 145.309 123.643 147.129 123.22 148.942C122.798 150.755 122.376 152.554 121.913 154.353C121.048 157.981 119.848 161.521 118.328 164.927C119.514 163.432 120.527 161.807 121.345 160.083C122.203 158.395 122.93 156.623 123.615 154.872C124.3 153.122 124.881 151.302 125.442 149.496C126.002 147.689 126.452 145.842 126.881 143.96C127.283 142.124 127.593 140.269 127.808 138.403C127.934 137.411 127.992 136.413 127.981 135.413C127.982 134.8 127.896 134.19 127.725 133.6ZM120.335 123.912V123.947C120.337 123.924 120.337 123.901 120.335 123.878V123.912Z" fill="#E0E0E0"/>
<path d="M79.2798 168.161C79.2798 168.161 92.3863 170.314 101.375 167.746V163.068C92.3793 165.643 79.2798 163.49 79.2798 163.49V168.161Z" fill="#E0E0E0"/>
<path d="M46.3616 178.864C49.2057 162.539 51.9668 149.073 55.7659 137.344C58.001 130.424 63.3779 126.562 71.5712 123.033C80.3942 129.317 76.6712 148.969 75.4256 153.571L68.5056 181.507C68.5056 181.507 76.0484 187.59 84.0894 193.486C90.8849 198.468 95.459 201.458 103.465 202.406C111.472 203.354 114.738 203.098 118.925 204.904C121.153 205.873 126.232 208.115 127.969 208.987C129.706 209.858 132.813 213 135.685 215.111C138.391 217.263 134.993 218.46 132.917 217.879C130.149 217.076 128.481 215.879 126.606 214.82C124.834 213.824 123.049 213.436 121.194 212.744C121.786 214.804 122.171 216.918 122.343 219.055C122.343 220.211 122.606 221.609 121.603 222.453C120.853 222.905 120.038 223.241 119.188 223.449C119.167 223.866 118.997 224.261 118.71 224.563C118.112 225.001 117.369 225.192 116.634 225.096C116.239 225.064 115.846 225.006 115.458 224.923C115.405 225.289 115.258 225.634 115.031 225.925C114.804 226.216 114.505 226.444 114.164 226.584C112.57 227.086 110.869 227.146 109.244 226.757C109.001 226.66 107.168 225.678 106.628 225.373C105.853 224.972 105.161 224.743 104.822 224.238C104.483 223.733 105.514 222.252 106.489 222.1C107.536 221.995 108.593 222.063 109.617 222.301C109.197 221.444 108.887 220.537 108.697 219.602C107.846 218.218 101.687 219.602 96.241 218.688C92.089 217.996 89.1203 214.052 87.245 213.215C75.4256 207.872 66.3189 204.143 54.2988 196.89C43.3237 190.303 44.9084 187.334 46.3616 178.864Z" fill="#FFA8A7"/>
<path d="M122.288 213.098C121.652 211.541 120.676 209.679 119.486 209.25C120.222 210.317 120.807 211.482 121.223 212.71C121.583 212.862 121.936 212.98 122.288 213.098Z" fill="#F28F8F"/>
<path d="M119.215 223.436C119.399 222.313 119.433 221.17 119.319 220.038C119.234 218.905 119.086 217.778 118.876 216.661C118.698 215.529 118.389 214.421 117.956 213.36C117.531 212.278 116.812 211.336 115.88 210.641C116.27 211.042 116.584 211.511 116.807 212.025C117.069 212.513 117.284 213.025 117.451 213.554C117.778 214.614 118.03 215.696 118.205 216.792C118.42 217.893 118.599 218.993 118.786 220.1C118.995 221.203 119.138 222.316 119.215 223.436Z" fill="#F28F8F"/>
<path d="M115.514 224.907C115.632 223.796 115.632 222.675 115.514 221.564C115.414 220.453 115.247 219.348 115.016 218.257C114.787 217.162 114.481 216.084 114.102 215.032C113.687 214.015 113.3 212.88 112.393 212.174C112.733 212.603 112.987 213.094 113.14 213.62C113.327 214.132 113.486 214.658 113.625 215.184C113.902 216.25 114.151 217.315 114.372 218.395C114.829 220.554 115.251 222.706 115.514 224.907Z" fill="#F28F8F"/>
<path d="M106.563 222.136C107.031 222.143 107.496 222.208 107.947 222.33C108.39 222.433 108.709 222.662 109.269 222.835L109.041 222.475C109.011 222.709 109.042 222.948 109.131 223.167C109.205 223.355 109.313 223.529 109.449 223.679C109.696 223.972 110.023 224.186 110.39 224.295C110.17 224.031 109.979 223.743 109.823 223.437C109.762 223.296 109.716 223.15 109.684 223.001C109.668 222.874 109.668 222.747 109.684 222.62L109.719 222.364L109.456 222.253C109.039 222.096 108.6 222.005 108.155 221.984C107.621 221.877 107.067 221.93 106.563 222.136Z" fill="#F28F8F"/>
<path d="M71.7521 122.232C60.6801 127.457 58.6663 129.27 55.3516 135.214C52.037 141.159 50.3692 148.701 48.1064 161.69C45.9889 173.856 43.1171 185.55 44.7641 189.287C46.411 193.024 47.9819 193.716 53.7601 197.391C59.5383 201.065 73.7173 207.127 73.7173 207.127C73.7173 207.127 73.9249 201.757 76.8521 198.131C81.2878 192.678 84.0696 193.46 84.0696 193.46L70.0082 181.135C70.0082 181.135 76.0079 155.781 77.4957 149.795C78.9835 143.809 80.9626 127.332 71.7521 122.232Z" fill="#EBEBEB"/>
<path opacity="0.2" d="M125.252 304.536L161.395 283.72C162.821 282.897 162.821 281.561 161.395 280.738L109.281 250.594C108.481 250.188 107.596 249.977 106.699 249.977C105.802 249.977 104.918 250.188 104.118 250.594L68.0027 271.423C66.5772 272.247 66.5772 273.582 68.0027 274.406L120.11 304.549C120.909 304.949 121.79 305.156 122.683 305.153C123.576 305.151 124.456 304.939 125.252 304.536Z" fill="#BA68C8"/>
<path d="M153.949 282.252L121.916 300.341L72.729 272.114L104.755 254.025L153.949 282.252Z" fill="#BA68C8"/>
<path opacity="0.6" d="M153.949 282.252L121.916 300.341L72.729 272.114L104.755 254.025L153.949 282.252Z" fill="black"/>
<path d="M121.573 299.02L152.526 281.436C151.758 279.249 151.834 278.592 152.686 275.686L121.919 293.089C121.919 293.089 121.359 293.048 121.573 299.02Z" fill="#F5F5F5"/>
<path d="M123.416 290.709C122.6 291.24 121.919 291.954 121.429 292.795C120.938 293.637 120.652 294.581 120.593 295.553V299.359C120.593 301.151 121.859 301.878 123.416 300.978L153.94 283.644V282.26L123.804 299.276C122.863 299.809 122.108 299.373 122.108 298.3V294.909C122.142 294.324 122.313 293.754 122.607 293.247C122.902 292.74 123.312 292.309 123.804 291.989L153.906 274.973V273.34L123.416 290.709Z" fill="#BA68C8"/>
<path opacity="0.5" d="M123.416 290.709C122.6 291.24 121.919 291.954 121.429 292.795C120.938 293.637 120.652 294.581 120.593 295.553V299.359C120.593 301.151 121.859 301.878 123.416 300.978L153.94 283.644V282.26L123.804 299.276C122.863 299.809 122.108 299.373 122.108 298.3V294.909C122.142 294.324 122.313 293.754 122.607 293.247C122.902 292.74 123.312 292.309 123.804 291.989L153.906 274.973V273.34L123.416 290.709Z" fill="black"/>
<path d="M153.949 273.34L104.755 245.113L74.231 262.455C73.4145 262.985 72.7338 263.7 72.2434 264.541C71.7531 265.382 71.4669 266.327 71.4077 267.299V271.105C71.3712 271.454 71.4283 271.806 71.573 272.126C71.7177 272.446 71.9448 272.722 72.2312 272.925L121.425 301.151C121.137 300.95 120.907 300.675 120.761 300.355C120.615 300.035 120.558 299.681 120.595 299.331V295.525C120.655 294.553 120.942 293.608 121.434 292.767C121.925 291.925 122.608 291.211 123.425 290.681L153.949 273.34Z" fill="#BA68C8"/>
<path opacity="0.35" d="M153.949 273.34L104.755 245.113L74.231 262.455C73.4145 262.985 72.7338 263.7 72.2434 264.541C71.7531 265.382 71.4669 266.327 71.4077 267.299V271.105C71.3712 271.454 71.4283 271.806 71.573 272.126C71.7177 272.446 71.9448 272.722 72.2312 272.925L121.425 301.151C121.137 300.95 120.907 300.675 120.761 300.355C120.615 300.035 120.558 299.681 120.595 299.331V295.525C120.655 294.553 120.942 293.608 121.434 292.767C121.925 291.925 122.608 291.211 123.425 290.681L153.949 273.34Z" fill="black"/>
<path d="M121.417 292.807C120.907 293.643 120.621 294.596 120.587 295.575V299.381C120.55 299.731 120.607 300.084 120.753 300.404C120.899 300.724 121.128 300.999 121.417 301.201L72.2229 272.974C71.9365 272.771 71.7094 272.495 71.5647 272.176C71.42 271.856 71.3629 271.503 71.3994 271.154V267.348C71.4318 266.37 71.7154 265.417 72.2229 264.58L121.417 292.807Z" fill="#BA68C8"/>
<path opacity="0.45" d="M121.417 292.807C120.907 293.643 120.621 294.596 120.587 295.575V299.381C120.55 299.731 120.607 300.084 120.753 300.404C120.899 300.724 121.128 300.999 121.417 301.201L72.2229 272.974C71.9365 272.771 71.7094 272.495 71.5647 272.176C71.42 271.856 71.3629 271.503 71.3994 271.154V267.348C71.4318 266.37 71.7154 265.417 72.2229 264.58L121.417 292.807Z" fill="black"/>
<path d="M78.8882 268.348C77.9679 272.334 77.9817 273.884 78.8882 276.804L81.2341 278.188C80.3276 275.268 80.3137 273.711 81.2341 269.732L78.8882 268.348Z" fill="#BA68C8"/>
<path d="M111.141 286.889C110.221 290.868 110.235 292.376 111.141 295.296L113.48 296.646C112.581 293.726 112.567 292.224 113.48 288.245L111.141 286.889Z" fill="#BA68C8"/>
<path d="M160.414 272.9L128.382 290.982L79.1943 262.755L111.22 244.666L160.414 272.9Z" fill="#BA68C8"/>
<path opacity="0.4" d="M160.414 272.9L128.382 290.982L79.1943 262.755L111.22 244.666L160.414 272.9Z" fill="black"/>
<path d="M128.017 289.661L158.963 272.078C158.195 269.898 158.271 268.922 159.122 266.016L128.363 283.419C128.363 283.419 127.816 283.724 128.017 289.661Z" fill="#F5F5F5"/>
<path d="M129.88 281.035C129.062 281.564 128.38 282.279 127.889 283.12C127.397 283.961 127.11 284.906 127.05 285.879V290.031C127.05 291.823 128.316 292.549 129.88 291.657L160.404 274.315V272.931L130.261 289.941C129.326 290.48 128.565 290.044 128.565 288.965V285.27C128.6 284.678 128.776 284.102 129.078 283.592C129.38 283.082 129.8 282.651 130.302 282.335L160.404 265.319V263.721L129.88 281.035Z" fill="#BA68C8"/>
<path opacity="0.25" d="M129.88 281.035C129.062 281.564 128.38 282.279 127.889 283.12C127.397 283.961 127.11 284.906 127.05 285.879V290.031C127.05 291.823 128.316 292.549 129.88 291.657L160.404 274.315V272.931L130.261 289.941C129.326 290.48 128.565 290.044 128.565 288.965V285.27C128.6 284.678 128.776 284.102 129.078 283.592C129.38 283.082 129.8 282.651 130.302 282.335L160.404 265.319V263.721L129.88 281.035Z" fill="black"/>
<path d="M160.406 263.695L111.219 235.469L80.695 252.81C79.8772 253.34 79.1951 254.054 78.7035 254.896C78.212 255.737 77.9247 256.682 77.8647 257.654V261.772C77.8281 262.121 77.8858 262.473 78.0319 262.792C78.178 263.111 78.407 263.385 78.6951 263.585L127.882 291.811C127.595 291.61 127.367 291.336 127.221 291.018C127.075 290.699 127.017 290.347 127.052 289.998V285.846C127.111 284.874 127.398 283.93 127.888 283.089C128.378 282.247 129.059 281.533 129.875 281.002L160.406 263.695Z" fill="#BA68C8"/>
<path d="M127.882 283.135C127.373 283.972 127.087 284.925 127.052 285.903V290.055C127.017 290.404 127.075 290.756 127.221 291.075C127.367 291.393 127.595 291.667 127.882 291.868L78.6951 263.642C78.407 263.442 78.178 263.168 78.0319 262.849C77.8858 262.53 77.8281 262.178 77.8647 261.829V257.711C77.9011 256.733 78.1869 255.78 78.6951 254.943L127.882 283.135Z" fill="#BA68C8"/>
<path opacity="0.15" d="M127.882 283.135C127.373 283.972 127.087 284.925 127.052 285.903V290.055C127.017 290.404 127.075 290.756 127.221 291.075C127.367 291.393 127.595 291.667 127.882 291.868L78.6951 263.642C78.407 263.442 78.178 263.168 78.0319 262.849C77.8858 262.53 77.8281 262.178 77.8647 261.829V257.711C77.9011 256.733 78.1869 255.78 78.6951 254.943L127.882 283.135Z" fill="black"/>
<path d="M85.3342 258.678C84.4208 262.664 84.4346 264.532 85.3342 267.452L87.6801 268.802C86.7736 265.881 86.7597 264.013 87.6801 260.034L85.3342 258.678Z" fill="#BA68C8"/>
<path d="M117.599 277.248C116.685 281.227 116.699 283.033 117.599 285.953L119.945 287.303C119.038 284.383 119.024 282.57 119.945 278.584L117.599 277.248Z" fill="#BA68C8"/>
<g opacity="0.4">
<path d="M85.3342 258.678C84.4208 262.664 84.4346 264.532 85.3342 267.452L87.6801 268.802C86.7736 265.881 86.7597 264.013 87.6801 260.034L85.3342 258.678Z" fill="white"/>
<path d="M117.595 277.242C116.682 281.221 116.696 283.027 117.595 285.948L119.941 287.297C119.035 284.377 119.021 282.564 119.941 278.578L117.595 277.242Z" fill="white"/>
</g>
<path opacity="0.2" d="M226.932 253.704L188.596 275.848L183.281 276.928C183.25 276.933 183.219 276.929 183.191 276.917C183.162 276.905 183.137 276.886 183.119 276.861C183.101 276.835 183.091 276.806 183.089 276.775C183.087 276.744 183.093 276.713 183.108 276.686L184.769 273.641L223.112 251.497C224.157 250.888 227.749 253.227 226.932 253.704Z" fill="black"/>
<path d="M223.245 249.286C223.272 249.781 223.415 250.263 223.662 250.692C223.91 251.121 224.256 251.486 224.671 251.757C224.911 251.915 225.203 251.977 225.487 251.93C225.445 251.978 225.393 252.018 225.335 252.047L225.674 251.853L225.723 251.812L225.792 251.763L225.826 251.722L225.861 251.68C225.91 251.615 225.949 251.542 225.979 251.466V251.397C225.979 251.397 225.979 251.355 225.979 251.334C226.008 251.219 226.022 251.1 226.02 250.981C225.993 250.488 225.849 250.007 225.602 249.579C225.354 249.151 225.009 248.788 224.595 248.518C224.404 248.396 224.184 248.329 223.958 248.324H223.861H223.778H223.73H223.674H223.619L223.321 248.497C223.368 248.469 223.42 248.45 223.474 248.442C223.381 248.56 223.313 248.696 223.274 248.841C223.235 248.986 223.225 249.137 223.245 249.286Z" fill="#BA68C8"/>
<path d="M186.408 269.881L188.421 273.341L188.761 273.147L225.333 252.02C225.391 251.991 225.442 251.951 225.485 251.903C225.673 251.679 225.768 251.391 225.748 251.1C225.722 250.606 225.579 250.125 225.331 249.697C225.083 249.269 224.738 248.905 224.322 248.636C224.131 248.517 223.911 248.45 223.686 248.443C223.626 248.436 223.566 248.436 223.506 248.443C223.452 248.451 223.4 248.469 223.354 248.498L186.408 269.881Z" fill="#F0F0F0"/>
<path d="M187.422 269.977C186.633 269.527 185.996 269.894 185.996 270.801C186.023 271.295 186.166 271.777 186.414 272.206C186.661 272.635 187.007 273 187.422 273.271C188.204 273.721 188.847 273.354 188.847 272.448C188.82 271.953 188.676 271.472 188.429 271.043C188.181 270.613 187.836 270.249 187.422 269.977Z" fill="#BA68C8"/>
<path d="M184.353 272.093V272.051L186.173 270.058V270.017C186.336 269.888 186.537 269.818 186.744 269.818C186.951 269.818 187.152 269.888 187.315 270.017C187.73 270.288 188.074 270.653 188.322 271.082C188.57 271.511 188.713 271.993 188.741 272.487C188.768 272.688 188.728 272.892 188.628 273.068C188.528 273.245 188.373 273.383 188.187 273.463H188.083L185.447 274.037C185.288 274.065 185.124 274.031 184.99 273.94C184.757 273.788 184.562 273.584 184.42 273.344C184.278 273.104 184.194 272.834 184.173 272.556C184.174 272.385 184.238 272.22 184.353 272.093Z" fill="#E0E0E0"/>
<path d="M207.632 259.124H207.68C207.736 259.107 207.794 259.103 207.852 259.112C207.909 259.12 207.964 259.141 208.012 259.172C208.16 259.269 208.282 259.399 208.37 259.551C208.458 259.704 208.508 259.875 208.518 260.051C208.523 260.107 208.516 260.164 208.495 260.217C208.475 260.27 208.442 260.318 208.4 260.356L208.338 260.397L186.706 272.853L185.28 272.03L207.632 259.124Z" fill="#455A64"/>
<path d="M188.713 271.693L186.706 272.855L185.28 272.032L188 270.461C188.323 270.816 188.566 271.236 188.713 271.693Z" fill="#37474F"/>
<path d="M183.641 273.044L185.288 271.231L185.33 271.182C185.448 271.096 185.591 271.049 185.738 271.049C185.885 271.049 186.028 271.096 186.146 271.182C186.439 271.373 186.682 271.631 186.857 271.934C187.031 272.237 187.131 272.577 187.15 272.926C187.164 273.066 187.136 273.208 187.068 273.332C187 273.455 186.896 273.555 186.769 273.618H186.707L184.292 274.144C184.203 274.157 184.112 274.137 184.036 274.088C183.902 274.001 183.791 273.884 183.712 273.745C183.632 273.607 183.587 273.452 183.579 273.293C183.569 273.205 183.591 273.116 183.641 273.044Z" fill="#BA68C8"/>
<path opacity="0.1" d="M183.641 273.044L185.288 271.231L185.33 271.182C185.448 271.096 185.591 271.049 185.738 271.049C185.885 271.049 186.028 271.096 186.146 271.182C186.439 271.373 186.682 271.631 186.857 271.934C187.031 272.237 187.131 272.577 187.15 272.926C187.164 273.066 187.136 273.208 187.068 273.332C187 273.455 186.896 273.555 186.769 273.618H186.707L184.292 274.144C184.203 274.157 184.112 274.137 184.036 274.088C183.902 274.001 183.791 273.884 183.712 273.745C183.632 273.607 183.587 273.452 183.579 273.293C183.569 273.205 183.591 273.116 183.641 273.044Z" fill="black"/>
<path d="M183.55 273.341C183.558 273.5 183.604 273.655 183.683 273.793C183.762 273.932 183.873 274.049 184.007 274.136C184.083 274.185 184.174 274.205 184.263 274.192L185.481 273.922C185.675 273.887 185.799 273.7 185.799 273.41C185.786 273.156 185.712 272.909 185.584 272.689C185.457 272.468 185.279 272.282 185.066 272.143C184.983 272.077 184.881 272.041 184.775 272.041C184.669 272.041 184.567 272.077 184.484 272.143H184.45L183.633 273.043C183.599 273.084 183.573 273.131 183.559 273.183C183.545 273.234 183.542 273.288 183.55 273.341Z" fill="#BA68C8"/>
<path opacity="0.1" d="M184.008 273.046C183.752 272.901 183.551 273.046 183.551 273.309C183.559 273.468 183.605 273.623 183.684 273.762C183.763 273.9 183.874 274.017 184.008 274.105C184.257 274.25 184.465 274.105 184.465 273.842C184.456 273.682 184.41 273.528 184.331 273.389C184.252 273.251 184.141 273.133 184.008 273.046Z" fill="black"/>
<path d="M220.279 251.818C220.337 251.79 220.401 251.779 220.464 251.785C220.528 251.791 220.588 251.814 220.639 251.853C220.786 251.949 220.908 252.077 220.995 252.229C221.083 252.38 221.134 252.55 221.144 252.725C221.153 252.788 221.143 252.852 221.116 252.91C221.089 252.967 221.046 253.016 220.992 253.05L208.412 260.323C208.454 260.285 208.486 260.238 208.507 260.185C208.527 260.132 208.535 260.075 208.529 260.018C208.52 259.843 208.469 259.671 208.382 259.519C208.294 259.366 208.171 259.236 208.024 259.14C207.975 259.108 207.921 259.087 207.863 259.079C207.806 259.071 207.747 259.075 207.692 259.091L220.279 251.818Z" fill="#FAFAFA"/>
<path d="M220.131 252.143C220.141 252.318 220.192 252.488 220.28 252.639C220.367 252.791 220.489 252.92 220.636 253.015C220.686 253.052 220.745 253.074 220.807 253.08C220.869 253.086 220.932 253.076 220.989 253.05C221.041 253.015 221.083 252.966 221.11 252.909C221.137 252.851 221.148 252.788 221.141 252.725C221.131 252.55 221.079 252.38 220.992 252.229C220.904 252.077 220.782 251.949 220.636 251.853C220.585 251.814 220.524 251.791 220.461 251.785C220.397 251.779 220.333 251.79 220.276 251.818C220.225 251.855 220.185 251.904 220.159 251.961C220.134 252.018 220.124 252.081 220.131 252.143Z" fill="#F5F5F5"/>
<path d="M221.258 249.986L223.334 248.775H223.382C223.524 248.719 223.677 248.699 223.828 248.717C223.979 248.736 224.123 248.791 224.247 248.879C224.622 249.122 224.933 249.45 225.157 249.836C225.38 250.222 225.51 250.655 225.535 251.1C225.553 251.26 225.527 251.422 225.46 251.568C225.393 251.715 225.287 251.84 225.154 251.931L223.023 253.163C222.878 253.222 222.721 253.243 222.566 253.225C222.411 253.207 222.264 253.15 222.137 253.059C221.763 252.817 221.453 252.491 221.23 252.106C221.008 251.721 220.88 251.288 220.857 250.844C220.841 250.679 220.87 250.512 220.941 250.361C221.011 250.21 221.121 250.081 221.258 249.986Z" fill="#BA68C8"/>
<path opacity="0.05" d="M221.258 249.986L223.334 248.775H223.382C223.524 248.719 223.677 248.699 223.828 248.717C223.979 248.736 224.123 248.791 224.247 248.879C224.622 249.122 224.933 249.45 225.157 249.836C225.38 250.222 225.51 250.655 225.535 251.1C225.553 251.26 225.527 251.422 225.46 251.568C225.393 251.715 225.287 251.84 225.154 251.931L223.023 253.163C222.878 253.222 222.721 253.243 222.566 253.225C222.411 253.207 222.264 253.15 222.137 253.059C221.763 252.817 221.453 252.491 221.23 252.106C221.008 251.721 220.88 251.288 220.857 250.844C220.841 250.679 220.87 250.512 220.941 250.361C221.011 250.21 221.121 250.081 221.258 249.986Z" fill="black"/>
<path opacity="0.1" d="M222.192 250.063C221.5 249.654 220.912 249.98 220.912 250.803C220.935 251.247 221.063 251.679 221.286 252.064C221.508 252.449 221.819 252.776 222.192 253.017C222.884 253.426 223.473 253.1 223.473 252.277C223.448 251.833 223.319 251.402 223.097 251.017C222.874 250.632 222.565 250.305 222.192 250.063Z" fill="black"/>
<path d="M182.969 273.809L183.834 273.283C183.861 273.268 183.89 273.26 183.921 273.26C183.951 273.26 183.981 273.268 184.007 273.283C184.076 273.328 184.133 273.388 184.174 273.459C184.215 273.53 184.238 273.609 184.243 273.691C184.245 273.72 184.24 273.75 184.228 273.776C184.215 273.803 184.197 273.826 184.173 273.843L183.308 274.369C183.256 274.394 183.2 274.409 183.142 274.411C183.054 274.409 182.969 274.373 182.907 274.309C182.845 274.246 182.81 274.161 182.81 274.072C182.812 274.018 182.828 273.966 182.856 273.92C182.884 273.874 182.923 273.836 182.969 273.809Z" fill="#455A64"/>
<path d="M182.915 273.844L182.956 273.81C182.98 273.799 183.006 273.793 183.032 273.793C183.059 273.793 183.084 273.799 183.108 273.81C183.176 273.855 183.233 273.916 183.274 273.987C183.314 274.057 183.338 274.137 183.344 274.218C183.346 274.247 183.341 274.277 183.329 274.303C183.317 274.33 183.298 274.353 183.274 274.37H183.24C183.203 274.378 183.166 274.378 183.129 274.37C183.062 274.369 182.998 274.347 182.943 274.309C182.889 274.271 182.847 274.217 182.822 274.155C182.798 274.093 182.792 274.026 182.806 273.96C182.82 273.895 182.853 273.836 182.901 273.789L182.915 273.844Z" fill="#263238"/>
<path opacity="0.2" d="M205.12 271.799C205.507 272.844 206.621 273.495 208.483 273.737L241.699 254.396L245.159 250.936C245.2 250.892 245.225 250.836 245.231 250.777C245.237 250.718 245.223 250.658 245.191 250.607C245.16 250.557 245.112 250.518 245.056 250.497C245 250.477 244.939 250.475 244.882 250.493L238.536 252.569L205.12 271.799Z" fill="black"/>
<path d="M238.75 250.203L244.396 249.096C244.432 249.09 244.468 249.096 244.501 249.112C244.533 249.128 244.56 249.153 244.578 249.184C244.596 249.216 244.604 249.252 244.601 249.288C244.599 249.324 244.585 249.358 244.562 249.386L240.729 253.725L238.75 250.203Z" fill="#FFA8A7"/>
<path d="M244.582 249.386C244.604 249.358 244.618 249.324 244.621 249.288C244.624 249.252 244.616 249.216 244.598 249.184C244.58 249.153 244.553 249.128 244.52 249.112C244.488 249.096 244.451 249.09 244.416 249.096L243.315 249.31C243.467 249.405 243.589 249.54 243.668 249.7C243.747 249.86 243.781 250.039 243.765 250.217V250.314L244.582 249.386Z" fill="#263238"/>
<path d="M212.984 269.619L213.448 269.356L214.009 269.037L240.747 253.723C240.934 253.101 240.877 252.43 240.588 251.848C240.44 251.447 240.197 251.088 239.88 250.801C239.563 250.514 239.182 250.309 238.768 250.201L212.043 265.508L210.978 266.124C211.683 265.764 213.697 269.252 212.984 269.619Z" fill="#455A64"/>
<path d="M214.745 268.618L215.776 268.022C216.081 267.863 215.908 267.116 215.548 266.341C215.077 265.31 214.164 264.32 213.749 264.528L212.988 264.971L212.718 265.13C213.119 264.915 214.053 265.912 214.524 266.936C214.863 267.676 215.036 268.403 214.773 268.597L214.745 268.618Z" fill="#EBEBEB"/>
<path d="M215.002 268.498C215.694 268.124 213.68 264.637 212.974 265.038L211.943 265.626C212.635 265.252 214.711 268.74 213.97 269.121L215.002 268.498Z" fill="#BA68C8"/>
<path d="M212.984 269.621L214.009 269.04C214.701 268.673 212.777 265.289 212.043 265.51H211.995L210.978 266.106C211.683 265.766 213.697 269.254 212.984 269.621Z" fill="#EBEBEB"/>
<path opacity="0.15" d="M244.596 249.191L244.409 249.094L240.312 251.336L212.446 267.314C212.404 267.252 212.376 267.245 212.349 267.314C212.951 268.248 213.407 269.432 213.006 269.639L213.47 269.376L214.03 269.058L240.769 253.744L244.603 249.405C244.625 249.373 244.636 249.335 244.635 249.297C244.634 249.258 244.62 249.221 244.596 249.191Z" fill="black"/>
<path d="M208.656 272.095L212.981 269.618C213.286 269.459 213.12 268.718 212.767 267.95C212.303 266.919 211.383 265.916 210.975 266.123L206.629 268.607C205.764 269.106 206.56 270.981 207.521 271.818C207.66 271.974 207.843 272.084 208.046 272.133C208.248 272.182 208.461 272.169 208.656 272.095Z" fill="#F28F8F"/>
<path opacity="0.1" d="M208.914 270.754C208.803 270.286 208.587 269.85 208.281 269.479C207.975 269.109 207.588 268.813 207.149 268.616C207.042 268.576 206.926 268.563 206.813 268.579C206.699 268.594 206.591 268.638 206.499 268.706C205.848 269.308 206.609 271.031 207.516 271.82C207.652 271.973 207.831 272.082 208.029 272.133C208.228 272.183 208.437 272.173 208.63 272.104C208.99 271.917 209.08 271.418 208.914 270.754Z" fill="black"/>
<path opacity="0.2" d="M292.519 227.796C292.377 228.488 292.095 229.142 291.689 229.72C290.884 230.87 289.823 231.818 288.589 232.488C283.226 235.588 274.527 235.588 269.158 232.488C267.925 231.816 266.864 230.869 266.057 229.72C265.659 229.14 265.381 228.486 265.241 227.796C264.763 225.471 266.071 223.042 269.164 221.257C274.534 218.157 283.233 218.157 288.596 221.257C291.682 223.042 292.997 225.471 292.519 227.796Z" fill="#BA68C8"/>
<path d="M289.465 217.459H268.013L270.227 226.697C270.393 227.811 271.217 228.905 272.691 229.756C276.026 231.68 281.437 231.68 284.773 229.756C286.365 228.835 287.188 227.645 287.264 226.448L289.465 217.459Z" fill="#E0E0E0"/>
<path d="M290.586 214.717C290.47 215.314 290.235 215.881 289.894 216.384C289.193 217.379 288.272 218.199 287.202 218.779C282.545 221.464 274.995 221.464 270.338 218.779C269.268 218.199 268.347 217.379 267.646 216.384C267.305 215.881 267.07 215.314 266.954 214.717C266.539 212.696 267.681 210.565 270.366 209.042C275.023 206.35 282.573 206.35 287.23 209.042C289.859 210.592 291.001 212.696 290.586 214.717Z" fill="#FAFAFA"/>
<path d="M289.868 216.383C289.167 217.377 288.245 218.197 287.176 218.777C282.518 221.462 274.969 221.462 270.312 218.777C269.242 218.197 268.321 217.377 267.62 216.383C267.279 215.879 267.043 215.312 266.928 214.715L267.461 218.355C267.703 219.815 268.789 221.24 270.734 222.361C275.176 224.922 282.366 224.922 286.809 222.361C288.726 221.254 289.812 219.849 290.075 218.403V218.216L290.587 214.715C290.463 215.314 290.218 215.881 289.868 216.383Z" fill="#EBEBEB"/>
<path d="M285.799 209.851C281.917 207.609 275.627 207.609 271.745 209.851C269.551 211.118 268.596 212.834 268.887 214.488C269.108 215.754 270.063 216.993 271.745 217.948C275.627 220.19 281.917 220.19 285.799 217.948C287.481 216.979 288.436 215.74 288.657 214.488C288.92 212.834 287.972 211.118 285.799 209.851Z" fill="#E0E0E0"/>
<path d="M269.506 216.025C270.087 216.828 270.842 217.49 271.713 217.962C275.595 220.205 281.886 220.205 285.768 217.962C286.637 217.49 287.39 216.828 287.968 216.025C287.968 214.682 287.041 213.347 285.27 212.323C281.664 210.247 275.817 210.247 272.212 212.323C270.44 213.347 269.54 214.682 269.506 216.025Z" fill="#BA68C8"/>
<path d="M275.74 201.561C275.553 196.081 273.484 187.562 271.505 184.123C275.245 188.732 277.425 194.409 277.733 200.337L275.74 201.561Z" fill="#263238"/>
<path d="M281.69 213.397C281.87 209.584 284.679 208.345 287.835 209.584C290.077 210.47 293.316 213.798 294.34 219.113C293.336 216.373 286.056 207.134 281.69 213.397Z" fill="#455A64"/>
<path d="M281.857 215.214C282.037 213.83 283.317 211.934 285.545 212.391C287.774 212.848 293.019 216.944 295.233 223.671C294.832 219.159 293.365 215.27 290.355 212.744C287.345 210.218 285.144 209.837 282.943 211.145C281.061 212.28 281.857 215.214 281.857 215.214Z" fill="#37474F"/>
<path d="M277.857 217.069C276.043 211.007 275.781 199.769 277.517 193.652C279.988 185.036 285.129 181.265 288.929 180.352C285.309 181.86 281.49 187.382 280.417 192.808C279.344 198.233 279.96 217.097 279.96 217.097L277.857 217.069Z" fill="#455A64"/>
<path d="M279.345 211.158C279.58 207.767 281.559 200.245 285.476 197.214C286.87 196.111 288.622 195.562 290.396 195.672C292.17 195.782 293.841 196.543 295.088 197.809C294.037 197.007 292.747 196.582 291.425 196.602C290.103 196.622 288.827 197.086 287.801 197.92C285.725 199.622 283.649 204.729 282.597 209.58L279.345 211.158Z" fill="#263238"/>
<path d="M284.68 197.915C287.144 195.5 289.067 193.867 292.126 194.026C295.185 194.185 299.268 198.455 301.634 207.506C299.191 201.756 296.022 196.704 290.95 196.165C289.84 196.01 288.711 196.085 287.632 196.386C286.554 196.688 285.549 197.208 284.68 197.915Z" fill="#37474F"/>
<path d="M257.135 192.545C261.965 192.351 266.699 193.939 270.435 197.008C274.171 200.077 276.648 204.411 277.397 209.188L274.684 208.752C274.684 208.752 272.428 201.624 268.497 197.915C265.037 194.635 262.456 193.327 257.135 192.545Z" fill="#455A64"/>
<path d="M278.066 207.487C278.274 204.428 276.835 197.999 272.157 193.647C267.479 189.294 265.797 188.339 260.988 187.107C264.884 189.123 268.299 191.956 271.001 195.411C274.094 199.453 274.233 204.241 274.233 206.047C274.759 207.487 276.662 210.435 278.066 207.487Z" fill="#37474F"/>
<path d="M277.855 208.984C277.246 205.088 279.343 198.113 281.793 194.701C284.755 190.549 289.121 187.484 293.972 186.646C288.782 188.633 283.558 194.425 282.021 199.891C281.107 203.525 280.891 207.298 281.385 211.012L277.855 208.984Z" fill="#37474F"/>
<path d="M279.511 217.07C278.854 213.43 280.016 205.845 286.009 201.666C292.002 197.486 296.174 198.607 297.718 199.064C293.081 198.752 288.417 201.334 285.573 204.531C283.594 206.752 281.739 210.385 281.622 216.412L279.511 217.07Z" fill="#455A64"/>
<path d="M279.569 217.376C279.569 217.376 281.139 217.335 281.769 216.601C281.769 214.248 282.406 209.536 285.707 206.754C289.007 203.972 291.582 204.505 292.101 205.598C292.101 203.993 290.087 202.567 287.859 203.045C284.15 203.834 278.877 208.664 279.569 217.376Z" fill="#263238"/>
<path d="M285.932 203.76C287.967 202.653 289.71 201.684 291.98 202.757C292.077 202.694 293.364 202.369 293.856 202.951C295.752 205.186 295.143 210.749 291.669 216.099C293.267 212.099 293.343 204.722 290.396 203.573C288.941 203.045 287.337 203.112 285.932 203.76Z" fill="#37474F"/>
<path d="M291.98 202.758C292.893 203.173 294.748 206.377 293.558 210.841C294.679 207.471 294.25 204.225 292.381 202.654C292.244 202.672 292.109 202.707 291.98 202.758Z" fill="#263238"/>
<path d="M275.599 216.29C275.42 214.871 274.139 213.003 271.911 213.459C269.683 213.916 264.438 218.02 262.223 224.739C262.485 220.588 264.163 216.653 266.977 213.591C269.399 211.037 272.582 209.806 275.108 211.162C277.634 212.518 275.599 216.29 275.599 216.29Z" fill="#263238"/>
<path d="M274.68 207.788C272.722 205.829 271.351 203.954 267.76 204.695C264.168 205.435 261.691 209.352 260.715 214.632C261.324 212.556 263.179 207.926 266.86 207.13C270.542 206.335 272.327 206.611 274.68 207.788Z" fill="#455A64"/>
<path d="M275.601 216.29C275.089 212.83 273.774 207.91 270.1 207.71C266.425 207.509 262.391 209.827 260.709 214.63C261.568 210.249 265.304 206.069 269.2 206.063C273.096 206.056 276.93 206.9 277.857 217.065L275.601 216.29Z" fill="#37474F"/>
<path d="M272.501 201.632C271.092 200.321 269.332 199.448 267.435 199.12C266.183 198.906 263.747 197.944 261.138 200.373C258.529 202.802 255.782 208.476 256.73 212.448C257.173 208.227 262.827 196.421 272.501 201.632Z" fill="#37474F"/>
<path d="M278.375 217.417C278.375 214.213 276.036 204.054 272.341 201.466C267.718 198.234 264.625 200.989 264.625 200.989C265.552 200.691 266.535 200.615 267.497 200.767C268.458 200.918 269.371 201.293 270.161 201.86C272.548 203.611 274.777 208.718 275.628 216.289C275.969 216.674 276.394 216.977 276.87 217.172C277.346 217.368 277.861 217.451 278.375 217.417Z" fill="#263238"/>
<path d="M276.276 207.873C276.055 208.815 277.024 215.797 277.778 217.375C278.517 217.488 279.271 217.476 280.006 217.34C280.698 216.115 280.006 208.212 281.39 208.06C280.331 207.604 276.795 206.261 276.276 207.873Z" fill="#37474F"/>
<path d="M276.278 207.87C277.372 206.749 281.814 208.964 282.631 215.559C283.731 212.431 283.24 208.555 282.14 207.58C281.838 207.3 281.458 207.12 281.05 207.064C280.643 207.009 280.228 207.08 279.863 207.268C279.863 207.268 276.431 205.76 276.278 207.87Z" fill="#455A64"/>
<path d="M279.861 207.271C281.245 207.846 282.768 209.728 282.754 212.939C282.858 211.292 282.539 208.406 280.214 207.133C280.093 207.169 279.975 207.215 279.861 207.271Z" fill="#37474F"/>
<path d="M282.647 50.5182C278.661 49.3972 278.205 47.7502 278.17 47.5841C278.146 47.5099 278.146 47.4299 278.17 47.3558L278.731 45.349C278.883 44.8092 278.731 43.6812 277.084 41.3838C277.074 41.3644 277.062 41.3459 277.049 41.3284C275.618 39.2409 274.864 36.7633 274.89 34.2323C274.916 31.7014 275.721 29.2399 277.195 27.1824C278.669 25.1248 280.741 23.5709 283.129 22.7319C285.517 21.893 288.105 21.8095 290.542 22.493C292.979 23.1765 295.147 24.5937 296.75 26.5521C298.354 28.5105 299.315 30.915 299.504 33.439C299.693 35.963 299.101 38.484 297.807 40.6594C296.513 42.8348 294.581 44.5592 292.273 45.5981H292.232C289.567 46.726 288.841 47.598 288.688 48.1446L288.121 50.1445C288.1 50.2204 288.059 50.2896 288.003 50.3452C287.872 50.5182 286.64 51.6462 282.647 50.5182ZM279.139 47.4596C279.291 47.7502 280.025 48.7813 282.91 49.5978C285.796 50.4144 286.945 49.9231 287.242 49.7501L287.761 47.9024C288.08 46.7883 289.36 45.8264 291.796 44.7608H291.837C293.971 43.8105 295.76 42.2259 296.96 40.2225C298.161 38.2192 298.715 35.8945 298.548 33.5649C298.38 31.2353 297.498 29.014 296.023 27.2034C294.547 25.3928 292.55 24.0808 290.302 23.446C288.054 22.8113 285.666 22.8846 283.461 23.6561C281.257 24.4275 279.343 25.8596 277.982 27.7573C276.62 29.655 275.877 31.9262 275.852 34.2617C275.828 36.5972 276.523 38.8835 277.845 40.8094C279.395 42.9962 279.921 44.5047 279.644 45.6119L279.139 47.4596Z" fill="#455A64"/>
<path d="M280.847 56.893C276.695 55.7166 276.225 54.0281 276.183 53.8413C276.166 53.7638 276.166 53.6835 276.183 53.606L277.318 49.5924C277.346 49.4901 277.407 49.3998 277.492 49.3355C277.576 49.2712 277.679 49.2363 277.785 49.2363C277.891 49.2363 277.995 49.2712 278.079 49.3355C278.163 49.3998 278.224 49.4901 278.252 49.5924C278.252 49.5924 278.682 50.9141 282.238 51.9175C285.795 52.9209 286.861 52.0213 286.868 52.0075C286.946 51.9373 287.045 51.8941 287.149 51.8841C287.254 51.8741 287.359 51.898 287.449 51.9521C287.539 52.0048 287.608 52.0856 287.647 52.182C287.686 52.2784 287.692 52.3849 287.664 52.485L286.529 56.4986C286.507 56.5729 286.469 56.6415 286.418 56.6993C286.287 56.8723 284.999 58.0625 280.847 56.893ZM277.159 53.7167C277.311 54.0143 278.066 55.1007 281.11 55.9657C284.155 56.8307 285.352 56.2979 285.657 56.118L286.487 53.2462C285.65 53.4538 284.238 53.5091 282.003 52.8725C279.768 52.2359 278.598 51.4885 277.99 50.8449L277.159 53.7167Z" fill="#455A64"/>
<path d="M281.932 47.1421L281.814 47.0868C281.755 47.0543 281.704 47.0098 281.664 46.9563C281.624 46.9029 281.595 46.8415 281.58 46.7762C281.565 46.711 281.564 46.6433 281.577 46.5776C281.59 46.5118 281.616 46.4496 281.655 46.3948C281.655 46.3948 282.409 45.0592 283.129 40.5266C283.331 39.3834 283.348 38.215 283.177 37.0666C281.433 37.0666 280.243 36.1393 279.911 35.2605C279.839 35.0904 279.802 34.9076 279.802 34.7229C279.802 34.5382 279.838 34.3554 279.91 34.1851C279.982 34.0149 280.086 33.8607 280.219 33.7316C280.351 33.6025 280.507 33.5012 280.679 33.4336C280.99 33.306 281.33 33.2676 281.661 33.3226C281.992 33.3776 282.302 33.5239 282.554 33.745C283.238 34.3501 283.721 35.1491 283.938 36.0355C284.202 35.9831 284.461 35.9114 284.713 35.821C285.347 35.6107 285.944 35.305 286.485 34.9145C286.111 33.6827 286.104 32.4994 286.561 31.7936C286.74 31.5688 286.981 31.4019 287.254 31.314C287.527 31.2261 287.82 31.221 288.096 31.2995C288.372 31.3779 288.619 31.5364 288.805 31.7549C288.991 31.9733 289.109 32.242 289.142 32.5271C289.142 33.3644 288.54 34.3747 287.578 35.2259C287.818 35.8418 288.149 36.418 288.561 36.9351C288.73 37.1435 288.915 37.3379 289.115 37.5164C289.761 36.877 290.586 36.4497 291.481 36.2916C291.811 36.2329 292.15 36.2665 292.461 36.3886C292.773 36.5107 293.044 36.7166 293.246 36.9836C293.358 37.1315 293.439 37.3004 293.484 37.4803C293.53 37.6602 293.538 37.8474 293.51 38.0307C293.482 38.214 293.417 38.3898 293.319 38.5475C293.221 38.7052 293.093 38.8417 292.941 38.9488C292.371 39.2882 291.713 39.4527 291.05 39.422C290.387 39.3912 289.748 39.1666 289.211 38.7758C288.459 39.6724 287.857 40.6841 287.426 41.7722C285.668 46.0072 285.613 47.5296 285.613 47.5435C285.612 47.6062 285.599 47.6681 285.574 47.7257C285.549 47.7833 285.513 47.8354 285.468 47.8791C285.423 47.9228 285.37 47.9572 285.312 47.9804C285.254 48.0035 285.191 48.015 285.129 48.014C285.066 48.014 285.005 48.0016 284.947 47.9776C284.889 47.9535 284.837 47.9182 284.793 47.8738C284.75 47.8293 284.715 47.7767 284.692 47.7188C284.669 47.6609 284.657 47.5989 284.658 47.5366C284.658 47.4674 284.658 45.8827 286.54 41.4054C286.998 40.24 287.641 39.1558 288.443 38.1946C288.216 37.9808 288.005 37.7494 287.814 37.5026C287.398 36.9834 287.049 36.4137 286.776 35.8072C286.223 36.1804 285.625 36.4827 284.997 36.7068C284.709 36.8105 284.413 36.8915 284.111 36.949C284.291 38.1873 284.273 39.4464 284.056 40.6788C283.295 45.4675 282.485 46.8376 282.458 46.9068C282.406 46.9964 282.327 47.0674 282.233 47.1097C282.138 47.1519 282.033 47.1633 281.932 47.1421ZM281.551 34.2986C281.391 34.2367 281.213 34.2367 281.053 34.2986C280.991 34.3154 280.935 34.3461 280.887 34.3883C280.84 34.4304 280.802 34.4829 280.778 34.5418C280.754 34.6006 280.744 34.6642 280.748 34.7276C280.753 34.791 280.772 34.8526 280.804 34.9076C281.022 35.2769 281.336 35.5808 281.712 35.7877C282.088 35.9946 282.513 36.0969 282.942 36.084C282.775 35.4678 282.434 34.9128 281.959 34.4854C281.837 34.3972 281.698 34.3338 281.551 34.2986ZM289.945 38.0631C290.304 38.2987 290.719 38.4334 291.148 38.4529C291.576 38.4723 292.002 38.3759 292.381 38.1738C292.437 38.1449 292.486 38.1033 292.524 38.0522C292.561 38.0012 292.586 37.9421 292.597 37.8797C292.608 37.8173 292.604 37.7532 292.586 37.6925C292.567 37.6319 292.535 37.5763 292.492 37.5302C292.391 37.4011 292.255 37.3032 292.101 37.2481C291.946 37.1929 291.78 37.1828 291.62 37.2188C290.991 37.3309 290.409 37.6243 289.945 38.0631ZM287.834 32.1534C287.523 32.0634 287.412 32.1534 287.336 32.2918C287.086 32.8972 287.06 33.5714 287.26 34.1948C287.756 33.7681 288.084 33.1798 288.187 32.534C288.18 32.4233 288.146 32.271 287.827 32.1811L287.834 32.1534Z" fill="#455A64"/>
<path d="M316.372 96.1135C315.461 93.2836 313.852 90.7293 311.691 88.6873C309.531 86.6453 306.89 85.1817 304.014 84.432C301.137 83.6824 298.118 83.6711 295.236 84.3991C292.353 85.127 289.702 86.5708 287.526 88.5965C285.35 90.6222 283.721 93.1643 282.79 95.9873C281.858 98.8102 281.654 101.823 282.197 104.745C282.74 107.668 284.012 110.406 285.895 112.707C287.777 115.007 290.21 116.795 292.968 117.905L293.051 117.946C296.83 119.385 297.895 120.603 298.165 121.372L299.079 124.209C299.11 124.317 299.17 124.415 299.252 124.492C299.445 124.679 301.279 126.257 306.933 124.437C312.587 122.617 313.161 120.285 313.195 120.001C313.222 119.892 313.222 119.778 313.195 119.669L312.282 116.832C312.033 116.071 312.206 114.445 314.483 110.985C314.498 110.969 314.51 110.95 314.517 110.929C315.894 108.747 316.774 106.288 317.094 103.728C317.415 101.167 317.168 98.5679 316.372 96.1135ZM310.068 102.473C309.639 103.739 307.992 105.144 305.487 105.241C305.299 106.906 305.38 108.591 305.729 110.23C307.002 116.68 308.137 118.534 308.151 118.534C308.235 118.687 308.258 118.866 308.216 119.035C308.173 119.205 308.069 119.352 307.923 119.447C307.776 119.542 307.6 119.579 307.428 119.55C307.256 119.52 307.101 119.427 306.995 119.289C306.947 119.206 305.722 117.289 304.379 110.479C304.006 108.724 303.915 106.921 304.11 105.137C303.676 105.07 303.248 104.971 302.829 104.84C301.919 104.553 301.049 104.151 300.241 103.642C299.889 104.527 299.424 105.362 298.857 106.127C298.594 106.478 298.305 106.809 297.992 107.116C299.189 108.454 300.168 109.972 300.892 111.614C303.77 117.925 303.895 120.195 303.902 120.292C303.909 120.444 303.867 120.594 303.78 120.719C303.694 120.844 303.569 120.937 303.424 120.984C303.365 120.994 303.304 120.994 303.245 120.984C303.067 120.984 302.896 120.916 302.767 120.794C302.638 120.671 302.561 120.504 302.553 120.327C302.553 120.327 302.393 118.14 299.667 112.161C298.995 110.626 298.079 109.21 296.954 107.967C294.878 109.351 292.726 109.185 291.626 108.41C291.405 108.267 291.215 108.081 291.067 107.863C290.92 107.645 290.818 107.399 290.769 107.14C290.719 106.881 290.722 106.615 290.778 106.358C290.833 106.101 290.941 105.857 291.093 105.642C291.362 105.244 291.737 104.928 292.176 104.733C292.616 104.537 293.101 104.469 293.577 104.535C294.872 104.714 296.08 105.286 297.037 106.175C297.314 105.903 297.571 105.612 297.805 105.303C298.374 104.545 298.828 103.708 299.155 102.819C297.729 101.65 296.781 100.238 296.774 99.0338C296.794 98.6113 296.942 98.205 297.2 97.8692C297.457 97.5334 297.81 97.2841 298.213 97.1547C298.615 97.0253 299.048 97.0219 299.452 97.145C299.857 97.2681 300.214 97.5118 300.477 97.8435C301.169 98.8261 301.224 100.528 300.753 102.307C301.536 102.84 302.394 103.253 303.3 103.532C303.669 103.648 304.046 103.736 304.428 103.795C304.689 102.518 305.333 101.352 306.275 100.452C306.624 100.121 307.058 99.8938 307.529 99.796C307.999 99.6981 308.488 99.7337 308.94 99.8988C309.186 99.9888 309.412 100.128 309.604 100.308C309.795 100.488 309.948 100.704 310.054 100.945C310.159 101.185 310.215 101.445 310.217 101.708C310.219 101.97 310.169 102.231 310.068 102.473ZM308.386 101.172C308.164 101.097 307.924 101.087 307.696 101.143C307.468 101.2 307.261 101.32 307.099 101.49C306.438 102.124 305.976 102.937 305.77 103.829C307.48 103.67 308.538 102.736 308.774 102.023C308.816 101.943 308.84 101.855 308.843 101.764C308.846 101.674 308.828 101.584 308.79 101.502C308.753 101.419 308.697 101.347 308.627 101.29C308.557 101.232 308.474 101.192 308.386 101.172ZM298.574 98.4455C298.124 98.5909 298.089 98.8123 298.089 99.013C298.266 99.9255 298.755 100.748 299.473 101.338C299.729 100.438 299.655 99.4761 299.266 98.6255C299.182 98.4594 299.023 98.3002 298.574 98.4455ZM292.768 105.954C292.528 106.025 292.322 106.18 292.186 106.39C292.126 106.457 292.082 106.538 292.059 106.625C292.035 106.713 292.032 106.805 292.05 106.893C292.069 106.982 292.107 107.065 292.163 107.136C292.219 107.208 292.291 107.265 292.373 107.303C292.989 107.732 294.387 107.884 295.833 107.013C295.151 106.41 294.31 106.016 293.411 105.878C293.194 105.86 292.975 105.886 292.768 105.954Z" fill="#455A64"/>
<path d="M309.838 133.459C303.956 135.348 302.053 133.715 301.852 133.521C301.773 133.442 301.713 133.345 301.679 133.238L299.853 127.549C299.806 127.403 299.809 127.246 299.862 127.102C299.914 126.958 300.013 126.835 300.143 126.754C300.274 126.675 300.427 126.642 300.578 126.66C300.73 126.677 300.871 126.744 300.98 126.85C300.98 126.85 302.544 128.082 307.589 126.456C312.634 124.83 313.18 122.92 313.18 122.899C313.215 122.751 313.298 122.619 313.415 122.523C313.533 122.426 313.679 122.371 313.831 122.366C313.981 122.358 314.13 122.399 314.254 122.482C314.379 122.566 314.474 122.688 314.523 122.83L316.35 128.518C316.377 128.627 316.377 128.741 316.35 128.85C316.315 129.12 315.72 131.563 309.838 133.459Z" fill="#455A64"/>
<path d="M293.411 82.4267C293.237 82.4814 293.049 82.4656 292.888 82.3827C292.726 82.2998 292.603 82.1565 292.546 81.9839L290.788 76.5101C290.747 76.4213 290.726 76.3248 290.725 76.227C290.724 76.1293 290.744 76.0324 290.784 75.9429C290.823 75.8534 290.881 75.7732 290.953 75.7077C291.026 75.6422 291.112 75.5928 291.205 75.5627C291.298 75.5327 291.396 75.5227 291.493 75.5335C291.59 75.5442 291.684 75.5754 291.768 75.6251C291.853 75.6747 291.925 75.7416 291.982 75.8214C292.038 75.9012 292.077 75.9921 292.096 76.088L293.854 81.5617C293.908 81.7352 293.893 81.9232 293.81 82.0851C293.727 82.2469 293.584 82.3697 293.411 82.4267Z" fill="#455A64"/>
<path d="M304.311 82.0575C304.196 82.0924 304.074 82.0968 303.957 82.0703C303.84 82.0438 303.731 81.9873 303.643 81.9063C303.554 81.8254 303.488 81.7227 303.451 81.6085C303.414 81.4942 303.408 81.3723 303.432 81.2548L304.643 75.6357C304.699 75.4763 304.811 75.3428 304.958 75.2602C305.105 75.1777 305.278 75.1518 305.443 75.1875C305.608 75.2233 305.754 75.3181 305.854 75.4542C305.954 75.5903 306.001 75.7582 305.985 75.9264L304.774 81.5454C304.749 81.6639 304.692 81.7736 304.611 81.8634C304.53 81.9533 304.426 82.0202 304.311 82.0575Z" fill="#455A64"/>
<path d="M313.933 87.1928C313.815 87.233 313.689 87.2408 313.567 87.2152C313.445 87.1896 313.332 87.1317 313.241 87.0475C313.107 86.9246 313.028 86.7542 313.018 86.573C313.009 86.3918 313.072 86.2143 313.192 86.0787L317.054 81.809C317.111 81.731 317.184 81.6658 317.269 81.6179C317.353 81.5699 317.446 81.5402 317.543 81.5307C317.639 81.5212 317.737 81.532 317.829 81.5626C317.921 81.5931 318.005 81.6426 318.077 81.7079C318.149 81.7733 318.206 81.8529 318.245 81.9417C318.284 82.0305 318.304 82.1265 318.303 82.2235C318.302 82.3205 318.281 82.4162 318.241 82.5046C318.201 82.5929 318.143 82.6719 318.071 82.7363L314.21 86.999C314.135 87.0855 314.04 87.1521 313.933 87.1928Z" fill="#455A64"/>
<path d="M325.188 94.6581L319.707 96.4227C319.618 96.4645 319.521 96.4868 319.422 96.488C319.324 96.4893 319.226 96.4695 319.136 96.43C319.046 96.3905 318.965 96.3322 318.899 96.259C318.833 96.1858 318.784 96.0993 318.754 96.0055C318.724 95.9116 318.715 95.8124 318.726 95.7146C318.738 95.6168 318.77 95.5226 318.821 95.4383C318.872 95.354 318.941 95.2816 319.022 95.2258C319.103 95.17 319.195 95.1322 319.292 95.1149L324.766 93.3503C324.855 93.3095 324.951 93.2879 325.049 93.2871C325.147 93.2863 325.243 93.3062 325.333 93.3456C325.422 93.3849 325.503 93.4428 325.568 93.5153C325.634 93.5879 325.683 93.6735 325.713 93.7666C325.743 93.8596 325.753 93.958 325.742 94.0551C325.732 94.1523 325.7 94.2461 325.651 94.3304C325.601 94.4146 325.534 94.4874 325.454 94.5439C325.375 94.6004 325.284 94.6393 325.188 94.6581Z" fill="#455A64"/>
<path d="M325.708 108.528C325.593 108.563 325.47 108.563 325.355 108.528L319.708 107.338C319.531 107.298 319.376 107.19 319.278 107.037C319.179 106.884 319.145 106.699 319.182 106.521C319.222 106.344 319.33 106.189 319.483 106.091C319.635 105.992 319.821 105.958 319.999 105.995L325.625 107.206C325.768 107.243 325.896 107.325 325.99 107.439C326.083 107.554 326.137 107.696 326.144 107.844C326.151 107.992 326.111 108.138 326.028 108.261C325.946 108.384 325.826 108.478 325.687 108.528H325.708Z" fill="#455A64"/>
<path d="M284.349 88.4775C284.232 88.5178 284.105 88.5255 283.983 88.4999C283.862 88.4743 283.749 88.4164 283.657 88.3322L279.395 84.4708C279.261 84.3479 279.181 84.1775 279.172 83.9963C279.163 83.8151 279.226 83.6376 279.346 83.502C279.469 83.3665 279.641 83.2853 279.824 83.2762C280.007 83.2672 280.186 83.3309 280.322 83.4536L284.585 87.315C284.72 87.4381 284.801 87.6099 284.81 87.7928C284.82 87.9757 284.756 88.1547 284.633 88.2907C284.555 88.3756 284.458 88.4398 284.349 88.4775Z" fill="#455A64"/>
<path d="M279.521 98.2633C279.403 98.2951 279.279 98.2951 279.161 98.2633L273.542 97.0523C273.383 96.9967 273.249 96.8846 273.166 96.7373C273.084 96.59 273.058 96.4176 273.094 96.2526C273.13 96.0876 273.224 95.9413 273.36 95.8413C273.497 95.7414 273.664 95.6946 273.833 95.7099L279.452 96.9209C279.629 96.9606 279.784 97.0686 279.882 97.2214C279.98 97.3742 280.015 97.5595 279.978 97.7374C279.955 97.8576 279.9 97.9696 279.82 98.062C279.74 98.1544 279.637 98.2239 279.521 98.2633Z" fill="#455A64"/>
<path d="M280.216 109.134L274.721 110.892C274.555 110.924 274.383 110.895 274.237 110.809C274.091 110.723 273.981 110.586 273.929 110.425C273.877 110.264 273.886 110.089 273.954 109.934C274.023 109.779 274.145 109.655 274.299 109.584L279.773 107.819C279.943 107.777 280.123 107.801 280.277 107.886C280.43 107.972 280.545 108.112 280.599 108.279C280.652 108.446 280.641 108.628 280.566 108.786C280.491 108.945 280.358 109.069 280.195 109.134H280.216Z" fill="#455A64"/>
<path d="M282.404 122.484C282.286 122.525 282.159 122.532 282.038 122.507C281.916 122.481 281.803 122.423 281.712 122.339C281.578 122.216 281.498 122.046 281.489 121.865C281.48 121.683 281.543 121.506 281.663 121.37L285.524 117.108C285.651 116.992 285.816 116.928 285.988 116.928C286.159 116.927 286.325 116.99 286.452 117.105C286.58 117.22 286.66 117.377 286.678 117.548C286.696 117.719 286.65 117.89 286.549 118.028L282.687 122.291C282.61 122.378 282.513 122.445 282.404 122.484Z" fill="#455A64"/>
<path d="M320.4 61.167C318.753 61.859 318.324 63.1669 318.843 64.4332C319.362 65.6996 320.615 66.3708 322.255 65.6927C323.895 65.0145 324.296 63.6789 323.77 62.4126C323.244 61.1462 321.999 60.5027 320.4 61.167ZM314.172 44.6697C310.075 46.3513 308.131 49.6729 308.581 53.2228L313.632 52.5723C313.632 51.0845 314.117 50.0465 315.902 49.313C317.687 48.5795 318.801 49.313 319.21 50.3164C319.687 51.4721 319.002 52.7592 315.383 55.7625L317.39 60.6618L322.234 58.6619L321.092 55.9562C323.168 54.0671 325.244 51.2299 323.763 47.6522C322.414 44.3375 318.684 42.8013 314.13 44.6697H314.172Z" fill="#455A64"/>
<path d="M287.481 175.768C287.452 175.744 287.424 175.719 287.398 175.692L240.238 123.591C239.546 122.899 239.318 121.709 239.74 120.256C240.295 118.695 241.212 117.287 242.414 116.147C243.617 115.007 245.071 114.167 246.66 113.696C248.147 113.336 249.324 113.599 250.016 114.311L301.044 162.751L301.113 162.834C301.162 162.872 301.209 162.914 301.252 162.959C302.116 163.837 302.796 164.879 303.253 166.023C303.71 167.167 303.934 168.391 303.913 169.622C303.892 170.854 303.625 172.069 303.129 173.197C302.633 174.325 301.917 175.342 301.023 176.19C299.197 177.908 296.77 178.843 294.263 178.792C291.755 178.742 289.368 177.711 287.612 175.92C287.557 175.886 287.522 175.837 287.481 175.768Z" fill="#BA68C8"/>
<path opacity="0.25" d="M246.645 113.718C249.62 113.026 251.343 114.763 250.499 117.663C249.945 119.225 249.029 120.634 247.827 121.776C246.624 122.917 245.169 123.758 243.579 124.23C240.604 124.922 238.88 123.185 239.725 120.278C240.28 118.717 241.197 117.31 242.399 116.17C243.602 115.03 245.056 114.19 246.645 113.718Z" fill="black"/>
<path opacity="0.1" d="M295.042 165.109L249.156 120.281C249.752 119.483 250.208 118.589 250.505 117.638C250.927 116.192 250.72 115.036 250.021 114.316L301.035 162.756L301.104 162.839C301.154 162.877 301.2 162.919 301.243 162.964C302.107 163.842 302.787 164.884 303.244 166.028C303.701 167.172 303.925 168.396 303.904 169.627C303.883 170.859 303.616 172.074 303.12 173.202C302.624 174.33 301.908 175.347 301.014 176.195C302.606 173.642 299.575 169.496 295.042 165.109Z" fill="black"/>
<path d="M228.875 106.458C229.205 105.515 229.752 104.664 230.474 103.973C231.196 103.283 232.071 102.773 233.027 102.486C233.369 102.365 233.737 102.336 234.094 102.401C234.451 102.467 234.785 102.625 235.062 102.86L248.057 116.167C248.285 116.444 248.434 116.777 248.487 117.132C248.541 117.486 248.498 117.849 248.362 118.18C248.03 119.121 247.481 119.971 246.76 120.659C246.039 121.348 245.165 121.858 244.21 122.146C243.872 122.266 243.51 122.296 243.157 122.234C242.804 122.172 242.473 122.02 242.196 121.793L229.2 108.486C228.967 108.209 228.814 107.874 228.757 107.517C228.699 107.16 228.74 106.794 228.875 106.458Z" fill="#E0E0E0"/>
<path opacity="0.25" d="M242.195 110.172L237.351 105.225C235.824 107.577 234.221 109.824 232.542 111.965L237.296 116.809C239.031 114.687 240.664 112.474 242.195 110.172Z" fill="black"/>
<path d="M243.298 31.4025L229.527 23.4514C221.818 19.0088 211.168 19.6454 199.397 26.4339C175.869 40.0317 156.784 73.0748 156.784 100.257C156.784 113.847 161.552 123.39 169.24 127.847L182.983 135.777C186.357 137.687 190.178 138.667 194.055 138.614C199.778 138.614 206.241 136.746 213.085 132.794C236.613 119.203 255.698 86.1535 255.698 58.9787C255.754 45.4017 250.993 35.859 243.298 31.4025ZM223.665 89.662C216.199 102.589 206.365 113.01 195.985 118.996C190.546 122.131 185.266 123.84 180.678 123.902C178.457 119.958 177.267 114.636 177.267 108.187C177.267 96.2152 181.377 82.4998 188.844 69.5732C196.311 56.6467 206.144 46.2251 216.524 40.2393C221.963 37.0977 227.25 35.3953 231.838 35.3331C234.052 39.2844 235.243 44.6059 235.243 51.0484C235.277 63.02 231.125 76.7354 223.665 89.662Z" fill="#455A64"/>
<path opacity="0.1" d="M167.914 60.655L187.525 71.9692C187.961 71.1665 188.404 70.3638 188.868 69.568C191.163 65.5769 193.739 61.7543 196.577 58.1292L176.924 46.7874C173.558 51.1639 170.545 55.8011 167.914 60.655ZM187.29 35.4316C185.304 37.2516 183.387 39.1961 181.54 41.2444L201.296 52.6417C203.166 50.6312 205.144 48.7231 207.22 46.9258L187.29 35.4316Z" fill="white"/>
<path d="M182.956 135.742L169.268 127.846C161.552 123.39 156.812 113.847 156.812 100.256C156.812 99.7305 156.812 99.2115 156.812 98.6855L170.548 106.616C170.548 107.142 170.548 107.668 170.548 108.187C170.527 121.736 175.282 131.272 182.956 135.742Z" fill="#37474F"/>
<path d="M232.177 35.3242H231.817C234.032 39.2755 235.222 44.597 235.222 51.0395C235.222 63.0111 231.111 76.7266 223.645 89.6531C216.178 102.58 206.345 113.001 195.965 118.987C190.526 122.122 185.246 123.831 180.658 123.893C183.53 129.021 188.117 131.837 194.062 131.837C198.733 131.837 204.137 130.135 209.708 126.924C220.088 120.938 229.9 110.524 237.388 97.5904C244.875 84.6569 248.958 70.9484 248.958 58.9699C248.986 44.168 242.709 35.3242 232.177 35.3242Z" fill="#263238"/>
<path opacity="0.3" d="M242.591 55.3076C242.591 67.2792 238.48 81.0015 231.014 93.9281C223.547 106.855 213.714 117.276 203.334 123.255C197.763 126.473 192.352 128.175 187.688 128.175C186.271 128.182 184.859 128.005 183.487 127.649C182.388 126.534 181.445 125.275 180.685 123.906C178.463 119.961 177.273 114.64 177.273 108.19C177.273 96.2186 181.383 82.5032 188.85 69.5766C196.317 56.6501 206.15 46.2285 216.53 40.2427C221.969 37.1011 227.256 35.3987 231.844 35.3365H232.183C233.605 35.325 235.023 35.5042 236.397 35.8693C240.383 39.8483 242.591 46.533 242.591 55.3076Z" fill="white"/>
<path d="M213.131 34.378C189.603 47.962 170.518 81.0119 170.518 108.187C170.518 135.362 189.603 146.385 213.131 132.794C236.659 119.203 255.759 86.1604 255.759 58.9786C255.759 31.7969 236.659 20.7595 213.131 34.378ZM209.748 126.933C204.177 130.144 198.772 131.846 194.101 131.846C188.157 131.846 183.569 129.03 180.697 123.902C178.476 119.958 177.286 114.636 177.286 108.187C177.286 96.2152 181.396 82.4997 188.863 69.5732C196.33 56.6466 206.163 46.2251 216.543 40.2393C221.982 37.0976 227.269 35.3953 231.857 35.333H232.196C242.728 35.333 249.005 44.1768 249.005 58.9856C249.005 70.9641 244.901 84.6795 237.434 97.6061C229.968 110.533 220.128 120.947 209.754 126.933H209.748Z" fill="#37474F"/>
<path d="M180.861 70.0918C176.93 77.7525 174.02 85.8951 172.204 94.3118C171.325 98.5156 170.841 102.792 170.758 107.086C170.641 111.371 171.107 115.652 172.142 119.812C173.15 123.982 175.098 127.866 177.837 131.168C180.623 134.439 184.369 136.751 188.542 137.776C192.733 138.737 197.094 138.67 201.254 137.583C205.417 136.55 209.414 134.938 213.129 132.794C209.432 135.022 205.439 136.715 201.268 137.825C197.07 138.954 192.66 139.049 188.417 138.102C184.168 137.096 180.343 134.779 177.484 131.479C174.694 128.136 172.703 124.2 171.664 119.971C170.643 115.763 170.196 111.435 170.335 107.107C170.448 102.79 170.962 98.4922 171.872 94.2703C172.784 90.0572 173.998 85.9153 175.505 81.8766C177.046 77.842 178.835 73.9063 180.861 70.0918Z" fill="#455A64"/>
<path d="M232.176 35.3264C234.308 35.2914 236.424 35.6795 238.404 36.4682C240.391 37.3026 242.167 38.5697 243.601 40.1773C245.03 41.8044 246.172 43.6623 246.978 45.6718C247.8 47.6584 248.394 49.7314 248.75 51.8513C249.427 56.0824 249.55 60.3836 249.117 64.6464C248.706 68.9108 247.907 73.1287 246.729 77.2477C245.581 81.3632 244.112 85.3822 242.335 89.2678C240.578 93.1713 238.567 96.9554 236.315 100.596C231.855 107.932 226.349 114.579 219.97 120.325C216.743 123.172 213.23 125.677 209.486 127.798C205.731 129.978 201.615 131.464 197.334 132.186C195.161 132.524 192.946 132.498 190.781 132.11C187.492 131.47 184.514 129.739 182.332 127.196C181.614 126.366 180.976 125.469 180.429 124.518C179.349 122.625 178.534 120.592 178.007 118.477C177 114.287 176.636 109.968 176.927 105.668C177.178 101.393 177.843 97.1516 178.913 93.0046C179.983 88.8713 181.371 84.8271 183.065 80.9084C184.739 76.993 186.679 73.1966 188.871 69.5458C184.697 76.9534 181.562 84.9008 179.557 93.1637C178.567 97.2773 177.974 101.476 177.785 105.703C177.559 109.909 177.972 114.125 179.01 118.207C179.542 120.218 180.348 122.146 181.404 123.937C182.43 125.722 183.807 127.28 185.453 128.518C187.092 129.729 188.985 130.553 190.989 130.926C193.02 131.283 195.097 131.297 197.134 130.968C201.259 130.243 205.221 128.787 208.835 126.67C212.486 124.574 215.911 122.106 219.056 119.308C225.371 113.674 230.827 107.146 235.249 99.9315C239.743 92.757 243.263 85.0173 245.719 76.9156C246.935 72.8673 247.781 68.7166 248.245 64.5149C248.736 60.3158 248.68 56.0707 248.079 51.886C247.781 49.8 247.247 47.7546 246.487 45.7894C245.747 43.8185 244.682 41.9849 243.338 40.3641C241.962 38.785 240.257 37.5261 238.342 36.6758C236.396 35.8226 234.301 35.364 232.176 35.3264Z" fill="#455A64"/>
<path d="M66.2333 74.4808C66.0745 74.393 65.8957 74.3477 65.7143 74.3494L56.9189 73.7266V85.1169L61.7145 87.8849L71.1949 78.9719C71.3217 78.8633 71.4209 78.7261 71.4841 78.5717C71.5474 78.4172 71.573 78.2498 71.5588 78.0835C71.5446 77.9172 71.491 77.7566 71.4025 77.6151C71.3139 77.4735 71.193 77.3551 71.0496 77.2696L66.2333 74.4808Z" fill="#BA68C8"/>
<path opacity="0.2" d="M66.2333 74.4808C66.0745 74.393 65.8957 74.3477 65.7143 74.3494L56.9189 73.7266V85.1169L61.7145 87.8849L71.1949 78.9719C71.3217 78.8633 71.4209 78.7261 71.4841 78.5717C71.5474 78.4172 71.573 78.2498 71.5588 78.0835C71.5446 77.9172 71.491 77.7566 71.4025 77.6151C71.3139 77.4735 71.193 77.3551 71.0496 77.2696L66.2333 74.4808Z" fill="black"/>
<path d="M61.7119 76.4961L70.5072 77.1189C70.7221 77.118 70.9322 77.183 71.109 77.3051C71.2859 77.4272 71.4211 77.6005 71.4965 77.8018C71.5718 78.0031 71.5838 78.2226 71.5306 78.4308C71.4775 78.639 71.3618 78.826 71.1992 78.9665L61.7119 87.8864V76.4961Z" fill="#BA68C8"/>
<path d="M62.3337 59.5475C62.3009 58.8878 62.1111 58.2454 61.7801 57.6737C61.4491 57.102 60.9865 56.6175 60.4307 56.2605L58.8876 55.3609C58.2981 55.0608 57.646 54.9043 56.9846 54.9043C56.3231 54.9043 55.671 55.0608 55.0816 55.3609L23.1388 73.8304C22.5852 74.1914 22.1244 74.6778 21.7938 75.25C21.4632 75.8223 21.272 76.4644 21.2358 77.1243V116.748C21.272 117.408 21.4632 118.05 21.7938 118.623C22.1244 119.195 22.5852 119.681 23.1388 120.042L24.6889 120.935C25.2781 121.232 25.9287 121.386 26.5885 121.386C27.2482 121.386 27.8988 121.232 28.488 120.935L60.4307 102.465C60.9865 102.108 61.4491 101.624 61.7801 101.052C62.1111 100.481 62.3009 99.8382 62.3337 99.1784V59.5475Z" fill="#BA68C8"/>
<path opacity="0.2" d="M21.2384 116.747C21.2746 117.407 21.4658 118.049 21.7964 118.622C22.127 119.194 22.5878 119.68 23.1414 120.041L24.6915 120.934C25.2251 121.201 25.8091 121.353 26.4053 121.379C27.0015 121.405 27.5965 121.306 28.1515 121.086C27.2588 121.425 26.5738 120.92 26.5738 119.834V80.2097C26.5986 79.5472 26.7915 78.9018 27.1343 78.3344L21.7851 75.248C21.4406 75.8148 21.2476 76.4605 21.2246 77.1234L21.2384 116.747Z" fill="black"/>
<path opacity="0.25" d="M62.2788 59.0085C62.0573 58.2058 61.3238 57.9498 60.445 58.4549L28.4884 76.9244C27.9278 77.2606 27.4649 77.7378 27.146 78.3084L21.8037 75.2221C22.1223 74.6535 22.5823 74.1768 23.1393 73.8381L55.082 55.3617C55.6712 55.0648 56.3218 54.9102 56.9815 54.9102C57.6413 54.9102 58.2919 55.0648 58.8811 55.3617L60.4381 56.2544C60.9156 56.5647 61.325 56.9689 61.6414 57.4423C61.9578 57.9158 62.1747 58.4487 62.2788 59.0085Z" fill="white"/>
<path d="M43.0891 99.6454C41.4144 100.614 40.5633 102.649 40.5633 104.635C40.5633 106.621 41.4144 107.721 43.0891 106.752C44.7637 105.783 45.5941 103.728 45.5941 101.735C45.5941 99.7423 44.736 98.7182 43.0891 99.6454ZM43.532 73.7716C39.38 76.1797 36.4736 81.2383 35.5947 86.7743L40.238 85.9923C40.7709 83.6948 41.5598 82.1032 43.3866 81.0514C45.2135 79.9996 45.9124 81.176 45.9124 82.7606C45.9124 84.5737 44.8537 86.539 40.6186 91.0231V98.7182L45.5941 95.8464V91.6182C48.0646 88.788 50.8879 84.4837 50.8879 78.9131C50.8879 73.6609 48.1822 71.1074 43.532 73.7923V73.7716Z" fill="white"/>
</svg>
