<svg width="106" height="100" viewBox="0 0 106 100" fill="none" xmlns="http://www.w3.org/2000/svg">
<path fill-rule="evenodd" clip-rule="evenodd" d="M6.79092 0H99.2091C103.019 0 106 2.98512 106 6.79955V74.7931C106 78.6075 103.019 81.5926 99.2091 81.5926H68.734V87.3965H69.2311C72.7089 87.3965 75.5249 90.2161 75.5249 93.6983C75.5249 97.1804 72.7089 100 69.2311 100H36.7689C33.2911 100 30.4751 97.1804 30.4751 93.6983C30.4751 90.2161 33.2911 87.3965 36.7689 87.3965H37.266V81.5926H6.79092C2.98134 81.5926 0 78.6075 0 74.7931V6.79955C0 2.98512 2.98134 0 6.79092 0ZM69.2319 96.6824C70.888 96.6824 72.2132 95.3556 72.2132 93.6973C72.2132 92.0391 70.8881 90.7122 69.2319 90.7122H36.7696C35.1135 90.7122 33.7883 92.0391 33.7883 93.6973C33.7883 95.3555 35.1134 96.6824 36.7696 96.6824H69.2319ZM40.5788 87.3956H65.2583V81.5916H40.5788V87.3956ZM99.2108 78.2742C101.198 78.2742 102.689 76.7826 102.689 74.7921L102.687 6.79857C102.687 4.80825 101.197 3.31565 99.2081 3.31641H6.78917C4.80213 3.31641 3.31143 4.8081 3.31143 6.79857V74.7921C3.31143 76.616 4.802 78.2742 6.78995 78.2742H99.2108ZM8.11321 6.46756H97.8832L97.8829 6.4668C98.8772 6.4668 99.5398 7.13025 99.7053 8.12584V67.9925C99.7053 68.9873 99.0427 69.6508 98.0491 69.6508H8.11321C7.11965 69.6508 6.45703 68.9873 6.45703 67.9925V8.12584C6.45703 7.13102 7.11967 6.46756 8.11321 6.46756ZM9.76963 66.3342H96.227H96.393V9.78436H9.76963V66.3342ZM55.9804 71.9736H50.0175C49.024 71.9736 48.3613 72.6371 48.3613 73.6319C48.3613 74.6267 49.0239 75.2902 50.0175 75.2902H55.9804C56.9739 75.2902 57.6366 74.6267 57.6366 73.6319C57.6366 72.6371 56.8085 71.9736 55.9804 71.9736ZM29.7773 55.9572C29.5314 56.0023 29.258 56.0525 28.9844 56.0525L28.9845 56.0522C26.3348 56.0522 24.3469 53.8962 24.3477 51.2432C24.3477 48.5901 26.5009 46.4341 29.1506 46.4341C31.8003 46.4341 33.9536 48.5901 33.9536 51.2432C33.9536 52.2381 33.7881 53.0672 33.291 53.7307L41.9035 58.7055L51.3441 53.2328V42.2876L41.9035 36.815L31.6349 42.7854C30.8068 43.1167 29.8132 42.9511 29.3161 42.1219C28.9851 41.2928 29.1506 40.298 29.9787 39.8002L40.9101 33.4984C41.4064 33.0014 42.0691 33.0014 42.7317 33.3328L53.0003 39.3024L62.4409 33.6641V22.7188L55.4845 18.7388C54.6564 19.568 53.332 20.2314 52.0068 20.2314C49.3571 20.2314 47.2038 18.0754 47.2038 15.4224C47.2038 12.7693 49.3571 10.6133 52.0068 10.6133C54.6565 10.6133 56.8097 12.7693 56.8097 15.4224V15.7537L64.9251 20.3972C65.4223 20.7293 65.7532 21.2264 65.7532 21.8898V33.8299L76.0219 39.8004C76.519 40.1325 76.8499 40.6295 76.8499 41.293V52.9018C78.6716 53.7309 79.9968 55.3893 79.9968 57.5453C79.9968 60.1984 77.8435 62.3544 75.1938 62.3544C72.5442 62.3544 70.3909 60.1984 70.3909 57.5453C70.3909 55.3893 71.7161 53.5653 73.5377 52.9018V42.2878L64.0971 36.8152L54.6565 42.2878V53.2331L64.7598 59.0378C65.5879 59.5356 65.9196 60.5304 65.4225 61.3596C64.9253 62.1887 63.9317 62.5208 63.1036 62.023L52.835 56.0526L42.5663 62.023C42.0692 62.3544 41.4073 62.3544 40.9101 62.023L30.3096 55.8868C30.1605 55.8868 29.9781 55.9203 29.7773 55.9572ZM73.7041 57.545C73.7041 58.3742 74.3667 59.0376 75.1948 59.0376C76.0229 59.0376 76.6855 58.3742 76.6855 57.545C76.6855 56.7159 76.0229 56.0524 75.1948 56.0524C74.3667 56.0524 73.7041 56.7159 73.7041 57.545ZM50.5159 15.5875C50.5159 16.4167 51.1786 17.0801 52.0066 17.0801C52.8347 17.0801 53.4973 16.4167 53.4973 15.5875C53.4973 14.7584 52.8347 14.0949 52.0066 14.0949C51.1786 14.0949 50.5159 14.7584 50.5159 15.5875ZM30.4751 51.0763C30.4751 50.2471 29.8125 49.5837 28.9844 49.5837C28.1563 49.5837 27.4937 50.2464 27.4937 51.0763C27.4937 51.9054 28.1563 52.5689 28.9844 52.5689C29.8125 52.5689 30.4751 51.9054 30.4751 51.0763Z" fill="url(#paint0_linear_913_12143)"/>
<defs>
<linearGradient id="paint0_linear_913_12143" x1="53" y1="0" x2="53" y2="100" gradientUnits="userSpaceOnUse">
<stop stop-color="#7C38BD"/>
<stop offset="0.515625" stop-color="#BD6DF2"/>
<stop offset="0.930606" stop-color="#799DCB"/>
</linearGradient>
</defs>
</svg>
