<svg width="91" height="102" viewBox="0 0 91 102" fill="none" xmlns="http://www.w3.org/2000/svg">
<path fill-rule="evenodd" clip-rule="evenodd" d="M8.55552 1H58.3501C62.509 1 65.9056 4.40214 65.9056 8.56744V93.4325C65.9056 97.598 62.5249 101 58.3501 101H8.55552C4.39659 101 1 97.614 1 93.4325V8.56744C1 4.40195 4.38069 1 8.55552 1ZM63.2066 16.1032H3.68214V80.0781H63.2066V16.1032ZM58.3503 3.70211H8.55683C5.87413 3.70211 3.68326 5.88032 3.68326 8.56726V13.4002H63.2077V8.56726C63.2077 5.88032 61.033 3.70211 58.3503 3.70211ZM8.55571 98.2975H58.3491C61.0318 98.2975 63.2066 96.1193 63.2227 93.4324V82.7806H3.69823V93.4324C3.69823 96.1193 5.87301 98.2975 8.55571 98.2975ZM38.1431 9.80675H26.9681C26.222 9.80675 25.6191 9.20292 25.6191 8.45562C25.6191 7.70834 26.222 7.10449 26.9681 7.10449H38.1431C38.8892 7.10449 39.4921 7.70832 39.4921 8.45562C39.4921 9.2029 38.8892 9.80675 38.1431 9.80675ZM90 18.6464C90 16.0232 87.8727 13.8926 85.2537 13.8926H75.4124C72.7933 13.8926 70.6661 16.0232 70.6661 18.6464V27.8995C70.6661 27.9061 70.6688 27.9127 70.672 27.9203L70.672 27.9204C70.6766 27.9312 70.6821 27.9443 70.6821 27.9632V84.9115C70.6821 84.9196 70.6861 84.9274 70.6902 84.9353C70.6942 84.9432 70.6982 84.951 70.6982 84.9591C70.6982 85.1018 70.7296 85.2453 70.7779 85.3726C70.7834 85.3834 70.787 85.3942 70.79 85.4051C70.7915 85.4105 70.7928 85.4159 70.7941 85.4213C70.798 85.4369 70.8018 85.4524 70.8093 85.4678C70.8126 85.4742 70.8152 85.48 70.8174 85.4855C70.8208 85.4939 70.8233 85.5014 70.8258 85.509C70.8296 85.5205 70.8334 85.5322 70.8407 85.5476L77.5871 98.1711C78.1272 99.1724 79.1744 99.8084 80.3012 99.8084C81.4442 99.8084 82.476 99.1885 83.0154 98.1865L89.8093 85.5629C89.8254 85.5468 89.8254 85.5315 89.8254 85.4993C89.8505 85.4612 89.8658 85.4128 89.8792 85.3706L89.8831 85.3583L89.8889 85.3404C89.9203 85.2453 89.9364 85.1342 89.9525 85.023L89.9525 85.0228C89.9525 85.007 89.9566 84.9871 89.9606 84.9671C89.9646 84.9472 89.9686 84.9273 89.9686 84.9115V27.9482C89.9686 27.9415 89.9714 27.935 89.9746 27.9274L89.9746 27.9273C89.9792 27.9165 89.9847 27.9034 89.9847 27.8845V18.6476L90 18.6464ZM73.3647 83.5432V29.2499H78.9835V83.5432H73.3647ZM87.2859 83.5432H81.667V29.2499H87.2859V83.5432ZM73.3493 18.6464C73.3493 17.5178 74.2701 16.5956 75.3969 16.5956H85.2381C86.365 16.5956 87.2857 17.5179 87.2857 18.6464V26.5476H73.333V18.6464H73.3493ZM80.6504 96.8823C80.5554 97.0572 80.4122 97.0887 80.3011 97.0887C80.19 97.0887 80.0468 97.0572 79.9518 96.8823L74.2693 86.2466H86.365L80.6504 96.8823ZM56.842 20.3008H10.0482C9.30209 20.3008 8.69922 20.9046 8.69922 21.6519V39.2834C8.69922 40.0307 9.30211 40.6345 10.0482 40.6345H56.842C57.5882 40.6345 58.191 40.0306 58.191 39.2834V21.6527C58.191 20.9054 57.5882 20.3008 56.842 20.3008ZM29.6185 30.4761L11.3959 37.3283V23.6083L29.6185 30.4761ZM17.4591 23.0038H49.4121L33.4279 29.029L17.4591 23.0038ZM33.444 31.9232L49.4281 37.9483H17.4584L33.444 31.9232ZM37.2849 30.4761L55.5074 23.6078V37.3278L37.2849 30.4761ZM28.7616 45.6729H10.0463C9.30014 45.6729 8.69727 46.2767 8.69727 47.024V61.1261C8.69727 61.8734 9.30016 62.4772 10.0463 62.4772H28.7616C29.5077 62.4772 30.1106 61.8734 30.1106 61.1261V47.0247C30.1106 46.2774 29.5077 45.6729 28.7616 45.6729ZM27.4125 59.7749H11.3962V48.3759H27.4125V59.7749ZM38.1263 45.6729H56.8416L56.8424 45.6729C57.5885 45.6729 58.1914 46.2774 58.1914 47.0247L58.1906 61.1261C58.1906 61.8734 57.5878 62.4772 56.8416 62.4772H38.1263C37.3802 62.4772 36.7773 61.8734 36.7773 61.1261V47.024C36.7773 46.2767 37.3802 45.6729 38.1263 45.6729ZM39.4763 59.7749H55.4919V48.3759H39.4763V59.7749ZM28.7616 67.5195H10.0463C9.30014 67.5195 8.69727 68.1234 8.69727 68.8707C8.69727 69.618 9.30016 70.2218 10.0463 70.2218H28.7616C29.5077 70.2218 30.1106 69.6179 30.1106 68.8707C30.1106 68.1241 29.5077 67.5195 28.7616 67.5195ZM10.0463 72.9873H21.4595C22.2056 72.9873 22.8085 73.5919 22.8085 74.3384C22.8085 75.0857 22.2056 75.6896 21.4595 75.6896H10.0463C9.30016 75.6896 8.69727 75.0857 8.69727 74.3384C8.69727 73.5912 9.30014 72.9873 10.0463 72.9873ZM56.8416 67.5195H38.1263C37.3802 67.5195 36.7773 68.1234 36.7773 68.8707C36.7773 69.618 37.3802 70.2218 38.1263 70.2218H56.8416C57.5878 70.2218 58.1906 69.6179 58.1906 68.8707C58.1914 68.1241 57.5885 67.5195 56.8424 67.5195H56.8416ZM38.142 72.9873H49.5552C50.3013 72.9873 50.9042 73.5919 50.9042 74.3384C50.9042 75.0857 50.3013 75.6896 49.5552 75.6896H38.142C37.3959 75.6896 36.793 75.0857 36.793 74.3384C36.793 73.5912 37.3958 72.9873 38.142 72.9873ZM33.4441 86.1035C30.9998 86.1035 29.0156 88.0906 29.0156 90.539C29.0156 92.9874 30.9996 94.9745 33.4441 94.9745C35.8885 94.9745 37.8726 92.9874 37.8726 90.539C37.8887 88.0915 35.8887 86.1035 33.4441 86.1035ZM33.4441 92.2722C32.4919 92.2722 31.7137 91.4935 31.7137 90.539C31.7137 89.5853 32.4912 88.8058 33.4441 88.8058C34.3963 88.8058 35.1746 89.5846 35.1746 90.539C35.19 91.4935 34.3963 92.2722 33.4441 92.2722Z" fill="url(#paint0_linear_913_12110)"/>
<path d="M3.68214 16.1032V15.6032H3.18214V16.1032H3.68214ZM63.2066 16.1032H63.7066V15.6032H63.2066V16.1032ZM3.68214 80.0781H3.18214V80.5781H3.68214V80.0781ZM63.2066 80.0781V80.5781H63.7066V80.0781H63.2066ZM3.68326 13.4002H3.18326V13.9002H3.68326V13.4002ZM63.2077 13.4002V13.9002H63.7077V13.4002H63.2077ZM63.2227 93.4324L63.7227 93.4354V93.4324H63.2227ZM63.2227 82.7806H63.7227V82.2806H63.2227V82.7806ZM3.69823 82.7806V82.2806H3.19823V82.7806H3.69823ZM90 18.6464L90.0369 19.1451L90.5 19.1108V18.6464H90ZM70.672 27.9203L71.1419 27.7494L71.1376 27.7377L71.1328 27.7261L70.672 27.9203ZM70.672 27.9204L70.2021 28.0912L70.2064 28.103L70.2113 28.1145L70.672 27.9204ZM70.6902 84.9353L71.1356 84.7081L71.1354 84.7077L70.6902 84.9353ZM70.7779 85.3726L70.3103 85.5497L70.3201 85.5756L70.3327 85.6003L70.7779 85.3726ZM70.79 85.4051L70.3079 85.5378L70.308 85.538L70.79 85.4051ZM70.7941 85.4213L70.3086 85.5406L70.3087 85.541L70.7941 85.4213ZM70.8093 85.4678L70.3598 85.687L70.3641 85.6954L70.8093 85.4678ZM70.8174 85.4855L70.3543 85.6741L70.3544 85.6742L70.8174 85.4855ZM70.8258 85.509L71.301 85.3536L71.301 85.3533L70.8258 85.509ZM70.8407 85.5476L70.3893 85.7625L70.3943 85.773L70.3997 85.7832L70.8407 85.5476ZM77.5871 98.1711L77.1461 98.4068L77.147 98.4084L77.5871 98.1711ZM83.0154 98.1865L83.4556 98.4235L83.4557 98.4234L83.0154 98.1865ZM89.8093 85.5629L89.4556 85.2095L89.4038 85.2614L89.369 85.326L89.8093 85.5629ZM89.8254 85.4993L89.4082 85.2237L89.3254 85.3491V85.4993H89.8254ZM89.8792 85.3706L89.4026 85.2192L89.4025 85.2198L89.8792 85.3706ZM89.8831 85.3583L89.4079 85.2027L89.4066 85.2069L89.8831 85.3583ZM89.8889 85.3404L89.4142 85.1836L89.4138 85.1849L89.8889 85.3404ZM89.9525 85.023L90.4474 85.0945L90.4485 85.0864L90.4494 85.0782L89.9525 85.023ZM89.9525 85.0228L90.4495 85.078L90.4525 85.0505V85.0228H89.9525ZM89.9606 84.9671L90.4507 85.066L90.4507 85.0658L89.9606 84.9671ZM89.9746 27.9274L90.4353 28.1215L90.4402 28.11L90.4445 28.0982L89.9746 27.9274ZM89.9746 27.9273L89.5139 27.7331L89.509 27.7446L89.5047 27.7564L89.9746 27.9273ZM89.9847 18.6476L89.9478 18.1489L89.4847 18.1832V18.6476H89.9847ZM73.3647 29.2499V28.7499H72.8647V29.2499H73.3647ZM73.3647 83.5432H72.8647V84.0432H73.3647V83.5432ZM78.9835 29.2499H79.4835V28.7499H78.9835V29.2499ZM78.9835 83.5432V84.0432H79.4835V83.5432H78.9835ZM81.667 83.5432H81.167V84.0432H81.667V83.5432ZM87.2859 83.5432V84.0432H87.7859V83.5432H87.2859ZM81.667 29.2499V28.7499H81.167V29.2499H81.667ZM87.2859 29.2499H87.7859V28.7499H87.2859V29.2499ZM73.3493 18.6464V19.1464H73.8493V18.6464H73.3493ZM87.2857 26.5476V27.0476H87.7857V26.5476H87.2857ZM73.333 26.5476H72.833V27.0476H73.333V26.5476ZM73.333 18.6464V18.1464H72.833V18.6464H73.333ZM80.6504 96.8823L81.0898 97.1209L81.0909 97.1189L80.6504 96.8823ZM79.9518 96.8823L79.5108 97.1179L79.5124 97.1209L79.9518 96.8823ZM74.2693 86.2466V85.7466H73.4353L73.8283 86.4822L74.2693 86.2466ZM86.365 86.2466L86.8055 86.4832L87.2013 85.7466H86.365V86.2466ZM11.3959 37.3283H10.8959V38.0505L11.5719 37.7963L11.3959 37.3283ZM29.6185 30.4761L29.7944 30.9441L31.0376 30.4766L29.7948 30.0082L29.6185 30.4761ZM11.3959 23.6083L11.5723 23.1404L10.8959 22.8855V23.6083H11.3959ZM49.4121 23.0038L49.5884 23.4717L49.4121 22.5038V23.0038ZM17.4591 23.0038V22.5038L17.2826 23.4716L17.4591 23.0038ZM33.4279 29.029L33.2514 29.4968L33.4278 29.5634L33.6043 29.4969L33.4279 29.029ZM49.4281 37.9483V38.4483L49.6045 37.4805L49.4281 37.9483ZM33.444 31.9232L33.6204 31.4553L33.444 31.3888L33.2677 31.4553L33.444 31.9232ZM17.4584 37.9483L17.282 37.4805L17.4584 38.4483V37.9483ZM55.5074 23.6078H56.0074V22.885L55.3311 23.1399L55.5074 23.6078ZM37.2849 30.4761L37.1086 30.0083L35.8657 30.4767L37.1089 30.9442L37.2849 30.4761ZM55.5074 37.3278L55.3315 37.7958L56.0074 38.05V37.3278H55.5074ZM11.3962 59.7749H10.8962V60.2749H11.3962V59.7749ZM27.4125 59.7749V60.2749H27.9125V59.7749H27.4125ZM11.3962 48.3759V47.8759H10.8962V48.3759H11.3962ZM27.4125 48.3759H27.9125V47.8759H27.4125V48.3759ZM56.8416 45.6729L56.8521 45.1729H56.8416V45.6729ZM56.8424 45.6729L56.8319 46.1729H56.8424V45.6729ZM58.1914 47.0247L58.6914 47.0248V47.0247H58.1914ZM58.1906 61.1261L57.6906 61.126V61.1261H58.1906ZM55.4919 59.7749V60.2749H55.9919V59.7749H55.4919ZM39.4763 59.7749H38.9763V60.2749H39.4763V59.7749ZM55.4919 48.3759H55.9919V47.8759H55.4919V48.3759ZM39.4763 48.3759V47.8759H38.9763V48.3759H39.4763ZM58.1906 68.8707L57.6906 68.8702V68.8707H58.1906ZM37.8726 90.539L37.3726 90.5357V90.539H37.8726ZM35.1746 90.539H34.6745L34.6747 90.5471L35.1746 90.539ZM58.3501 0.5H8.55552V1.5H58.3501V0.5ZM66.4056 8.56744C66.4056 4.12675 62.7859 0.5 58.3501 0.5V1.5C62.2321 1.5 65.4056 4.67753 65.4056 8.56744H66.4056ZM66.4056 93.4325V8.56744H65.4056V93.4325H66.4056ZM58.3501 101.5C62.8025 101.5 66.4056 97.8728 66.4056 93.4325H65.4056C65.4056 97.3233 62.2473 100.5 58.3501 100.5V101.5ZM8.55552 101.5H58.3501V100.5H8.55552V101.5ZM0.5 93.4325C0.5 97.8901 4.12039 101.5 8.55552 101.5V100.5C4.67279 100.5 1.5 97.3379 1.5 93.4325H0.5ZM0.5 8.56744V93.4325H1.5V8.56744H0.5ZM8.55552 0.5C4.10312 0.5 0.5 4.12724 0.5 8.56744H1.5C1.5 4.67666 4.65826 1.5 8.55552 1.5V0.5ZM3.68214 16.6032H63.2066V15.6032H3.68214V16.6032ZM4.18214 80.0781V16.1032H3.18214V80.0781H4.18214ZM63.2066 79.5781H3.68214V80.5781H63.2066V79.5781ZM62.7066 16.1032V80.0781H63.7066V16.1032H62.7066ZM8.55683 4.20211H58.3503V3.20211H8.55683V4.20211ZM4.18326 8.56726C4.18326 6.15787 6.14886 4.20211 8.55683 4.20211V3.20211C5.5994 3.20211 3.18326 5.60277 3.18326 8.56726H4.18326ZM4.18326 13.4002V8.56726H3.18326V13.4002H4.18326ZM63.2077 12.9002H3.68326V13.9002H63.2077V12.9002ZM62.7077 8.56726V13.4002H63.7077V8.56726H62.7077ZM58.3503 4.20211C60.7561 4.20211 62.7077 6.15572 62.7077 8.56726H63.7077C63.7077 5.60492 61.3098 3.20211 58.3503 3.20211V4.20211ZM58.3491 97.7975H8.55571V98.7975H58.3491V97.7975ZM62.7227 93.4294C62.7083 95.8438 60.7544 97.7975 58.3491 97.7975V98.7975C61.3093 98.7975 63.705 96.3948 63.7227 93.4354L62.7227 93.4294ZM62.7227 82.7806V93.4324H63.7227V82.7806H62.7227ZM3.69823 83.2806H63.2227V82.2806H3.69823V83.2806ZM4.19823 93.4324V82.7806H3.19823V93.4324H4.19823ZM8.55571 97.7975C6.14989 97.7975 4.19823 95.8439 4.19823 93.4324H3.19823C3.19823 96.3947 5.59612 98.7975 8.55571 98.7975V97.7975ZM26.9681 10.3068H38.1431V9.30675H26.9681V10.3068ZM25.1191 8.45562C25.1191 9.47832 25.9452 10.3068 26.9681 10.3068V9.30675C26.4989 9.30675 26.1191 8.92752 26.1191 8.45562H25.1191ZM26.9681 6.60449C25.9451 6.60449 25.1191 7.43295 25.1191 8.45562H26.1191C26.1191 7.98373 26.4989 7.60449 26.9681 7.60449V6.60449ZM38.1431 6.60449H26.9681V7.60449H38.1431V6.60449ZM39.9921 8.45562C39.9921 7.43292 39.166 6.60449 38.1431 6.60449V7.60449C38.6123 7.60449 38.9921 7.98373 38.9921 8.45562H39.9921ZM38.1431 10.3068C39.1661 10.3068 39.9921 9.4783 39.9921 8.45562H38.9921C38.9921 8.92751 38.6123 9.30675 38.1431 9.30675V10.3068ZM85.2537 14.3926C87.5959 14.3926 89.5 16.2986 89.5 18.6464H90.5C90.5 15.7478 88.1496 13.3926 85.2537 13.3926V14.3926ZM75.4124 14.3926H85.2537V13.3926H75.4124V14.3926ZM71.1661 18.6464C71.1661 16.2986 73.0702 14.3926 75.4124 14.3926V13.3926C72.5164 13.3926 70.1661 15.7478 70.1661 18.6464H71.1661ZM71.1661 27.8995V18.6464H70.1661V27.8995H71.1661ZM71.1328 27.7261C71.1291 27.7175 71.1372 27.7356 71.1442 27.7577C71.1524 27.7835 71.1661 27.8339 71.1661 27.8995H70.1661C70.1661 27.9717 70.181 28.0287 70.1914 28.0613C70.1967 28.0778 70.2018 28.0911 70.205 28.0992C70.208 28.1067 70.2109 28.1135 70.2113 28.1145L71.1328 27.7261ZM71.1419 27.7495L71.1419 27.7494L70.2021 28.0912L70.2021 28.0912L71.1419 27.7495ZM71.1821 27.9632C71.1821 27.837 71.1406 27.7447 71.1328 27.7262L70.2113 28.1145C70.2143 28.1217 70.2049 28.1007 70.1972 28.0732C70.1885 28.0419 70.1821 28.0045 70.1821 27.9632H71.1821ZM71.1821 84.9115V27.9632H70.1821V84.9115H71.1821ZM71.1354 84.7077C71.131 84.6991 71.142 84.7196 71.1519 84.7455C71.1627 84.774 71.1821 84.8331 71.1821 84.9115H70.1821C70.1821 84.9979 70.2035 85.0651 70.2174 85.1015C70.2246 85.1205 70.2317 85.1357 70.2362 85.1452C70.2404 85.1541 70.2445 85.1619 70.245 85.1629L71.1354 84.7077ZM71.1982 84.9591C71.1982 84.8727 71.1768 84.8056 71.163 84.7692C71.1557 84.7503 71.1488 84.7351 71.1443 84.7257C71.14 84.7168 71.136 84.709 71.1356 84.7081L70.2448 85.1625C70.2493 85.1714 70.2382 85.1508 70.2284 85.125C70.2176 85.0966 70.1982 85.0375 70.1982 84.9591H71.1982ZM71.2455 85.1955C71.2147 85.1143 71.1982 85.031 71.1982 84.9591H70.1982C70.1982 85.1726 70.2446 85.3763 70.3103 85.5497L71.2455 85.1955ZM71.272 85.2724C71.2645 85.2448 71.2501 85.198 71.223 85.145L70.3327 85.6003C70.3166 85.5688 70.3095 85.5436 70.3079 85.5378L71.272 85.2724ZM71.2797 85.302C71.2786 85.2977 71.2756 85.2855 71.272 85.2722L70.308 85.538C70.3075 85.5363 70.3073 85.5354 70.3074 85.5359C70.3076 85.5367 70.3078 85.5376 70.3086 85.5406L71.2797 85.302ZM71.2587 85.2486C71.2694 85.2705 71.2754 85.2884 71.2784 85.2981C71.2807 85.3058 71.282 85.3114 71.2796 85.3015L70.3087 85.541C70.311 85.5503 70.3256 85.6167 70.3599 85.687L71.2587 85.2486ZM71.2805 85.2969C71.2731 85.2787 71.2645 85.2598 71.2545 85.2402L70.3641 85.6954C70.3606 85.6886 70.3573 85.6814 70.3543 85.6741L71.2805 85.2969ZM71.301 85.3533C71.2988 85.3468 71.2914 85.3236 71.2804 85.2967L70.3544 85.6742C70.3522 85.6688 70.3507 85.6646 70.3499 85.6624C70.3494 85.661 70.3492 85.6602 70.3507 85.6647L71.301 85.3533ZM71.2921 85.3326C71.2954 85.3394 71.2982 85.3462 71.3004 85.3521C71.3021 85.3567 71.3032 85.3601 71.301 85.3536L70.3506 85.6645C70.3553 85.6787 70.3673 85.7163 70.3893 85.7625L71.2921 85.3326ZM78.0281 97.9354L71.2817 85.3119L70.3997 85.7832L77.1461 98.4068L78.0281 97.9354ZM80.3012 99.3084C79.3625 99.3084 78.482 98.7771 78.0272 97.9337L77.147 98.4084C77.7723 99.5677 78.9862 100.308 80.3012 100.308V99.3084ZM82.5751 97.9495C82.1227 98.79 81.2596 99.3084 80.3012 99.3084V100.308C81.6288 100.308 82.8294 99.5869 83.4556 98.4235L82.5751 97.9495ZM89.369 85.326L82.5751 97.9495L83.4557 98.4234L90.2496 85.7999L89.369 85.326ZM89.3254 85.4993C89.3254 85.5102 89.3253 85.5063 89.3255 85.5004C89.3258 85.4935 89.3269 85.4694 89.3334 85.4375C89.3405 85.4025 89.3538 85.3594 89.3782 85.314C89.4024 85.269 89.4307 85.2345 89.4556 85.2095L90.163 85.9163C90.2402 85.8391 90.2917 85.743 90.3133 85.6368C90.3218 85.595 90.324 85.56 90.3247 85.5407C90.3255 85.5223 90.3254 85.5044 90.3254 85.4993H89.3254ZM89.4025 85.2198C89.399 85.2309 89.3967 85.2379 89.3946 85.2444C89.3925 85.2505 89.3914 85.2535 89.3909 85.2547C89.3905 85.2558 89.3914 85.2534 89.3937 85.2487C89.396 85.2439 89.4006 85.2351 89.4082 85.2237L90.2426 85.7748C90.3132 85.6679 90.3472 85.5488 90.3559 85.5214L89.4025 85.2198ZM89.4066 85.2069L89.4026 85.2192L90.3557 85.522L90.3596 85.5097L89.4066 85.2069ZM89.4138 85.1849L89.4079 85.2028L90.3583 85.5139L90.3641 85.496L89.4138 85.1849ZM89.4577 84.9514C89.44 85.0737 89.4291 85.1384 89.4142 85.1836L90.3637 85.4972C90.4116 85.3523 90.4329 85.1946 90.4474 85.0945L89.4577 84.9514ZM89.4556 84.9676L89.4556 84.9678L90.4494 85.0782L90.4495 85.078L89.4556 84.9676ZM89.4704 84.8683C89.4699 84.8708 89.4525 84.9461 89.4525 85.0228H90.4525C90.4525 85.0395 90.4515 85.0524 90.4507 85.06C90.45 85.0679 90.4491 85.0733 90.4488 85.0753C90.4485 85.0775 90.4483 85.078 90.4487 85.0761C90.4491 85.074 90.4496 85.0714 90.4507 85.066L89.4704 84.8683ZM89.4686 84.9115C89.4686 84.8948 89.4696 84.8819 89.4704 84.8743C89.4712 84.8665 89.472 84.861 89.4723 84.859C89.4727 84.8569 89.4728 84.8563 89.4724 84.8583C89.472 84.8605 89.4715 84.8631 89.4704 84.8685L90.4507 85.0658C90.4512 85.0635 90.4686 84.9882 90.4686 84.9115H89.4686ZM89.4686 27.9482V84.9115H90.4686V27.9482H89.4686ZM89.5138 27.7332C89.5134 27.7341 89.5105 27.7409 89.5075 27.7485C89.5043 27.7565 89.4992 27.7698 89.494 27.7863C89.4836 27.8189 89.4686 27.8759 89.4686 27.9482H90.4686C90.4686 28.0138 90.455 28.0642 90.4468 28.0899C90.4397 28.1121 90.4317 28.1302 90.4353 28.1215L89.5138 27.7332ZM89.5047 27.7564L89.5047 27.7565L90.4445 28.0982L90.4445 28.0982L89.5047 27.7564ZM89.4847 27.8845C89.4847 27.8431 89.491 27.8058 89.4998 27.7744C89.5074 27.747 89.5169 27.7259 89.5139 27.7331L90.4353 28.1215C90.4431 28.103 90.4847 28.0106 90.4847 27.8845H89.4847ZM89.4847 18.6476V27.8845H90.4847V18.6476H89.4847ZM89.9631 18.1478L89.9478 18.1489L90.0216 19.1462L90.0369 19.1451L89.9631 18.1478ZM72.8647 29.2499V83.5432H73.8647V29.2499H72.8647ZM78.9835 28.7499H73.3647V29.7499H78.9835V28.7499ZM79.4835 83.5432V29.2499H78.4835V83.5432H79.4835ZM73.3647 84.0432H78.9835V83.0432H73.3647V84.0432ZM81.667 84.0432H87.2859V83.0432H81.667V84.0432ZM81.167 29.2499V83.5432H82.167V29.2499H81.167ZM87.2859 28.7499H81.667V29.7499H87.2859V28.7499ZM87.7859 83.5432V29.2499H86.7859V83.5432H87.7859ZM75.3969 16.0956C73.9932 16.0956 72.8493 17.2424 72.8493 18.6464H73.8493C73.8493 17.7932 74.547 17.0956 75.3969 17.0956V16.0956ZM85.2381 16.0956H75.3969V17.0956H85.2381V16.0956ZM87.7857 18.6464C87.7857 17.2425 86.6419 16.0956 85.2381 16.0956V17.0956C86.0881 17.0956 86.7857 17.7932 86.7857 18.6464H87.7857ZM87.7857 26.5476V18.6464H86.7857V26.5476H87.7857ZM73.333 27.0476H87.2857V26.0476H73.333V27.0476ZM72.833 18.6464V26.5476H73.833V18.6464H72.833ZM73.3493 18.1464H73.333V19.1464H73.3493V18.1464ZM80.3011 97.5887C80.4015 97.5887 80.5469 97.5749 80.6992 97.5013C80.8592 97.4241 80.9945 97.2964 81.0898 97.1209L80.211 96.6436C80.2097 96.6461 80.2131 96.6392 80.224 96.6287C80.2351 96.618 80.249 96.6082 80.2643 96.6008C80.2935 96.5868 80.3118 96.5887 80.3011 96.5887V97.5887ZM79.5124 97.1209C79.6077 97.2964 79.743 97.4241 79.9029 97.5013C80.0553 97.5749 80.2007 97.5887 80.3011 97.5887V96.5887C80.2904 96.5887 80.3087 96.5867 80.3379 96.6008C80.3532 96.6082 80.3671 96.618 80.3782 96.6287C80.3891 96.6392 80.3925 96.6461 80.3912 96.6437L79.5124 97.1209ZM73.8283 86.4822L79.5108 97.1179L80.3928 96.6467L74.7103 86.011L73.8283 86.4822ZM86.365 85.7466H74.2693V86.7466H86.365V85.7466ZM81.0909 97.1189L86.8055 86.4832L85.9246 86.0099L80.21 96.6456L81.0909 97.1189ZM10.0482 20.8008H56.842V19.8008H10.0482V20.8008ZM9.19922 21.6519C9.19922 21.18 9.57899 20.8008 10.0482 20.8008V19.8008C9.0252 19.8008 8.19922 20.6292 8.19922 21.6519H9.19922ZM9.19922 39.2834V21.6519H8.19922V39.2834H9.19922ZM10.0482 40.1345C9.57899 40.1345 9.19922 39.7553 9.19922 39.2834H8.19922C8.19922 40.3061 9.02523 41.1345 10.0482 41.1345V40.1345ZM56.842 40.1345H10.0482V41.1345H56.842V40.1345ZM57.691 39.2834C57.691 39.7553 57.3113 40.1345 56.842 40.1345V41.1345C57.8651 41.1345 58.691 40.306 58.691 39.2834H57.691ZM57.691 21.6527V39.2834H58.691V21.6527H57.691ZM56.842 20.8008C57.3109 20.8008 57.691 21.1804 57.691 21.6527H58.691C58.691 20.6303 57.8654 19.8008 56.842 19.8008V20.8008ZM11.5719 37.7963L29.7944 30.9441L29.4425 30.0081L11.2199 36.8603L11.5719 37.7963ZM10.8959 23.6083V37.3283H11.8959V23.6083H10.8959ZM29.7948 30.0082L11.5723 23.1404L11.2196 24.0762L29.4421 30.944L29.7948 30.0082ZM49.4121 22.5038H17.4591V23.5038H49.4121V22.5038ZM33.6043 29.4969L49.5884 23.4717L49.2357 22.536L33.2516 28.5611L33.6043 29.4969ZM17.2826 23.4716L33.2514 29.4968L33.6044 28.5612L17.6356 22.536L17.2826 23.4716ZM49.6045 37.4805L33.6204 31.4553L33.2676 32.391L49.2518 38.4162L49.6045 37.4805ZM17.4584 38.4483H49.4281V37.4483H17.4584V38.4483ZM33.2677 31.4553L17.282 37.4805L17.6347 38.4162L33.6204 32.391L33.2677 31.4553ZM55.3311 23.1399L37.1086 30.0083L37.4613 30.944L55.6838 24.0757L55.3311 23.1399ZM56.0074 37.3278V23.6078H55.0074V37.3278H56.0074ZM37.1089 30.9442L55.3315 37.7958L55.6834 36.8598L37.4609 30.0081L37.1089 30.9442ZM10.0463 46.1729H28.7616V45.1729H10.0463V46.1729ZM9.19727 47.024C9.19727 46.5521 9.57703 46.1729 10.0463 46.1729V45.1729C9.02325 45.1729 8.19727 46.0013 8.19727 47.024H9.19727ZM9.19727 61.1261V47.024H8.19727V61.1261H9.19727ZM10.0463 61.9772C9.57704 61.9772 9.19727 61.598 9.19727 61.1261H8.19727C8.19727 62.1488 9.02328 62.9772 10.0463 62.9772V61.9772ZM28.7616 61.9772H10.0463V62.9772H28.7616V61.9772ZM29.6106 61.1261C29.6106 61.598 29.2308 61.9772 28.7616 61.9772V62.9772C29.7846 62.9772 30.6106 62.1487 30.6106 61.1261H29.6106ZM29.6106 47.0247V61.1261H30.6106V47.0247H29.6106ZM28.7616 46.1729C29.2304 46.1729 29.6106 46.5525 29.6106 47.0247H30.6106C30.6106 46.0024 29.7849 45.1729 28.7616 45.1729V46.1729ZM11.3962 60.2749H27.4125V59.2749H11.3962V60.2749ZM10.8962 48.3759V59.7749H11.8962V48.3759H10.8962ZM27.4125 47.8759H11.3962V48.8759H27.4125V47.8759ZM27.9125 59.7749V48.3759H26.9125V59.7749H27.9125ZM56.8416 45.1729H38.1263V46.1729H56.8416V45.1729ZM56.8528 45.173L56.8521 45.173L56.8312 46.1727L56.8319 46.1728L56.8528 45.173ZM58.6914 47.0247C58.6914 46.0024 57.8657 45.1729 56.8424 45.1729V46.1729C57.3112 46.1729 57.6914 46.5525 57.6914 47.0247H58.6914ZM58.6906 61.1261L58.6914 47.0248L57.6914 47.0247L57.6906 61.126L58.6906 61.1261ZM56.8416 62.9772C57.8647 62.9772 58.6906 62.1487 58.6906 61.1261H57.6906C57.6906 61.598 57.3109 61.9772 56.8416 61.9772V62.9772ZM38.1263 62.9772H56.8416V61.9772H38.1263V62.9772ZM36.2773 61.1261C36.2773 62.1488 37.1034 62.9772 38.1263 62.9772V61.9772C37.6571 61.9772 37.2773 61.598 37.2773 61.1261H36.2773ZM36.2773 47.024V61.1261H37.2773V47.024H36.2773ZM38.1263 45.1729C37.1033 45.1729 36.2773 46.0013 36.2773 47.024H37.2773C37.2773 46.5521 37.6571 46.1729 38.1263 46.1729V45.1729ZM55.4919 59.2749H39.4763V60.2749H55.4919V59.2749ZM54.9919 48.3759V59.7749H55.9919V48.3759H54.9919ZM39.4763 48.8759H55.4919V47.8759H39.4763V48.8759ZM39.9763 59.7749V48.3759H38.9763V59.7749H39.9763ZM10.0463 68.0195H28.7616V67.0195H10.0463V68.0195ZM9.19727 68.8707C9.19727 68.3988 9.57703 68.0195 10.0463 68.0195V67.0195C9.02325 67.0195 8.19727 67.848 8.19727 68.8707H9.19727ZM10.0463 69.7218C9.57704 69.7218 9.19727 69.3426 9.19727 68.8707H8.19727C8.19727 69.8934 9.02328 70.7218 10.0463 70.7218V69.7218ZM28.7616 69.7218H10.0463V70.7218H28.7616V69.7218ZM29.6106 68.8707C29.6106 69.3425 29.2308 69.7218 28.7616 69.7218V70.7218C29.7846 70.7218 30.6106 69.8933 30.6106 68.8707H29.6106ZM28.7616 68.0195C29.2306 68.0195 29.6106 68.3993 29.6106 68.8707H30.6106C30.6106 67.8489 29.7847 67.0195 28.7616 67.0195V68.0195ZM21.4595 72.4873H10.0463V73.4873H21.4595V72.4873ZM23.3085 74.3384C23.3085 73.3166 22.4827 72.4873 21.4595 72.4873V73.4873C21.9286 73.4873 22.3085 73.8671 22.3085 74.3384H23.3085ZM21.4595 76.1896C22.4825 76.1896 23.3085 75.3611 23.3085 74.3384H22.3085C22.3085 74.8103 21.9288 75.1896 21.4595 75.1896V76.1896ZM10.0463 76.1896H21.4595V75.1896H10.0463V76.1896ZM8.19727 74.3384C8.19727 75.3611 9.02328 76.1896 10.0463 76.1896V75.1896C9.57704 75.1896 9.19727 74.8103 9.19727 74.3384H8.19727ZM10.0463 72.4873C9.02325 72.4873 8.19727 73.3158 8.19727 74.3384H9.19727C9.19727 73.8665 9.57703 73.4873 10.0463 73.4873V72.4873ZM38.1263 68.0195H56.8416V67.0195H38.1263V68.0195ZM37.2773 68.8707C37.2773 68.3988 37.6571 68.0195 38.1263 68.0195V67.0195C37.1033 67.0195 36.2773 67.848 36.2773 68.8707H37.2773ZM38.1263 69.7218C37.6571 69.7218 37.2773 69.3426 37.2773 68.8707H36.2773C36.2773 69.8934 37.1034 70.7218 38.1263 70.7218V69.7218ZM56.8416 69.7218H38.1263V70.7218H56.8416V69.7218ZM57.6906 68.8707C57.6906 69.3425 57.3109 69.7218 56.8416 69.7218V70.7218C57.8646 70.7218 58.6906 69.8933 58.6906 68.8707H57.6906ZM56.8424 68.0195C57.3115 68.0195 57.6911 68.3993 57.6906 68.8702L58.6906 68.8711C58.6916 67.8489 57.8654 67.0195 56.8424 67.0195V68.0195ZM56.8416 68.0195H56.8424V67.0195H56.8416V68.0195ZM49.5552 72.4873H38.142V73.4873H49.5552V72.4873ZM51.4042 74.3384C51.4042 73.3166 50.5784 72.4873 49.5552 72.4873V73.4873C50.0243 73.4873 50.4042 73.8671 50.4042 74.3384H51.4042ZM49.5552 76.1896C50.5782 76.1896 51.4042 75.3611 51.4042 74.3384H50.4042C50.4042 74.8103 50.0245 75.1896 49.5552 75.1896V76.1896ZM38.142 76.1896H49.5552V75.1896H38.142V76.1896ZM36.293 74.3384C36.293 75.3611 37.119 76.1896 38.142 76.1896V75.1896C37.6727 75.1896 37.293 74.8103 37.293 74.3384H36.293ZM38.142 72.4873C37.119 72.4873 36.293 73.3158 36.293 74.3384H37.293C37.293 73.8666 37.6727 73.4873 38.142 73.4873V72.4873ZM29.5156 90.539C29.5156 88.366 31.2766 86.6035 33.4441 86.6035V85.6035C30.7229 85.6035 28.5156 87.8152 28.5156 90.539H29.5156ZM33.4441 94.4745C31.2765 94.4745 29.5156 92.712 29.5156 90.539H28.5156C28.5156 93.2628 30.7227 95.4745 33.4441 95.4745V94.4745ZM37.3726 90.539C37.3726 92.712 35.6116 94.4745 33.4441 94.4745V95.4745C36.1654 95.4745 38.3726 93.2628 38.3726 90.539H37.3726ZM33.4441 86.6035C35.6147 86.6035 37.3869 88.3691 37.3727 90.5357L38.3726 90.5423C38.3906 87.8139 36.1626 85.6035 33.4441 85.6035V86.6035ZM31.2137 90.539C31.2137 91.769 32.2152 92.7722 33.4441 92.7722V91.7722C32.7687 91.7722 32.2137 91.2179 32.2137 90.539H31.2137ZM33.4441 88.3058C32.2142 88.3058 31.2137 89.3101 31.2137 90.539H32.2137C32.2137 89.8606 32.7682 89.3058 33.4441 89.3058V88.3058ZM35.6746 90.539C35.6746 89.309 34.6731 88.3058 33.4441 88.3058V89.3058C34.1196 89.3058 34.6746 89.8601 34.6746 90.539H35.6746ZM33.4441 92.7722C34.6656 92.7722 35.6945 91.7745 35.6745 90.531L34.6747 90.5471C34.6854 91.2124 34.127 91.7722 33.4441 91.7722V92.7722Z" fill="url(#paint1_linear_913_12110)"/>
<defs>
<linearGradient id="paint0_linear_913_12110" x1="33.4528" y1="1" x2="33.4528" y2="101" gradientUnits="userSpaceOnUse">
<stop stop-color="#7C38BD"/>
<stop offset="0.510417" stop-color="#BD6DF2"/>
<stop offset="1" stop-color="#799DCB"/>
</linearGradient>
<linearGradient id="paint1_linear_913_12110" x1="45.5" y1="1" x2="45.5" y2="101" gradientUnits="userSpaceOnUse">
<stop stop-color="#7D39BE"/>
<stop offset="0.475795" stop-color="#BC6DF1"/>
<stop offset="1" stop-color="#7A9BCB"/>
</linearGradient>
</defs>
</svg>
