<svg width="108" height="100" viewBox="0 0 108 100" fill="none" xmlns="http://www.w3.org/2000/svg">
<path fill-rule="evenodd" clip-rule="evenodd" d="M13.2377 65.5908H94.7564V6.80855C94.7556 5.98568 94.4286 5.19756 93.8467 4.61553C93.2656 4.03438 92.4777 3.70738 91.6549 3.70656H16.332C15.5109 3.70821 14.7237 4.03604 14.1435 4.61718C13.5624 5.19915 13.2363 5.98642 13.2355 6.8085L13.2377 65.5908ZM98.4688 6.81067V67.1271L107.679 92.8922V92.893C108.231 94.2275 108.063 95.7532 107.233 96.9353C106.051 98.7384 103.644 99.9974 101.377 99.9974L101.377 99.9987H71.4031C71.3751 99.9998 71.347 100 71.3188 99.9999L71.3246 99.9987H6.62295C4.35672 99.9987 1.94809 98.7404 0.765919 96.9366H0.766747C-0.0634639 95.7545 -0.231477 94.2288 0.321425 92.8943L9.52734 67.138V6.81067C9.52983 5.00516 10.2475 3.2734 11.5238 1.99675C12.801 0.720232 14.5317 0.00165303 16.337 0H91.6599C93.4652 0.00165578 95.196 0.720211 96.4723 1.99675C97.7495 3.27327 98.4671 5.00505 98.4688 6.81067ZM72.4156 96.2941L67.6992 88.0112C67.3673 87.4359 66.7523 87.0824 66.0884 87.0841H41.9216C41.2537 87.0783 40.6337 87.4326 40.2993 88.0112L35.5823 96.2944L6.62334 96.2947C5.6226 96.2947 4.3595 95.6547 3.86784 94.9039C3.64208 94.5607 3.71107 94.3983 3.74856 94.31L3.74948 94.3079C3.76603 94.2706 3.78176 94.2317 3.79583 94.192L12.6929 69.3015H95.3096L104.205 94.1911C104.219 94.2309 104.234 94.2698 104.251 94.307L104.253 94.3124C104.291 94.4021 104.36 94.5647 104.133 94.9031C103.639 95.6589 102.379 96.2938 101.377 96.2938L72.4156 96.2941ZM18.3736 62.3096H89.6217C90.1134 62.3096 90.5852 62.1142 90.9328 61.7665C91.2805 61.4188 91.4758 60.947 91.4758 60.4552V8.84263C91.4758 8.3509 91.2805 7.87902 90.9328 7.53134C90.5852 7.18364 90.1134 6.98827 89.6217 6.98827H18.3736C17.3497 6.98827 16.5195 7.8186 16.5195 8.84263V60.4552C16.5195 61.4793 17.3497 62.3096 18.3736 62.3096ZM87.7676 58.6009H20.2277V10.697H87.7676V58.6009ZM68.1369 96.2889H39.8615L42.9899 90.7928H65.0081L68.1369 96.2889ZM35.3571 78.51H19.1197C18.0958 78.51 17.2656 77.6797 17.2656 76.6559C17.2656 75.632 18.0958 74.8018 19.1197 74.8018H35.3571C36.381 74.8018 37.2112 75.632 37.2112 76.6559C37.2112 77.6797 36.381 78.51 35.3571 78.51ZM14.3853 90.7941H30.6253C31.6492 90.7941 32.4794 89.9639 32.4794 88.94C32.4794 87.9162 31.6492 87.0859 30.6253 87.0859H14.3853C13.3615 87.0859 12.5312 87.9162 12.5312 88.94C12.5312 89.9639 13.3615 90.7941 14.3853 90.7941ZM88.8812 78.51H72.6412C71.6173 78.51 70.7871 77.6797 70.7871 76.6559C70.7871 75.632 71.6173 74.8018 72.6412 74.8018H88.8812C89.9051 74.8018 90.7353 75.632 90.7353 76.6559C90.7353 77.6797 89.9051 78.51 88.8812 78.51ZM77.3756 90.7941H93.6155C94.6394 90.7941 95.4696 89.9639 95.4696 88.94C95.4696 87.9162 94.6394 87.0859 93.6155 87.0859H77.3756C76.3517 87.0859 75.5215 87.9162 75.5215 88.94C75.5215 89.9639 76.3517 90.7941 77.3756 90.7941ZM62.1086 78.51H45.8853C44.8615 78.51 44.0312 77.6797 44.0312 76.6559C44.0312 75.632 44.8615 74.8018 45.8853 74.8018H62.1086C63.1325 74.8018 63.9627 75.632 63.9627 76.6559C63.9627 77.6797 63.1325 78.51 62.1086 78.51ZM32.7133 26.5354C32.9856 26.6869 33.2919 26.7664 33.6031 26.7672L33.6031 26.7654C34.4482 26.7638 35.1849 26.1909 35.396 25.373C35.6062 24.5543 35.237 23.6975 34.4979 23.2885L30.0182 20.8291L34.4979 18.372C34.9556 18.1501 35.3024 17.7503 35.4572 17.266C35.612 16.7809 35.5607 16.2544 35.3157 15.8082C35.0707 15.3628 34.6527 15.0375 34.161 14.9083C33.6685 14.7792 33.1454 14.8587 32.7133 15.1269L25.2713 19.209C24.6811 19.5352 24.3145 20.1569 24.3145 20.8315C24.3145 21.5054 24.6811 22.1271 25.2713 22.4541V22.4533L32.7133 26.5354ZM48.7332 26.7693C47.8881 26.7668 47.1523 26.1948 46.9421 25.3761C46.7327 24.5581 47.1018 23.7013 47.841 23.2924L52.319 20.833L47.841 18.3759V18.3767C47.3799 18.1573 47.0298 17.7575 46.8725 17.2716C46.7161 16.7856 46.7666 16.2566 47.0124 15.8096C47.2583 15.3618 47.6771 15.0356 48.1712 14.9073C48.6654 14.779 49.1902 14.8601 49.6231 15.1316L57.0651 19.2138V19.2129C57.6553 19.5399 58.0211 20.1616 58.0211 20.8355C58.0211 21.5102 57.6553 22.1319 57.0651 22.458L49.6231 26.5402C49.3499 26.69 49.0445 26.7693 48.7332 26.7693ZM39.2464 29.244C39.3821 29.2754 39.5212 29.2903 39.6611 29.2903L39.6612 29.2906C40.527 29.2914 41.2785 28.6929 41.4714 27.8485L44.4843 14.6361C44.712 13.6376 44.087 12.6434 43.0888 12.4157C42.0905 12.1881 41.0964 12.8123 40.8688 13.8106L37.8558 27.023C37.6274 28.0205 38.2498 29.0139 39.2464 29.244ZM79.5191 19.3852H62.5475C61.5227 19.3852 60.6934 18.555 60.6934 17.5311C60.6934 16.5064 61.5227 15.677 62.5475 15.677H79.5191C80.543 15.677 81.3732 16.5064 81.3732 17.5311C81.3732 18.555 80.543 19.3852 79.5191 19.3852ZM63.7174 25.9886H79.5185C80.5424 25.9886 81.3726 25.1584 81.3726 24.1345C81.3726 23.1106 80.5424 22.2804 79.5185 22.2804H63.7174C62.6927 22.2804 61.8633 23.1106 61.8633 24.1345C61.8633 25.1584 62.6927 25.9886 63.7174 25.9886ZM74.3924 54.4034C73.5473 54.4018 72.8106 53.8297 72.5995 53.011C72.3893 52.1931 72.7585 51.3355 73.4976 50.9265L77.9773 48.4694L73.4976 46.01C72.66 45.4901 72.3761 44.4048 72.8512 43.5415C73.3263 42.6772 74.3949 42.3362 75.2823 42.765L82.7359 46.842C83.3261 47.169 83.6928 47.7907 83.6928 48.4646C83.6928 49.1393 83.3261 49.761 82.7359 50.0871L75.2823 54.1716C75.0099 54.3223 74.7036 54.4017 74.3924 54.4034ZM58.3785 54.1719C58.6508 54.3226 58.9571 54.4021 59.2683 54.4038C60.1134 54.4013 60.8493 53.8283 61.0595 53.0104C61.2689 52.1925 60.8998 51.3357 60.1606 50.9267L55.6834 48.4696L60.1606 46.0077C60.6216 45.7883 60.9718 45.3893 61.129 44.9034C61.2855 44.4174 61.235 43.8884 60.9892 43.4406C60.7433 42.9935 60.3245 42.6674 59.8303 42.5391C59.3362 42.4107 58.8114 42.4919 58.3785 42.7626L50.9365 46.8447C50.3463 47.1717 49.9805 47.7926 49.9805 48.4673C49.9805 49.1419 50.3463 49.7636 50.9365 50.0898L58.3785 54.1719ZM68.3338 56.9273C67.4697 56.9264 66.7206 56.3287 66.5285 55.486L63.5156 42.2736C63.288 41.2745 63.9121 40.2802 64.9103 40.0527C65.9093 39.825 66.9034 40.45 67.131 41.4484L70.1439 54.6607C70.3707 55.6566 69.7483 56.6492 68.7533 56.8786C68.6159 56.9117 68.4753 56.9273 68.3338 56.9273ZM28.3092 47.4682H45.2808C46.3055 47.4682 47.1349 46.6388 47.1349 45.6141C47.1349 44.5902 46.3055 43.76 45.2808 43.76H28.3092C27.2853 43.76 26.4551 44.5902 26.4551 45.6141C26.4551 46.6388 27.2853 47.4682 28.3092 47.4682ZM44.1103 54.0746H28.3092C27.2853 54.0746 26.4551 53.2452 26.4551 52.2205C26.4551 51.1966 27.2853 50.3664 28.3092 50.3664H44.1103C45.135 50.3664 45.9644 51.1966 45.9644 52.2205C45.9644 53.2452 45.135 54.0746 44.1103 54.0746ZM38.9322 36.5051H69.0724H69.0851C70.109 36.5051 70.9392 35.6757 70.9392 34.651C70.9392 33.6271 70.109 32.7969 69.0851 32.7969H38.9322C37.9083 32.7969 37.0781 33.6271 37.0781 34.651C37.0781 35.6757 37.9083 36.5051 38.9322 36.5051Z" fill="url(#paint0_linear_913_12122)"/>
<defs>
<linearGradient id="paint0_linear_913_12122" x1="54" y1="0" x2="54" y2="100" gradientUnits="userSpaceOnUse">
<stop stop-color="#7C38BD"/>
<stop offset="0.5" stop-color="#BD6DF2"/>
<stop offset="0.919976" stop-color="#799DCB"/>
</linearGradient>
</defs>
</svg>
